<?xml version="1.0" encoding="UTF-8"?><svg id="b" xmlns="http://www.w3.org/2000/svg" viewBox="0 0 694.54 412.04"><g id="c"><path d="M371.39,0c75.62.88,161.73,9.83,242.94,45.91,20.04,8.9,38.43,20.69,52.39,37.93,23.92,29.53,19.75,68.82-9.84,97.86-2.18,2.14-4.33,4.42-6.88,6.02-7.28,4.58-6.35,7.48.93,11.38,25.39,13.64,39.04,35.47,43.07,63.72,2.16,15.13-2.28,27.92-11.04,40.46-25.97,37.17-65.08,54.31-105.37,68.35-100.16,34.9-203.41,47.44-309.05,36.63-68.33-6.99-131.82-31.14-194.3-58.17-22.04-9.53-44.03-19.19-66.31-28.14-6.33-2.54-8.57-5.05-7.77-12.24,2.42-21.73,2.02-21.78,23.69-21.88,42.52-.21,84.47-29.83,94.42-66.67,14.51-53.71-21.23-103.04-76.71-105.87-1.14-.06-2.29-.07-3.44-.13-22.55-1.09-28.85-8.52-27.26-31.26.29-4.13,2.82-4.98,5.49-6.23C82.27,47.02,149.89,21.65,222.47,11.72c45.45-6.22,91.16-9.01,148.92-11.72ZM26.91,317.6c3.31,5.37,7.58,6.29,11.26,7.89,25.54,11.14,50.9,22.77,76.79,33.04,62.42,24.77,126.54,42.76,194.13,45.95,49.85,2.36,99.28-1.89,148.33-10.17,56.28-9.5,111.58-22.63,162.14-50.62,19.24-10.65,36.83-23.26,48.66-42.41,11.54-18.68,9.5-37.78-6.04-53.05-15.87-15.59-36.01-24.09-55.96-32.87-5.33-2.34-11.35-3.41-17.22-8.48,16.52-5.54,31.18-11.84,44.27-21.22,32.22-23.1,34.82-50.1,7.65-78.78-17.46-18.44-39.28-30.15-62.28-39.81-47.64-20-97.83-29.38-148.9-34.8-41.85-4.44-83.89-6.82-125.85-3.87-70.2,4.94-137.66,22.72-203.4,47.3-18.07,6.75-36.48,12.76-54.24,21.57,4.3,4.11,9.14,4.32,13.4,5.72,22.33,7.31,43.34,17.29,61.67,32.05,25.64,20.65,43.02,46.05,39.38,80.69-3.65,34.72-26.06,56.68-54.31,73.55-24.16,14.43-50.87,22.33-79.46,28.31Z" fill="#08315d" stroke-width="0"/><path d="M26.91,317.6c28.59-5.98,55.3-13.88,79.46-28.31,28.25-16.87,50.66-38.83,54.31-73.55,3.64-34.64-13.75-60.04-39.38-80.69-18.33-14.76-39.33-24.74-61.67-32.05-4.26-1.4-9.1-1.61-13.4-5.72,17.76-8.81,36.17-14.82,54.24-21.57,65.74-24.57,133.2-42.35,203.4-47.3,41.96-2.95,84-.58,125.85,3.87,51.07,5.42,101.27,14.8,148.9,34.8,23,9.66,44.81,21.37,62.28,39.81,27.17,28.68,24.57,55.68-7.65,78.78-13.09,9.38-27.75,15.68-44.27,21.22,5.88,5.07,11.9,6.14,17.22,8.48,19.95,8.78,40.09,17.28,55.96,32.87,15.54,15.27,17.58,34.37,6.04,53.05-11.83,19.15-29.42,31.76-48.66,42.41-50.56,27.99-105.86,41.12-162.14,50.62-49.05,8.28-98.49,12.52-148.33,10.17-67.59-3.19-131.71-21.18-194.13-45.95-25.89-10.27-51.24-21.9-76.79-33.04-3.67-1.6-7.94-2.52-11.26-7.89ZM353.01,264.63c-13.74,0-27.54-.81-41.2.19-20.48,1.51-41.29,2.33-60.5,10.75-19.43,8.51-21,25.11-3.9,37.81,9.63,7.15,20.69,11.26,32.05,14.73,39.62,12.1,79.95,11.12,120.22,5.26,21.07-3.06,42.15-7.69,60.65-19.32,12.18-7.66,13.01-15.54,2.87-25.95-7.61-7.82-17.27-12.37-27.51-15.84-26.92-9.11-54.78-9.05-82.68-7.64ZM350.92,161.08c34.34-.9,68.59-2.57,101.4-14.29,8.3-2.96,17.96-6.16,19.26-15.89,1.44-10.78-6.07-18.11-14.74-23.96-11.66-7.87-24.72-12.12-38.31-14.18-49.07-7.44-98.06-4.57-146.86,2.85-8.2,1.25-16.31,4.07-23.28,9.08-11.13,7.99-12.41,20.64-2.95,30.42,5.39,5.57,12.13,9.12,19.2,12.12,27.62,11.69,56.69,14.33,86.28,13.87ZM249.71,192.39c4.28,2.15,7.2,3.88,10.3,5.12,23.47,9.42,42.1,22.42,39.32,51.78-.57,6.01,3.97,5.38,7.74,5.44,32.44.58,64.88.96,97.31,1.86,6.67.18,8.6-2.07,8.72-8.35.34-17.4,8.47-30.45,23.24-39.53,6.09-3.74,12.07-7.66,18.2-11.57-15-15.66-53.72-20.47-72.3-2.29-5.77,5.65-8.93,5.03-12.22-2.27-3.7-8.21-8.3-16.01-13.69-26.24-4.33,10.31-8.18,18.1-10.88,26.26-2.65,8.03-4.96,9.26-12.24,3.45-23.96-19.13-58.56-20.64-83.5-3.67Z" fill="#84a1d8" stroke-width="0"/><path d="M353.01,264.63c27.9-1.41,55.77-1.47,82.68,7.64,10.23,3.46,19.89,8.02,27.51,15.84,10.14,10.41,9.31,18.28-2.87,25.95-18.5,11.64-39.59,16.26-60.65,19.32-40.27,5.86-80.6,6.84-120.22-5.26-11.36-3.47-22.43-7.58-32.05-14.73-17.1-12.7-15.53-29.3,3.9-37.81,19.21-8.42,40.02-9.24,60.5-10.75,13.66-1,27.46-.19,41.2-.19ZM345.27,276.12c-12.58.62-25.18.93-37.72,1.95-12.9,1.05-25.88,1.98-38.36,5.9-3.69,1.16-8,2.45-8.53,6.61-.54,4.25,3.41,6.35,6.83,8.24,8.11,4.49,16.89,6.95,25.89,8.78,28.8,5.85,57.67,4.74,86.57.87,14.77-1.98,29.43-4.52,43.08-10.87,3.06-1.42,6.76-3.2,6.91-7.02.19-4.64-4.11-6.1-7.59-7.37-4.27-1.57-8.73-2.75-13.21-3.59-21.13-3.95-42.49-4.15-63.87-3.51Z" fill="#08315d" stroke-width="0"/><path d="M350.92,161.08c-29.59.46-58.66-2.18-86.28-13.87-7.07-2.99-13.81-6.55-19.2-12.12-9.46-9.78-8.18-22.43,2.95-30.42,6.98-5.01,15.08-7.83,23.28-9.08,48.8-7.41,97.79-10.28,146.86-2.85,13.58,2.06,26.65,6.31,38.31,14.18,8.67,5.86,16.18,13.18,14.74,23.96-1.3,9.74-10.95,12.93-19.26,15.89-32.81,11.71-67.06,13.38-101.4,14.29ZM353.06,100.21c-15.21.9-35.39,1.93-55.54,3.33-11.04.76-22.01,2.34-32.53,6-3.17,1.1-7.06,2.5-7.23,6.45-.16,3.7,2.96,6.09,6.02,7.76,8.75,4.78,18.12,7.84,27.89,9.85,31.84,6.56,63.72,5.11,95.6.67,13.99-1.95,27.86-4.57,40.85-10.44,3.76-1.7,8.65-3.24,8.65-8.11,0-5.62-5.42-6.72-9.62-8.33-2.47-.95-5.1-1.51-7.69-2.12-20.22-4.79-40.82-4.78-66.4-5.04Z" fill="#08315d" stroke-width="0"/><path d="M249.71,192.39c24.94-16.97,59.54-15.45,83.5,3.67,7.28,5.81,9.58,4.57,12.24-3.45,2.7-8.17,6.54-15.95,10.88-26.26,5.4,10.23,10,18.03,13.69,26.24,3.29,7.31,6.45,7.92,12.22,2.27,18.58-18.19,57.31-13.37,72.3,2.29-6.13,3.9-12.11,7.82-18.2,11.57-14.77,9.08-22.91,22.13-23.24,39.53-.12,6.29-2.05,8.54-8.72,8.35-32.43-.9-64.87-1.27-97.31-1.86-3.77-.07-8.31.56-7.74-5.44,2.78-29.36-15.85-42.36-39.32-51.78-3.11-1.25-6.02-2.98-10.3-5.12ZM344.15,218.78c-25.8-25.84-46.9-32.65-72.68-24.19.58.44,1.1,1.11,1.75,1.3,22.9,6.56,37.97,19.13,35.54,45.52-.5,5.43,3.94,4.57,7.2,4.63,26.36.51,52.72.7,79.07,1.59,7.37.25,8.98-2.49,9.03-9.15.07-9.88,4.12-18.48,10.72-25.89,6.36-7.15,14.65-11.69,23.49-16.42-25-11.1-43.41-4.71-64.13,21.73-7.05-8.79-9.3-20.44-17.45-29.3-4.28,10.29-8.21,19.75-12.54,30.18Z" fill="#08315d" stroke-width="0"/><path d="M345.27,276.12c21.38-.64,42.75-.44,63.87,3.51,4.48.84,8.94,2.02,13.21,3.59,3.48,1.28,7.78,2.73,7.59,7.37-.16,3.81-3.85,5.6-6.91,7.02-13.65,6.34-28.31,8.89-43.08,10.87-28.89,3.87-57.77,4.97-86.57-.87-9-1.83-17.78-4.29-25.89-8.78-3.42-1.89-7.37-3.99-6.83-8.24.53-4.16,4.83-5.45,8.53-6.61,12.48-3.91,25.46-4.84,38.36-5.9,12.54-1.03,25.15-1.33,37.72-1.95Z" fill="#fbfcfc" stroke-width="0"/><path d="M353.06,100.21c25.58.26,46.19.26,66.4,5.04,2.59.61,5.22,1.17,7.69,2.12,4.2,1.61,9.62,2.71,9.62,8.33,0,4.87-4.89,6.41-8.65,8.11-12.99,5.87-26.86,8.49-40.85,10.44-31.89,4.44-63.77,5.89-95.6-.67-9.78-2.01-19.14-5.07-27.89-9.85-3.06-1.67-6.18-4.06-6.02-7.76.17-3.94,4.07-5.34,7.23-6.45,10.51-3.65,21.49-5.23,32.53-6,20.16-1.4,40.33-2.43,55.54-3.33Z" fill="#fbfcfc" stroke-width="0"/><path d="M344.15,218.78c4.33-10.43,8.26-19.88,12.54-30.18,8.15,8.86,10.4,20.51,17.45,29.3,20.72-26.45,39.13-32.84,64.13-21.73-8.83,4.73-17.12,9.27-23.49,16.42-6.6,7.41-10.65,16.02-10.72,25.89-.05,6.66-1.66,9.4-9.03,9.15-26.34-.88-52.71-1.07-79.07-1.59-3.26-.06-7.7.8-7.2-4.63,2.43-26.39-12.64-38.96-35.54-45.52-.65-.19-1.17-.85-1.74-1.31,25.76-8.45,46.87-1.65,72.67,24.2Z" fill="#fbfcfc" stroke-width="0"/></g></svg>