<?xml version="1.0" encoding="UTF-8"?><svg id="b" xmlns="http://www.w3.org/2000/svg" viewBox="0 0 700 603.35"><g id="c"><path d="M375.81,602.88c-.09-.14-.27-.29-.26-.42,1.25-10.15,1.15-10.5-8.58-7.71-12.75,3.67-25.13,2.53-37.55-1.21-7.02-2.11-7.07-2-6.09,5.17.18,1.3.03,2.64.03,4.63-8.24-3.99-16.15-7.78-24.03-11.63-32.8-15.98-64.27-34.25-94.27-55.04-30.38-21.06-59.09-44.19-85.71-69.88-2.62-2.53-4.27-2.67-7.08-.24-6.73,5.81-13.94,11.08-18.9,18.68-2.03,3.11-3.33,1.91-5-.6-16.36-24.6-30.16-50.46-38.33-79-1.41-4.93-3.35-5.51-7.7-3.67-8.34,3.54-16.87,6.61-25.29,9.97-2.87,1.15-4.36,1.33-4.86-2.65-5.47-42.94-3.95-85.45,7.2-127.43,1.73-6.5,1.23-6.99-5.27-5.85-3.63.64-7.29,1.06-10.92,1.69-3.05.53-3.66-.33-2.93-3.44,4.26-18.12,11.1-35.18,20.22-51.38,12.6-22.38,28.3-42.4,45.97-60.94,2.01-2.11,1.49-11.33-.69-12.85-1.33-.93-2.16.13-3.1.76-2.34,1.54-4.68,3.08-7.47,4.92-7.9-35.31-11.23-69.82,3.63-103.68C71.23,22.84,94.48,8.78,123.33,2.59c33.84-7.26,64.68,1.39,93.67,18.78,9.52,5.71,18.49,12.2,26.8,19.55,3.28,2.9,6.14,3.3,10.39,1.55,30-12.37,60.85-17.21,92.89-9.13,1.85.47,3.59.56,5.44.09,31.67-8.19,62.24-3.44,91.96,8.55,5.45,2.2,8.73,1.35,12.9-2.15,20.55-17.23,43.09-30.92,69.64-36.71,33.32-7.27,64.46-2.06,91.91,18.7,16.36,12.37,24.55,30.36,29.03,49.97,5.6,24.52,3.78,49.01-1.23,73.4-.61,2.95-1.26,5.89-1.96,9.14-2.68-.52-4.48-2.33-6.39-3.76-2.98-2.24-4.37-2.64-5.67,1.86-1.48,5.12-.57,8.28,3.16,12.26,25.67,27.46,47.26,57.61,59.3,93.74,1.69,5.08,2.65,10.41,4.38,15.48,1.37,4.05-.48,4.22-3.52,3.72-3.97-.65-7.94-1.24-11.91-1.87-3.43-.54-5.41-.4-4.11,4.3,9.24,33.5,12.07,67.7,10.21,102.32-.49,9.21-1.83,18.37-2.65,27.56-.26,2.91-1.38,3.27-3.93,2.25-9.04-3.6-18.22-6.87-27.2-10.6-3.84-1.6-5.26-.58-6.34,3.23-8.17,28.73-21.99,54.75-38.38,79.53-2.06,3.11-3.4,3.74-5.64.36-5.1-7.69-12.52-13-19.38-18.91-2.57-2.21-4.04-.99-5.91.8-32.07,30.75-66.9,57.98-104.11,82.22-31.45,20.48-64.62,37.75-98.55,53.62-.71.33-1.41.95-2.31.43ZM308.39,577.62c1.74.63,3.58,1.34,5.45,1.98,12.53,4.27,25,9.57,38.48,8.82,12.61-.7,24.65-4.73,36.33-9.58,1-.42,2.14-1.63,3.14-.59.51.53.25,1.88.2,2.85-.08,1.44-1.64,3.15-.17,4.21,1.56,1.13,3.11-.54,4.58-1.2,13.02-5.87,25.53-12.73,37.97-19.71,37.41-20.99,72.65-45.17,105.57-72.71,14.17-11.85,27.98-24.09,41.11-37.1,1.51-1.5,2.58-2.77,4.89-.66,5.83,5.31,12,10.23,17.95,15.4,4.89,4.25,4.78,4.28,8.11-1.12,14.53-23.59,26.29-48.38,32.44-75.57.79-3.49,2.09-4.09,5.48-2.64,8.64,3.67,17.49,6.85,26.23,10.29,2.5.98,3.96,1.09,4.32-2.34,2.93-27.68,2.54-55.27-1.76-82.8-2.47-15.78-5.9-31.33-11.13-46.44-.99-2.87-1.19-4.44,2.83-3.55,4.57,1.01,9.32,1.16,13.89,2.14,4.11.88,4.78-.32,3.59-4.06-3.94-12.38-9.19-24.16-15.52-35.49-13.03-23.33-29.5-44.03-48.15-63.05-2.04-2.08-2.49-3.89-1.55-6.69,2.07-6.21,3.36-12.65,4.28-19.13.87-6.18.98-6.29,5.93-2.7.54.39,1.04.85,1.58,1.25,4.15,3.02,4.72,2.86,5.52-2.14,2.83-17.8,4.25-35.64,1.22-53.58-2.89-17.16-8.17-33.42-20.21-46.45-17.69-19.14-40.96-25.51-65.87-26.52-19.25-.78-37.53,4.21-54.85,12.65-16.43,8.01-30.92,18.83-44.6,30.82-1.56,1.36-2.63,3.03-5.53,1.68-31.4-14.65-63.82-21.2-98.09-11.46-1.49.42-2.97.37-4.47-.08-14.83-4.42-29.9-5.59-45.26-3.73-17.94,2.17-35.27,6.56-51.5,14.63-2.84,1.41-4.31,1.17-6.48-.83-9.15-8.44-19.05-15.95-29.6-22.55-29.51-18.48-60.99-26.42-95.55-17.53-30.24,7.78-49.88,26.18-57.82,56.83-5.32,20.54-5.41,41.13-2,61.87,1.48,8.99,1.71,9.09,9.06,4.1,3.06-2.08,4-1.34,4.34,1.99.7,7.04,2.17,13.96,4.39,20.64,1.1,3.31.18,5.19-2.05,7.47-16.62,16.97-31.47,35.34-43.72,55.75-7.98,13.29-14.66,27.18-19.33,42.02-1.27,4.02-.6,5.23,3.78,4.24,4.56-1.03,9.31-1.2,13.89-2.14,3.7-.76,3.52.71,2.64,3.38-13.91,41.93-17.57,84.9-13.02,128.72.36,3.51,1.24,4.39,4.62,3.01,8.55-3.48,17.34-6.38,25.74-10.15,4.33-1.94,5.13-.17,5.88,3.32,2.17,10.03,5.43,19.73,9.15,29.29,6.43,16.5,14.73,32.03,24.06,47.03,1.22,1.96,2.14,4.35,5.2,1.57,6.33-5.75,13.11-11.02,19.37-16.84,2.46-2.29,3.63-1.68,5.65.31,14.85,14.61,30.4,28.42,46.54,41.59,42.72,34.85,88.87,64.31,138.59,88.13,1.18.57,2.48,1.79,3.72.98,1.69-1.11.19-2.72.04-4.11-.13-1.14-.63-2.3.47-3.72Z" fill="#6ba8db" stroke-width="0"/><path d="M308.39,577.62c-1.1,1.41-.6,2.58-.47,3.72.15,1.39,1.65,3-.04,4.11-1.24.81-2.54-.41-3.72-.98-49.72-23.82-95.87-53.27-138.59-88.13-16.14-13.16-31.69-26.98-46.54-41.59-2.02-1.99-3.19-2.59-5.65-.31-6.26,5.82-13.04,11.09-19.37,16.84-3.06,2.78-3.98.39-5.2-1.57-9.34-15-17.64-30.54-24.06-47.03-3.72-9.56-6.99-19.26-9.15-29.29-.75-3.49-1.55-5.26-5.88-3.32-8.41,3.77-17.2,6.68-25.74,10.15-3.38,1.38-4.26.5-4.62-3.01-4.55-43.82-.89-86.79,13.02-128.72.89-2.67,1.07-4.14-2.64-3.38-4.59.94-9.33,1.11-13.89,2.14-4.38.99-5.04-.22-3.78-4.24,4.67-14.84,11.35-28.73,19.33-42.02,12.25-20.4,27.11-38.78,43.72-55.75,2.23-2.28,3.15-4.17,2.05-7.47-2.22-6.68-3.69-13.6-4.39-20.64-.33-3.33-1.28-4.07-4.34-1.99-7.35,4.99-7.58,4.89-9.06-4.1-3.41-20.74-3.32-41.33,2-61.87,7.94-30.66,27.58-49.06,57.82-56.83,34.56-8.89,66.04-.95,95.55,17.53,10.54,6.6,20.45,14.11,29.6,22.55,2.17,2,3.64,2.24,6.48.83,16.23-8.07,33.55-12.46,51.5-14.63,15.36-1.86,30.44-.7,45.26,3.73,1.49.45,2.97.5,4.47.08,34.27-9.74,66.69-3.19,98.09,11.46,2.9,1.36,3.98-.32,5.53-1.68,13.68-11.99,28.17-22.81,44.6-30.82,17.31-8.44,35.6-13.43,54.85-12.65,24.91,1.01,48.19,7.37,65.87,26.52,12.04,13.03,17.32,29.28,20.21,46.45,3.02,17.94,1.61,35.78-1.22,53.58-.8,5-1.37,5.16-5.52,2.14-.54-.39-1.04-.85-1.58-1.25-4.95-3.59-5.06-3.49-5.93,2.7-.91,6.49-2.21,12.92-4.28,19.13-.93,2.8-.49,4.6,1.55,6.69,18.65,19.02,35.12,39.72,48.15,63.05,6.33,11.33,11.58,23.11,15.52,35.49,1.19,3.74.51,4.94-3.59,4.06-4.57-.98-9.32-1.13-13.89-2.14-4.02-.89-3.82.68-2.83,3.55,5.23,15.11,8.67,30.65,11.13,46.44,4.3,27.53,4.69,55.12,1.76,82.8-.36,3.43-1.82,3.32-4.32,2.34-8.74-3.44-17.59-6.62-26.23-10.29-3.4-1.44-4.69-.85-5.48,2.64-6.15,27.19-17.9,51.98-32.44,75.57-3.33,5.41-3.22,5.37-8.11,1.12-5.95-5.18-12.12-10.1-17.95-15.4-2.31-2.11-3.38-.84-4.89.66-13.13,13.01-26.94,25.25-41.11,37.1-32.92,27.54-68.16,51.72-105.57,72.71-12.44,6.98-24.95,13.85-37.97,19.71-1.47.66-3.03,2.33-4.58,1.2-1.47-1.07.09-2.78.17-4.21.05-.97.31-2.32-.2-2.85-1-1.04-2.14.17-3.14.59-11.68,4.86-23.71,8.88-36.33,9.58-13.48.75-25.95-4.56-38.48-8.82-1.87-.64-3.71-1.35-5.45-1.98ZM432.93,338.42c.56-.21.67-.58.4-1.1.42-1.43.27-2.89.75-4.39,4.43-13.8,8.58-27.68,13.02-41.47.87-2.7.98-5.08.18-7.76-6.99-23.49-17.6-45.26-30.88-65.79-.4-.62-.71-1.54-2.02-1.22-2.46,6.9-7.41,11.66-13.97,14.89-3.56,1.72-6.46.75-9.72-1.39-3.85-2.53-3.77-5.36-2.51-9.01.37-1.06.16-2.33.21-3.5.16-3.59-1.52-3.53-3.96-2-3.62,2.27-6.46,5.16-8.56,8.98-2.48,4.51-1.83,8.28,2.34,10.88,3.34,2.09,2.93,4.02,1.47,7-5.23,10.72-10.45,21.45-17.89,30.84-2.38,3.01-1.14,3.81,1.66,4.75,4.64,1.56,9.36,2.53,14.27,2.55,7.04.03,14.13-.41,21.12.2,12.28,1.08,22.84,6.53,21.57,22.65-.54,6.85-.77,13.72-1.42,20.56-1.96,20.77-2.64,41.52.77,62.2.42,2.57.2,5.52,2.53,8.31.98-6.46,1.66-12.28,2.77-18.02,2.34-12.14,4.9-24.25,7.36-36.37.17-.61.33-1.21.5-1.82ZM376.18,146.71l-.12-.04c3.16,5.83,8.1,9.65,13.99,12.38,5.11,2.37,9.78,2.53,15.17-.39,18.96-10.28,39.16-17.3,60.32-21.61,3.6-.73,6.47-.17,9.45,1.77,8.45,5.5,16,12.03,22.92,19.49-2.4-9.45-7.84-17.42-12.36-25.83,1.14.22,2.38.21,3.41.68,26.58,12.07,50.14,28.4,70.23,49.69,5.25,5.56,10.26,11.33,15.6,16.83-12.92-53.01-51.19-84.37-95.79-111.55,8.68,1.16,16.25,2.51,23.68,4.5,2.66.71,4.29.45,5.83-2.1,5.9-9.76,13.83-17.62,23.03-24.33,26.33-19.21,55.73-13.82,73.45,13.63,3.53,5.47,5.98,11.49,8.76,18.73.63-6.13,0-10.86-.91-15.57-3.68-19.27-13.64-33.61-32.27-41.13-2.65-1.02-5.24-2.29-7.97-3.03-16.41-4.41-32.63-2.83-48.56,2.26-20.63,6.59-39.59,15.91-52.26,34.6-1.3,1.92-2.99,1.77-4.82,1.87-11.55.59-23.13.89-34.64,1.89-16.01,1.39-31.97,3.33-46.97,9.73-.97-.14-2.46.05-2.8-.49-.63-.99.53-1.76,1.36-2.31,4.45-2.98,8.85-6.04,13.41-8.85,3.98-2.46,8.14-4.64,13.1-7.44-2.15-.83-3.03-1.24-3.95-1.51-17.28-5.01-34.64-5.31-52.01-.58-3.02.82-5.73.94-8.8.08-17.17-4.8-34.38-4.49-51.52.27-1.19.33-3.14.18-3.33,1.73-.24,1.92,1.9,2.07,3.13,2.68,7.67,3.82,14.93,8.3,21.76,13.47.77.58,1.97,1.09,1.58,2.24-.42,1.23-1.79.33-2.66.71-3.62-1.65-7.35-2.94-11.21-3.93-19.14-4.94-38.68-6.9-58.35-7-9.82-.05-16.89-2.21-23.79-10.51-13.69-16.46-33.33-23.94-53.68-28.82-16.28-3.91-32.59-4.28-48.31,2.94-13.38,5.41-23,14.63-28.48,28.09-4.05,9.96-4.88,20.49-5.69,31.05-.3,3.97.99,5.16,4.27,2.53,3.57-2.87,4.89-1.61,5.94,2.32,2.62,9.73,5.63,19.35,8.35,29.04.94,3.36,2.44,3.53,4.95,1.52,6.43-5.15,13.07-10.05,20.3-13.98,5.23-2.84,7.71-5.93,6.78-12.52-1.2-8.51-.49-8.61-8.85-6.05-1.08.33-2.28,1.15-3.23-.03-.7-.88-.08-1.92.21-2.87,2.56-8.28,7.89-14.28,15.16-18.76,1.29-.79,3.37-.68,3.75-3.18-17.02-2.41-30.18,4.25-40.99,17.6-3.46-28.21,17.37-47.21,43.83-40.8,19.79,4.79,34.18,17.26,45.22,33.87,1.87,2.82,3.37,3.81,6.86,2.86,7.31-1.99,14.77-3.51,22.55-3.75-64.42,34.11-120.37,77.13-155.19,144.65,7.03-1.06,12.73-1.91,18.64-2.8-.12.98-.06,1.52-.26,1.93-17.56,35.05-25.83,72.54-29.38,111.31-.27,2.9.31,3.73,3.16,2.6,3.9-1.54,7.93-2.76,11.8-4.36,2.82-1.16,4.35-.82,4.98,2.48.81,4.28,1.99,8.49,2.96,12.75,4.52,19.88,10.71,39.17,19.97,57.42,1.74,3.42,3,4.37,5.99,1.14,3.3-3.56,7.36-6.42,10.6-10.01,3.22-3.57,5.28-2.89,8.43.26,22.22,22.21,45.35,43.42,70.84,61.89,7,5.07,13.91,10.29,21.49,14.6,1.05-1.98.22-3.37-.13-4.81-6.8-27.75-17.36-54.02-31.53-78.79-9.79-17.1-21.14-33.09-34.44-47.69-2.94-3.23-5.03-2.99-7.7-.23-3.85,4-7.45,8.19-10.39,12.93-.64,1.03-.91,2.93-2.67,2.43-1.32-.37-1-1.97-1.21-3.08-3.03-16.18-3.16-32.4-.26-48.59,1.1-6.13,2.77-12.17,4.31-18.82-5.56,2.31-10,4.96-14.33,7.82-.95.63-1.92,1.78-3.11.99-.89-.6-.51-1.83-.38-2.81,4.28-32,16.22-60.18,40.89-81.95,6.33-5.59,12.99-10.75,21.46-15.1-.83,2.59-1.31,4.14-1.83,5.68-6.16,18.17-10.34,36.82-13.64,55.7-.68,3.92.46,6.38,3.13,8.81,11.92,10.87,22.93,22.64,34.22,34.14,20.99,21.39,39.16,44.68,50.95,72.51,1.74,4.1,3.35,8.25,5.03,12.37-.13-12.28-2.72-24.05-5.1-35.86-5.31-26.29-15.82-50.59-28.51-74.02-2.05-3.78-2.46-7.33-1.41-11.56,4.97-19.9,11.18-39.41,18.25-58.64,1.17-3.19.65-4.82-1.98-6.58-8.22-5.51-16.48-10.99-24.46-16.85-5.22-3.83-10.48-5.08-16.86-3.58-6.44,1.52-6.53,1.12-5.03-5.15,8.59-19.05,21.97-33.78,39.86-44.5,2.11-1.27,4.17-.8,6.32-.39,22.05,4.29,42.91,11.95,62.75,22.44,1.91,1.01,3.68,2.21,6.11,1.75,9.2-1.77,16.4-6.38,21.22-14.52,0,0-.12.05-.12.05.3-.34.6-.69.91-1.03,2.87-2.01,3.82.31,4.77,2.23,4.91,9.9,1.72,18.97-3.16,27.7-2.09,3.73-4.81,7.1-7.83,11.47,21.3-4.2,41.8-4.19,63.31.03-1.45-1.98-2.18-3.04-2.97-4.04-3.98-5.04-7.32-10.45-9.19-16.63-1.95-6.45-2.28-12.85,1.2-19.01,1.07-1.89,2.1-3.56,4.54-1.75.3.35.61.69.91,1.04ZM299.47,231.59c-6.71-3.24-11.61-8.24-14.25-15.36-.65.48-1,.62-1.17.88-13.88,21.17-24.86,43.69-31.87,68.09-.56,1.94-.32,3.58.3,5.34,5.28,14.86,9.68,29.99,13.75,45.22.1,1.49-.21,3.16.36,4.43,2.63,5.91,3.38,12.28,4.83,18.47,2.74,11.67,4.15,23.59,6.14,35.73,1.58-1.35,1.57-2.74,1.82-4.03,2.74-14.26,3.66-28.67,2.97-43.14-.72-15.08-2.2-30.13-2.78-45.22-.44-11.54,4.79-17.65,16.08-20.29,8.63-2.01,17.4-.72,26.1-.99,5.25-.16,10.31-1.05,15.26-2.8,2.55-.9,3.18-1.84,1.29-4.24-7.45-9.42-12.73-20.11-17.96-30.85-1.49-3.07-2.19-5.18,1.47-7.42,3.95-2.42,4.8-6.15,2.32-10.47-1.44-2.51-2.87-5-5.19-6.72-1.96-1.45-4.22-4.42-6.34-3.22-2.44,1.37-1.01,4.85-.7,7.42.21,1.76,1.5,3.36.15,5.26-2.74,3.84-8.2,5.61-12.57,3.91ZM422.73,462.22c-.5,3.74-.86,6.73-1.31,9.71-2.22,14.55-9.35,25.29-23.54,30.69-11.1,4.22-22.7,5.64-34.42,6.62-19.91,1.67-39.54.22-58.69-5.61-14.9-4.54-23.45-14.97-26.11-30.27-.61-3.52-1.02-7.08-1.58-11.08-14.88,16.92-9.43,69.68,8.18,82.58.47-1.86.9-3.65,1.36-5.42,1.37-5.29,1.7-5.41,6.63-2.59,12.69,7.26,25.55,14.21,39.63,18.42,6.37,1.91,12.76,4.86,19.58,3.72,7.09-1.19,14.03-3.24,20.81-5.79,11.98-4.51,23.29-10.39,34.23-16.97,3.38-2.04,4.73-1.24,5.57,2.28.51,2.16.45,4.58,2.17,6.43,19-24.28,21.58-64.87,7.5-82.71ZM384.27,360.75c6.88-4.58,11.94-9.82,15.92-16.04,7.18-11.25,9.54-23.59,7.11-36.67-1.56-8.37-6.69-11.58-15-10.02-2.11.4-4.21,1.15-6.17,2.05-1.77.81-3.34.97-5.29.53-18.91-4.28-37.96-3.87-56.97-1.01-4.71.71-8.81,1.07-13.51-.71-9.98-3.8-16.26.24-18.16,10.71-1.04,5.71-.53,11.4.42,17.04,2.46,14.52,10.66,25.2,23.01,34.3-.22-13.28.45-25.5,3.77-38.93,1.66,4,3.85,3.06,5.99,2.8,16.05-1.97,32.12-1.87,48.17-.13,2.59.28,4.98.82,7.22-1.49,2.98,12.48,3.68,24.61,3.48,37.57ZM388.46,435.64c-.83,8.18-2.26,15.27-5.29,21.87-1.25,2.72-.84,8.9-7.03,4.77-.31-.21-.97.12-1.47.18-16.56,2-33.12,2-49.68-.02-.81-.1-2.05-.38-2.41.03-3.39,3.77-3.79.06-4.67-1.87-2.35-5.22-4.18-10.63-5.26-16.26-.51-2.67-.91-5.37-1.4-8.31-12.35,8.83-19.52,32.69-14.26,45.97,3.29,8.3,9.08,10.56,16.79,6.18,2.56-1.45,4.7-1.58,7.53-1.03,18.97,3.69,38.02,3.69,56.99.06,3-.57,5.31-.53,8.01,1.07,4.05,2.39,8.43,3.55,12.53-.24,3.25-3,4.96-6.87,5.3-11.13.94-11.87-1.11-23.12-7.95-33.14-1.95-2.85-4-5.7-7.74-8.13ZM450.1,168.62c.06,8.25-3.69,12.12-11.55,12.38-5.21.17-10-1.02-13.88-4.67-2.62-2.46-4.6.17-6.84.62-1.01.2-1.5,1.09-.68,1.8,5.02,4.33,9.7,10.31,16.81,9.9,12.23-.72,23.01-5.47,30.94-15.4.83-1.04,2.04-2.21.81-3.51-3.02-3.22-6.57-5.97-11.11-6.06-2.95-.05-5.8,1.22-4.5,4.94ZM283.34,177.9q-5.49-2.99-10.17.08c-2.42,1.58-5.09,2.58-7.95,2.89-11.73,1.26-16.69-4.43-15.35-12.94.57-3.63-2.1-3.73-4.23-4.25-2.5-.61-10.45,3.85-11.6,6.11-.67,1.33-.05,2.19.69,3.16,7.4,9.67,17.74,14.03,29.3,15.7,8.17,1.19,12.88-5.28,18.46-9.59.25-.19.4-.53.84-1.15ZM253.65,396.55c-.04.13-.07.27-.11.4.12-.09.25-.18.37-.26-.09-.05-.18-.09-.26-.14Z" fill="#1e3d7d" stroke-width="0"/><path d="M187.56,181.88c-1.5,6.27-1.41,6.66,5.03,5.15,6.39-1.5,11.64-.25,16.86,3.58,7.98,5.85,16.23,11.34,24.46,16.85,2.63,1.76,3.15,3.39,1.98,6.58-7.06,19.23-13.28,38.74-18.25,58.64-1.06,4.22-.64,7.78,1.41,11.56,12.69,23.43,23.2,47.72,28.51,74.02,2.39,11.81,4.97,23.59,5.1,35.86-1.67-4.13-3.29-8.27-5.03-12.37-11.79-27.83-29.96-51.12-50.95-72.51-11.29-11.51-22.3-23.28-34.22-34.14-2.67-2.44-3.82-4.89-3.13-8.81,3.3-18.89,7.48-37.53,13.64-55.7.52-1.54,1-3.09,1.83-5.68-8.48,4.35-15.13,9.51-21.46,15.1-24.68,21.77-36.62,49.96-40.89,81.95-.13.99-.52,2.22.38,2.81,1.2.8,2.16-.36,3.11-.99,4.33-2.86,8.77-5.51,14.33-7.82-1.54,6.66-3.21,12.69-4.31,18.82-2.9,16.19-2.77,32.41.26,48.59.21,1.11-.11,2.71,1.21,3.08,1.76.5,2.03-1.4,2.67-2.43,2.94-4.74,6.53-8.93,10.39-12.93,2.67-2.77,4.76-3.01,7.7.23,13.29,14.61,24.65,30.6,34.44,47.69,14.18,24.77,24.74,51.04,31.53,78.79.35,1.44,1.18,2.83.13,4.81-7.58-4.31-14.49-9.53-21.49-14.6-25.49-18.47-48.62-39.67-70.84-61.89-3.15-3.15-5.21-3.83-8.43-.26-3.25,3.6-7.3,6.46-10.6,10.01-2.99,3.23-4.26,2.28-5.99-1.14-9.26-18.24-15.45-37.53-19.97-57.42-.97-4.26-2.15-8.47-2.96-12.75-.62-3.3-2.16-3.64-4.98-2.48-3.87,1.6-7.9,2.81-11.8,4.36-2.85,1.13-3.43.3-3.16-2.6,3.55-38.76,11.82-76.26,29.38-111.31.2-.41.14-.95.26-1.93-5.92.89-11.62,1.75-18.64,2.8,34.82-67.52,90.76-110.54,155.19-144.65-7.78.25-15.24,1.77-22.55,3.75-3.49.95-4.99-.04-6.86-2.86-11.04-16.62-25.43-29.08-45.22-33.87-26.46-6.41-47.3,12.59-43.83,40.8,10.81-13.35,23.97-20.01,40.99-17.6-.38,2.5-2.46,2.39-3.75,3.18-7.27,4.48-12.6,10.48-15.16,18.76-.29.95-.9,1.99-.21,2.87.94,1.19,2.15.36,3.23.03,8.36-2.56,7.65-2.46,8.85,6.05.93,6.58-1.55,9.67-6.78,12.52-7.22,3.92-13.87,8.83-20.3,13.98-2.51,2.01-4.01,1.84-4.95-1.52-2.72-9.7-5.73-19.32-8.35-29.04-1.06-3.93-2.38-5.19-5.94-2.32-3.28,2.63-4.57,1.44-4.27-2.53.8-10.55,1.64-21.09,5.69-31.05,5.48-13.46,15.1-22.67,28.48-28.09,5.19.7,10.15-1.33,15.31-1.24,32.78.55,59.57,13.91,81.01,38.3,3.39,3.85,6.5,5.13,11.59,4.65,11.34-1.06,22.76-.51,34.16-.16,17.92.55,35.61,2.96,53.27,5.78.87-.38,2.24.52,2.66-.71.39-1.15-.81-1.65-1.58-2.24-6.83-5.18-14.09-9.65-21.76-13.47-1.23-.61-3.37-.76-3.13-2.68.19-1.55,2.14-1.4,3.33-1.73,17.14-4.76,34.35-5.07,51.52-.27,3.07.86,5.78.74,8.8-.08,17.37-4.73,34.73-4.43,52.01.58.92.27,1.8.68,3.95,1.51-4.97,2.81-9.12,4.98-13.1,7.44-4.55,2.82-8.96,5.88-13.41,8.85-.82.55-1.99,1.32-1.36,2.31.34.54,1.83.35,2.79.49.33.06.67.24.98.18,29.57-5.66,59.39-7.49,89.42-5.57,3.04.19,5.07-.71,6.84-3.09,4.33-5.82,9.53-10.8,15.23-15.25,22.64-17.65,47.68-27.52,76.94-23.94,1.89.23,3.8,1.66,5.81.35,18.63,7.52,28.58,21.86,32.27,41.13.9,4.71,1.54,9.45.91,15.57-2.78-7.23-5.23-13.26-8.76-18.73-17.72-27.44-47.12-32.83-73.45-13.63-9.2,6.71-17.13,14.57-23.03,24.33-1.54,2.55-3.16,2.81-5.83,2.1-7.43-1.99-15-3.35-23.68-4.5,44.59,27.18,82.86,58.55,95.79,111.55-5.34-5.49-10.35-11.27-15.6-16.83-20.09-21.29-43.66-37.62-70.23-49.69-1.03-.47-2.27-.46-3.41-.68-2.95-2.18-5.99-4.25-8.83-6.56-2.93-2.38-6.01-3.15-9.77-2.41-24.37,4.78-47.73,12.11-68.03,27.06-2.74,2.02-5.14,2.25-8.35,1.46-5.07-1.25-9.47-4.16-14.51-5.36,0,0,.12.04.11.04-.3-.35-.61-.69-.91-1.04-2.44-1.8-3.47-.14-4.54,1.75-3.48,6.15-3.15,12.55-1.2,19.01,1.87,6.18,5.21,11.59,9.19,16.63.79,1,1.52,2.06,2.97,4.04-21.51-4.23-42-4.23-63.31-.03,3.02-4.38,5.74-7.75,7.83-11.47,4.89-8.73,8.08-17.8,3.16-27.7-.95-1.92-1.9-4.23-4.77-2.23-.3.34-.6.69-.91,1.03,0,0,.12-.05.12-.05-5.3,1.48-10.05,4.47-15.51,5.58-2.24.45-4.09.69-6.12-.84-19.88-15-42.89-22.45-66.87-27.43-3.14-.65-6.42-1.81-9.71.32-18.97,12.24-33.74,27.56-37.93,50.84-.4,2.25-1.66,4.47-.12,6.75ZM319.11,89.8l.17-.19-.25-.05.09.24ZM380.92,89.67l-.24-.14-.03.22.27-.08Z" fill="#6ba8db" stroke-width="0"/><path d="M422.73,462.22c14.08,17.84,11.5,58.43-7.5,82.71-1.72-1.84-1.66-4.27-2.17-6.43-.84-3.53-2.18-4.32-5.57-2.28-10.94,6.59-22.24,12.46-34.23,16.97-6.78,2.55-13.72,4.59-20.81,5.79-6.82,1.15-13.21-1.81-19.58-3.72-14.08-4.21-26.94-11.16-39.63-18.42-4.93-2.82-5.25-2.7-6.63,2.59-.46,1.78-.89,3.56-1.36,5.42-17.6-12.9-23.06-65.65-8.18-82.58.56,4,.97,7.56,1.58,11.08,2.66,15.3,11.2,25.73,26.11,30.27,19.14,5.83,38.78,7.27,58.69,5.61,11.72-.98,23.32-2.4,34.42-6.62,14.19-5.39,21.31-16.14,23.54-30.69.45-2.98.81-5.97,1.31-9.71Z" fill="#6ba8db" stroke-width="0"/><path d="M299.47,231.59c4.37,1.7,9.83-.07,12.57-3.91,1.35-1.89.06-3.5-.15-5.26-.31-2.56-1.74-6.04.7-7.42,2.12-1.2,4.38,1.77,6.34,3.22,2.32,1.72,3.75,4.21,5.19,6.72,2.48,4.32,1.63,8.05-2.32,10.47-3.65,2.24-2.96,4.35-1.47,7.42,5.23,10.74,10.51,21.44,17.96,30.85,1.89,2.39,1.26,3.33-1.29,4.24-4.95,1.75-10,2.64-15.26,2.8-8.7.27-17.47-1.02-26.1.99-11.3,2.64-16.52,8.75-16.08,20.29.58,15.09,2.05,30.14,2.78,45.22.69,14.47-.23,28.88-2.97,43.14-.25,1.3-.23,2.69-1.82,4.03-1.98-12.14-3.4-24.06-6.14-35.73-1.45-6.2-2.2-12.56-4.83-18.47-.57-1.28-.26-2.95-.36-4.44,1.1-.81,1.13-1.96,1.01-3.17-1.38-13.47-2.93-26.91-5.76-40.17-.53-2.46-.93-4.95.07-7.42,6.57-16.15,13.72-31.99,23.41-46.57,2.87-4.33,5.98-7.57,11.75-6.02.97.26,2,.01,2.76-.82Z" fill="#6ba8db" stroke-width="0"/><path d="M432.44,340.24c-2.47,12.12-5.02,24.22-7.36,36.37-1.11,5.74-1.79,11.56-2.77,18.02-2.33-2.79-2.11-5.74-2.53-8.31-3.41-20.68-2.73-41.43-.77-62.2.65-6.84.88-13.71,1.42-20.56,1.27-16.12-9.29-21.58-21.57-22.65-6.99-.61-14.08-.17-21.12-.2-4.9-.02-9.62-.99-14.27-2.55-2.8-.94-4.04-1.75-1.66-4.75,7.44-9.39,12.66-20.12,17.89-30.84,1.45-2.97,1.87-4.91-1.47-7-4.16-2.6-4.82-6.37-2.34-10.88,2.1-3.82,4.94-6.71,8.56-8.98,2.44-1.53,4.12-1.59,3.96,2-.05,1.17.16,2.44-.21,3.5-1.27,3.64-1.34,6.48,2.51,9.01,3.26,2.14,6.16,3.11,9.72,1.39.91,1.01,2.15,1.08,3.27.79,5.12-1.31,7.98,1.34,10.66,5.28,10.08,14.8,17.3,31.02,24.04,47.51.8,1.95.6,3.97.26,5.96-1.5,8.92-3.42,17.78-4.45,26.76-.85,7.41-2.97,14.77-1.76,22.35Z" fill="#6ba8db" stroke-width="0"/><path d="M384.27,360.75c.2-12.96-.51-25.1-3.48-37.57-2.23,2.31-4.62,1.77-7.22,1.49-16.05-1.73-32.12-1.84-48.17.13-2.15.26-4.34,1.2-5.99-2.8-3.32,13.43-3.99,25.66-3.77,38.93-12.35-9.1-20.55-19.78-23.01-34.3-.96-5.64-1.46-11.33-.42-17.04,1.9-10.47,8.18-14.5,18.16-10.71,4.69,1.78,8.8,1.42,13.51.71,19.01-2.86,38.07-3.27,56.97,1.01,1.95.44,3.52.28,5.29-.53,1.96-.89,4.06-1.65,6.17-2.05,8.31-1.57,13.44,1.64,15,10.02,2.43,13.07.07,25.42-7.11,36.67-3.97,6.22-9.04,11.46-15.92,16.04Z" fill="#fefefe" stroke-width="0"/><path d="M388.46,435.64c3.74,2.43,5.79,5.28,7.74,8.13,6.84,10.01,8.89,21.27,7.95,33.14-.34,4.26-2.05,8.12-5.3,11.13-4.11,3.79-8.49,2.64-12.53.24-2.7-1.6-5-1.64-8.01-1.07-18.98,3.63-38.02,3.64-56.99-.06-2.83-.55-4.97-.42-7.53,1.03-7.71,4.38-13.5,2.12-16.79-6.18-5.26-13.29,1.92-37.14,14.26-45.97.49,2.94.89,5.64,1.4,8.31,1.08,5.63,2.91,11.04,5.26,16.26.88,1.94,1.28,5.65,4.67,1.87.37-.41,1.6-.13,2.41-.03,16.56,2.02,33.12,2.02,49.68.02.5-.06,1.16-.39,1.47-.18,6.19,4.13,5.78-2.05,7.03-4.77,3.02-6.6,4.46-13.7,5.29-21.87Z" fill="#fefefe" stroke-width="0"/><path d="M187.56,181.88c-1.54-2.28-.28-4.5.12-6.75,4.19-23.28,18.96-38.61,37.93-50.84,3.29-2.12,6.57-.97,9.71-.32,23.98,4.98,46.99,12.43,66.87,27.43,2.02,1.53,3.88,1.29,6.12.84,5.46-1.11,10.2-4.1,15.51-5.58-4.83,8.14-12.02,12.75-21.22,14.52-2.43.47-4.2-.74-6.11-1.75-19.84-10.49-40.69-18.15-62.75-22.44-2.14-.42-4.21-.88-6.32.39-17.88,10.72-31.27,25.45-39.86,44.5Z" fill="#fefefe" stroke-width="0"/><path d="M376.06,146.66c5.05,1.2,9.44,4.11,14.51,5.36,3.21.79,5.61.56,8.35-1.46,20.3-14.95,43.66-22.28,68.03-27.06,3.76-.74,6.84.03,9.77,2.41,2.85,2.31,5.88,4.38,8.83,6.56,4.51,8.41,9.95,16.38,12.35,25.83-6.93-7.46-14.47-13.99-22.92-19.49-2.98-1.94-5.85-2.51-9.45-1.77-21.16,4.32-41.36,11.34-60.32,21.61-5.39,2.92-10.06,2.76-15.17.39-5.88-2.73-10.83-6.55-13.99-12.38Z" fill="#fefefe" stroke-width="0"/><path d="M580.59,41.83c-2.01,1.31-3.92-.12-5.81-.35-29.26-3.58-54.3,6.29-76.94,23.94-5.71,4.45-10.9,9.43-15.23,15.25-1.77,2.38-3.8,3.28-6.84,3.09-30.03-1.91-59.85-.09-89.42,5.57-.3.06-.65-.11-.98-.18,15-6.4,30.96-8.34,46.97-9.73,11.51-1,23.09-1.3,34.64-1.89,1.83-.09,3.52.05,4.82-1.87,12.68-18.68,31.63-28,52.26-34.6,15.93-5.09,32.15-6.68,48.56-2.26,2.73.73,5.32,2,7.97,3.03Z" fill="#fefefe" stroke-width="0"/><path d="M314.63,89.16c-17.66-2.82-35.35-5.23-53.27-5.78-11.4-.35-22.81-.91-34.16.16-5.09.48-8.21-.8-11.59-4.65-21.44-24.39-48.23-37.75-81.01-38.3-5.16-.09-10.12,1.95-15.31,1.24,15.72-7.22,32.04-6.85,48.31-2.94,20.35,4.88,39.99,12.37,53.68,28.82,6.9,8.3,13.97,10.46,23.79,10.51,19.66.1,39.21,2.07,58.35,7,3.86.99,7.59,2.28,11.21,3.93Z" fill="#fefefe" stroke-width="0"/><path d="M432.44,340.24c-1.21-7.58.91-14.94,1.76-22.35,1.02-8.97,2.95-17.84,4.45-26.76.34-1.99.54-4.01-.26-5.96-6.73-16.48-13.96-32.7-24.04-47.51-2.68-3.94-5.55-6.59-10.66-5.28-1.11.29-2.36.21-3.27-.79,6.55-3.23,11.51-7.98,13.97-14.89,1.32-.32,1.62.6,2.02,1.22,13.28,20.52,23.89,42.3,30.88,65.79.8,2.68.7,5.06-.18,7.76-4.45,13.79-8.6,27.67-13.02,41.47-.48,1.49-.33,2.96-.75,4.39-.6.19-.84.52-.4,1.1-.17.61-.33,1.21-.5,1.82Z" fill="#fefefe" stroke-width="0"/><path d="M299.47,231.59c-.75.83-1.79,1.08-2.76.82-5.77-1.55-8.88,1.69-11.75,6.02-9.69,14.59-16.84,30.43-23.41,46.57-1,2.47-.6,4.95-.07,7.42,2.84,13.26,4.38,26.7,5.76,40.17.12,1.2.09,2.35-1.01,3.17-4.07-15.23-8.48-30.36-13.75-45.22-.62-1.76-.86-3.4-.3-5.34,7.01-24.4,17.99-46.93,31.87-68.09.17-.26.52-.4,1.17-.88,2.64,7.12,7.54,12.12,14.25,15.36Z" fill="#fefefe" stroke-width="0"/><path d="M450.1,168.62c-1.3-3.72,1.55-5,4.5-4.94,4.54.08,8.09,2.84,11.11,6.06,1.22,1.3.02,2.47-.81,3.51-7.93,9.93-18.71,14.68-30.94,15.4-7.11.42-11.79-5.56-16.81-9.9-.82-.71-.33-1.59.68-1.8,2.25-.45,4.22-3.08,6.84-.62,3.88,3.65,8.67,4.84,13.88,4.67,7.86-.26,11.61-4.13,11.55-12.38Z" fill="#fefefe" stroke-width="0"/><path d="M283.34,177.9c-.45.62-.59.96-.84,1.15-5.59,4.32-10.29,10.78-18.46,9.59-11.56-1.68-21.91-6.03-29.3-15.7-.74-.97-1.36-1.83-.69-3.16,1.15-2.26,9.1-6.71,11.6-6.11,2.13.52,4.8.62,4.23,4.25-1.34,8.52,3.62,14.2,15.35,12.94,2.85-.31,5.53-1.31,7.95-2.89q4.68-3.06,10.17-.08Z" fill="#fefefe" stroke-width="0"/><path d="M253.65,396.55c.09.05.18.09.26.14-.12.09-.25.18-.37.26.04-.13.07-.27.11-.4Z" fill="#6ba8db" stroke-width="0"/><path d="M323.7,146.71c.3-.34.6-.69.91-1.03-.3.34-.6.69-.91,1.03Z" fill="#fefefe" stroke-width="0"/><path d="M375.27,145.67c.3.35.61.69.91,1.04-.3-.35-.61-.69-.91-1.04Z" fill="#fefefe" stroke-width="0"/><path d="M432.93,338.42c-.44-.58-.19-.9.4-1.1.27.52.16.89-.4,1.1Z" fill="#6ba8db" stroke-width="0"/><polygon points="319.11 89.8 319.03 89.56 319.28 89.61 319.11 89.8" fill="#1e3d7d" stroke-width="0"/><polygon points="380.92 89.67 380.65 89.76 380.68 89.53 380.92 89.67" fill="#1e3d7d" stroke-width="0"/></g></svg>