<?xml version="1.0" encoding="UTF-8"?><svg id="b" xmlns="http://www.w3.org/2000/svg" viewBox="0 0 697.59 697.14"><g id="c"><path d="M0,348.37C-.06,158.3,152.74,2.09,344.59.02c196.78-2.12,348.6,155.22,352.91,340.01,4.57,196.18-153.4,357.11-348.56,357.11C155.3,697.14-.34,540.15,0,348.37ZM692.54,348.88C693.55,163.03,542.87,4.66,348.32,4.76,159.62,4.86,4.52,156.39,4.72,348.96c.2,196.33,161.88,348.3,353.12,343.34,185.41-4.81,335.12-157.1,334.7-343.42Z" fill="#eef0f1" stroke-width="0"/><path d="M692.54,348.88c.42,186.32-149.29,338.61-334.7,343.42C166.6,697.26,4.92,545.29,4.72,348.96,4.52,156.39,159.62,4.86,348.32,4.76c194.55-.11,345.23,158.27,344.21,344.12ZM14.53,348.26c-1.78,182.4,148.14,335.83,335.91,334.63,185.74-1.19,332.75-151.69,332.4-335.04-.36-187.54-154.91-337.83-342.56-333.53C160.4,18.45,13.89,166.88,14.53,348.26Z" fill="#da252a" stroke-width="0"/><path d="M14.53,348.26C13.89,166.88,160.4,18.45,340.29,14.33c187.64-4.3,342.2,145.99,342.56,333.53.35,183.35-146.66,333.86-332.4,335.04-187.77,1.2-337.68-152.24-335.91-334.63ZM611.65,349.05c.77-141.88-115.93-261.24-261.38-261.51-144.99-.27-261.72,117.12-262.79,260.22-1.1,146.93,119.15,264.33,262.92,264.13,141.79-.2,262.8-117.4,261.25-262.83ZM675.39,350.05c1.54-4.61.6-8.75-.69-12.77-2.05-6.39-5.96-9.27-12.33-9.47-6.5-.21-10.45,2.23-13.1,8.39-1.69,3.94-2.46,8.11-2.45,12.42.01,12.76.02,25.52-.03,38.28-.02,4.29.72,8.48,1.74,12.6,1.01,4.11,3.43,7.18,7.49,8.85,10.02,4.13,18.25-1.06,19.66-13.03,1.08-9.11.65-18.34.33-27.5-.14-4.08-1.16-8.04-4.47-10.87-3.58-3.06-7.45-1.48-11.09.1-2.18-7.32-1.84-10.85,1.32-15.36,3.05,1.91,1.02,6.15,3.9,8.31,2.92.55,6,.76,9.73.05ZM53.65,387.62c-1.17,5.38-1.04,7.27.82,12.58,2.18,6.22,6.8,9.62,13,9.54,6.2-.07,10.59-3.52,12.57-10.1,1.03-3.42,1.92-6.88,1.92-10.52-.03-13.87-.01-27.74.01-41.61,0-2.71-.36-5.34-1.08-7.95-2.31-8.33-6.4-11.77-14.05-11.79-7.12-.01-11.53,3.43-13.17,11.76-2.09,10.59-1.95,21.44-.21,32.03,1.54,9.41,5.32,11.25,14.59,9.09.32-.07.75.38,1.52.79-.46,4.82,2.04,10.26-2.1,15.44-2.88-3.5-.79-7.77-4.62-10.18-2.85-.12-6.11,0-9.2.92ZM150.91,540.35c-5.17,4.92-8.68,10.55-14.91,13.21-1.85.79-3.24,3.25-3.62,5.46-.59,3.38-2.83,5.46-5.01,7.68-2.02,2.05-4.23,3.94-5.59,7.31,8.47,8.25,17.88,15.72,27,23.51,2.07,1.77,4.7,2.63,7.32,3.18,8.88,1.88,13.55-1.36,15.14-10.34.27-1.5.09-3.17,1.39-4.36,11.92-3.77,14.14-10.49,6.69-20.22-.54-.71-1.05-1.47-1.69-2.07-8.46-7.93-17.13-15.61-26.72-23.36ZM303.86,642.63c8.7-8.88,7.65-17.19-3.4-21.39-11.86-4.5-24.43-6.69-36.76-8.92-2.38,4.94-1.2,10.5-4.5,14.33-3.59,4.17-4.3,8.44-2.31,12.94-.97,5.37-3.77,10.03-2.41,15.88,10.88,2.58,21.64,5.44,32.54,7.64,15.01,3.04,21.85-4.98,16.91-19.36-.07-.2-.03-.44-.07-1.14ZM543.53,605.73c9.17-7.54,18.18-14.47,25.99-22.79,2.18-2.32,3.77-5.02,4.85-7.97,1.54-4.17,1.94-8.31-1.52-11.89-3.23-3.34-7.05-4.4-11.6-3.32-3.77.89-7,2.6-10.16,4.86-5.57,3.98-9.99,9.62-16.19,11.9-2.57-.43-3.84-1.54-4.63-4.04,3.49-7.36,10.77-11.63,16.5-17.24,5.67,1.37,8.46-1.76,10.77-5.79-1.83-3.42-3.8-6.33-7.43-8.3-8.59,8.04-18.54,14.57-26.3,23.61-1.75,2.04-3.24,4.27-4.11,6.86-2.93,8.68,1.72,15.2,10.82,15.48,4.78.14,8.76-1.54,12.31-4.43,3.98-3.24,7.79-6.69,11.73-9.97,2.61-2.17,5.39-3.16,8.96-.24-1.08,9.82-10.41,12.85-15.94,18.92-5.73-1.76-8.16,2.02-10.94,5.58,1.79,3.21,3.99,5.67,6.9,8.76ZM241.66,618.04c.03-5.79-1.63-11.06-5.26-15.54-8.85-10.91-20.39-14.78-33.99-12.01-11.15,2.27-17.48,12.36-15.33,23.56,3.23,16.82,21.43,27.9,38.87,23.65,9.91-2.42,15.65-9.58,15.72-19.66ZM455.16,652.54c-10.33-12.64-20.43-24.99-30.64-37.49-4.73,1.17-9.18,1.52-13.27,4.07-1.74,7.83-3.53,15.67-5.23,23.52-.8,3.7-1.11,7.6-5.48,9.25.87,4.9,1.67,9.36,2.52,14.11,4.21-.44,7.86-1.15,10.62-2.74,2.22-1.77,1.3-4.47,3.67-5.79,6.68-1.88,13.73-3.88,20.75-5.86,1.54,1.76,2.83,3.23,4.08,4.66,4.5-.42,8.52-1.53,12.98-3.73ZM151.39,103.31c1.11,5.88,5.92,9.98,5.88,16.29-5.87-1.56-9.34-6.63-14.5-8.22-3.59.79-5.78,2.74-6.8,6.06.8,5.47,5.39,9.69,5.62,15.93-6.41-.95-10.1-6.54-16.15-7.41-2.21,1.67-5.13,2.52-6.68,6.31,10.44,6.87,20.97,13.8,31.31,20.61,3.66-1.84,6.3-3.75,7.74-7.01-1.89-6.13-6.08-11.32-7.5-18.38,7.51,1.81,11.7,8.58,18.6,9.47,2.94-1.41,5.04-3.25,6.19-6.39-5.77-10.89-9.51-22.88-15.83-33.67-3.76,1.32-5.78,3.61-7.88,6.42ZM82.11,211.19c-6.64-9.45-12.3-9.49-18.74-.26-5.9,8.45-9.13,18.17-13.08,27.28,10.09,8.06,21.27,12.55,33.57,16.23,4.05-9.45,9.38-18.27,12.31-28.11,3.41-11.46-1.84-17.13-14.06-15.14ZM619.58,214.74c-1.79,9.02-4.88,16.62-7.86,24.25-2.39,6.13-2.05,11.68,3.06,16.91,11.12-4.83,22.19-9.78,32.92-15.92-2.03-4.18-2.73-8.27-6.47-11.33-6.22,3.02-10.01,10.76-18.97,10.46,2.53-10.99,7.61-20.74,10.35-31.54-1.8-2.61-2.24-6.08-5.13-9.25-10.9,5.14-21.88,10.32-32.96,15.55,1.01,3.66,2.13,6.46,4.03,9,7.41-1.16,12.83-6.69,21.03-8.12ZM256.36,48.09c2.82,12.18,4.52,24.23,8.36,36.22,3.57-.89,6.75-.48,9.39-2.57,0-7.44-3.96-14.08-3.65-21.98,10.94,4.82,19.51,12.23,30.1,17.34,2.42-2.11,6.16-.93,9.3-3.27-2.54-11.59-5.06-23.08-7.56-34.46-4.76-1.96-8.55.01-12.24,1.38-1.04,2.06-.75,3.79-.06,5.92,1.29,1,2.87,2.22,4.3,3.33-.39,4.43,2.48,7.92,1.2,12.3-11.07-4.29-19.42-12.66-29.77-16.53-3.07.76-5.64,1.4-9.35,2.32ZM380.04,659.03c-4.45-.3-8.87-1.47-12.26.31-5.46,2.88-10.97,1.97-16.27,1.4-8.99-.95-14.89-9.6-12.22-16.53,3.01-7.8,18.03-14.78,25.1-10.51,5.33,3.21,10.13,1.5,15.29,1.99,1.16-3.67,1.16-6.89-.23-10.56-12.16-2.01-24.29-.82-36.37,1.41-1.08.2-2.12.72-3.11,1.24-8.14,4.25-13.33,10.62-13.22,20.13.11,9.52,6.13,14.94,14.14,18.59,1.82.83,3.79,1.41,5.75,1.79,11.04,2.18,22.11.61,33.42.97v-10.23ZM354.6,59.36c-.05,1.73,1.17,3.52-.35,5.62-5.8,1.98-11.46,1.04-16.57-2.18-7.19-4.54-7.13-12.16-.08-16.89,4.84-3.25,10.38-3.83,16.1-3.94,3.8,4.69,8.38,3.95,13.11,2.14.92-2.89,1.17-5.48.06-8.51-9.01-1.4-18.05-1.21-27.05.79-3.95.88-7.7,2.29-11.02,4.72-8.08,5.92-9.21,16.06-2.41,23.42,5.48,5.92,12.52,8.64,20.46,8.45,6.65-.16,13.27-.97,20.31-1.53.46-6.71.55-13.3.08-20.22-8.66-2.06-16.95-.65-25.26.21-.57,2.56-.93,4.69.22,6.8,3.96.9,8.08-.6,12.4,1.12ZM486.68,92.18c13.05,3.23,8.79,14.65,11.64,23.25,3.02,1.72,5.72,4.79,10.23,5.62.57-6.34-3.26-12.21-1.39-18.71,1.37,0,2.46.05,3.55,0,3.87-.23,8.07-.49,9.48-4.81,1.54-4.7.86-9.52-3.03-12.99-8.56-7.63-18.53-12.9-29.14-17.39-3.59,5.26-5.92,10.73-11.27,14.04,1.01,7.13-5.05,11.61-6.71,17.95,3,2.1,5.51,4.24,9.02,4.69,3.31-3.32,4.27-8.01,7.63-11.63ZM641.94,329.55c-8.37-.19-15.63-.85-23.22.47-.58,4.63-1.2,8.72.21,12.31,3.27,2.75,7.29,0,10.58,3.41-1.4,20.25-5.84,40.77-7.19,61.74,4.36,1.18,7.96,1.46,12.1-.77,2.29-25.44,8.41-50.7,7.52-77.16ZM463.51,66.11c2.09-2.79,4.4-5.23,2.35-9.21-3.78-1.23-7.57-2.58-11.42-3.69-6.21-1.78-12.28-4.41-18.97-3.63-7.58.88-14.08,3.82-16.76,11.43-2.59,7.37.32,13.53,5.9,18.62,8.81,8.05,20.1,9.8,31.06,13.34,2.58-7.34,5.32-13.66,6.26-21.12-7.93-2.6-15.67-5.14-23.27-7.63-1.97,2.47-3.14,4.5-2.35,7.04,3.61,2.84,9,1.85,11.74,5.81.04,2.18-.86,3.64-2.4,4.96-5.34-.82-10.32-2.62-14.19-6.67-6.07-6.37-3.81-14.53,4.51-17.35,5.6-1.9,10.51.6,16.02,1.75,1.99,5.04,6.67,5.55,11.51,6.35ZM549.89,116.45c8.31,5.46,14.44,14.12,23.32,19.21,1.87-1.24,3.42-2.49,4.43-4.88-10.17-9.01-20.46-18.13-30.8-27.29-4.86,3.46-7.69,9.05-13.91,10.29-1.24.25-2.86,2.31-2.65,4.31.37,3.66-2.13,5.65-4.24,7.93-1.48,1.61-3.55,2.77-4.15,5.77,10.02,8.98,20.24,18.14,30.15,27.02,2.95-.83,4.27-2.14,4.67-4.67-6-8.08-15.57-12.91-21.5-21.18,1.1-2.42,2.42-4.07,4.78-4.95,6.34,4,11.1,10.01,17.39,14.38,1.37-1.82,3.47-2.62,3.66-5.19-4.42-5.7-11.26-9.15-15.66-14.8.58-2.71,1.86-4.41,4.51-5.95ZM600.17,183.94c-3.16-6.61-9.66-11.35-12.46-18.42,1.47-2.11,3.23-3.32,5.94-4.06,6.02,7.76,12.12,15.64,18.03,23.25,3.09-.27,4.88-1.24,5.62-4.61-8.02-10.56-16.32-21.47-24.39-32.09-4.98,1.57-7.06,6.35-11.22,6.49-5.53.18-7.96,2.96-8.59,7.47-3.53,3.12-7.88,4.46-10.19,8.89,8.32,10.78,15.84,22.33,25.12,32.76,2.17-1.42,4.19-1.96,5.1-4.41-5.38-8.42-12.96-15.58-17.56-24.47,1.6-2.47,3.04-4.1,5.99-3.99,5.37,4.94,8.29,12.35,14.07,16.97,2.19-.8,3.83-1.48,4.56-3.79ZM30.68,352.66c1.8,4.14,1.87,7.92,1.85,11.72-.05,11.83-.12,23.66-.09,35.48,0,2.59-.65,5.38,1.53,7.9,3.29.56,6.73,1.56,10.21-.84v-76.5c-2.52-1.5-4.64-1.29-7.14-.34-2.72,5.6-7.65,9.36-12.73,12.07-1.08,3.09-1.16,5.45.21,7.92,1.92.81,3.95,1.66,6.16,2.58ZM85.49,179.76c-.1,11.15,5.45,17.8,15.9,18.49,9.86.65,17.38-3.94,22.4-12.06,5.01-8.1,5.65-16.84,1.04-25.5-1.86-3.49-4.71-5.79-8.83-6.49-16.22-2.76-30.35,9.03-30.51,25.56ZM502.06,581.2c-15.57,8.23-31.01,16.39-46.58,24.61.84,3.16,1.45,5.45,3.94,6.61,6.44-.78,10.79-6.38,17.69-7.33,6.23,9.68,10.24,20.87,17.12,30.53,4.29-1.66,7.87-3.19,10.61-6.32-4.47-10.93-12.04-20.08-15.39-31.47,5.16-3.78,11.57-5.15,15.91-9.45.11-2.74-.74-4.69-3.31-7.19ZM227.57,99.51c-1.04-3.81-2.29-6.3-4.91-8.43-8.51,2.41-12.35,12.51-22.4,13.3-6.91-6.28-8.33-17-15.66-23.87-2.82,1.74-5.98,2.4-8.12,5.39,5.94,10.61,11.87,21.21,17.96,32.1,11.43-6.38,22.08-12.33,33.13-18.49ZM240.96,93.33c3.63-.5,6.39-1.7,9.31-3.56-3.13-11.99-8.62-22.86-13.04-34.5-4.62,1.61-8.9,2.61-13.33,6.66,10.69,7.7,11.25,20.55,17.05,31.39Z" fill="#211f22" stroke-width="0"/><path d="M611.65,349.05c1.55,145.44-119.46,262.64-261.25,262.83-143.77.2-264.01-117.2-262.92-264.13,1.07-143.1,117.8-260.49,262.79-260.22,145.45.27,262.15,119.63,261.38,261.51ZM349.61,602.45c136.94.08,252.97-109.17,253.09-252.62.12-143.5-116.98-255.33-257.59-252.72-137.29,2.54-246.05,113.85-248,248.85-2.04,141.26,111.9,256.32,252.5,256.49Z" fill="#da252a" stroke-width="0"/><path d="M675.39,350.05c-3.74.71-6.81.5-9.73-.05-2.87-2.15-.85-6.4-3.9-8.31-3.15,4.51-3.5,8.04-1.32,15.36,3.64-1.58,7.51-3.17,11.09-.1,3.3,2.83,4.32,6.79,4.47,10.87.33,9.17.75,18.39-.33,27.5-1.41,11.96-9.64,17.16-19.66,13.03-4.06-1.67-6.47-4.74-7.49-8.85-1.01-4.12-1.75-8.31-1.74-12.6.05-12.76.04-25.52.03-38.28,0-4.31.76-8.48,2.45-12.42,2.65-6.16,6.6-8.6,13.1-8.39,6.36.21,10.27,3.08,12.33,9.47,1.29,4.02,2.23,8.16.69,12.77ZM661.62,367.97c-3.78,8.74-2.97,17.67-1.89,26.57.17,1.38,1.58,2.1,3.66.69.58-8.89,1.72-18.15-1.77-27.27Z" fill="#da252a" stroke-width="0"/><path d="M53.65,387.62c3.09-.93,6.35-1.04,9.2-.92,3.83,2.41,1.74,6.68,4.62,10.18,4.14-5.18,1.64-10.61,2.1-15.44-.76-.41-1.2-.87-1.52-.79-9.26,2.17-13.04.32-14.59-9.09-1.74-10.59-1.88-21.43.21-32.03,1.64-8.33,6.05-11.77,13.17-11.76,7.65.01,11.74,3.46,14.05,11.79.72,2.61,1.09,5.24,1.08,7.95-.03,13.87-.05,27.74-.01,41.61,0,3.64-.88,7.1-1.92,10.52-1.99,6.58-6.37,10.03-12.57,10.1-6.2.07-10.82-3.32-13-9.54-1.86-5.31-1.99-7.2-.82-12.58ZM68.02,340.83c-4.15,5.95-3.87,24.11.92,29.4,1.11-10.75,1.7-20.07-.92-29.4Z" fill="#da252a" stroke-width="0"/><path d="M150.91,540.35c9.59,7.75,18.26,15.44,26.72,23.36.65.6,1.15,1.37,1.69,2.07,7.45,9.73,5.22,16.44-6.7,20.22-1.29,1.19-1.12,2.85-1.39,4.36-1.59,8.98-6.26,12.22-15.14,10.34-2.62-.56-5.25-1.42-7.32-3.18-9.12-7.79-18.54-15.26-27-23.51,1.36-3.36,3.57-5.26,5.59-7.31,2.18-2.22,4.42-4.3,5.01-7.68.38-2.21,1.77-4.67,3.62-5.46,6.23-2.66,9.73-8.29,14.91-13.21ZM161.04,589.93c-3.42-11.05-10.96-15.72-18.45-20.49-2.19,2.01-3.94,3.42-4.44,6.67,6.63,4.74,10.47,14.29,22.9,13.82ZM155.87,556.37c-2.32,1.94-4.17,3.52-5.2,5.78,6.76,10.19,12.9,13.99,19.48,11.69.31-10.13-9.39-11.77-14.28-17.47Z" fill="#eef0f1" stroke-width="0"/><path d="M303.86,642.63c.04.7,0,.94.07,1.14,4.94,14.39-1.89,22.4-16.91,19.36-10.9-2.2-21.66-5.06-32.54-7.64-1.37-5.86,1.43-10.52,2.41-15.88-1.99-4.51-1.28-8.77,2.31-12.94,3.3-3.83,2.12-9.4,4.5-14.33,12.33,2.23,24.9,4.42,36.76,8.92,11.05,4.2,12.09,12.51,3.4,21.39ZM294.3,652.75c-2.53-7.38-14.95-12.18-25.25-10.72.54,2.37-1.65,4.43-.43,7.86,7.93,1.87,16.03,5.36,25.68,2.86ZM273.57,631.7c10.22,4.75,17.82,5.44,22.37,2.06-1.87-6.46-11.32-10.53-20.96-8.95-1,2.17-1.74,4.43-1.41,6.89Z" fill="#eef0f1" stroke-width="0"/><path d="M543.53,605.73c-2.91-3.09-5.11-5.55-6.9-8.76,2.78-3.56,5.21-7.34,10.94-5.58,5.54-6.07,14.86-9.1,15.94-18.92-3.57-2.92-6.36-1.93-8.96.24-3.94,3.28-7.75,6.73-11.73,9.97-3.55,2.9-7.54,4.58-12.31,4.43-9.11-.27-13.76-6.8-10.82-15.48.88-2.59,2.36-4.82,4.11-6.86,7.76-9.04,17.72-15.57,26.3-23.61,3.64,1.97,5.61,4.88,7.43,8.3-2.3,4.03-5.1,7.16-10.77,5.79-5.73,5.61-13.01,9.88-16.5,17.24.8,2.51,2.06,3.62,4.63,4.04,6.2-2.28,10.62-7.93,16.19-11.9,3.17-2.26,6.39-3.97,10.16-4.86,4.55-1.08,8.37-.01,11.6,3.32,3.46,3.58,3.07,7.72,1.52,11.89-1.09,2.94-2.68,5.65-4.85,7.97-7.81,8.32-16.82,15.25-25.99,22.79Z" fill="#eef0f1" stroke-width="0"/><path d="M241.66,618.04c-.07,10.07-5.81,17.24-15.72,19.66-17.43,4.25-35.64-6.83-38.87-23.65-2.15-11.2,4.18-21.29,15.33-23.56,13.6-2.77,25.14,1.1,33.99,12.01,3.63,4.48,5.29,9.75,5.26,15.54ZM230.96,616.15c-.12-9.56-10.98-18.41-20.91-17-5.39.76-9.99,2.93-11.85,8.42-1.8,5.32-.18,10.09,3.5,14.2,2.57,2.87,5.65,5.07,9.24,6.45,9.36,3.6,20.14-2.93,20.03-12.07Z" fill="#eef0f1" stroke-width="0"/><path d="M455.16,652.54c-4.46,2.2-8.48,3.31-12.98,3.73-1.25-1.43-2.55-2.91-4.08-4.66-7.01,1.98-14.07,3.97-20.75,5.86-2.37,1.32-1.45,4.03-3.67,5.79-2.75,1.59-6.41,2.3-10.62,2.74-.85-4.75-1.64-9.21-2.52-14.11,4.37-1.65,4.68-5.55,5.48-9.25,1.7-7.86,3.48-15.69,5.23-23.52,4.09-2.54,8.53-2.9,13.27-4.07,10.21,12.49,20.31,24.85,30.64,37.49ZM430.84,643.62c-2.22-5.11-4.51-8.87-9.25-11.05-1.83,4.63-3.66,8.78-1.9,13.93,3.64-.94,6.99-1.8,11.15-2.88Z" fill="#eef0f1" stroke-width="0"/><path d="M151.39,103.31c2.1-2.82,4.12-5.11,7.88-6.42,6.31,10.8,10.06,22.78,15.83,33.67-1.15,3.14-3.25,4.99-6.19,6.39-6.9-.89-11.09-7.66-18.6-9.47,1.42,7.06,5.61,12.25,7.5,18.38-1.44,3.26-4.08,5.17-7.74,7.01-10.34-6.81-20.87-13.74-31.31-20.61,1.55-3.79,4.47-4.64,6.68-6.31,6.05.88,9.74,6.46,16.15,7.41-.23-6.24-4.82-10.46-5.62-15.93,1.02-3.32,3.21-5.27,6.8-6.06,5.16,1.59,8.62,6.65,14.5,8.22.04-6.3-4.77-10.41-5.88-16.29Z" fill="#eef0f1" stroke-width="0"/><path d="M82.11,211.19c12.21-1.99,17.47,3.68,14.06,15.14-2.93,9.85-8.25,18.66-12.31,28.11-12.31-3.68-23.49-8.17-33.57-16.23,3.95-9.11,7.18-18.83,13.08-27.28,6.44-9.23,12.1-9.19,18.74.26ZM82.74,240.69c1.56-6.6,7.46-11.91,5.8-19.63-6.23-.14-10.55,5.7-13.19,17.21,1.43,2.36,3.64,2.91,7.4,2.42ZM72.53,215.21c-7.65,2.78-8,10.15-10.96,15.71,1.96,2.13,3.78,3.13,6.1,2.9,6.19-8.16,7.29-12.05,4.86-18.61Z" fill="#eef0f1" stroke-width="0"/><path d="M619.58,214.74c-8.2,1.43-13.63,6.96-21.03,8.12-1.9-2.54-3.02-5.34-4.03-9,11.08-5.23,22.07-10.41,32.96-15.55,2.9,3.18,3.33,6.64,5.13,9.25-2.74,10.81-7.82,20.56-10.35,31.54,8.96.29,12.76-7.44,18.97-10.46,3.73,3.06,4.43,7.14,6.47,11.33-10.74,6.14-21.8,11.09-32.92,15.92-5.11-5.23-5.45-10.77-3.06-16.91,2.97-7.63,6.06-15.23,7.86-24.25Z" fill="#eef0f1" stroke-width="0"/><path d="M256.36,48.09c3.71-.92,6.28-1.56,9.35-2.32,10.35,3.87,18.7,12.24,29.77,16.53,1.28-4.38-1.59-7.87-1.2-12.3-1.43-1.11-3.01-2.33-4.3-3.33-.69-2.14-.98-3.86.06-5.92,3.69-1.37,7.48-3.34,12.24-1.38,2.5,11.38,5.02,22.88,7.56,34.46-3.14,2.34-6.88,1.16-9.3,3.27-10.59-5.11-19.16-12.53-30.1-17.34-.3,7.9,3.66,14.54,3.65,21.98-2.64,2.09-5.82,1.68-9.39,2.57-3.84-11.98-5.53-24.04-8.36-36.22Z" fill="#eef0f1" stroke-width="0"/><path d="M380.04,659.03v10.23c-11.3-.37-22.38,1.21-33.42-.97-1.96-.39-3.94-.97-5.75-1.79-8.02-3.65-14.04-9.07-14.14-18.59-.11-9.51,5.08-15.88,13.22-20.13.99-.52,2.03-1.04,3.11-1.24,12.09-2.23,24.21-3.42,36.37-1.41,1.39,3.67,1.39,6.89.23,10.56-5.15-.49-9.96,1.23-15.29-1.99-7.07-4.26-22.09,2.72-25.1,10.51-2.67,6.93,3.23,15.58,12.22,16.53,5.31.56,10.81,1.48,16.27-1.4,3.39-1.79,7.81-.61,12.26-.31Z" fill="#eef0f1" stroke-width="0"/><path d="M354.6,59.36c-4.32-1.72-8.44-.22-12.4-1.12-1.14-2.12-.79-4.25-.22-6.8,8.31-.86,16.6-2.27,25.26-.21.48,6.92.38,13.51-.08,20.22-7.04.56-13.67,1.37-20.31,1.53-7.94.19-14.98-2.53-20.46-8.45-6.81-7.36-5.67-17.5,2.41-23.42,3.32-2.43,7.07-3.84,11.02-4.72,9-2,18.04-2.19,27.05-.79,1.11,3.03.86,5.62-.06,8.51-4.73,1.81-9.3,2.55-13.11-2.14-5.71.11-11.26.69-16.1,3.94-7.05,4.73-7.11,12.35.08,16.89,5.1,3.22,10.77,4.16,16.57,2.18,1.52-2.1.3-3.89.35-5.62Z" fill="#eef0f1" stroke-width="0"/><path d="M486.68,92.18c-3.36,3.62-4.32,8.31-7.63,11.63-3.51-.45-6.02-2.59-9.02-4.69,1.66-6.34,7.72-10.82,6.71-17.95,5.36-3.31,7.69-8.77,11.27-14.04,10.61,4.49,20.59,9.76,29.14,17.39,3.9,3.48,4.57,8.29,3.03,12.99-1.41,4.32-5.61,4.58-9.48,4.81-1.08.06-2.17,0-3.55,0-1.87,6.5,1.96,12.37,1.39,18.71-4.5-.83-7.21-3.9-10.23-5.62-2.85-8.6,1.41-20.03-11.64-23.25ZM490.92,85.2c12.59,9.06,16.33,9.84,19.18,3.65-4.05-4.65-9.85-6.91-14.71-10.12-2.88,1.43-3.84,3.59-4.47,6.47Z" fill="#eef0f1" stroke-width="0"/><path d="M641.94,329.55c.89,26.46-5.23,51.72-7.52,77.16-4.13,2.23-7.74,1.95-12.1.77,1.34-20.97,5.79-41.49,7.19-61.74-3.28-3.41-7.31-.66-10.58-3.41-1.41-3.59-.79-7.68-.21-12.31,7.59-1.32,14.85-.66,23.22-.47Z" fill="#da252a" stroke-width="0"/><path d="M463.51,66.11c-4.84-.8-9.52-1.31-11.51-6.35-5.51-1.15-10.42-3.65-16.02-1.75-8.32,2.82-10.58,10.98-4.51,17.35,3.86,4.06,8.85,5.86,14.19,6.67,1.54-1.32,2.44-2.79,2.4-4.96-2.74-3.96-8.13-2.97-11.74-5.81-.8-2.53.38-4.57,2.35-7.04,7.61,2.5,15.35,5.03,23.27,7.63-.94,7.47-3.68,13.78-6.26,21.12-10.96-3.55-22.25-5.29-31.06-13.34-5.58-5.1-8.49-11.25-5.9-18.62,2.68-7.61,9.18-10.55,16.76-11.43,6.69-.78,12.76,1.85,18.97,3.63,3.86,1.11,7.64,2.46,11.42,3.69,2.04,3.98-.26,6.42-2.35,9.21Z" fill="#eef0f1" stroke-width="0"/><path d="M549.89,116.45c-2.64,1.55-3.92,3.24-4.51,5.95,4.4,5.65,11.24,9.1,15.66,14.8-.18,2.57-2.29,3.36-3.66,5.19-6.29-4.37-11.05-10.38-17.39-14.38-2.36.88-3.68,2.53-4.78,4.95,5.93,8.26,15.5,13.1,21.5,21.18-.4,2.53-1.72,3.84-4.67,4.67-9.91-8.88-20.14-18.05-30.15-27.02.6-3,2.67-4.16,4.15-5.77,2.1-2.28,4.61-4.26,4.24-7.93-.2-2,1.41-4.06,2.65-4.31,6.22-1.24,9.05-6.83,13.91-10.29,10.34,9.16,20.63,18.28,30.8,27.29-1.01,2.4-2.56,3.64-4.43,4.88-8.88-5.09-15.01-13.75-23.32-19.21Z" fill="#eef0f1" stroke-width="0"/><path d="M600.17,183.94c-.72,2.31-2.36,2.99-4.56,3.79-5.79-4.62-8.7-12.03-14.07-16.97-2.95-.12-4.39,1.52-5.99,3.99,4.61,8.89,12.18,16.05,17.56,24.47-.91,2.45-2.93,2.99-5.1,4.41-9.28-10.43-16.8-21.98-25.12-32.76,2.32-4.43,6.67-5.77,10.19-8.89.62-4.52,3.06-7.29,8.59-7.47,4.16-.14,6.24-4.92,11.22-6.49,8.07,10.61,16.37,21.53,24.39,32.09-.74,3.37-2.53,4.34-5.62,4.61-5.9-7.61-12-15.48-18.03-23.25-2.71.73-4.46,1.95-5.94,4.06,2.8,7.07,9.3,11.8,12.46,18.42Z" fill="#eef0f1" stroke-width="0"/><path d="M30.68,352.66c-2.2-.93-4.23-1.78-6.16-2.58-1.37-2.47-1.29-4.83-.21-7.92,5.09-2.71,10.01-6.47,12.73-12.07,2.5-.95,4.62-1.15,7.14.34v76.5c-3.48,2.4-6.92,1.39-10.21.84-2.18-2.51-1.53-5.3-1.53-7.9-.03-11.83.04-23.65.09-35.48.02-3.8-.05-7.58-1.85-11.72Z" fill="#da252a" stroke-width="0"/><path d="M85.49,179.76c.15-16.52,14.29-28.31,30.51-25.56,4.12.7,6.97,3,8.83,6.49,4.61,8.66,3.96,17.4-1.04,25.5-5.02,8.12-12.53,12.71-22.4,12.06-10.45-.69-16-7.34-15.9-18.49ZM119.77,173.63c-.17-6.57-5.13-11.38-11.57-11.22-7.06.17-14.9,8.85-14.85,16.45.04,6.08,5.07,10.97,11.24,10.92,7.16-.06,15.37-8.8,15.17-16.14Z" fill="#eef0f1" stroke-width="0"/><path d="M502.06,581.2c2.57,2.5,3.41,4.45,3.31,7.19-4.34,4.3-10.76,5.67-15.91,9.45,3.35,11.39,10.92,20.53,15.39,31.47-2.74,3.13-6.31,4.66-10.61,6.32-6.88-9.66-10.89-20.85-17.12-30.53-6.9.96-11.25,6.55-17.69,7.33-2.49-1.16-3.1-3.45-3.94-6.61,15.56-8.22,31.01-16.39,46.58-24.61Z" fill="#eef0f1" stroke-width="0"/><path d="M227.57,99.51c-11.05,6.17-21.7,12.11-33.13,18.49-6.09-10.89-12.02-21.48-17.96-32.1,2.14-2.99,5.3-3.64,8.12-5.39,7.33,6.86,8.75,17.58,15.66,23.87,10.05-.8,13.89-10.89,22.4-13.3,2.62,2.13,3.86,4.62,4.91,8.43Z" fill="#eef0f1" stroke-width="0"/><path d="M240.96,93.33c-5.81-10.85-6.37-23.7-17.05-31.39,4.43-4.05,8.71-5.05,13.33-6.66,4.42,11.63,9.9,22.5,13.04,34.5-2.92,1.86-5.68,3.06-9.31,3.56Z" fill="#eef0f1" stroke-width="0"/><path d="M349.61,602.45c-140.6-.18-254.54-115.23-252.5-256.49,1.95-135,110.71-246.31,248-248.85,140.61-2.6,257.7,109.23,257.59,252.72-.12,143.44-116.14,252.69-253.09,252.62ZM149.99,412.23c-.47.39-1.03.76-.43,1.47.37-.1.75-.2,1.12-.31.8-.28,1.33-.79,1.36-1.67-.81-.42-1.48-.17-2.05.5ZM533.23,433.4c-1.82-1.94-3.53-4.07-8.01-4.83,2.9,2.83,4.46,4.82,6.98,5.74,2.11,2.78,4.28,5.48,8.87,7.49-2.19-4.62-4.88-6.65-7.84-8.41ZM495.45,460.24c2.7,3.33,3.71,8.09,8.1,10.08-1.42-4.31-3.47-8.14-6.48-11.41-2.3-4.01-6.21-6.92-8.1-11.67,2.26-3.82,5.92-5.87,9.79-7.51,7.38-3.13,15.37-5.48,15.8-15.11,4.34-.44,6.67,2.1,9.59,2.99.41.97.88,1.77,2,.48-.36-.44-.72-.88-1.08-1.32-3.64-2.83-7.33-5.6-10.38-9.36,1.68-6.39,2.58-13.03,8.34-16.64,4.72-.41,7.71,2.62,11.45,3.03.59.45,1.18.82,1.61-.18-.32-.17-.62-.33-.92-.49-2.65-3.34-6.8-3.9-10.37-5.51-3.51-1.58-6.76-3.41-9.17-6.51-2.11-2.7-2.13-5.72-1.7-8.7.97-1.45,2.81-.12,3.62-1.49,1.89-3.5,2.3-7.76,5.62-10.8,9.38-3.71,19.3-.06,29.01-1.22-5.96-2.1-12.16-2.96-18.27-2.18-6.92.88-12.72-.87-18.05-5.01l.13.12c-1.2-1.37-2.25-2.86-2.19-4.75.33-10.06-.81-19.95-3.8-29.31,4.29-3.73,10.17-3.59,13.61-7.36-.24-.49-.47-.98-.71-1.47-5.15,1.73-10.3,3.47-15.53,5.23-2.82-3.05-6.13-5.32-7.81-9.31,3.37-2.27,6.31-4.25,9.24-6.23,1.15-.66,3.19-.06,3.32-2.63-1.74-.8-3.2.07-4.67.86-4.6,1.03-7.69,5.26-12.67,6.12-1.95-2.71-3.93-5.34-7.13-6.8-.27-5.4-6.6-10.46.36-15.65-1.28-1.36-2.32-2.47-3.28-3.49.08-2.03,3.12-2.22,2.39-4.74-.25-1.78-2.97-2.48-2.75-4.81,1.47-1.48,4.23-.04,5.36-2.74-3.38-1.14-4.95-3.8-5.68-7.18,3.61-3,8.48-2.81,11.99-5.15-.3-1.96-2.56-1.6-2.56-3.26,1.15-7.97,4.64-14.81,9.85-20.9,9.62-11.25,11.89-25.24,14.13-39.14,1.07-6.65-.55-12.87-5.18-18.14-1.29-1.47-2.07-3.39-3.04-5.02,1.19-4.54,2.81-8.73,2.9-13.28-1.39-1.71-2.71-3.4-5.18-3.94-3.32,14.2-11.11,25.37-21.64,34.92-7.83,7.1-16.54,12.94-25.27,18.8-3.78,1.58-7.17,3.81-10.46,6.22-4,1.4-6.54,5.44-11.65,6.32-8.45-5.22-17.86-9.74-25.76-16.77-5.55-4.95-11.72-8.88-19.51-9.41-1.27-.08-2.6-.65-3.71-1.33-5.69-3.48-11.89-5.03-18.48-4.96-8.45.1-16.89.26-25.26-1.32-2.4-.45-4.88-.02-7.28.62-10.33,2.76-20.65,5.56-31,8.22-3.49.9-6.83,2.01-9.76,4.17-.68.22-1.35.44-2.03.66-3.57,1.17-7.01,3.01-11.61,2.12-3.57-7.64-10-13.62-15.47-20.23-10.32-12.46-22.5-22.66-39.33-25.97-10.76-2.11-11.36-2.4-16.74,7.13-6.87,12.17-9.58,25.43-10.03,39.19-.59,18.11,5.99,35.08,8.79,52.65.94,5.9,1.55,11.89,4.01,17.47.65,1.46.11,3.09-.55,4.55-.85,1.68-3.34,1.45-3.98,3.55-1.41,2.36.4,5.2-.8,7.67-.95,2.17-3.62,1.64-5.02,3.31-.14,3.16-2.03,5.2-4.73,6.7-2.35,1.31-4.16,3.23-6.1,5.09-4.42,4.23-6.81,9.57-8.41,15.07-2.92,10.04-12.78,16.68-12.77,26.7-1.86,3.22-5.52,1.33-6.44,4.42,1.19,1.17,3.26-.06,4.27,1.72-2.32,9.13-3.73,18.44-2.5,28.46-8.83,6.01-9.54,16.18-11.88,25.73,1.28.11,2.54.21,4.1.34-.06,6.29,2.86,11.65,4.25,18.01,10.4,1.19,16,11.71,26.21,12.77,2.09,4.83-2.43,5.96-4.01,8.59,1.09.24,2.13.47,3.03.66,2.84,4.31.18,9.5,2.73,13.97,3.32,1.53,6.4,3.69,8.68,6.26,1.25,1.74-1.33,3.78,1.02,5.02,2.88-.03,4.06-3.48,6.94-3.45,1.29,1.47.18,3.67,1.87,5.2,1.45,1.87,4.72,2.18,5.8,5.86-4.86,7.64,4.32,12.63,4.86,20.77,2.34-3.69,5.51-2.63,8.19-2.44,4.12-3.33,6.02-8.96,11.99-9.4.98,2.61.43,5.02.24,7.45-1.16,15.23-.68,30.4,2.29,45.4,1.01,5.1,2.66,10.22,7.21,13.48,4.58-2.55,1.28-7.22,4.4-10.6,5.59,2.89,8.64-3.9,13.66-4.65,2.54,3.17,4.37,6.39,4.74,10.91,7.58,1.36,14.21,6.38,21.6,4.82,4.55-4,4.18-9.69,7.52-13.43,2.07,1.96-.37,4.57,1.57,6.31,3.31-1.2,2.26-5.8,6.16-7.26.24,3.67-.44,7.79,4.16,8.57,3.71-2.87.22-9.65,6.24-10.82,3.48,2.33,1.97,5.91,2.94,9.09,3.83,2.03,3.91,9.02,10.17,8.4,1.94-6.37-2.94-13.25,1.54-19.29,5.72.61,5.68,6.93,10.04,9.19,2.87-4.85,9.64-3.96,11.9-9.19,4.41.03,8.54.35,11.48-3.15,11.92.59,23.59.68,33.57-5.52,3.53.34,3.57,4.62,6.84,4.53,1.25-2.7-2.52-4.85-.72-7.74,1.51-1.19,3.35-1.7,5.5-1.23,2.92,1.77,4.35,4.99,6.74,7.24,1.37-.1,2.68-.19,3.96-.28,1.04-.95-.99-3.38,1.78-3.51,2.23,1.2,3.3,4.43,6.87,3.9,2.47-.58,3.36-3.89,6.17-4.46q9.65,2.79,17.28,20.25c1.98.59,3.9.45,5.92-.89,2.29-7.28,5.65-14.28,9.17-21.27,4.91-9.73,6.1-20.58,5.83-31.2-.17-6.57,1.18-11.38,6.38-15.06,4.88-3.45,6.83-8,6.03-13.91-.41-3.04-.84-6.2,1.08-8.59,1.65-.75,2.6.06,3.63.36ZM542.83,403.86q-3.29,7.1-18.34,2.28c-1.96,2.93-3.38,6.1-3.72,9.67,2.71,3.53,6.33,5.8,9.7,8.38,4.97,3.8,10.1,7.42,13.97,12.45,2.44,3.17,3.44,6.31-.04,9.36-6.82.96-7.68.76-12.14-3.53-4.13-3.97-8.02-8.21-13.63-11.36-4.4,10.19-15.28,11.03-23.18,16.55,5.49,8.13,12.53,14.74,14.66,24.04-3.56,6.25-5.32,6.42-13.84,1.48-.12,8.92-8.82,11.89-12.93,18.8,3.52,23.43-8.33,43.02-17.08,63.33-2.42.36-4.18.7-5.95.88-5.81.6-7.52-.54-9.29-6.23-.46-1.49-.71-3.05-1.06-4.57-1.08-4.79-3.84-7.86-8.25-8.73-8.61,5.14-17.1,4.43-26.22,2.61-.99,1.12-2.21,3.11-5.27,3.47-.56-.14-1.79-.15-2.67-.71-4.57-2.98-9.26-2.54-13.91-.5-3.62,1.59-7.39,1.95-11.18,1.6-13.07-1.22-23.76,4.26-33.45,11.43-3.21,1.63-5.75-1.16-8.52-.71-1.49,4.78,2.96,11.78-5.62,13.27-2.87-1.21-5.72-2.4-7.94-3.33-2.68-2.42-3.1-5.7-6.19-7.69-3.71,5.04-8.04,2.42-12.15.51-2.45.97-4.99,1.05-6.55,3.43-3.76,5.72-9.19,5.51-14.91,3.85-2.15-.62-4.23-1.5-6.4-1.98-6.41-1.39-12.01-3.71-13.38-11.16-2.82,1.28-5.23,2.37-7.75,3.52-.78,4.54-2.2,9.03-7.56,9.68-5.53.67-7.56-3.92-9.65-7.87-3.96-7.47-4.78-15.72-5.65-23.94-.95-8.98-.52-18.05-.83-27.31-6.71,2.27-12.37,5.88-19.29,2.8-.95-8.25-8.81-14.32-5.99-23.47-1.79-.96-2.73-2.65-4.99-2.92-2.48,1.55-3.75,4.79-6.57,6.06-3.78.87-6.92-.02-8.89-3.27-3.16-5.21,1.97-8.36,3.91-12.15q-7-3.86-9.17-12.57c-2.39-.16-4.9.66-7.43-1.03-4.77-6.43,1.8-9.36,5.24-13.42-7.85-5.1-14.93-10.39-22.91-13.24-1.98-4.95-2.33-9.75-5.08-13.82-3.93,1.25-8.56,3.6-10.73-1.36-3.11-7.09,4.19-8.66,7.8-12.26.58-8.52,4.89-15.52,9.84-22.03-.23-7.55,1.73-14.78,1.2-22.23-.95-1.68-2.29-3.25-2.45-4.82-.21-5.4,3.71-6.67,6.96-8.35,1.79-10.14,10.18-16.74,13.16-26.21,3.09-9.82,8.76-18.03,18.31-23.18-.58-4.3,1.45-6.91,5.42-8.02-.14-4.85,1.88-8.45,5.55-11.32-2.14-4.82-3.31-9.44-3.81-14.41-.73-7.3-2.19-14.62-4.23-21.67-4.34-15.01-6.1-30.15-4.21-45.67,1.51-12.38,5.37-23.94,12.03-34.55,3.33-5.31,7.94-9.44,14.23-7.93,5.13,1.23,10.64,1.77,15.42,4.13,11.89,5.87,22.86,13.11,31.4,23.48,5.51,6.68,10.82,13.53,16.76,20.98,11.2-6.05,23.71-8.51,35.86-12.14,10.81-3.23,21.55-6.13,32.88-2.6,1.03.32,2.23.16,3.34.09,11.26-.72,22.4-.86,32.52,5.38.71.44,1.72.39,2.6.54,7.01,1.18,13.37,3.98,18.64,8.67,7.75,6.89,16.64,11.94,25.41,16.92,8.31-5.13,16.64-9.94,24.62-15.27,12.11-8.11,23.82-16.72,31.57-29.57,3.85-6.38,6.87-12.95,6.96-20.29-100.53-79.93-259.71-70.69-348.99,45.24-86.75,112.63-59.62,276.8,58.19,355.88,118.84,79.77,280.68,44.12,353.42-80.95,67.43-115.93,24.44-247.58-47.34-306.26-.7,2.64-1.36,5.16-2.1,7.92,6.45,6.83,9.18,15,7.79,24.1-2.4,15.76-5.83,31.18-16.9,43.69-3.1,3.5-5.59,7.56-6.06,12.52,1.48,3.35,4.36,6.63.55,10.59-2.19.78-4.66,1.65-7.17,2.54.75,2.57,3.05,4.27,2.55,7.57-7.35,4.88,1.45,14.41-5.2,19.65,1.29,4.37,2.69,8.05,7.34,9.17,5.6-2.99,11.02-7.01,17.98-4.93,4.02,5.16,3.51,8.43-1.62,11.35-2.32,1.32-5.46,1.66-6.47,5.27,2.44.72,4.22-.34,6.01-1,6.92-2.57,13.91-4.92,21.1-6.66,7.85-1.9,10.1.1,9.12,9.26-8.11,5.15-18.8,5.58-27.49,11.52,2.21,8.71,2.83,17.8,2.68,26.55,2.5,2.2,4.82,3.51,7.58,4.77,8.46-1.51,17.09.02,25.77.77,3.61.31,5.89,1.76,6.44,5.4-2.62,6.69-4.93,7.89-13.84,6.46-6.23-1-12.4-.98-18.61-.29-3.02,4.38-3.37,9.78-6.91,13.57,6.67,7.5,19.12,6.01,23.24,16.03ZM538.76,315.02c-5.33.46-10.43,1.61-14.87,4.7,5.21-.83,10.64-1,14.87-4.7ZM195.45,482.26c3.36-.92,5.14-2.75,5.85-6.75-3.82,1.28-6.74,2.12-5.85,6.75ZM153.43,410.67c.44.63.89.63,1.33,0-.44-.63-.89-.63-1.33,0Z" fill="#eef0f1" stroke-width="0"/><path d="M661.62,367.97c3.49,9.11,2.35,18.38,1.77,27.27-2.08,1.41-3.49.69-3.66-.69-1.09-8.9-1.89-17.83,1.89-26.57Z" fill="#211f22" stroke-width="0"/><path d="M68.02,340.83c2.63,9.33,2.04,18.65.92,29.4-4.79-5.29-5.08-23.45-.92-29.4Z" fill="#211f22" stroke-width="0"/><path d="M161.04,589.93c-12.43.47-16.27-9.08-22.9-13.82.51-3.25,2.25-4.66,4.44-6.67,7.49,4.77,15.03,9.44,18.45,20.49Z" fill="#211f22" stroke-width="0"/><path d="M155.87,556.37c4.89,5.7,14.58,7.34,14.28,17.47-6.58,2.29-12.72-1.51-19.48-11.69,1.03-2.26,2.88-3.83,5.2-5.78Z" fill="#211f22" stroke-width="0"/><path d="M294.3,652.75c-9.65,2.5-17.75-.99-25.68-2.86-1.23-3.43.97-5.49.43-7.86,10.3-1.45,22.72,3.34,25.25,10.72Z" fill="#211f22" stroke-width="0"/><path d="M273.57,631.7c-.33-2.46.41-4.72,1.41-6.89,9.64-1.58,19.09,2.49,20.96,8.95-4.55,3.38-12.15,2.7-22.37-2.06Z" fill="#211f22" stroke-width="0"/><path d="M230.96,616.15c.11,9.14-10.67,15.67-20.03,12.07-3.58-1.38-6.67-3.58-9.24-6.45-3.68-4.11-5.3-8.88-3.5-14.2,1.86-5.49,6.46-7.66,11.85-8.42,9.93-1.41,20.79,7.45,20.91,17Z" fill="#211f22" stroke-width="0"/><path d="M430.84,643.62c-4.16,1.07-7.51,1.94-11.15,2.88-1.76-5.15.07-9.3,1.9-13.93,4.74,2.18,7.03,5.94,9.25,11.05Z" fill="#211f22" stroke-width="0"/><path d="M82.74,240.69c-3.76.49-5.97-.06-7.4-2.42,2.64-11.51,6.96-17.35,13.19-17.21,1.66,7.72-4.24,13.03-5.8,19.63Z" fill="#211f22" stroke-width="0"/><path d="M72.53,215.21c2.43,6.56,1.32,10.45-4.86,18.61-2.32.23-4.14-.77-6.1-2.9,2.97-5.55,3.31-12.92,10.96-15.71Z" fill="#211f22" stroke-width="0"/><path d="M490.92,85.2c.62-2.88,1.58-5.05,4.47-6.47,4.87,3.22,10.66,5.47,14.71,10.12-2.85,6.19-6.59,5.41-19.18-3.65Z" fill="#211f22" stroke-width="0"/><path d="M119.77,173.63c.19,7.35-8.02,16.08-15.17,16.14-6.17.05-11.2-4.83-11.24-10.92-.05-7.6,7.79-16.28,14.85-16.45,6.44-.15,11.39,4.65,11.57,11.22Z" fill="#211f22" stroke-width="0"/><path d="M542.83,403.86c-4.12-10.02-16.57-8.54-23.24-16.03,3.54-3.78,3.89-9.18,6.91-13.57,6.21-.69,12.38-.71,18.61.29,8.92,1.43,11.22.24,13.84-6.46-.55-3.64-2.83-5.09-6.44-5.4-8.68-.75-17.31-2.28-25.77-.77-2.77-1.26-5.08-2.57-7.58-4.77.15-8.75-.47-17.84-2.68-26.55,8.7-5.94,19.38-6.37,27.49-11.52.98-9.16-1.26-11.16-9.12-9.26-7.19,1.74-14.17,4.08-21.1,6.66-1.79.67-3.56,1.72-6.01,1,1.01-3.62,4.16-3.96,6.47-5.27,5.14-2.92,5.65-6.19,1.62-11.35-6.96-2.08-12.37,1.94-17.98,4.93-4.66-1.12-6.06-4.8-7.34-9.17,6.66-5.24-2.15-14.77,5.2-19.65.49-3.3-1.8-5-2.55-7.57,2.51-.89,4.98-1.76,7.17-2.54,3.81-3.97.93-7.25-.55-10.59.47-4.96,2.96-9.02,6.06-12.52,11.07-12.51,14.49-27.93,16.9-43.69,1.39-9.1-1.34-17.27-7.79-24.1.73-2.77,1.4-5.29,2.1-7.92,71.78,58.68,114.77,190.33,47.34,306.26-72.74,125.06-234.58,160.71-353.42,80.95-117.81-79.07-144.93-243.25-58.19-355.88,89.29-115.93,248.46-125.17,348.99-45.24-.09,7.34-3.11,13.91-6.96,20.29-7.75,12.84-19.45,21.46-31.57,29.57-7.98,5.34-16.31,10.15-24.62,15.27-8.77-4.98-17.66-10.03-25.41-16.92-5.28-4.69-11.63-7.49-18.64-8.67-.88-.15-1.89-.1-2.6-.54-10.12-6.24-21.26-6.11-32.52-5.38-1.11.07-2.32.23-3.34-.09-11.32-3.53-22.07-.63-32.88,2.6-12.15,3.63-24.66,6.09-35.86,12.14-5.94-7.45-11.25-14.3-16.76-20.98-8.54-10.37-19.51-17.61-31.4-23.48-4.78-2.36-10.28-2.9-15.42-4.13-6.29-1.51-10.89,2.63-14.23,7.93-6.66,10.6-10.53,22.16-12.03,34.55-1.89,15.53-.13,30.67,4.21,45.67,2.04,7.05,3.5,14.37,4.23,21.67.5,4.98,1.67,9.6,3.81,14.41-3.67,2.86-5.69,6.47-5.55,11.32-3.97,1.1-6,3.72-5.42,8.02-9.56,5.15-15.23,13.36-18.31,23.18-2.98,9.47-11.37,16.07-13.16,26.21-3.25,1.68-7.17,2.95-6.96,8.35.16,1.57,1.5,3.14,2.45,4.82.53,7.44-1.44,14.68-1.2,22.23-4.95,6.51-9.26,13.51-9.84,22.03-3.61,3.6-10.91,5.18-7.8,12.26,2.18,4.96,6.8,2.6,10.73,1.36,2.76,4.08,3.1,8.88,5.08,13.82,7.99,2.85,15.06,8.14,22.91,13.24-3.44,4.06-10.02,6.99-5.24,13.42,2.54,1.7,5.05.87,7.43,1.03q2.16,8.71,9.17,12.57c-1.94,3.79-7.07,6.94-3.91,12.15,1.97,3.24,5.11,4.14,8.89,3.27,2.82-1.28,4.09-4.51,6.57-6.06,2.26.26,3.19,1.96,4.99,2.92-2.82,9.15,5.04,15.22,5.99,23.47,6.92,3.08,12.58-.53,19.29-2.8.31,9.26-.12,18.32.83,27.31.87,8.23,1.69,16.47,5.65,23.94,2.09,3.95,4.12,8.54,9.65,7.87,5.36-.65,6.78-5.14,7.56-9.68,2.52-1.14,4.93-2.24,7.75-3.52,1.36,7.45,6.96,9.77,13.38,11.16,2.17.47,4.26,1.35,6.4,1.98,5.72,1.66,11.15,1.87,14.91-3.85,1.56-2.38,4.1-2.46,6.55-3.43,4.11,1.9,8.44,4.53,12.15-.51,3.09,1.98,3.51,5.26,6.19,7.69,2.22.93,5.07,2.13,7.94,3.33,8.58-1.49,4.12-8.49,5.62-13.27,2.76-.45,5.3,2.34,8.52.71,9.7-7.17,20.38-12.65,33.45-11.43,3.79.35,7.55,0,11.18-1.6,4.65-2.04,9.34-2.48,13.91.5.87.57,2.11.57,2.67.71,3.06-.36,4.28-2.35,5.27-3.47,9.12,1.82,17.6,2.54,26.22-2.61,4.4.86,7.16,3.94,8.25,8.73.35,1.53.59,3.08,1.06,4.57,1.77,5.69,3.47,6.83,9.29,6.23,1.77-.18,3.53-.52,5.95-.88,8.75-20.31,20.6-39.9,17.08-63.33,4.11-6.91,12.81-9.88,12.93-18.8,8.52,4.94,10.27,4.77,13.84-1.48-2.12-9.3-9.16-15.91-14.66-24.04,7.91-5.52,18.78-6.36,23.18-16.55,5.61,3.15,9.51,7.39,13.63,11.36,4.46,4.29,5.32,4.5,12.14,3.53,3.48-3.06,2.48-6.2.04-9.36-3.88-5.03-9.01-8.65-13.97-12.45-3.37-2.58-6.99-4.85-9.7-8.38.34-3.57,1.76-6.74,3.72-9.67q15.05,4.82,18.34-2.28Z" fill="#211f22" stroke-width="0"/><path d="M515.86,361.72c5.33,4.14,11.12,5.89,18.05,5.01,6.11-.78,12.31.07,18.27,2.18-9.71,1.16-19.63-2.49-29.01,1.22-3.32,3.05-3.74,7.31-5.62,10.8-.81,1.37-2.64.04-3.62,1.49-.43,2.98-.41,6,1.7,8.7,2.42,3.1,5.66,4.93,9.17,6.51,3.57,1.61,7.71,2.18,10.37,5.51-.23.22-.47.45-.7.67-3.74-.42-6.73-3.44-11.45-3.03-5.76,3.61-6.66,10.25-8.34,16.64,3.04,3.76,6.74,6.53,10.38,9.36-.32.27-.63.55-.93.84-2.92-.89-5.24-3.43-9.59-2.99-.43,9.63-8.43,11.98-15.8,15.11-3.87,1.64-7.53,3.69-9.79,7.51,1.89,4.75,5.8,7.66,8.1,11.67-.54.44-1.08.89-1.61,1.33-1.04-.3-1.98-1.11-3.63-.36-1.92,2.39-1.49,5.55-1.08,8.59.8,5.91-1.15,10.46-6.03,13.91-5.2,3.68-6.54,8.49-6.38,15.06.27,10.63-.92,21.47-5.83,31.2-3.52,6.99-6.88,13.99-9.17,21.27-2.02,1.34-3.94,1.48-5.92.89q-7.63-17.46-17.28-20.25c-2.81.57-3.7,3.89-6.17,4.47-3.58.54-4.64-2.69-6.87-3.9-2.77.13-.74,2.56-1.78,3.51-1.28.09-2.59.18-3.96.28-2.39-2.25-3.81-5.47-6.74-7.24-2.15-.46-3.99.05-5.5,1.23-1.8,2.89,1.97,5.04.72,7.74-3.28.09-3.31-4.18-6.84-4.53-9.98,6.21-21.64,6.11-33.57,5.52-2.94,3.5-7.07,3.17-11.48,3.15-2.26,5.23-9.03,4.34-11.9,9.19-4.36-2.27-4.31-8.58-10.04-9.19-4.49,6.04.4,12.92-1.54,19.29-6.26.62-6.34-6.37-10.17-8.4-.97-3.18.54-6.76-2.94-9.09-6.02,1.17-2.53,7.96-6.24,10.82-4.6-.78-3.92-4.9-4.16-8.57-3.9,1.46-2.85,6.06-6.16,7.26-1.94-1.74.5-4.35-1.57-6.31-3.34,3.75-2.96,9.44-7.52,13.43-7.39,1.56-14.02-3.47-21.6-4.82-.38-4.53-2.21-7.74-4.74-10.91-5.02.75-8.07,7.54-13.66,4.65-3.12,3.38.18,8.05-4.4,10.6-4.55-3.25-6.2-8.37-7.21-13.48-2.97-14.99-3.46-30.17-2.29-45.4.18-2.42.74-4.84-.24-7.45-5.98.44-7.87,6.07-11.99,9.4-2.68-.19-5.85-1.25-8.19,2.44-.54-8.14-9.72-13.13-4.86-20.77-1.08-3.68-4.35-3.99-5.8-5.86-1.69-1.54-.59-3.73-1.87-5.2-2.88-.04-4.07,3.42-6.94,3.45-2.35-1.23.24-3.27-1.02-5.02-2.29-2.57-5.37-4.73-8.68-6.26-2.55-4.47.1-9.67-2.73-13.97-.9-.2-1.94-.42-3.03-.66,1.58-2.63,6.1-3.76,4.01-8.59-10.21-1.07-15.81-11.58-26.21-12.77-1.39-6.35-4.31-11.72-4.25-18.01-1.56-.13-2.82-.23-4.1-.34,2.35-9.55,3.05-19.72,11.88-25.73-1.23-10.02.18-19.33,2.5-28.46-1.01-1.78-3.07-.55-4.27-1.72.92-3.1,4.58-1.2,6.44-4.42-.01-10.01,9.85-16.66,12.77-26.7,1.6-5.5,3.99-10.84,8.41-15.07,1.95-1.86,3.75-3.78,6.1-5.09,2.7-1.5,4.59-3.54,4.73-6.7,1.4-1.67,4.07-1.14,5.02-3.31,1.21-2.47-.61-5.31.8-7.67.64-2.1,3.13-1.87,3.98-3.55.66-1.46,1.19-3.09.55-4.55-2.46-5.58-3.07-11.57-4.01-17.47-2.8-17.58-9.38-34.55-8.79-52.65.45-13.76,3.16-27.02,10.03-39.19,5.38-9.53,5.98-9.25,16.74-7.13,16.83,3.31,29.01,13.51,39.33,25.97,5.48,6.61,11.9,12.58,15.47,20.23,4.6.9,8.04-.95,11.61-2.12,1.02,3.35-3.81,4.39-2.88,8.26,3.31,2.34,7.61.15,11.78,2,.14-3.85,3.43-5.87,3.58-9.97-3.7.08-7.41,1.72-10.45-.95,2.93-2.15,6.27-3.27,9.76-4.17,10.35-2.66,20.67-5.45,31-8.22,2.4-.64,4.88-1.07,7.28-.62,8.38,1.57,16.81,1.41,25.26,1.32,6.59-.07,12.79,1.48,18.48,4.96,1.1.67,2.44,1.24,3.71,1.33,7.79.52,13.96,4.46,19.51,9.41,7.9,7.03,17.3,11.55,25.76,16.77,5.11-.88,7.65-4.92,11.65-6.32.72,3.36-4.89,4.25-3.14,8.01,9.65,4.19,17.05,2.23,22.51-6.13-1.14-2.43-2.33-4.98-3.6-7.7-1.81-.14-3.56-.27-5.31-.4,8.72-5.86,17.44-11.7,25.27-18.8,10.53-9.55,18.32-20.73,21.64-34.92,2.48.54,3.8,2.23,5.18,3.94-.09,4.55-1.71,8.74-2.9,13.28.97,1.64,1.75,3.55,3.04,5.02,4.62,5.26,6.25,11.49,5.18,18.14-2.24,13.89-4.5,27.89-14.13,39.14-5.21,6.09-8.7,12.93-9.85,20.9,0,1.66,2.26,1.3,2.56,3.26-3.5,2.35-8.38,2.16-11.99,5.15.73,3.38,2.3,6.04,5.68,7.18-1.13,2.7-3.89,1.27-5.36,2.74-.22,2.33,2.5,3.03,2.75,4.81.74,2.51-2.31,2.71-2.39,4.74.96,1.03,2,2.13,3.28,3.49-6.95,5.2-.62,10.26-.36,15.65,3.21,1.46,5.19,4.1,7.13,6.8,4.98-.86,8.07-5.09,12.67-6.12.45.59.9,1.18,1.35,1.77-2.93,1.98-5.87,3.96-9.24,6.23,1.67,3.98,4.98,6.25,7.81,9.31,5.22-1.76,10.38-3.49,15.53-5.23.24.49.47.98.71,1.47-3.44,3.77-9.32,3.62-13.61,7.36,2.99,9.36,4.13,19.25,3.8,29.31-.06,1.89.99,3.38,2.19,4.75-3.86.07-7.75-.69-11.3.96-1.23-2.45,1.5-4.26-.19-6.43-.9-2.42-4.88-.37-5.73-3.52,1.78-2.98,3.57-5.98,5.47-9.16-1.48-3.73-.02-7.38.47-10.8-1.49-14.41-12.95-16-23.09-18.71-3.22-1.55-2.18-5.68-5.97-7.49-.99-.72-2.58,1.47-4.67.63-.91-1.24.61-3.48-1.34-4.7-1.4-1.57-3.8-.76-5.64-2.1-.04-1.81,1.12-3.91-1.08-6.07-3.53-1.5-6.07-5.63-10.43-6.74-1.24-1.86-1.2-4.19-3.72-5.66-2.82-1.14-5.42-.11-7.6,3.06,1.12,5.76,3.42,10.48,9.6,10.91,2.32,2.04,2.04,4.63,3.57,6.64,5.52,2.06,9.7,7.55,16.81,7.44-.08,5.86,2.93,9.9,7.5,12.65,3.59-.35,5.67-3.19,9.53-4.06-3.48,10.29-8.58,17.49-20.25,17.51,1.13,4.76-2.59,6.95-3.5,9.93.79,2.46,3.55,1.5,4.31,3.37,3.07,8.3-1,17.25,1.33,25.38,3.44.67,5.35-.14,7.17-2.93-3.97-2.38.94-4.55.53-7.41-5.55-4.29-2.21-10.23-3.05-16.5-.04-.56-2.96-.18-2.17-3.03,4.84-3.56,9.93-7.62,16.34-10,.94,4.23-3.41,4.28-4.03,6.76.26,2.27.51,4.46.73,6.39,1.25,2.46,3.99,3.35,4.89,6.38-.46,2.81-.83,6.11-.05,8.87-1.08,2.94-5.1,3.47-3.96,7.27,5.33,2.04,10.91-2.89,16.24-.34-2.99,4.99-8.61,3.38-12.97,5.4,2.06,5.71-1.26,10.68-.69,16.21,3.44,2.76,7.98,4.63,10.39,9.47-2.26.85-3.61,3.17-7.08,3.13-4.88-5.9-9.6-13.24-19.84-12,.21,3.5-4.11,3.58-5.71,6.52,6.21,4.6,14.04,4.75,20.13,8.63-1.95,4.09-5.78,1.67-8.79,3-1.27,2.06-2.52,4.37-3.15,7.17,1.33,1.72,2.68,3.48,4.22,5.48-.78,3.22.37,6.31,1.59,8.88-.57,2.27-2.68,3.14-2.5,5.55,1.82,2.78,4.5,4.94,8.39,6.73,9.97-9.98,5.09-22.6,6.37-34.25,5.34-.3,9.23,4.21,14.16,4.63,3.72-2.37,2.16-6.13,2.65-8.96,1.74-1.85,4.33-.16,5.89-2.23,1.1-2.19.76-4.54-.22-6.77-3.99-4.88-8.82-3.19-13.12-1.84-3.77-.92-5.86-3.06-7.81-6.06,6.23-.71,11.48,3.44,17.19,1.61,0-3.71-3.94-4.16-4.31-6.72-.17-6.86,9.27-6.25,9.58-12.21-1.38-2.63-3.81-2.05-5.76-2.74,1.66-.95,3-1.71,4.57-2.61v-4.62ZM452.98,361.69c.18-2.41,4.14-2.95,2.73-6.78-3.46.42-6.93.5-7.75,5.04,1.53,2.17,3.54,1.08,5.12,1.66-1.18,3.3-7.21,3.23-5.96,8.33,5.34.39,9.1-2.25,10.76-7.42-1.38-1.75-3.24-.68-4.9-.82ZM360.29,345.45c1.42,1.08,1.6,3.95,4.47,3.1,2.23-3.19-.65-6.32-.14-9.41.9-3.77,5.28-2.78,7.09-5.08-.05-2.17-.76-3.63-2.69-4.17-2.4.06-2.89,1.78-3.33,3.55l.04-.04c-4.21.32-8.4.25-13.23-.14,2.62,4.09,5.24,8.19,7.86,12.28-1.65.45-3.33-1.54-5.06.1-.09,2.81,1.23,3.96,3.88,3.54,1.41-1.06,1.28-2.38,1.09-3.72ZM275.59,348.32c-1.94.43-3.88.86-5.85,1.29-3.26-8.21-9.89-11.45-15.57-7.69-1.1,3.49,2.99,3.5,3.79,6.15-.08,1.62-3.45,1.29-2.47,4.86,14.11.61,26.82,8.56,40.98,11.65,1.09-3.39.85-5.77.28-8.17-2.32-2.78-4.78-5.33-8.21-6.32-2.81.07-5.18,3.87-8.26.26.64-1.46,3.5-1.28,3.03-4.11-1.62-2.22-3.65-4.25-7.31-2.65v4.2l-.41.52ZM285.16,297.08c-.69,3.14-2.75,6.53,1.96,8.97,10.82-1.46,21.81,1.11,32.91,1.59,4.36.19,7.37,2.77,10.09,5.89,3.91,4.47,5.67,10.06,8.15,15.28,1.1,2.3,1.63,5.13,5.04,5.79,3.51-5.48,1.72-10.41-.9-15.22-3.5-6.43-7.88-12.47-8.31-19.19-8.56-6.85-18.88-4.45-27.76-7.53-1.47-1.83-.68-4.38-2.51-5.76-2.64-1.29-5.33-2.31-7.62.14-1.45,2.31,1.6,3.65.79,5.9-4.55.04-7.98,2.87-11.96,4.25-.71-2.49-2.58-4.3-4.9-3.56-6.95,2.21-12.39-1.64-18.9-4.09,9.29-5.43,20.13-6.23,28.74-11.53-.19-2.7-1.28-3.95-3.09-4.6-8.45,1.65-17.26-2.28-25.57,2.01-1.13,2.49-.98,5.71-3.44,7.58-4.94,1.69-9.21-1.19-13.53-1.91q-8.84,9.19-11.88,20.61c-4.37,4.96-10.21,7.54-14.68,11.83-2.43,2.34-3.79,4.97.13,7.9,8.84-4.38,13.32-15.56,24.44-14.53.32-3.21-2.52-2.36-2.73-3.76,2.54-5.42,6.44-9.2,11.61-12.03,2.6.68,5.6-.13,8.52,1.58-.75,4.63-4.24,5.25-7.79,5.9-3.24.6-6.53,1.26-6.62,5.42,1.68,1.33,3.15,1.18,4.22.44,7-4.83,15.19-4.74,23.1-5.56,4.2-.44,8.43-.47,12.48-1.83ZM500.06,199.01l.07.07c-1.27-3.69,3.79-6.65.78-11.79-6.48,9.11-11.1,18.6-18.54,26.12-7.57,7.66-15.4,14.91-24.08,21.25-8.6,6.28-17.93,11.33-28.55,17.24,1.57-4.46,3.32-6.91,4.83-9.53,3.53-6.11,1.58-12.02-4.81-14.84-2.28-1-4.31-2.14-6.18-3.85-2.78-2.54-5.96-4.62-10.15-4.57-2.33-6.37-6.58-9.9-13.64-9.42-3.15.21-5.4-1.61-7.51-3.78-9.88-10.14-22.17-9.89-34.81-7.85-1.12.18-1.89,1.13-2.15,2.99,1.16,2.1,3.78,2.96,5.65,4.28,2.09.2,3.66-1.53,6.29-.03,3.61,1.38,3.29,6.91,6.98,9.52,2.59-.17,5.22-.34,7.62-.5,1.85-.87,2.3-3.08,4.78-3.5,1.48,2.83,4.61.9,6.84,2.09,9,4.97,14.19,14.24,22.36,20.11,2.62-.22,2.25-4.07,4.67-3.55,3.86,3.39-.14,5.73-.94,8.6,2.68,4.83,1.15,10.18,1.26,15.16,2.84,2.03,4.91-.42,7.21-.57.87,4.24,4.09,7.2,5.79,12.01,10.12-.26,18.44,6.53,27.76,7.94,9.8-2.94,15.93-9.08,20.88-16.91,4.52-7.15,7.94-15.09,14.35-20.94,11.55-10.54,15.67-24,15.47-39.17-.02-1.4-.32-2.68-2.43-3.28-3.64,1.21-5.01,6.63-9.79,6.69ZM270.38,435.59c-1.44-.48-1.88-2.69-4.85-1.94-8.33,5.8-7.25,18.77-16.91,24.56,2.82,3.97,3.32,7.66,4.08,11.27-1.17,2.49-2.31,4.91-3.51,7.47.68,2.05,1.8,4.08.74,6.4-1.01,2.23-2.09,4.47-2.14,7.37.61,1.06,1.38,2.38,2.26,3.91-2.77,9.15-3.61,18.31,2.3,25.89.01,5.7-3.31,10.56.32,15.75,4.65-3.34,6.63-8.98,11.92-11.03,2.52,3.77,7.96,4.44,8.25,9.85,17.79-1.94,31.24-12.39,46.39-20.58.77-2.69,3.56-4.83,4.8-7.49.08-2.65-.67-4.39-3.01-5.69-1.7-1.21-3.91,1.76-6.27-.19-.1-4-.56-8.17-2.05-11.95-2.13-1.73-5.19-.47-6.92-2.83-1.11-2.64,1.28-5.09.56-8.12-1.35-2.57-3.53-4.62-6.19-5.36-2.26-.1-2.76,3.01-4.99,1.72-.35-4.29,3.92-4.48,5.78-6.83.45-3.21.9-6.44,1.42-10.11-4.3-.21-8.17-.83-10.63-4.47-2.41,1.54-4.28,3.72-7.19,1.51-.64-4.11-1-8.6-4.15-12.37-4.6,1.93-5.89,6.72-9.11,9.6-2.85,2.56-3.96,7.97-10.29,7.15,1.74-5.59,6.28-7.98,8.55-11.97.56-1.98-2.38-2.77-1.65-4.83.84-2.23,2.82-4.08,2.41-6.77,4.62.59,6.14-3.41,8.33-6.04,1.62.63,1.92,2.37,3.61,2.5,2.78-.58,4.42-2.5,5.43-5.68-1.71-2.98-.48-6.94-2.05-10.29-8.54-.02-15.77,9.44-15.22,19.59ZM198.41,406.49c-.81-2.38,1.33-4.2.36-6.3-1.59-2.47-3.18-4.95-4.72-7.34,1.86-1.68,4.7-1.18,6.05-4.18-2.36-1.73-2.62-5.14-4.63-6.95-3.01-1.99-6.48-.83-9.73-2.84,3.36-1.68,6.1-3.04,8.85-4.42,0-4.21-2.97-7.11-3.89-10.59,2-1.66,5.48.12,6.2-3.22-.33-2.51-4.22-.7-4.11-3.94,1.36-1.09,2.89-2.33,3.71-2.99,1.67-2.05-.56-3.78,1.12-5.05,2.91-1.38,6.8.19,9.08-2.76.38-2.92-4.16-2.39-2.99-6.36,6.07-2.26,12.65-5.18,18.29-9.63-1.57-6.01-5.91-6.11-9.66-6.77-2.51,1.62-1.66,4.55-3.51,6.02-1.75.97-4.1.24-5.58,1.97-2.59,4.1-6.26,7.53-7.25,12.21-2.3,1.09-4.28,1.12-6.03.84-2.22-.71-3-3.08-5.22-3.41-6.9,1.72-7.88,6.98-7.31,13.47-8.17,5.64-3.58,15.3-7.23,22.54,1.08,2.02,2.01,3.76,3.1,5.81-4.08,5.96-7.04,12.43-8.81,19.41,1.39,7.37,1.08,15.08,5.58,21.77,4.49,6.67,11.3,9.39,18.29,12.08,3.68-1.04,4.06-5.73,7.35-7.11,1.4.87,2.6,1.52,2.56,3.15q-1.5,3.71-1.31,7.46c1.56,1.52,3.75-1.02,5.52.49-9.3,12.17-9.87,18.38-2.31,22.2,2.99-.33,2.69-4.04,5.13-4.94,1.54-.34,3.07-.58,4.67.4.64,1.48,1.33,3.08,2.13,4.93,1.26-.22,2.33-.4,3.44-.59,1.5.9.47,3.74,3.23,3.95,2.82-.23,3.57-2.55,4.28-5.43-1.33-2.05-3.11-4.38-1.44-6.9-1.03-1.59-2.8-1.54-3.36-3.47,1.83-3.26-.1-5.92-2.77-8.27,5.23-5.29,5.97-12.18,8.26-18.89,7.59-4.94,14.6-11.18,23.11-15.39,9.82-4.86,19.21-10.54,28.27-16.72,2.33-1.59,5.24-3.14,2.97-7.23-4.34-1.51-7.95.86-12.36,3.18-.21-3.02-3.16-3.7-5.04-5.75,7.74-2.39,15.66,1.5,22.28-2.2,1.12-2.47.79-4.14-.53-6-4.99-1.78-10.19-3.75-15.48-2.55-2.4,1.07-2.39,3.83-4.77,4.45-18.33,3.45-32.26,2.13-37.41-4.02,7.4-1.87,15.24-.78,22.62-3.88-3.31-4.93-7.51,1.61-10.36-2.75.39-1.76.87-3.89,1.35-6.02,1.02-1.65,3.97-.7,4.22-3.61-7.06-7-16.04-6.13-24.89-5.33-5.78.52-7.86,5.26-10.13,9.69-1.74,3.38-3.63,6.67-5.47,10-.42.76-.89,1.48-1.15,1.9.07,2.2,2.12,1.92,2.83,3.3-1.59,4.61-1.06,9.37-.1,14.71,14.44-1.98,28.23-6.92,43.06-6.68-.87,4.01-1.91,7.33.43,10.09-.6,2.19-3.22,2.2-3.49,4.45.3,2.2.59,4.6.13,7.19-5.52,3.95-10.92,8.2-17.19,11.02-2.89-3.28,1.18-5.03,1.06-7.52-.14-2.46-4-2.33-3.53-5.62,4.07-1.42,3.71-5.19,3.59-8.31,1.14-1.84,3.89-1.57,3.48-4.68-9.83-2.98-18.91-.16-27.64,3.51-2.35,6.36,2.66,11.78.65,17.8-2.63-.09-4.33-1.32-5.9-3.4ZM440.85,417.24c.72,6.2,5.41,9.72,8.27,14.2,2.97,4.65,7.53,8.43,8.29,15.06-6.17-6.74-12.45-12.16-20.6-15.86-3.14,3.83-7.97,1.79-11.6,3.8-2.07,1.69-.41,4.54-2.13,6.19-1.96,1.93-4.38-1.33-6.33.64-4.03,4.04.14,7.33,1,10.37-.77,4.71-3.29,7.82-5.79,10.29-1.24,2.79-.11,5.48-1.75,7.85-.78,1.68-3.68,1.4-4.35,4.54,1.84,2.88.94,6.59.09,10.05,1.58,3.31,3.02,6.32,4.48,9.37-.88,4.17-1.75,8.29-2.66,12.6,3.8,5.27,8.97,8.8,14.34,11.79,6.23,3.47,13.1,5.69,19.38,9.17,5.42,3,12.2,1.53,15.81-2.85,4.34.85,3.94,6.75,9.61,8.48-1.51-9.86,2.79-18.22,1.54-26.89,2.4-1.12,3.43,1.62,5.49-.09,1.94-2.26,1.42-5.44,1.29-8.54-.25-5.78-1.48-11.71-.57-17.29,1.22-7.48-.6-14.12-2.56-21.02-4.14-14.58-14.24-25.68-22.01-38.14-1.75-2.8-4.61-4.73-9.23-3.71ZM239.59,173.62c-3.11,2.65-6.4,5.46-9.41,8.03-3.99-1.13-4.96-6.99-9.86-4.95-3.38,6.18-5.52,12.38-2.09,18.67-1.45,3.66-3.58,5.84-5.97,7.41-2.42.49-2.84-3.58-5.82-1.45-1.5,9.38-3.13,19.04,3.73,27.99.42-4.76,4.75-4.48,7.07-6.34,3.46-3.73-.96-7.97,1.2-12.22,3.03.99,5.58-.6,7.75-2.57q4.04,2.69,6.11,6.2c-1.14,2.15-3.97.35-6.03,3.42-3.16,12.96.56,26.03,6.32,38.7,2.95,3.42,7.77-.02,10.84,3.12-1.12,4.99-6.85,2.96-9.68,7.66-2.04,3.81-3.77,9.5-4.55,15.41-2.61.62-4.75,1.12-6.68,1.58-4.02,3.65-5.27,7.9-4.28,12.82,1.58,1.6,3.24,2.58,6.34,1.93,3.55-5.4,4.77-13.56,11.97-15.63,1.59-2.28.84-4.42,2.35-5.74,1.98-.39,2.44,2.78,5.14,1.76,2.03-4.38,8.46-4.5,10.91-9.16-1.2-3.09-3.88-5.45-2.63-8.77,1.15-.87,2.2-.87,3.39-.3,1.23,1.06-.45,3.82,2.79,4.25.68-3.92,4.27-5.02,7.16-6.28,1.11-2.77-1.45-4.66-.39-7.42,1.18-1.9,3.28-3.53,5.31-5.01,1.82-.38,2.93,1.53,4.6.98,7.03-2.38,10.76-9.15,16.91-12.23.58-3.06-.4-4.74-3.61-5.53-1.85.63-4.25,1.06-5.9,2.64-1.52,2.07-.74,4.77-3.6,7-4.72-.04-10.49-.2-15.6,3.77-1.25-3.85-1.37-7.21-2.89-10,1.41-2.52,2.65-4.74,3.83-6.87,4.31.92,8.41,5.69,12.04-.49-1.04-3.27-2.28-6.34-4.58-8.83-1.9-1.75-4.43,1.6-6.06-.59-1.88-3.82,3.11-4.73,2.89-8.09-1.25-1.25-3.85-.96-4.71-3.11-1.38-2.27.48-4.85-1.04-8.11-4.36-3.77-5.65-11.81-13.61-13.77,1.92,7.32,9.08,12.69,7.26,21.74-3.92-3.21-5.64-6.84-5.74-11.44-6.1-2.12-5.2-8.73-8.71-12.42.91-1.42,1.61-2.5,2.26-3.5-.7-2.34-2.33-3.4-4.73-4.25ZM332.32,405.22c-2.91,3.24-5.26,4.26-8.11,4-2.86-.27-5.71-.76-8.57-.88-3.4-.14-6.83-.02-7.46,4.5,1.82,3.06,4.96,3.16,7.67,3.78,7.56,1.73,15.08-.02,22.63-.54,7.35-.51,14.04-4.43,21.55-3.68,3.67-2.9,8.37-4.54,10.4-10.04-3.3-4.64-5.3-10.29-7.72-15.51-4.99-1.27-9.85-1.62-13.4-5.61-1.05-2.15-.58-5.12-2.56-7.23-1.98-2.11-3.9-4.28-6.07-6.66-.69-8.05-1.3-16.18,1.99-23.91-3.46-2.93-6.16,1.18-9.15.27-2.2-.64-3.03-3.38-6.74-3.68-6.7,3.52-14.15,2.95-21.7-1.57-6.53-3.91-11.86-8.65-15.31-15.45-.81-1.59-1.6-3.21-2.59-4.69-1.5-2.22-3.6-3.37-6.35-2.57-2.46.71-3.42,2.66-3.85,5-1.24,6.78,2.18,11.6,6.8,15.81,4.28,3.9,8.74,7.62,12.28,10.69,1.83,2.67.34,5.03,1.63,6.28,2.14,2.24,4.13,3.51,7.12,2.66,1.06-.75.35-3.19,2.92-3.35,1.37,2.77,3.87,4.35,7.61,4.09.22,5.89,6.54,6.57,9.3,11.42-3.9-.85-6.9-1.66-9.95-2.13-3.08-.47-6.34-2.25-10.87,1.55,9.11,3.55,15.24,9.72,22.37,14.35-.65,2.28-2.11,2.63-3.63,2.7-2.27-.55-2.38-3.38-5.14-4.03-8.74,4.02-13.7-7.63-21.82-7.06-3.02,3.37-3.16,6.1-1.36,8.56,2.92,1.98,5.27-.34,8.34.4,6.13,4.54,13.07,8.97,22.27,11.87-7.79,4.77-11.03-1.3-15.61-3.35-5.13-.42-10.45-.96-15.56-3.02-2.53,3.28-2.49,5.86.35,7.84,2.75,1.15,4.84-.73,7.03-.07,5.38,1.81,9,6.49,14.23,8.58,5.22,2.09,10.79-1.5,17.05.68ZM423.12,351.42c5.03-.85,8.12-5.91,13.12-7.2,10.29-2.66,11.33-12.21,15.03-19.69,1.28-2.58.11-5.43-2.89-6.61-2.91-1.14-5.25-.08-6.76,2.66-1.19,2.15-2.41,4.3-3.46,6.52-3.76,7.89-10.08,12.25-18.56,13.83-5.33.99-10.69.72-16.05.74-3.79.01-6.68.96-6.25,5.81,1.59,1.77,3.21,3.56,4.06,4.51.7,12.02-1.32,22.53-6.2,32.43-2.46,2.53-6.28,2.22-9.65,4.76.11,6.71-9.08,8.55-9.86,15.37,12.84,14.59,44.63,20.04,53.2,9.43-.56-3.29-4.15-3.48-6.33-5.33,3.15-4.49,8.41-3.47,12.01-5.72,1.61-2.54,1.74-4.67-1.41-6.44-6.55,3.57-14.05,2-21.28,3.01,3.87-2.6,7.73-5.2,11.35-7.64q10.83-.28,10.71-6.83c-4.39-1.79-8.67.87-13.01.71-4.81-.18-8.16,3.99-13.04,4.88,2.21-5.37,14.72-12.62,20.94-12.61,1.96-1.09,2.17-3.34,3.37-4.89,4.21.78,6.67-1.21,8.54-4.93-4.62-3.28-7.65-1.97-8.98.68-9.71,4.61-18.91,6.19-27.29,11.98.11-5.98,6.83-5.49,7.04-10.26-1.99-2.85-5.05-5.55-3.55-10.25,3.95.69,6.27-1.81,8.37-4.03,2.42-.27,4.56,2.27,6.36.07,1.59-1.64-.5-3.16.49-4.94ZM399.07,482.61c-3.57,2.19-6.97,2.03-10.23,1.91-2.21-1.6-4.2-3.04-5.66-4.1-6.04-2.28-11.06-.18-15.65,1.57-2.69-1-3.18-3.83-5.56-4.44-3.62-1.04-7.04.16-10.72.93-1.14,1.51-2.32,3.09-3.6,4.79-4.6.2-7.46,3.6-10.34,5.78-2.97.39-5.27-1.92-7.82-.02-1.68,4.36,1.76,8.71.12,12.6,5.38,9.15,8.72,19.9,21.26,19.21,2.48,1.13,2.41,3.98,5.31,4.46,3.01-1.09,6.3-2.71,10.35-2.14,14.39,2.04,27.8,1.05,36.09-15.07,1.84-7.99.22-16.7-3.55-25.49ZM354.12,260.05c2.86,7.6-2.87,15.82,3.4,22.01-.21,3.24-2.34,6.03.58,9.47,4.25-2.08,5.56,3.45,10.02,4.49,8.5-1.21,6.5-9.86,10.35-15.19-6.92-3.35-4.01-10.76-8.14-15.38,3.69-2.43.98-7.2,3.59-10.23,8.33,4.95,17.15,1.78,20.19-7.24,1.97.22,2.91,2.94,6.47,2.01,1.48-.48,3.06-1.92,1.5-5.27-3.11-1.17-7.07-1-9.37-4.23-8.53-11.94-20.28-7.2-31.28-5.92-1.64.19-3.36,1.36-3.28,3.76,1.69,2.97,4.2,2.96,6.78,1.41,3.02-1.81,6.43-1.97,9.7-2.41,5.27-.71,9.13,2.69,13.05,5.02.71,2.72,0,4.35-2.63,5.38-4.97-.59-10.3-.76-15.31-.12-3.32,1.55-3.77,6.07-8.01,6.37-2.52-2.65-5.11-5.39-7.98-8.41-3,.45-5.35-2.26-8.96-2.62-1.78,4.37-9.05,4.15-9.25,10.41,2.78,1.32,5.45-.01,7.88,1.49,3.48,1.65,5.06,7.87,10.72,5.19ZM330.6,482.99c1.2-3.97,1.83-8.06,3.61-11.57,3.55-7.01,1.86-12.98-2.66-18.58-3.8-4.71-7.15-9.65-9.58-15.21-1.15-2.64-2.69-5.06-5.55-5.58-2.82,1.48-1.64,5.46-4.79,6.22-1.68-2.98-.13-6.55-2.7-9.31-4.85-1-7.2,1.4-8.03,6.02,1.82,4.14,6.74,6.43,6.22,11.61-1.06,2.56-3.48,4.67-2.88,8.07,2.78.8,5.18,2.18,6.14,4.69.91,4.3-2.98,7.35-1.99,11.15,1.35,1.81,3.6.7,5.21,2.19,1.05,2.59,2.22,5.46,3.31,8.15,4.14,3.18,8.26,4.88,13.7,2.14ZM242.59,343.75c.27-1.47,1.18-2.69,2.39-3.76,1.88-.53,4.02.7,6.13-1.13-.82-4.51,3.47-5.1,6.16-6.75.96-1.87-.66-3.29.02-5.31,2.39-1.71,3.61-4.64,4.67-7.8-2.89-2.62-4.58-6.35-9.36-7.42-4.69,1.74-10.15,2.76-15.58,3.93-5.6,1.2-8.87,4.84-9.95,10.43-1.21,6.28-1.39,12.81-5.65,19.04,8.66,1.22,16.1,3.12,23.73,3.5.77-2.93-2.72-2.56-2.56-4.75ZM438.96,306.66c-.34-7.28-7.98-14.12-15.01-13-4.61.73-8.78.46-12.29-1.13-6.94,2.67-12.7,5.64-16.18,12.06-5.21,9.59-6.97,14.8-5.19,18.28,9.2-13.56,10.47-14.05,26.95-12.98,7.28.47,14.76,1.33,21.72-3.24ZM324.99,252.06c-2.02,4.62-5.65,8.78-1.95,13.38,3.09.9,3.08-2.92,5.66-2.54,1.45,1.41,2.95,3.13,5.28,3.48,2.3-.11,3.87-1.07,4.45-3.77-7.05-9.15-10.84-23.75-27.81-17.12-3.58,5.21-8.66,8.62-12.42,13.4-3.9-2.49-7.58-3.26-11.28-.68-1.62,4.27.78,6.94,3.7,8.54,5.99,3.28,9.97-1.44,14.05-4.35,1.87-.71,3.79,1.06,5.53-.93,1.55-3.08,3.26-6.46,4.83-9.56q5.96-2.92,9.98.16ZM342.1,211.29c1.59-.4,2.09-1.4,2.61-2.39.5-.97.78-2.1,1.9-2.62,1.44-.32,2.9,1.61,4.32-.06,1.87-6.95,1.78-7.59-1.9-12.33-.72-.06-1.6-.23-2.46-.19-7.54.32-14.29,4.86-22.09,4.11-1.44-.14-1.99,1.52-1.55,3.04,1.51,2.22,4.4.21,6.07,1.96,1,1.15.58,3.17,2.35,3.85,1.94.57,3.92-1.17,5.98.2,1.78,1.01,1.81,4.06,4.77,4.43ZM382.28,374.42c3.37-1.37,6.85.46,10.01-1.1-6.18-7.58-27.83-8.37-35.98-1.36,2.72,2.02,4.98-1.45,6.35-.97,6.8,1.92,6.7,7.39,9,11.85,2.05-1.28,4.19-2.84,6.7-1.26.91-2.93,1.37-5.41,3.91-7.15ZM216.43,303.97c-1.5-2.93-3.44-4.07-6.41-3.78-7.97,3.69-9.15,14.88-18.9,17.02.85,4.42-5.74,7.18-1.65,12.55,4.23-3.22,8.1-6.1,10.25-10.29,1.84-.58,3.31-1.04,5.14-1.61,2.01-5.86,7.85-8.72,11.58-13.88ZM349.26,236.97c-1.8-6.9-9.94-5.76-12.64-11.07-4.68.25-9.03.48-13.3.71-1.68,3.27-1.18,5.84,1.13,8.06,7.15,1.95,14.54,2.53,21.05,6.07.98-.68,1.79-1.08,2.39-1.7.59-.61.96-1.43,1.36-2.07ZM397.47,445.86c-9.12,8.03-7.98,29.01,1.71,33.59-.31-11.23,5.47-22.52-1.71-33.59ZM378.46,447.07c2.59-2.91,2.52-5.55.89-8.25-8.21-3.75-14.15-3.92-19.88-.85-3.06,1.64-4.4,3.65-2.4,6.97,3.42,1.51,7,.95,10.54,1.08,3.52.13,7.03.67,10.86,1.06ZM245.94,429.17c11.24-3.71,21-10.01,30.13-17.34,1.42-1.14,3.37-2.56,1.16-5.72-11.73,5.78-23,12.15-31.29,23.05ZM394.38,262.89c5.02-2.6,8.81,3.95,14.45,2.04-1.63-8.73-10.01-6.62-14.7-11.05-4.41,5.49-8.36,10.02-10.52,16.11,4.31,2.11,7.77,1.33,10.95-.26,1.22-2.48-1.53-4.07-.19-6.85ZM365.05,316.62q-6.64,4.24-7.09,9.1c1.7,1.56,3.58,2.51,6.09,1.65,3.27-4.99,6.14-10.16,6.2-15.93,1.5-1.68,4.09-.93,4.49-4.11-1.05-3.22-1.84-7.34-7.14-8.86-.37,4.19-1.94,7.52-4.03,10.2.16,2.88,2.36,4.84,1.47,7.95ZM296.53,314.47c-5.2,8.91,2.89,18.61,12.52,22.45,8.2,3.27,16.42,2.03,19.59-4-7.49,4.32-14.16,3.39-20.84-.04-7.02-3.6-8.78-10.6-11.28-18.41ZM434.26,321.44c-3.14,1.15-4.64,3.93-6.65,6.17-7.95,8.88-13.29,10.1-24.08,5.22-1.43-.65-2.72-1.69-3.91.25,3.88,5.21,10.23,7.09,18.39,4.85,8.54-2.35,13.44-8.49,16.25-16.48ZM343.95,264.76c1.93,5.83-.3,9.75-2.39,13.63-1.76,3.28-2.1,6.74.34,9.38,2.12,2.3,3.36,4.99,4.67,7.74q4.27-3.15.47-12.37c2.16-12.23,1.82-15.7-3.09-18.38ZM221.2,227.87c-8.21,2.15-5.07,11.8-10.97,15.05.82,2.21.9,4.32,3.57,5.33,1.48-2.12,4.41-2.03,6.63-3.67-.03-3.33.28-6.58,2.27-8.94,0-2.68-.32-4.84-1.5-7.78ZM260.22,356.9c4.29,6.05,12.57,5.52,16.55,11.71,3.88-.81,7.77,2.76,12.11-1.14-8.8-6.53-18.41-9.39-28.66-10.57ZM462.31,406.46c-2.2-3.09-3.47-6.52-7.52-5.59-2.36,1.83-.94,4.66-2.78,6.52-.78,1.66-3.72,1.25-4.17,3.68-.44,2.86,1.1,4.1,4.23,4.58,1.63-1.63,4.58-1.36,6.82-3.02,1.06-1.92,2.13-3.86,3.41-6.17ZM315.04,279.87c4.78,6.66,6.69,6.98,13.11,2.22.28-4.63-3.17-7.65-4.98-11.36q-3.91,1.24-8.13,9.14ZM498.24,431.22c4.21.83,8.05,0,10.31-3.92,1.74-3.03,1.85-6.39-1.26-8.95-7.01,2.15-10.51,7.07-9.05,12.86ZM357.22,420.34c-.05.92-.11,1.84-.16,2.76,9,1.4,18,1.91,27.05-.44-8.89-3.07-18,.29-26.89-2.32ZM352.68,466c-.38-5.26,1.41-10.59-2.26-15.6-4.45,3.61-4.89,8.17-4.13,12.85.44,2.69,2.38,4.16,6.39,2.75ZM395.73,274.64c-3.03,1.47-2.45,4.35-4.13,5.83-1.28,1.59-4.05.68-5.01,3.17-.5,1.94-.25,3.73,2.51,4.69,2.27-.72,4.52-1.96,6.86-3.88.53-3.05,2.88-6.22-.24-9.8ZM383.4,450.8c-1.38,6.09-5.74,9.35-5.26,14.7,3.68,2.27,5.89.53,7.76-2.1q.33-6.69-2.49-12.6ZM378.7,324.37c.5,6.17,2,7.51,8.56,8.32,1.94-2.03,3.11-4.2,1-7.24-3.03.71-5.97-.52-9.56-1.08ZM409.91,277.31c2.99,2.15,5.25,2.26,8.28.64-1.02-3.76-.22-8.32-5.83-10.71-.89,3.67-1.65,6.78-2.45,10.06ZM363.94,416.52c6.24-1.46,12.36,2.69,19.12.46-4.48-6.07-12.84-6.26-19.12-.46ZM467.53,385.39c4.33.31,8.85,4.55,12.8-.28-.16-2.23-1.25-3.16-3.28-3.82-2.09,3.61-6.7,1.04-9.52,4.1ZM358.28,461.73c5.09,1.54,10.21,1.16,15.34.44-5.08-2.46-10.18-3.66-15.34-.44ZM388.13,432.4c5.42-2.71,7.4-6.06,6.97-10.86-2.36-1.48-4.04-.86-5.57.85-1.14,2.85-1.45,5.85-1.41,10.01ZM349.52,430.73c2.15-3.79,3.31-7.1,2.07-10.98-2.05-.71-3.91-1.14-5.63.72-.11,3.45-.73,7.07,3.56,10.27ZM459.34,343.93c-6.37-.03-7.71,1.2-7.8,8.01,2.82-3.17,8.52-1.23,7.8-8.01ZM463.41,332.61c2.98.01,5.11-.6,5.25-3.85-1.13-1.98-2.63-3.04-4.98-2.61-2.35,1.82-2.91,3.78-.27,6.46ZM418.77,290.81c2.18,1.15,3.95,1.4,5.56-.39.35-2.43,0-4.4-2.74-5.13-2.71.74-3.25,2.64-2.82,5.52ZM299.73,405.96c-.97,2.48-.87,4.33,2.11,5.42,1.62-.77,3.53-1.32,3.63-3.74-1.23-2.08-2.9-2.64-5.73-1.68ZM418.27,365.62c-2.06-4.17-4.5-4.98-8.46-3.04,1.32,4.79,4.07,4.91,8.46,3.04ZM319.18,322.07c1.49-2.33,2.78-4.26-.28-6.37-4.32,2.59-4.32,2.94.28,6.37ZM276.31,339.76q-1.46-4.78-6.35-4.82c.65,3.86,2.04,5.93,6.35,4.82ZM262.56,331.46c1.19,3.6,2.64,5.49,6.33,2.41-1.26-3.28-3.11-4.13-6.33-2.41ZM354.94,297.45q-4.95-1.5-4.2,3.39c2.27.32,3.8-.36,4.2-3.39ZM443.71,278.23c-.99-2.86-2.18-3.95-4.75-2.69.05,3.26,1.37,4.12,4.75,2.69ZM416.05,322.96q1.61-2.35.06-4.45c-2.04,1.49-2.54,2.9-.06,4.45ZM354.08,229.61c-1.56-2.55-2.95-2.44-4.77-.52,1.51,2.67,2.91,2.46,4.77.52ZM424.39,362.17c-.68,1.29-.53,2.2.34,2.62,1.23.6,2.04-.04,2.38-1.3-.33-1.34-1.18-1.74-2.72-1.31ZM444.59,355.04c-1.97.95-3.39,1.05-2.82,3.24,1.99.78,3.19.56,2.82-3.24ZM258.07,365.8c1.92,1.48,3.22,1.81,4.77-.35-1.61-1.52-2.9-1.42-4.77.35Z" fill="#211f22" stroke-width="0"/><path d="M515.86,361.72v4.62c-1.57.9-2.91,1.66-4.57,2.61,1.95.69,4.38.11,5.76,2.74-.31,5.97-9.75,5.35-9.58,12.21.37,2.56,4.31,3.01,4.31,6.72-5.72,1.83-10.97-2.32-17.19-1.61,1.95,3,4.04,5.14,7.81,6.06,4.3-1.35,9.13-3.04,13.12,1.84.98,2.24,1.33,4.58.22,6.77-1.56,2.07-4.14.38-5.89,2.23-.49,2.83,1.08,6.59-2.65,8.96-4.93-.41-8.82-4.93-14.16-4.63-1.28,11.65,3.61,24.26-6.37,34.25-3.89-1.79-6.56-3.95-8.39-6.73-.19-2.41,1.93-3.28,2.5-5.55-1.22-2.57-2.37-5.66-1.59-8.88-1.54-2-2.89-3.75-4.22-5.48.63-2.8,1.88-5.1,3.15-7.17,3.01-1.32,6.84,1.1,8.79-3-6.09-3.88-13.92-4.03-20.13-8.63,1.61-2.94,5.92-3.02,5.71-6.52,10.24-1.25,14.96,6.1,19.84,12,3.47.04,4.82-2.28,7.08-3.13-2.41-4.84-6.95-6.72-10.39-9.47-.57-5.53,2.75-10.49.69-16.21,4.36-2.02,9.97-.41,12.97-5.4-5.33-2.55-10.9,2.38-16.24.34-1.13-3.79,2.88-4.33,3.96-7.27-.77-2.76-.4-6.06.05-8.87-.9-3.03-3.64-3.92-4.89-6.38-.22-1.93-.47-4.12-.73-6.39.63-2.48,4.97-2.53,4.03-6.76-6.4,2.38-11.49,6.44-16.34,10-.79,2.85,2.14,2.46,2.17,3.03.84,6.27-2.5,12.2,3.05,16.5.41,2.87-4.5,5.03-.53,7.41-1.83,2.8-3.73,3.6-7.17,2.93-2.33-8.12,1.74-17.07-1.33-25.38-.77-1.87-3.53-.91-4.31-3.37.92-2.98,4.64-5.17,3.5-9.93,11.67-.02,16.76-7.23,20.25-17.51-3.86.87-5.94,3.71-9.53,4.06-4.57-2.75-7.58-6.79-7.5-12.65-7.11.1-11.29-5.38-16.81-7.44-1.54-2.01-1.26-4.59-3.57-6.64-6.18-.44-8.47-5.15-9.6-10.91,2.19-3.16,4.79-4.2,7.6-3.06,2.52,1.47,2.47,3.8,3.72,5.66,4.36,1.11,6.9,5.24,10.43,6.74,2.2,2.16,1.04,4.27,1.08,6.07,1.84,1.35,4.25.54,5.64,2.1,1.94,1.21.43,3.46,1.34,4.7,2.09.83,3.68-1.35,4.67-.63,3.79,1.8,2.75,5.94,5.97,7.49,10.14,2.71,21.61,4.31,23.09,18.71-.49,3.42-1.95,7.07-.47,10.8-1.9,3.18-3.69,6.19-5.47,9.16.84,3.15,4.82,1.1,5.73,3.52,1.7,2.17-1.04,3.97.19,6.43,3.55-1.65,7.44-.89,11.3-.96l-.13-.12Z" fill="#da252a" stroke-width="0"/><path d="M460.07,212.48c1.75.13,3.51.26,5.31.4,1.27,2.72,2.47,5.27,3.6,7.7-5.46,8.36-12.86,10.32-22.51,6.13-1.76-3.77,3.86-4.65,3.14-8.01,3.29-2.41,6.68-4.64,10.46-6.22Z" fill="#da252a" stroke-width="0"/><path d="M297.19,204.24c3.04,2.68,6.76,1.04,10.45.95-.16,4.1-3.44,6.12-3.58,9.97-4.17-1.85-8.47.34-11.78-2-.92-3.87,3.9-4.91,2.88-8.26.68-.22,1.35-.44,2.03-.66Z" fill="#da252a" stroke-width="0"/><path d="M497.06,458.91c3.01,3.27,5.06,7.11,6.48,11.41-4.39-1.99-5.39-6.75-8.1-10.08.54-.44,1.08-.89,1.61-1.33Z" fill="#211f22" stroke-width="0"/><path d="M538.76,315.02c-4.23,3.7-9.66,3.88-14.87,4.7,4.44-3.09,9.54-4.24,14.87-4.7Z" fill="#211f22" stroke-width="0"/><path d="M533.23,433.4c2.97,1.76,5.65,3.79,7.84,8.41-4.59-2.01-6.76-4.71-8.87-7.49.34-.31.68-.61,1.03-.92Z" fill="#211f22" stroke-width="0"/><path d="M195.45,482.26c-.89-4.63,2.03-5.46,5.85-6.75-.71,4-2.49,5.82-5.85,6.75Z" fill="#211f22" stroke-width="0"/><path d="M532.2,434.32c-2.52-.92-4.07-2.91-6.98-5.74,4.47.76,6.18,2.88,8.01,4.83-.34.31-.68.61-1.03.92Z" fill="#211f22" stroke-width="0"/><path d="M507.47,306.87c1.47-.79,2.93-1.66,4.67-.86-.13,2.57-2.17,1.96-3.32,2.63-.45-.59-.9-1.18-1.35-1.77Z" fill="#211f22" stroke-width="0"/><path d="M150.68,413.4c-.37.1-.75.2-1.12.3-.59-.71-.04-1.08.43-1.47.23.39.46.78.69,1.16Z" fill="#da252a" stroke-width="0"/><path d="M535.17,403.13c.3.16.6.32.92.49-.44,1.01-1.02.63-1.61.18.23-.22.46-.45.7-.67Z" fill="#211f22" stroke-width="0"/><path d="M153.43,410.67c.44-.63.89-.63,1.33,0-.44.63-.89.63-1.33,0Z" fill="#211f22" stroke-width="0"/><path d="M150.68,413.4c-.23-.39-.46-.78-.69-1.16.57-.67,1.24-.92,2.05-.5-.03.88-.56,1.39-1.36,1.67Z" fill="#211f22" stroke-width="0"/><path d="M525.06,426.77c.36.44.72.88,1.08,1.32-1.12,1.29-1.59.49-2-.48.3-.29.61-.57.93-.84Z" fill="#211f22" stroke-width="0"/><path d="M198.41,406.49c1.57,2.08,3.28,3.31,5.9,3.4,2.01-6.02-3-11.44-.65-17.8,8.73-3.67,17.81-6.49,27.64-3.51.41,3.12-2.34,2.84-3.48,4.68.12,3.12.47,6.89-3.59,8.31-.46,3.29,3.4,3.16,3.53,5.62.11,2.49-3.95,4.24-1.06,7.52,6.27-2.82,11.67-7.07,17.19-11.02.46-2.59.17-4.99-.13-7.19.27-2.25,2.89-2.26,3.49-4.45-2.35-2.76-1.3-6.08-.43-10.09-14.83-.25-28.62,4.7-43.06,6.68-.96-5.34-1.49-10.1.1-14.71-.72-1.37-2.76-1.09-2.83-3.3.25-.42.73-1.14,1.15-1.9,1.84-3.32,3.73-6.62,5.47-10,2.27-4.42,4.35-9.16,10.13-9.69,8.86-.8,17.83-1.67,24.89,5.33-.25,2.91-3.2,1.97-4.22,3.61-.48,2.13-.95,4.26-1.35,6.02,2.85,4.36,7.04-2.18,10.36,2.75-7.38,3.1-15.23,2.01-22.62,3.88,5.15,6.15,19.08,7.47,37.41,4.02,2.38-.62,2.37-3.38,4.77-4.45,5.29-1.2,10.49.77,15.48,2.55,1.32,1.87,1.65,3.53.53,6-6.62,3.7-14.55-.19-22.28,2.2,1.88,2.05,4.82,2.73,5.04,5.75,4.41-2.32,8.02-4.68,12.36-3.18,2.26,4.09-.65,5.64-2.97,7.23-9.06,6.18-18.45,11.86-28.27,16.72-8.51,4.21-15.52,10.45-23.11,15.39-2.29,6.7-3.02,13.59-8.26,18.89,2.67,2.35,4.6,5.01,2.77,8.27.56,1.93,2.33,1.88,3.36,3.47-1.67,2.52.11,4.85,1.44,6.9-.71,2.89-1.47,5.21-4.28,5.43-2.76-.22-1.73-3.05-3.23-3.95-1.11.19-2.17.37-3.44.59-.8-1.86-1.49-3.46-2.13-4.93-1.6-.99-3.13-.74-4.67-.4-2.44.89-2.14,4.61-5.13,4.93-7.56-3.82-6.99-10.03,2.31-22.2-1.77-1.51-3.96,1.03-5.52-.49q-.2-3.75,1.31-7.47c.04-1.62-1.16-2.27-2.56-3.14-3.29,1.38-3.67,6.07-7.35,7.11-7-2.69-13.8-5.41-18.29-12.08-4.5-6.69-4.19-14.4-5.59-21.77,1.78-6.98,4.74-13.45,8.82-19.41-1.1-2.06-2.02-3.79-3.1-5.81,3.64-7.25-.95-16.9,7.23-22.54-.56-6.5.41-11.75,7.31-13.47,2.21.33,2.99,2.7,5.22,3.41,1.75.28,3.73.25,6.03-.84.98-4.68,4.65-8.11,7.25-12.2,1.48-1.74,3.83-1,5.59-1.97,1.85-1.48,1-4.41,3.51-6.03,3.75.66,8.08.76,9.66,6.77-5.64,4.44-12.23,7.37-18.29,9.63-1.18,3.97,3.37,3.44,2.99,6.36-2.28,2.95-6.17,1.38-9.09,2.77-1.67,1.27.56,2.99-1.11,5.04-.82.66-2.36,1.89-3.71,2.99-.11,3.24,3.77,1.44,4.11,3.94-.72,3.34-4.2,1.57-6.2,3.22.92,3.48,3.89,6.38,3.89,10.59-2.76,1.38-5.49,2.74-8.85,4.42,3.25,2.01,6.72.85,9.73,2.84,2.01,1.81,2.27,5.22,4.63,6.95-1.35,2.99-4.19,2.5-6.05,4.18,1.54,2.39,3.13,4.87,4.72,7.34.98,2.1-1.17,3.92-.36,6.3ZM182.85,397.43c-3.52-.48-5.33,1.26-7.83,2.54q5.28,1.62,7.83-2.54ZM211.14,373.09q5.01,3.03,7.52-1.9c-2.68.29-5.31.09-7.52,1.9ZM185.36,353.95c2.02-.51,3.8-1.38,4.25-3.99-2.24-.56-4.26-.75-5.95,1.02.19,1.21.54,2.19,1.71,2.96Z" fill="#da252a" stroke-width="0"/><path d="M440.85,417.24c4.62-1.02,7.49.92,9.23,3.71,7.77,12.45,17.87,23.56,22.01,38.14,1.96,6.9,3.78,13.55,2.56,21.02-.91,5.58.32,11.51.57,17.29.13,3.09.65,6.28-1.29,8.54-2.05,1.71-3.08-1.03-5.49.09,1.25,8.66-3.05,17.03-1.54,26.89-5.67-1.73-5.27-7.62-9.61-8.48-3.61,4.38-10.39,5.85-15.81,2.85-6.28-3.48-13.15-5.7-19.38-9.17-5.37-2.99-10.55-6.52-14.34-11.79.91-4.31,1.78-8.42,2.66-12.6-1.46-3.05-2.9-6.07-4.48-9.37.85-3.46,1.75-7.16-.09-10.05.68-3.14,3.57-2.85,4.35-4.54,1.64-2.37.5-5.06,1.75-7.85,2.5-2.47,5.02-5.59,5.79-10.29-.86-3.04-5.03-6.33-1-10.37,1.95-1.97,4.37,1.29,6.33-.64,1.72-1.65.05-4.5,2.13-6.19,3.63-2,8.46.03,11.6-3.8,8.15,3.69,14.43,9.11,20.6,15.86-.76-6.63-5.32-10.41-8.29-15.06-2.86-4.47-7.55-8-8.27-14.2Z" fill="#da252a" stroke-width="0"/><path d="M270.28,435.51c.41,2.69-1.57,4.53-2.41,6.77-.73,2.06,2.21,2.85,1.65,4.83-2.26,3.99-6.81,6.38-8.55,11.97,6.33.82,7.44-4.59,10.29-7.15,3.21-2.88,4.51-7.67,9.11-9.6,3.15,3.77,3.51,8.25,4.15,12.37,2.91,2.21,4.78.03,7.19-1.51,2.45,3.64,6.33,4.26,10.63,4.47-.51,3.66-.97,6.9-1.42,10.11-1.86,2.35-6.13,2.54-5.78,6.83,2.23,1.29,2.73-1.82,4.99-1.72,2.66.74,4.84,2.79,6.19,5.36.72,3.03-1.67,5.49-.56,8.12,1.73,2.36,4.79,1.1,6.92,2.83,1.49,3.78,1.95,7.95,2.05,11.95,2.36,1.95,4.57-1.02,6.27.19,2.35,1.3,3.1,3.04,3.01,5.69-1.24,2.66-4.03,4.8-4.8,7.49-15.15,8.19-28.6,18.64-46.39,20.58-.29-5.41-5.73-6.08-8.25-9.85-5.29,2.05-7.27,7.69-11.92,11.03-3.63-5.18-.31-10.05-.32-15.75-5.91-7.58-5.07-16.74-2.3-25.89-.89-1.53-1.65-2.85-2.26-3.91.06-2.9,1.13-5.14,2.14-7.37,1.05-2.33-.06-4.35-.74-6.4,1.2-2.56,2.34-4.98,3.51-7.47-.76-3.61-1.26-7.3-4.08-11.27,9.66-5.79,8.58-18.76,16.91-24.56,2.97-.75,3.42,1.46,4.85,1.94l-.09-.09ZM289.11,512.8c6.87,2.72,9.11,1.2,10.52-7.42-1.65,5.18-10.32-.01-10.52,7.42ZM305.42,512.26q3.47-4.15,3.49-8.2c-3.45,2.78-3.42,2.8-3.49,8.2Z" fill="#da252a" stroke-width="0"/><path d="M239.59,173.62c2.4.85,4.02,1.91,4.73,4.25-.64,1-1.34,2.08-2.26,3.5,3.51,3.7,2.61,10.31,8.71,12.42.1,4.6,1.82,8.24,5.74,11.44,1.82-9.05-5.34-14.43-7.26-21.74,7.96,1.96,9.25,10,13.61,13.77,1.52,3.26-.34,5.84,1.04,8.11.85,2.15,3.46,1.86,4.71,3.11.23,3.36-4.77,4.27-2.89,8.09,1.63,2.19,4.15-1.16,6.06.59,2.3,2.49,3.54,5.56,4.58,8.83-3.63,6.19-7.74,1.41-12.04.49-1.19,2.13-2.43,4.35-3.83,6.87,1.52,2.79,1.64,6.15,2.89,10,5.11-3.98,10.88-3.82,15.6-3.77,2.86-2.23,2.08-4.93,3.6-7,1.65-1.58,4.05-2.01,5.9-2.64,3.21.79,4.19,2.47,3.61,5.53-6.15,3.08-9.89,9.86-16.91,12.23-1.68.55-2.79-1.36-4.61-.98-2.02,1.49-4.13,3.11-5.31,5.01-1.07,2.76,1.5,4.65.39,7.42-2.89,1.26-6.48,2.36-7.16,6.28-3.24-.44-1.56-3.19-2.79-4.25-1.18-.57-2.23-.57-3.39.3-1.26,3.32,1.42,5.68,2.63,8.77-2.45,4.67-8.88,4.78-10.91,9.16-2.7,1.02-3.16-2.15-5.14-1.75-1.5,1.32-.75,3.45-2.35,5.74-7.2,2.08-8.42,10.23-11.97,15.63-3.1.65-4.76-.34-6.34-1.93-.99-4.93.26-9.17,4.28-12.82,1.93-.46,4.08-.96,6.68-1.58.78-5.92,2.51-11.6,4.55-15.41,2.83-4.7,8.56-2.67,9.68-7.66-3.07-3.14-7.89.3-10.84-3.12-5.76-12.67-9.48-25.74-6.32-38.7,2.06-3.07,4.88-1.27,6.03-3.42q-2.07-3.51-6.11-6.2c-2.17,1.97-4.72,3.56-7.75,2.57-2.16,4.26,2.27,8.5-1.2,12.22-2.32,1.86-6.65,1.58-7.07,6.34-6.86-8.95-5.23-18.61-3.73-27.99,2.98-2.13,3.4,1.94,5.82,1.45,2.39-1.57,4.52-3.75,5.97-7.41-3.43-6.29-1.29-12.49,2.09-18.67,4.9-2.03,5.88,3.82,9.86,4.95,3.02-2.57,6.3-5.37,9.41-8.03Z" fill="#da252a" stroke-width="0"/><path d="M332.32,405.22c-6.26-2.19-11.82,1.41-17.05-.68-5.23-2.09-8.85-6.77-14.23-8.58-2.19-.65-4.28,1.23-7.03.07-2.84-1.98-2.89-4.56-.35-7.84,5.11,2.07,10.44,2.6,15.56,3.02,4.58,2.05,7.82,8.11,15.61,3.35-9.2-2.9-16.14-7.33-22.27-11.87-3.07-.75-5.41,1.58-8.34-.4-1.8-2.46-1.67-5.19,1.36-8.56,8.12-.57,13.08,11.08,21.82,7.06,2.76.65,2.87,3.49,5.14,4.03,1.52-.08,2.98-.42,3.63-2.7-7.13-4.64-13.25-10.81-22.37-14.35,4.53-3.8,7.79-2.01,10.87-1.55,3.05.46,6.05,1.28,9.95,2.13-2.76-4.86-9.08-5.53-9.3-11.42-3.73.26-6.23-1.32-7.61-4.09-2.57.16-1.85,2.6-2.92,3.35-3,.85-4.98-.42-7.12-2.66-1.3-1.25.2-3.61-1.63-6.28-3.54-3.07-8-6.78-12.28-10.69-4.62-4.21-8.04-9.03-6.8-15.81.43-2.34,1.39-4.29,3.85-5,2.75-.8,4.84.35,6.35,2.57,1,1.47,1.78,3.09,2.59,4.69,3.45,6.79,8.78,11.54,15.31,15.45,7.55,4.53,15,5.09,21.7,1.57,3.71.3,4.54,3.04,6.74,3.67,2.99.91,5.69-3.2,9.15-.27-3.28,7.73-2.68,15.86-1.99,23.91,2.16,2.38,4.08,4.55,6.07,6.66,1.98,2.11,1.51,5.08,2.56,7.23,3.56,3.99,8.41,4.34,13.4,5.61,2.42,5.22,4.42,10.87,7.72,15.51-2.03,5.51-6.73,7.14-10.4,10.04-7.51-.75-14.2,3.17-21.55,3.68-7.55.52-15.07,2.28-22.63.54-2.71-.62-5.85-.72-7.67-3.78.62-4.52,4.06-4.64,7.46-4.5,2.87.12,5.71.61,8.57.88,2.85.26,5.21-.76,8.11-4Z" fill="#da252a" stroke-width="0"/><path d="M500.06,199.01c4.78-.06,6.15-5.48,9.79-6.69,2.11.6,2.41,1.89,2.43,3.28.21,15.17-3.92,28.63-15.47,39.17-6.41,5.85-9.83,13.79-14.35,20.94-4.95,7.84-11.08,13.98-20.88,16.91-9.32-1.4-17.65-8.19-27.76-7.94-1.69-4.81-4.91-7.77-5.79-12.01-2.3.15-4.37,2.6-7.21.57-.12-4.98,1.42-10.33-1.26-15.16.8-2.87,4.8-5.21.94-8.6-2.42-.52-2.05,3.32-4.67,3.55-8.17-5.86-13.35-15.14-22.36-20.11-2.24-1.2-5.37.73-6.84-2.09-2.48.41-2.93,2.63-4.78,3.5-2.4.16-5.03.33-7.62.5-3.68-2.62-3.37-8.15-6.98-9.52-2.62-1.51-4.2.23-6.29.03-1.87-1.33-4.49-2.19-5.65-4.28.26-1.86,1.03-2.81,2.15-2.99,12.64-2.04,24.93-2.29,34.81,7.85,2.11,2.17,4.36,4,7.51,3.78,7.06-.48,11.32,3.05,13.64,9.42,4.19-.05,7.37,2.03,10.15,4.57,1.87,1.71,3.9,2.85,6.18,3.85,6.4,2.82,8.34,8.72,4.81,14.84-1.51,2.62-3.26,5.07-4.83,9.53,10.62-5.91,19.94-10.96,28.55-17.24,8.68-6.34,16.51-13.6,24.08-21.25,7.44-7.52,12.06-17.02,18.54-26.12,3.01,5.14-2.05,8.1-.78,11.79-.21.15-.43.3-.3.21-.1.12.07-.08.24-.28ZM497.38,201.63c-16.06,23.7-36.02,42.81-61.4,56.43,5.19,1.59,9.54-2.68,14.81-1.32,3.92-6.24,11.01-4.46,16.32-5.92,1.31-2.74-.21-5.28,2.41-7.76,5.15-.49,10.57-2.46,14.31-7.53-.72-1.16-1.5-2.31-.17-3.82,1.94-1.85,5.27-1.92,7.2-4.36.79-1.86-.73-4,.06-6.37,1.92-1.52,3.83-3.05,6.08-4.83-.89-4.85,2.16-8.16,5.16-11.16-1.07-1.95-2.46-2.6-4.77-3.36Z" fill="#da252a" stroke-width="0"/><path d="M423.12,351.42c-.99,1.78,1.1,3.3-.49,4.94-1.81,2.2-3.94-.34-6.36-.07-2.11,2.23-4.42,4.73-8.37,4.03-1.5,4.71,1.57,7.4,3.55,10.25-.21,4.77-6.93,4.28-7.04,10.26,8.38-5.79,17.58-7.37,27.29-11.98,1.32-2.65,4.36-3.96,8.98-.68-1.87,3.71-4.33,5.71-8.54,4.93-1.2,1.55-1.41,3.8-3.37,4.89-6.22-.01-18.73,7.24-20.94,12.61,4.88-.89,8.23-5.05,13.04-4.88,4.35.16,8.62-2.5,13.01-.71q.11,6.54-10.71,6.83c-3.61,2.43-7.48,5.03-11.35,7.64,7.23-1.01,14.73.56,21.28-3.01,3.15,1.78,3.02,3.9,1.41,6.44-3.59,2.25-8.86,1.24-12.01,5.72,2.18,1.85,5.77,2.05,6.33,5.33-8.58,10.61-40.37,5.15-53.2-9.43.78-6.82,9.96-8.66,9.86-15.37,3.36-2.54,7.19-2.23,9.65-4.76,4.88-9.9,6.9-20.41,6.2-32.43-.85-.94-2.47-2.74-4.06-4.51-.42-4.86,2.46-5.8,6.25-5.81,5.36-.02,10.72.25,16.05-.74,8.49-1.58,14.8-5.93,18.56-13.83,1.06-2.22,2.27-4.36,3.46-6.52,1.51-2.74,3.85-3.8,6.76-2.66,3,1.18,4.17,4.03,2.89,6.61-3.7,7.48-4.73,17.03-15.03,19.69-5,1.29-8.09,6.35-13.12,7.2Z" fill="#da252a" stroke-width="0"/><path d="M399.07,482.61c3.77,8.79,5.38,17.51,3.55,25.49-8.29,16.12-21.7,17.11-36.09,15.07-4.05-.58-7.34,1.04-10.35,2.14-2.9-.49-2.83-3.33-5.31-4.46-12.54.69-15.87-10.06-21.26-19.21,1.64-3.9-1.8-8.24-.12-12.6,2.56-1.9,4.85.41,7.82.02,2.88-2.18,5.74-5.58,10.34-5.78,1.28-1.7,2.46-3.27,3.6-4.79,3.68-.77,7.1-1.97,10.72-.93,2.37.61,2.87,3.44,5.56,4.44,4.59-1.75,9.61-3.85,15.65-1.57,1.45,1.05,3.44,2.49,5.66,4.1,3.26.12,6.66.28,10.23-1.91ZM350.45,488.77q1.08,4.14,5.14,2.86c-.61-2.39-2.3-3.02-5.14-2.86ZM370.52,495.82c1.84-.45,2.95-.75,2.01-2.65-1.74-.66-2.39-.02-2.01,2.65Z" fill="#da252a" stroke-width="0"/><path d="M354.12,260.05c-5.66,2.67-7.24-3.54-10.72-5.19-2.43-1.5-5.1-.17-7.88-1.49.2-6.26,7.46-6.04,9.25-10.41,3.61.36,5.96,3.07,8.96,2.62,2.87,3.02,5.46,5.76,7.98,8.41,4.24-.31,4.7-4.82,8.01-6.37,5.01-.64,10.34-.47,15.31.12,2.62-1.03,3.33-2.66,2.63-5.38-3.92-2.33-7.78-5.73-13.05-5.02-3.27.44-6.68.6-9.7,2.41-2.58,1.54-5.08,1.56-6.78-1.41-.09-2.4,1.63-3.57,3.28-3.76,11.01-1.28,22.75-6.02,31.28,5.92,2.31,3.23,6.27,3.06,9.37,4.23,1.56,3.36-.02,4.8-1.5,5.27-3.56.93-4.5-1.79-6.47-2.01-3.04,9.01-11.86,12.19-20.19,7.24-2.6,3.03.11,7.8-3.59,10.23,4.14,4.62,1.22,12.02,8.14,15.38-3.86,5.33-1.86,13.98-10.35,15.19-4.46-1.04-5.76-6.57-10.02-4.49-2.91-3.44-.79-6.23-.58-9.47-6.27-6.19-.54-14.41-3.4-22.01ZM363.61,264.4c-3.05,1.14-4.17,3.32-2.74,5.81,2.92,5.07,1.17,13.3,9.89,15.07.85-4.57-1.49-8.53-.51-13.35-4.56-.45-4.52-4.84-6.64-7.52Z" fill="#da252a" stroke-width="0"/><path d="M330.6,482.99c-5.44,2.75-9.56,1.05-13.7-2.14-1.09-2.69-2.26-5.56-3.31-8.15-1.62-1.49-3.87-.38-5.21-2.19-1-3.8,2.9-6.85,1.99-11.15-.96-2.51-3.37-3.89-6.14-4.69-.6-3.41,1.82-5.51,2.88-8.07.53-5.18-4.4-7.47-6.22-11.61.83-4.62,3.18-7.02,8.03-6.02,2.57,2.75,1.02,6.32,2.7,9.31,3.15-.76,1.97-4.74,4.79-6.22,2.86.52,4.4,2.94,5.55,5.58,2.43,5.57,5.78,10.5,9.58,15.21,4.52,5.6,6.21,11.56,2.66,18.58-1.78,3.51-2.41,7.6-3.61,11.57Z" fill="#da252a" stroke-width="0"/><path d="M285.16,297.08c-4.05,1.36-8.28,1.39-12.48,1.83-7.91.82-16.1.73-23.1,5.56-1.07.74-2.54.89-4.22-.44.09-4.17,3.38-4.83,6.62-5.42,3.55-.65,7.04-1.27,7.79-5.9-2.91-1.71-5.91-.9-8.52-1.58-5.17,2.83-9.07,6.61-11.61,12.03.21,1.4,3.05.55,2.73,3.76-11.12-1.03-15.6,10.14-24.44,14.53-3.92-2.93-2.56-5.56-.13-7.9,4.47-4.3,10.31-6.87,14.68-11.83q3.04-11.42,11.88-20.61c4.33.72,8.59,3.6,13.53,1.91,2.46-1.88,2.31-5.09,3.44-7.58,8.3-4.29,17.12-.36,25.57-2.01,1.81.65,2.9,1.9,3.09,4.6-8.61,5.3-19.44,6.11-28.74,11.53,6.51,2.45,11.94,6.3,18.9,4.09,2.32-.74,4.19,1.07,4.9,3.56l.11-.11Z" fill="#da252a" stroke-width="0"/><path d="M242.59,343.75c-.16,2.19,3.33,1.81,2.56,4.75-7.63-.38-15.07-2.29-23.73-3.5,4.26-6.23,4.44-12.76,5.65-19.04,1.08-5.6,4.34-9.23,9.95-10.43,5.43-1.17,10.89-2.19,15.58-3.93,4.78,1.07,6.46,4.79,9.36,7.42-1.07,3.16-2.29,6.09-4.67,7.8-.67,2.02.95,3.44-.02,5.31-2.69,1.65-6.98,2.24-6.16,6.75-2.11,1.84-4.25.6-6.13,1.13-1.21,1.07-2.12,2.29-2.39,3.76Z" fill="#da252a" stroke-width="0"/><path d="M285.05,297.19c3.98-1.38,7.4-4.21,11.96-4.25.81-2.25-2.24-3.59-.79-5.9,2.29-2.45,4.98-1.43,7.62-.14,1.83,1.38,1.04,3.94,2.51,5.76,8.89,3.07,19.2.68,27.76,7.53.43,6.72,4.8,12.76,8.31,19.19,2.62,4.8,4.41,9.74.9,15.22-3.41-.65-3.95-3.49-5.04-5.79-2.48-5.22-4.24-10.81-8.15-15.28-2.72-3.11-5.73-5.7-10.09-5.89-11.1-.48-22.09-3.06-32.91-1.59-4.71-2.44-2.65-5.83-1.96-8.97l-.11.11Z" fill="#da252a" stroke-width="0"/><path d="M438.96,306.66c-6.97,4.57-14.44,3.71-21.72,3.24-16.47-1.07-17.74-.58-26.95,12.98-1.78-3.48-.02-8.69,5.19-18.28,3.48-6.42,9.24-9.39,16.18-12.06,3.51,1.59,7.68,1.86,12.29,1.13,7.03-1.12,14.68,5.72,15.01,13Z" fill="#da252a" stroke-width="0"/><path d="M324.99,252.06q-4.02-3.07-9.98-.16c-1.56,3.1-3.27,6.48-4.83,9.56-1.74,1.99-3.66.22-5.53.93-4.08,2.92-8.05,7.64-14.05,4.35-2.92-1.6-5.32-4.26-3.7-8.54,3.71-2.58,7.39-1.81,11.28.68,3.77-4.78,8.84-8.18,12.42-13.4,16.97-6.63,20.77,7.97,27.81,17.12-.58,2.7-2.15,3.66-4.45,3.77-2.33-.35-3.83-2.06-5.28-3.48-2.59-.38-2.57,3.44-5.66,2.54-3.69-4.6-.07-8.76,1.95-13.38Z" fill="#da252a" stroke-width="0"/><path d="M276,347.8v-4.2c3.66-1.6,5.69.43,7.31,2.65.47,2.84-2.39,2.66-3.03,4.11,3.08,3.61,5.45-.19,8.26-.26,3.44.99,5.89,3.54,8.21,6.32.57,2.4.81,4.78-.28,8.17-14.16-3.1-26.87-11.04-40.98-11.65-.98-3.56,2.4-3.24,2.47-4.86-.8-2.65-4.89-2.67-3.79-6.15,5.67-3.76,12.31-.52,15.57,7.69,1.96-.43,3.9-.86,5.85-1.29.57.85,1.16,1.49,2.18.17-.7-.27-1.24-.48-1.78-.7Z" fill="#da252a" stroke-width="0"/><path d="M342.1,211.29c-2.96-.36-2.99-3.42-4.77-4.43-2.06-1.38-4.04.37-5.98-.21-1.78-.67-1.36-2.7-2.36-3.84-1.67-1.75-4.55.26-6.06-1.96-.44-1.52.12-3.18,1.55-3.04,7.8.75,14.55-3.79,22.09-4.11.87-.04,1.75.13,2.46.19,3.67,4.74,3.77,5.39,1.9,12.34-1.42,1.66-2.88-.27-4.32.06-1.13.52-1.4,1.65-1.91,2.61-.52.99-1.02,2-2.61,2.39Z" fill="#da252a" stroke-width="0"/><path d="M382.28,374.42c-2.54,1.74-3,4.23-3.91,7.15-2.52-1.58-4.65-.02-6.7,1.26-2.3-4.46-2.2-9.93-9-11.85-1.37-.47-3.63,2.99-6.35.97,8.14-7,29.79-6.22,35.98,1.36-3.16,1.56-6.64-.27-10.01,1.1Z" fill="#eef0f1" stroke-width="0"/><path d="M216.43,303.97c-3.73,5.17-9.57,8.03-11.58,13.88-1.83.57-3.3,1.03-5.14,1.61-2.15,4.2-6.01,7.08-10.25,10.29-4.09-5.36,2.5-8.13,1.65-12.55,9.75-2.15,10.93-13.33,18.9-17.02,2.98-.3,4.91.85,6.41,3.78Z" fill="#da252a" stroke-width="0"/><path d="M349.26,236.97c-.41.64-.78,1.46-1.36,2.07-.6.62-1.41,1.02-2.39,1.7-6.51-3.54-13.9-4.13-21.05-6.07-2.31-2.22-2.81-4.78-1.13-8.06,4.27-.23,8.62-.46,13.3-.71,2.69,5.3,10.84,4.16,12.64,11.07Z" fill="#da252a" stroke-width="0"/><path d="M397.47,445.86c7.19,11.07,1.41,22.36,1.71,33.59-9.7-4.58-10.84-25.57-1.71-33.59Z" fill="#da252a" stroke-width="0"/><path d="M378.46,447.07c-3.83-.39-7.33-.93-10.86-1.06-3.54-.13-7.12.44-10.54-1.08-2-3.32-.66-5.33,2.4-6.97,5.73-3.07,11.67-2.89,19.88.85,1.63,2.7,1.71,5.34-.89,8.25Z" fill="#da252a" stroke-width="0"/><path d="M270.38,435.59c-.54-10.16,6.68-19.62,15.22-19.59,1.57,3.35.34,7.31,2.05,10.29-1.01,3.18-2.64,5.1-5.43,5.68-1.69-.13-1.99-1.88-3.61-2.5-2.2,2.63-3.71,6.63-8.33,6.04l.09.09Z" fill="#da252a" stroke-width="0"/><path d="M245.94,429.17c8.29-10.9,19.57-17.27,31.29-23.05,2.21,3.15.26,4.57-1.16,5.72-9.14,7.32-18.89,13.62-30.13,17.34Z" fill="#da252a" stroke-width="0"/><path d="M394.38,262.89c-1.34,2.78,1.41,4.36.19,6.85-3.17,1.59-6.64,2.37-10.95.26,2.16-6.09,6.11-10.63,10.52-16.11,4.69,4.43,13.07,2.31,14.7,11.05-5.65,1.91-9.43-4.64-14.45-2.04Z" fill="#da252a" stroke-width="0"/><path d="M365.05,316.62c.89-3.11-1.32-5.07-1.47-7.95,2.09-2.68,3.66-6.01,4.03-10.2,5.3,1.52,6.09,5.63,7.14,8.86-.4,3.18-2.99,2.43-4.49,4.11-.06,5.76-2.92,10.94-6.2,15.93-2.51.86-4.39-.09-6.09-1.65q.45-4.85,7.09-9.1Z" fill="#da252a" stroke-width="0"/><path d="M296.53,314.47c2.49,7.81,4.25,14.81,11.28,18.41,6.68,3.43,13.35,4.36,20.84.04-3.18,6.03-11.4,7.27-19.59,4-9.63-3.84-17.72-13.54-12.52-22.45Z" fill="#eef0f1" stroke-width="0"/><path d="M434.26,321.44c-2.81,7.99-7.71,14.14-16.25,16.48-8.16,2.24-14.51.36-18.39-4.85,1.19-1.94,2.48-.89,3.91-.25,10.79,4.88,16.13,3.66,24.08-5.22,2.01-2.24,3.51-5.03,6.65-6.17Z" fill="#eef0f1" stroke-width="0"/><path d="M343.95,264.76c4.9,2.68,5.25,6.15,3.09,18.38q3.8,9.22-.47,12.37c-1.31-2.75-2.55-5.44-4.67-7.74-2.43-2.64-2.1-6.1-.34-9.38,2.08-3.88,4.31-7.8,2.39-13.63Z" fill="#da252a" stroke-width="0"/><path d="M365.7,333.42c.43-1.77.92-3.49,3.33-3.55,1.93.55,2.65,2.01,2.69,4.17-1.81,2.3-6.19,1.31-7.09,5.08-.51,3.09,2.36,6.22.14,9.41-2.87.85-3.05-2.01-4.47-3.1l.08.08c-2.62-4.09-5.24-8.19-7.86-12.28,4.83.38,9.02.45,13.23.14.13.21.27.42.08.13.29.19.08.05-.13-.08Z" fill="#da252a" stroke-width="0"/><path d="M221.2,227.87c1.17,2.94,1.51,5.1,1.5,7.78-1.99,2.36-2.3,5.61-2.27,8.94-2.22,1.64-5.15,1.55-6.63,3.67-2.67-1.01-2.75-3.12-3.57-5.33,5.9-3.25,2.76-12.9,10.97-15.05Z" fill="#da252a" stroke-width="0"/><path d="M260.22,356.9c10.25,1.18,19.86,4.04,28.66,10.57-4.33,3.89-8.22.33-12.11,1.14-3.97-6.19-12.26-5.65-16.55-11.71Z" fill="#da252a" stroke-width="0"/><path d="M462.31,406.46c-1.28,2.32-2.35,4.25-3.41,6.17-2.24,1.67-5.19,1.39-6.82,3.02-3.13-.48-4.67-1.72-4.23-4.58.44-2.43,3.39-2.02,4.17-3.68,1.84-1.86.43-4.69,2.78-6.52,4.05-.93,5.32,2.5,7.52,5.59Z" fill="#da252a" stroke-width="0"/><path d="M315.04,279.87q4.22-7.9,8.13-9.14c1.81,3.71,5.26,6.73,4.98,11.36-6.42,4.76-8.33,4.44-13.11-2.22Z" fill="#da252a" stroke-width="0"/><path d="M498.24,431.22c-1.47-5.8,2.03-10.71,9.05-12.86,3.11,2.56,2.99,5.92,1.26,8.95-2.25,3.92-6.1,4.74-10.31,3.92Z" fill="#da252a" stroke-width="0"/><path d="M357.22,420.34c8.89,2.61,18-.75,26.89,2.32-9.05,2.35-18.05,1.83-27.05.44.05-.92.11-1.84.16-2.76Z" fill="#eef0f1" stroke-width="0"/><path d="M352.68,466c-4.01,1.41-5.96-.07-6.39-2.75-.76-4.68-.32-9.24,4.13-12.85,3.68,5.01,1.89,10.34,2.26,15.6Z" fill="#eef0f1" stroke-width="0"/><path d="M395.73,274.64c3.12,3.58.77,6.75.24,9.8-2.34,1.92-4.59,3.16-6.86,3.88-2.76-.96-3.01-2.76-2.51-4.69.96-2.48,3.72-1.58,5-3.17,1.68-1.48,1.1-4.36,4.13-5.83Z" fill="#da252a" stroke-width="0"/><path d="M383.4,450.8q2.82,5.91,2.49,12.6c-1.86,2.63-4.07,4.37-7.76,2.1-.48-5.35,3.88-8.62,5.26-14.7Z" fill="#eef0f1" stroke-width="0"/><path d="M378.7,324.37c3.59.56,6.53,1.79,9.56,1.08,2.12,3.03.94,5.21-1,7.24-6.57-.81-8.06-2.15-8.56-8.32Z" fill="#da252a" stroke-width="0"/><path d="M409.91,277.31c.8-3.28,1.56-6.39,2.45-10.06,5.61,2.38,4.82,6.95,5.83,10.71-3.03,1.61-5.29,1.51-8.28-.64Z" fill="#da252a" stroke-width="0"/><path d="M363.94,416.52c6.28-5.8,14.64-5.61,19.12.46-6.76,2.23-12.88-1.92-19.12-.46Z" fill="#da252a" stroke-width="0"/><path d="M467.53,385.39c2.81-3.07,7.43-.49,9.52-4.1,2.03.66,3.12,1.6,3.28,3.82-3.94,4.84-8.47.6-12.8.28Z" fill="#da252a" stroke-width="0"/><path d="M452.98,361.69c1.65.14,3.51-.93,4.9.82-1.65,5.17-5.41,7.81-10.75,7.42-1.25-5.09,4.78-5.02,5.96-8.33l-.1.08Z" fill="#da252a" stroke-width="0"/><path d="M358.28,461.73c5.15-3.22,10.25-2.02,15.34.44-5.12.72-10.24,1.1-15.34-.44Z" fill="#eef0f1" stroke-width="0"/><path d="M388.13,432.4c-.04-4.16.26-7.16,1.41-10.01,1.53-1.71,3.2-2.33,5.57-.85.43,4.79-1.56,8.15-6.97,10.86Z" fill="#eef0f1" stroke-width="0"/><path d="M349.52,430.73c-4.29-3.2-3.67-6.82-3.56-10.27,1.72-1.86,3.58-1.43,5.63-.72,1.24,3.88.08,7.2-2.07,10.98Z" fill="#eef0f1" stroke-width="0"/><path d="M459.34,343.93c.72,6.78-4.98,4.83-7.8,8.01.09-6.81,1.43-8.03,7.8-8.01Z" fill="#da252a" stroke-width="0"/><path d="M463.41,332.61c-2.64-2.68-2.08-4.64.27-6.46,2.34-.43,3.85.63,4.98,2.61-.14,3.25-2.26,3.87-5.25,3.85Z" fill="#da252a" stroke-width="0"/><path d="M453.08,361.6c-1.57-.58-3.59.52-5.12-1.66.82-4.55,4.29-4.62,7.75-5.04,1.41,3.83-2.55,4.37-2.73,6.78l.1-.08Z" fill="#da252a" stroke-width="0"/><path d="M418.77,290.81c-.43-2.88.11-4.78,2.82-5.52,2.73.72,3.09,2.7,2.74,5.13-1.61,1.79-3.38,1.55-5.56.39Z" fill="#da252a" stroke-width="0"/><path d="M299.73,405.96c2.83-.96,4.5-.4,5.73,1.68-.09,2.42-2.01,2.96-3.63,3.74-2.97-1.09-3.08-2.94-2.11-5.42Z" fill="#da252a" stroke-width="0"/><path d="M418.27,365.62c-4.39,1.87-7.14,1.75-8.46-3.04,3.97-1.95,6.4-1.13,8.46,3.04Z" fill="#da252a" stroke-width="0"/><path d="M319.18,322.07c-4.61-3.43-4.6-3.78-.28-6.37,3.07,2.11,1.78,4.05.28,6.37Z" fill="#eef0f1" stroke-width="0"/><path d="M276.31,339.76c-4.31,1.1-5.7-.97-6.35-4.82q4.89.04,6.35,4.82Z" fill="#da252a" stroke-width="0"/><path d="M262.56,331.46c3.22-1.72,5.07-.87,6.33,2.41-3.68,3.08-5.14,1.19-6.33-2.41Z" fill="#da252a" stroke-width="0"/><path d="M354.94,297.45c-.4,3.03-1.93,3.7-4.2,3.39q-.75-4.89,4.2-3.39Z" fill="#da252a" stroke-width="0"/><path d="M443.71,278.23c-3.38,1.44-4.7.58-4.75-2.69,2.57-1.26,3.76-.17,4.75,2.69Z" fill="#da252a" stroke-width="0"/><path d="M360.29,345.45c.18,1.34.31,2.66-1.09,3.72-2.65.42-3.97-.72-3.88-3.54,1.73-1.64,3.41.35,5.06-.1l-.08-.08Z" fill="#da252a" stroke-width="0"/><path d="M416.05,322.96c-2.48-1.55-1.98-2.97.06-4.45q1.55,2.1-.06,4.45Z" fill="#eef0f1" stroke-width="0"/><path d="M354.08,229.61c-1.86,1.94-3.26,2.14-4.77-.52,1.82-1.92,3.22-2.02,4.77.52Z" fill="#da252a" stroke-width="0"/><path d="M424.39,362.17c1.55-.43,2.39-.03,2.72,1.31-.34,1.27-1.16,1.9-2.38,1.3-.86-.42-1.01-1.32-.34-2.62Z" fill="#da252a" stroke-width="0"/><path d="M444.59,355.04c.37,3.8-.82,4.02-2.82,3.24-.57-2.19.85-2.29,2.82-3.24Z" fill="#da252a" stroke-width="0"/><path d="M258.07,365.8c1.87-1.77,3.17-1.87,4.77-.35-1.56,2.16-2.86,1.83-4.77.35Z" fill="#da252a" stroke-width="0"/><path d="M182.85,397.43q-2.56,4.16-7.83,2.54c2.5-1.27,4.31-3.02,7.83-2.54Z" fill="#211f22" stroke-width="0"/><path d="M211.14,373.09c2.21-1.81,4.84-1.62,7.52-1.9q-2.51,4.94-7.52,1.9Z" fill="#211f22" stroke-width="0"/><path d="M185.36,353.95c-1.17-.78-1.52-1.76-1.71-2.96,1.69-1.77,3.71-1.58,5.95-1.02-.44,2.61-2.23,3.47-4.25,3.99Z" fill="#211f22" stroke-width="0"/><path d="M289.11,512.8c.21-7.43,8.87-2.24,10.52-7.42-1.42,8.63-3.66,10.14-10.52,7.42Z" fill="#211f22" stroke-width="0"/><path d="M305.42,512.26c.06-5.4.04-5.42,3.49-8.2q-.01,4.05-3.49,8.2Z" fill="#211f22" stroke-width="0"/><path d="M497.38,201.63c2.31.76,3.7,1.41,4.77,3.36-3,3-6.04,6.31-5.16,11.16-2.24,1.79-4.16,3.31-6.08,4.83-.79,2.37.73,4.51-.06,6.37-1.93,2.43-5.26,2.5-7.2,4.36-1.33,1.52-.55,2.67.17,3.83-3.74,5.06-9.16,7.03-14.31,7.52-2.62,2.48-1.1,5.02-2.41,7.76-5.3,1.45-12.4-.32-16.32,5.92-5.28-1.36-9.63,2.9-14.81,1.32,25.38-13.62,45.35-32.73,61.4-56.43Z" fill="#211f22" stroke-width="0"/><path d="M500.06,199.01c-.17.2-.34.4-.24.28-.13.09.09-.06.3-.21,0,0-.07-.07-.07-.07Z" fill="#211f22" stroke-width="0"/><path d="M350.45,488.77c2.85-.16,4.53.47,5.14,2.86q-4.06,1.28-5.14-2.86Z" fill="#211f22" stroke-width="0"/><path d="M370.52,495.82c-.37-2.67.27-3.31,2.01-2.65.94,1.9-.18,2.2-2.01,2.65Z" fill="#211f22" stroke-width="0"/><path d="M363.61,264.4c2.12,2.68,2.08,7.07,6.64,7.52-.97,4.82,1.36,8.79.51,13.35-8.72-1.77-6.97-9.99-9.89-15.07-1.43-2.48-.31-4.67,2.74-5.81Z" fill="#211f22" stroke-width="0"/><path d="M276,347.8c.54.21,1.08.42,1.78.7-1.03,1.32-1.62.67-2.18-.17l.41-.52Z" fill="#211f22" stroke-width="0"/><path d="M365.7,333.42c.21.14.42.28.13.08.19.29.05.08-.08-.13,0,0-.04.04-.04.04Z" fill="#211f22" stroke-width="0"/></g></svg>