<?xml version="1.0" encoding="UTF-8"?>
<svg id="Layer_2" data-name="Layer 2" xmlns="http://www.w3.org/2000/svg" viewBox="0 0 506.04 643.79">
  <defs>
    <style>
      .cls-1 {
        fill: #7a3140;
      }

      .cls-2 {
        fill: #fcfbfb;
      }
    </style>
  </defs>
  <g id="Layer_1-2" data-name="Layer 1">
    <g>
      <path class="cls-1" d="M.14,187.71c0-46.02,.09-92.04-.11-138.06-.03-5.75,1.1-8.76,7.3-10.6C74.37,19.2,142.29,4.46,212.37,.97c83.22-4.14,164.96,4.96,245.28,27,14.03,3.85,27.95,8.07,41.98,11.91,3.69,1.01,5.48,2.37,5.47,6.72-.24,91.76,2.94,183.66-1.19,275.24-5.79,128.44-68.51,224.76-178.68,290.31-20.98,12.48-43.28,22.21-66.29,30.37-4.19,1.49-7.91,1.8-12.14,.28-90.82-32.55-162.2-88.4-207.88-174.61C13.29,419.8,.86,367.81,.24,313.14c-.47-41.81-.09-83.62-.09-125.43Zm18.51,6.19c0,39.01,.04,78.02-.02,117.03-.03,20.26,1.87,40.37,6.05,60.14,24.62,116.33,93.98,195.87,201.27,243.82,26.38,11.79,26.89,12.03,53.23-.13,127.81-59.02,200.24-157.83,206.53-299.56,3.75-84.59,.7-169.48,.85-254.23,0-4.44-1.42-6.17-5.7-7.48-63.22-19.31-127.71-31.39-193.78-34.43C198.34,14.98,111.69,27.35,26.68,52.63c-5.96,1.77-8.27,4.12-8.22,10.77,.36,43.5,.19,87,.19,130.5Z"/>
      <path class="cls-2" d="M18.65,193.9c0-43.5,.17-87-.19-130.5-.05-6.65,2.26-9,8.22-10.77C111.69,27.35,198.34,14.98,287.09,19.07c66.07,3.04,130.57,15.12,193.78,34.43,4.28,1.31,5.71,3.04,5.7,7.48-.15,84.75,2.91,169.64-.85,254.23-6.29,141.73-78.72,240.54-206.53,299.56-26.34,12.16-26.85,11.92-53.23,.13-107.29-47.95-176.65-127.49-201.27-243.82-4.19-19.78-6.09-39.88-6.05-60.14,.06-39.01,.02-78.02,.02-117.03Zm449.58,10.99c.17,0,.34,0,.51,0,0-42.93-.12-85.87,.14-128.8,.04-6.04-1.62-8.65-7.64-10.39-76.21-22.03-153.87-31.84-233.17-29.23-62.73,2.06-124.15,11.87-184.45,29.22-6.39,1.84-8.02,4.58-8,10.96,.24,74.36,.12,148.73,.17,223.09,.01,19.64,.85,39.27,4.57,58.59,23.21,120.53,92.43,202.5,206.71,246.64,3.61,1.39,6.74,1.41,10.47,.18,116.95-38.53,205.94-155.76,210.46-279.07,1.48-40.34,.23-80.79,.23-121.19Z"/>
      <path class="cls-1" d="M468.23,204.89c0,40.4,1.25,80.84-.23,121.19-4.52,123.31-93.51,240.54-210.46,279.07-3.73,1.23-6.86,1.21-10.47-.18-114.28-44.14-183.5-126.12-206.71-246.64-3.72-19.32-4.56-38.95-4.57-58.59-.05-74.36,.06-148.73-.17-223.09-.02-6.38,1.61-9.12,8-10.96,60.3-17.35,121.73-27.16,184.45-29.22,79.3-2.61,156.96,7.2,233.17,29.23,6.02,1.74,7.68,4.35,7.64,10.39-.26,42.93-.14,85.87-.14,128.8-.17,0-.34,0-.51,0Zm-237.85,170.47c15.98-.78,31.86-2.27,47.61-5.04,4.65-.82,6.99-2.35,7.04-7.96,.1-12.02,1.38-24.04,2.09-36.06,.12-1.98,1.83-4.72-1.54-5.6-2.66-.7-4.76,.1-6.16,2.91-2.86,5.76-5.93,11.44-9.13,17.02-6.85,11.94-17.4,17.99-31,18.43-8.11,.27-16.31,.45-24.36-.39-35.58-3.72-59.93-24.15-69.97-58.57-6.93-23.75-7.53-48-5.11-72.48,5.55-56.35,42.76-89.98,96.94-87.86,16.47,.65,28.26,7.71,35.52,22.45,2.1,4.27,4.26,8.51,6.33,12.79,1.09,2.25,3.02,2.21,5,2.01,2.42-.25,2.18-1.96,2.02-3.71-1.39-14.56-1.15-29.11,.17-43.66,.36-3.97-1.9-6.51-5.54-4.52-6.76,3.71-13.54,2.33-20.49,1.75-15.08-1.26-30.15-2.53-45.32-2.02-49.82,1.68-88.1,22.06-109.18,68.88-14.4,31.99-16.89,65.45-7.97,99.43,9.54,36.32,32.45,60.63,67.7,73.3,21.15,7.6,43.13,9.21,65.35,8.9Zm-10.6-33.97c4.08,1.63,7.71,1.44,11.32,1.7,7.56,.54,12.24-1.81,14.19-10.05,2.13-8.94,5.88-17.49,8.91-26.21,8.15-23.47,16.3-46.95,24.59-70.82,.92,1.06,1.46,1.41,1.62,1.89,18.96,57.95,37.88,115.91,56.85,173.86,5.95,18.19,4.55,21.14-13.18,26.64-2.13,.66-4.57,.85-4.39,4.02,.2,3.61,2.97,2.74,4.98,2.69,26.05-.73,52.11-.68,78.16,0,1.76,.05,4.17,.85,4.71-2.04,.53-2.84-1.2-4.04-3.61-4.69-13.09-3.53-19.43-13.39-23.5-25.29-12.3-36-24.58-72.01-36.8-108.04-11.6-34.17-23.29-68.31-34.53-102.61-2.13-6.49-4.5-7.46-10.55-4.71-6.06,2.75-12.65,4.77-19.21,5.8-4.97,.78-6.95,2.91-8.64,7.34-9.7,25.34-19.78,50.53-29.67,75.8-7.11,18.18-14.13,36.4-21.23,54.71Zm-19.75,103.75c10.63,0,21.27,.03,31.9-.03,1.82,0,4.16,.65,4.6-2.25,.38-2.53-1.28-3.46-3.36-3.95-1.63-.38-3.29-.63-4.92-1.04-12.13-3.01-15.36-8.21-12.01-20.1,1.97-6.99,4.2-13.94,6.8-20.71,1.68-4.38,.32-5.17-3.84-5.43-18.66-1.14-18.65-1.25-25.62,16.61-.51,1.3-1.1,2.57-1.63,3.86-4.87,11.85-10.16,23.28-24.31,26.69-2.2,.53-3.26,2.13-2.67,4.44,.72,2.8,3.1,1.83,4.85,1.85,10.07,.08,20.15,.04,30.22,.05Z"/>
      <path class="cls-2" d="M230.39,375.36c-22.22,.31-44.2-1.29-65.35-8.9-35.25-12.67-58.16-36.97-67.7-73.3-8.92-33.98-6.43-67.44,7.97-99.43,21.08-46.82,59.36-67.2,109.18-68.88,15.16-.51,30.24,.76,45.32,2.02,6.95,.58,13.73,1.95,20.49-1.75,3.64-1.99,5.9,.55,5.54,4.52-1.32,14.55-1.56,29.1-.17,43.66,.17,1.75,.4,3.47-2.02,3.71-1.99,.2-3.92,.24-5-2.01-2.07-4.28-4.23-8.52-6.33-12.79-7.26-14.75-19.05-21.81-35.52-22.45-54.18-2.13-91.38,31.5-96.94,87.86-2.41,24.48-1.81,48.73,5.11,72.48,10.04,34.42,34.38,54.85,69.97,58.57,8.05,.84,16.25,.66,24.36,.39,13.6-.45,24.15-6.5,31-18.43,3.2-5.58,6.27-11.26,9.13-17.02,1.4-2.82,3.5-3.61,6.16-2.91,3.37,.89,1.65,3.62,1.54,5.6-.71,12.02-1.99,24.04-2.09,36.06-.05,5.61-2.39,7.14-7.04,7.96-15.75,2.78-31.62,4.27-47.61,5.04Z"/>
      <path class="cls-2" d="M219.79,341.39c7.1-18.31,14.11-36.53,21.23-54.71,9.89-25.27,19.97-50.46,29.67-75.8,1.69-4.43,3.68-6.56,8.64-7.34,6.56-1.03,13.16-3.05,19.21-5.8,6.06-2.75,8.42-1.78,10.55,4.71,11.24,34.29,22.93,68.43,34.53,102.61,12.23,36.03,24.51,72.04,36.8,108.04,4.06,11.9,10.41,21.75,23.5,25.29,2.41,.65,4.14,1.85,3.61,4.69-.54,2.89-2.95,2.09-4.71,2.04-26.05-.69-52.1-.73-78.16,0-2,.06-4.78,.92-4.98-2.69-.17-3.16,2.26-3.35,4.39-4.02,17.73-5.5,19.13-8.45,13.18-26.64-18.96-57.95-37.88-115.91-56.85-173.86-.16-.48-.7-.83-1.62-1.89-8.29,23.88-16.44,47.35-24.59,70.82-3.03,8.72-6.78,17.27-8.91,26.21-1.96,8.24-6.64,10.59-14.19,10.05-3.6-.26-7.24-.07-11.32-1.7Z"/>
      <path class="cls-2" d="M200.04,445.14c-10.07,0-20.15,.04-30.22-.04-1.75-.01-4.13,.95-4.85-1.85-.59-2.31,.48-3.91,2.67-4.44,14.15-3.41,19.44-14.84,24.31-26.69,.53-1.29,1.12-2.56,1.63-3.86,6.97-17.86,6.96-17.75,25.62-16.61,4.16,.25,5.52,1.04,3.84,5.43-2.6,6.78-4.83,13.72-6.8,20.71-3.35,11.89-.12,17.09,12.01,20.1,1.63,.4,3.29,.66,4.92,1.04,2.07,.48,3.73,1.41,3.36,3.95-.43,2.9-2.78,2.24-4.6,2.25-10.63,.05-21.27,.03-31.9,.02Z"/>
    </g>
  </g>
</svg>