<?xml version="1.0" encoding="UTF-8"?><svg id="b" xmlns="http://www.w3.org/2000/svg" viewBox="0 0 608.73 170.1"><g id="c"><polygon points="21.8 170.1 0 148.85 0 21.24 21.8 0 161.63 0 180.81 19.18 180.81 58.01 137.57 58.01 137.57 42.29 43.24 42.29 43.24 127.81 137.57 127.81 137.57 112.09 180.81 112.09 180.81 150.91 161.63 170.1 21.8 170.1" fill="#e4e6ed" stroke-width="0"/><polygon points="23.02 3 3 22.51 3 147.59 23.02 167.1 160.38 167.1 177.81 149.67 177.81 115.09 140.57 115.09 140.57 130.81 40.24 130.81 40.24 39.29 140.57 39.29 140.57 55.01 177.81 55.01 177.81 20.43 160.38 3 23.02 3" fill="#fff" stroke-width="0"/><polygon points="28.71 153.1 17 141.68 17 28.42 28.71 17 154.58 17 163.81 26.22 163.81 41.01 154.57 41.01 154.57 30.29 149.57 25.29 31.24 25.29 26.24 30.29 26.24 139.81 31.24 144.81 149.57 144.81 154.57 139.81 154.57 129.09 163.81 129.09 163.81 143.87 154.58 153.1 28.71 153.1" fill="#e4e6ed" stroke-width="0"/><polygon points="449.73 170.1 427.92 148.85 427.92 21.24 449.73 0 589.55 0 608.73 19.18 608.73 58.01 565.5 58.01 565.5 42.29 471.16 42.29 471.16 127.81 565.5 127.81 565.5 112.09 608.73 112.09 608.73 150.91 589.55 170.1 449.73 170.1" fill="#e4e6ed" stroke-width="0"/><polygon points="450.95 3 430.92 22.51 430.92 147.59 450.95 167.1 588.31 167.1 605.73 149.67 605.73 115.09 568.5 115.09 568.5 130.81 468.16 130.81 468.16 39.29 568.5 39.29 568.5 55.01 605.73 55.01 605.73 20.43 588.31 3 450.95 3" fill="#fff" stroke-width="0"/><polygon points="456.64 153.1 444.92 141.68 444.92 28.42 456.64 17 582.51 17 591.73 26.22 591.73 41.01 582.5 41.01 582.5 30.29 577.5 25.29 459.16 25.29 454.16 30.29 454.16 139.81 459.16 144.81 577.5 144.81 582.5 139.81 582.5 129.09 591.73 129.09 591.73 143.87 582.51 153.1 456.64 153.1" fill="#e4e6ed" stroke-width="0"/><polygon points="359.5 170.1 359.5 106.19 253.92 106.19 253.92 170.1 210.68 170.1 210.68 0 253.92 0 253.92 63.91 359.5 63.91 359.5 0 402.74 0 402.74 170.1 359.5 170.1" fill="#e4e6ed" stroke-width="0"/><polygon points="362.5 3 362.5 66.91 250.92 66.91 250.92 3 213.68 3 213.68 167.1 250.92 167.1 250.92 103.19 362.5 103.19 362.5 167.1 399.74 167.1 399.74 3 362.5 3" fill="#fff" stroke-width="0"/><polygon points="376.5 153.1 376.5 89.19 236.92 89.19 236.92 153.1 227.68 153.1 227.68 17 236.92 17 236.92 80.91 376.5 80.91 376.5 17 385.74 17 385.74 153.1 376.5 153.1" fill="#e4e6ed" stroke-width="0"/></g></svg>