<?xml version="1.0" encoding="UTF-8"?><svg id="b" xmlns="http://www.w3.org/2000/svg" viewBox="0 0 700 837.38"><g id="c"><polygon points="359.5 620.33 359.5 556.42 346.36 556.42 346.36 620.33 48.95 620.33 0 572.63 0 397.61 49.81 359.67 371.95 359.67 654.43 359.91 700 405.47 700 574.5 654.45 620.33 359.5 620.33" fill="#a5b0b6" stroke-width="0"/><g id="d"><polygon points="352.11 728.15 183.39 837.38 44.77 254.29 221.41 218.46 221.41 210.7 217.3 209.88 217.3 145.91 280.7 132.86 289.33 121.35 309.48 114.7 313.72 111.52 352.11 0 390.5 111.52 394.74 114.7 414.88 121.35 423.51 132.86 486.91 145.91 486.91 209.88 482.8 210.7 482.8 218.46 659.44 254.29 520.82 837.38 352.11 728.15" fill="#a5b0b6" stroke-width="0"/><polygon points="352.11 712.82 192.86 817.79 143.59 589.02 83.88 352.21 61.91 265.08 235.39 229.89 235.39 199.24 231.28 198.41 231.28 157.31 288.71 145.48 297.88 133.25 316.03 127.26 325.54 120.13 352.11 42.95 378.67 120.13 388.18 127.26 406.33 133.25 415.5 145.48 472.93 157.31 472.93 198.41 468.82 199.24 468.82 229.89 642.3 265.08 620.51 351.52 560.82 588.21 511.35 817.79 352.11 712.82" fill="#0b2a5b" stroke-width="0"/><path d="M271.88,237.11l-.03-40.29c2.34-.23,4.76-.44,7.21-.64v39.47l9.61-1.95v-38.25c4.27-.29,8.7-.54,13.24-.76v36.32l9.61-1.95v-34.79c4.5-.17,9.12-.31,13.85-.42v32.39l8.39-1.7v-30.85c4.72-.07,9.54-.12,14.46-.13v28.05l4.19-.85,4.19.85v-28.06c5.05.02,9.87.06,14.46.14v30.86l8.39,1.7v-32.39c4.91.12,9.5.27,13.85.44v34.76l9.61,1.95v-36.28c4.8.25,9.2.52,13.24.81v38.15l9.61,1.95v-39.33c2.59.23,5,.47,7.18.71v40.07s9.6,1.95,9.6,1.95l.02-50.58-4.23-.51c-22.3-2.68-51.2-4.04-85.92-4.04s-62.34,1.26-85.88,3.76l-4.31.46.04,50.91,9.61-1.95Z" fill="#ea1836" stroke-width="0"/><path d="M398.51,171.63l-7.74-10.32-23.23-5.14-11.3-8.47h-8.26l-11.3,8.47-23.23,5.14-7.74,10.32c-22.03.95-35.99,2.38-42.39,3.13l.67,5.56c3.52-.42,9.34-1.03,17.56-1.68,15.1-1.15,38.61-2.32,70.57-2.32s55.47,1.17,70.57,2.32c8.22.64,14.04,1.26,17.56,1.68l.67-5.56c-6.4-.75-20.36-2.18-42.39-3.13Z" fill="#ea1836" stroke-width="0"/><polygon points="352.11 113.46 346.53 173.54 352.11 173.54 357.68 173.54 352.11 113.46" fill="#ea1836" stroke-width="0"/><polygon points="352.11 249.01 590.89 297.45 567.42 390.51 596.31 390.51 585.34 376.62 608.03 286.66 352.11 234.74 96.18 286.66 118.77 376.23 104.86 390.51 136.75 390.37 113.32 297.45 352.11 249.01" fill="#ea1836" stroke-width="0"/><polygon points="567.42 390.51 567.42 390.51 567.42 390.51 567.42 390.51" fill="#ea1836" stroke-width="0"/><polyline points="151.07 338.79 145.72 368.24 131.7 379.16 217.51 769.38 352.11 675.12 486.7 769.38 573.56 374.83 556.52 371.02" fill="#fff" stroke-width="0"/><polygon points="400.64 580.13 303.57 580.13 319.62 697.87 352.11 675.12 384.6 697.87 400.64 580.13" fill="#ea1836" stroke-width="0"/><polyline points="435.23 733.34 500.73 334.57 558.33 334.57 556.52 371.02 573.56 374.83 486.7 769.38" fill="#ea1836" stroke-width="0"/><polyline points="276.41 728.13 216.36 406.63 145.72 368.24 129.85 371.47 138.27 406.49 217.51 769.38" fill="#ea1836" stroke-width="0"/><polyline points="352.11 659.63 556.97 445.04 590.89 297.45 113.32 297.45 140.36 404.66 352.11 659.63" fill="#0b2a5b" stroke-width="0"/><path d="M352.09,447.59c-44.02,0-79.83-35.81-79.83-79.83s35.81-79.83,79.83-79.83,79.83,35.81,79.83,79.83-35.81,79.83-79.83,79.83Z" fill="#fff" stroke-width="0"/><circle cx="352.11" cy="367.76" r="51.87" fill="#ea1836" stroke-width="0"/><polygon points="352.11 565.37 347.48 579.59 332.53 579.59 344.63 588.37 340.01 602.59 352.11 593.81 364.2 602.59 359.58 588.37 371.68 579.59 356.73 579.59 352.11 565.37" fill="#fff" stroke-width="0"/><polygon points="525.28 357.62 522.97 364.73 515.5 364.73 521.54 369.12 519.23 376.23 525.28 371.84 531.33 376.23 529.02 369.12 535.07 364.73 527.59 364.73 525.28 357.62" fill="#fff" stroke-width="0"/><polygon points="423.93 276.75 421.62 283.86 414.14 283.86 420.19 288.25 417.88 295.36 423.93 290.97 429.97 295.36 427.66 288.25 433.71 283.86 426.24 283.86 423.93 276.75" fill="#fff" stroke-width="0"/><polygon points="352.63 260.66 350.32 267.77 342.84 267.77 348.89 272.16 346.58 279.27 352.63 274.88 358.67 279.27 356.36 272.16 362.41 267.77 354.94 267.77 352.63 260.66" fill="#fff" stroke-width="0"/><polygon points="280.28 276.75 282.59 283.86 290.07 283.86 284.02 288.25 286.33 295.36 280.28 290.97 274.24 295.36 276.55 288.25 270.5 283.86 277.97 283.86 280.28 276.75" fill="#fff" stroke-width="0"/><polygon points="178.93 357.62 181.24 364.73 188.72 364.73 182.67 369.12 184.98 376.23 178.93 371.84 172.88 376.23 175.19 369.12 169.14 364.73 176.62 364.73 178.93 357.62" fill="#fff" stroke-width="0"/><polygon points="467.74 298.18 464.44 308.34 453.76 308.34 462.4 314.62 459.1 324.78 467.74 318.5 476.39 324.78 473.08 314.62 481.72 308.34 471.05 308.34 467.74 298.18" fill="#fff" stroke-width="0"/><polygon points="533.67 308.55 529.71 320.74 516.89 320.74 527.26 328.27 523.3 340.46 533.67 332.92 544.04 340.46 540.08 328.27 550.45 320.74 537.63 320.74 533.67 308.55" fill="#fff" stroke-width="0"/><polygon points="170.54 308.55 174.5 320.74 187.32 320.74 176.95 328.27 180.91 340.46 170.54 332.92 160.17 340.46 164.13 328.27 153.76 320.74 166.58 320.74 170.54 308.55" fill="#fff" stroke-width="0"/><polygon points="231.13 298.18 234.44 308.34 245.11 308.34 236.47 314.62 239.77 324.78 231.13 318.5 222.49 324.78 225.79 314.62 217.15 308.34 227.83 308.34 231.13 298.18" fill="#fff" stroke-width="0"/></g><path d="M649.27,372.35l-277.33-.23H54.01l-41.57,31.66v163.6l41.56,40.5h279.9v-63.91h38.04v63.91h277.33l38.28-38.52v-158.74l-38.28-38.28ZM579.12,499.92h-27.96v-19.86h27.96v19.86Z" fill="#0b2a5b" stroke-width="0"/><polygon points="557.48 362.65 557.48 339.29 531.73 339.29 524.61 339.29 521.33 339.29 514.08 339.29 506.46 339.29 485.63 339.29 479.95 339.29 472.88 339.29 470.31 339.29 457.64 339.29 451.94 339.29 436.73 339.29 429.14 339.29 418.65 339.29 411.08 339.29 411.06 339.29 400.37 339.29 393.43 339.29 375.89 339.29 367.77 339.29 350.26 339.29 339.74 339.29 331.95 339.29 321.55 339.29 314.4 339.29 314.29 339.29 306.88 339.29 296.32 339.29 273.11 339.29 268.03 339.29 258.28 339.29 250.36 339.29 244.82 339.29 233.15 339.29 232.19 339.29 215.33 339.29 212.22 339.29 204.86 339.29 200.99 339.29 187.52 339.29 178.52 339.29 174.9 339.29 160.87 339.29 150.49 349.17 150.49 382.99 160.89 392.83 164.88 392.83 178.48 392.83 187.52 392.83 204.86 392.83 211.02 392.83 215.8 392.83 217.14 392.83 222.17 392.83 233.15 392.83 244.82 392.83 245.44 392.83 268.03 392.83 268.31 392.83 280.42 392.83 296.34 392.83 306.88 392.83 314.31 392.83 314.38 392.83 321.55 392.83 331.91 392.83 339.74 392.83 361 392.83 367.78 392.83 375.99 392.83 389.35 392.83 389.35 388.95 393.45 392.83 411.04 392.83 411.06 392.81 411.08 392.83 418.65 392.83 429.11 392.83 436.73 392.83 446.91 392.83 451.94 392.83 465.02 392.83 470.31 392.83 485.63 392.83 496.64 392.83 506.56 392.83 513.89 392.83 514.1 392.83 514.1 392.83 521.33 392.83 531.69 392.83 557.58 392.83 557.58 362.65 557.48 362.65" fill="#0b2a5b" stroke-width="0"/><path d="M177.39,377.39l-3.25,2.99h-8.83l-3.16-2.99v-22.65l3.16-3.01h8.83l3.25,3.03v4.41h-4.95v-2.15h-5.33v18.07h5.33v-2.32h4.95v4.61Z" fill="#fff" stroke-width="0"/><path d="M191.74,380.38l-1.2-6.38h-5.19l-1.2,6.38h-5.06l5.36-28.65h6.97l5.36,28.65h-5.06ZM189.55,368.71l-1.61-8.57-1.61,8.57h3.21Z" fill="#fff" stroke-width="0"/><path d="M214.13,367.62l-3.21,3.04h-6.78v9.72h-4.95v-28.65h11.73l3.21,3.03v12.86ZM209.18,365.38v-8.35h-5.04v8.35h5.04Z" fill="#fff" stroke-width="0"/><path d="M221.49,380.38h-4.97v-28.65h4.97v28.65Z" fill="#fff" stroke-width="0"/><path d="M238.69,357.03h-4.92v23.36h-4.97v-23.36h-4.92v-5.29h14.81v5.29Z" fill="#fff" stroke-width="0"/><path d="M249.03,380.38l-1.2-6.38h-5.19l-1.2,6.38h-5.06l5.36-28.65h6.97l5.36,28.65h-5.06ZM246.84,368.71l-1.61-8.57-1.61,8.57h3.21Z" fill="#fff" stroke-width="0"/><path d="M268.76,380.38h-12.28v-28.65h4.97v23.36h7.31v5.29Z" fill="#fff" stroke-width="0"/><path d="M295.22,380.38h-4.95v-11.67h-5.62v11.67h-4.95v-28.65h4.95v11.67h5.62v-11.67h4.95v28.65Z" fill="#fff" stroke-width="0"/><path d="M313.19,377.39l-3.19,2.99h-9.22l-3.16-2.99v-22.65l3.16-3.01h9.22l3.19,3.01v22.65ZM308.22,375.1v-18.07h-5.65v18.07h5.65Z" fill="#fff" stroke-width="0"/><path d="M330.81,377.39l-3.24,2.99h-8.83l-3.16-2.99v-22.65l3.16-3.01h8.83l3.24,3.03v4.41h-4.95v-2.15h-5.33v18.07h5.33v-2.32h4.95v4.61Z" fill="#fff" stroke-width="0"/><path d="M349.01,351.74l-6.63,14.33,6.63,14.31h-5.52l-5.33-11.67v11.67h-4.95v-28.65h4.95v11.67l5.33-11.67h5.52Z" fill="#fff" stroke-width="0"/><path d="M364.33,380.38h-12.93v-28.65h12.83v5.29h-7.88v6.38h6.78v5.31h-6.78v6.38h7.98v5.29Z" fill="#fff" stroke-width="0"/><path d="M377.68,369.83v10.56h-5.02v-10.59l-5.94-18.05h5.09l3.38,10.67,3.33-10.67h5.26l-6.1,18.09Z" fill="#fff" stroke-width="0"/><path d="M409.95,377.39l-3.25,2.99h-8.83l-3.16-2.99v-22.65l3.16-3.01h8.83l3.25,3.03v4.41h-4.95v-2.15h-5.33v18.07h5.33v-2.32h4.95v4.61Z" fill="#fff" stroke-width="0"/><path d="M427.92,377.39l-3.2,2.99h-9.22l-3.16-2.99v-22.65l3.16-3.01h9.22l3.2,3.01v22.65ZM422.95,375.1v-18.07h-5.65v18.07h5.65Z" fill="#fff" stroke-width="0"/><path d="M440.67,380.38l-5.42-15.01v15.01h-4.94v-28.65h5.31l5.43,15.02v-15.02h4.92v28.61l.02.04h-5.33Z" fill="#fff" stroke-width="0"/><path d="M461.22,357.03h-7.86v6.38h6.76v5.31h-6.76v11.67h-4.97v-28.65h12.83v5.29Z" fill="#fff" stroke-width="0"/><path d="M479.58,380.38h-5.31l-4.22-11.67h-1.47v11.67h-4.97v-28.65h11.9l3.16,3.01v10.52l-3.38,3.37,4.29,11.74ZM468.58,363.41h5.14v-6.4h-5.14v6.4Z" fill="#fff" stroke-width="0"/><path d="M494.9,380.38h-12.93v-28.65h12.83v5.29h-7.88v6.38h6.78v5.31h-6.78v6.38h7.98v5.29Z" fill="#fff" stroke-width="0"/><path d="M507.64,380.38l-5.42-15.01v15.01h-4.94v-28.65h5.31l5.43,15.02v-15.02h4.92v28.61l.02.04h-5.33Z" fill="#fff" stroke-width="0"/><path d="M530.6,377.39l-3.25,2.99h-8.83l-3.16-2.99v-22.65l3.16-3.01h8.83l3.25,3.03v4.41h-4.95v-2.15h-5.33v18.07h5.33v-2.32h4.95v4.61Z" fill="#fff" stroke-width="0"/><path d="M545.92,380.38h-12.93v-28.65h12.83v5.29h-7.88v6.38h6.78v5.31h-6.78v6.38h7.98v5.29Z" fill="#fff" stroke-width="0"/><polygon points="69.24 407.95 49.22 427.46 49.22 552.53 69.24 572.04 206.61 572.04 224.03 554.62 224.03 520.04 186.79 520.04 186.79 535.76 86.46 535.76 86.46 444.23 186.79 444.23 186.79 459.96 224.03 459.96 224.03 425.37 206.61 407.95 69.24 407.95" fill="#fff" stroke-width="0"/><polygon points="497.17 407.95 477.15 427.46 477.15 552.53 497.17 572.04 634.53 572.04 651.96 554.62 651.96 520.04 614.72 520.04 614.72 535.76 514.38 535.76 514.38 444.23 614.72 444.23 614.72 459.96 651.96 459.96 651.96 425.37 634.53 407.95 497.17 407.95" fill="#fff" stroke-width="0"/><polygon points="408.72 407.95 408.72 471.85 297.14 471.85 297.14 407.95 259.9 407.95 259.9 572.04 297.14 572.04 297.14 508.14 408.72 508.14 408.72 572.04 445.96 572.04 445.96 407.95 408.72 407.95" fill="#fff" stroke-width="0"/><polyline points="574.41 372.19 599.11 372.19 577.86 355.12" fill="#ea1836" stroke-width="0"/><polyline points="131.7 372.19 104.74 372.19 127.16 354.18" fill="#ea1836" stroke-width="0"/></g></svg>