<?xml version="1.0" encoding="UTF-8"?><svg id="b" xmlns="http://www.w3.org/2000/svg" viewBox="0 0 684.99 697.64"><g id="c"><path d="M257.07,262.1c-28.7,5.91-56.35,15.08-84.89,27.12,9.71,2.29,17.92,4.22,26.12,6.16-.03.51-.05,1.03-.08,1.54-18.89,5.66-37.79,11.34-56.68,16.99-29.61,8.85-56.93,23.34-85.58,34.56-3.23,1.26-6.28,3.55-10.11,2.72l.14.16c6.22-2.84,7.85-7.37,7.82-14.38-.45-85.55-.4-171.09-.74-256.64-.03-6.36,1.69-10.07,7.22-13.58C92.44,46.34,124.34,25.56,156.17,4.68,161.41,1.25,166.66,0,172.85,0c117.74.13,235.48.13,353.22.01,5.87,0,10.85,1.18,15.87,4.42,32.48,20.97,65.07,41.76,97.78,62.36,4.97,3.13,7.36,6.3,7.3,12.62-.35,39.64-.33,79.29-.03,118.94.05,6.43-1.2,8.6-8.19,8.56-54.84-.32-109.69-.33-164.54.01-7.03.04-8.18-2.14-8.09-8.49.36-25.33,0-50.68.27-76.01.06-5.53-.98-7.55-7.15-7.53-72.13.24-144.27.21-216.4.04-5.55-.01-7.55,1.02-7.51,7.16.29,45.01.25,90.03.04,135.04-.03,5.97,1.28,8.44,7.37,6.07,4.75-.56,9.4-2.41,14.29-1.09Z" fill="#167000" stroke-width="0"/><path d="M242.72,490.72c-4.73-2.69-7.4-2.81-7.29,4.14.31,19.97.24,39.95.01,59.93-.05,4.57,1.11,6.06,5.9,6.05,71.85-.15,143.7-.18,215.55.04,5.81.02,5.89-2.52,5.94-6.92.28-25.91,1-51.82,1.13-77.73.03-6.19,1-8.78,8.2-8.72,55.74.46,111.49.55,167.23.42,6.43-.02,7.75,1.95,7.77,8.02.15,40.82.59,81.63,1.3,122.44.07,4.3-1.31,6.48-4.53,8.63-26.99,17.98-53.96,36-80.83,54.16-3.42,2.31-6.85,3.02-10.85,3.02-125.22-.06-250.43-.06-375.65,0-4.32,0-7.98-1.03-11.77-3.15-33.73-18.84-67.52-37.57-101.44-56.06-5.03-2.74-6.9-5.74-6.94-11.67-.46-63.46-1.29-126.92-2.06-190.38-.03-2.85-.38-5.7-.6-8.77,7.48,0,14.89-.28,22.27.09,6.15.31,11.46,3.07,15.61,7.7,7.06,7.88,5.99,12.85-3.71,16.8-8.75,3.56-17.61,6.87-26.97,10.5,19.6,16.7,42.53,20.79,66.69,20.28,16.65-.35,30.71,5.06,43.13,16.02,4.33,3.82,4.03,6.23.35,9.98-4.31,4.4-8.1,9.31-13.19,15.26,13.77-1.6,25.92-3.3,38.14-4.35,21.47-1.84,42.89-2,63.34,6.23,7.87,3.17,15.96,6.42,20.82,14.19l-.09.07c-3.19.32-4.23-3.41-7.06-3.75-8.92-7.12-18.98-11.44-30.4-12.47Z" fill="#167000" stroke-width="0"/><path d="M188.49,287.99c50.24-23.78,104.81-24.61,157.21-34.78.23-3.65-4.42-3.43-4.08-6.24,40.52-12.4,80.4-9.1,119.7,4.71,29.54,10.37,59.67,12.92,90.54,8.63,2.57-.36,5.22-.05,9.33-.05-6.48,6.03-12.18,11.34-19.44,18.09,24.04-4.72,45.94-6.04,67.83-2.11,33.87,6.08,54.24,36.28,46.37,68.18-3.1,12.57-11.19,21.37-21.78,28.23-9.68,6.27-20.48,8.99-32.54,10.68,3.92-10.24,9.49-18.98,12.14-29.02,1.52-5.76.04-8.9-4.47-11.95-15.49-10.49-44.84-10.36-60.37.45-7.38,5.14-9.9,16.97-6.35,28.62,2.73,8.97,9.1,15.19,15.47,21.47,11.85,11.67,18.49,25.84,21.55,42.15,1.11,5.88-1.32,5.91-5.27,5.44-42.99-5.15-83.48-16.44-115.38-48.06-3.46-3.43-5.49-4.08-9.32-.87-9.73,8.16-21.74,12.06-33.28,16.68-23.21,9.3-29.98,23.86-21.73,47.38,2.69,7.69,7.02,14.37,11.95,20.75,4.36,5.63,8.64,11.31,13.72,17.98-7.89-.41-13.21-4.28-18.75-7.1-30.76-15.7-59.15-9.88-86.02,9.23-8.22,5.85-12.43,14.93-16.89,23.8-3.08.12-3.66-2.76-4.71-4.48-14.74-24.07-38.02-32.16-64.28-33.85-19.48-1.25-39.01-.52-58.12,3.29-1.13-3.17.84-4.44,2.1-6.02,7.47-9.33,7.52-10.55-1.74-18.56-12.19-10.54-26.43-15.26-42.63-15.3-19.39-.05-38.77-1.06-55.65-12.6-.73-.5-1.4-1.08-2.84-2.21,8.73-3.7,16.86-7.53,25.28-10.55,5.2-1.87,5.86-4.55,4.58-9.46-3.57-13.64-13.93-21.1-31.11-21.27-14.59-.14-29.16.26-43.39-3.99-9.46-2.83-17.94-7.12-26.13-14.85,27.81-5.97,53.51-14.93,78.11-26.54,37.51-17.7,76.72-30.25,116.56-41.23,5.47-1.51,14.23-1.72,14.49-7.84.17-4.04-9.11-2.95-14.01-4.67-1.95-.68-3.93-1.28-6.65-2.17ZM410.88,403.16c-50.27-.49-96.49,40.27-103.11,91.38,9.67-6.21,17.71-14.81,29.31-16.79,8.12-1.38,13.47-5.22,14.71-13.86.32-2.2,1.04-4.7,4.49-5.42,1.88,3.01,2.21,6.45,2.49,9.92.16,1.95-.43,4.74,2.84,4.4,12.8-1.31,25.16.47,39.03,7.35-4.11-7.43-6.99-11.96-9.21-16.78-11.42-24.76-8.09-46.28,17.71-58.48.68-.32,1.08-1.23,1.62-1.86l3.13-.58c-.16-.23-.3-.63-.49-.66-1.16-.18-2.19-.02-2.51,1.37ZM238.54,350.33s-.69-.16-.67-.15c-29.31,13.05-57.8,27.65-84.14,46.09-18.04,12.63-37.24,23.1-57.61,31.43-3.59,1.47-7.96,1.24-10.78,5.24,9.6,4.12,19.13,6.13,29.04,6.1,21.36-.06,42.35,1.25,59.62,16.11,3.69,3.18,5.34-.24,7.41-1.84,36.75-28.42,74.15-55.8,116.47-75.63,23.24-8.78,46.96-15.51,71.98-16.47-12.92,4.84-25.85,9.68-38.77,14.53-1.93-.15-3.88-.36-4.41,2.24l.05-.05c-3.2-1.48-5.57.87-8.23,1.8-36.61,12.75-67.65,34.33-95.87,60.4-12.77,11.8-25.62,23.5-40.04,36.72,40.31-1.46,78.92-5.71,109.55,25.78,6.67-46.34,27.01-80.73,70.95-97.58,10.51-4.03,21.23-7.52,31.85-11.26,15.15-3.35,30.31-6.7,46.18-10.2-4.99-4.72-11.49-5.3-15.84-10.2,12-1.97,23.22-4.44,34.16-7.97,19.56-6.33,34.4-18.16,42.81-37.32.93-.27,1.48-.89.94-1.76-.13-.2-1.3.24-1.99.38-5.15,2.09-7.07,10.25-16.37,7.43,16.47-6.13,4.57-20.55,11.92-29.82-5.9.68-10.88.62-9.92,7.74.15,1.15-1.08,2.89-2.16,3.73-7.28,5.64-15.68,7.16-24.36,4.82-7.36-1.99-9.75-8.3-10.02-15.27-.29-7.64-3.67-10.91-12.07-9.06,4.48,3.14,4.57,7.44,4.77,11.97.44,9.76,5.94,15.83,15.37,18.2,9.09,2.29,17.34-.56,26.98-4.82-5.28,8.86-11.82,12.27-20.15,13.53-17.83,2.7-33.7-7.97-53.57-5.57,7.02-6,14.02-4.19,19.77-8.15-17.37-16.13-39.14-1.9-59.13-8.94,13.25-8.21,26.7-8.73,42.23-9.72-13.52-8.48-24.75-15.54-38.22-17.98-13.35-2.41-25.68,5.02-38.89,3.52,33.28-16.43,67.6-18.55,103.18-6.7.75-2.91-3.08-6.2.07-8.15,2.93-1.82,5.47,1.2,7.99,2.49,2.37,1.21,4.51,2.87,6.75,4.34,6.67,4.38,12.63,10.47,20.94,11.33,25.19,2.61,47.66-3.21,65.38-22.53.36-.31.72-.63,1.08-.94-.68,0-1.37,0-2.05-.01-28.24,2.12-55.58-1.97-82.42-10.99-31.97-10.74-64.56-16.07-98.17-8.15-1.63.38-4.74-.24-4.65,1.32.6,10.83-8.22,8.61-13.69,9.53-30.17,5.09-60.46,9.45-90.65,14.44-13.59,2.25-26.75,6.25-39.4,11.7,10.9,1.5,22.09-.99,33.78,5.55-17.23,10.16-35.93,11.77-52.8,18.39-18.06,3.6-35.37,9.77-52.85,15.33-42.67,13.57-81.37,37.46-126.39,47.84,4.46,4.2,9.09,5.23,13.5,6.68,13.86,4.56,28.19,3.58,42.45,3.87,14.07.29,27.11,4.19,33.46,17.84,3.57,7.68,6.87,6.29,12.63,3.83,38.83-16.63,73.17-41.74,111.69-58.92,12.49-4.05,24.48-9.93,38.23-9.81-8.32,4.07-16.64,8.14-24.96,12.21-.65.5-1.29,1-1.94,1.5ZM612.98,374.29c19.17-3.45,34.4-16.85,37.5-32.33,4.11-20.54-4.72-41.74-21.56-52-17.5-10.66-36.98-8.99-56.3-10.13-20.37-1.2-33.98,11.96-50.09,19.96-2,.99-2.12,3.43-2.63,5.46-7.95,31.96-27.75,54.17-57.11,67.95-7.52,3.53-8.39,5.97-2.59,12.14,29.27,31.12,67.37,42.19,107.76,48.34,5.49.84,4.98-2.14,3.93-5.7-3.59-12.23-9.52-23.09-18.93-31.85-8.34-7.77-15.41-16.35-17.62-27.97-11.51,4.38-12.83,8.59-5.85,17.79,4.55,6,10.46,10.57,16.26,15.25,6.3,5.09,8.65,11.63,7.82,19.98-22.79-6.32-41.47-18.52-58.61-33.74-4.9-4.35-4.51-6.96-.81-11.45,17.37-21.11,39.28-35.5,65.22-43.41,16.93-5.16,34.16-5.42,50.39,3.13,10.71,5.64,12.59,10.6,9.12,21.95-1.65,5.38-3.76,10.62-5.91,16.65ZM468.58,303.69c3.04,4.46.38,10.08,6.82,10.35,2.26.1,4.51-1.13,4.31-3.38-.47-5.27-4.97-5.68-11.13-6.97Z" fill="#167000" stroke-width="0"/><path d="M96.26,632.7c3.37-1.02,5.46,1.63,7.84,2.94,19.31,10.6,38.57,21.3,57.76,32.11,4.28,2.41,8.57,3.53,13.53,3.53,126.07-.1,252.13-.09,378.2-.04,4.57,0,8.54-.69,12.54-3.41,27.58-18.74,55.26-37.35,83.13-55.66,5.23-3.43,6.39-7.12,6.24-13.2-.74-30.08-.74-60.17-1.11-90.26-.05-3.89,1.48-5.5,5.27-5.14.3.03.6.01.89,0,23.76-1.27,23.69-1.27,23.78,22.38.12,34.87.24,69.73.65,104.6.06,5.35-1.46,8.63-6.01,11.62-26.37,17.36-52.55,34.99-78.71,52.66-3.16,2.13-6.34,2.82-10.03,2.82-125.17-.05-250.34-.05-375.51,0-3.98,0-7.55-.8-11.07-2.76-34.31-19.14-68.69-38.17-103.02-57.28-1.88-1.05-4.77-1.39-4.37-4.89Z" fill="#fde403" stroke-width="0"/><path d="M257.07,262.1c-4.89-1.31-9.54.54-14.29,1.09-.03-44.67.01-89.35-.21-134.02-.03-5.29,1.1-7.13,6.83-7.11,67.6.21,135.21.19,202.81.02,5.3-.01,7.1,1.13,7.13,6.83.1,19.86.35,19.86-19.15,19.86-53.01,0-106.02.12-159.03-.15-6.59-.03-8.56,1.55-8.49,8.35.37,33.65.19,67.31.2,100.96-1.72.86-4.14-.33-5.42,1.83-3.46.78-6.92,1.55-10.38,2.33Z" fill="#fde403" stroke-width="0"/><path d="M653.89,87.48c9.86,6.26,18.03,11.61,26.38,16.65,3.05,1.84,3.64,4.23,3.64,7.43-.06,40.51-.12,81.02.06,121.52.02,5.5-1.85,7.06-7.24,7.04-54.8-.17-109.6-.18-164.4.01-5.53.02-6.98-1.72-7.05-7.11-.26-19.32-.46-19.32,18.86-19.32,40.5,0,81.01-.16,121.51.16,6.78.05,8.45-1.89,8.4-8.51-.31-38.69-.15-77.39-.15-117.89Z" fill="#fde403" stroke-width="0"/><path d="M242.72,490.72c11.42,1.03,21.48,5.35,30.4,12.47-.09,13.97-.48,27.95-.14,41.92.15,6.26-1.02,8.84-8.14,8.77-22.15-.21-22.16.12-22.15-22.11,0-13.68.02-27.36.04-41.04Z" fill="#fde403" stroke-width="0"/><path d="M572.67,405.66c-.05-1.21-.11-2.42-.16-3.62.27.04.72,0,.78.14.6,1.31.71,2.56-.7,3.5-.01,0,.09-.02.09-.02Z" fill="#167000" stroke-width="0"/><path d="M404.6,461.36c.2,1.15.41,2.3.61,3.46-.43-.08-.86-.15-1.29-.23.24-1.09.49-2.18.74-3.28.01,0-.07.05-.07.05Z" fill="#167000" stroke-width="0"/><path d="M564.62,263.41c.6-.26,1.2-.51,1.8-.77,0,.29.13.7-.01.83-.72.71-1.38.52-1.91-.3,0-.01.13.23.13.23Z" fill="#167000" stroke-width="0"/><path d="M571.87,258.17c-.56.37-1.12.74-1.69,1.11-.05-.29-.26-.68-.14-.85.59-.86,1.28-.79,1.96-.05,0,0-.13-.21-.13-.21Z" fill="#167000" stroke-width="0"/><path d="M192.71,309.96c16.87-6.62,35.56-8.24,52.8-18.39-11.69-6.54-22.88-4.05-33.78-5.55,12.65-5.45,25.81-9.46,39.4-11.7,30.19-4.99,60.48-9.34,90.65-14.44,5.47-.92,14.29,1.29,13.69-9.53-.09-1.56,3.02-.94,4.65-1.32,33.6-7.92,66.2-2.59,98.17,8.15,26.84,9.02,54.17,13.11,82.42,10.99.31.33.64.64.97.95-17.72,19.33-40.19,25.14-65.38,22.53-8.31-.86-14.27-6.95-20.94-11.33-2.24-1.47-4.38-3.13-6.75-4.34-2.52-1.29-5.06-4.31-7.99-2.49-3.15,1.96.68,5.24-.07,8.15-35.59-11.85-69.9-9.73-103.18,6.7,13.21,1.5,25.54-5.93,38.89-3.52,13.48,2.43,24.7,9.49,38.22,17.98-15.53.99-28.98,1.5-42.23,9.72,19.99,7.04,41.76-7.19,59.13,8.94-5.76,3.96-12.75,2.15-19.77,8.15,19.87-2.39,35.74,8.27,53.57,5.57,8.33-1.26,14.87-4.67,20.15-13.53-9.64,4.26-17.89,7.11-26.98,4.82-9.43-2.37-14.93-8.44-15.37-18.2-.2-4.53-.29-8.83-4.77-11.97,8.4-1.85,11.78,1.42,12.07,9.06.26,6.97,2.65,13.28,10.02,15.27,8.68,2.35,17.08.83,24.36-4.82,1.08-.84,2.32-2.59,2.16-3.73-.96-7.12,4.02-7.07,9.92-7.74-7.34,9.27,4.55,23.68-11.92,29.82,9.3,2.82,11.22-5.34,16.37-7.43.3.5.65.95,1.05,1.37-8.41,19.16-23.25,30.99-42.81,37.32-10.94,3.54-22.16,6.01-34.16,7.97,4.35,4.91,10.86,5.49,15.84,10.2-15.87,3.51-31.02,6.86-46.18,10.2-3.13-5.74-8.56-6.7-14.38-7.08-14.46-.95-27.33,4.5-40.29,9.73-2.65,1.07-5.05,3.63-9.73,2.15,6.52-5.76,12.19-10.77,18.83-16.65-7.34-.98-12.32,1.78-17.3,3.87-14.4,6.04-26.52,15.65-38.5,25.41-.36-.46-.73-.91-1.13-1.33,1.65-4.34,5.45-6.81,8.69-9.69,8.45-7.52,17.05-14.86,25.59-22.27,0,0-.05.05-.05.05,2.15.6,3.24-.91,4.42-2.24,12.92-4.84,25.85-9.68,38.77-14.53-25.02.96-48.73,7.69-71.97,16.47-2.89-1.14-5.81-.56-8.78-.27-16.72,1.67-32.48,6.91-48.21,12.43-2.81.99-5.47,3.62-9.26,1.8,3.94-6.2,11.04-9.16,14.55-15.42.44-.25,1.86-.07.48-1.11l-.29,1.25c-3.4-1.28-6.37.37-9.43,1.37-18.64,6.11-34.93,16.42-50.5,28.07-2.64,1.98-4.86,5.7-9.69,3.75,17.87-19.03,37.52-35.8,56.83-52.95,1.86-1.65,6.05-2.2,4.26-6.43,0,0,.69.16.69.17,1.75.91,2.24.2,1.93-1.51,8.32-4.07,16.64-8.14,24.96-12.21-13.76-.12-25.74,5.76-38.23,9.81-4.65-3.14-9.33-.84-13.66.47-13.07,3.96-26.03,8.28-38.93,12.77-10.55,3.67-20.94,7.77-33.87,12.6,9.84-11.23,20.93-16.98,28.65-26.36.62-.19,1.82-.22,1.16-1.16-.52-.73-1.35-.16-1.61.75-3.41-.45-6.32,1.27-9.38,2.26-13.76,4.46-27.5,8.96-41.24,13.45-.34-.47-.72-.9-1.14-1.29,10.48-12.54,25.29-19.09,38.54-27.79,12.02-7.9,25.5-13.37,36.99-22.16Z" fill="#fefefe" stroke-width="0"/><path d="M612.98,374.29c2.16-6.03,4.27-11.26,5.91-16.65,3.47-11.36,1.6-16.31-9.12-21.95-16.23-8.54-33.46-8.29-50.39-3.13-25.94,7.91-47.85,22.3-65.22,43.41-3.7,4.5-4.09,7.1.81,11.45,17.15,15.22,35.82,27.42,58.61,33.74.83-8.35-1.52-14.89-7.82-19.98-5.79-4.68-11.71-9.25-16.26-15.25-6.98-9.2-5.66-13.41,5.85-17.79,2.21,11.63,9.28,20.2,17.62,27.97,9.41,8.77,15.33,19.62,18.93,31.85,1.04,3.56,1.56,6.53-3.93,5.7-40.39-6.15-78.48-17.22-107.76-48.34-5.8-6.17-4.94-8.61,2.59-12.14,29.36-13.79,49.16-35.99,57.11-67.95.5-2.02.63-4.46,2.63-5.46,16.11-8,29.72-21.16,50.09-19.96,19.32,1.14,38.8-.53,56.3,10.13,16.85,10.26,25.67,31.46,21.56,52-3.1,15.48-18.33,28.88-37.5,32.33ZM533.38,314.68c7.45-1.3,13.81-4.24,19.8-8.05,1.81-1.15,3.85-2.64,3.29-4.77-.57-2.16-3.08-2.56-5.21-2.3-4.67.57-9.86.25-13.83,2.27-4.46,2.27-1.08,8.75-4.05,12.85Z" fill="#fde403" stroke-width="0"/><path d="M326.73,377.92c-8.54,7.41-17.14,14.76-25.59,22.27-3.24,2.88-7.04,5.35-8.69,9.69-.91.48-1.81.96-2.72,1.45,1.32,1.25,2.59.57,3.85-.11,11.98-9.77,24.1-19.37,38.5-25.41,4.98-2.09,9.97-4.85,17.3-3.87-6.64,5.87-12.31,10.88-18.83,16.65,4.68,1.48,7.08-1.08,9.73-2.15,12.96-5.24,25.83-10.68,40.29-9.73,5.82.38,11.25,1.35,14.38,7.08-10.62,3.74-21.34,7.23-31.85,11.26-43.95,16.84-64.28,51.23-70.95,97.58-30.63-31.49-69.24-27.24-109.55-25.78,14.42-13.22,27.27-24.92,40.04-36.72,28.22-26.08,59.26-47.65,95.87-60.4,2.67-.93,5.03-3.28,8.23-1.8ZM329.68,399.97c-.19.15-.37.31-.56.46.18.17.35.46.53.46.18,0,.37-.27.56-.43-.18-.17-.35-.33-.53-.5Z" fill="#fde403" stroke-width="0"/><path d="M246.2,376.22c-3.51,6.27-10.62,9.22-14.55,15.42,3.79,1.81,6.45-.81,9.26-1.8,15.72-5.52,31.49-10.76,48.21-12.43,2.97-.3,5.88-.87,8.78.27-42.32,19.83-79.73,47.21-116.48,75.63-2.07,1.6-3.72,5.02-7.41,1.84-17.27-14.87-38.26-16.18-59.62-16.11-9.92.03-19.45-1.97-29.04-6.1,2.83-4,7.19-3.77,10.78-5.24,20.36-8.33,39.56-18.8,57.61-31.43,26.35-18.45,54.83-33.04,84.13-46.1,1.78,4.23-2.41,4.77-4.27,6.43-19.31,17.15-38.96,33.92-56.83,52.95,4.83,1.96,7.05-1.77,9.69-3.75,15.58-11.65,31.86-21.96,50.5-28.07,3.07-1.01,6.04-2.66,9.43-1.37l-.18-.14ZM230.01,393.33c-.15-.18-.29-.47-.47-.5-.18-.02-.39.22-.58.35.15.18.29.47.47.5.17.02.39-.22.58-.35Z" fill="#fde403" stroke-width="0"/><path d="M192.71,309.96c-11.49,8.79-24.97,14.26-36.99,22.16-13.25,8.7-28.06,15.25-38.53,27.79-.38.4-1.15,1.03-1.07,1.18.61,1.08,1.44.65,2.22.11,13.75-4.49,27.48-8.99,41.24-13.45,3.06-.99,5.96-2.7,9.38-2.26l.45.41c-7.72,9.38-18.81,15.13-28.65,26.36,12.93-4.83,23.32-8.93,33.87-12.6,12.9-4.49,25.86-8.81,38.93-12.77,4.33-1.31,9.01-3.61,13.66-.47-38.52,17.17-72.86,42.29-111.69,58.92-5.76,2.47-9.06,3.85-12.63-3.83-6.34-13.65-19.39-17.55-33.46-17.84-14.26-.29-28.6.69-42.45-3.87-4.41-1.45-9.04-2.48-13.5-6.68,45.02-10.38,83.72-34.27,126.39-47.84,17.49-5.56,34.8-11.73,52.85-15.33Z" fill="#fde403" stroke-width="0"/><path d="M410.76,403.02c-.53.63-.94,1.54-1.62,1.86-25.81,12.19-29.13,33.71-17.71,58.48,2.22,4.82,5.1,9.35,9.21,16.78-13.87-6.89-26.24-8.66-39.03-7.35-3.27.33-2.68-2.46-2.84-4.4-.28-3.47-.61-6.91-2.49-9.92-3.45.73-4.17,3.22-4.49,5.42-1.24,8.64-6.59,12.48-14.71,13.86-11.61,1.98-19.65,10.58-29.31,16.79,6.62-51.11,52.84-91.87,103.11-91.38l-.12-.14Z" fill="#fde403" stroke-width="0"/><path d="M468.58,303.69c6.17,1.29,10.66,1.7,11.13,6.97.2,2.26-2.05,3.48-4.31,3.38-6.44-.27-3.78-5.9-6.82-10.35Z" fill="#fefefe" stroke-width="0"/><path d="M331.09,375.74c-1.18,1.33-2.26,2.84-4.42,2.24.53-2.6,2.49-2.39,4.42-2.24Z" fill="#fde403" stroke-width="0"/><path d="M410.88,403.16c.32-1.39,1.35-1.56,2.51-1.37.19.03.33.43.49.66-1.04.19-2.08.38-3.13.58,0,0,.12.14.12.14Z" fill="#fde403" stroke-width="0"/><path d="M240.47,348.83c.31,1.71-.18,2.42-1.93,1.51.64-.51,1.29-1.01,1.93-1.51Z" fill="#fde403" stroke-width="0"/><path d="M501.2,326.71c.69-.15,1.86-.59,1.99-.38.54.87-.01,1.49-.94,1.76-.4-.42-.75-.87-1.05-1.37Z" fill="#fefefe" stroke-width="0"/><path d="M540.7,268.16c.68,0,1.37,0,2.05.01-.36.31-.72.63-1.08.94-.33-.31-.65-.63-.97-.95Z" fill="#fefefe" stroke-width="0"/><path d="M246.39,376.37l.29-1.25c1.38,1.03-.04.86-.48,1.11,0,0,.18.15.18.15Z" fill="#fde403" stroke-width="0"/><path d="M168.94,345.49c.26-.91,1.09-1.48,1.61-.75.66.94-.54.97-1.16,1.16,0,0-.45-.41-.45-.41Z" fill="#fde403" stroke-width="0"/><path d="M533.38,314.68c2.97-4.1-.41-10.59,4.05-12.85,3.97-2.02,9.16-1.7,13.83-2.27,2.13-.26,4.64.14,5.21,2.3.56,2.13-1.47,3.62-3.29,4.77-5.99,3.8-12.35,6.75-19.8,8.05Z" fill="#167000" stroke-width="0"/><path d="M293.58,411.22c-1.27.68-2.53,1.36-3.85.11.91-.48,1.81-.96,2.72-1.45.4.43.78.87,1.13,1.33Z" fill="#fefefe" stroke-width="0"/><path d="M329.68,399.97c.18.17.35.33.53.5-.19.15-.38.44-.56.43-.18,0-.36-.3-.53-.46.19-.15.37-.31.56-.46Z" fill="#fefefe" stroke-width="0"/><path d="M230.01,393.33c-.2.13-.41.38-.58.35-.18-.02-.31-.32-.47-.5.2-.13.41-.38.58-.35.17.02.31.32.47.5Z" fill="#fefefe" stroke-width="0"/><path d="M118.32,361.2c-.78.54-1.6.97-2.22-.11-.08-.14.69-.77,1.07-1.18.42.39.81.82,1.14,1.29Z" fill="#fefefe" stroke-width="0"/></g></svg>