<?xml version="1.0" encoding="UTF-8"?><svg id="b" xmlns="http://www.w3.org/2000/svg" viewBox="0 0 700 335.07"><g id="c"><path d="M450.91,99.72c20.14-16.91,40.04-34.12,60.49-50.64,22.36-18.06,47.02-32.53,73.3-44.17,7.64-3.39,15.64-5.76,24.12-4.63,21.96,2.93,30.93,27.65,16.49,46.07-9.04,11.53-19.96,21.28-31.69,30.06-2.46,1.84-4.11,2.88-1.77,6.59,16.71,26.55,17.08,29.11,11.07,59.66,14.22-6.08,29.4-7.27,41.12-18.45,13.34-12.72,33.34-12.08,47.48-.06.82.69,16.72,16.08,2.73,55.69-5.88,11.69-7.93,17.14,0,24.05,3.17,8.06,6.8,15,2.78,30.65-1.4,5.44-5.43,9.83-10.7,11.77-13.38,4.93-26.79,9.78-41.07,11.64-11.35,1.48-22.79,3.16-34.19,1.82-23.2-2.72-40.58-14.87-51.91-35.08-3.07-5.47-6.02-6.29-11.52-4.82-8.22,2.19-16.36,4.96-25.21,4.09-16.48-1.62-29.06-9.56-38.65-22.7-4.06-5.56-7.46-8.09-14.96-3.33-12.7,8.07-27.55,4.3-36.22-8.15-3.16-4.54-5.63-4.8-10.4-3.1-11.6,4.12-23.54,6.92-35.99,7.25-15.86.41-29.89-4.1-41.7-14.84-2.79-2.54-4.67-4.39-8.08-.21-11.99,14.69-27.15,24.36-46.29,26.84-3.21.42-4.22,2.64-5.32,4.91-5.32,10.89-14.46,16.65-25.89,19.23-35.94,8.12-71.95,15.97-107.83,24.32-18.5,4.3-21.88,9.84-16.81,28.62,4.04,14.97-.18,27.62-8.32,39.64-6.98,10.33-17.02,14.43-29.06,11.87-11.61-2.46-17.88-10.84-20.3-22-2.69-12.39-2.03-25.06-2.15-37.63-.05-4.88-1.07-8.03-5.58-11.18-13.93-9.72-15.98-24.24-13.61-39.79.81-5.32,2.64-10.47,4.01-15.71.82-.81,1.33-1.77.32-2.65-.22-.19-1.25.57-1.91.89-1.16.8-2.35,1.57-3.48,2.41-28.97,23.12-46.52-6.12-47.18-6.48-17.43-39.5,2.93-68.3,3.66-69.83,12.83-27.01,33.3-47.65,55.75-66.58,23.07-19.45,48.78-34.71,75.41-48.84,47.9-25.43,91.47,14.33,95.09,52.78.64,6.79,1.91,13.64-.41,20.34-.84,2.44-2.32,5.67.11,6.86,3.18,1.55,3.91-2.47,5.1-4.45,13.84-22.95,33.52-38.7,58.59-47.89,21.63-7.93,37.35-.9,46.02,20.6,4.26,10.56,3.95,10.19,12.77,2.9,15.51-12.83,32.48-23.38,51.65-29.95,13.16-4.51,26.45-4.85,37.11,5.17,10.83,10.18,11.89,23.69,8.14,37.44-1.63,6-4.55,11.66-6.88,17.47-.51.8-1.78,1.58-.6,2.57,1.21,1.02,1.72-.36,2.37-1.06ZM494.08,126c18.37-12.87,35.87-25.17,53.41-37.41,18.54-12.94,36.91-26.11,53.87-41.12,4.51-3.99,8.86-8.14,11.63-13.63,1.99-3.96,3.38-7.98.84-12.22-2.7-4.52-7.13-4.02-11.44-3.77-5.54.32-10.62,2.39-15.51,4.69-41.49,19.49-80.35,43.33-111.21,77.52-17.79,19.72-39.54,31.56-63,41.58-9.79,4.18-20.13,6.7-30.96,4.17-11.97-2.78-15.7-13.81-7.24-22.55,5.95-6.15,12.81-11.42,19.05-17.3,3.45-3.26,5.71-3.33,8.93.62,4.29,5.26,9.72,5.28,15.16,1.13,10.28-7.84,18.3-17.23,21.31-30.19,1.77-7.63,3.18-16.1-2.67-21.74-6.06-5.84-14.72-3.89-22.03-1.08-21.67,8.36-40.77,20.86-56.34,38.13-14.69,16.29-17.66,35.53-11.23,56.15,5.96,19.12,23.09,29.86,42.86,27.97,14.81-1.41,28.34-6.42,41.33-13.34,11.4-6.07,11.43-6.02,12.84,6.27.07.57.14,1.14.23,1.7,2.06,13.86,8.81,16.74,19.73,8.24,4.73-3.69,9.28-7.65,13.62-11.79,3.52-3.36,5.59-3.08,7.27,1.59,2.43,6.75,5.26,13.37,9.69,19.06,13.03,16.74,25.85,22.9,44.44,15.31,6.34-2.59,13.21-4.09,19.22-7.26,6.58-3.47,8.38-1.66,10.09,4.99,4.52,17.56,14.25,31.7,32.21,37.26,27.89,8.64,54.32,0,80.18-9.62,6.48-2.41,3.81-10.04,2.78-14.68-1.04-4.69-5.79-.9-8.62-.29-10.33,2.24-20.52,5.1-30.82,7.48-5.95,1.37-11.69.7-17.59-3.7,5.9-2.07,11-3.8,16.06-5.65,18.28-6.7,30.23-19.04,34.27-38.47,1.8-8.68,3.66-17.36,5.8-25.97,1.81-7.27-1.51-11.54-7.65-14.3-8.34-3.75-17.13-1.42-22.85,6.23-2.09,2.79-3.97,5.59-7.44,6.77-30.3,10.32-60.54,20.82-90.94,30.83-7.03,2.32-14.63,3.2-21.7-.8-3.84-2.17-7.85-5.09-7.62-9.6.21-4.09,5.31-3.48,8.31-4.56,14.76-5.31,30.27-8.81,43.03-18.72,12.63-9.81,16.93-22.07,12.31-35.36-3.93-11.32-10.26-14.65-21.79-11.47-21.7,5.98-40.68,18.09-60.99,27.19-3.08,1.38-5.96,3.56-10.77,1.68ZM125.56,199.68c2.56-5.08,5.97-7.29,8.81-9.96,17.72-16.67,35.54-33.22,53.24-49.91,14.15-13.34,25.71-28.51,31.25-47.48,6.64-22.76-2.29-40.87-17.85-56.67-13.82-14.03-30.15-11.03-45.59-4.59-55.3,23.07-100.21,59.28-133.11,109.57-11.87,18.14-7.41,36.82,2.2,54.47,3.66,6.71,10.29,7.53,15.99,2.55,12.43-10.89,24.57-22.11,36.74-33.29,2.52-2.31,5.45-5.15,3.64-8.87-1.88-3.87-5.71-.41-8.53-1.25-.4-.12-.67-.71-1.51-1.67,8.03-8.44,16.1-16.92,24.26-25.5,3.13,3.11,1.88,5.79,1.81,8.17-.52,16.31-1.38,32.6-1.73,48.91-.13,6.17-2.3,10.47-6.88,14.8-10.82,10.21-19.77,21.74-17.58,38.14,1.07,8.02,5,13.74,13.6,13.81,6.31.05,6.67,3.37,6.71,8.15.12,14.03.54,28.05.78,42.07.06,3.75.29,7.44,1.96,10.88,3.74,7.69,9.96,8.98,15.47,2.45,6.87-8.15,13.63-16.69,7.38-28.55-.97-1.84-.69-4.47-.6-6.73.36-9.44,1.21-18.87,1.18-28.3-.02-6.12,2.57-8.39,8.3-9.55,29.71-5.99,59.38-12.23,89.01-18.6,15.36-3.3,31.02-5.36,45.86-10.81,5.45-2,9.8-5.14,8.71-11.95-2.34-14.6-22.95-28.87-37.58-25.6-21.48,4.8-42.87,10.03-64.29,15.14-13.52,3.23-27.01,6.58-41.66,10.16ZM340.36,107.75c-.16-3-.65-5.33-.35-7.55,1.99-14.89-13.34-23.1-14.28-36.94-.09-1.37-3.38-2.81-5.4-3.72-5.45-2.45-10.74-.52-15.77,1.43-18.96,7.36-34.14,19.75-45.19,36.65-16.51,25.25-19.36,50.9.02,76.37,8.2,10.77,18.39,16.85,32.39,14.21,16.44-3.1,27.54-13.25,35.12-27.54,8.87-16.72,12.31-34.89,13.45-52.91ZM187.83,165.39c14.86-3.1,27.62-5.75,40.38-8.42,3.73-.78,2.91-3.37,2.44-5.99-1.6-8.77-1.5-17.57-.57-26.42.29-2.77,1.5-5.99-1.67-8.86-9.44,19.11-25.45,32.25-40.59,49.7Z" fill="#232023" stroke-width="0"/><path d="M494.08,126c4.81,1.89,7.69-.3,10.77-1.68,20.31-9.11,39.29-21.21,60.99-27.19,11.53-3.18,17.86.15,21.79,11.47,4.62,13.29.33,25.54-12.31,35.36-12.76,9.91-28.27,13.41-43.03,18.72-3,1.08-8.1.47-8.31,4.56-.23,4.5,3.77,7.42,7.62,9.6,7.07,4,14.67,3.12,21.7.8,30.4-10.01,60.64-20.51,90.94-30.83,3.46-1.18,5.35-3.97,7.44-6.77,5.72-7.65,14.51-9.98,22.85-6.23,6.14,2.76,9.46,7.03,7.65,14.3-2.14,8.6-3.99,17.29-5.8,25.97-4.04,19.43-15.99,31.76-34.27,38.47-5.06,1.85-10.16,3.58-16.06,5.65,5.9,4.4,11.64,5.07,17.59,3.7,10.3-2.37,20.49-5.24,30.82-7.48,2.84-.61,7.58-4.41,8.62.29,1.03,4.64,3.71,12.26-2.78,14.68-25.86,9.63-52.29,18.26-80.18,9.62-17.96-5.56-27.69-19.7-32.21-37.26-1.71-6.65-3.51-8.46-10.09-4.99-6.01,3.17-12.88,4.67-19.22,7.26-18.59,7.59-31.4,1.43-44.44-15.31-4.43-5.69-7.26-12.32-9.69-19.06-1.68-4.67-3.74-4.95-7.27-1.59-4.34,4.14-8.89,8.1-13.62,11.79-10.92,8.5-17.67,5.61-19.73-8.24-.08-.57-.16-1.13-.23-1.7-1.41-12.29-1.44-12.35-12.84-6.27-12.99,6.92-26.52,11.93-41.33,13.34-19.77,1.88-36.9-8.85-42.86-27.97-6.42-20.62-3.45-39.85,11.23-56.15,15.57-17.27,34.68-29.78,56.34-38.13,7.3-2.82,15.96-4.77,22.03,1.08,5.85,5.63,4.44,14.11,2.67,21.74-3.01,12.96-11.03,22.36-21.31,30.19-5.44,4.15-10.87,4.13-15.16-1.13-3.22-3.95-5.48-3.88-8.93-.62-6.24,5.89-13.09,11.15-19.05,17.3-8.46,8.74-4.73,19.76,7.24,22.55,10.84,2.52,21.18,0,30.96-4.17,23.46-10.02,45.21-21.87,63-41.58,30.86-34.19,69.71-58.03,111.21-77.52,4.9-2.3,9.97-4.37,15.51-4.69,4.31-.25,8.73-.75,11.44,3.77,2.54,4.24,1.15,8.26-.84,12.22-2.77,5.49-7.12,9.64-11.63,13.63-16.96,15.02-35.33,28.18-53.87,41.12-17.54,12.24-35.04,24.54-53.41,37.41ZM609.14,214.9c7.39-1.6,12.93-2.94,18.53-3.98,24.4-4.53,40.5-17.63,44.99-43,1-5.63,2.51-11.17,3.74-16.76.97-4.4,2.99-8.99-2.3-12.28-5.45-3.39-11.4-2.61-15.02,1.54-8.25,9.46-19.59,11.97-30.46,15.79-24.82,8.73-49.59,17.59-74.51,26.03-14.49,4.91-25.94,1.49-33.04-10.17-7.42-12.18-6.75-9.48,4.33-13.05,14.18-4.56,28.14-9.69,41.4-16.48,13.28-6.81,18.98-17.07,17.1-29.69-1.45-9.76-6.53-13.5-16.2-11.38-10.09,2.21-19.83,5.57-28.95,10.51-21.87,11.86-43.71,23.8-65.62,35.59-2.52,1.36-4.85,4.02-8.37,2.74q2.31-12.2,11.91-18.92c39.4-27.55,78.99-54.83,116.67-84.75,4.05-3.22,8.28-6.33,10.94-10.8,2.2-3.7,8.34-7.23,5.03-11.6-3.59-4.73-9.78-1.61-14.26.45-44.24,20.35-86.32,44.36-118.78,81.43-18.86,21.53-42.83,32.77-68.68,41.69-7.25,2.5-14.86,4.33-22.75,3.24-8.43-1.16-15.53-4.43-18.68-12.96-3.23-8.73.44-15.65,6.69-21.5,7.52-7.03,15.35-13.75,22.78-20.88,4.93-4.73,8-6.96,9.78,2.47,1.43,7.6,6.17,8.66,11.56,3.08,6.76-6.99,13.22-14.39,17.04-23.49,2.61-6.22,4.22-13.37-.64-18.74-4.68-5.18-11.38-2.34-16.98-.45-4.84,1.63-9.48,4.04-13.93,6.59-12.45,7.13-23.92,15.67-34.79,25.02-18.39,15.83-22.89,35.49-15.84,58.2,4.54,14.62,15.06,22.7,30.37,23.44,16.63.81,31.52-4.81,45.61-12.94,7.09-4.08,13.93-8.59,22.19-13.72,0,9.87-.43,18.36.13,26.78.5,7.55,4.24,9,10,4.3,3.54-2.88,6.69-6.24,10.06-9.34q14.16-12.99,21.87,4.78c12.88,29.69,25.33,34.79,55.15,22.89,8.05-3.21,15.72-7.58,24.59-9.2-2.46,30.07,20.93,51.45,42.6,52.5,6.65.32,13.13-.26,19.66-1.09,13.66-1.75,26.87-5.22,39.83-9.87,3.46-1.24,6.12-2.99,4.96-6.53-1.1-3.38-4.44-1.35-6.67-.81-7.47,1.8-14.84,4.01-22.3,5.83-14.65,3.59-27.49-.31-40.72-10.54Z" fill="#fdfdfd" stroke-width="0"/><path d="M125.56,199.68c14.65-3.58,28.14-6.93,41.66-10.16,21.41-5.11,42.8-10.34,64.29-15.14,14.63-3.27,35.24,11,37.58,25.6,1.09,6.81-3.26,9.95-8.71,11.95-14.84,5.45-30.51,7.51-45.86,10.81-29.64,6.37-59.3,12.61-89.01,18.6-5.73,1.16-8.32,3.43-8.3,9.55.03,9.43-.82,18.87-1.18,28.3-.09,2.25-.37,4.88.6,6.73,6.26,11.86-.5,20.39-7.38,28.55-5.51,6.53-11.73,5.25-15.47-2.45-1.68-3.45-1.9-7.13-1.96-10.88-.24-14.02-.66-28.05-.78-42.07-.04-4.78-.4-8.1-6.71-8.15-8.6-.07-12.53-5.79-13.6-13.81-2.19-16.4,6.77-27.93,17.58-38.14,4.59-4.33,6.75-8.63,6.88-14.8.35-16.31,1.21-32.61,1.73-48.91.08-2.38,1.32-5.06-1.81-8.17-8.16,8.58-16.23,17.06-24.26,25.5.84.96,1.11,1.55,1.51,1.67,2.82.84,6.65-2.62,8.53,1.25,1.8,3.72-1.12,6.56-3.64,8.87-12.17,11.18-24.32,22.4-36.74,33.29-5.69,4.99-12.33,4.17-15.99-2.55-9.61-17.65-14.07-36.33-2.2-54.47C55.21,90.35,100.12,54.15,155.42,31.07c15.44-6.44,31.77-9.44,45.59,4.59,15.56,15.8,24.5,33.91,17.85,56.67-5.54,18.97-17.1,34.14-31.25,47.48-17.7,16.69-35.53,33.24-53.24,49.91-2.84,2.67-6.25,4.88-8.81,9.96ZM64.58,165.04c-1.08.35-2.16.69-3.25,1.04-2.3.73-4.73,3.08-6.85.03-1.65-2.38-1.05-4.91.62-7.17,1.35-1.84,2.6-3.77,4.07-5.51,12.04-14.25,26.42-26.13,39.71-39.1.78-.76,1.81-1.43,1.37-1.69,0,24.03-.24,47.07.13,70.11.13,8.47-2.68,14.53-9.35,19.77-9.76,7.67-14.88,17.99-14.18,30.69.45,8.1,4.07,11.79,12.1,10.54,6.5-1.01,7.04,1.62,7.12,6.79.28,18.02.88,36.04,1.42,54.06.09,3.06-.56,6.77,3.23,8.12,3.99,1.42,6.41-1.68,8.58-4.25,3.49-4.11,5.76-9.32,4.12-14.34-4.8-14.67-1.1-29.55-2.16-44.26-.63-8.75,2.95-11.71,11.09-13.41,44.21-9.27,88.31-19.06,132.42-28.77,9.78-2.15,11.17-5.93,5.72-14.34-8.79-13.57-16.5-16.74-33.78-12.57-35.29,8.52-70.48,17.47-105.77,26.01-2.83.68-6.75,3.79-9.1-.84-2.15-4.25,2.43-5.19,4.37-7.12,23.49-23.34,49.98-43.6,71.3-69.17,11.07-13.29,23.29-25.99,26.75-43.91,3.61-18.7-3.55-33.63-16.83-46.16-11.89-11.22-25.44-9.6-39.35-4.64-16.84,6.01-32.06,15.05-46.78,24.99-31.26,21.11-59.57,45.27-81.17,76.73-11.34,16.5-12.19,33.38-4.83,51.29,3.11,7.57,6.98,9.01,13.04,4.13,9.75-7.85,19.59-15.69,27.46-25.59.45-.52,1.37-1.33,1.26-1.52-.78-1.3-1.66-.51-2.48.11ZM69.58,154.37c-.1.18-.33.41-.28.53.3.76.72.77,1.08.04.06-.11-.11-.42-.25-.53-.12-.09-.36-.02-.54-.04Z" fill="#fdfdfd" stroke-width="0"/><path d="M340.36,107.75c-1.14,18.02-4.58,36.19-13.45,52.91-7.58,14.29-18.68,24.44-35.12,27.54-14,2.64-24.2-3.44-32.39-14.21-19.38-25.47-16.54-51.12-.02-76.37,11.05-16.9,26.23-29.29,45.19-36.65,5.02-1.95,10.32-3.88,15.77-1.43,2.03.91,5.31,2.34,5.4,3.72.95,13.85,16.28,22.05,14.28,36.94-.3,2.22.19,4.55.35,7.55ZM318.11,77.58c1.92-4.35,6.51-7.87,2.83-12.13-3.14-3.64-7.89-2.65-12.09-1.38-2.99.91-5.99,1.96-8.77,3.36-21.79,10.96-35.89,29.13-45.1,50.9-7.48,17.68-3.75,34.96,7.52,50.14,12.83,17.27,26.56,18.14,43.9,7.53,7.91-4.84,14.68-11.72,18.38-20.72,7.7-18.77,11.74-38.25,10.34-58.59-.87-12.65-4.54-16.52-17.01-19.11Z" fill="#fdfdfd" stroke-width="0"/><path d="M187.83,165.39c15.14-17.45,31.15-30.58,40.59-49.7,3.17,2.87,1.96,6.09,1.67,8.86-.94,8.85-1.04,17.65.57,26.42.48,2.62,1.29,5.21-2.44,5.99-12.76,2.68-25.53,5.33-40.38,8.42Z" fill="#fdfdfd" stroke-width="0"/><path d="M450.91,99.72c-.65.7-1.16,2.08-2.37,1.06-1.18-.99.09-1.77.6-2.57.59.5,1.18,1,1.76,1.51Z" fill="#fdfdfd" stroke-width="0"/><path d="M57.69,206.26c.66-.32,1.69-1.08,1.91-.89,1.02.88.51,1.84-.32,2.65-.53-.59-1.06-1.18-1.59-1.76Z" fill="#fdfdfd" stroke-width="0"/><path d="M609.14,214.9c13.23,10.24,26.07,14.13,40.72,10.54,7.46-1.83,14.84-4.03,22.3-5.83,2.23-.54,5.57-2.57,6.67.81,1.16,3.54-1.5,5.29-4.96,6.53-12.96,4.65-26.17,8.12-39.83,9.87-6.52.84-13,1.41-19.66,1.09-21.66-1.05-45.06-22.42-42.6-52.5-8.88,1.62-16.55,5.98-24.59,9.2-29.81,11.9-42.26,6.8-55.15-22.89q-7.71-17.77-21.87-4.78c-3.37,3.09-6.52,6.46-10.06,9.34-5.77,4.69-9.51,3.25-10-4.3-.55-8.42-.13-16.91-.13-26.78-8.26,5.13-15.1,9.63-22.19,13.72-14.09,8.12-28.98,13.74-45.61,12.94-15.31-.74-25.83-8.82-30.37-23.44-7.05-22.7-2.55-42.37,15.84-58.2,10.87-9.35,22.34-17.89,34.79-25.02,4.45-2.55,9.09-4.96,13.93-6.59,5.6-1.89,12.3-4.73,16.98.45,4.86,5.37,3.25,12.52.64,18.74-3.82,9.1-10.28,16.5-17.04,23.49-5.39,5.58-10.13,4.52-11.56-3.08-1.78-9.44-4.85-7.2-9.78-2.47-7.43,7.13-15.26,13.85-22.78,20.88-6.25,5.85-9.93,12.77-6.69,21.5,3.16,8.53,10.25,11.79,18.68,12.96,7.9,1.09,15.5-.74,22.75-3.24,25.85-8.91,49.83-20.15,68.68-41.69,32.46-37.07,74.54-61.08,118.78-81.43,4.48-2.06,10.67-5.18,14.26-.45,3.31,4.36-2.83,7.89-5.03,11.6-2.66,4.47-6.89,7.58-10.94,10.8-37.68,29.91-77.27,57.2-116.67,84.75q-9.56,6.69-11.91,18.92c3.52,1.28,5.85-1.38,8.37-2.74,21.91-11.8,43.75-23.73,65.62-35.59,9.12-4.95,18.86-8.3,28.95-10.51,9.67-2.12,14.75,1.62,16.2,11.38,1.88,12.62-3.81,22.88-17.1,29.69-13.26,6.8-27.22,11.92-41.4,16.48-11.08,3.57-11.75.86-4.33,13.05,7.09,11.66,18.55,15.08,33.04,10.17,24.91-8.45,49.69-17.3,74.51-26.03,10.87-3.82,22.21-6.33,30.46-15.79,3.62-4.15,9.57-4.93,15.02-1.54,5.29,3.29,3.27,7.88,2.3,12.28-1.23,5.59-2.74,11.13-3.74,16.76-4.49,25.38-20.59,38.47-44.99,43-5.6,1.04-11.14,2.38-18.53,3.98ZM584.71,178.85c11.37,5.61,13.88,14.73,15.78,24.07.61,3.02,1.24,6.38,4.76,5.78,12.14-2.04,24.65-3.89,31.84-15.87,5.65-9.42,8.28-19.96,10.57-30.57.77-3.55.14-5.58-4.25-4.03-18.77,6.66-37.58,13.2-58.69,20.6ZM562.46,127.75c-1.29-5.65-5.8-6.38-10.53-5.74-18.19,2.47-34.24,10.18-49.08,20.67-1.31.93-2.98,1.76-2.24,4.01,1.09,3.31,12.22,10.23,15.37,8.86,13.8-5.99,28.14-10.93,40.71-19.46,2.83-1.92,5.38-4.29,5.77-8.35Z" fill="#37663c" stroke-width="0"/><path d="M65.8,166.45c-7.87,9.91-17.71,17.74-27.46,25.59-6.06,4.88-9.93,3.44-13.04-4.13-7.36-17.91-6.5-34.78,4.83-51.29,21.61-31.46,49.91-55.61,81.17-76.73,14.72-9.94,29.94-18.98,46.78-24.99,13.91-4.96,27.46-6.58,39.35,4.64,13.28,12.53,20.44,27.46,16.83,46.16-3.46,17.92-15.67,30.62-26.75,43.91-21.31,25.57-47.81,45.82-71.3,69.17-1.94,1.93-6.53,2.88-4.37,7.12,2.35,4.63,6.27,1.53,9.1.84,35.29-8.54,70.48-17.49,105.77-26.01,17.28-4.17,25-1,33.78,12.57,5.45,8.41,4.06,12.19-5.72,14.34-44.12,9.71-88.22,19.5-132.42,28.77-8.14,1.71-11.72,4.67-11.09,13.41,1.07,14.71-2.63,29.58,2.16,44.26,1.64,5.02-.64,10.23-4.12,14.34-2.18,2.57-4.59,5.67-8.58,4.25-3.78-1.35-3.14-5.06-3.23-8.12-.54-18.02-1.14-36.03-1.42-54.06-.08-5.17-.62-7.8-7.12-6.79-8.03,1.25-11.65-2.44-12.1-10.54-.7-12.69,4.42-23.02,14.18-30.69,6.67-5.24,9.48-11.3,9.35-19.77-.36-23.03-.13-46.08-.13-70.11.45.26-.58.92-1.37,1.69-13.3,12.97-27.68,24.85-39.71,39.1-1.47,1.74-2.72,3.67-4.07,5.51-1.67,2.27-2.27,4.8-.62,7.17,2.12,3.06,4.56.71,6.85-.03,1.08-.35,2.16-.69,3.25-1.04.41.47.81.94,1.22,1.41ZM114.39,180.72c2.55-2.16,3.49-2.78,4.21-3.59,19.29-21.86,38.66-43.66,57.79-65.66,7.61-8.75,13.02-18.8,15.18-30.35,1.15-6.17.84-12.14-4.44-16.49-5.18-4.27-11.15-4.19-16.99-1.66-4.17,1.81-8.34,3.87-12,6.51-13.66,9.88-26.99,20.23-40.71,30.03-5.45,3.89-9.24,7.21-4.04,14.11,1.8,2.39,1.1,6.02,1.08,9.21-.15,18.73-.07,37.47-.07,57.89Z" fill="#37663c" stroke-width="0"/><path d="M69.58,154.38c.19.01.43-.06.54.03.14.11.31.41.25.53-.36.73-.77.72-1.08-.04-.05-.12.18-.35.28-.52Z" fill="#232023" stroke-width="0"/><path d="M64.58,165.04c.82-.61,1.7-1.4,2.48-.11.11.19-.81,1-1.26,1.52-.41-.47-.81-.94-1.22-1.41Z" fill="#37663c" stroke-width="0"/><path d="M318.11,77.58c12.47,2.59,16.14,6.45,17.01,19.11,1.41,20.34-2.63,39.83-10.34,58.59-3.7,9.01-10.47,15.89-18.38,20.72-17.34,10.61-31.07,9.74-43.9-7.53-11.27-15.18-15-32.45-7.52-50.14,9.21-21.78,23.32-39.95,45.1-50.9,2.79-1.4,5.78-2.45,8.77-3.36,4.19-1.28,8.95-2.26,12.09,1.38,3.68,4.26-.91,7.78-2.83,12.13ZM305.97,89.8c-13.83,13.05-27.09,26.33-33.6,44.52-3.44,9.6-3,19.17,2.69,27.98,3.48,5.39,7.8,7.62,14.61,4.9,7.24-2.89,12.62-7.41,17.3-13.44,3.84-4.95,5.06-9.41.59-14.49-4.25-4.83-5.02-10.64-4.72-16.85.52-10.83,1.86-21.55,3.13-32.61Z" fill="#37663c" stroke-width="0"/><path d="M584.71,178.85c21.11-7.4,39.92-13.95,58.69-20.6,4.4-1.56,5.02.47,4.25,4.03-2.29,10.61-4.92,21.15-10.57,30.57-7.19,11.98-19.69,13.82-31.84,15.87-3.52.59-4.15-2.76-4.76-5.78-1.9-9.34-4.41-18.46-15.78-24.07ZM641.62,165.22c-14.59,5.13-27.45,9.64-40.29,14.19-1.47.52-3.99.69-2.87,3.11,3.05,6.6,3.48,15.87,9.93,19.01,5.85,2.84,13.33-.94,18.94-5.22,2.21-1.69,4.36-3.87,5.63-6.31,3.79-7.27,6.21-15.07,8.65-24.79Z" fill="#fdfdfd" stroke-width="0"/><path d="M562.46,127.75c-.39,4.06-2.94,6.43-5.77,8.35-12.58,8.54-26.91,13.47-40.71,19.46-3.15,1.37-14.28-5.56-15.37-8.86-.74-2.25.93-3.09,2.24-4.01,14.84-10.5,30.89-18.2,49.08-20.67,4.73-.64,9.23.08,10.53,5.74ZM508.07,146.53c2.51,2.27,4.44,5.28,8.63,3.28,12.29-5.87,24.62-11.64,36.9-17.51,1.34-.64,2.12-1.86,1.48-3.51-13.1-.88-31.22,5.91-47.01,17.74Z" fill="#fdfdfd" stroke-width="0"/><path d="M114.39,180.72c0-20.42-.08-39.16.07-57.89.03-3.18.72-6.82-1.08-9.21-5.19-6.9-1.4-10.22,4.04-14.11,13.72-9.8,27.05-20.15,40.71-30.03,3.66-2.65,7.83-4.71,12-6.51,5.84-2.53,11.81-2.61,16.99,1.66,5.27,4.35,5.59,10.32,4.44,16.49-2.16,11.55-7.57,21.6-15.18,30.35-19.13,22-38.5,43.8-57.79,65.66-.72.81-1.66,1.43-4.21,3.59ZM120.37,162.94c.76.35,1.52.71,2.29,1.06,19.26-22.22,40.15-43,57.81-66.6,3.97-5.3,5.83-11.78,6.1-18.54.34-8.69-3.04-11.58-11.38-9.93-6.28,1.25-11.95,3.73-17.09,7.59-11.44,8.58-22.77,17.34-34.52,25.5-5.61,3.9-8.83,7.17-4.47,14.26,1.74,2.83,1.18,7.23,1.22,10.92.13,11.91.05,23.82.05,35.73Z" fill="#fdfdfd" stroke-width="0"/><path d="M305.97,89.8c-1.27,11.05-2.61,21.78-3.13,32.61-.3,6.21.47,12.02,4.72,16.85,4.47,5.08,3.25,9.54-.59,14.49-4.68,6.04-10.06,10.55-17.3,13.44-6.81,2.72-11.13.49-14.61-4.9-5.69-8.81-6.13-18.37-2.69-27.98,6.51-18.19,19.76-31.47,33.6-44.52ZM297.66,110.1c-7.83,4.69-11.78,11.57-16.25,18.02-4.8,6.91-6.02,14.66-4.92,22.86.66,4.89,1.28,10.38,7.08,11.46,8.13,1.52,13.05-4.24,17.83-9.63,3.6-4.07,2.12-7.75-.8-11.47-4.31-5.5-5.16-11.9-4.37-18.64.5-4.2.95-8.4,1.43-12.59Z" fill="#fdfdfd" stroke-width="0"/><path d="M641.62,165.22c-2.44,9.73-4.87,17.53-8.65,24.79-1.27,2.43-3.41,4.62-5.63,6.31-5.62,4.28-13.1,8.06-18.94,5.22-6.45-3.14-6.89-12.41-9.93-19.01-1.12-2.42,1.4-2.59,2.87-3.11,12.84-4.55,25.7-9.06,40.29-14.19Z" fill="#232023" stroke-width="0"/><path d="M508.07,146.53c15.79-11.83,33.91-18.62,47.01-17.74.65,1.65-.14,2.87-1.48,3.51-12.28,5.87-24.62,11.64-36.9,17.51-4.19,2-6.11-1.01-8.63-3.28Z" fill="#232023" stroke-width="0"/><path d="M120.37,162.94c0-11.91.08-23.82-.05-35.73-.04-3.69.52-8.09-1.22-10.92-4.36-7.1-1.14-10.36,4.47-14.26,11.74-8.16,23.07-16.92,34.52-25.5,5.13-3.85,10.81-6.34,17.09-7.59,8.34-1.65,11.72,1.24,11.38,9.93-.27,6.75-2.13,13.24-6.1,18.54-17.66,23.6-38.55,44.38-57.81,66.6-.76-.35-1.52-.71-2.29-1.06Z" fill="#232023" stroke-width="0"/><path d="M297.66,110.1c-.47,4.2-.93,8.4-1.43,12.59-.8,6.75.06,13.14,4.37,18.64,2.92,3.72,4.4,7.4.8,11.47-4.77,5.39-9.7,11.15-17.83,9.63-5.8-1.08-6.43-6.58-7.08-11.46-1.1-8.2.12-15.94,4.92-22.86,4.47-6.44,8.42-13.33,16.25-18.02Z" fill="#232023" stroke-width="0"/></g></svg>