<?xml version="1.0" encoding="UTF-8"?><svg id="b" xmlns="http://www.w3.org/2000/svg" viewBox="0 0 696.1 443.46"><g id="c"><ellipse cx="348.05" cy="221.73" rx="348.05" ry="221.73" fill="#facc28" stroke-width="0"/><path d="M348.05,429.18c-92.67,0-177.42-20.64-238.65-58.12-30.33-18.56-53.9-40.6-70.07-65.49-16.62-25.59-25.05-53.8-25.05-83.84,0-76.1,51.71-123.54,95.09-149.95C170.28,34.7,255.05,14.28,348.05,14.28s177.29,20.73,238.64,58.36c30.33,18.6,53.91,40.65,70.08,65.53,16.62,25.56,25.04,53.67,25.04,83.56,0,76.13-51.71,123.58-95.08,149.98-60.9,37.06-145.67,57.47-238.68,57.47Z" fill="#126450" stroke-width="0"/><path d="M143.76,269.19c0-30.9-.03-61.52.04-92.15,0-3.23-1.15-2.94-3.32-1.77-5.74,3.1-11.57,6.05-17.3,9.17-1.92,1.05-3.05,1.51-4.34-1.08-6.36-12.74-12.87-25.4-19.58-37.96-1.47-2.74-.21-4.08,1.39-5.71,11-11.24,23.72-20.2,37.25-28.09,36.65-21.36,76.62-33.22,117.99-40.85,34.28-6.33,68.93-8.73,103.75-9.73,41.6-1.2,82.41,4,122.79,13.56,33.36,7.9,65.44,19.18,95.7,35.4,5.36,2.87,10.41,6.31,15.67,9.35,1.77,1.02,2.39,2.28,2.38,4.31-.07,17.25-.08,34.5.01,51.74.01,2.52-.73,3.26-3.27,3.25-32.86-.08-65.73-.08-98.59,0-2.69,0-3.13-1-3.1-3.36.11-9.51-.06-19.03.11-28.55.05-2.75-.6-4.17-3.39-5.18-27.48-10-55.72-16.45-84.85-19.29-40.78-3.97-81.01-.65-120.88,8.32-11.5,2.59-11.52,2.51-11.52,14.41,0,11.75.14,23.5-.09,35.24-.07,3.54.62,4.69,4.48,4.78,58.27,1.39,116.54,3.03,174.81,4.4,4.63.11,5.86,1.37,5.75,5.97-.33,13.82-.31,27.66,0,41.48.1,4.14-1.29,4.81-4.98,4.88-49.95.89-99.91,1.92-149.86,2.93-8.47.17-16.95.56-25.42.56-3,0-3.68,1.02-3.66,3.85.11,20.52.13,41.04-.02,61.56-.02,3.04,1.11,4.02,3.83,4.68,15.91,3.9,32.07,6.2,48.35,7.72,18.51,1.73,37.1,3.11,55.67,2.23,32.06-1.53,64.04-4.09,95.16-12.77,4.88-1.36,9.48-3.4,13.88-5.91,2.84-1.62,4.1-3.82,4-7.27-.24-8.17.01-16.36-.13-24.53-.05-2.62.55-3.61,3.42-3.6,32.71.1,65.43.1,98.14,0,2.9,0,3.39.97,3.37,3.57-.12,14.57-.19,29.15.05,43.71.06,3.46-2.03,4.65-4.21,6.08-19.2,12.59-39.81,22.37-61.32,30.29-32.88,12.12-66.77,19.93-101.61,23.74-35.11,3.84-70.34,5.04-105.54,3.24-64.87-3.32-126.85-17.88-183.52-51.04-14.39-8.42-27.93-18.05-40.59-28.94-2.12-1.82-2.35-3.12-.98-5.51,6.79-11.84,13.5-23.73,20-35.73,1.47-2.71,2.64-2.73,5.07-1.38,6.45,3.58,13.04,6.89,18.98,10Z" fill="#fdfefd" stroke-width="0"/></g></svg>