<?xml version="1.0" encoding="UTF-8"?><svg id="b" xmlns="http://www.w3.org/2000/svg" viewBox="0 0 703.68 770.79"><g id="c"><path d="M168.96,607.07c-2.88-1.64-6.06-1.94-9.28-2.02,1.75-2.59,4.31-4.45,5.96-7.2,6.63-11.04,11.71-22.83,17.15-34.44,6.62-14.15,13.69-28.1,19.7-42.53,4.33-10.41,8.91-20.63,14.44-30.5,5.38-9.6,12.58-17.69,19.26-26.24.44-.56,1.1-1,1.73-1.37,6.35-3.78,11.89-8.53,16.91-13.93,2.86-3.08,6.01-5.89,8.89-8.96,6.92-7.4,13.74-14.88,17.11-24.76,1.02-3,2.26-5.93,1.51-9.22-.75.54-.86,1.41-1.02,2.16-1.3,6.12-4.55,11.22-8.29,16.09-2.86,3.73-5.67,7.49-8.46,11.27-1.09,1.47-2.31,2.78-3.73,3.93-15.18,12.35-29.29,25.83-42.33,40.43-1.12,1.25-2.03,2.56-2.78,4.04-5.24,10.35-9.85,20.99-14.38,31.66-9.09,21.42-17.95,42.93-29.2,63.38-4.74,8.62-10.33,16.85-13.63,26.24-3.16-.49-6.32-.99-8.76-3.35,2.55-1.83,3.94-4.55,5.26-7.23,10.69-21.69,21.05-43.54,29.36-66.29,2.51-6.88,7.27-12.76,8.77-20.07.4-1.96,1.48-3.63,2.46-5.35,1.46-2.56,3.51-4.84,4.1-7.83.52-2.65,1.71-4.92,3.28-7.09,1.15-1.59,2.18-3.31,3.04-5.08,3.18-6.55,7.65-12.08,13.05-16.9,2.16-1.92,4.2-3.95,6.06-6.17,6.53-7.82,13.79-14.84,22.45-20.31,1.61-1.02,3.1-2.23,4.64-3.35-4.03-.03-7.86.42-11.71.66-1.65.1-2.97.61-4.24,1.64-19.52,15.73-39.66,30.65-59.71,45.69-2.78,2.08-2.96,2.25-.55,4.78,3.19,3.36,5.07,7.51,4.9,11.77-.23,5.79-1.09,11.76-2.94,17.24-7.05,20.94-17.26,40.37-29.76,58.58-1.62,2.36-4.05,3.69-7.04,4.01-2.66.28-5.25,0-7.86-.37-5.63-.81-10.97-3.13-16.67-3.38-4.76-.21-8.22-3.1-12.11-5.16-.34-.18-.7-.51-.83-.85-1.07-2.83-2.42-5.53-3-8.58-.85-4.44.2-8.69.66-13,.19-1.81,3.49-5.05,4.89-4.92,2.63.26,5.17.94,7.61,1.96.79.33,1.45,1.97,2.48.24.52-.87,1.63-1.35,1.41-2.7-.61-3.77,0-7.57-.14-11.36-.05-1.51.42-2.47,1.74-3.18,3.28-1.78,5.72-4.33,7-7.84-2.2-1.23-4.3-1.1-6.23.42-1.57,1.23-3.16.61-4.69.09-1.2-.41-2.18-3.76-1.28-4.14,2.64-1.12,5.14-2.8,8.04-3.03,6.65-.53,13.12.38,19.39,2.77,3.46,1.32,6.29,3.03,6.84,7.12.15,1.12.54,2.26,1.06,3.27.79,1.54,2.37,2.65,3.9,2.32,1.51-.33,2.65-1.59,1.98-3.77-.69-2.26-.85-4.69-1.17-7.05-.81-6.13-2.32-11.94-6.95-16.49-1.7-1.67-3.69-2.53-6.13-3.13.37,2.23.93,4.08,1.85,5.82.29.56.7,1.07.17,1.8-.77,1.06-4.72,2.5-5.81,1.84-3.24-1.96-6.64-3.76-9.31-6.46-2.59-2.61-5.3-4.45-9.12-4.66-1.42-.07-3.06-.06-4.34-1.38-2.24-2.29-1.2-4.75-.61-7.14.25-1.02.49-1.67-.37-2.59-3.97-4.22-7.98-3.46-9.74,1.95-.1.31-.24.61-.36.91-.19-4.23,1.07-8.05,3.27-11.61,4.88,1.24,9.55,3.14,14.11,5.15,4.58,2.01,8.47.89,12.34-1.28,3.6-2.03,7.04-4.17,11.47-3.87,1.89.13,4.46-3.1,3.88-4.43-.92-2.1-1.74-4.24-3.25-6.07-3.42-4.13-6.71-8.36-10.08-12.53-.43-.52-.63-1.38-1.55-1.39-.29,2.38-.13,4.52,1.54,6.49,2.61,3.1,2.46,6.8,1.76,10.53-.1.51-.28.93-.71,1.24-2.92,2.13-5.78,4.51-9.68,2.04-.34-.21-.77-.28-1.17-.39-3.44-.94-6.17-3.52-9.64-4.34-6.97-1.65-13.92-3.4-21.12-3.77-.94-.05-1.63-.29-2.29-1.12-3.36-4.29-2.92-9.22-.58-13.19,5.64-9.57,10.98-19.34,17.02-28.67,3.05-4.7,5.13-9.97,8.63-14.36,1.34-1.68,2.16-3.22,1.25-5.34-.29-.67-.25-1.47-.5-2.16-.49-1.34.33-3.58-1.57-3.84-1.47-.2-3.25.32-4.65,1.33-.47.34-.97.63-1.45.94-.79-4.18-2.57-7.61-6.1-10.33-4.24-3.28-7.77-7.35-10.72-11.89-4.03-6.21-5.82-12.98-4.28-20.25,1.17-5.51.4-11.25,2.02-16.62,2.5-8.33,2.31-17.11,4.6-25.47,4.2-15.36,12.34-28.47,22.64-40.39.54-.62,1.05-1.26,1.58-1.89,8.4,4.53,16.82,9.03,25.19,13.6,43.28,23.62,86.54,47.26,129.8,70.93,1.3.71,2.19.75,3-.68-.38-.23-.71-.46-1.06-.66-38.95-21.77-77.9-43.53-116.84-65.31-12.43-6.95-24.83-13.95-37.24-20.93,8.18-8.33,17.04-15.88,26.37-22.88.78-.58,1.65-1.04,2.47-1.54-6.25,6.97-12.5,13.93-18.86,21.02,1.6.43,3.01.66,4.28,1.2,1.88.8,3.09.3,4.48-1.18,3.32-3.54,6.27-7.53,10.18-10.41,12.85-9.49,25.73-18.96,39.98-26.36,5.97-3.1,11.45-7.1,18.06-8.99,7.03-2,13.95-4.43,20.92-6.64,3.76-1.19,7.41-2.78,11.33-3.39,9.84-1.52,19.69-3,29.56-4.31,3.97-.53,7.91-1.62,12.01-1.04,6.11.87,12.25,1.56,18.37,2.36,7.59.99,15.22,1.74,22.73,3.12,6.86,1.26,13.61,3.2,20.39,4.86,8.84,2.17,17.78,3.84,25.59,9.16,5.97,4.07,12.94,6.75,18.64,11.11,11.17,8.55,22.72,16.74,31.94,27.59,4.73,5.57,10.64,10.1,14.39,16.54,3.24,5.55,6.58,11.04,9.84,16.57,3.01,5.11,6.38,10.06,8.84,15.42,3.73,8.14,6.83,16.57,10.18,24.89,1.1,2.73,2.41,5.33,2.53,8.43.21,5.26.92,10.5,1.23,15.76.33,5.74,1.18,11.46.52,17.24-.55,4.82-.89,9.67-1.43,14.5-1,8.89-1.06,17.91-4,26.53-1.75,5.13-1.99,10.9-4.69,15.53-6.22,10.7-10.78,22.49-19.85,31.39-.54.52-.91,1,.08,1.45,5.06,2.34,9.82,5.33,15.09,7.22-3.33,4.58-6.41,9.29-8.18,14.75-.55,1.71-1.61,3.21-3.11,4.32,0-2.88-.12-5.77.06-8.64.08-1.28-.29-2.16-.97-3.16-2.37-3.49-6.26-5.01-9.42-7.48-1.03-.81-1.94-.86-3.16-.33-4.45,1.93-8.93,3.8-13.46,5.54-1.79.69-2.03,1.45-1.45,3.28,9.57,30.08,19.04,60.2,28.58,90.29.51,1.6.44,2.6-1.06,3.68-3,2.17-5.82,4.6-8.72,6.91-2.59,2.06-5.28,3.68-8.76,4.1-9.88,1.18-19.64,3.29-29.71,2.66-5.09-.32-10.33-.67-15.32.13-16.55,2.67-33.15,5.19-49.46,9.19-1.55.38-1.86.91-1.4,2.34.97,2.97,1.97,5.94,2.67,8.98.41,1.76,1.26,1.76,2.62,1.41,7.25-1.85,14.54-3.53,21.75-5.53,8.04-2.23,16.03-4.35,24.48-2.3,1.57.38,3.24.31,4.78,1.03,6.48,3.05,12.43,6.73,16.25,13.08.3.49.74.89,1.04,1.38.73,1.16,1.72,1.49,3.1,1.48,4.78-.05,9.53-.46,14.27-.98.16,1.87,1.64,3.42,1.37,5.4-.69-.74-1.39-.99-2.49-.72-2.23.55-4.52.86-6.79,1.22-5.11.81-5.14.81-3.08,5.62,5,11.63,9.55,23.47,15.92,34.45,4.75,8.19,9.55,16.35,14.45,24.44,2.18,3.59,2.38,7.18.98,11.05-3.1,8.58-6.07,17.2-9.22,25.77-.6,1.62-.34,2.31,1.24,2.93,2.36.93,4.64,2.1,6.95,3.17-1.01,2.16-2.08,4.3-3.03,6.49-1.14,2.63-2.96,4.51-5.61,5.6.64-1.05,1.17-2.19,1.95-3.13,1.42-1.7,1.31-2.55-.87-3.62-11.73-5.78-23.42-11.65-35.01-17.69-7.94-4.14-16.3-5.95-25.2-6.08-5.89-.09-11.77-.85-17.68-.78-3.99.05-8.01-.63-11.97.88-5.22,1.99-10.62,3.5-15.86,5.45-6.28,2.34-13.03,3.51-18.67,7.51-3.49,2.47-7.2,4.63-10.79,6.97-1.65,1.08-3.55,1.98-4.81,3.41-7.44,8.49-14.72,17.12-22.09,25.68-.79.91-.61,1.28.37,1.74,2.45,1.14,4.87,2.35,7.3,3.53-5.44-.12-10.06-2.52-14.58-5.21,1.69-2.53,3.27-5.14,5.11-7.56,1.27-1.67,1.22-2.47-.66-3.73-20.51-13.76-41.06-27.49-61.32-41.61-4.56-3.18-8.22-4.35-12.59-.48-.3.26-.73.36-1.1.54-1.83-1.81-2.27-4.19-2.69-6.57.69-.45,1.37-.91,2.07-1.34,11.4-6.86,23.52-12.67,32.22-23.31,2.5-3.05,5.49-5.7,8.36-8.43,12.31-11.71,22.8-24.9,32.16-39.03,3.78-5.7,7.69-11.31,11.43-17.04.87-1.33,2.11-1.39,3.21-1.23,1.19.17.93,1.6,1.05,2.5.09.67-.28,1.43-.51,2.12-2.87,8.42-6.39,16.54-10.79,24.31-1.94,3.43-2.39,7.48-2.77,11.42-.06.68-.02,1.42.63,1.74.59.28,1.04-.35,1.49-.66,6.66-4.55,13.3-9.11,19.4-14.46,10.76-9.45,21.53-18.96,34.96-24.66.68-.29,1.34-.64,2-.96.58-.27.83-.58.65-1.34-2.1-8.82-4.47-17.56-9.19-25.4-4.68-7.76-9.85-15.22-14.33-23.09-1.97-3.46-2.54-7.59-.23-11.45,6.01-10.03,12.04-20.05,18.04-30.08,4.1-6.85,8.56-13.53,12.12-20.65,3.7-7.41,6.56-15.24,9.71-22.92,1.32-3.22,1.94-6.64,2.79-10.02-6.23-.39-10.4,2.36-13.78,7.01-6.45,8.86-13.11,17.58-19.67,26.36-.65.87-1.33,1.63-2.27,2.22-3.71,2.3-7.37,4.67-11.07,7-2.5,1.57-6.36,1.43-8.62-.45-2.77-2.3-4.92-5.05-5.72-8.68-.36-1.59-.78-3.17-1.35-5.49-2.69,9.04-5.25,17.35-7.63,25.73-1.59,5.6-1.61,11.58-4.03,16.99-1.81,4.05-3.62,8.09-5.37,12.17-4.22,9.83-8.58,19.64-14.32,28.66-6.19,9.72-13.11,18.98-19.63,28.49-4.23,6.18-8.77,12.14-12.64,18.57-5.15-5.79-11.99-8.47-19.22-10.31-10.15-2.58-20.02-5.76-28.72-11.84,1.98-.43,3.68.61,5.46,1.12,7.89,2.25,15.76,4.53,23.59,6.96,2.5.78,2.12-1.34,2.82-2.35.91-1.32-.14-1.6-1.13-1.98-8.8-3.39-17.59-6.82-26.38-10.24-.73-.29-1.36-.51-1.85.41-1.01,1.87-2.51,3.46-3.22,5.52ZM180.53,577.82c-.59.15-.69.54-.52,1.05l.03-.06c-1.25,1.3-2.97,2.36-2.33,4.62-.82,1.7-1.51,3.48-2.49,5.09-.99,1.63-.48,2.15,1.16,2.7,8.89,2.95,17.75,6,26.62,9.02,3.82,1.3,3.83,1.29,5.88-2.22,4.5-7.75,8.97-15.52,13.48-23.31-.35-.2-.55-.36-.78-.44-10.58-3.61-21.18-7.17-31.73-10.87-1.48-.52-1.85.08-2.39,1.14-1.98,3.89-4.02,7.75-6.04,11.61-.5-.09-.19.31-.29.47-.02.13-.08.24-.17.33-.55.11-.4.58-.48.93l.03-.07ZM435.36,414.6c3.88-.28,7.04-.74,8.58-4.94,1.35-3.68,3.65-6.99,5.72-10.36,1.8-2.94,4.08-5.65,5.23-8.92,2.84-8.02,4.62-16.26,4.81-24.84.09-3.96.2-7.86-.92-11.71-.49-1.68-1-3.4-1.16-5.13-.33-3.44-.59-7.02-1.97-10.09-3.77-8.4-7.19-17.01-12.08-24.83-7.82-12.5-15.93-24.82-23.91-37.22-2.36-3.67-4.78-7.18-8.47-9.81-5.5-3.92-10.69-8.28-16.04-12.4-1.62-1.25-3.11-2.7-5.04-3.55-6.1-2.68-12.19-5.39-18.28-8.09-.9-.4-1.76-.81-2.83-.66-2.22.32-4.45.35-6.71.36-7.51.03-15,.88-22.51,1.08-5.67.15-11.33.83-16.99,1.3-8.03.67-16.04,1.22-23.67,4.3-5.77,2.33-11.97,3.5-17.37,6.9-5.5,3.46-11.24,6.54-16.89,9.76-1.02.58-1.89,1.28-2.67,2.16-5.64,6.35-11.31,12.67-16.95,19.01-2.1,2.36-1.53,4.89,1.32,6.23,9.75,4.58,19.55,9,28.99,14.27,15.31,8.55,29.01,19.04,41.12,31.67,1.04,1.09,1.53,1.25,2.51-.12,5.04-7.04,10.2-13.98,15.29-20.98.88-1.22,1.94-2.21,3.08-3.17,8.74-7.36,18.7-12.9,28.29-19.01.81-.52,1.79-.83,2.74-1.05,4-.95,8.02-1.81,12.02-2.76.82-.2,1.61-.3,2.44-.17,2.76.43,5.52,1.09,8.29,1.23,3.88.19,5.81,3.2,9.23,5.18-2.78.79-4.93.89-6.86,1.82-7.3,3.5-14.91,6.05-22.85,7.62-1.22.24-2.32.71-3.25,1.61-2.59,2.53-5.22,5.04-7.89,7.49-.65.6-1.06,1.25-1.27,2.05-1.17,4.45-2.32,8.91-3.47,13.37-.2.79-.42,1.57.44,2.23,3.1,2.38,5.91,4.98,10.04,5.94,6.34,1.47,12.73,2.25,19.05,1.2,8.75-1.45,17.46-3.21,26.21-4.76,5.84-1.04,10.96.72,15.43,3.53,6.31,3.97,11.92,8.92,15.91,15.58,4,6.66,6.51,13.54,5.8,21.36-.54,5.97-1.32,11.84-3.77,17.49-2.84,6.54-5.45,13.2-8.7,19.84ZM94.14,361.19c.88,2.37,1.5,4.23,2.27,6.04.46,1.1.42,2.5,1.71,3.15,2.78,1.41,5.49,2.91,8.77,3.04,2.28.09,4.6.49,6.8,1.12,1.3.37,3.4.66,3.35,2.42-.1,3.1,1.9,4.72,3.67,6.64,3.34,3.63,5.59,7.62,4.63,12.89-.5,2.73,1.91,5.99,4.51,7.09,3.44,1.46,7.42,1.89,8.78,6.63.68,2.36,2.52,4.46,3.21,7.06,1.11,4.21,4.13,5.99,8.11,5.22,4.44-.86,8.89-1.69,13.33-2.54,1.47-.28,2.89-.14,4.37.16,3.98.82,7.19,3.21,10.67,5.03,2.35,1.23,4.85,2.02,7.27,3.03.93.39,1.89.25,2.57-.34.71-.61-.08-1.38-.27-2.03-.61-2.05-1.44-3.96-3-5.57-2.23-2.31-4.35-4.75-6.33-7.27-1.85-2.34-1.2-3.97,1.59-4.56,1.21-.26,2.42-.49,3.61-.8,3.72-.96,6.17,1.61,8.95,3.22,3.77,2.18,6.73,4.77,7.73,9.51,1.1,5.26,4.26,9.56,8.48,12.98.37.3.63.75,1.2.72,3.55-.18,6.21-4.49,4.81-7.77-.97-2.27-1.9-4.55-2.82-6.84-.55-1.36-1.23-2.67-1-4.26.16-1.1.39-1.47,1.67-1.37,8.52.67,14.57,4.75,17.57,12.82.94,2.54,2.63,4.31,4.45,6.09.42.41.81.89,1.43.26,2.53-2.62,5.87-2.37,9.01-2.22,4.96.23,9.86.08,14.74-.84.61-.11,1.07-.24,1.4-.8,3.17-5.37,7.51-10.02,9.66-16.03.96-2.69.39-5.32-.18-7.76-.36-1.54-2.99-1.09-4.57-1.64-1.39-.48-2.86-.74-4.3-1.09-48.62-12-97.24-24.01-145.87-36.01-7.17-1.77-14.34-3.52-21.99-5.39ZM248.23,734.17c1.67.47,3.19.68,4.49,1.31,2.68,1.3,4.12.37,5.74-1.98,5.28-7.62,10.29-15.35,17.84-21.26,9.08-7.11,18.49-13.48,29.34-17.38,6.01-2.17,12.06-4.36,18.36-5.69,6.99-1.48,13.98-1.65,21.1-1.03,11.42,1,22.76,2.51,33.87,5.2,9.89,2.39,19.91,4.41,29.4,8.29,5.48,2.24,11,4.38,16.51,6.55.68.27,1.59,1.11,2.03-.19.66-1.94,1.14-3.95,1.73-5.92.24-.81-.35-1.03-.84-1.28-5.33-2.74-10.25-6.25-15.99-8.25-7.37-2.57-14.49-6.15-22.04-7.9-11.28-2.61-22.83-4.1-34.44-4.72-3.35-.18-6.66-.14-10.02.31-3.04.4-6.19-.52-9.32-.23-3.5.32-7.01.87-10.49.73-2.28-.09-4.31.29-6.4.95-1.96.61-3.95,1.13-5.92,1.73-5.27,1.59-10.93,2.45-15.72,4.96-10.22,5.35-21.03,10.06-28.55,19.46-.1.13-.26.2-.38.32-3.6,3.62-7.59,6.95-10.69,10.96-3.55,4.6-6.32,9.82-9.62,15.09ZM277.41,383.07c-.11-1.3-.06-2.9-.43-4.4-.48-1.95-.73-4.12-2.39-5.54-2.44-2.08-4.89-4.14-7.53-6-10.53-7.41-22.33-12.61-33.24-19.35-3.6-2.22-7.23-4.58-11.51-5.5-1.46-.31-2.13-.13-2.54,1.45-2.31,9.07-4.68,18.13-7.16,27.16-.45,1.62-.09,2.11,1.44,2.5,6.44,1.66,12.86,3.43,19.28,5.16,12.21,3.29,24.42,6.61,36.65,9.85,2.93.77,8.24-1.32,7.44-5.34ZM236.66,224.94c-4.22.32-8.53,0-12.21,1.74-6.57,3.11-13.44,5.3-20.25,7.75-6.73,2.41-13.48,4.92-18.08,10.94-.86,1.13-2.18,1.74-3.38,2.46-7.44,4.46-14.51,9.36-20.3,15.95-2.94,3.34-6.14,6.46-9.85,8.97-1.28.87-1.11,1.46-.17,2.42,1.84,1.88,3.68,3.79,5.37,5.81,1.13,1.35,1.79,1.21,3.04.02,10.52-9.97,20.71-20.34,32.36-29.04,11.24-8.39,21.82-17.81,35.55-22.35,2.85-.94,5.3-3.09,7.94-4.68ZM312.61,353.06c-7.06.3-13.09,1.18-18.8,3.79-3.95,1.8-7.01,4.62-9.36,8.14-2.12,3.17-3.39,6.59-2.39,10.63.58,2.33,1.59,2.37,3.39,1.54.85-.39,1.18-1.05,1.51-1.82.94-2.19,2.26-4.28,2.81-6.56,1.19-4.92,5.13-6.66,9.13-7.47,7.15-1.45,14.44-.78,21.52.94,4.7,1.14,9.28,2.8,13.87,4.32,4.98,1.65,9.34,4.51,12.06,8.93,2.45,3.97,3.79,8.54,1.95,13.37-.26.68-.35,1.44-.47,2.17-.26,1.58-.88,2.84-2.15,3.97-2.65,2.35-5.1,4.91-7.59,7.44-.49.5-1.66.94-.73,1.94.84.91,1.16,2.86,2.68,2.51,4.12-.96,8.05-2.51,9.97-6.74,1.6-3.52,2.99-7.14,5.61-10.08.52-.59.69-1.25.71-2.03.23-9.62-2.46-17.65-11.79-22.19-.8-.39-1.52-1-2.18-1.61-8.61-8.11-19.38-10.17-29.73-11.16ZM418.24,572.69c-.06-.56-.04-.88-.13-1.17-2.21-6.45-4.29-12.94-6.68-19.32-3.57-9.53-7.9-18.77-11.23-28.4-3.95-11.43-6.79-23.16-9.87-34.84-1.54-5.85-1.66-5.75-7.74-5.75-1.84,0-1.93.6-1.53,2.1.98,3.65,1.73,7.36,2.77,10.99,4.49,15.64,10.22,30.88,15.21,46.35,2.83,8.77,7.59,17.03,7.13,26.67-.05,1.11.36,1.58,1.5,1.73,3.48.47,6.94,1.06,10.58,1.63ZM212.41,621.56c1.21.53,2.02.25,2.78-.56,1.02-1.08,2.06-2.11,2.88-3.37,3.79-5.88,7.13-12.05,10.84-17.97,14.45-23.09,25.21-47.86,33.46-73.73,6.17-19.34,12.09-38.76,18.39-58.05,4.44-13.6,10.21-26.71,14.86-40.24,2.15-6.25,3.74-12.6,5.04-19.04.13-.62.68-1.55-.5-1.81-.96-.21-1.82-.07-2.08,1.11-.09.4-.2.8-.32,1.19-1.62,5.26-2.86,10.68-4.95,15.75-5.81,14.09-10.03,28.68-14.6,43.18-7.71,24.45-16.17,48.66-24.22,73.01-3.75,11.35-8.27,22.39-13.85,32.93-5.04,9.52-10.82,18.65-16.27,27.96-3.82,6.53-7.62,13.06-11.45,19.64ZM348.49,441.57c-.03.08-.12.28-.14.48-1.1,9.31-2.2,18.62-3.29,27.93-.07.56-.29,1.26.32,1.58,2.69,1.43,4.77,4.07,8.3,3.85,4.7-.29,9.37.33,14.05.69,10.49.81,20.95,2.38,31.5,1.2,7.91-.88,15.86-1.59,23.39-4.57,2.23-.89,3.72-2.42,5.61-4.32-5.01.22-9.48.8-13.95,1.43-1.03.14-1.95.9-3.07.58-2.6-.73-5.19-.25-7.81-.07-6.49.43-12.8,2.4-19.46,1.62-7.74-.91-15.64-.35-23.27-2.42-.88-.24-1.74-.37-2.39-1.13-2.02-2.36-4.35-4.53-3.57-8.16.24-1.1.06-2.3-.05-3.45-.54-5.68-.47-11.62-6.18-15.24ZM427.73,579.1c-8.24-2.38-16.22-5.15-24.56-6.68-3.23-.59-6.39-2.11-9.64-1.82-6.55.59-13.1,1.42-19.55,2.65-9.69,1.84-19.3,4.1-28.94,6.2-.76.17-1.71.11-2.06,1.08-1,2.8-1.98,5.61-3.08,8.76,10.3-2.34,20.11-4.74,30-6.75,7.92-1.61,15.6-4.37,23.96-4.02,9.04.39,18.14-.03,26.83,3.05,3.01,1.07,5.21.53,7.05-2.48ZM401.48,483.48c.13,3.95.45,7.86,1.83,11.63.68,1.84,1.06,3.79,1.54,5.7,1.16,4.63,1.6,9.41,3.15,13.95,6.31,18.51,13.63,36.68,18.75,55.6,1.2,4.42,1.28,4.22,5.77,3.22,2.42-.54,2.39-1.44,1.8-3.5-4.72-16.55-11.56-32.34-17.39-48.49-4.78-13.23-9.79-26.36-10.64-40.6-.03-.49-.02-.92-.75-1-2.72-.32-4.16.88-4.06,3.5ZM202.35,617.73c2.83,1.65,4.53,1.18,5.9-1.49,1.09-2.12,2.14-4.26,3.28-6.36,6.34-11.72,13.05-23.26,18.99-35.17,10.94-21.9,18.05-45.33,26.21-68.32,5.08-14.33,9.35-28.96,14.84-43.15,6.91-17.87,14.13-35.62,21.21-53.42.39-.97,1.1-2.17-.39-2.69-1.61-.56-1.25,1.15-1.54,1.84-6.06,14.49-11.14,29.35-16.85,43.97-2.69,6.88-6.25,13.45-8.62,20.43-5.43,15.94-10.28,32.08-16.03,47.92-3.67,10.12-6.72,20.51-11.04,30.34-8.14,18.53-17.47,36.5-28.03,53.79-2.51,4.12-4.4,8.65-7.92,12.29ZM339.49,494.08c-1.77,4.44-3.22,8.36-4.9,12.17-.78,1.77-.55,2.99.7,4.43,5.56,6.4,8.92,13.94,11.15,22.03,2.45,8.87,5.04,17.7,7.97,26.44.71,2.11,2.44,4.11,4.06,4.23,1.45.1,2.74-2.26,3.34-4.34.88-3.05.44-6.01-.46-8.74-4.11-12.48-7.96-25.1-14.55-36.59-2.44-4.25-4.42-8.62-5.32-13.45-.36-1.96-1.1-3.78-1.98-6.17ZM116.58,278.73c-1.03.39-1.29,1.52-1.69,2.4-.62,1.37.83,1.38,1.48,1.73,37.73,19.97,75.49,39.9,113.23,59.85,13.6,7.19,27.19,14.39,40.81,21.54.52.27,1.27,1.32,1.84.31.45-.8.19-1.78-.88-2.23-.3-.13-.58-.32-.87-.47-50.81-27.45-101.62-54.9-152.44-82.35-.43-.23-.87-.46-1.49-.78ZM234.99,472.82c.89.04,1.28.1,1.66.08,7.34-.45,14.63-.57,21.34,3.17,1.59.89,1.78-.33,2.12-1.33,2.36-6.91,4.71-13.83,7.08-20.74,1.77-5.18,3.56-10.35,5.34-15.52-.16-.11-.31-.22-.47-.33-12.22,11.43-24.43,22.86-37.07,34.68ZM122.95,292.05c-1.14.2-.95,1.25-1.19,1.91-4.96,12.99-7.85,26.61-12.06,39.83-1.02,3.21-2.08,6.41-2.95,9.66-1.25,4.68.16,6.71,4.64,7.71,2.06.46,2.78.06,3.23-2.05,2.27-10.61,4.58-21.21,7.12-31.76,1.65-6.88,4.61-13.34,6.98-19.99.23-.65,1.02-1.55.32-2-1.93-1.24-4.02-2.22-6.08-3.32ZM310.94,375.46c-.23,1.65-.36,3.05-.64,4.41-.39,1.86.12,3.11,1.97,3.89,1.67.7,2.96,1.82,4.03,3.44,1.33,2.02.07,2.55-1.27,2.86-4.09.94-8.12,1.08-11.9-1.3-2.78-1.75-5.63-3.42-8.53-4.97-1.72-.92-3.26-1.94-4.1-3.75-.91-1.97-2.06-1.87-3.59-.66-1.16.92-2.43,1.71-3.72,2.43-1.18.65-1.12,1.21-.42,2.29,2.31,3.6,5.06,6.64,9.02,8.49,4.63,2.17,9.42,4.32,14.41,4.82,5.18.52,10.53-.39,15.37-2.76,1.89-.92,3.85-2.08,4.41-4.29.88-3.44-.83-6.33-3.26-8.26-3.46-2.74-7.51-4.68-11.76-6.64ZM285.48,472.67c3.05-2.36,5.69-4.43,8.37-6.46,1.82-1.38,6.21-1.61,7.01-.28,1.1,1.8,2.45,3.49,2.65,5.76.15,1.71.51,3.41.9,5.09.29,1.24,1.11,2.55,2.25,2.64,1.05.08,2.44-.54,3-1.8.63-1.42,1.35-2.79,1.55-4.39.61-4.89.92-9.83,2.29-14.61.51-1.77.22-3.31-1.32-4.64-4.24-3.67-9.23-2.8-14.03-2.22-3.42.42-5.7,2.75-7.02,6.11-1.04,2.66-2.48,5.2-3.93,7.67-1.22,2.08-1.47,4.31-1.72,7.15ZM121.73,350.85c.23.82-.74,2.15.39,2.96,1.07.76,3.64-.61,3.95-1.94,1.43-6.24,2.16-12.72,4.53-18.66,3.8-9.51,6.97-19.3,11.66-28.46,1.51-2.95,1.27-2.97-1.89-4.26-1.62-.66-2.46-.67-3.23,1.23-4.01,9.81-8.39,19.48-11.54,29.61-1.95,6.27-3.8,12.6-3.87,19.52ZM95.5,346.27c-.08.67-.25,1.12.49,1.53,2.48,1.38,3.64.96,4.29-1.71,4.13-17.02,8.24-34.04,12.41-51.05.49-1.99,1.21-3.93,1.86-5.88.48-1.45-.82-1.79-1.51-2.51-.49-.51-.87-.28-1.13.25-.94,1.9-2.42,3.56-2.57,5.82-.25,3.89-1.13,7.62-2.62,11.24-.62,1.51-1.05,3.12-1.43,4.71-1.46,5.99-2.73,12.02-4.47,17.95-1.92,6.54-3.57,13.17-5.31,19.65ZM295.41,447.51c3.03.37,5.81.05,7.94-2.56.72-.88,1.66-1.61,2.59-2.29,3.14-2.28,7-3.77,10.53-3.56,5.6.34,11.17,1.97,16.04,5.17.49.32.89.65,1.08,1.27.82,2.58,1.98,5.04,2.44,7.75.66,3.87,1.8,7.68,1.15,11.72,1.33-1.83,2.64-3.55,3.05-5.69,2.36-12.32-3.46-18.76-14.57-22.51-4.01-1.35-8.09-.92-12.22-.61-8.05.61-14.12,4.14-18.03,11.3ZM199.48,331.78c.25-.85-.36-.96-.76-1.18-1.01-.56-2.11-.97-3.04-1.64-1.61-1.15-2.14-.42-2.71,1.12-3.97,10.81-8.01,21.59-12.02,32.38-1.15,3.08-1.09,2.92,1.93,4.05,2.12.79,2.9.27,3.69-1.8,4.04-10.6,8.27-21.14,12.42-31.69.18-.46.36-.92.49-1.24ZM319.56,450.28c.65.18.95.27,1.26.34,5.06,1.21,6.38,4.9,4.24,9.27-3.73,7.61-7.33,15.28-10.84,22.99-.84,1.85-1.64,2.63-3.83,2.13-2.31-.53-4.89-1.07-6.58,1.65-.8,1.3-.86,2.78-.48,3.98.3.95,1.77.33,2.7.33,1.81,0,3.62-.23,5.43-.19,1.25.02,1.89-.44,2.46-1.55,5.53-10.85,11.13-21.66,16.7-32.49.45-.86.81-1.63.52-2.76-1.51-5.95-5.93-7.53-11.58-3.69ZM289.87,731.81c2.06-1.4,4.32-2.89,6.51-4.48.44-.32,0-.91-.22-1.32-2.74-5.24-5.51-10.46-8.2-15.72-.52-1.01-.99-1.04-1.88-.54-2.79,1.58-5.58,3.16-8.43,4.62-1.15.59-1.15,1.04-.41,2,3.73,4.81,7.39,9.68,11.09,14.52.33.43.56,1.06,1.53.92ZM200.38,545.53c.46.22.74.41,1.05.5,8.72,2.35,17.45,4.7,26.18,7.01,4.55,1.21,4.51,1.16,6.01-3.24.35-1.03.29-1.35-.81-1.71-8.51-2.76-17.01-5.59-25.49-8.44-.78-.26-1.34-.36-1.95.34-1.6,1.85-3.27,3.64-4.99,5.54ZM305.23,554.81c-.17.68-.38,2.09-.88,3.37-.75,1.91-.1,3.07,1.34,4.43,7.5,7.03,14.89,14.18,22.28,21.32.83.8,1.59,1.65,2.38.17.58-1.08,3.17-1.49,1.07-3.59-4.76-4.78-9.26-9.81-14.05-14.55-3.96-3.92-8.2-7.55-12.14-11.15ZM227.49,561.62c-.34-.73-1.11-.8-1.74-1.03-6.78-2.51-13.57-5-20.35-7.52-5.06-1.88-4.97-1.82-8.49,2.31-1.39,1.63-.74,2,.81,2.53,7.78,2.64,15.53,5.37,23.32,7.99,1.01.34,2.23,1.49,3.15.52,1.28-1.35,2.16-3.09,3.3-4.81ZM334.56,691.82c-1.15,0-2.31,0-3.46,0-3.1,0-3.81.95-2.94,3.97.13.47.42.89.63,1.33,1.42,2.96,2.86,5.91,4.23,8.9.65,1.42-.5,3.72,1.14,4.37,1.35.53,3.2-.22,4.83-.41.41-.05.81-.19,1.21-.21,1.43-.06,1.95-.66,1.8-2.17-.3-3.03-.42-6.07-.57-9.11q-.33-6.67-6.87-6.67ZM212.86,340.18c-.35-1.34-1.83-1.59-2.75-2.43-1.21-1.1-1.82-1.09-2.37.73-2.87,9.6-5.8,19.19-8.89,28.72-.74,2.29.62,2.26,1.98,2.8,1.52.61,2.31.48,2.84-1.27,1.98-6.44,4.1-12.84,6.17-19.25.98-3.05,1.97-6.09,3.02-9.3ZM387.06,714.22c1.16.54,1.38-.22,1.6-.96.41-1.42.92-2.81,1.21-4.26.52-2.59,2.96-5.64,1.46-7.54-1.39-1.75-4.91-1.82-7.49-2.63-.08-.02-.15-.07-.23-.09-.91-.3-1.38.04-1.54.98-.65,3.8-1.32,7.59-2.01,11.39-.18.97.09,1.57,1.12,1.79,2.01.43,4,.9,5.89,1.32ZM336.06,409.75c-1.02-1.73-2.29-3.75-5.28-3.48-3.24.29-6.43-.28-9.62-.61-1.09-.11-2.11.62-3.09.33-2.46-.73-5.06-.22-7.38-.63-3.83-.68-1.88,1.38-1.78,2.62.1,1.3.89,1.75,2.18,1.64.97-.08,1.97.12,2.95.12,7.37.01,14.73,0,22.02,0ZM231.54,479.82c2.35.55,4.58,1.05,6.79,1.58,5.02,1.19,10.06,2.3,15.04,3.65,1.71.46,2.42-.15,2.97-1.53.7-1.74-.99-1.36-1.63-1.71-1.88-1-3.81-1.94-5.81-2.64-5.76-2-11.54-3.11-17.36.65ZM327.23,595.77c5.66-.05,9.01-2.74,10.21-8.05.12-.55.46-1.05.63-1.6.19-.62,1.05-1.31.08-1.9-.72-.44-1.44-1.2-2.45-.65-.92.5-1.97.77-2.55,1.8-1.96,3.5-3.96,6.97-5.92,10.39Z" fill="#fad00a" stroke-width="0"/><path d="M157.02,214.53c-7.2-4.09-14.46-8.05-21.59-12.28-7.48-4.44-15.27-8.37-22.93-12.52-.84-1.33-3.49-1.12-3.33-2.71.13-1.29,1.83-2.42,2.83-3.62.11-.13.22-.24.32-.38,1.41-2,.81-4.38-1.49-5.07-5.42-1.62-10.66-4.04-16.38-4.42-2.39-.16-3.28-1.62-4.1-3.31-.48-1-1.34-2.3-.73-3.21.55-.82,1.77.01,2.65.38.13.06.31,0,.47-.02,3.77-.3,7.51.19,11.23.65,2.1.26,4.14-.06,6.2.02,1.18.04,1.48-.81,1.52-1.83.04-.98-.33-1.52-1.36-1.68-7.39-1.16-14.78-2.34-22.17-3.53-2.24-.36-4.55-.3-6.55-1.83-1.07-.82-.88-1.56-.68-2.55.27-1.37,1.22-.81,1.93-.71,4.95.7,9.96.92,14.93,1.47,4.41.48,8.92.27,13.32,1.19.55.12,1.18.1,1.72-.04,3.38-.87,6.83-.69,10.26-.9.66-.04,1.64,1.29,1.99-.18.26-1.11.11-2.18-1.25-2.86-2.06-1.04-4.21-1.38-6.44-1.39-11.47-.05-22.88-.91-34.21-2.62-4.09-.62-8.01-2.12-11.41-5.08,3.58-.82,6.86-.91,10.25-.41,2.42.35,4.94,1.26,7.23.96,3.11-.41,5.84.13,8.58,1.23,1.89.76,3.77.97,5.78.77,4.59-.44,9.21-.96,13.8-.37,2.47.32,3.95-.94,5.28-2.47,2.2-2.52,1.53-4.58-1.7-5.49-2.06-.58-4.14-1.22-6.25-1.42-10.26-.96-20.53-1.78-30.79-2.63-2.03-.17-4.05-.31-5.98-1.63,1.61-.89,2.35-2.95,4.43-2.59,6.73,1.14,13.47,2.27,20.16,3.59,3.56.7,7.08,1.66,10.75,1.34,3.77-.33,7.55-.66,11.3-1.18,1-.14,2.4-.4,2.48-1.92.06-1.15-.28-2.04-1.62-2.38-7.49-1.9-14.88-4.18-22.49-5.62-6.04-1.14-11.98-2.74-17.68-5.6,2.48-2.5,5.45-1.8,8.07-1.49,13.1,1.57,25.42,5.74,37.27,11.51,3.34,1.63,7.07,1.19,10.49-.42,1.13-.53,1.34-1.51.18-2.29-1.71-1.13-3.26-2.5-5.24-3.24-12.25-4.54-24.51-9.04-37.05-12.75-.71-.21-1.48-.19-1.34-1.33.16-1.24.95-1.08,1.78-1.03,4.16.27,8.35.4,12.17,2.43.86.46,1.83.73,2.77,1.03,10.42,3.32,20.88,6.55,30.74,11.37,1.78.87,3.57,1.13,5.49.96,1.97-.17,2.7-1.5,1.56-3.17-1.6-2.33-3.51-4.31-6.32-5.27-2.8-.95-5.6-1.96-8.29-3.18-7.19-3.25-14.96-5.03-21.88-8.97-1.6-.91-3.68-.92-3.55-3.6,3.12.34,6.4-.28,9.32.81,10.32,3.84,20.83,7.24,30.75,12.11.74.36,1.46.69,2.3.83,2.1.36,2.63-1.21,3.36-2.58.88-1.64-.88-1.62-1.48-2.28-.42-.46-1.12-.67-1.7-.99-8.28-4.45-17.18-7.48-25.69-11.4-.79-.36-1.91-.4-2.03-1.52-.08-.77-1.47-2.19.1-2.25,2.37-.09,4.87-.26,7.13,1.25,3.28,2.2,6.76,4.1,10.12,6.17.9.56,1.62.53,2.47-.08,1.15-.82.06-1.45-.14-2.11-.26-.86-.65-1.64-.74-2.58-.18-1.8.36-2.32,2.27-2.43,2.43-.14,3.73,1.35,5.36,2.54,2.16,1.57,3.81,3.92,6.73,4.36,2.27.34,3.08-.52,2.43-2.76-.65-2.22-1.62-4.31-2.83-6.28-.58-.94-.58-1.35.62-1.96,3.3-1.68,6.16-.1,8.06,1.85,4.18,4.29,8.95,8.09,12.16,13.28.96,1.55,2.21,2.87,3.5,4.15.57.57,1.29.98,1.97.82.68-.16.61-1.06.75-1.69.35-1.67.17-3.19-.84-4.68-1.67-2.45-3.13-5.04-4.78-7.5-.87-1.29-.96-2.57-.71-4.44,1.18,2.03,2.51,3.21,4.23,3.91,2.68,1.09,4.78,2.87,6.34,5.28.77,1.18,1.99,1.66,3.16,2.27.78.41,1.19.12,1.67-.44.55-.63.17-1.04-.25-1.46-4.32-4.28-8.4-8.84-13.03-12.76-3.36-2.85-6.13-5.6-5.81-10.34.04-.6-.67-1.37.12-1.76.66-.33,1.5-.1,2.11.34.45.33.78.84,1.13,1.29,4.31,5.52,7.51,11.99,14.07,15.56,1.71.93,2.85,2.93,4.24,4.46.68.74,1.43,1.32,2.39,1.69.88.35,1.39.37,1.45-.77.08-1.47.09-2.81-.57-4.28-1.23-2.72-3.39-4.37-5.7-5.97-4.51-3.12-7.66-7.41-10.23-12.17-.89-1.65-.34-3.56.54-4.62.78-.92,2.5.29,3.73.84.35.16.6.55.9.84,6.02,5.8,11.96,11.67,17.1,18.29,1.98,2.55,4.32,4.75,6.67,6.95.98.91,1.58.12,2.32-.14.81-.29.75-.85.43-1.54-2.15-4.72-5.02-9.03-9.36-11.86-5.97-3.9-9.7-9.48-13.11-15.45-.86-1.5-.06-2.66,1.1-2.93,1.44-.34,3.2-.27,4.31,1.11,2.15,2.68,4.71,5.14,5.33,8.74.52,3.03,2.33,4.73,5.25,5.35.84.18,1.75,1.12,2.51.32.85-.9.64-2.07.22-3.25-1.04-2.91-2.42-5.63-4.74-7.69-2.73-2.41-3.48-5.19-2.09-8.55.07,0,.26-.06.38.01.36.2.7.43,1.03.67,4.68,3.27,7.8,7.82,9.94,12.96,1.63,3.92,4.21,7.05,6.93,10.13,1.42,1.6,3.24,2.71,5.37,3.35,1.49.44,1.87,0,1.88-1.4.02-3.02-.35-5.85-2.48-8.26-2.12-2.41-4.05-4.99-6.07-7.5-1.56-1.94-2.56-4.22-3.76-6.37-.89-1.59-.09-3.24.75-4.36.46-.62,2.03.53,2.66,1.25,3.25,3.69,6.49,7.42,9.08,11.61,2.02,3.28,3.42,6.93,5.84,10.01,1.31,1.67,3.12,1.28,4.73,1.44,1.22.13,1.28-1.37,1.14-2.07-.76-3.78-.75-7.99-4.49-10.46-2.83-1.87-4.43-4.36-4.36-7.78.02-.95-.79-2.41.72-2.74,1.26-.27,2.6.1,3.33,1.54,1.19,2.35,2.46,4.65,3.72,6.97.63,1.15,1.28,2.29,1.96,3.42.91,1.51,2.34.93,3.57.75,1.3-.19.8-1.4.92-2.23.32-2.18-1.29-3.65-2.06-5.42-.62-1.44-1.11-2.79-.47-4.39,2.52,1.81,4.3,3.97,5.49,6.69.85,1.95,1.99,3.78,3.03,5.65.36.65.78,1.31,1.7,1.18,1.14-.17.79-1.12.81-1.76.05-1.31-.1-2.63-.08-3.95.02-1.65-.78-3.28-.28-5.08,4.56,4.39,8.21,9.02,9.74,15.24,1.08,4.37,4.59,7.5,7.29,11,.81,1.05,1.96,1.39,3.3.72,1.38-.69,1.4-1.77,1.26-3.1-.45-4.21-2.24-7.88-4.53-11.32-2.78-4.19-5.78-8.22-8.43-12.5-1.15-1.86-.93-3.21.3-4.76,5.61,6.17,10.07,12.97,13.2,20.57,1.07,2.6,2.94,4.05,5.36,5.06,2.52,1.06,3.37.56,3.39-2.11,0-.6-.36-1.24-.64-1.82-2.36-4.95-5.72-9.17-9.2-13.38-3.43-4.14-4.45-7.39-2.14-11.36,1.16.65,2.14,1.49,3.03,2.48,2.24,2.5,3.45,5.59,4.98,8.49,1.61,3.04,2.74,6.34,5.26,8.87,1.15,1.15,2.7,1.57,3.79,1.1,1.18-.51.46-2.14.23-3.3-1.01-5.05-4.42-8.95-6.69-13.37-1.75-3.41-2.03-6.48-1.33-10.13,1.99,1.63,3.83,3.14,5.68,4.64.53.43.87.94,1.09,1.6,1.18,3.59,2.71,7.07,3.39,10.81.42,2.33,1.65,4.28,2.64,6.35.76,1.58,2.46,1.43,3.69,1.31,1.11-.11,1.78-1.46,1.57-2.7-.42-2.49-.79-4.94-2.52-7.08-2.88-3.55-4.4-7.87-6.05-12.09-.83-2.12,1.44-2.22,2.22-3.29.36-.5.88-.73,1.37-.04,1.62,2.27,4,4.1,4.88,6.79,1.67,5.08,4.82,9.58,5.69,14.95.13.8.61,1.41,1.5,1.36,1.13-.06,1.13-1.12,1.27-1.84.1-.48-.3-1.08-.55-1.6-2.08-4.29-2.11-9.09-3.32-13.6-.45-1.69.08-3.63.17-5.71,3.74,3.17,5.99,6.8,7.19,11.14.73,2.63,1.01,5.33,1.54,7.99.41,2.08.76,4.22,1.94,6.06.35.55.66,1.19,1.5,1.03.83-.16.5-.9.69-1.39.58-1.49.2-2.96-.26-4.34-1.81-5.35-3.7-10.66-3.83-16.4-.02-.85-.23-1.63.78-2.05,1.17-.49,1.37.51,1.8,1.15,1.83,2.68,3.18,5.57,3.65,8.8.43,2.93.81,5.87,1.23,8.8.5,3.5.22,7.08,1.02,10.56.14.63.24,1.35,1.14,1.36.79,0,.82-.68,1.04-1.18.46-1.05.94-2.1,1.34-3.17.74-1.99,2.82-1.72,3.98-1.55,1.11.17.03,1.82-.12,2.82-.11.73-.47,1.45-.43,2.17.08,1.39.36,2.39,2.37,2.17,3.14-.35,4.56-2.82,4.27-6.49-.27-3.53-.4-7.07-.7-10.6-.13-1.47.92-1.72,1.81-2.26,1.13-.69,1.45.32,1.94.87,1.18,1.32,1.82,2.79,1.73,4.69-.26,5.69.06,11.36.85,17.01.28,2,1.98,3.57,3.44,2.81,1.74-.9,3.36-2.37,3.48-4.43.15-2.78.16-5.58-.19-8.39-.52-4.16-1.75-8.38.07-12.52.74,0,.95.54,1.15.94,2.08,3.99,3.09,8.27,3.5,12.73.5,5.39-.07,10.87,1.34,16.2.62,2.35,3.34,3.78,5.65,2.87,1.97-.77,2.48-2.37,1.79-5.66-.86-4.1-2.42-8.02-3.08-12.19-.65-4.07-1.47-8.11-1.36-12.25.03-1.1.13-2.64,1.33-2.9,1.33-.3,1.77,1.12,2.23,2.2,1.43,3.29,2.07,6.74,2.34,10.3.44,5.84,2.1,11.46,3.21,17.18.29,1.49,2.98,3.41,3.79,2.85,1.65-1.13,3.25-2.48,2.93-4.77-.69-4.87-1.05-9.8-3.17-14.39-1.85-4-1.03-8.08-.05-12.18,1.94.69,2.79,1.96,3.28,3.65,1.33,4.65,3.44,9.2,2.85,14.15-.59,4.95.81,9.6,1.49,14.37.36,2.53,2.34,1.57,3.7,1.58,1.42,0,2.59-.72,2.37-2.46-.26-2.12-.52-4.25-.95-6.34-1.14-5.51-.96-11.15-1.69-16.69-.33-2.46.19-4.11,1.87-5.68,2.97,4.57,3.4,6.08,3.82,11.24.54,6.65,1.22,13.28,1.89,19.91.27,2.62,1.97,4.21,3.62,3.37,1.43-.73,2.66-1.67,2.93-3.64.66-4.81.74-9.65.94-14.54,1.61.27,2.25,1.09,2.4,2.67.28,3.05.04,6.08,0,9.12-.02,1.53.43,2.89.86,4.3.38,1.25,1.07,1.46,2.21,1.31,1.98-.25,2.59-1.49,2.56-3.27-.05-3.79-.07-7.59-.15-11.38-.06-2.59.12-5.14,1.01-7.64.43,1.23.72,2.48.9,3.73.95,6.43.62,13,1.92,19.4.22,1.09,0,2.47,1.54,2.68,1.5.2,2.99.1,3.87-1.48,2.13-3.81,1.72-7.81.44-11.64-1.39-4.15-3.07-8.18-2.67-12.67.07-.8-.24-1.93,1.22-2,1.19-.06,1.78.49,2.16,1.56.79,2.16,1.53,4.31,2.02,6.59,1.38,6.33,1.3,12.77,1.78,19.17.1,1.34.38,2.2,1.75,2.46,1.35.26,2.44-.19,3.07-1.41.52-1.02.95-2.08.92-3.29-.12-4.69-.41-9.37-.9-14.05-.36-3.45-.43-6.93-.64-10.57,2.1.71,2.94,1.87,3.58,3.57,1.85,4.94,1.79,9.82.04,14.71-.78,2.16-.72,4.36-.78,6.58-.03.97.23,1.4,1.3,1.61,2.74.53,3.51.05,3.84-2.83.16-1.39.3-2.78.43-4.17.55-5.61,1.1-11.23,1.65-16.93,3.2,1.77,3.26,1.84,3.11,4.98-.28,5.84-.51,11.69-.94,17.52-.15,2.06.65,3.71,1.53,5.35.8,1.48,2.68,1.41,3.74.08.91-1.15,1.28-2.36,1.27-3.86-.04-5.44.1-10.89.08-16.33,0-1.33.75-1.6,1.73-1.97,1.35-.51,1.25.66,1.6,1.26,2.27,3.93,2.54,7.97,1.17,12.34-1.39,4.45-2.76,9-1.43,13.76.18.65-.22,1.78.71,1.87.99.09,2.12-.02,2.85-1.05,2.35-3.32,4.41-6.72,4.14-11.04-.1-1.56.05-3.13.15-4.69.16-2.52.46-5.01,2.08-7.1,2.22,1.22,2.6,3,2.03,5.24-.47,1.83-.76,3.71-1.05,5.58-1.07,6.82-2.97,13.51-3.27,20.45-.12,2.68.6,3.43,3.65,3.42,1.87,0,1.32-1.79,1.36-2.78.21-5.1,3.19-8.8,5.95-12.72,1.67,2.04,1.83,2.31,1.29,4.5-.38,1.56-.23,3.11-.35,4.66-.16,2.13,1.42,2.45,2.79,2.8,1.55.39,1.15-1.23,1.51-1.95,1.55-3.06,1.13-6.42,1.29-9.7.07-1.38,2.35-3.95,3.3-3.86,1.78.17,2.47,1.81,2.21,4.27-.62,5.78-2.24,11.29-4.25,16.69-.77,2.05-.01,3.07,1.54,3.99.57.33,1.23.52,1.75.91,1.4,1.05,2.22.65,3.04-.81,1.69-3.03,2.02-6.42,2.71-9.68,1.04-4.91,1.83-9.87,4.67-14.18.3-.45.43-1.14,1.12-1.18.86-.04,3.66,3.32,3.52,4.3-.4,2.83-.54,5.69-1.94,8.35-1.76,3.34-3.22,6.85-4.78,10.3-.69,1.52-1.3,3.07-1.92,4.55,3.81.99,6.35-.38,8.15-3.37.42-.7.83-1.42,1.19-2.15,2.43-4.85,4.91-9.68,7.25-14.58.79-1.65,2.06-2.74,3.44-3.77.33-.25.82-.92,1.21-.26.92,1.55,2.51,2.8,1.56,5.09-1.44,3.51-3.26,6.81-5,10.17-1.88,3.63-4.43,6.93-5.3,11.08-.3,1.45-.49,2.67,1.02,3.31,1.39.59,2.58.28,3.65-1.04,3.59-4.45,6.75-9.14,8.95-14.44,1.11-2.68,2.57-5.14,4.44-7.37.74-.89,1.39-.8,2.36-.47,1.17.39.89,1.11.82,1.95-.23,2.62-1.07,4.9-2.85,6.92-1.63,1.85-3.14,3.84-4.48,5.91-1.74,2.69-3.33,5.49-3.76,8.75-.08.58-.43,1.38.28,1.8.59.34,1.13-.22,1.55-.53,3.05-2.26,6.04-4.6,7.53-8.28.85-2.08,2.05-3.95,3.34-5.75,1.09-1.54,3.12-1.69,4.79-.34,1.62,1.3-.29,1.94-.76,2.65-3.91,5.88-8.51,11.31-11.35,17.87-.55,1.27-1.39,2.77.19,3.71,1.37.81,2.96,1.81,4.57-.04,2.05-2.36,4.6-4.28,6.4-6.87,1.46-2.11,3.63-2.71,5.89-3.45-.03,1.37-1.9,2.12-.79,3.48,1.09,1.33,2.44.47,3.66.16,1.62-.42,3.27-.33,4.91-.4,1.35-.06,1.57.71,1.37,1.71-.19.97-.73,1.74-1.62,2.3-2.61,1.65-4.63,3.97-6.7,6.2-1.33,1.43-2.39,3.12-2.09,5.32.12.9.55,1.35,1.34,1.5.76.15,1.5.55,2.3-.15,2.76-2.41,5.32-4.97,7.56-7.92,2.1-2.77,5.12-4.26,8.62-4.69.07.08.14.15.21.23-.21,2.24-1.55,3.77-3.24,5.03-2.3,1.72-2.36,4.17-2.32,6.67,0,.66.17,1.27.99.79,3.27-1.91,7-3.62,8.55-7.18,1.02-2.34,2.25-2.07,3.95-1.89,1.22.13,1.57.55.83,1.72-1.32,2.1-2.58,4.19-4.58,5.76-2.8,2.2-5.17,4.86-7.44,7.58-1.92,2.3-2.61,5.1-2.29,8.07.17,1.64,1.46,2.03,2.8.92,1.14-.95,2.2-1.99,3.41-2.85,4.33-3.07,6.63-8.2,11.25-10.96.19-.11.25-.41.38-.62q2-3.28,6.3-2.62c-.23,1.43-.88,2.55-1.98,3.54-3.35,3.05-6.74,6.08-9.89,9.33-1.97,2.03-4.05,4.11-4.27,7.27-.08,1.14.2,1.39,1.29,1.43,4.08.13,7.34-1.15,9.33-4.96,1.26-2.4,3.26-4.02,5.61-5.39,1.95-1.13,3.83-.83,5.65-.22.82.27-1.11,4.05-2.75,5.13-1.72,1.13-3.5,2.18-5.15,3.42-1.72,1.29-2.01,4.41-.58,5.03,2.67,1.18,4.89.64,6.79-1.76.94-1.2,2.08-2.05,3.46-2.68.32.67-.08,1.17-.24,1.68-1.22,4.1-.4,5.59,3.67,6.3,1.99.35,2.12,1.78,2.16,3.28.05,1.66-1.23,2.34-2.43,3.11-1.24.8-2.39,2.02-1.58,3.44.64,1.12,2.17,1.21,3.55.69,2.01-.76,4.1-1.21,6.25-1.41.64-.06,1.56-.82,1.81.35.19.87.04,1.93-1.1,2.2-3.57.84-5.77,4.33-9.61,4.81-1.59.2-1.13,1.99-.93,3.16.27,1.62,1.4.59,2.12.49,3.72-.51,7.15-1.87,10.37-3.74,1.33-.77,2.63-.78,4.02-.4-.64,4.04-2.12,5.31-6.06,5.63-3.12.25-5.83,1.55-8.08,3.78-.87.87-.97,2.17-.16,2.55,1.74.82,3.53,2.06,5.59,1.62,3.85-.83,7.7-1.68,11.22-3.62,3.23-1.79,6.7-2.86,10.76-2.82-1.6,2.53-2.78,4.97-5.81,5.63-2.1.46-3.39,2.31-2.74,3.99.7,1.82,2.68.43,4.06.04,1.85-.52,3.66-1.17,5.57-1.79-.03,2.49-1.18,3.67-3.1,4.53-4.05,1.81-8.01,3.83-12.01,5.78-.62.3-1.44.35-1.51,1.37-.26,3.89,2.13,6.03,5.86,4.88,5-1.55,10.04-2.06,15.51-1.47-1.23,1.52-2.15,2.97-3.84,3.64-1.03.41-.98.95-.61,1.91.82,2.13,2.21,2.54,4.28,1.98.77-.21,2.05-.74,2.44.24.39.97.64,2.25-.23,3.3-.42.51-.86,1-1.23,1.55-1.92,2.82-1.41,4.35,1.82,5.48q3.53,1.23,2.89,4.9c-.44,2.51.86,3.82,3.34,3.09,2.23-.66,4.23-.21,6.38.36-.62,1.46-1.74,2.25-2.64,3.18-1.02,1.06-1.26,2.36-.64,3.37.55.91,1.89,1.24,3.1,1,1.18-.24,2.34-.53,3.61-.82.12,2.04-.85,2.93-2.49,3.59-1.27.51-2.91.47-3.54,2.26-.64,1.81-.53,3.88.52,4.9,1.19,1.15,3.24,1.52,5.21.44,1.83-1.01,3.95-1.1,5.97-.29.63.25,1.65.03,1.76,1.02.11,1.02-.88,1.02-1.51,1.3-.75.34-1.59.53-2.25,1-.95.67-1.68,1.57-1.51,2.87.18,1.4,1.38,1.18,2.28,1.38,2.01.45,4.18-.01,6.15.87-.97,1.8-2.53,2.39-4.29,2.7-1.78.32-3.54.78-5.32,1.06-1.74.28-1.48,1.54-1.37,2.65.09.97.41,1.57,1.79,1.47,3.05-.22,6.06.91,9.16.52.57-.07,1.54-.24,1.63.6.06.53-.41,1.3-.88,1.67-1.35,1.07-2.82,1.99-4.25,2.97-2.78,1.9-2.82,2.89-.67,5.39.91,1.06,1.79.88,2.84.65,1.37-.29,2.73-.64,4.11-.82.79-.1,1.96-.87,2.32.39.33,1.14.36,2.35-1.15,3.12-2.2,1.13-4.42,2.15-6.88,2.86,1.29,2.54,4.03,1.54,5.96,2.73-.67,1.01-2.39,1.17-2.17,2.94.23,1.95.02,3.96.11,5.93.2,4.27.3,4.35,4.5,5.1.65.12,1.29.29,1.93.4,1.14.19,1.03,1.23,1.17,1.94.18.9-.75.89-1.35,1.05-1.75.45-3.5.94-5.27,1.27-1.38.26-1.62.76-1.23,2.16,1.12,4.09,1.03,4.11,5.28,4.14,1.07,0,2.14.04,3.22.06,3.76.09,4.44.67,5.19,4.49-2.69-.01-5.4-.66-8.02.54-.86.39-.98.63-.66,1.58.94,2.79,2.99,3.5,5.63,3.67,3.54.23,7.1.57,9.21,4.36-4.05.71-8.04,1.41-12.06,2.11,1.59,4.08,1.61,4.29,5.58,3.83,2.65-.31,4.36.97,6.21,2.34,2.38,1.76,2.37,2.05-.14,3.64-.6.38-1.21.45-1.87.51-1.78.19-3.56.4-5.43.62.2,1.23.88,1.76,1.91,2.09,1.72.54,3.4,1.23,5.12,1.79,1.58.52,2.34,2,2.18,3.2-.13.99-1.7,1.68-3.01,1.7-.9.02-1.81-.11-2.7-.28-1.74-.33-3.45-.12-5.16.12-.55.08-.93.22-.89.89.03.6.03,1.34.82,1.23,3.83-.52,5.18,3.23,8.19,4.24-1.57,1.92-3.13,2.82-5.36,2.3-.95-.22-1.97-.16-2.96-.13-.64.02-1.58-.46-1.66.81-.06.94-.1,1.77,1.09,2.11,1.26.36,2.48.88,3.71,1.34,1.57.6,1.18,2.11,1.22,3.21.04,1.05-1.21.8-1.95.9-1.3.18-2.62.23-3.92.43-.64.1-1.56-.24-1.71.93-.12.98.58,1.25,1.2,1.65,1.59,1.04,3.46,1.66,5.09,3.32-1.92.17-3.44.27-4.96.44-2.16.25-2.34,1.67-1.44,3.14.62,1.01.75,1.61.05,2.58-1.09,1.48-.93,2.99.67,4,1.26.8,1.13,2.05,1.04,3.08-.12,1.32-1.49.79-2.24.76-1.73-.06-1.83,1.28-2.05,2.28-.33,1.51,1.18.92,1.83,1.17.98.37,2.08.5,3.14.59,1.17.1,1.23.83,1.21,1.73-.02,1-.58,1.19-1.45,1.17-1.89-.04-3.77-.01-5.64-.01-.37,3.88,3.34,4.52,4.92,6.82-.83,1.1-1.89,1.7-3.33,1.63-.99-.05-1.98.06-2.97.05-.97,0-1.71.19-2.13,1.25-.49,1.26.62,1.31,1.15,1.8.67.62,1.69.85,2.25,1.87-1.97.32-3.74.67-5.53.87-.95.11-1.75.19-2.05,1.32-.26.99.25,1.38.9,2.01,1.26,1.24,2.29,2.72,2.92,4.3-1.04.92-2.97-.41-3.22,1.34-.28,1.96-.86,4.19.81,5.87,1.66,1.68,1.01,2.76-.66,3.75-.49.29-.96.64-1.48.87-.82.35-1.77.46-1.45,1.8.28,1.16-.12,2.73,1.5,3.03,1.91.36,2.29,2.03,2.5,3.26.23,1.33-1.55.95-2.42,1.33-1.03.45-2.39.51-2.49,2-.1,1.44.15,2.75,1.63,3.58.97.54,1.98,1.19,2.2,2.75-1.79-.21-3.45.21-5.1.58-.95.21-2.39-.22-2.65,1.17-.26,1.36-.03,2.64,1.21,3.75,2.02,1.8,3.75,3.94,5.73,5.79,1.61,1.51.82,2.07-.73,2.55-.83.26-1.63.07-2.43-.13-1.66-.41-3.32-.84-5.01-1.26-.84,2.51,1.08,3.66,2.34,5.07.66.74,1.14,1.42.73,2.41-.41.99-1.33.78-2.13.84-.86.07-1.71.14-2.59.21.29,2.02,1.58,3.62,1.17,5.68-1.77-.63-3.39-1.22-5.02-1.79-1.31-.46-2.53.03-3.46.79-.9.74.1,1.67.34,2.47.42,1.42.97,2.8,1.54,4.16.34.82.53,1.69-.15,2.29-.63.55-1.15-.33-1.73-.52-1.72-.55-3.41-1.3-5.24-.5-.7.3-1.86-.27-1.92,1.28-.05,1.38.41,2.11,1.62,2.64,2.74,1.19,2.72,1.22,2.04,4.23-2.58-1.86-5.36-2.95-8.56-2.55-.96.12-1.4-.69-1.99-1.25-1.63-1.54-5.15-1.15-5.38.77-.36,2.97-1.6,4.06-4.47,3.53-.37-.07-.8.14-1.2.27-2.05.64-2.5,1.59-1.3,3.37,1.41,2.11,2.21,4.34,2.21,7.16-1.07-.93-2.03-1.69-2.88-2.55-1.59-1.58-3.4-2.6-5.7-2.4-.74.06-1.7-.42-2.17.66-.47,1.1.03,1.89.75,2.65,1.52,1.61,2.7,3.42,3.28,5.91-1.2-.55-2.1-1.11-3.09-1.39-1.57-.46-3.43-1-4.66.27-1.24,1.28-.28,2.93.34,4.36.03.08.11.15.11.22-.02.63,1.37,1.15.24,1.8-.87.51-1.84.76-2.61-.35-.71-1.01-1.49-1.97-2.24-2.96-.79-1.04-1.94-.92-2.94-.66-.84.22-1.15,1.06-1.1,1.99.08,1.32.2,2.95-1.19,3.45-1.57.57-1.68-1.38-2.42-2.2-1.39-1.53-3.29-2.17-5.05-2-1.44.15-1.71,2-1.71,3.46,0,.08-.02.16-.02.25-.07,1.22-.61,1.43-1.54.7-1.25-.98-2.7-1.61-4.16-2.13-2.87-1.02-3.94-.35-4.17,2.36-.06.76.25,1.97-.84,2.01-1.04.04-2.36.25-3.07-1.06-.47-.86-.99-1.71-1.57-2.5-.49-.67-1.07-1.09-2.09-.9-3.66.65-7.42-2.47-7.69-6.27-.27-3.96-1.85-5.77-5.64-6.5-3.35-.65-4.39.44-3.58,3.79.42,1.74,1.06,3.43,1.12,5.28-1.1.22-1.84-.42-2.54-.89-2.08-1.41-3.06-4.38-6.22-4.34-.31,0-.63-.89-.94-1.38-1.05-1.67-2.13-3.33-3.15-5.02-.51-.85-1.25-1.39-2.17-1.45-2.54-.18-4.39-1.56-6.23-3.15-2.03-1.77-3.92-1.7-5.65.19-.93,1.01-1.3.66-2.05-.16-2.04-2.22-2.54-5.11-3.69-7.73-.84-1.92-.92-3.73-.32-5.73,1.17-3.94,2.27-7.91,3.19-11.91,1.56-6.79,4.1-13.33,4.4-20.45.38-8.96,1.27-17.9,1.98-26.85,1.01-12.64,2.5-25.27,2.63-37.94.16-15.99,1.02-31.99-.28-47.97-.61-7.54-.61-15.17-2.1-22.6-2.1-10.43-3.05-21.21-8.38-30.79-.72-1.29-1.3-2.66-1.86-4.03-4.99-12.12-11.65-23.41-19.66-33.6-9.09-11.56-18.98-22.52-29.79-32.66-16.84-15.79-35.68-28.42-56.69-37.72-16.52-7.31-33.4-13.83-51.37-16.85-7.53-1.27-14.97-3.14-22.67-3.43-6.09-.23-12.16-.84-18.24-1.23-3.37-.22-6.79-.75-10.11-.41-17,1.78-34.04,3.34-50.73,7.27-5.34,1.26-10.91,1.48-16,3.88-13.39,6.32-26.84,12.51-40.26,18.78-7.82,3.65-15.62,7.35-23.43,11.03Z" fill="#2b3e95" stroke-width="0"/><path d="M157.02,214.53c7.81-3.68,15.61-7.38,23.43-11.03,13.42-6.27,26.87-12.46,40.26-18.78,5.09-2.41,10.66-2.62,16-3.88,16.69-3.94,33.73-5.49,50.73-7.27,3.32-.35,6.74.19,10.11.41,6.08.39,12.15,1,18.24,1.23,7.7.29,15.14,2.16,22.67,3.43,17.96,3.03,34.84,9.54,51.37,16.85,21.01,9.29,39.85,21.92,56.69,37.72,10.81,10.14,20.7,21.1,29.79,32.66,8.01,10.2,14.67,21.48,19.66,33.6.56,1.37,1.14,2.74,1.86,4.03,5.33,9.57,6.29,20.35,8.38,30.79,1.49,7.42,1.49,15.05,2.1,22.6,1.3,15.98.44,31.99.28,47.97-.13,12.67-1.62,25.3-2.63,37.94-.71,8.95-1.6,17.89-1.98,26.85-.3,7.12-2.84,13.66-4.4,20.45-.92,4-2.02,7.97-3.19,11.91-.59,2.01-.52,3.81.32,5.73,1.14,2.62,1.65,5.51,3.69,7.73.75.82,1.13,1.17,2.05.16,1.74-1.89,3.62-1.96,5.65-.19,1.83,1.6,3.69,2.97,6.23,3.15.93.07,1.66.6,2.17,1.45,1.02,1.69,2.09,3.35,3.15,5.02.31.48.63,1.38.94,1.38,3.16-.03,4.14,2.93,6.22,4.34.7.47,1.43,1.11,2.54.89-.06-1.85-.7-3.54-1.12-5.28-.81-3.35.23-4.44,3.58-3.79,3.8.73,5.37,2.54,5.64,6.5.26,3.79,4.03,6.92,7.69,6.27,1.02-.18,1.59.23,2.09.9.58.79,1.1,1.64,1.57,2.5.71,1.31,2.04,1.09,3.07,1.06,1.09-.04.78-1.25.84-2.01.23-2.71,1.3-3.38,4.17-2.36,1.47.52,2.91,1.15,4.16,2.13.93.73,1.47.52,1.54-.7,0-.08.02-.16.02-.25,0-1.47.27-3.32,1.71-3.46,1.76-.18,3.66.46,5.05,2,.74.82.85,2.77,2.42,2.2,1.38-.5,1.27-2.14,1.19-3.45-.06-.93.26-1.77,1.1-1.99,1-.26,2.15-.38,2.94.66.75.99,1.54,1.94,2.24,2.96.77,1.1,1.74.85,2.61.35,1.13-.66-.26-1.18-.24-1.8,0-.07-.08-.14-.11-.22-.63-1.43-1.59-3.08-.34-4.36,1.23-1.27,3.09-.73,4.66-.27.99.29,1.9.84,3.09,1.39-.58-2.49-1.76-4.3-3.28-5.91-.72-.76-1.22-1.55-.75-2.65.47-1.08,1.43-.59,2.17-.66,2.3-.2,4.11.81,5.7,2.4.86.86,1.82,1.61,2.88,2.55,0-2.83-.8-5.06-2.21-7.16-1.19-1.78-.75-2.73,1.3-3.37.39-.12.83-.34,1.2-.27,2.87.53,4.11-.55,4.47-3.53.23-1.91,3.75-2.3,5.38-.77.6.56,1.03,1.37,1.99,1.25,3.2-.4,5.98.69,8.56,2.55.68-3,.7-3.04-2.04-4.23-1.21-.53-1.68-1.25-1.62-2.64.06-1.56,1.22-.98,1.92-1.28,1.83-.8,3.53-.05,5.24.5.59.19,1.11,1.07,1.73.52.68-.6.5-1.46.15-2.29-.57-1.37-1.13-2.75-1.54-4.16-.24-.8-1.24-1.73-.34-2.47.93-.76,2.15-1.25,3.46-.79,1.63.57,3.25,1.16,5.02,1.79.41-2.06-.88-3.65-1.17-5.68.88-.07,1.74-.15,2.59-.21.8-.06,1.72.15,2.13-.84.41-.99-.07-1.67-.73-2.41-1.26-1.41-3.18-2.56-2.34-5.07,1.69.43,3.35.85,5.01,1.26.8.2,1.6.39,2.43.13,1.55-.48,2.34-1.05.73-2.55-1.98-1.85-3.71-3.99-5.73-5.79-1.24-1.11-1.47-2.39-1.21-3.75.26-1.39,1.7-.96,2.65-1.17,1.65-.36,3.31-.79,5.1-.58-.22-1.56-1.24-2.21-2.2-2.75-1.48-.83-1.73-2.14-1.63-3.58.1-1.49,1.46-1.55,2.49-2,.88-.39,2.66,0,2.42-1.33-.21-1.23-.6-2.89-2.5-3.26-1.62-.31-1.23-1.88-1.5-3.03-.32-1.34.64-1.45,1.45-1.8.52-.23.99-.57,1.48-.87,1.67-.99,2.33-2.07.66-3.75-1.67-1.68-1.09-3.91-.81-5.87.25-1.75,2.18-.42,3.22-1.34-.63-1.59-1.66-3.07-2.92-4.3-.64-.63-1.16-1.02-.9-2.01.3-1.13,1.09-1.21,2.05-1.32,1.79-.21,3.57-.55,5.53-.87-.56-1.02-1.58-1.25-2.25-1.87-.53-.49-1.64-.54-1.15-1.8.42-1.07,1.16-1.26,2.13-1.25.99,0,1.98-.1,2.97-.05,1.45.07,2.5-.54,3.33-1.63-1.58-2.29-5.29-2.93-4.92-6.82,1.87,0,3.75-.03,5.64.01.87.02,1.43-.16,1.45-1.17.02-.89-.04-1.62-1.21-1.73-1.06-.09-2.16-.22-3.14-.59-.66-.25-2.17.34-1.83-1.17.22-.99.33-2.33,2.05-2.28.75.03,2.12.55,2.24-.76.09-1.03.22-2.28-1.04-3.08-1.6-1.01-1.76-2.52-.67-4,.71-.97.58-1.57-.05-2.58-.9-1.46-.72-2.89,1.44-3.14,1.52-.18,3.04-.27,4.96-.44-1.64-1.66-3.51-2.28-5.09-3.32-.61-.4-1.32-.67-1.2-1.65.15-1.17,1.07-.83,1.71-.93,1.3-.2,2.62-.25,3.92-.43.75-.1,2,.15,1.95-.9-.04-1.09.35-2.61-1.22-3.21-1.23-.47-2.45-.98-3.71-1.34-1.19-.34-1.15-1.18-1.09-2.11.08-1.27,1.02-.8,1.66-.81.99-.03,2.01-.09,2.96.13,2.23.53,3.79-.37,5.36-2.3-3.02-1.01-4.37-4.76-8.19-4.24-.79.11-.78-.64-.82-1.23-.04-.67.35-.81.89-.89,1.72-.24,3.43-.44,5.16-.12.89.17,1.8.29,2.7.28,1.3-.02,2.88-.72,3.01-1.7.15-1.19-.6-2.68-2.18-3.2-1.72-.56-3.4-1.24-5.12-1.79-1.03-.33-1.71-.86-1.91-2.09,1.88-.22,3.65-.43,5.43-.62.66-.07,1.28-.14,1.87-.51,2.5-1.59,2.51-1.88.14-3.64-1.85-1.37-3.56-2.65-6.21-2.34-3.97.46-4,.24-5.58-3.83,4.03-.7,8.02-1.4,12.06-2.11-2.11-3.79-5.67-4.13-9.21-4.36-2.64-.17-4.69-.89-5.63-3.67-.32-.95-.2-1.18.66-1.58,2.62-1.2,5.33-.55,8.02-.54-.75-3.82-1.43-4.4-5.19-4.49-1.07-.02-2.14-.05-3.22-.06-4.25-.03-4.16-.05-5.28-4.14-.39-1.41-.15-1.9,1.23-2.16,1.77-.34,3.52-.82,5.27-1.27.6-.15,1.53-.14,1.35-1.05-.14-.71-.03-1.74-1.17-1.94-.65-.11-1.29-.28-1.93-.4-4.21-.75-4.31-.83-4.5-5.1-.09-1.98.12-3.98-.11-5.93-.21-1.77,1.51-1.93,2.17-2.94-1.92-1.19-4.67-.19-5.96-2.73,2.46-.71,4.68-1.73,6.88-2.86,1.51-.77,1.47-1.98,1.15-3.12-.36-1.26-1.53-.49-2.32-.39-1.38.18-2.74.53-4.11.82-1.05.22-1.93.41-2.84-.65-2.15-2.5-2.1-3.49.67-5.39,1.43-.98,2.9-1.9,4.25-2.97.47-.37.94-1.14.88-1.67-.09-.84-1.06-.67-1.63-.6-3.1.4-6.11-.74-9.16-.52-1.38.1-1.69-.5-1.79-1.47-.11-1.11-.37-2.37,1.37-2.65,1.78-.28,3.54-.75,5.32-1.06,1.76-.31,3.32-.9,4.29-2.7-1.97-.88-4.14-.42-6.15-.87-.9-.2-2.1.02-2.28-1.38-.17-1.3.56-2.21,1.51-2.87.66-.46,1.5-.65,2.25-1,.63-.29,1.62-.28,1.51-1.3-.11-.99-1.14-.77-1.76-1.02-2.01-.81-4.13-.72-5.97.29-1.97,1.08-4.01.72-5.21-.44-1.05-1.02-1.16-3.09-.52-4.9.63-1.79,2.27-1.76,3.54-2.26,1.64-.66,2.61-1.55,2.49-3.59-1.27.29-2.43.58-3.61.82-1.22.24-2.55-.09-3.1-1-.62-1.01-.38-2.31.64-3.37.9-.93,2.01-1.72,2.64-3.18-2.15-.57-4.15-1.01-6.38-.36-2.48.73-3.78-.59-3.34-3.09q.64-3.66-2.89-4.9c-3.23-1.13-3.74-2.66-1.82-5.48.37-.54.81-1.04,1.23-1.55.87-1.04.62-2.33.23-3.3-.4-.97-1.67-.45-2.44-.24-2.06.56-3.45.15-4.28-1.98-.37-.95-.41-1.5.61-1.91,1.68-.67,2.61-2.12,3.84-3.64-5.47-.59-10.51-.08-15.51,1.47-3.73,1.15-6.12-.99-5.86-4.88.07-1.02.88-1.06,1.51-1.37,3.99-1.95,7.95-3.97,12.01-5.78,1.93-.86,3.07-2.04,3.1-4.53-1.91.62-3.72,1.27-5.57,1.79-1.38.38-3.36,1.78-4.06-.04-.64-1.68.64-3.53,2.74-3.99,3.03-.66,4.21-3.1,5.81-5.63-4.06-.03-7.53,1.04-10.76,2.82-3.52,1.94-7.37,2.8-11.22,3.62-2.05.44-3.85-.8-5.59-1.62-.81-.38-.71-1.68.16-2.55,2.25-2.23,4.96-3.53,8.08-3.78,3.95-.31,5.43-1.58,6.06-5.63-1.39-.38-2.69-.38-4.02.4-3.22,1.87-6.66,3.24-10.37,3.74-.72.1-1.85,1.13-2.12-.49-.2-1.17-.66-2.96.93-3.16,3.84-.48,6.04-3.97,9.61-4.81,1.13-.27,1.28-1.33,1.1-2.2-.25-1.17-1.17-.4-1.81-.35-2.14.19-4.24.65-6.25,1.41-1.38.53-2.91.43-3.55-.69-.82-1.42.33-2.64,1.58-3.44,1.19-.77,2.47-1.45,2.43-3.11-.04-1.5-.17-2.93-2.16-3.28-4.07-.71-4.89-2.2-3.67-6.3.15-.51.55-1.01.24-1.68-1.38.63-2.52,1.48-3.46,2.68-1.9,2.4-4.12,2.94-6.79,1.76-1.42-.63-1.14-3.74.58-5.03,1.64-1.23,3.43-2.28,5.15-3.42,1.64-1.08,3.56-4.85,2.75-5.13-1.82-.61-3.7-.92-5.65.22-2.35,1.37-4.36,2.98-5.61,5.39-2,3.81-5.25,5.08-9.33,4.96-1.09-.03-1.37-.29-1.29-1.43.22-3.17,2.31-5.25,4.27-7.27,3.15-3.25,6.54-6.28,9.89-9.33,1.09-.99,1.75-2.11,1.98-3.54q-4.3-.65-6.3,2.62c-.13.21-.2.51-.38.62-4.62,2.76-6.92,7.9-11.25,10.96-1.2.85-2.27,1.9-3.41,2.85-1.33,1.11-2.62.72-2.8-.92-.31-2.97.37-5.77,2.29-8.07,2.27-2.71,4.64-5.37,7.44-7.58,1.99-1.57,3.26-3.67,4.58-5.76.74-1.17.39-1.59-.83-1.72-1.7-.18-2.93-.45-3.95,1.89-1.55,3.56-5.27,5.28-8.55,7.18-.82.48-.98-.14-.99-.79-.04-2.5.02-4.95,2.32-6.67,1.69-1.26,3.03-2.79,3.24-5.03.26-.15.27-.32.05-.51-.08.09-.17.19-.25.28-3.49.43-6.52,1.92-8.62,4.69-2.23,2.95-4.79,5.51-7.56,7.92-.8.7-1.54.3-2.3.15-.79-.15-1.22-.6-1.34-1.5-.3-2.2.76-3.89,2.09-5.32,2.07-2.23,4.09-4.55,6.7-6.2.89-.56,1.44-1.33,1.62-2.3.19-1-.02-1.77-1.37-1.71-1.64.07-3.28-.01-4.91.4-1.22.31-2.57,1.17-3.66-.16-1.11-1.36.77-2.11.79-3.48-2.25.73-4.43,1.34-5.89,3.45-1.79,2.59-4.34,4.51-6.4,6.87-1.62,1.86-3.21.85-4.57.04-1.58-.94-.73-2.44-.19-3.71,2.83-6.56,7.44-11.99,11.35-17.87.47-.7,2.38-1.34.76-2.65-1.67-1.34-3.7-1.19-4.79.34-1.29,1.81-2.5,3.67-3.34,5.75-1.49,3.67-4.48,6.02-7.53,8.28-.42.31-.96.87-1.55.53-.71-.41-.36-1.22-.28-1.8.43-3.26,2.02-6.06,3.76-8.75,1.34-2.07,2.84-4.06,4.48-5.91,1.78-2.02,2.62-4.3,2.85-6.92.07-.84.35-1.56-.82-1.95-.97-.32-1.61-.42-2.36.47-1.87,2.23-3.32,4.69-4.44,7.37-2.2,5.3-5.36,9.99-8.95,14.44-1.07,1.33-2.26,1.63-3.65,1.04-1.52-.64-1.33-1.86-1.02-3.31.87-4.15,3.42-7.45,5.3-11.08,1.74-3.36,3.56-6.66,5-10.17.94-2.29-.65-3.54-1.56-5.09-.39-.66-.87,0-1.21.26-1.38,1.04-2.65,2.12-3.44,3.77-2.34,4.9-4.82,9.73-7.25,14.58-.37.73-.77,1.45-1.19,2.15-1.8,3-4.34,4.37-8.15,3.37.62-1.48,1.24-3.03,1.92-4.55,1.56-3.45,3.02-6.95,4.78-10.3,1.4-2.66,1.54-5.51,1.94-8.35.14-.99-2.66-4.35-3.52-4.3-.7.04-.82.73-1.12,1.18-2.84,4.3-3.63,9.27-4.67,14.18-.69,3.27-1.02,6.66-2.71,9.68-.82,1.46-1.64,1.86-3.04.81-.52-.39-1.18-.57-1.75-.91-1.55-.92-2.3-1.94-1.54-3.99,2.02-5.39,3.63-10.91,4.25-16.69.26-2.45-.43-4.09-2.21-4.27-.96-.09-3.23,2.48-3.3,3.86-.16,3.27.26,6.63-1.29,9.7-.36.72.04,2.34-1.51,1.95-1.36-.35-2.94-.67-2.79-2.8.11-1.55-.03-3.1.35-4.66.54-2.2.38-2.46-1.29-4.5-2.76,3.91-5.74,7.62-5.95,12.72-.04.98.51,2.77-1.36,2.78-3.05,0-3.76-.75-3.65-3.42.3-6.94,2.21-13.63,3.27-20.45.29-1.87.58-3.75,1.05-5.58.57-2.25.19-4.03-2.03-5.24-1.62,2.09-1.92,4.58-2.08,7.1-.1,1.56-.25,3.14-.15,4.69.27,4.32-1.79,7.72-4.14,11.04-.73,1.03-1.86,1.15-2.85,1.05-.93-.09-.53-1.22-.71-1.87-1.34-4.76.03-9.31,1.43-13.76,1.36-4.37,1.1-8.41-1.17-12.34-.35-.6-.25-1.77-1.6-1.26-.98.37-1.73.64-1.73,1.97.02,5.44-.12,10.89-.08,16.33.01,1.5-.36,2.71-1.27,3.86-1.06,1.33-2.94,1.4-3.74-.08-.89-1.64-1.69-3.29-1.53-5.35.43-5.83.65-11.68.94-17.52.15-3.14.09-3.21-3.11-4.98-.56,5.7-1.1,11.32-1.65,16.93-.14,1.39-.28,2.78-.43,4.17-.33,2.88-1.1,3.36-3.84,2.83-1.07-.21-1.33-.64-1.3-1.61.06-2.22,0-4.42.78-6.58,1.75-4.88,1.81-9.77-.04-14.71-.63-1.69-1.48-2.85-3.58-3.57.21,3.64.27,7.12.64,10.57.49,4.67.78,9.35.9,14.05.03,1.21-.4,2.27-.92,3.29-.62,1.23-1.71,1.67-3.07,1.41-1.37-.26-1.65-1.13-1.75-2.46-.48-6.4-.4-12.84-1.78-19.17-.5-2.27-1.23-4.42-2.02-6.59-.39-1.06-.98-1.62-2.16-1.56-1.46.07-1.15,1.2-1.22,2-.4,4.49,1.28,8.52,2.67,12.67,1.29,3.84,1.69,7.83-.44,11.64-.89,1.59-2.37,1.68-3.87,1.48-1.54-.2-1.32-1.59-1.54-2.68-1.31-6.4-.97-12.96-1.92-19.4-.18-1.26-.47-2.5-.9-3.73-.89,2.5-1.06,5.05-1.01,7.64.09,3.79.1,7.59.15,11.38.02,1.78-.58,3.02-2.56,3.27-1.13.14-1.82-.07-2.21-1.31-.43-1.42-.87-2.77-.86-4.3.03-3.04.27-6.07,0-9.12-.15-1.57-.79-2.4-2.4-2.67-.19,4.89-.27,9.73-.94,14.54-.27,1.98-1.5,2.91-2.93,3.64-1.66.85-3.36-.75-3.62-3.37-.67-6.63-1.34-13.27-1.89-19.91-.42-5.16-.84-6.67-3.82-11.24-1.67,1.57-2.2,3.22-1.87,5.68.74,5.53.55,11.17,1.69,16.69.43,2.09.69,4.22.95,6.34.22,1.73-.95,2.46-2.37,2.46-1.36,0-3.34.95-3.7-1.58-.68-4.77-2.08-9.41-1.49-14.37.59-4.95-1.52-9.5-2.85-14.15-.49-1.7-1.34-2.97-3.28-3.65-.98,4.1-1.8,8.19.05,12.18,2.12,4.59,2.48,9.52,3.17,14.39.32,2.29-1.28,3.64-2.93,4.77-.82.56-3.5-1.36-3.79-2.85-1.12-5.72-2.77-11.34-3.21-17.18-.27-3.55-.91-7.01-2.34-10.3-.47-1.08-.9-2.5-2.23-2.2-1.2.27-1.3,1.8-1.33,2.9-.12,4.14.7,8.18,1.36,12.25.67,4.16,2.23,8.08,3.08,12.19.69,3.29.18,4.88-1.79,5.66-2.31.91-5.02-.52-5.65-2.87-1.41-5.32-.85-10.8-1.34-16.2-.41-4.46-1.42-8.74-3.5-12.73-.21-.39-.42-.93-1.15-.94-1.82,4.15-.58,8.37-.07,12.52.35,2.81.34,5.61.19,8.39-.11,2.06-1.74,3.53-3.48,4.43-1.47.76-3.17-.81-3.44-2.81-.79-5.65-1.11-11.32-.85-17.01.09-1.9-.55-3.36-1.73-4.69-.49-.55-.81-1.57-1.94-.87-.89.55-1.94.79-1.81,2.26.31,3.53.43,7.07.7,10.6.29,3.67-1.13,6.14-4.27,6.49-2.01.23-2.29-.78-2.37-2.17-.04-.71.31-1.44.43-2.17.15-1,1.24-2.65.12-2.82-1.16-.18-3.24-.45-3.98,1.55-.4,1.07-.88,2.12-1.34,3.17-.22.5-.25,1.19-1.04,1.18-.9,0-.99-.73-1.14-1.36-.79-3.47-.51-7.05-1.02-10.56-.42-2.93-.79-5.87-1.23-8.8-.48-3.24-1.83-6.12-3.65-8.8-.43-.64-.63-1.64-1.8-1.15-1.01.42-.8,1.2-.78,2.05.13,5.74,2.03,11.06,3.83,16.4.47,1.38.84,2.85.26,4.34-.19.49.14,1.23-.69,1.39-.84.17-1.15-.48-1.5-1.03-1.19-1.84-1.53-3.98-1.94-6.06-.53-2.66-.82-5.36-1.54-7.99-1.2-4.34-3.45-7.97-7.19-11.14-.09,2.08-.62,4.03-.17,5.71,1.2,4.51,1.24,9.31,3.32,13.6.25.51.64,1.12.55,1.6-.15.72-.14,1.79-1.27,1.84-.88.04-1.37-.56-1.5-1.36-.88-5.37-4.03-9.87-5.69-14.95-.88-2.69-3.26-4.51-4.88-6.79-.49-.69-1.01-.45-1.37.04-.78,1.07-3.05,1.17-2.22,3.29,1.65,4.22,3.17,8.54,6.05,12.09,1.73,2.14,2.1,4.59,2.52,7.08.21,1.24-.47,2.59-1.57,2.7-1.23.12-2.93.28-3.69-1.31-.99-2.07-2.22-4.02-2.64-6.35-.67-3.74-2.21-7.22-3.39-10.81-.22-.66-.56-1.17-1.09-1.6-1.84-1.5-3.68-3.01-5.68-4.64-.7,3.65-.42,6.72,1.33,10.13,2.27,4.42,5.68,8.32,6.69,13.37.23,1.16.95,2.79-.23,3.3-1.09.47-2.64.05-3.79-1.1-2.53-2.53-3.66-5.83-5.26-8.87-1.54-2.9-2.74-5.99-4.98-8.49-.89-.99-1.87-1.84-3.03-2.48-2.32,3.97-1.29,7.22,2.14,11.36,3.48,4.21,6.84,8.43,9.2,13.38.28.58.64,1.21.64,1.82-.02,2.67-.86,3.17-3.39,2.11-2.41-1.01-4.29-2.46-5.36-5.06-3.13-7.6-7.59-14.4-13.2-20.57-1.23,1.55-1.44,2.9-.3,4.76,2.65,4.28,5.65,8.31,8.43,12.5,2.29,3.44,4.08,7.11,4.53,11.32.14,1.34.12,2.41-1.26,3.1-1.34.67-2.49.33-3.3-.72-2.69-3.5-6.21-6.62-7.29-11-1.53-6.21-5.18-10.84-9.74-15.24-.5,1.8.3,3.43.28,5.08-.02,1.32.13,2.64.08,3.95-.02.64.33,1.6-.81,1.76-.92.13-1.34-.53-1.7-1.18-1.04-1.87-2.18-3.7-3.03-5.65-1.19-2.72-2.97-4.89-5.49-6.69-.64,1.61-.15,2.96.47,4.39.77,1.77,2.37,3.25,2.06,5.42-.12.82.39,2.03-.92,2.23-1.23.18-2.67.76-3.57-.75-.67-1.13-1.33-2.27-1.96-3.42-1.26-2.31-2.53-4.62-3.72-6.97-.73-1.44-2.06-1.81-3.33-1.54-1.51.33-.7,1.78-.72,2.74-.07,3.42,1.53,5.91,4.36,7.78,3.74,2.47,3.73,6.67,4.49,10.46.14.71.07,2.2-1.14,2.07-1.61-.17-3.43.22-4.73-1.44-2.42-3.08-3.82-6.73-5.84-10.01-2.58-4.19-5.82-7.93-9.08-11.61-.63-.72-2.2-1.87-2.66-1.25-.84,1.13-1.63,2.77-.75,4.36,1.2,2.15,2.2,4.43,3.76,6.37,2.02,2.5,3.95,5.09,6.07,7.5,2.13,2.42,2.5,5.24,2.48,8.26,0,1.41-.39,1.85-1.88,1.4-2.13-.64-3.96-1.75-5.37-3.35-2.72-3.08-5.3-6.21-6.93-10.13-2.14-5.14-5.26-9.69-9.94-12.96-.34-.23-.67-.47-1.03-.67-.12-.07-.31-.01-.38-.01-1.39,3.37-.64,6.14,2.09,8.55,2.32,2.06,3.7,4.77,4.74,7.69.42,1.18.63,2.36-.22,3.25-.76.8-1.67-.14-2.51-.32-2.92-.62-4.74-2.32-5.25-5.35-.62-3.6-3.18-6.06-5.33-8.74-1.11-1.38-2.87-1.46-4.31-1.11-1.16.28-1.96,1.43-1.1,2.93,3.41,5.97,7.14,11.55,13.11,15.45,4.34,2.84,7.21,7.14,9.36,11.86.32.69.38,1.25-.43,1.54-.74.26-1.34,1.05-2.32.14-2.36-2.19-4.69-4.4-6.67-6.95-5.14-6.62-11.08-12.49-17.1-18.29-.3-.29-.55-.68-.9-.84-1.22-.55-2.95-1.76-3.73-.84-.89,1.05-1.43,2.97-.54,4.62,2.57,4.76,5.71,9.05,10.23,12.17,2.31,1.6,4.46,3.25,5.7,5.97.67,1.47.65,2.81.57,4.28-.06,1.14-.56,1.12-1.45.77-.96-.37-1.71-.95-2.39-1.69-1.39-1.52-2.52-3.52-4.24-4.46-6.56-3.57-9.76-10.04-14.07-15.56-.35-.45-.68-.96-1.13-1.29-.61-.45-1.45-.68-2.11-.34-.79.4-.08,1.16-.12,1.76-.33,4.74,2.44,7.49,5.81,10.34,4.62,3.92,8.71,8.47,13.03,12.76.43.42.8.83.25,1.46-.48.55-.89.85-1.67.44-1.17-.61-2.39-1.08-3.16-2.27-1.57-2.41-3.67-4.19-6.34-5.28-1.72-.7-3.06-1.87-4.23-3.91-.25,1.88-.16,3.15.71,4.44,1.65,2.46,3.11,5.05,4.78,7.5,1.02,1.49,1.2,3,.84,4.68-.13.63-.07,1.53-.75,1.69-.68.16-1.39-.25-1.97-.82-1.29-1.28-2.54-2.61-3.5-4.15-3.21-5.19-7.98-8.99-12.16-13.28-1.89-1.94-4.76-3.53-8.06-1.85-1.2.61-1.2,1.02-.62,1.96,1.21,1.97,2.18,4.06,2.83,6.28.66,2.23-.16,3.1-2.43,2.76-2.91-.44-4.57-2.79-6.73-4.36-1.63-1.19-2.94-2.68-5.36-2.54-1.9.11-2.45.63-2.27,2.43.1.94.48,1.72.74,2.58.2.66,1.29,1.29.14,2.11-.85.6-1.57.63-2.47.08-3.36-2.08-6.84-3.97-10.12-6.17-2.26-1.52-4.76-1.34-7.13-1.25-1.57.06-.19,1.48-.1,2.25.12,1.12,1.24,1.16,2.03,1.52,8.51,3.93,17.41,6.96,25.69,11.4.58.31,1.28.52,1.7.99.6.66,2.36.63,1.48,2.28-.73,1.37-1.26,2.93-3.36,2.58-.84-.14-1.56-.47-2.3-.83-9.92-4.87-20.43-8.26-30.75-12.11-2.92-1.09-6.19-.47-9.32-.81-.13,2.69,1.95,2.69,3.55,3.6,6.92,3.94,14.7,5.72,21.88,8.97,2.69,1.22,5.49,2.22,8.29,3.18,2.81.96,4.72,2.94,6.32,5.27,1.14,1.66.4,2.99-1.56,3.17-1.93.17-3.71-.09-5.49-.96-9.86-4.82-20.32-8.05-30.74-11.37-.94-.3-1.91-.57-2.77-1.03-3.82-2.03-8.01-2.16-12.17-2.43-.83-.05-1.63-.21-1.78,1.03-.14,1.14.63,1.12,1.34,1.33,12.54,3.71,24.8,8.22,37.05,12.75,1.98.73,3.53,2.1,5.24,3.24,1.16.77.95,1.76-.18,2.29-3.42,1.61-7.15,2.04-10.49.42-11.85-5.78-24.17-9.94-37.27-11.51-2.63-.31-5.6-1.01-8.07,1.49,5.7,2.86,11.65,4.46,17.68,5.6,7.62,1.44,15,3.72,22.49,5.62,1.35.34,1.68,1.23,1.62,2.38-.08,1.52-1.48,1.78-2.48,1.92-3.75.52-7.53.85-11.3,1.18-3.67.32-7.18-.64-10.75-1.34-6.7-1.32-13.43-2.45-20.16-3.59-2.08-.35-2.81,1.7-4.43,2.59,1.94,1.33,3.96,1.47,5.98,1.63,10.27.85,20.53,1.67,30.79,2.63,2.11.2,4.19.84,6.25,1.42,3.22.91,3.9,2.97,1.7,5.49-1.33,1.52-2.81,2.79-5.28,2.47-4.59-.6-9.21-.07-13.8.37-2.02.19-3.9-.01-5.78-.77-2.74-1.11-5.46-1.64-8.58-1.23-2.29.3-4.81-.61-7.23-.96-3.39-.5-6.67-.41-10.25.41,3.41,2.96,7.32,4.46,11.41,5.08,11.33,1.71,22.74,2.57,34.21,2.62,2.23,0,4.38.35,6.44,1.39,1.35.68,1.51,1.74,1.25,2.86-.35,1.47-1.33.14-1.99.18-3.43.21-6.88.03-10.26.9-.54.14-1.17.15-1.72.04-4.4-.92-8.91-.71-13.32-1.19-4.97-.54-9.97-.77-14.93-1.47-.72-.1-1.66-.65-1.93.71-.2.99-.39,1.73.68,2.55,1.99,1.53,4.3,1.47,6.55,1.83,7.39,1.19,14.78,2.37,22.17,3.53,1.03.16,1.4.71,1.36,1.68-.04,1.02-.34,1.87-1.52,1.83-2.07-.07-4.1.25-6.2-.02-3.71-.46-7.46-.95-11.23-.65-.16.01-.34.08-.47.02-.89-.37-2.11-1.2-2.65-.38-.61.91.24,2.21.73,3.21.82,1.7,1.71,3.16,4.1,3.31,5.72.38,10.96,2.8,16.38,4.42,2.31.69,2.9,3.07,1.49,5.07-.09.13-.21.25-.32.38-1,1.2-2.7,2.33-2.83,3.62-.16,1.58,2.49,1.38,3.33,2.71-5.58-.34-10.62-2.24-15.26-5.3,1.15-1.86.38-3.84-1.63-4.06-9.25-1.01-18.49-2.04-27.75-2.97-5.41-.54-10.69-1.29-15.62-3.94-4.49-2.41-9.3-4.2-13.83-6.54-4.01-2.07-8.29-4.13-11.32-7.41-7.27-7.86-10.88-17.46-11.39-28.17-.57-11.82,2-22.81,8.54-32.81,2.07-3.17,3.91-6.49,5.78-9.78.72-1.26,1.66-2.18,2.91-2.9,5.42-3.12,10.87-6.22,16.2-9.49,2.26-1.39,4.52-2.08,7.18-2.1,3.45-.03,6.9-.53,10.35-.7,5.84-.28,11.68-.99,17.53-.53,4.53.35,9.06.18,13.59.41,1.43.07,2.13-.26,1.93-1.9-.17-1.38,0-2.79.02-4.19,2.75-.13,4.94-1.81,7.42-2.69.67,2.12,1.34,4.23,1.99,6.36.19.63.21,1.37.79,1.76,3.55,2.38,6.75,5.42,10.73,7,9.4,3.72,18.94,7.09,28.39,10.68,1.24.47,1.8.26,2.11-.97.18-.71.35-1.46.71-2.1.94-1.67.29-2.35-1.33-3.08-7.87-3.54-15.68-7.22-23.52-10.86-2.75-1.27-5.99-5.76-5.27-8.55,1.02-3.92,1.96-8.08,4.5-11.37,4.52-5.85,9.89-10.73,16.98-13.41,1.45-.55,2.8-1.39,4.17-2.14,4.71-2.57,9.43-5.01,15.03-4.89,1.71.04,3.42-.49,5.14-.61,4.83-.35,9.6-1.37,14.47-1.34,8.77.06,17.38,1.4,25.92,3.24,1.35.29,2.02.03,2.35-1.24,2.78.68,5.55,1.36,8.33,2.04.29,2.51,2.1,3.62,4.08,4.74,4.93,2.8,9.77,5.76,14.66,8.64,1.24.73,2.5,1.41,3.75,2.11-2.22-3.06-4.78-5.67-7.18-8.44-1.43-1.65-3.31-3.91-2.51-5.78,1.4-3.26,3.29-6.93,6.06-8.84,4.53-3.12,9.56-5.73,14.88-7.53,6.7-2.26,13.69-2.78,20.65-3.05,7.48-.3,14.99-.07,22.14,2.55,1.63.6,2.74.58,3.71-.87,3.05.44,5.93,1.51,8.85,2.42-.11.39-.14.83-.34,1.17-1.17,1.87-.68,3.18,1,4.58,2.4,1.99,4.47,4.39,6.84,6.41,1.83,1.56,2.93,3.45,3.78,5.63,2.76,7.12,5.61,14.2,8.43,21.3,1.03,2.6,2.1,5.18,3.08,7.79.39,1.05,1.19,1.12,1.99.93,1.36-.31.34-1.24.2-1.72-.58-2.05-1.39-4.03-2.03-6.07-3.06-9.8-7.09-19.29-9.28-29.35-.75-3.45,0-5.15,3-6.15,2.43-.81,4.83-.81,7.26-1.01,9.19-.76,18.21.17,26.99,3.01,4.29,1.39,8.52,2.97,13.06,3.35,2.94,2.06,5.88,4.12,8.82,6.18-.17.54.18.94.39,1.38,6.14,12.47,12.29,24.93,18.42,37.4.16.34.38.5.72.36.61-5.37-1.56-9.95-3.89-14.55-3.02-5.97-3.8-11.88.61-17.75,1.35-1.8,2.64-3.13,4.88-3.64,6.48-1.47,12.67-4.25,19.45-4.27,6.92-.02,13.85.1,20.77.15.82,0,1.6.09,2.41.39,8.28,3.09,15.35,8.22,22.44,13.3.26.19.5.43.7.69.8,1.02.4,3.27,1.96,3.17,1.11-.06,2.13-1.66,3.2-2.56.12-.1.29-.15.43-.23,2.31,2.38,2.87,5.71,4.62,8.39-1.36,1.75-2.67,3.55-4.11,5.24-.96,1.11-1.38,2.28-1.56,3.75-.84,7.02-1.87,14.02-2.77,21.03-.75,5.92-.98,11.87-.91,17.9.34-.27.54-.6.64-.95,2.44-8.54,4.59-17.14,6.12-25.89.6-3.46,1.57-7.15,4.15-9.54,2.96-2.74,6.4-5.13,10.84-5.32,4.61-.2,9.05-2.19,13.85-.75,4.64,1.39,9.44,2.23,14.16,3.32,1.67.39,3.35.68,4.85,1.68,6.63,4.46,13.23,8.96,18.81,14.76,1.1,1.15,2.31,1.79,3.92,1.57,2.15,3.47,4.5,6.83,6.19,10.58-3.3,1.14-3.23,1.13-2.67,4.76.55,3.57,1.39,7.11,1.1,10.78-.3,3.72-.9,7.2-3.72,10.11-4.13,4.26-7.95,8.81-11.95,13.19-1.06,1.16-1.37,2.26-.4,3.71,5.53-6.25,10.52-12.85,17.38-17.64,2.7-1.88,4.9-4.72,7.82-5.97,5.26-2.26,11.1-2.18,16.38-.18,8.04,3.03,15.4,7.5,21.81,13.3,2.43,2.19,5.04,4.29,6.72,7.19,2.14,3.71,4.38,7.37,6.24,11.22,1.21,2.51,2.61,4.02,5.54,3.37.18,2.63.37,5.25.55,7.88-.65-.08-1.3-.11-1.94-.23q-3.09-.57-3.58,2.6c-.29,1.87-.61,3.74-.89,5.61-.16,1.08-.45,2.08-1.24,2.89-4.16,4.23-8.54,8.14-13.96,10.77-2.69,1.3-5.18,3-7.76,4.52,5.69-.49,11.07-1.74,16.04-4.38.94-.5,1.88-.96,3.02-.94,3.21.05,6.45-.23,9.63.12,2.97.33,6.11-.35,8.92,1.3,4.32,2.54,8.72,4.97,13.02,7.55,3.99,2.38,7.06,5.95,8.97,9.94,4.39,9.17,7.52,18.78,6.38,29.23-.19,1.76.24,2.8,2.27,2.87,1.29.05,2.56.5,3.84.77l-4.11,6.71c-2.85-.96-4.37-.4-5.98,2.27-.45.75-1.11,1.18-1.83,1.59-1.72.98-3.35,2.12-5.13,2.95-5.02,2.33-10.05,4.65-15.87,3.32-1.28-.29-2.66-.2-4.12-.29,1.99,3.88,4.58,5.85,8.93,5.52,3.67-.27,7.4.39,11.1.36,9.2-.07,16.95,3.17,23.46,9.63,2.5,2.48,5.09,4.7,6.83,7.97,6.89,12.95,10.44,26.77,11.2,41.32.14,2.74,1.18,4,3.56,4.62-1.09,2.32-1.61,4.89-3,7.08-1.96-.74-3.48-.19-4.68,1.5-.52.74-1.22,1.36-1.67,2.13-1.2,2.06-2.99,2.98-5.28,3.61-5.35,1.48-10.73,1.45-16.14.93-2.4-.23-3.82.7-4.96,2.75,7.13,1.89,14.11,3.75,21.1,5.57.82.21,1.56.45,2.17,1.07,6.13,6.32,10.86,13.59,14.53,21.57.23.51.29,1.11.35,1.67.84,7.88.8,15.7-.69,23.56-.88,4.62-3.11,9.92,2.79,13.29-1.75,2.06-4.33,3.32-5.54,5.88-1.42-1.24-2.95-2.38-4.22-3.76-1.07-1.16-1.7-.92-2.78,0-1.48,1.26-2.68,3.26-4.64,3.49-2.88.34-5.84-.7-8.77.12-.58.16-.75-.53-1.13-.73-2.43-1.3-4.39-3.62-7.43-3.58-.91.01-2.23-.76-2.57.98-.28,1.4-.14,2.35,1.36,3.17,5.62,3.07,11.26,6.11,16.98,9.01,3.13,1.59,5.64,4.56,6.41,7.5,1.14,4.34.98,9.21-.16,13.69-1.05,4.11-2.77,8.07-4.37,12.03-2,4.94-2.07,4.9,2.1,8.22.13.1.23.23.35.35-2.17,2.07-4.34,4.14-6.51,6.21-1.06-1.31-2.6-1.9-3.95-2.8-2.55-1.69-5.52-.65-8.13-1.61-5.08-1.88-10.16-3.76-15.24-5.64-.37-.14-.79-.5-1.08-.06-.2.31-.22.78-.21,1.18.03.89.86,1.15,1.42,1.59,3.94,3.12,8.01,6.09,11.83,9.35,3.07,2.62,6.12,5.76,7.32,9.45,1.52,4.68,2.34,9.77,1.63,14.86-.69,4.97-1.1,9.99-2,14.93-1.09,5.95-3.95,11.07-8.6,15.05-3,2.57-6.27,4.8-8.94,7.78-.95,1.06-1.19,1.89-.78,3.26.69,2.35,1.08,4.8,1.6,7.2-3.45,2.27-6.9,4.55-10.35,6.82-.8-2.21-.66-4.56-.91-6.84-.18-1.6-1.36-2.26-2.24-1.93-2.14.81-3.74-.25-5.54-.84-4.75-1.54-8.43-4.27-10.52-8.94-.84-1.87-1.83-3.68-2.69-5.54-.32-.7-.52-1.31-1.51-1.31-1.14,0-1.28.67-1.5,1.54-.47,1.87-1.12,3.63-3.58,2.03-.56,1.43-.25,2.5.48,3.62,1.53,2.34,3.05,4.71,4.36,7.17,1.88,3.54,3.45,7.18,6.38,10.16,1.31,1.34,2.47,3.53,2.03,5.83-.79,4.23-1.73,8.37-5.57,11.12-1.12.8-1.95,2-2.95,2.99-5.39,5.35-12.07,8.44-19.18,10.68-7.08,2.23-14.4,2.51-21.77,2.62-5.29.08-10.27-1.41-14.59-3.83-9.17-5.14-18.12-10.78-25.44-18.55-3.1-3.29-6.44-6.28-8.91-10.18-3.33-5.27-5.51-11.01-7.75-16.75-.42-1.08-.67-2.08-2.35-1.43-5.5,2.13-10.17,1.01-13.65-3.97.37-1.11.06-2.04-.56-3.01-2.48-3.9-4.2-8.13-5.86-12.44-1.53-3.96-3.86-7.6-5.7-11.45-7.48-15.64-12.33-32.16-16.4-48.94-.24-1.01-.2-2.14-1.01-2.96.29-.94.56-1.88.87-2.82,2.22-6.79,5.28-13.28,6.37-20.45,2.26-14.94,6.84-29.55,6.14-44.89-.34-7.45,1.19-14.96-1.01-22.35-.89-2.99-1.24-6.13-2.04-9.15-1.53-5.79-1.92-11.85-4.45-17.39-6.87-15.04-13.68-30.1-20.48-45.17-.69-1.52-1.54-2.88-2.61-4.15-5.69-6.74-11.24-13.6-17-20.28-4.06-4.71-7.64-9.79-13.03-13.37-16.45-10.91-32.16-22.93-50.44-30.93-12.95-5.67-25.52-12.11-39.75-14.26-11.88-1.8-23.7-3.95-35.74-4.59-6.71-.36-13.34.35-19.97,1.01-9.23.92-18.57,1.01-27.5,4.11-1.92.67-3.94,1.19-5.93,1.75-7.6,2.13-15.28,4.01-22.76,6.51-12.2,4.08-24.86,7.21-35.42,15.17-.12.09-.31.11-.46.16-3.57-.41-7.17-.65-10.7-1.26-5.94-1.03-11.11-3.76-15.65-7.71Z" fill="#fad00a" stroke-width="0"/><path d="M217.61,629.78c3.87-6.42,8.41-12.39,12.64-18.57,6.52-9.52,13.44-18.77,19.63-28.49,5.74-9.02,10.1-18.83,14.32-28.66,1.75-4.07,3.56-8.12,5.37-12.17,2.42-5.41,2.45-11.39,4.03-16.99,2.37-8.37,4.94-16.69,7.63-25.73.57,2.32.99,3.9,1.35,5.49.81,3.62,2.96,6.38,5.72,8.68,2.26,1.88,6.12,2.02,8.62.45,3.69-2.33,7.36-4.7,11.07-7,.94-.58,1.63-1.35,2.27-2.22,6.56-8.78,13.22-17.5,19.67-26.36,3.38-4.65,7.55-7.4,13.78-7.01-.85,3.38-1.47,6.8-2.79,10.02-3.15,7.68-6.01,15.52-9.71,22.92-3.56,7.12-8.02,13.8-12.12,20.65-6,10.04-12.03,20.05-18.04,30.08-2.31,3.86-1.74,7.99.23,11.45,4.48,7.86,9.65,15.33,14.33,23.09,4.73,7.83,7.1,16.58,9.19,25.4.18.76-.07,1.07-.65,1.34-.67.32-1.32.67-2,.96-13.43,5.7-24.2,15.21-34.96,24.66-6.1,5.36-12.73,9.91-19.4,14.46-.45.31-.9.95-1.49.66-.65-.31-.7-1.06-.63-1.74.38-3.94.83-8,2.77-11.42,4.4-7.77,7.92-15.88,10.79-24.31.24-.69.6-1.45.51-2.12-.12-.9.15-2.33-1.05-2.5-1.1-.16-2.34-.09-3.21,1.23-3.74,5.72-7.65,11.34-11.43,17.04-9.36,14.13-19.85,27.33-32.16,39.03-2.87,2.73-5.87,5.38-8.36,8.43-8.7,10.63-20.82,16.45-32.22,23.31-.7.42-1.38.89-2.07,1.34-.65.35-1.3.69-2.09,1.11-.24-1.06.38-1.76.74-2.5,2.54-5.26,5.09-10.51,7.67-15.75,1.34-2.73,2.81-5.36,4.51-7.91,6.96-10.42,12.75-21.45,16.72-33.37,1.85-5.55,2.23-11.25.82-17Z" fill="#2b3e95" stroke-width="0"/><path d="M419.72,620.52c-4.74.52-9.49.93-14.27.98-1.38.01-2.37-.32-3.1-1.48-.31-.49-.75-.89-1.04-1.38-3.82-6.35-9.77-10.04-16.25-13.08-1.54-.72-3.21-.65-4.78-1.03-8.45-2.05-16.43.07-24.48,2.3-7.21,2-14.5,3.68-21.75,5.53-1.36.35-2.21.35-2.62-1.41-.7-3.04-1.71-6.01-2.67-8.98-.46-1.43-.15-1.96,1.4-2.34,16.32-3.99,32.91-6.51,49.46-9.19,4.99-.81,10.22-.45,15.32-.13,10.07.63,19.83-1.48,29.71-2.66,3.49-.42,6.17-2.04,8.76-4.1,2.9-2.31,5.72-4.74,8.72-6.91,1.49-1.08,1.56-2.08,1.06-3.68-9.54-30.09-19.01-60.2-28.58-90.29-.58-1.83-.34-2.6,1.45-3.28,4.53-1.74,9.01-3.61,13.46-5.54,1.22-.53,2.12-.48,3.16.33,3.15,2.47,7.05,3.98,9.42,7.48.67,1,1.05,1.87.97,3.16-.18,2.87-.06,5.76-.06,8.64,9.44,28.2,21.37,55.46,31.24,83.5,1.65,4.69,2.18,9.64,2.6,14.52.22,2.53-.87,5.37-2.48,7.62-2.13,2.97-3.9,6.15-5.67,9.33-.73,1.31-1.81,1.95-3.09,2.6-10.97,5.58-23.03,6.26-34.88,7.93-3.67.52-7.33,1.04-11,1.57Z" fill="#2b3e95" stroke-width="0"/><path d="M183.36,223.5c.16-.05.34-.07.46-.16,10.56-7.95,23.21-11.09,35.42-15.17,7.48-2.5,15.16-4.38,22.76-6.51,1.98-.56,4.01-1.08,5.93-1.75,8.93-3.1,18.27-3.19,27.5-4.11,6.63-.66,13.26-1.37,19.97-1.01,12.04.65,23.86,2.79,35.74,4.59,14.23,2.16,26.8,8.6,39.75,14.26,18.28,8,33.99,20.02,50.44,30.93,5.4,3.58,8.97,8.66,13.03,13.37,5.76,6.68,11.32,13.54,17,20.28,1.08,1.28,1.93,2.64,2.61,4.15,6.81,15.07,13.62,30.13,20.48,45.17,2.53,5.54,2.92,11.61,4.45,17.39.8,3.02,1.15,6.16,2.04,9.15,2.2,7.39.67,14.9,1.01,22.35.7,15.35-3.88,29.96-6.14,44.89-1.08,7.17-4.15,13.66-6.37,20.45-.31.93-.58,1.88-.87,2.82-.85,1.84-1.59,3.72-1.99,5.72-.66.47-.76,1.24-.97,1.92-1.61,5.31-4.12,10.18-7.09,14.85-.75,1.18-1.97,2.2-1.85,3.82,0,0,.03-.04.03-.04-.51-.17-.57.27-.76.55-.57.98-1.13,1.97-1.7,2.95-5.28-1.89-10.03-4.89-15.09-7.22-.99-.46-.61-.93-.08-1.45,9.08-8.9,13.63-20.69,19.85-31.39,2.69-4.63,2.94-10.4,4.69-15.53,2.94-8.62,3-17.64,4-26.53.54-4.83.88-9.67,1.43-14.5.66-5.78-.19-11.5-.52-17.24-.31-5.26-1.01-10.5-1.23-15.76-.13-3.1-1.43-5.71-2.53-8.43-3.35-8.32-6.44-16.75-10.18-24.89-2.46-5.36-5.83-10.31-8.84-15.42-3.26-5.54-6.6-11.02-9.84-16.57-3.75-6.43-9.66-10.97-14.39-16.54-9.22-10.85-20.77-19.04-31.94-27.59-5.71-4.37-12.68-7.04-18.64-11.11-7.81-5.32-16.75-7-25.59-9.16-6.79-1.66-13.53-3.6-20.39-4.86-7.52-1.38-15.15-2.13-22.73-3.12-6.12-.8-12.26-1.49-18.37-2.36-4.11-.59-8.04.51-12.01,1.04-9.87,1.31-19.72,2.79-29.56,4.31-3.91.6-7.57,2.2-11.33,3.39-6.97,2.21-13.89,4.64-20.92,6.64-6.62,1.88-12.1,5.89-18.06,8.99-14.25,7.39-27.13,16.87-39.98,26.36-3.91,2.89-6.86,6.87-10.18,10.41-1.39,1.48-2.6,1.98-4.48,1.18-1.27-.54-2.68-.76-4.28-1.2,6.36-7.09,12.61-14.05,18.86-21.02,4.39-3.17,8.77-6.33,13.15-9.5.45-.33.86-.71,1.28-1.06.39.08.77.16.82-.42,0,0-.04.03-.04.03.51.13.86-.03,1.01-.55,0,0-.04.03-.04.03.35.01.61-.07.55-.5,0,0-.04.03-.04.03.5.11.83-.08,1.01-.55l-.04.03c.71-.04,1.17-.45,1.52-1.03l-.04.03c.25-.16.5-.31.76-.47,2.77-2.49,6.29-3.79,9.3-5.91.72-.51,1.48-.97,2.22-1.46Z" fill="#2b3e95" stroke-width="0"/><path d="M103.48,489.78c.12-.3.26-.6.36-.91,1.76-5.41,5.77-6.17,9.74-1.95.86.91.62,1.57.37,2.59-.6,2.4-1.64,4.85.61,7.14,1.28,1.31,2.92,1.3,4.34,1.38,3.82.2,6.54,2.04,9.12,4.66,2.67,2.7,6.08,4.5,9.31,6.46,1.09.66,5.04-.78,5.81-1.84.53-.73.12-1.24-.17-1.8-.92-1.74-1.47-3.59-1.85-5.82,2.44.6,4.43,1.45,6.13,3.13,4.62,4.55,6.13,10.35,6.95,16.49.31,2.37.47,4.8,1.17,7.05.67,2.19-.46,3.44-1.98,3.77-1.53.33-3.11-.78-3.9-2.32-.52-1.01-.91-2.15-1.06-3.27-.54-4.09-3.38-5.8-6.84-7.12-6.27-2.39-12.74-3.31-19.39-2.77-2.9.23-5.4,1.91-8.04,3.03-.89.38.09,3.73,1.28,4.14,1.53.52,3.12,1.15,4.69-.09,1.94-1.52,4.04-1.65,6.23-.42-1.28,3.51-3.72,6.06-7,7.84-1.32.71-1.79,1.67-1.74,3.18.13,3.78-.47,7.58.14,11.36.22,1.35-.89,1.83-1.41,2.7-1.04,1.73-1.69.09-2.48-.24-2.44-1.02-4.98-1.71-7.61-1.96-1.41-.14-4.7,3.11-4.89,4.92-.46,4.32-1.51,8.57-.66,13,.59,3.05,1.93,5.75,3,8.58.13.34.49.67.83.85,3.89,2.06,7.35,4.94,12.11,5.16,5.7.25,11.05,2.57,16.67,3.38,2.61.38,5.2.65,7.86.37,2.99-.32,5.41-1.65,7.04-4.01,12.5-18.21,22.71-37.63,29.76-58.58,1.84-5.47,2.71-11.45,2.94-17.24.17-4.27-1.7-8.42-4.9-11.77-2.41-2.53-2.24-2.7.55-4.78,20.06-15.03,40.19-29.96,59.71-45.69,1.28-1.03,2.59-1.53,4.24-1.64,3.85-.24,7.68-.7,11.71-.66-1.54,1.12-3.03,2.34-4.64,3.35-8.66,5.47-15.92,12.49-22.45,20.31-1.85,2.22-3.9,4.24-6.06,6.17-5.4,4.82-9.87,10.35-13.05,16.9-.86,1.77-1.88,3.49-3.04,5.08-1.57,2.17-2.76,4.44-3.28,7.09-.59,2.99-2.63,5.27-4.1,7.83-.99,1.72-2.06,3.38-2.46,5.35-1.5,7.31-6.25,13.19-8.77,20.07-8.31,22.75-18.67,44.59-29.36,66.29-1.32,2.68-2.71,5.4-5.26,7.23-4.27-3.54-8.97-6.53-13.91-8.86-4.64-2.19-9.85-3.36-14.96-3.95-8.55-.98-16.19-4.61-24.12-7.4-.55-.19-1.03-.38-1.38-.93-3.77-6.03-7.36-12.1-6.46-19.69.16-1.33.32-2.56,1-3.74,1.31-2.27,2.64-4.55,3.33-7.12,1.14-4.24,4.34-6.9,7.53-9.42,2.37-1.88,3.29-4.16,1.86-6.89-1.04-1.98-1.58-4.14-2.42-6.17-1.41-3.4-.94-6.5.97-9.33,3.6-5.35,2.82-11,1.1-16.54-1.06-3.41-1.33-6.44.46-9.58.4-.69.5-1.56.74-2.34Z" fill="#2b3e95" stroke-width="0"/><path d="M99.75,67.36c-.02,1.4-.19,2.81-.02,4.19.2,1.65-.5,1.97-1.93,1.9-4.53-.22-9.06-.06-13.59-.41-5.85-.46-11.69.25-17.53.53-3.45.16-6.9.66-10.35.7-2.66.02-4.92.72-7.18,2.1-5.33,3.27-10.78,6.37-16.2,9.49-1.25.72-2.19,1.64-2.91,2.9-1.87,3.29-3.71,6.62-5.78,9.78-6.55,9.99-9.11,20.99-8.54,32.81.51,10.71,4.13,20.31,11.39,28.17,3.03,3.27,7.3,5.33,11.32,7.41,4.53,2.34,9.34,4.13,13.83,6.54,4.93,2.65,10.21,3.39,15.62,3.94,9.25.93,18.5,1.97,27.75,2.97,2.01.22,2.78,2.2,1.63,4.06-4.65,2.8-9.44,5.39-13.91,8.45-4.59,3.16-9.7,3.35-14.67,2.6-9.83-1.48-19.58-3.52-28.72-7.72-.97-.45-1.96-.78-2.78-1.54-9.55-8.83-19.56-17.2-27.49-27.64-.54-.72-1.16-1.35-1.49-2.24-3.55-9.41-6.18-19.07-8.12-28.93-.16-.79,0-1.45.16-2.16,1.99-8.32,3.96-16.65,5.99-24.96.74-3.01,2.76-5.49,3.7-8.43,1.87-5.89,6.35-9.49,10.93-13.24,3.6-2.95,6.88-6.35,10.36-9.5,1.06-.96,2.2-1.63,3.6-1.99,7.33-1.86,14.45-4.65,21.92-5.77,6.96-1.04,14-2.55,21.1-1.41,4.44.71,8.9-.45,13.28.49,2.23.48,4.42.67,6.67.14,1.24-.29,1.75.25,1.71,1.59-.04,1.72.16,3.44.26,5.16Z" fill="#2b3e95" stroke-width="0"/><path d="M498.13,523.42c3.49,4.98,8.15,6.09,13.65,3.97,1.68-.65,1.93.35,2.35,1.43,2.24,5.74,4.42,11.48,7.75,16.75,2.47,3.9,5.82,6.9,8.91,10.18,7.32,7.77,16.27,13.41,25.44,18.55,4.32,2.42,9.29,3.91,14.59,3.83,7.37-.11,14.69-.39,21.77-2.62,7.11-2.24,13.79-5.33,19.18-10.68.99-.99,1.83-2.18,2.95-2.99,3.84-2.75,4.78-6.89,5.57-11.12.43-2.3-.72-4.49-2.03-5.83-2.93-2.98-4.5-6.62-6.38-10.16-1.31-2.47-2.83-4.83-4.36-7.17-.73-1.12-1.04-2.19-.48-3.62,2.46,1.59,3.11-.16,3.58-2.03.22-.87.37-1.54,1.5-1.54.99,0,1.19.61,1.51,1.31.86,1.86,1.85,3.67,2.69,5.54,2.09,4.67,5.77,7.4,10.52,8.94,1.81.59,3.41,1.65,5.54.84.87-.33,2.06.32,2.24,1.93.25,2.28.11,4.63.91,6.84,1.83,4.86.48,8.89-2.83,12.72-2.52,2.91-4.7,6.15-6.75,9.42-3.68,5.85-8.42,10.74-13.34,15.5-.6.58-1.22,1.07-2.01,1.37-7.22,2.73-14.38,5.51-22.04,6.95-5.57,1.05-11.17.55-16.69,1.22-10.21,1.23-18.98-3.11-27.87-6.73-4.73-1.92-9.62-3.88-13.49-7.51-5.57-5.21-11.43-10.14-16.69-15.64-3.56-3.72-5.83-8.52-8.58-12.91-4.36-6.96-6.48-14.68-7.77-22.69-.23-1.43.16-2.75.66-4.06Z" fill="#2b3e95" stroke-width="0"/><path d="M277.09,769.8c-2.43-1.18-4.85-2.39-7.3-3.53-.99-.46-1.16-.83-.37-1.74,7.37-8.55,14.65-17.19,22.09-25.68,1.26-1.44,3.16-2.34,4.81-3.41,3.59-2.34,7.3-4.49,10.79-6.97,5.65-4,12.39-5.17,18.67-7.51,5.24-1.95,10.64-3.46,15.86-5.45,3.96-1.51,7.98-.83,11.97-.88,5.9-.08,11.79.69,17.68.78,8.91.13,17.27,1.94,25.2,6.08,11.6,6.04,23.28,11.91,35.01,17.69,2.18,1.07,2.29,1.93.87,3.62-.78.93-1.31,2.08-1.95,3.13-1.12,1.62-2.27,3.23-3.34,4.88-.56.86-1.05,1.01-1.99.47-2.28-1.31-4.69-2.39-6.95-3.73-9.66-5.72-20.02-9.99-30.44-13.96-6.67-2.54-13.72-4.38-21.06-4.27-4.7.07-9.42.16-14.1-.18-5.12-.37-9.71,1.47-14.43,2.82-3.32.95-6.59,2.1-9.93,2.97-4.92,1.28-9.26,3.54-13.43,6.48-7.18,5.07-14.29,10.26-21.74,14.97-2,1.26-3.13,3.91-4.65,5.92-.46.3-.9.6-.92,1.23,0,0,.03-.04.03-.04-1.13.75-1.92,1.8-2.51,3.01,0,0,.03-.04.03-.04-.17.18-.34.36-.51.54,0,0,.02-.03.02-.03-.17.21-.34.41-.51.62-.23.24-.46.46-.67.71q-2.55,3.02-6.25,1.51Z" fill="#2b3e95" stroke-width="0"/><path d="M210.35,33.16c-.34,1.27-1,1.53-2.35,1.24-8.54-1.84-17.15-3.18-25.92-3.24-4.87-.03-9.64.99-14.47,1.34-1.72.12-3.43.65-5.14.61-5.61-.12-10.33,2.33-15.03,4.89-1.37.75-2.72,1.59-4.17,2.14-7.09,2.68-12.46,7.56-16.98,13.41-2.54,3.29-3.48,7.44-4.5,11.37-.73,2.79,2.52,7.27,5.27,8.55,7.83,3.63,15.64,7.32,23.52,10.86,1.62.73,2.27,1.41,1.33,3.08-.36.63-.53,1.38-.71,2.1-.31,1.23-.87,1.44-2.11.97-9.45-3.59-18.99-6.95-28.39-10.68-3.98-1.58-7.18-4.62-10.73-7-.58-.39-.6-1.13-.79-1.76-.65-2.12-1.32-4.24-1.99-6.36,2.21-8.54,5.6-16.59,10.53-23.89,2.48-3.68,4.49-7.74,7.88-10.78.62-.56,1.19-1.03,1.99-1.35,4.21-1.68,8.39-3.35,12.33-5.68,3.78-2.24,8.19-2.83,12.44-3.73,5.62-1.18,11.12-2.94,16.94-3.15,5.33-.2,10.66-.59,15.99-.93,1.16-.07,2.27,0,3.4.31,7.61,2.08,15.22,4.17,22.86,6.14,1.82.47,2.08,1.15,1.46,2.85-1.03,2.85-1.78,5.81-2.65,8.72Z" fill="#2b3e95" stroke-width="0"/><path d="M439.05,733.84c-2.31-1.07-4.58-2.23-6.95-3.17-1.57-.62-1.83-1.31-1.24-2.93,3.15-8.56,6.12-17.19,9.22-25.77,1.4-3.87,1.19-7.45-.98-11.05-4.9-8.1-9.7-16.26-14.45-24.44-6.37-10.99-10.93-22.82-15.92-34.45-2.07-4.81-2.04-4.81,3.08-5.62,2.27-.36,4.57-.67,6.79-1.22,1.1-.27,1.8-.01,2.49.72,0,0-.02-.05-.02-.05-.28.72.04,1.27.52,1.77,1.24,4.17,3.12,8.07,4.97,11.99,3.46,7.32,6.73,14.73,10.84,21.74,2.48,4.23,6.41,7.3,8.68,11.64,2.77,5.3,6.93,9.58,10.5,14.28.9,1.18,1.27,2.31,1.18,3.82-.24,4.31-1.37,8.36-2.87,12.39-3.41,9.15-6.63,18.38-9.93,27.57-1.4,3.88-2.17,4.24-5.91,2.78Z" fill="#2b3e95" stroke-width="0"/><path d="M110.53,399.14c.49-.31.99-.6,1.45-.94,1.4-1.01,3.18-1.53,4.65-1.33,1.9.26,1.09,2.51,1.57,3.84.25.69.21,1.49.5,2.16.91,2.12.09,3.66-1.25,5.34-3.49,4.39-5.58,9.66-8.63,14.36-6.05,9.32-11.38,19.09-17.02,28.67-2.34,3.98-2.78,8.9.58,13.19.65.83,1.34,1.07,2.29,1.12,7.2.37,14.15,2.12,21.12,3.77,3.47.82,6.19,3.4,9.64,4.34.4.11.83.17,1.17.39,3.9,2.47,6.76.09,9.68-2.04.43-.31.62-.73.71-1.24.7-3.73.85-7.43-1.76-10.53-1.66-1.97-1.83-4.12-1.54-6.49.91.01,1.12.87,1.55,1.39,3.38,4.16,6.66,8.4,10.08,12.53,1.51,1.82,2.33,3.97,3.25,6.07.58,1.33-1.99,4.56-3.88,4.43-4.44-.31-7.87,1.84-11.47,3.87-3.86,2.18-7.76,3.3-12.34,1.28-4.56-2.01-9.24-3.9-14.11-5.15-2.54-.24-5.08-.67-7.62-.67-3.41,0-6.43-1.2-9.51-2.37-.63-.24-1.15-.55-1.56-1.12-3.55-4.85-6.7-9.92-8.7-15.62-2.25-6.39-.74-12.47,2.47-17.94,6.33-10.78,12.66-21.6,21.11-30.95.85-.94,1.39-2.04,1.86-3.18,1.22-2.95,2.91-5.5,5.72-7.18Z" fill="#2b3e95" stroke-width="0"/><path d="M659.38,231.14c-1.28-.27-2.55-.72-3.84-.77-2.03-.07-2.46-1.12-2.27-2.87,1.15-10.45-1.99-20.07-6.38-29.23-1.91-3.99-4.98-7.56-8.97-9.94-4.31-2.57-8.7-5-13.02-7.55-2.8-1.65-5.94-.97-8.92-1.3-3.17-.36-6.41-.07-9.63-.12-1.14-.02-2.08.44-3.02.94-4.97,2.65-10.35,3.89-16.04,4.38,2.58-1.52,5.08-3.22,7.76-4.52,5.42-2.63,9.8-6.54,13.96-10.77.79-.81,1.08-1.81,1.24-2.89.28-1.87.6-3.74.89-5.61q.5-3.17,3.58-2.6c.64.12,1.29.16,1.94.23,6.66.75,12.52,3.89,18.47,6.58,3.41,1.54,6.31,4.11,9.05,6.75,4.74,4.57,8.27,10.09,12.12,15.36,5.9,8.08,9.45,17.28,11.89,26.79,1.43,5.57,1.41,11.56.1,17.39-.27,1.22-.76,1.19-1.64,1.03-2.43-.44-4.86-.85-7.29-1.28Z" fill="#2b3e95" stroke-width="0"/><path d="M473.08,51.06c-.14.07-.31.13-.43.23-1.07.9-2.09,2.5-3.2,2.56-1.57.09-1.16-2.15-1.96-3.17-.2-.26-.44-.5-.7-.69-7.09-5.08-14.16-10.21-22.44-13.3-.8-.3-1.58-.38-2.41-.39-6.92-.05-13.85-.17-20.77-.15-6.78.02-12.97,2.81-19.45,4.27-2.24.51-3.53,1.83-4.88,3.64-4.41,5.87-3.62,11.78-.61,17.75,2.33,4.6,4.5,9.18,3.89,14.55-.35.15-.56-.02-.72-.36-6.14-12.47-12.28-24.94-18.42-37.4-.21-.44-.56-.83-.39-1.38,5.79-3.7,11.31-7.97,17.45-10.95,5.65-2.75,11.4-5.53,18.21-5.4,17.35.32,33.98,3.62,49.97,10.3,1.87.78,3.23,2.25,4.79,3.44,3.14,2.4,6.18,4.95,9.35,7.31,1.31.98,1.26,1.51.04,2.53-2.52,2.12-4.89,4.4-7.32,6.62Z" fill="#2b3e95" stroke-width="0"/><path d="M298.91,18.75c-.97,1.45-2.07,1.47-3.71.87-7.15-2.62-14.66-2.85-22.14-2.55-6.97.28-13.95.79-20.65,3.05-5.33,1.8-10.35,4.41-14.88,7.53-2.77,1.91-4.66,5.58-6.06,8.84-.8,1.86,1.08,4.12,2.51,5.78,2.4,2.76,4.97,5.38,7.18,8.44-1.25-.7-2.51-1.38-3.75-2.11-4.88-2.88-9.73-5.84-14.66-8.64-1.98-1.13-3.79-2.23-4.08-4.74-.97-5.09.82-9.54,3.58-13.58,5.15-7.54,12.13-12.83,20.65-16.1,4.59-1.76,8.93-4.22,13.92-4.83,8.03-.98,16.01-1.02,24,.59,4.99,1.01,10.05,1.49,14.92,3.19,3.42,1.19,6.15,3.42,9.25,5.09,1.1.59.45,1.13-.02,1.7-2.03,2.49-4.05,4.99-6.07,7.48Z" fill="#2b3e95" stroke-width="0"/><path d="M691.94,401.82c-5.9-3.37-3.66-8.67-2.79-13.29,1.49-7.86,1.53-15.67.69-23.56-.06-.56-.12-1.17-.35-1.67-3.67-7.98-8.4-15.24-14.53-21.57-.61-.63-1.35-.86-2.17-1.07-6.99-1.82-13.97-3.68-21.1-5.57,1.14-2.05,2.56-2.98,4.96-2.75,5.41.53,10.79.55,16.14-.93,2.29-.63,4.08-1.55,5.28-3.61.45-.77,1.15-1.39,1.67-2.13,1.19-1.69,2.72-2.24,4.68-1.5,5.28.84,7.96,5.03,10.7,8.8,5.37,7.39,6.35,16.3,7.56,25,.69,4.96.98,10.01,1,15.01.02,6.58-.56,13.15-2.32,19.55-.86,3.11-1.35,6.27-1.72,9.46-.12,1.06-.58,2.09-1.59,2.01-1.1-.08-2.23,1.3-3.36-.2-.66-.86-1.82-1.34-2.75-1.99Z" fill="#2b3e95" stroke-width="0"/><path d="M616.13,150.65c-2.93.65-4.33-.86-5.54-3.37-1.85-3.85-4.1-7.51-6.24-11.22-1.68-2.9-4.3-5-6.72-7.19-6.41-5.8-13.77-10.26-21.81-13.3-5.28-1.99-11.12-2.08-16.38.18-2.92,1.26-5.13,4.09-7.82,5.97-6.86,4.78-11.84,11.39-17.38,17.64-.97-1.45-.66-2.55.4-3.71,4-4.38,7.82-8.94,11.95-13.19,2.81-2.9,3.42-6.39,3.72-10.11.29-3.66-.55-7.21-1.1-10.78-.56-3.63-.64-3.62,2.67-4.76,3.72-1.11,7.52.12,11.18-.27,3.93-.42,7.44.72,10.41,2.44,4.15,2.41,8.57,4.19,12.79,6.39,7.59,3.96,13.51,9.79,19.57,15.57,6.28,6,11.01,13.06,15.03,20.69,1.13,2.15,1.69,4.41,2.36,6.69.41,1.4-.25,1.53-1.23,1.65-1.96.22-3.92.44-5.87.66Z" fill="#2b3e95" stroke-width="0"/><path d="M687.42,317.1c-2.38-.62-3.42-1.88-3.56-4.62-.76-14.55-4.32-28.36-11.2-41.32-1.74-3.27-4.34-5.49-6.83-7.97-6.51-6.46-14.26-9.71-23.46-9.63-3.7.03-7.43-.63-11.1-.36-4.35.32-6.94-1.64-8.93-5.52,1.46.09,2.83,0,4.12.29,5.82,1.33,10.85-.99,15.87-3.32,1.78-.83,3.42-1.97,5.13-2.95.72-.41,1.38-.85,1.83-1.59,1.61-2.66,3.13-3.22,5.98-2.27,3.63,2.38,7.64,4.11,11.21,6.63,7.86,5.54,12.91,13.22,16.99,21.67,5.78,11.96,8.51,24.83,10.65,37.8.68,4.12.83,8.48-1.14,12.59-.82,1.71-1.52,2.31-3.25,1.38-.71-.38-1.53-.54-2.31-.81Z" fill="#2b3e95" stroke-width="0"/><path d="M645.89,538.94c-.52-2.41-.91-4.85-1.6-7.2-.41-1.37-.17-2.2.78-3.26,2.66-2.98,5.93-5.22,8.94-7.78,4.65-3.98,7.5-9.09,8.6-15.05.91-4.93,1.31-9.95,2-14.93.71-5.1-.11-10.18-1.63-14.86-1.2-3.69-4.25-6.83-7.32-9.45-3.82-3.26-7.89-6.23-11.83-9.35-.55-.44-1.38-.7-1.42-1.59-.01-.4,0-.87.21-1.18.29-.45.71-.08,1.08.06,5.08,1.89,10.16,3.77,15.24,5.64,2.61.96,5.58-.08,8.13,1.61,1.35.89,2.89,1.49,3.95,2.8,5.63,6.58,7.53,14.56,7.93,22.86.28,5.86-1.44,11.57-3.06,17.19-1.73,6.01-3.83,11.97-6.78,17.45-4.4,8.16-9.41,16-18.86,19.36-1.09.39-1.9,2.29-3.17,1.11-.78-.73-.82-2.26-1.19-3.43Z" fill="#2b3e95" stroke-width="0"/><path d="M545.69,86.25c-1.61.22-2.82-.42-3.92-1.57-5.57-5.8-12.18-10.3-18.81-14.76-1.5-1.01-3.18-1.3-4.85-1.68-4.73-1.1-9.53-1.94-14.16-3.32-4.8-1.44-9.24.55-13.85.75-4.44.19-7.88,2.58-10.84,5.32-2.58,2.39-3.55,6.09-4.15,9.54-1.53,8.76-3.68,17.36-6.12,25.89-.1.35-.3.68-.64.95-.07-6.03.15-11.98.91-17.9.89-7.02,1.92-14.01,2.77-21.03.18-1.47.6-2.64,1.56-3.75,1.44-1.68,2.75-3.49,4.11-5.24,2.85-2.98,6.68-4.39,10.2-6.27,1.08-.57,2.39-.73,3.44-1.33,4.64-2.68,9.43-1.84,14.34-.99,6.54,1.14,12.29,3.91,17.8,7.46,3.45,2.22,7.07,4.18,10.68,6.13,9.07,4.9,15.72,12.28,21.7,20.95-3.57.3-6.87.57-10.17.85Z" fill="#2b3e95" stroke-width="0"/><path d="M371.76,31.05c-4.54-.38-8.77-1.96-13.06-3.35-8.78-2.84-17.8-3.78-26.99-3.01-2.43.2-4.83.19-7.26,1.01-3.01,1.01-3.76,2.71-3,6.15,2.19,10.06,6.22,19.56,9.28,29.35.64,2.04,1.45,4.02,2.03,6.07.14.48,1.16,1.41-.2,1.72-.8.18-1.6.12-1.99-.93-.98-2.62-2.05-5.2-3.08-7.79-2.82-7.1-5.67-14.18-8.43-21.3-.85-2.19-1.95-4.07-3.78-5.63-2.38-2.02-4.44-4.42-6.84-6.41-1.68-1.39-2.17-2.7-1-4.58.21-.33.23-.77.34-1.17,2.54-4.01,6.05-7.46,10.38-8.67,3.98-1.11,8.36-1.62,12.63-1.8,7.25-.3,14.52.08,21.61,1.41,5.03.94,9.82,3.14,14.71,4.79,5.18,1.76,10.36,3.53,16.01,5.46-3.52,3.03-6.72,5.79-9.92,8.54-.43.37-.94.16-1.42.13Z" fill="#2b3e95" stroke-width="0"/><path d="M191.94,711.76c.37-.18.81-.28,1.1-.54,4.37-3.87,8.04-2.7,12.59.48,20.26,14.12,40.81,27.84,61.32,41.61,1.88,1.26,1.92,2.07.66,3.73-1.84,2.42-3.42,5.03-5.11,7.56-.73,1.55-1.58,1.08-2.65.29-18.34-13.66-36.7-27.28-55.06-40.92-4.36-3.24-8.68-6.53-13.1-9.68-1.65-1.18-1.41-1.83.24-2.53Z" fill="#2b3e95" stroke-width="0"/><path d="M677.54,458.19c-.12-.12-.22-.25-.35-.35-4.17-3.32-4.09-3.29-2.1-8.22,1.6-3.96,3.31-7.91,4.37-12.03,1.15-4.48,1.3-9.35.16-13.69-.77-2.94-3.28-5.91-6.41-7.5-5.72-2.9-11.36-5.94-16.98-9.01-1.5-.82-1.64-1.77-1.36-3.17.35-1.74,1.66-.97,2.57-.98,3.03-.04,5,2.28,7.43,3.58.37.2.55.9,1.13.73,2.93-.82,5.89.22,8.77-.12,1.96-.23,3.16-2.23,4.64-3.49,1.08-.92,1.71-1.16,2.78,0,1.27,1.38,2.8,2.52,4.22,3.76,4.23,4.04,5.01,9.62,6.47,14.84,2.57,9.23.24,17.76-4.05,25.97-.98,1.87-1.79,3.85-2.44,5.85-.83,2.55-2.74,3.98-4.86,5.29-1.97,1.22-2.58-1.16-3.98-1.47Z" fill="#2b3e95" stroke-width="0"/><path d="M158.5,605.09c3.29-9.39,8.88-17.62,13.63-26.24,11.25-20.45,20.11-41.96,29.2-63.38,4.53-10.67,9.14-21.31,14.38-31.66.75-1.48,1.66-2.79,2.78-4.04,13.04-14.6,27.15-28.07,42.33-40.43,1.42-1.15,2.64-2.46,3.73-3.93,2.79-3.78,5.6-7.54,8.46-11.27,3.74-4.87,6.99-9.96,8.29-16.09.16-.75.27-1.62,1.02-2.16.76,3.29-.49,6.22-1.51,9.22-3.36,9.88-10.18,17.36-17.11,24.76-2.87,3.07-6.02,5.88-8.89,8.96-5.03,5.4-10.56,10.15-16.91,13.93-.63.37-1.29.81-1.73,1.37-6.69,8.55-13.88,16.64-19.26,26.24-5.53,9.87-10.1,20.09-14.44,30.5-6.01,14.42-13.07,28.38-19.7,42.53-5.44,11.62-10.52,23.41-17.15,34.44-1.65,2.74-4.21,4.61-5.96,7.2-.39.04-.75,1.1-1.18.04Z" fill="#2b3e95" stroke-width="0"/><path d="M123.11,269.23c12.41,6.98,24.81,13.98,37.24,20.93,38.94,21.78,77.9,43.54,116.84,65.31.35.2.68.42,1.06.66-.81,1.44-1.7,1.39-3,.68-43.25-23.67-86.52-47.31-129.8-70.93-8.38-4.57-16.79-9.07-25.19-13.6-.32-.68-2.25-.34-1.14-1.97,1.07-1.57,2.1-2.76,3.99-1.08Z" fill="#2b3e95" stroke-width="0"/><path d="M168.96,607.07c.7-2.06,2.21-3.64,3.22-5.52.49-.91,1.12-.69,1.85-.41,8.79,3.42,17.58,6.85,26.38,10.24.99.38,2.04.66,1.13,1.98-.7,1.01-.32,3.13-2.82,2.35-7.83-2.43-15.71-4.71-23.59-6.96-1.78-.51-3.48-1.55-5.46-1.12-.24-.19-.48-.38-.72-.57Z" fill="#2b3e95" stroke-width="0"/><path d="M456.7,470.93c-.13-1.63,1.1-2.64,1.85-3.82,2.97-4.67,5.48-9.54,7.09-14.85.21-.68.31-1.45.97-1.92.27,3.86-1.17,7.27-2.91,10.55-1.91,3.62-4.07,7.11-6.99,10.04Z" fill="#fad00a" stroke-width="0"/><path d="M284.97,766.49c.59-1.21,1.37-2.25,2.51-3.01-.22,1.52-.97,2.59-2.51,3.01Z" fill="#fad00a" stroke-width="0"/><path d="M171.13,231.32c-.35.58-.81.99-1.52,1.03.16-.85.76-1.06,1.52-1.03Z" fill="#fad00a" stroke-width="0"/><path d="M287.45,763.52c.01-.63.46-.93.92-1.23-.18.5-.09,1.21-.92,1.23Z" fill="#fad00a" stroke-width="0"/><path d="M421.59,627.64c-.48-.5-.79-1.05-.52-1.77.83.4.49,1.13.52,1.77Z" fill="#fad00a" stroke-width="0"/><path d="M168.17,233.31c-.15.52-.5.69-1.01.55.17-.49.55-.6,1.01-.55Z" fill="#fad00a" stroke-width="0"/><path d="M169.65,232.31c-.18.48-.51.66-1.01.55.15-.53.55-.6,1.01-.55Z" fill="#fad00a" stroke-width="0"/><path d="M168.68,232.84c.06.43-.2.52-.55.5-.03-.4.21-.51.55-.5Z" fill="#fad00a" stroke-width="0"/><path d="M455.98,471.45c.18-.28.24-.72.76-.55-.05.47-.34.6-.76.55Z" fill="#fad00a" stroke-width="0"/><path d="M171.85,230.87c-.25.16-.5.31-.76.47.05-.48.39-.5.76-.47Z" fill="#fad00a" stroke-width="0"/><path d="M167.2,233.83c-.05.57-.43.5-.82.42.27-.14.55-.28.82-.42Z" fill="#fad00a" stroke-width="0"/><path d="M284.49,767c.17-.18.34-.36.51-.54.05.39-.19.5-.51.54Z" fill="#fad00a" stroke-width="0"/><path d="M284.01,767.58c.17-.21.34-.41.51-.62-.17.21-.34.41-.51.62Z" fill="#fad00a" stroke-width="0"/><path d="M435.36,414.6c3.25-6.64,5.86-13.3,8.7-19.84,2.46-5.65,3.23-11.52,3.77-17.49.71-7.82-1.8-14.7-5.8-21.36-3.99-6.65-9.6-11.61-15.91-15.58-4.47-2.81-9.6-4.57-15.43-3.53-8.74,1.55-17.45,3.31-26.21,4.76-6.32,1.05-12.71.27-19.05-1.2-4.13-.96-6.93-3.56-10.04-5.94-.86-.66-.64-1.43-.44-2.23,1.15-4.46,2.3-8.92,3.47-13.37.21-.8.62-1.45,1.27-2.05,2.68-2.45,5.3-4.95,7.89-7.49.93-.91,2.03-1.37,3.25-1.61,7.94-1.58,15.56-4.13,22.85-7.62,1.94-.93,4.08-1.03,6.86-1.82-3.43-1.99-5.36-4.99-9.23-5.18-2.78-.14-5.53-.8-8.29-1.23-.83-.13-1.61-.02-2.44.17-4,.95-8.02,1.81-12.02,2.76-.95.22-1.93.53-2.74,1.05-9.58,6.1-19.54,11.65-28.29,19.01-1.14.96-2.2,1.96-3.08,3.17-5.09,7-10.26,13.95-15.29,20.98-.98,1.37-1.47,1.21-2.51.12-12.11-12.63-25.81-23.12-41.12-31.67-9.44-5.27-19.24-9.7-28.99-14.27-2.85-1.34-3.42-3.86-1.32-6.23,5.65-6.34,11.31-12.67,16.95-19.01.78-.88,1.65-1.58,2.67-2.16,5.65-3.22,11.39-6.31,16.89-9.76,5.4-3.39,11.6-4.56,17.37-6.9,7.63-3.08,15.65-3.64,23.67-4.3,5.66-.47,11.32-1.15,16.99-1.3,7.52-.2,15-1.04,22.51-1.08,2.26-.01,4.48-.04,6.71-.36,1.07-.15,1.93.26,2.83.66,6.09,2.7,12.18,5.41,18.28,8.09,1.93.85,3.41,2.29,5.04,3.55,5.36,4.13,10.54,8.49,16.04,12.4,3.69,2.63,6.11,6.15,8.47,9.81,7.99,12.4,16.09,24.72,23.91,37.22,4.9,7.82,8.32,16.43,12.08,24.83,1.38,3.07,1.64,6.65,1.97,10.09.16,1.73.67,3.45,1.16,5.13,1.12,3.85,1.01,7.75.92,11.71-.18,8.58-1.97,16.81-4.81,24.84-1.16,3.27-3.43,5.99-5.23,8.92-2.07,3.37-4.37,6.68-5.72,10.36-1.54,4.2-4.7,4.66-8.58,4.94Z" fill="#2b3e95" stroke-width="0"/><path d="M94.14,361.19c7.65,1.88,14.82,3.62,21.99,5.39,48.62,12,97.25,24,145.87,36.01,1.44.35,2.91.61,4.3,1.09,1.58.55,4.21.1,4.57,1.64.57,2.44,1.14,5.07.18,7.76-2.16,6.01-6.49,10.66-9.66,16.03-.33.56-.8.69-1.4.8-4.88.92-9.78,1.07-14.74.84-3.14-.14-6.48-.39-9.01,2.22-.61.63-1.01.15-1.43-.26-1.82-1.78-3.51-3.55-4.45-6.09-3-8.07-9.04-12.15-17.57-12.82-1.28-.1-1.51.27-1.67,1.37-.23,1.59.45,2.9,1,4.26.93,2.29,1.85,4.57,2.82,6.84,1.4,3.28-1.27,7.59-4.81,7.77-.58.03-.84-.43-1.2-.72-4.23-3.41-7.38-7.72-8.48-12.98-.99-4.74-3.96-7.33-7.73-9.51-2.78-1.61-5.23-4.18-8.95-3.22-1.19.31-2.41.54-3.61.8-2.79.6-3.44,2.22-1.59,4.56,1.99,2.52,4.1,4.96,6.33,7.27,1.56,1.61,2.39,3.52,3,5.57.19.65.98,1.42.27,2.03-.68.59-1.64.72-2.57.34-2.43-1-4.92-1.8-7.27-3.03-3.48-1.82-6.69-4.2-10.67-5.03-1.48-.31-2.9-.44-4.37-.16-4.44.85-8.89,1.68-13.33,2.54-3.98.77-7-1.02-8.11-5.22-.69-2.6-2.53-4.7-3.21-7.06-1.36-4.74-5.34-5.17-8.78-6.63-2.59-1.1-5-4.37-4.51-7.09.96-5.27-1.29-9.26-4.63-12.89-1.77-1.92-3.77-3.54-3.67-6.64.05-1.76-2.05-2.05-3.35-2.42-2.2-.63-4.52-1.03-6.8-1.12-3.28-.13-5.98-1.63-8.77-3.04-1.29-.65-1.25-2.06-1.71-3.15-.76-1.81-1.39-3.67-2.27-6.04Z" fill="#2b3e95" stroke-width="0"/><path d="M248.23,734.17c3.3-5.27,6.07-10.48,9.62-15.09,3.1-4.01,7.09-7.33,10.69-10.96.12-.12.28-.19.38-.32,7.52-9.39,18.32-14.11,28.55-19.46,4.79-2.51,10.45-3.37,15.72-4.96,1.97-.59,3.96-1.11,5.92-1.73,2.09-.65,4.12-1.04,6.4-.95,3.48.14,7-.41,10.49-.73,3.13-.29,6.27.64,9.32.23,3.37-.45,6.67-.49,10.02-.31,11.61.62,23.16,2.11,34.44,4.72,7.55,1.75,14.66,5.33,22.04,7.9,5.74,2,10.66,5.51,15.99,8.25.48.25,1.08.46.84,1.28-.59,1.97-1.07,3.98-1.73,5.92-.44,1.29-1.35.46-2.03.19-5.51-2.16-11.03-4.31-16.51-6.55-9.49-3.88-19.52-5.89-29.4-8.29-11.11-2.69-22.45-4.2-33.87-5.2-7.12-.62-14.11-.45-21.1,1.03-6.3,1.33-12.34,3.52-18.36,5.69-10.84,3.91-20.26,10.27-29.34,17.38-7.55,5.91-12.55,13.65-17.84,21.26-1.63,2.34-3.06,3.27-5.74,1.98-1.31-.63-2.82-.84-4.49-1.31Z" fill="#2b3e95" stroke-width="0"/><path d="M277.41,383.07c.8,4.02-4.52,6.11-7.44,5.34-12.23-3.24-24.43-6.56-36.65-9.85-6.42-1.73-12.84-3.5-19.28-5.16-1.53-.39-1.88-.88-1.44-2.5,2.48-9.03,4.84-18.09,7.16-27.16.4-1.58,1.08-1.77,2.54-1.45,4.29.92,7.92,3.28,11.51,5.5,10.92,6.74,22.72,11.94,33.24,19.35,2.64,1.86,5.09,3.92,7.53,6,1.66,1.42,1.91,3.59,2.39,5.54.37,1.5.32,3.1.43,4.4Z" fill="#2b3e95" stroke-width="0"/><path d="M181.43,576.15c2.02-3.87,4.06-7.73,6.04-11.61.54-1.06.91-1.66,2.39-1.14,10.55,3.69,21.15,7.26,31.73,10.87.23.08.42.24.78.44-4.5,7.79-8.98,15.55-13.48,23.31-2.04,3.52-2.06,3.52-5.88,2.22-8.87-3.01-17.73-6.07-26.62-9.02-1.64-.54-2.15-1.07-1.16-2.7.98-1.61,1.67-3.38,2.49-5.09.78-1.54,1.55-3.08,2.33-4.62,0,0-.03.06-.03.06.17-.35.34-.7.52-1.05,0,0-.03.07-.03.07.16-.31.32-.62.48-.93.09-.09.15-.21.17-.33.1-.16.19-.31.29-.47Z" fill="#2b3e95" stroke-width="0"/><path d="M236.66,224.94c-2.63,1.59-5.09,3.74-7.94,4.68-13.72,4.54-24.3,13.96-35.55,22.35-11.66,8.69-21.84,19.07-32.36,29.04-1.25,1.18-1.91,1.33-3.04-.02-1.69-2.02-3.52-3.93-5.37-5.81-.94-.96-1.11-1.55.17-2.42,3.71-2.51,6.91-5.64,9.85-8.97,5.8-6.59,12.86-11.49,20.3-15.95,1.2-.72,2.52-1.33,3.38-2.46,4.6-6.02,11.35-8.53,18.08-10.94,6.81-2.44,13.68-4.64,20.25-7.75,3.69-1.74,7.99-1.43,12.21-1.74Z" fill="#2b3e95" stroke-width="0"/><path d="M312.61,353.06c10.35.99,21.12,3.06,29.73,11.16.65.62,1.38,1.23,2.18,1.61,9.34,4.54,12.03,12.58,11.79,22.19-.02.78-.18,1.45-.71,2.03-2.62,2.94-4.01,6.56-5.61,10.08-1.92,4.23-5.84,5.78-9.97,6.74-1.52.35-1.83-1.6-2.68-2.51-.93-1,.24-1.45.73-1.94,2.49-2.52,4.94-5.09,7.59-7.44,1.27-1.13,1.9-2.39,2.15-3.97.12-.73.21-1.48.47-2.17,1.84-4.82.49-9.4-1.95-13.37-2.72-4.42-7.08-7.28-12.06-8.93-4.6-1.53-9.18-3.18-13.87-4.32-7.08-1.72-14.37-2.39-21.52-.94-4,.81-7.95,2.55-9.13,7.47-.55,2.28-1.87,4.37-2.81,6.56-.33.77-.66,1.43-1.51,1.82-1.79.83-2.81.79-3.39-1.54-1-4.03.27-7.45,2.39-10.63,2.35-3.53,5.41-6.34,9.36-8.14,5.71-2.61,11.74-3.49,18.8-3.79Z" fill="#2b3e95" stroke-width="0"/><path d="M418.24,572.69c-3.64-.57-7.1-1.16-10.58-1.63-1.13-.15-1.55-.62-1.5-1.73.46-9.64-4.3-17.91-7.13-26.67-5-15.47-10.72-30.71-15.21-46.35-1.04-3.63-1.79-7.34-2.77-10.99-.4-1.49-.31-2.1,1.53-2.1,6.08,0,6.19-.1,7.74,5.75,3.08,11.67,5.92,23.41,9.87,34.84,3.33,9.63,7.66,18.87,11.23,28.4,2.39,6.38,4.47,12.87,6.68,19.32.1.28.07.61.13,1.17Z" fill="#2b3e95" stroke-width="0"/><path d="M212.41,621.56c3.83-6.57,7.63-13.11,11.45-19.64,5.45-9.31,11.23-18.44,16.27-27.96,5.57-10.54,10.1-21.58,13.85-32.93,8.04-24.35,16.51-48.56,24.22-73.01,4.57-14.5,8.79-29.09,14.6-43.18,2.09-5.07,3.33-10.49,4.95-15.75.12-.39.23-.79.32-1.19.26-1.19,1.13-1.32,2.08-1.11,1.18.26.63,1.19.5,1.81-1.3,6.45-2.89,12.79-5.04,19.04-4.65,13.53-10.42,26.64-14.86,40.24-6.3,19.3-12.22,38.72-18.39,58.05-8.25,25.87-19.01,50.64-33.46,73.73-3.71,5.93-7.04,12.09-10.84,17.97-.82,1.26-1.86,2.29-2.88,3.37-.76.81-1.58,1.09-2.78.56Z" fill="#2b3e95" stroke-width="0"/><path d="M348.49,441.57c5.7,3.62,5.64,9.55,6.18,15.24.11,1.15.29,2.35.05,3.45-.78,3.63,1.54,5.8,3.57,8.16.65.75,1.5.89,2.39,1.13,7.63,2.06,15.53,1.51,23.27,2.42,6.66.78,12.97-1.19,19.46-1.62,2.62-.17,5.21-.66,7.81.07,1.12.31,2.04-.44,3.07-.58,4.46-.63,8.93-1.2,13.95-1.43-1.89,1.9-3.37,3.44-5.61,4.32-7.53,2.98-15.48,3.69-23.39,4.57-10.55,1.18-21.02-.4-31.5-1.2-4.68-.36-9.35-.98-14.05-.69-3.53.22-5.6-2.42-8.3-3.85-.62-.33-.39-1.02-.32-1.58,1.09-9.31,2.19-18.62,3.29-27.93.02-.2.12-.39.14-.48Z" fill="#2b3e95" stroke-width="0"/><path d="M427.73,579.1c-1.84,3.01-4.03,3.55-7.05,2.48-8.69-3.08-17.79-2.66-26.83-3.05-8.36-.36-16.03,2.4-23.96,4.02-9.89,2.01-19.7,4.41-30,6.75,1.11-3.15,2.08-5.96,3.08-8.76.34-.97,1.3-.91,2.06-1.08,9.64-2.1,19.25-4.36,28.94-6.2,6.45-1.23,13.01-2.06,19.55-2.65,3.25-.29,6.42,1.23,9.64,1.82,8.33,1.53,16.32,4.3,24.56,6.68Z" fill="#2b3e95" stroke-width="0"/><path d="M401.48,483.48c-.09-2.62,1.34-3.82,4.06-3.5.73.08.72.52.75,1,.85,14.24,5.86,27.37,10.64,40.6,5.83,16.15,12.67,31.94,17.39,48.49.59,2.07.61,2.97-1.8,3.5-4.48,1-4.57,1.2-5.77-3.22-5.12-18.91-12.44-37.08-18.75-55.6-1.55-4.54-1.99-9.32-3.15-13.95-.48-1.91-.87-3.86-1.54-5.7-1.38-3.77-1.71-7.68-1.83-11.63Z" fill="#2b3e95" stroke-width="0"/><path d="M202.35,617.73c3.52-3.64,5.4-8.17,7.92-12.29,10.56-17.29,19.89-35.26,28.03-53.79,4.32-9.83,7.37-20.22,11.04-30.34,5.75-15.84,10.6-31.98,16.03-47.92,2.38-6.98,5.93-13.55,8.62-20.43,5.71-14.62,10.8-29.48,16.85-43.97.29-.69-.07-2.4,1.54-1.84,1.49.52.78,1.72.39,2.69-7.08,17.8-14.31,35.55-21.21,53.42-5.49,14.19-9.75,28.81-14.84,43.15-8.15,23-15.27,46.42-26.21,68.32-5.95,11.91-12.65,23.45-18.99,35.17-1.14,2.1-2.19,4.24-3.28,6.36-1.37,2.67-3.06,3.13-5.9,1.49Z" fill="#2b3e95" stroke-width="0"/><path d="M339.49,494.08c.88,2.4,1.61,4.22,1.98,6.17.9,4.82,2.88,9.2,5.32,13.45,6.6,11.49,10.44,24.1,14.55,36.59.9,2.73,1.34,5.69.46,8.74-.6,2.07-1.9,4.44-3.34,4.34-1.62-.11-3.35-2.12-4.06-4.23-2.93-8.73-5.52-17.56-7.97-26.44-2.23-8.09-5.59-15.64-11.15-22.03-1.24-1.43-1.48-2.66-.7-4.43,1.68-3.82,3.13-7.73,4.9-12.17Z" fill="#2b3e95" stroke-width="0"/><path d="M116.58,278.73c.62.32,1.06.54,1.49.78,50.81,27.45,101.62,54.9,152.44,82.35.29.16.56.35.87.47,1.07.45,1.33,1.43.88,2.23-.57,1.01-1.32-.04-1.84-.31-13.62-7.15-27.21-14.35-40.81-21.54-37.75-19.94-75.5-39.88-113.23-59.85-.66-.35-2.11-.36-1.48-1.73.4-.88.66-2.01,1.69-2.4Z" fill="#2b3e95" stroke-width="0"/><path d="M234.99,472.82c12.64-11.82,24.85-23.25,37.07-34.68.16.11.31.22.47.33-1.78,5.17-3.57,10.34-5.34,15.52-2.37,6.91-4.71,13.83-7.08,20.74-.34.99-.52,2.22-2.12,1.33-6.71-3.74-14-3.62-21.34-3.17-.38.02-.76-.03-1.66-.08Z" fill="#2b3e95" stroke-width="0"/><path d="M122.95,292.05c2.06,1.1,4.15,2.08,6.08,3.32.7.45-.08,1.34-.32,2-2.37,6.65-5.32,13.12-6.98,19.99-2.54,10.55-4.85,21.15-7.12,31.76-.45,2.1-1.17,2.51-3.23,2.05-4.48-1.01-5.89-3.04-4.64-7.71.87-3.25,1.92-6.45,2.95-9.66,4.21-13.22,7.1-26.84,12.06-39.83.25-.65.06-1.7,1.19-1.91Z" fill="#2b3e95" stroke-width="0"/><path d="M310.94,375.46c4.25,1.96,8.31,3.9,11.76,6.64,2.43,1.93,4.14,4.82,3.26,8.26-.56,2.21-2.53,3.37-4.41,4.29-4.84,2.37-10.2,3.28-15.37,2.76-4.99-.5-9.78-2.65-14.41-4.82-3.95-1.86-6.71-4.89-9.02-8.49-.69-1.08-.76-1.64.42-2.29,1.29-.72,2.56-1.51,3.72-2.43,1.53-1.21,2.68-1.31,3.59.66.84,1.8,2.39,2.82,4.1,3.75,2.9,1.56,5.75,3.22,8.53,4.97,3.78,2.38,7.82,2.24,11.9,1.3,1.35-.31,2.61-.84,1.27-2.86-1.07-1.62-2.36-2.74-4.03-3.44-1.86-.78-2.36-2.02-1.97-3.89.28-1.37.41-2.76.64-4.41Z" fill="#2b3e95" stroke-width="0"/><path d="M285.48,472.67c.25-2.84.5-5.07,1.72-7.15,1.46-2.48,2.89-5.01,3.93-7.67,1.32-3.36,3.59-5.69,7.02-6.11,4.79-.58,9.79-1.44,14.03,2.22,1.54,1.33,1.83,2.87,1.32,4.64-1.37,4.78-1.68,9.72-2.29,14.61-.2,1.6-.92,2.98-1.55,4.39-.56,1.26-1.96,1.88-3,1.8-1.14-.09-1.96-1.41-2.25-2.64-.39-1.68-.75-3.38-.9-5.09-.2-2.27-1.55-3.96-2.65-5.76-.81-1.33-5.19-1.1-7.01.28-2.67,2.03-5.31,4.1-8.37,6.46Z" fill="#2b3e95" stroke-width="0"/><path d="M121.73,350.85c.06-6.92,1.92-13.25,3.87-19.52,3.15-10.13,7.53-19.8,11.54-29.61.77-1.9,1.61-1.89,3.23-1.23,3.16,1.29,3.4,1.31,1.89,4.26-4.69,9.16-7.86,18.94-11.66,28.46-2.37,5.93-3.1,12.41-4.53,18.66-.31,1.33-2.88,2.7-3.95,1.94-1.13-.8-.16-2.14-.39-2.96Z" fill="#2b3e95" stroke-width="0"/><path d="M95.5,346.27c1.74-6.48,3.39-13.1,5.31-19.65,1.74-5.93,3.02-11.96,4.47-17.95.39-1.59.81-3.2,1.43-4.71,1.49-3.61,2.37-7.34,2.62-11.24.14-2.26,1.62-3.92,2.57-5.82.26-.53.65-.76,1.13-.25.68.72,1.99,1.06,1.51,2.51-.65,1.95-1.37,3.89-1.86,5.88-4.16,17.01-8.28,34.03-12.41,51.05-.65,2.67-1.81,3.09-4.29,1.71-.74-.41-.57-.86-.49-1.53Z" fill="#2b3e95" stroke-width="0"/><path d="M295.41,447.51c3.91-7.17,9.98-10.7,18.03-11.3,4.13-.31,8.21-.75,12.22.61,11.11,3.75,16.92,10.19,14.57,22.51-.41,2.14-1.73,3.86-3.05,5.69.65-4.04-.49-7.85-1.15-11.72-.46-2.71-1.61-5.17-2.44-7.75-.2-.62-.6-.95-1.08-1.27-4.87-3.2-10.44-4.83-16.04-5.17-3.53-.21-7.39,1.28-10.53,3.56-.93.67-1.87,1.41-2.59,2.29-2.13,2.6-4.91,2.92-7.94,2.56Z" fill="#2b3e95" stroke-width="0"/><path d="M199.48,331.78c-.13.32-.31.78-.49,1.24-4.16,10.56-8.38,21.09-12.42,31.69-.79,2.06-1.57,2.59-3.69,1.8-3.02-1.13-3.07-.97-1.93-4.05,4.02-10.79,8.06-21.57,12.02-32.38.56-1.54,1.1-2.26,2.71-1.12.93.66,2.03,1.08,3.04,1.64.4.22,1,.33.76,1.18Z" fill="#2b3e95" stroke-width="0"/><path d="M319.56,450.28c5.65-3.84,10.07-2.26,11.58,3.69.29,1.14-.07,1.9-.52,2.76-5.58,10.83-11.17,21.64-16.7,32.49-.57,1.11-1.21,1.57-2.46,1.55-1.81-.04-3.62.2-5.43.19-.94,0-2.41.62-2.7-.33-.38-1.2-.32-2.68.48-3.98,1.68-2.72,4.26-2.18,6.58-1.65,2.19.5,2.99-.28,3.83-2.13,3.51-7.71,7.11-15.38,10.84-22.99,2.14-4.37.82-8.06-4.24-9.27-.31-.07-.61-.16-1.26-.34Z" fill="#2b3e95" stroke-width="0"/><path d="M289.87,731.81c-.98.13-1.2-.49-1.53-.92-3.7-4.84-7.36-9.7-11.09-14.52-.74-.96-.74-1.41.41-2,2.85-1.46,5.64-3.03,8.43-4.62.89-.51,1.36-.47,1.88.54,2.69,5.26,5.47,10.48,8.2,15.72.22.42.66,1.01.22,1.32-2.19,1.59-4.45,3.08-6.51,4.48Z" fill="#2b3e95" stroke-width="0"/><path d="M200.38,545.53c1.72-1.9,3.39-3.69,4.99-5.54.61-.71,1.17-.6,1.95-.34,8.49,2.85,16.98,5.68,25.49,8.44,1.1.36,1.16.68.81,1.71-1.5,4.41-1.46,4.45-6.01,3.24-8.73-2.31-17.45-4.67-26.18-7.01-.31-.08-.59-.27-1.05-.5Z" fill="#2b3e95" stroke-width="0"/><path d="M305.23,554.81c3.94,3.6,8.18,7.24,12.14,11.15,4.8,4.74,9.3,9.77,14.05,14.55,2.09,2.1-.49,2.51-1.07,3.59-.79,1.48-1.55.63-2.38-.17-7.4-7.14-14.78-14.29-22.28-21.32-1.44-1.35-2.09-2.52-1.34-4.43.51-1.29.71-2.69.88-3.37Z" fill="#2b3e95" stroke-width="0"/><path d="M227.49,561.62c-1.14,1.71-2.02,3.45-3.3,4.81-.92.97-2.14-.18-3.15-.52-7.79-2.63-15.54-5.35-23.32-7.99-1.55-.53-2.2-.9-.81-2.53,3.52-4.14,3.43-4.19,8.49-2.31,6.78,2.52,13.57,5.01,20.35,7.52.63.23,1.39.31,1.74,1.03Z" fill="#2b3e95" stroke-width="0"/><path d="M334.56,691.82q6.56,0,6.87,6.67c.15,3.04.27,6.08.57,9.11.15,1.51-.37,2.12-1.8,2.17-.41.02-.81.16-1.21.21-1.63.19-3.49.94-4.83.41-1.63-.65-.49-2.95-1.14-4.37-1.37-2.98-2.82-5.93-4.23-8.9-.21-.44-.49-.87-.63-1.33-.87-3.02-.16-3.97,2.94-3.97,1.15,0,2.31,0,3.46,0Z" fill="#2b3e95" stroke-width="0"/><path d="M212.86,340.18c-1.04,3.21-2.03,6.26-3.02,9.3-2.07,6.41-4.19,12.81-6.17,19.25-.54,1.74-1.32,1.87-2.84,1.27-1.36-.54-2.72-.51-1.98-2.8,3.09-9.53,6.02-19.12,8.89-28.72.54-1.81,1.15-1.83,2.37-.73.92.83,2.4,1.08,2.75,2.43Z" fill="#2b3e95" stroke-width="0"/><path d="M387.06,714.22c-1.89-.43-3.88-.9-5.89-1.32-1.03-.22-1.3-.82-1.12-1.79.69-3.79,1.36-7.59,2.01-11.39.16-.95.63-1.28,1.54-.98.08.03.15.07.23.09,2.58.81,6.1.88,7.49,2.63,1.5,1.9-.94,4.95-1.46,7.54-.29,1.44-.79,2.84-1.21,4.26-.22.74-.43,1.5-1.6.96Z" fill="#2b3e95" stroke-width="0"/><path d="M336.06,409.75c-7.28,0-14.65,0-22.02,0-.98,0-1.98-.2-2.95-.12-1.29.11-2.08-.34-2.18-1.64-.1-1.24-2.04-3.3,1.78-2.62,2.32.41,4.92-.1,7.38.63.97.29,1.99-.44,3.09-.33,3.2.33,6.39.91,9.62.61,2.99-.27,4.26,1.74,5.28,3.48Z" fill="#2b3e95" stroke-width="0"/><path d="M231.54,479.82c5.82-3.76,11.6-2.65,17.36-.65,2,.7,3.94,1.64,5.81,2.64.64.34,2.33-.03,1.63,1.71-.56,1.38-1.26,1.99-2.97,1.53-4.98-1.34-10.02-2.45-15.04-3.65-2.22-.53-4.44-1.03-6.79-1.58Z" fill="#2b3e95" stroke-width="0"/><path d="M327.23,595.77c1.96-3.42,3.96-6.89,5.92-10.39.58-1.04,1.63-1.3,2.55-1.8,1.01-.55,1.73.22,2.45.65.97.59.11,1.28-.08,1.9-.17.55-.5,1.05-.63,1.6-1.2,5.31-4.55,8-10.21,8.05Z" fill="#2b3e95" stroke-width="0"/><path d="M180.04,578.82c-.78,1.54-1.55,3.08-2.33,4.62-.64-2.25,1.07-3.32,2.33-4.62Z" fill="#fefefe" stroke-width="0"/><path d="M181.43,576.15c-.1.16-.19.31-.29.47.1-.16-.21-.56.29-.47Z" fill="#fefefe" stroke-width="0"/><path d="M180.98,576.96c-.16.31-.32.62-.48.93.08-.35-.08-.82.48-.93Z" fill="#fefefe" stroke-width="0"/><path d="M180.53,577.82c-.17.35-.34.7-.52,1.05-.17-.52-.07-.91.52-1.05Z" fill="#fefefe" stroke-width="0"/><path d="M547.79,151.11c.08-.09.17-.19.25-.28.22.19.21.37-.05.51-.07-.08-.13-.16-.2-.23Z" fill="#2b3e95" stroke-width="0"/></g></svg>