<?xml version="1.0" encoding="UTF-8"?><svg id="b" xmlns="http://www.w3.org/2000/svg" viewBox="0 0 699.27 604.59"><g id="c"><path d="M157.62,604.31c6.73-12.35,15.06-23.66,23.39-34.92,14.92-20.16,30.69-39.64,47.52-58.29,6.16-6.83,8.45-16.07,9.83-25.17.91-6.03,2.59-12.1.84-18.52-3.48,2.77-4.75,6.67-6.77,10-8.49,14.02-16.86,28.12-25.15,42.26-1.9,3.24-3.2,3.66-5.45.22-8.12-12.4-18.06-23.35-27.76-34.51-24.77-28.52-52.25-54.21-82.04-77.31-28.23-21.9-57.54-42.35-88.43-60.43-4.61-2.7-4.72-2.88-.78-6.71,9.1-8.85,18.16-17.78,26.9-26.93,10.74-11.24,20.38-23.61,29.27-36.47,13.3-19.24,22.15-40.53,29.26-62.67,3.08-9.61,5.57-19.37,7.72-29.21.79-3.62,2.04-3.12,4.23-1.26,3.83,3.26,7.83,6.3,11.6,9.63,2.73,2.41,4.13,2.88,7.06-.6,9.82-11.68,21.42-21.58,34.02-30.79-9.49-5.98-17.66-13.37-24.8-21.82-10.33-12.22-15.77-26.53-17.15-42.4-1.87-21.61,1.71-41.9,15.65-59.27,14.65-18.26,34.12-28.8,56.64-34.02C199.79,1.27,216.54-.83,233.61.31c9.29.62,18.66-.25,27.91,1.12,13.76,2.04,27.68,2.75,41.36,5.38,43.12,8.29,83.77,23.5,122.59,43.8,16.22,8.48,32.58,16.72,48.53,25.69,21.45,12.06,44.18,20.74,67.96,26.62,8.73,2.16,17.65,3.7,26.59,5.1,6.11.95,12.41,2.15,18.36,2.17,12.72.05,25.31,2.26,38.24.49,13.97-1.91,27.7-4.25,41.06-8.6,11.31-3.68,21.18-9.97,30.04-17.86.39-.35,1.09-.36,1.73-.55,1.77,6.95,1.23,13.93,1.08,20.84-.32,14.24-2.54,28.17-7.39,41.66-7.4,20.59-20.38,36.83-38.13,49.36-2.54,1.79-3.67,3.42-3.25,6.78,2.89,22.98-.68,44.78-12.84,64.78-10.62,17.47-25.45,30.59-43.03,40.69-20.69,11.9-43.3,18.71-66.4,23.82-24.35,5.38-49.09,8.13-74.02,9.16-9.01.37-8.75.46-4.9,8.62,2.92,6.2,8.09,10.69,11.5,16.47.65,1.1,1.67,1.32,3.06.97,16.01-4.12,32.39-5.82,48.77-7.72,17.3-2,34.61-2.9,52.01-2.52,14.45.32,28.84.97,43.27,2.38,16.76,1.64,33.36,3.84,49.78,7.39,4.92,1.06,9.67,2.94,14.95,4.58-4.35,3.94-9.48,5.55-13.93,8.26-12.21,7.44-23.23,16.38-32.43,27.2-9.27,10.9-15.49,23.27-16.9,38.14-.86,8.97,1.62,17.15,2.6,25.67.4,3.47.31,6.53-2.56,8.76-2.96,2.31-6.14,1.59-9.17-.03-7.83-4.21-14.51-10.13-22.04-14.8-3-1.86-5.96-3.77-9.34-4.97-2.06-.73-3.29.05-4.75,1.25-1.67,1.38-1.09,2.77-.56,4.35,1.94,5.85,6.05,10.39,9.36,15.39,13.41,20.28,23.61,41.86,27.47,66.1.19,1.17.92,2.58.02,3.35-1.12.95-2.15-.46-3.02-1.08-26.83-19.2-57.59-27.75-89.54-33.06-14.42-2.39-28.96-3.06-43.56-3.64-36.12-1.42-71.52,3.25-106.76,10.52-19.26,3.97-38.16,9.19-56.74,15.42-48.05,16.1-94.24,36.33-137.02,63.83-1.81,1.17-3.47,2.83-5.89,2.77l-.05-.05ZM204.53,104.38l.07-.09c-14.29,3.3-27.46,8.86-37.06,20.42-6.96,8.38-7.19,17.98-3.2,27.88.76,1.89,1.53,2.49,3.5,1.28,8.17-4.99,17-8.68,25.61-12.79,9.77-3.21,19.36-6.97,29.33-9.55,1.63-.42,2.36-1.14,2.18-3.08-1.22-12.86,5.93-17.86,14.78-20.29,15.91-4.37,32.3-5.42,48.66-5.18,13.98.2,27.97,1.07,41.9,3.1,24.5,3.58,48.08,9.99,70.34,20.88,19.48,9.53,36.65,22.1,50.12,39.32,15.52,19.85,23.15,42.49,23.79,67.58.59,23.26-2.22,45.88-12.35,67.17-.43.9-1.43,1.97-.5,3.27.3-.37.64-.68.84-1.06,15.63-28.85,19.58-59.88,15.09-91.78-4.74-33.73-23.24-59.54-50.81-78.8-37.33-26.08-79.92-36.03-124.53-38.72-23.17-1.4-46.36-.39-69.33,3.47-8.94,1.5-17.99,2.59-26.51,6.02-.67.24-1.69-.22-1.91.94ZM89.13,289.63c18.55-6.53,37.07-13.14,55.66-19.57,11.64-4.03,23.03-8.79,34.94-12.03-3.37,7.75-7.95,14.8-12.59,21.82-9.09,13.75-21.4,22.64-37.4,27.28-32.36,9.39-65.14,16.93-98.13,23.62-6.29,1.27-9.26,5.57-13.83,9.77,1.3,0,1.6.05,1.88,0,48.31-9.91,96.62-19.84,144.93-29.75,45.13-9.26,90.26-18.51,135.4-27.7,1.66-.34,3.93-1.91,4.67,1.71.69,3.38-1.81,2.91-3.34,3.24-81.02,17.87-162.06,35.68-243.09,53.5-10.73,2.36-21.45,4.75-33.16,7.35,68.43,43.04,129.74,92.8,179.16,156.73,3.75-6.54,7.12-12.43,10.49-18.31.83-1.2,1.74-2.36,2.47-3.61,27.95-47.85,55.9-95.7,83.81-143.58,7.41-12.72,14.67-25.53,22-38.3,8.43-1.4,16.78-2.98,23.55-9.76-12.61,2.28-22.53.25-26.28-4.69,1.44,0,2.73.04,4.01,0,7.75-.27,15.36-1.11,21.89-5.9,9.14-6.7,9.21-14.1.13-20.67-1.53-1.11-3.28-2.09-5.08-2.62-13.03-3.88-24.09-.23-33.58,9.09-24.77-1.05-49.32-4-73.77-8.17-35.3-6.01-68.21-18.11-98.61-37.05-5.5-3.42-10.98-6.86-16.47-10.29-5.17-3.82-10.34-7.64-15.83-11.7-9.44,37.48-23.98,71.91-48.62,101.93,11.6-4.11,23.2-8.22,34.8-12.33ZM190.52,572.16c1.62,2.11,2.6-.08,3.54-.71,2.93-1.98,5.68-4.24,8.52-6.35,32.33-23.98,66.02-45.76,101.8-64.34,58.02-30.12,119.23-46.44,184.94-43.9,23.09.89,45.27,5.58,66.75,16.63-4.22-7.4-5.54-14.52.97-20.92,6.64-6.52,13.85-3.48,21.41-.76-3.02-3.54-5.5-4.99-12.38-7.27-20.23-6.69-41.06-9.56-62.32-10.15-37.72-1.05-74.68,3.54-110.54,15.3-38.96,12.78-74.73,32.25-109.56,53.58-18.41,11.28-35.94,23.86-53.69,36.1-.22-.34-.45-.69-.67-1.03,6.01-7.48,11.82-15.14,18.07-22.41,41.94-48.74,93.17-84.74,152.21-109.62,44.19-18.63,90.91-23.8,138.4-23.58,28.58.13,56.98,2.57,85.15,7.55,1.36.24,2.85.98,4.21-.29,5.87-5.55,12.25-10.49,19.38-15.5-1.4-.48-2.04-.8-2.73-.93-12.5-2.33-25.08-4.14-37.74-5.26-43.83-3.9-87.42-2.26-130.7,6.08-53.17,10.25-102.41,29.77-146.81,61.18-51.06,36.13-94,80.45-132.23,129.63-1.87,2.4-3.39,5.12-5.93,6.93.31.25.33,1.24,1.06.41-.37-.12-.73-.25-1.1-.37ZM337.84,147.34c18.08,2,35.3,6.86,51.44,15.4,42.94,22.72,64.14,71.05,51.61,117.99-5.44,20.36-15.68,38.14-29.56,53.9-1.19,1.36-2.69,2.38-2.04,4.9,3.2,12.52,7.98,24.39,14.05,35.77.46.87.84,2.06,2.23,1.66,8.24-2.39,16.47-4.8,25.04-7.31-7.31-8.97-13.03-18.22-16.78-28.62-.86-2.38-.76-4.18.95-6.4,6.44-8.35,11.46-17.52,14.98-27.5,8.37-23.73,10.88-47.98,7-72.91-6.05-38.81-25.8-67.62-61.51-84.89-15.55-7.52-32.02-12.14-49.03-14.65-34.22-5.04-68.42-4.61-102.4,1.85-36.26,6.89-69.48,20.79-98.21,44.47-6.93,5.71-6.74,5.61-1.28,12.57,2.59,3.3,4.08,3.55,7.36.53,14.88-13.69,31.11-25.43,50.37-32.36,1.83-.66,3.68-1.92,5.93-1.06-.59,1.79-2.25,2.34-3.47,3.29-15.81,12.29-31.06,25.13-42.09,42.19-1.24,1.91-2.12,3.24.32,5.07,10.06,7.56,20.39,14.64,32.12,19.42,2.09,1.72,4.7,2.4,7.14,3.32,32.27,12.09,65.87,18.61,99.81,23.7,1.82.27,2.69-.76,3.85-1.62,10.94-8.12,23.13-11.01,36.35-7.64,16.32,4.16,25.32,19.58,20.62,35.02-4.3,14.14-14.61,22.18-28.39,25.87-3.21.86-4.64,2.26-5.78,5.05-14.22,34.75-28.52,69.46-42.77,104.19-.61,1.48-1.57,2.97-1.05,4.66,2.92,9.57,4.59,19.35,4.49,29.43,2.07-.1,2.98-1.37,4.09-2.26,24.4-19.74,50.1-37.51,78.27-51.55,3.65-1.82,9.12-2.49,10.38-5.95,1.24-3.43-2.39-7.55-3.77-11.41-3.7-10.39-8-20.57-10.2-31.44-.32-1.57-.76-2.83,1.11-4.16,22.22-15.88,39.03-36.38,50.86-60.9,7.64-15.85,11.29-32.54,8.29-50.2-3.27-19.26-12.59-35.52-25.94-49.38-16.52-17.17-37.01-28.06-59.41-35.6-1.77-.6-3.75-.79-5-2.45ZM461.88,320.86c-2.62,3.09-5.23,6.19-8.49,10.04,8.28-.63,15.47-1.09,22.64-1.74,27.74-2.54,55.09-7.19,81.55-16.06,23.24-7.79,44.87-18.52,61.35-37.37,17.47-19.97,24.8-43.26,21.83-69.73-.32-2.83-.85-3.49-3.68-2.31-9.83,4.09-20.08,6.94-30.35,9.67-13.88,3.69-28,5.49-42.39,5.32.47-.41,1-.52,1.52-.63,22.55-4.41,44.26-11.21,65.17-20.91,30.85-14.31,49.42-37.99,56.19-71.11,1.58-7.71,2.83-15.48,2.1-23.96-10.44,6.99-21.47,11.07-32.92,14.02-25.15,6.46-50.63,6.11-76.23,3.61-29.78-2.91-58.39-10.15-85.85-22.11-24.28-10.58-47.19-23.78-70.49-36.21-59.2-31.59-121.95-50.04-189.35-51.18-23.52-.4-46.62,2.09-68.54,11.52-36.5,15.7-53.38,50.36-42.85,88.59,4.66,16.91,14.67,29.99,29.93,39.9-1.09-5.08-1.05-9.6-.9-14.13,1.7-8.79,5.78-16.23,12.27-22.45,5.6-5.37,12.44-8.78,19-12.65,3.68-1.48,7.36-2.97,11.04-4.45.72-.13,1.47-.18,2.16-.41,19.47-6.39,39.6-9.46,59.92-11.05,28.83-2.25,57.54-1.12,86.06,4.24,30.62,5.76,59.66,15.58,85.75,32.92,50.76,33.73,66.94,82.83,58.31,137.76-3.49,22.23-11.36,42.69-24.75,60.89Z" fill="#064c8b" stroke-width="0"/><polygon points="157.68 604.36 157.47 604.59 157.62 604.31 157.68 604.36" fill="#064c8b" stroke-width="0"/><path d="M183.41,100.96c-6.56,3.87-13.4,7.29-19,12.65-6.49,6.22-10.57,13.66-12.27,22.45-17.36-12.39-26.67-39.88-20.64-62.01,6.33-23.25,22.23-37.39,44.42-44.96,31.99-10.91,64.87-11.28,98.4-7.9-1.65,1.3-3.32,1.26-4.85,1.66-10.47,2.67-20.16,6.72-27.17,15.48-.07.35-.14.7-.2,1.05.32-.13.64-.26.96-.38.43-.11.88-.16,1.28-.35,25.54-12.14,52.29-14.93,79.41-7.7,41.55,11.08,80.68,28.14,117.08,51.21,3.07,1.94,6.42,3.53,8.93,6.29l-.2.22c-1.75-.23-3.5-.41-5.25-.68-12.56-1.96-25.01-2.28-37.19,2.17-1.26.46-2.68.68-3.81,2.49,10.64.07,20.61,1.14,30.56,2.45,17.75,2.34,34.36,8.57,50.79,15.15,35.03,14.03,71.04,22.84,109.03,22.66,28.69-.14,56.96-2.46,83.94-13.24.18-.07.5.21.85.36-3.56,8.97-9.9,15.72-17.32,21.49-21.81,16.94-47.32,23.47-74.2,26.01-12.77,1.21-25.57,1.34-38.4,1.53,32.95,11.37,66.31,7.22,100.8,1.84-5.2,4.8-10.1,8.01-15.2,10.89-35.9,20.24-75,29.34-116.73,32.98,7.4,5.11,14.56,8.54,22.25,10.39,30.06,7.26,59.51,4.62,88.35-6.19,1.36-.51,2.65-2.23,4.36-.68h-.01c-22.39,29.68-55.75,38.72-89.41,47.27,9.02,1,17.87.93,26.72.07,19.46-1.9,37.99-6.98,55.44-15.88.15.15.31.3.47.45-2.7,6.54-7.37,11.69-12.2,16.63-14.24,14.58-31.32,24.93-49.94,32.86-22.95,9.77-47.03,15.34-71.66,18.64-9.92,1.33-19.85,2.79-29.92,2.52,13.4-18.21,21.26-38.67,24.75-60.89,8.63-54.93-7.55-104.03-58.31-137.76-26.09-17.34-55.13-27.16-85.75-32.92-28.52-5.36-57.23-6.49-86.06-4.24-20.31,1.59-40.44,4.66-59.92,11.05-.69.23-1.44.28-2.16.41-1.16-6.18.84-11.31,5.11-15.75,3.44-3.59,7.64-6.04,12.07-8.1,15.45-7.19,32.06-8.95,48.75-9.84,20.08-1.07,40.19-.24,60.28.27,7.34.19,14.69-.42,21.95-1.76-12.3-.28-24.4-2.42-36.6-3.53-24.9-2.27-49.82-3.76-74.69.49-13.34,2.28-26.41,5.35-37.26,14.05-9.16,7.34-13.11,16.84-10.65,28.62Z" fill="#da332c" stroke-width="0"/><path d="M337.84,147.34c1.25,1.66,3.23,1.85,5,2.45,22.4,7.54,42.88,18.43,59.41,35.6,13.34,13.86,22.66,30.12,25.94,49.38,3,17.67-.65,34.35-8.29,50.2-11.83,24.52-28.64,45.02-50.86,60.9-1.87,1.34-1.43,2.59-1.11,4.16,2.21,10.87,6.51,21.06,10.2,31.44,1.37,3.86,5.01,7.97,3.77,11.41-1.26,3.47-6.73,4.13-10.38,5.95-28.17,14.04-53.86,31.81-78.27,51.55-1.1.89-2.02,2.16-4.09,2.26.09-10.08-1.58-19.86-4.49-29.43-.51-1.69.45-3.19,1.05-4.66,14.25-34.73,28.56-69.45,42.77-104.19,1.14-2.79,2.57-4.19,5.78-5.05,13.78-3.69,24.09-11.72,28.39-25.87,4.69-15.44-4.31-30.86-20.62-35.02-13.22-3.37-25.41-.48-36.35,7.64-1.16.86-2.04,1.89-3.85,1.62-33.94-5.09-67.54-11.61-99.81-23.7-2.45-.92-5.05-1.6-7.14-3.32.73-.89.6-1.91.53-2.96-.57-9.56.82-18.86,4.08-27.84,7.94-21.91,24.37-35.06,45.35-43.2,30.1-11.68,61.44-11.81,93-9.32Z" fill="#b3b4b3" stroke-width="0"/><path d="M625.14,249.76c-17.45,8.9-35.98,13.98-55.44,15.88-8.85.86-17.7.93-26.72-.07,33.65-8.54,67.02-17.59,89.4-47.25-.19-.2-.38-.4-.56-.61-.07.12-.14.25-.21.37.27.07.53.15.8.22-1.72-1.56-3.01.17-4.36.68-28.85,10.8-58.29,13.44-88.35,6.19-7.7-1.86-14.85-5.28-22.25-10.39,41.73-3.64,80.83-12.74,116.73-32.98,5.1-2.88,10-6.09,15.2-10.89-34.5,5.38-67.85,9.53-100.8-1.84,12.83-.2,25.63-.33,38.4-1.53,26.88-2.54,52.39-9.07,74.2-26.01,7.42-5.77,13.77-12.52,17.32-21.49-.35-.16-.67-.44-.85-.36-26.98,10.78-55.25,13.1-83.94,13.24-37.99.19-74-8.63-109.03-22.66-16.43-6.58-33.04-12.81-50.79-15.15-9.96-1.31-19.92-2.38-30.56-2.45,1.12-1.82,2.55-2.03,3.81-2.49,12.18-4.45,24.64-4.13,37.19-2.17,1.74.27,3.5.46,5.25.68.33.18.64.38.99.51.06.02.24-.27.36-.42-.38-.1-.77-.2-1.15-.31-2.51-2.76-5.86-4.34-8.93-6.29-36.4-23.07-75.53-40.13-117.08-51.21-27.12-7.23-53.87-4.44-79.41,7.7-.39.19-.85.23-1.28.35-.25-.22-.51-.45-.76-.67,7.01-8.75,16.7-12.8,27.17-15.48,1.53-.39,3.2-.36,4.85-1.66-33.53-3.37-66.41-3.01-98.4,7.9-22.19,7.57-38.09,21.71-44.42,44.96-6.02,22.13,3.29,49.62,20.64,62.01-.15,4.52-.19,9.04.9,14.13-15.26-9.91-25.27-22.99-29.93-39.9-10.54-38.23,6.34-72.89,42.85-88.59,21.92-9.42,45.02-11.92,68.54-11.52,67.4,1.15,130.14,19.59,189.35,51.18,23.31,12.44,46.22,25.63,70.49,36.21,27.46,11.97,56.07,19.2,85.85,22.11,25.6,2.5,51.09,2.85,76.23-3.61,11.45-2.94,22.48-7.02,32.92-14.02.73,8.48-.53,16.26-2.1,23.96-6.77,33.12-25.34,56.8-56.19,71.11-20.91,9.7-42.63,16.5-65.17,20.91-.53.1-1.05.22-1.52.63,14.38.17,28.51-1.63,42.39-5.32,10.27-2.73,20.52-5.59,30.35-9.67,2.83-1.18,3.37-.51,3.68,2.31,2.97,26.48-4.36,49.76-21.83,69.73-16.49,18.85-38.11,29.58-61.35,37.37-26.47,8.87-53.82,13.52-81.55,16.06-7.17.66-14.36,1.11-22.64,1.74,3.26-3.85,5.87-6.94,8.49-10.04,10.06.27,20-1.19,29.92-2.52,24.63-3.3,48.71-8.87,71.66-18.64,18.62-7.93,35.7-18.28,49.94-32.86,4.83-4.95,9.5-10.09,12.2-16.63.14-.25.28-.5.42-.75-.29.1-.59.2-.88.3Z" fill="#fcfafa" stroke-width="0"/><path d="M323,301.8c-7.33,12.77-14.59,25.58-22,38.3-27.9,47.88-55.86,95.73-83.81,143.58-.73,1.26-1.64,2.41-2.47,3.61-3.33-9.2-7.62-17.92-12.97-26.11-1.18-1.81-1.89-3.45,0-5.03,3.21-2.69,2.87-5.79,1.38-9.13-1.44-3.23-2.68-6.56-4.32-9.69-7.84-15-17.99-28.38-29.02-41.14-12.49-14.46-25.97-27.83-41.53-39.01-1.28-.92-2.43-2.3-4.31-1.79-3.68,1-7.55,1.33-10.98,3.18-7.12,1.71-14.23,3.41-21.35,5.12-9.1-5.09-18.2-10.18-27.99-15.65,2.23-.6,3.63-1,5.05-1.34,52.59-12.54,105.19-25.07,157.78-37.61,24.57-5.86,49.14-11.75,73.71-17.6,1.93-.46,4.42-1.88,5.79.15,4.15,6.14,10.32,8.54,17.05,10.15ZM249.19,387.72c1.33.31.85,3.04,2.6,2.32,1.38-.57,1.86-2.27,1.7-3.82-.16-1.61-.38-3.23-.81-4.78-1.66-5.93-4.79-11.12-8.56-15.92-9.06-11.54-20.71-20.17-32.37-28.81-3.77-2.79-7.17-2.95-10.9-.4-4.13.07-7.93,1.44-12.25,2.81,1.42.96,2.34,1.67,3.35,2.25,20.32,11.62,38.22,26.22,53.97,43.51.97,1.06,1.71,2.45,3.27,2.86ZM225.05,418.64c.35.34.7.69,1.05,1.03.77.19,1.3,1.76,2.38.18,1.4-2.04,2.2-4,1.6-6.58-2.23-9.53-6.85-17.88-12.63-25.6-11.88-15.88-27.18-28.12-42.66-40.23-4.77-3.74-8.88-3.66-13.6-.79-5.27.43-10.19,2.19-15.99,3.73,1.81,1.22,2.96,2.04,4.15,2.79,13.93,8.85,27.63,18.03,40.04,28.96,12.84,11.32,24.56,23.75,35.82,36.62l-.16-.12Z" fill="#b3b4b3" stroke-width="0"/><path d="M323,301.8c-6.73-1.62-12.9-4.01-17.05-10.15-1.37-2.03-3.86-.61-5.79-.15-24.58,5.84-49.14,11.74-73.71,17.6-52.59,12.54-105.19,25.07-157.78,37.61-1.42.34-2.82.75-5.05,1.34,9.79,5.47,18.89,10.56,27.99,15.65,1.24,1.77,3.26,2.47,4.98,3.53,34.23,21.06,65.15,46.03,91.18,76.83,3.11,3.68,6.31,7.27,9.57,11.01.73-2.47-.3-4.31-1.16-6.19-8.68-19.09-21.4-35.29-35.92-50.21-14.48-14.88-30.75-27.65-47.3-40.08,3.43-1.85,7.3-2.18,10.98-3.18,1.88-.51,3.04.87,4.31,1.79,15.56,11.18,29.04,24.56,41.53,39.01,11.03,12.77,21.19,26.14,29.02,41.14,1.63,3.13,2.88,6.46,4.32,9.69,1.49,3.34,1.83,6.44-1.38,9.13-1.88,1.58-1.18,3.21,0,5.03,5.35,8.19,9.64,16.91,12.97,26.11-3.37,5.89-6.74,11.77-10.49,18.31-49.42-63.93-110.73-113.69-179.16-156.73,11.7-2.59,22.42-4.99,33.16-7.35,81.03-17.82,162.07-35.63,243.09-53.5,1.53-.34,4.04.13,3.34-3.24-.74-3.62-3.01-2.05-4.67-1.71-45.14,9.19-90.27,18.44-135.4,27.7-48.31,9.91-96.62,19.84-144.93,29.75-.28.06-.58,0-1.88,0,4.57-4.21,7.54-8.5,13.83-9.77,32.99-6.68,65.77-14.23,98.13-23.62,16-4.64,28.31-13.54,37.4-27.28,4.65-7.02,9.23-14.07,12.59-21.82,4.14-2.15,8.42-3.89,14.33-5.29-10.82,21.78-19.93,43.22-44.21,52.6,1.94,1.09,3.25.63,4.5.41,27.19-4.65,54.4-9.26,81.57-14.03,21.36-3.75,42.68-7.74,64.03-11.56,2.69-.48,4.21-1.44,4.17-4.51-.04-3.2,1.58-5.92,3.51-8.42,9.49-9.32,20.55-12.97,33.58-9.09,1.8.54,3.55,1.52,5.08,2.62,9.08,6.56,9,13.97-.13,20.67-6.53,4.79-14.14,5.64-21.89,5.9-1.28.04-2.57,0-4.01,0,3.75,4.94,13.67,6.97,26.28,4.69-6.77,6.78-15.12,8.36-23.55,9.76ZM148.15,306.33c-.42-.08-.67-.2-.89-.15-.39.08-.41.31-.06.51.1.06.27.09.37.04.18-.07.32-.22.58-.4Z" fill="#fafbfb" stroke-width="0"/><path d="M229.96,539.38c17.75-12.25,35.28-24.83,53.69-36.11,34.83-21.33,70.61-40.81,109.56-53.58,35.86-11.76,72.82-16.36,110.54-15.3,21.26.59,42.09,3.46,62.32,10.15,6.88,2.28,9.36,3.72,12.38,7.27-7.55-2.71-14.77-5.76-21.41.76-6.51,6.4-5.19,13.52-.97,20.92-21.48-11.05-43.67-15.73-66.75-16.63-65.71-2.54-126.92,13.77-184.94,43.9-35.78,18.58-69.47,40.36-101.8,64.34-2.85,2.11-5.59,4.37-8.52,6.35-.94.64-1.92,2.83-3.54.71l.03-.03c2.55-1.83,4.07-4.54,5.94-6.94,38.23-49.18,81.17-93.5,132.23-129.63,44.4-31.41,93.63-50.94,146.81-61.18,43.28-8.34,86.87-9.98,130.7-6.08,12.66,1.13,25.24,2.94,37.74,5.26.68.13,1.33.44,2.73.93-7.13,5.01-13.5,9.95-19.38,15.5-1.35,1.28-2.84.53-4.21.29-28.17-4.98-56.57-7.42-85.15-7.55-47.49-.22-94.21,4.95-138.4,23.58-59.03,24.89-110.27,60.89-152.21,109.62-6.26,7.27-12.06,14.93-18.07,22.41-.26.34-.52.68-.78,1.01-.34.13-.81.29-.47.72.13.17.69.01,1.05,0,.29-.23.58-.47.87-.7Z" fill="#fafbfb" stroke-width="0"/><path d="M337.84,147.34c-31.56-2.49-62.89-2.36-93,9.32-20.98,8.14-37.41,21.3-45.35,43.2-3.26,8.98-4.65,18.28-4.08,27.84.06,1.05.19,2.07-.53,2.96-11.73-4.78-22.06-11.86-32.12-19.42-2.44-1.83-1.55-3.16-.32-5.07,11.04-17.06,26.28-29.9,42.09-42.19,1.22-.95,2.88-1.51,3.47-3.29-2.26-.87-4.1.4-5.93,1.06-19.25,6.93-35.49,18.67-50.37,32.36-3.28,3.02-4.78,2.76-7.36-.53-5.46-6.96-5.65-6.86,1.28-12.57,28.72-23.68,61.95-37.58,98.21-44.47,33.98-6.46,68.19-6.89,102.4-1.85,17.02,2.51,33.48,7.13,49.03,14.65,35.71,17.27,55.46,46.08,61.51,84.89,3.89,24.93,1.38,49.18-7,72.91-3.52,9.98-8.55,19.16-14.98,27.5-1.71,2.22-1.81,4.02-.95,6.4,3.75,10.4,9.47,19.65,16.78,28.62-8.57,2.51-16.8,4.92-25.04,7.31-1.39.4-1.77-.79-2.23-1.66-6.06-11.38-10.84-23.25-14.05-35.77-.65-2.52.85-3.54,2.04-4.9,13.88-15.76,24.12-33.54,29.56-53.9,12.53-46.94-8.67-95.27-51.61-117.99-16.14-8.54-33.36-13.4-51.44-15.4Z" fill="#fafbfb" stroke-width="0"/><path d="M307.64,267.24c-1.92,2.49-3.54,5.22-3.51,8.42.04,3.07-1.48,4.03-4.17,4.51-21.35,3.81-42.67,7.8-64.03,11.56-27.17,4.77-54.38,9.38-81.57,14.03-1.25.21-2.56.67-4.5-.41,24.28-9.38,33.38-30.82,44.21-52.6-5.91,1.4-10.2,3.14-14.33,5.29-11.91,3.24-23.3,8-34.94,12.03-18.59,6.43-37.11,13.04-55.66,19.57.25-.52.45-1.08.76-1.56,15.15-23.36,23.42-49.32,28.9-76.34,5.49,3.43,10.98,6.87,16.47,10.29,30.39,18.94,63.31,31.03,98.61,37.05,24.45,4.17,49,7.11,73.77,8.17Z" fill="#b3b4b3" stroke-width="0"/><path d="M206.44,103.43c8.51-3.43,17.57-4.52,26.51-6.02,22.96-3.86,46.15-4.86,69.33-3.47,44.61,2.69,87.2,12.64,124.53,38.72,27.57,19.26,46.07,45.07,50.81,78.8,4.48,31.9.54,62.93-15.09,91.78-.2.38-.54.69-.84,1.06-.92-1.3.07-2.36.5-3.27,10.13-21.29,12.95-43.92,12.35-67.17-.64-25.1-8.27-47.74-23.79-67.58-13.47-17.22-30.64-29.79-50.12-39.32-22.26-10.89-45.84-17.3-70.34-20.88-13.93-2.04-27.92-2.9-41.9-3.1-16.35-.24-32.75.8-48.66,5.18-8.86,2.43-16,7.43-14.78,20.29.18,1.95-.55,2.66-2.18,3.08-9.97,2.58-19.57,6.34-29.33,9.55-4.81-13.63-.79-24.83,9.46-34.32.74-.68,1.65-1.3,1.69-2.47,0,0-.07.09-.07.09.91.23,1.34-.51,1.91-.94Z" fill="#b3b4b3" stroke-width="0"/><path d="M118.79,211.74c-5.48,27.02-13.74,52.98-28.9,76.34-.31.48-.51,1.04-.76,1.56-11.6,4.11-23.2,8.22-34.8,12.33,24.65-30.02,39.19-64.46,48.62-101.93,5.49,4.06,10.66,7.88,15.83,11.7Z" fill="#fafbfb" stroke-width="0"/><path d="M183.41,100.96c-2.46-11.78,1.49-21.27,10.65-28.62,10.85-8.7,23.93-11.77,37.26-14.05,24.87-4.26,49.78-2.77,74.69-.49,12.2,1.11,24.3,3.25,36.6,3.53-7.27,1.33-14.61,1.94-21.95,1.76-20.1-.51-40.2-1.34-60.28-.27-16.69.89-33.3,2.65-48.75,9.84-4.43,2.06-8.63,4.51-12.07,8.1-4.26,4.44-6.26,9.57-5.11,15.75-3.68,1.48-7.36,2.97-11.04,4.45Z" fill="#fcfafa" stroke-width="0"/><path d="M204.59,104.29c-.04,1.18-.95,1.79-1.69,2.47-10.26,9.49-14.27,20.68-9.46,34.32-8.61,4.11-17.44,7.81-25.61,12.79-1.97,1.2-2.73.61-3.5-1.28-3.99-9.9-3.75-19.5,3.2-27.88,9.6-11.56,22.77-17.12,37.06-20.42Z" fill="#fafbfb" stroke-width="0"/><path d="M206.44,103.43c-.58.44-1.01,1.17-1.91.94.22-1.16,1.24-.7,1.91-.94Z" fill="#fafbfb" stroke-width="0"/><path d="M190.52,572.16c.37.12.73.25,1.1.37-.73.83-.75-.16-1.07-.41,0,0-.03.03-.03.03Z" fill="#fafbfb" stroke-width="0"/><path d="M243.04,39c-.32.13-.64.26-.96.38.07-.35.14-.7.2-1.05.25.22.51.45.76.67Z" fill="#fcfafa" stroke-width="0"/><path d="M449.74,88.45c.38.1.77.2,1.15.31-.12.15-.3.45-.36.42-.34-.13-.66-.33-.99-.51,0,0,.2-.22.2-.22Z" fill="#da332c" stroke-width="0"/><path d="M632.4,218.3c-.27-.07-.53-.15-.8-.22.07-.12.14-.25.21-.37.19.2.37.41.56.61,0,0,.02-.02.02-.02Z" fill="#da332c" stroke-width="0"/><path d="M625.14,249.76c.29-.1.59-.2.88-.3-.14.25-.28.5-.42.75-.16-.15-.31-.3-.47-.45Z" fill="#da332c" stroke-width="0"/><path d="M112.96,358.58c16.55,12.43,32.82,25.2,47.3,40.08,14.52,14.92,27.24,31.12,35.92,50.21.85,1.88,1.89,3.72,1.16,6.19-3.25-3.74-6.46-7.33-9.57-11.01-26.02-30.8-56.95-55.76-91.18-76.83-1.72-1.06-3.74-1.76-4.98-3.53,7.12-1.71,14.23-3.41,21.35-5.12Z" fill="#064c8b" stroke-width="0"/><path d="M225.21,418.76c-11.26-12.87-22.98-25.31-35.82-36.62-12.41-10.94-26.11-20.11-40.04-28.96-1.19-.75-2.33-1.57-4.15-2.79,5.8-1.54,10.72-3.31,15.99-3.73,6.19,4.77,12.55,9.34,18.54,14.35,17.79,14.86,33.81,31.26,43.91,52.56.77,1.62,2.19,3.13,1.56,5.2Z" fill="#064c8b" stroke-width="0"/><path d="M225.21,418.76c.63-2.07-.8-3.58-1.56-5.2-10.1-21.3-26.12-37.69-43.91-52.56-5.99-5.01-12.35-9.58-18.54-14.35,4.72-2.87,8.83-2.94,13.6.79,15.48,12.11,30.78,24.35,42.66,40.23,5.78,7.73,10.39,16.08,12.63,25.6.6,2.58-.2,4.54-1.6,6.58-1.08,1.58-1.61,0-2.38-.18-.27-.43.11-1.5-1.05-1.03l.16.12Z" fill="#fafbfb" stroke-width="0"/><path d="M249.19,387.72c-1.56-.41-2.3-1.8-3.27-2.86-15.75-17.28-33.66-31.89-53.97-43.51-1-.57-1.93-1.29-3.35-2.25,4.33-1.37,8.13-2.74,12.26-2.81,2.84,2.09,5.71,4.15,8.53,6.28,13.6,10.28,26.3,21.47,35.49,36.07,1.78,2.83,3.99,5.52,4.31,9.07Z" fill="#064c8b" stroke-width="0"/><path d="M249.19,387.72c-.32-3.55-2.53-6.24-4.31-9.07-9.19-14.6-21.9-25.78-35.49-36.07-2.82-2.13-5.68-4.19-8.53-6.28,3.73-2.55,7.13-2.39,10.9.4,11.66,8.65,23.3,17.28,32.37,28.81,3.77,4.8,6.9,9.99,8.56,15.92.43,1.55.65,3.18.81,4.78.15,1.56-.33,3.26-1.7,3.82-1.75.72-1.27-2.01-2.6-2.32Z" fill="#fafbfb" stroke-width="0"/><path d="M225.05,418.64c1.15-.47.78.61,1.05,1.03-.35-.34-.7-.69-1.05-1.03Z" fill="#064c8b" stroke-width="0"/><path d="M148.15,306.33c-.26.18-.4.33-.58.4-.1.04-.27.01-.37-.04-.35-.2-.33-.42.06-.51.22-.04.47.07.89.15Z" fill="#b3b4b3" stroke-width="0"/><path d="M228.5,539.36c.26-.34.52-.68.78-1.01.22.34.45.69.67,1.03l-.87.7c-.19-.24-.39-.48-.58-.72Z" fill="#064c8b" stroke-width="0"/><path d="M229.08,540.08c-.36,0-.92.17-1.05,0-.34-.43.13-.59.47-.72.19.24.39.48.58.72Z" fill="#064c8b" stroke-width="0"/></g></svg>