<?xml version="1.0" encoding="UTF-8"?><svg id="b" xmlns="http://www.w3.org/2000/svg" viewBox="0 0 688.32 671.85"><g id="c"><circle cx="305.18" cy="371.26" r="294.51" fill="#fcfdfd" stroke-width="0"/><polyline points="671.28 425.83 688.32 262.82 671.85 259.07" fill="#0e4c8b" stroke-width="0"/><path d="M331.29,671.85h-54.99c-3.57-1.6-7.47-1.31-11.22-1.8-32.62-4.24-63.73-13.51-93.29-27.91-38.71-18.86-72.06-44.68-99.8-77.63C32.35,517.45,8.92,463.33,1.81,402.16c-.54-4.63-.32-9.37-1.81-13.89v-40.42c.67-.24.59-.82.63-1.36,1.23-16.06,3.56-31.95,7.27-47.63,12.9-54.55,38.54-102.23,77.54-142.49,39.22-40.49,86.25-68.01,140.67-82.81,4.45-1.21,8.95-2.22,14.22-3.52-5.38,7.8-10.23,14.79-15.76,21.28-1.35,1.16-2.57,2.49-4.23,3.24-.32.09-.65.19-.97.28-.31.11-.62.22-.92.33-17.96,5.39-35.11,12.74-51.52,21.76-14.56,8-28.47,16.98-41.31,27.65-5.72,4.75-11.38,9.56-16.92,14.51-.2.21-.41.41-.61.62-.25.23-.5.46-.74.69-.23.19-.45.38-.68.57,0,0-.04.03-.04.03-3.37,2.77-6.46,5.84-9.21,9.23l-.04.06c-.2.21-.4.43-.6.64,0,0-.03.03-.03.03-.2.22-.39.43-.59.65-.23.24-.46.49-.7.73-.39.03-.6.23-.6.63l-.04.05c-.21.21-.42.42-.63.63-.5,1.72-2.24,2.27-3.31,3.48-20.9,23.54-37.6,49.75-49.81,78.77-20.03,47.61-26.61,97.1-20.36,148.32.66,5.4,1.19,10.84,2.98,16.84.15-1.23.22-1.66.25-2.1,1.58-21.96,5.39-43.44,13.07-64.2,13.26-35.84,37.03-62.82,69.8-81.72,27.72-15.98,58.39-21.33,90.02-21.55,14.79-.1,29.6.9,44.2,3.14,16.22,2.49,33.25.77,48.46,8.87,1.26.67,2.23.09,2.95-1.22,1.76-3.2,3.09-6.58,4.43-9.96.69-1.73.06-2.19-1.59-2.66-4.7-1.35-9-3.57-12.96-6.46-3.05-2.23-3.61-4.15-2.17-7.68,1.11-2.7,3.11-4.79,4.73-7.15,2.51-3.67,4.62-7.49,4.78-12.11.08-2.38-.65-3.71-3.32-3.77-3.18-.07-5.96-1.22-8.19-3.69-5.56-6.15-6.27-13.47-4.85-21.08,1.13-6.02,3.87-11.66,9.75-14.15,3.56-1.51,4.18-3.6,4.53-6.78,1.12-10.19,3.34-20.15,7.82-29.42,10.25-21.24,26.35-36.02,48.97-43.28,1.77-.57,1.39-1.27.89-2.3-2.71-5.59-7.5-8.23-13.38-8.97-9.71-1.22-17.61,2.75-24.62,9.04-3.69,3.31-7.11,6.92-11.13,9.87-7.25,5.32-15.17,9.04-24.76,10.81,3.04-3.96,6.92-5.91,9.62-9.1.48.15.75-.07.9-.51.18-.06.32-.17.4-.35,1.34-.69,2.29-1.75,2.97-3.07,3.94-4.88,8.69-9.17,11.43-15.29-1.64.56-2.54,1.66-3.55,2.6-9.12,8.51-18.22,16.99-28.65,23.99-25.1,16.85-52.53,25.51-82.88,24.29-3.38-.14-6.81-.35-10.37-1.84.66-.39.9-.58,1.18-.68,26.59-10.37,48.63-26.75,65.59-49.78,8.26-11.21,15.07-23.31,21.41-35.68-.01-.29,0-.58,0-.87-.22.13-.61.23-.63.39-.11.64.34.56.75.47-2.08-1.22-2.8.97-3.82,1.77-7.37,5.79-15.11,10.96-23.53,15.06-5.59,2.72-11.27,5.24-18.42,6.46,4.78-4.05,9.01-7.35,12.5-11.38,5.49-6.33,10.95-12.71,16.06-19.34,14.93-19.39,33.76-32.68,57.9-38,2.63-.58,5.42-.46,7.9-1.7h19.21c1.35,1.09,3.06.9,4.6,1.31,15.63,4.09,29.36,11.17,39.25,24.51,4.12,5.55,7.54,11.46,10.3,18.8.56-8.8-1.95-16.25-2.74-24.07.47.24.71.29.83.44.36.42.7.86.99,1.32,9.75,15.27,13.32,31.72,9.17,49.53-.61,2.61-.3,3.61,2.5,4.49,22.22,6.97,43.58,15.91,63.81,27.6,16.43,9.5,32.02,20.12,46.37,32.51,34.23,29.53,60.95,64.75,79.59,105.99.99,2.19,2.39,3,4.64,3.35,13.61,2.08,27.2,4.3,40.8,6.43,14.8,2.32,29.62,4.58,44.42,6.86v7.95c-.98,0-1.98.1-2.93-.04-7.74-1.19-15.46-2.44-23.2-3.66-33.22-5.23-66.44-10.43-99.65-15.74-2.15-.34-2.65.15-2.82,2.18-1.3,15.83-2.63,31.67-4.12,47.49-.52,5.48-.56,11.02-1.72,16.43-.48.05-.96.1-1.44.15-3.35-.73-6.7-.66-10.04.08-15.28.86-29.5,5.31-42.32,13.55-25.25,16.23-39.77,39.34-43.15,69.29-.47.44-.45.95-.25,1.5-.09.2-.15.4-.19.62-1.87-.07-3.75-.04-5.61-.23-15.36-1.53-30.72-3.1-46.07-4.65-.76-5.61-.55-11.25-.35-16.86,1.11-31.21,2.75-62.39,5.59-93.49,1.35-14.72,2.85-29.42,4.13-44.14.27-3.07,1.18-4.2,4.53-4.06,13.34.53,26.69.71,40.03,1.03,27.35.65,54.71,1.29,82.06,1.98,8.7.22,17.44-.14,26.07,1.5,3.31.63,6.63,1.47,10.56,1.3-16.72-33.57-39-62.44-66.77-87.06-27.77-24.62-59.05-43.33-94.17-55.44,13.19,8.26,25.12,17.86,34.22,30.67,3.74,5.27,5.45,11.53,8.43,17.1,6.05,11.32,10.87,23.12,15.63,34.98,1.22,3.03,1.77,6.11,1.04,9.38-2.63,11.83-5.73,23.54-8.86,35.24-1.27,4.76-1.33,4.74-6.4,4.48.05-.54.01-1.1.15-1.62,2.88-10.64,5.79-21.26,8.66-31.9,1.34-4.96,1.77-9.75-.43-14.79-4.53-10.41-8.8-20.93-13.67-31.19-1.04-2.2-2.11-2.77-4.51-2.4-21.12,3.32-42.26,6.56-63.42,9.67-3,.44-4.92,1.13-4.74,4.69.13,2.51-.25,5.06-.53,7.58-.23,1.97.55,2.7,2.41,2.27,2.33-.54,2.89.48,2.72,2.63-.88,11.56-2.46,23.01-4.87,34.36-.4,1.89-.67,3.65-3.3,2.37-1.17-.57-1.62.3-1.84,1.21-1.2,4.93-2.39,9.85-3.51,14.8-.26,1.16.16,1.79,1.47,2.42,3.69,1.76,7.73,2.31,11.51,3.75,6.07,2.33,12.2,4.49,18.3,6.73.04.44.09.88.13,1.32-.07.46-.13.92-.2,1.38-.47,3.94-.99,7.88-1.39,11.83-2.23,21.73-4.35,43.47-5.67,65.28-.19,3.07-1.44,3.96-4.16,4.45-11.75,2.12-23.42,4.72-35.77,5.42,1.15,1.3,2.37,1.42,3.47,1.75,10.81,3.19,21.9,4.95,33.03,6.46,1.84.25,2.37.84,2.31,2.63-.27,8.05-.6,16.1-.59,24.15.04,27.46-1.05,54.98,3.37,82.26,1.92,11.85,3.58,23.76,7.34,35.23,2.71,8.28,6.28,16.21,9.89,24.14,10.29,22.6,24.48,42.43,42.09,59.87.12.56.38.98.98,1.12.45.45.89.89,1.34,1.34l.64.62c.06.17.19.28.36.32.27.25.54.5.8.75,4.23,4.61,9.07,8.55,13.8,12.62,8.24,7.1,16.6,14.01,26.08,19.42,7.07,4.03,13.98,8.42,21.87,10.81,2.47,1.67,3.51.94,3.38-1.95-.04-.88.1-1.76.17-2.64,3.09-36.68,6.17-73.36,9.26-110.04,1.1,0,2.21-.08,3.3.04,9.09,1.04,18.1.29,26.9-1.94,36.78-9.31,59.6-32.81,69.51-69.15,1.18-4.32,1.79-8.8,2.67-13.21,11.18,1.13,22.36,2.31,33.55,3.37,5.8.55,5.9.47,6.41-5.08,2.21-24.05,4.3-48.11,6.6-72.15.5-5.2.22-10.52,1.9-15.58v98.06c-.7.43-.52,1.16-.57,1.78-.86,10.33-2.01,20.63-3.27,30.93-4.59,37.62-22.65,68.5-47.97,95.58-17.75,18.98-39.02,33.73-60.58,48-13.54,8.96-27.69,16.84-42.79,22.95-3.4,1.37-6.61,1.7-10.23.54-6.65-2.13-13.04-4.76-19.06-8.25-2.16-1.25-3.74-1.33-5.9.26-9.33,6.88-19.15,13.02-29.29,18.65-32.33,17.96-66.78,29.63-103.4,34.94-5.84.85-11.77.98-17.52,2.44ZM71.19,318.45c2.24.85,3.1-1.24,4.31-2.23,13.57-11.04,27.25-21.93,43.02-29.77,4.86-2.42,9.69-4.97,15.15-6.75-.24.56-.27.84-.42.95-2.99,2.26-6.01,4.47-8.98,6.75-20.45,15.67-36.33,35.25-49.31,57.35-6.52,11.12-11.43,22.86-13.99,35.52-2.9,14.35-2.26,28.72-.06,43.12,3.35,21.91,9.81,42.66,21.57,61.64,6.43,10.37,12.46,20.99,18.25,31.75,10.64,19.75,16.55,40.54,14.59,63.15-.19,2.14.82,3.25,2.18,4.43,18.2,15.73,38.07,28.96,59.55,39.8,2.2,1.11,3.07,1.26,3.34-1.74,1.38-15.36.8-30.63-1.51-45.85-3.41-22.44-10.35-43.69-21.75-63.38-9.73-16.81-22.42-31.38-35.36-45.73-6.45-7.15-12.05-14.92-16.99-23.19-8.03-13.45-8.32-28.31-8.01-43.29.03-1.68,0-3.36,0-5.04-8.4,19.12-8.04,38.81-3.96,58.97-1.39-.66-1.67-1.67-2.14-2.5-6.33-10.92-9.35-22.79-9.71-35.33-.32-11.24,1.96-22.15,4.53-33.01,8.63-36.5,28.8-65.39,59.02-87.02,21.62-15.48,45.83-25.78,71.91-31.45,6.74-1.46,13.45-3.09,20.17-4.64-7.27-1.09-14.49-1.59-21.7-2.27-17.01-1.59-33.95-1.13-50.82,1.52-13.16,2.07-25.94,5.29-38.24,10.69-13.78,6.04-26.44,13.54-37.04,24.29-6.92,7.01-12.83,14.79-17.64,23.37l.2-.05-.17-.04ZM276.87,576.77c-.3.01-.59.02-.89.03-.34-4.3-.71-8.59-1.02-12.89-.78-11.01-1.61-22.01-2.23-33.03-.17-2.98-1.21-3.35-3.82-2.51-4.3,1.38-8.64,2.76-13.07,3.5-3.4.57-4.09,2.13-4.1,5.23-.03,10.04-.42,20.07-.54,30.11-.32,26.15-.53,52.3-.9,78.45-.04,2.65.8,3.51,3.37,3.95,15.14,2.59,30.37,4.11,45.73,4.46,2.45.06,2.87-.77,2.82-3.02-.66-27.02-1.2-54.04-1.79-81.07-.26-12.02-.6-24.04-.8-36.06-.03-1.75-.52-2.48-2.32-2.75-4.79-.73-9.57-1.55-14.29-2.63-2.22-.51-2.82-.11-2.94,2.19-.52,9.58-1.23,19.16-1.9,28.73-.4,5.76-.86,11.53-1.3,17.29ZM298.15,484.32c0-3.31.05-6.62-.03-9.93-.03-1.16.62-2.75-.47-3.4-1.08-.65-2.17.63-3.16,1.23-13.21,7.98-26.42,15.97-39.6,23.99-1.34.82-2.7,1.35-4.28,1.57-13.78,1.93-27.67,2.59-41.5,3.91-2.5.24-4.55.13-6.73-1.51-5.74-4.32-13.37-3.15-18.03,2.45-4.22,5.08-3.71,13,1.15,17.78,5.07,4.99,13,5.26,18.2.3,1.62-1.55,3.16-1.95,5.23-1.95,43.49.04,86.98.04,130.46-.01,2.82,0,5.07.46,7.38,2.5,5.11,4.5,12.56,3.95,17.41-.74,4.68-4.52,5.38-12,1.6-17.21-4.03-5.56-11.6-7.81-16.91-4-3.93,2.82-7.69,2.48-11.81,2.12-2.31-.2-4.62-.39-6.92-.59-9.88-.88-19.75-1.79-29.63-2.62-1.77-.15-2.48-.76-2.41-2.64.14-3.75.04-7.5.04-11.26ZM201.06,358.57c0-.31,0-.61,0-.92-3.86,0-7.72.1-11.58-.02-19.63-.62-34.58,7.25-44.23,24.52-3.23,5.79-5.69,11.94-6.06,18.71-.11,2.08.52,3.76,2.92,4.02,2.23.24,2.99-1.05,3.48-3.06,1.35-5.56,2.82-11.11,5.3-16.32.8-1.69,1.38-3.52,2.77-4.85,1.3-1.24,2.9-1.88,4.48-.71,1.58,1.17,1.03,2.75.16,4.14-2.91,4.63-4.54,9.76-5.94,14.98-1.13,4.21-1.15,4.26,3.14,5.04,15.71,2.83,31.44,5.55,47.13,8.46,2.46.46,3.1-.5,3.4-2.58.83-5.78,1.66-11.56,2.67-17.31,1.31-7.47,1.82-15.12,4.84-22.22,1.44-3.38,3.79-6.2,5.71-9.29,1.1-1.77,1.3-2.68-1.34-2.62-5.62.12-11.24.04-16.86.04ZM369.43,117.66c-.36,1.22.19,1.71.56,2.21,6.25,8.43,9.7,18.03,11.34,28.26.44,2.75,1.58,3.1,3.87,2.9,8.57-.75,17.15-1.39,25.72-2.09,7.58-.62,15.16-1.3,22.75-1.91,2.64-.21,3.71-1.13,2.23-3.78-1.4-2.5-2.54-5.15-4.01-7.6-6.18-10.27-14.72-18.3-24.38-25.22-10.3-7.39-21.04-13.81-34.13-14.77-3.85-.28-7.7-.59-12.16-.04,17.59,11.5,29.81,26.07,30.95,36.9-6.77-6.48-13.93-11.89-22.74-14.86ZM269.05,370.2c0,1.47.08,2.25-.01,3.01-.43,3.28.96,4.57,4.27,5.01,11.49,1.53,23.09,1.58,34.6,2.71,2.4.24,3.92-.99,4.78-3.22,2.13-5.51,2.46-11.16,1.31-16.9-.43-2.13-1.55-3.75-3.85-4.52-16.73-5.63-33.71-10.15-51.25-12.46-2.87-.38-4.93.42-6.59,2.66-4.34,5.85-5.91,12.43-5.32,19.64.14,1.67.85,2.17,2.41,2.39,4.03.57,8.1,1.09,12.03,2.12,2.78.73,3.31-.48,3.47-2.67.29-3.85,1.02-7.63,1.94-11.38.4-1.63.73-3.66,2.95-3.17,2.29.52,1.65,2.49,1.16,4.09-1.32,4.36-1.78,8.85-1.89,12.68ZM278.23,414.9c10.99.23,21.72-1.97,32.51-3.57,1.02-.15,1.85-.56,2.19-1.71,2.03-6.85,3.42-13.7,1.13-20.8-.56-1.73-1.42-2.43-3.3-2.45-17.33-.26-34.63-1-51.76-3.96-2.84-.49-4.79.54-6.26,3.13-2.94,5.17-3.7,10.79-3.91,16.57q-.19,5.13,4.84,5.4c1.76.1,3.55.1,5.28.41,2.51.45,3.65-.13,3.48-2.98-.2-3.3.3-6.6,1.09-9.84.33-1.34.29-3.2,2.4-2.81,2.18.41,1.74,2.1,1.43,3.68-.97,5.01-1.12,10.07-.91,15.17.11,2.59.74,4.14,3.83,3.83,2.62-.27,5.29-.06,7.94-.06ZM113.28,367.19c.05,1.53.04,1.7,1.47,2.99,6.2,5.54,13.03,10.16,20.41,14,1.97,1.02,2.86.35,3.41-1.42.79-2.54,2.33-4.58,3.76-6.79,7.36-11.41,17.94-18.29,30.51-22.58,1.29-.44,3.48-.35,3.66-1.58.24-1.66-2.01-2.03-3.22-2.87-4.48-3.12-9.88-5.1-12.47-10.48-.39-.81-1.24-1.18-2.18-1.31-9.01-1.32-17.76.37-25.78,3.99-6.84,3.08-12.3,8.48-15.91,15.34-1.81,3.44-3.18,7.03-3.66,10.73ZM214.32,279.37c4.52,1.33,8.41.91,12.17,1.56,11.8,2.02,22.7,6.22,32.71,12.71,2.58,1.68,4.87,3.79,7.42,5.54,1.45.99,3.2,1.31,4.44-.37,1.24-1.69.38-3.12-.96-4.33-2.78-2.53-5.67-4.96-8.94-6.81-2.42-1.37-1.77-2.24.07-3.37,4.32-2.66,8.55-5.48,12.94-8.04,7.15-4.17,8.55-3.93,14.58,1.79.16.15.31.31.47.47,8.86,8.99,14.01,19.7,14.86,32.35.15,2.28,1.17,3.64,3.36,3.66,2.5.03,2.56-1.97,2.51-3.81-.12-5-.81-9.93-2.59-14.6-6.54-17.16-17.4-29.94-36.5-32.66-12.97-1.85-25.73.57-37.96,5.36-6.46,2.53-12.55,5.71-18.57,10.58ZM294.06,333.92s.08,0,.12,0c0-3.31,0-6.61,0-9.92-.01-4.74-2.77-9.38-7.22-10.81-8.16-2.63-16.41-2.88-24.55.38-2.64,1.06-3.89,2.88-3.96,5.81-.15,6.28-.38,12.56-.89,18.81-.23,2.83.75,3.42,3.37,3.77,10.45,1.4,21.12,1.44,31.29,4.66,1.63.52,1.89-.04,1.88-1.46-.04-3.75-.01-7.5-.01-11.24ZM269.46,420.19c-2.43,0-4.85-.02-7.28,0-3.51.04-4.39.96-4.41,4.56-.02,2.75.26,5.54-.09,8.25-.33,2.53.77,3,2.83,2.97,2-.03,3.83-.13,3.75-2.88-.06-1.87.04-3.75,0-5.62-.03-1.47.2-2.68,1.99-2.79,2.07-.12,1.89,1.46,1.93,2.73.12,3.86.13,7.71.24,11.57.11,3.81.37,4.06,4.24,3.47,9.18-1.4,18.38-2.71,27.41-4.96,10.85-2.7,11.6-3.58,11.33-14.94-.03-1.21-.13-2.42-.2-3.63-.14-2.62-1.15-3.47-4.02-2.95-12.47,2.28-25.04,3.81-37.72,4.22ZM218.48,289.24c-2.96-.4-6.56,2.58-10.56,4.29-5.8,2.48-11.19,5.72-16.35,9.34-1.58,1.11-1.91,2.57-1.75,4.33.18,2.04,1.86,1.55,3.03,1.75,11.99,2.04,23.33,5.74,33.4,12.79,1.59,1.12,3.41,1.68,4.66-.16,1.18-1.75.79-3.63-1.11-4.88-2.12-1.39-4.31-2.67-6.42-4.08-1.29-.87-1.45-1.67.15-2.62,5.96-3.56,11.79-7.36,17.8-10.83,2.43-1.4,1.87-2.23-.02-3.26-6.56-3.58-13.5-5.94-22.82-6.67ZM167.16,327.82c5.44.26,9.81.73,14.08,1.9,6.16,1.68,11.59,4.7,16.47,8.81,2.08,1.75,4.43,3.39,6.96.77,4.46-4.62,9.42-8.61,14.63-12.32,2.09-1.49,1.44-2.56-.52-3.51-6.65-3.24-13.51-5.9-20.73-7.58-2.46-.57-4.93-1.83-7.43-1.16-8.61,2.3-16.03,6.83-23.47,13.1ZM303.83,350.44c2.92.93,5.85,1.8,8.75,2.8,3,1.04,4.89,2.95,5.66,6.25,1.28,5.5,1.12,10.91-.06,16.35-.44,2.01-.03,3.01,2.27,2.36,4.11-1.15,7.83-2.99,10.73-6.18,6.43-7.09,3.61-17.04-5.46-19.61-7.16-2.03-14.43-2.9-21.88-1.98ZM263.1,450.81c0,3.47,1.72,5.96,4.08,5.62,9.25-1.33,18.62-1.9,27.65-4.58,3.25-.97,4.89-3.23,5.72-6.27.32-1.17.87-2.64.05-3.56-1.12-1.26-2.55-.76-3.8.28-.37.3-1.04.23-1.57.34-9.51,2.08-19.1,3.71-28.78,4.77-2.11.23-3.98.79-3.33,3.39ZM295.4,175.12c3.32,5.03,5.44,10.15,5.2,15.75-.14,3.4.94,4.49,4.05,4.26.32-.02.65.1.98.13,4.63.47,5.19-.05,4.99-4.64-.45-10.54-5.74-16.12-15.22-15.51ZM358.88,179.59c-.21-.53.73-2.14-.91-2.23-1.3-.07-2.74.22-2.93,2.31-.78,8.43-1.86,16.82-3.84,25.07-.42,1.75.13,2.65,1.89,3.07,1.94.47,1.87-.91,2.15-2.07,2.03-8.47,3.24-17.05,3.65-26.15Z" fill="#0e4c8b" stroke-width="0"/><path d="M537.42,313.68c1.16-5.41,1.2-10.95,1.72-16.43,1.49-15.82,2.82-31.65,4.12-47.49.17-2.04.67-2.53,2.82-2.18,33.21,5.31,66.43,10.51,99.65,15.74,7.73,1.22,15.46,2.47,23.2,3.66.96.15,1.96.04,2.93.04l6.98,1.58-8.88,72.97c-2.3,24.04-4.39,48.1-6.6,72.15-.51,5.56-.61,5.64-6.41,5.08-11.19-1.07-22.37-2.24-33.55-3.38.01-2.1.02-4.19.04-6.29.24-19.6-3.73-38.02-14.53-54.75-10.04-15.55-23.75-26.45-40.74-33.42-9.86-4.04-20.14-6.34-30.74-7.29Z" fill="#bfc1c3" stroke-width="0"/><path d="M71.15,318.55c4.82-8.6,10.73-16.38,17.65-23.38,10.61-10.74,23.27-18.24,37.04-24.29,12.3-5.4,25.08-8.62,38.24-10.69,16.87-2.65,33.81-3.11,50.82-1.52,7.21.68,14.43,1.18,21.7,2.27-6.72,1.55-13.43,3.17-20.17,4.64-26.08,5.67-50.29,15.97-71.91,31.45-30.22,21.63-50.4,50.52-59.02,87.02-2.57,10.86-4.85,21.77-4.53,33.01.36,12.54,3.38,24.41,9.71,35.33.48.82.76,1.84,2.14,2.5-4.09-20.16-4.44-39.85,3.96-58.97,0,1.68.03,3.36,0,5.04-.31,14.98-.02,29.84,8.01,43.29,4.94,8.27,10.54,16.04,16.99,23.19,12.94,14.35,25.63,28.91,35.36,45.73,11.4,19.69,18.34,40.94,21.75,63.38,2.31,15.22,2.9,30.49,1.51,45.85-.27,3-1.14,2.85-3.34,1.74-21.48-10.84-41.35-24.06-59.55-39.8-1.37-1.18-2.37-2.29-2.18-4.43,1.97-22.61-3.95-43.4-14.59-63.15-5.8-10.76-11.82-21.37-18.25-31.75-11.77-18.97-18.23-39.73-21.57-61.64-2.2-14.39-2.84-28.76.06-43.12,2.56-12.65,7.46-24.4,13.99-35.52,12.97-22.1,28.86-41.69,49.31-57.35,2.97-2.28,6-4.49,8.98-6.75.15-.11.18-.39.42-.95-5.46,1.78-10.29,4.33-15.15,6.75-15.77,7.84-29.45,18.73-43.02,29.77-1.21.99-2.07,3.08-4.31,2.23l-.03.09Z" fill="#fcfdfd" stroke-width="0"/><path d="M388.34,393.98c15.36,1.56,30.71,3.12,46.07,4.65,1.86.19,3.74.16,5.61.23-.23,2.74-.59,5.48-.66,8.23-.44,17.12,3.23,33.21,11.89,48.12,11.16,19.22,27.39,32.18,48.2,39.66,7,2.52,14.3,3.54,21.56,4.82-3.09,36.68-6.17,73.36-9.26,110.04-.07.88-.21,1.76-.17,2.64.13,2.89-.92,3.62-3.38,1.95-4.19-3.81-9.36-6.14-14-9.27-11.46-7.71-22.2-16.34-32.56-25.37-9.46-8.25-17.65-17.79-25.18-27.88-16.38-21.93-29.01-45.72-37.09-71.96-8.63-28.02-12.07-56.63-11.01-85.85Z" fill="#bfc1c3" stroke-width="0"/><path d="M388.34,393.98c-1.06,29.22,2.39,57.83,11.01,85.85,8.08,26.24,20.71,50.03,37.09,71.96,7.54,10.09,15.72,19.63,25.18,27.88,10.37,9.04,21.1,17.67,32.56,25.37,4.64,3.12,9.82,5.46,14,9.27-7.89-2.39-14.8-6.78-21.87-10.81-9.48-5.4-17.84-12.32-26.08-19.42-4.73-4.07-9.56-8.02-13.8-12.63-.27-.25-.54-.5-.8-.74-.18-.04-.3-.15-.36-.32-.21-.21-.42-.41-.64-.62-.45-.45-.89-.89-1.34-1.34-.07-.59-.38-.99-.98-1.12-17.6-17.44-31.8-37.27-42.09-59.87-3.61-7.92-7.17-15.85-9.89-24.14-3.76-11.47-5.42-23.38-7.34-35.23-4.42-27.28-3.33-54.8-3.37-82.26-.01-8.05.32-16.1.59-24.15.06-1.79-.48-2.38-2.31-2.63-11.13-1.52-22.22-3.28-33.03-6.46-1.1-.32-2.33-.44-3.47-1.75,12.35-.7,24.02-3.3,35.77-5.42,2.72-.49,3.97-1.38,4.16-4.45,1.32-21.81,3.44-43.55,5.67-65.28.4-3.95.92-7.88,1.39-11.83.45-.4.63-.84.2-1.38-.04-.44-.09-.88-.13-1.32.41-2.93.97-5.85,1.18-8.8.2-2.86,1.25-3.91,4.31-3.85,9.91.16,19.79.87,29.68,1.34.97.02,1.94.04,2.91.06,2.24.04,4.48.07,6.72.11.66.08,1.33.16,1.99.24,2.92.63,5.88.12,8.82.32,5.07.26,5.13.28,6.4-4.48,3.13-11.7,6.23-23.41,8.86-35.24.73-3.27.17-6.35-1.04-9.38-4.76-11.86-9.59-23.66-15.63-34.98-2.98-5.57-4.69-11.84-8.43-17.1-9.1-12.81-21.02-22.4-34.22-30.67,35.12,12.11,66.4,30.82,94.17,55.44,27.77,24.62,50.04,53.48,66.77,87.06-3.94.17-7.25-.67-10.56-1.3-8.63-1.64-17.37-1.29-26.07-1.5-27.35-.68-54.71-1.32-82.06-1.98-13.35-.32-26.7-.5-40.03-1.03-3.35-.13-4.26.99-4.53,4.06-1.28,14.72-2.79,29.42-4.13,44.14-2.85,31.1-4.48,62.28-5.59,93.49-.2,5.61-.41,11.25.35,16.86Z" fill="#fcfdfd" stroke-width="0"/><path d="M276.87,576.77c.43-5.76.89-11.52,1.3-17.29.67-9.58,1.38-19.15,1.9-28.73.13-2.3.72-2.7,2.94-2.19,4.72,1.08,9.5,1.89,14.29,2.63,1.8.28,2.29,1,2.32,2.75.21,12.02.54,24.04.8,36.06.59,27.02,1.14,54.05,1.79,81.07.05,2.25-.36,3.08-2.82,3.02-15.36-.35-30.59-1.87-45.73-4.46-2.58-.44-3.41-1.3-3.37-3.95.37-26.15.58-52.3.9-78.45.12-10.04.51-20.08.54-30.11.01-3.1.71-4.66,4.1-5.23,4.43-.74,8.78-2.12,13.07-3.5,2.61-.84,3.65-.47,3.82,2.51.63,11.02,1.45,22.02,2.23,33.03.3,4.3.68,8.59,1.02,12.89.3-.01.59-.02.89-.03Z" fill="#fcfdfd" stroke-width="0"/><path d="M521.01,499.68c-7.26-1.27-14.57-2.3-21.56-4.82-20.8-7.48-37.03-20.44-48.2-39.66-8.66-14.91-12.33-31-11.89-48.12.07-2.75.43-5.48.66-8.23.04-.21.1-.42.19-.62.5-.43.5-.94.25-1.5,3.37-29.95,17.89-53.05,43.15-69.29,12.82-8.24,27.04-12.68,42.32-13.55,3.35.31,6.69.27,10.04-.08.48-.05.96-.1,1.44-.15,10.6.95,20.89,3.25,30.74,7.29,16.99,6.97,30.69,17.88,40.74,33.42,10.81,16.73,14.78,35.15,14.53,54.75-.03,2.1-.03,4.19-.04,6.29-.88,4.41-1.49,8.89-2.67,13.21-9.91,36.34-32.74,59.85-69.51,69.15-8.79,2.22-17.81,2.98-26.9,1.94-1.09-.12-2.2-.03-3.3-.04ZM562.7,466.51c.23-.04.45-.09.68-.13,2.6,4.93,5.34,9.79,7.76,14.81,1.29,2.69,2.45,2.89,4.95,1.31,13.12-8.32,23.38-19.32,30.93-32.82,17.41-31.13,13.59-72.01-9.3-99.32-14-16.7-31.67-27.11-53.33-30.51-1.86-.29-2.49.04-2.62,2-.5,7.38-1.14,14.74-1.77,22.11-1.26,14.62-2.61,29.24-3.78,43.87-.18,2.3-1.09,2.73-3.11,2.5-4.06-.45-8.13-.75-12.2-1.09-13.61-1.14-27.23-2.28-40.81-3.42,3.25-6.97,7.51-13.32,14.4-18.5-.21,2.69-.31,4.66-.53,6.61-.23,2.02.33,2.94,2.61,3.12,9.13.69,18.25,1.5,27.35,2.5,2.59.28,3.14-.61,3.33-2.91,1.52-18.25,3.1-36.5,4.77-54.74.23-2.5-.38-3.27-2.96-3.13-22.39,1.15-41.82,9.3-57.68,25.11-28.76,28.66-34.61,72.35-14.31,107.6,12.82,22.26,32.05,36.25,57.27,41.83,1.72.38,2.36.22,2.52-1.67,1.31-15.39,2.69-30.77,4.06-46.16.59-6.59,1.24-13.18,1.74-19.78.21-2.73,2.18-1.72,3.42-1.65,2.42.15,5.15-.49,7.01,1.87.1.13,0,.43-.03.65-.67,7.25-1.34,14.5-2.01,21.75-1.37,14.83-2.74,29.66-4.15,44.49-.15,1.54.23,2.14,1.9,2.19,10.14.3,19.99-1.18,29.62-4.35,1.62-.53,2.19-1.45,2.33-3.1.59-7.01,1.3-14.02,1.97-21.02Z" fill="#fcfdfd" stroke-width="0"/><path d="M298.15,484.32c0,3.75.1,7.51-.04,11.26-.07,1.87.63,2.49,2.41,2.64,9.88.83,19.76,1.74,29.63,2.62,2.31.21,4.62.39,6.92.59,4.12.36,7.88.7,11.81-2.12,5.31-3.81,12.88-1.56,16.91,4,3.77,5.21,3.08,12.69-1.6,17.21-4.85,4.69-12.31,5.24-17.41.74-2.31-2.04-4.56-2.5-7.38-2.5-43.49.05-86.98.05-130.46.01-2.07,0-3.6.4-5.23,1.95-5.19,4.96-13.13,4.69-18.2-.3-4.86-4.78-5.37-12.7-1.15-17.78,4.65-5.6,12.29-6.78,18.03-2.45,2.17,1.64,4.23,1.75,6.73,1.51,13.83-1.32,27.72-1.98,41.5-3.91,1.58-.22,2.94-.75,4.28-1.57,13.19-8.02,26.39-16.01,39.6-23.99,1-.6,2.08-1.87,3.16-1.23,1.08.65.44,2.24.47,3.4.08,3.31.03,6.62.03,9.93Z" fill="#fcfdfd" stroke-width="0"/><path d="M423.65,229.85c-9.89-.46-19.77-1.17-29.68-1.34-3.06-.05-4.11.99-4.31,3.85-.2,2.95-.77,5.87-1.18,8.8-6.1-2.23-12.23-4.4-18.3-6.73-3.77-1.45-7.81-1.99-11.51-3.75-1.31-.62-1.73-1.25-1.47-2.42,1.13-4.94,2.31-9.87,3.51-14.8.22-.91.67-1.78,1.84-1.21,2.64,1.28,2.9-.48,3.3-2.37,2.41-11.34,3.99-22.8,4.87-34.36.16-2.15-.4-3.17-2.72-2.63-1.86.43-2.64-.3-2.41-2.27.29-2.52.66-5.07.53-7.58-.18-3.57,1.75-4.25,4.74-4.69,21.15-3.12,42.29-6.35,63.42-9.67,2.4-.38,3.47.2,4.51,2.4,4.87,10.26,9.14,20.78,13.67,31.19,2.2,5.04,1.77,9.83.43,14.79-2.87,10.64-5.78,21.26-8.66,31.9-.14.51-.11,1.08-.15,1.62-2.94-.19-5.9.32-8.82-.32,1.45-.17,1.51-1.4,1.78-2.42.47-1.81.83-3.65,1.28-5.47,2.8-11.21,5.62-22.43,8.44-33.64.28-1.11.69-2.29-.84-2.7-1.35-.36-1.68.75-1.92,1.73-3.58,14.09-7.15,28.18-10.73,42.26-2.24-.04-4.48-.07-6.71-.11,1.1-4.07,1.75-8.24,2.7-12.35,2.33-10.07,4.83-20.08,7.48-30.07.77-2.89,1.92-5.58,5.13-6.57.91-.28.75-.96.77-1.58.1-2.68-3.77-8.46-6.43-9.61-1.66,9.55-2.93,19.16-5.6,28.51-1.86,6.51-2.82,13.22-4.46,19.79-.97,3.88-2.83,7.65-2.5,11.83ZM424.39,164.44c.54-1.71-.47-1.79-1.76-1.58-4.57.72-9.13,1.59-13.73,2.09-2.58.28-3.24,1.46-3.34,3.83-.35,8.16-1.28,16.27-2.43,24.35-1.35,9.5-3.05,18.94-5.53,28.22-.59,2.22.14,3.2,2.23,3.76,2.45.65,4.88,1.41,7.23,2.36,2.23.9,3.34.59,3.96-1.97,1.24-5.14,2.92-10.17,4.2-15.3,3.74-15.09,6.6-30.37,9.18-45.76ZM395.2,175.67c.08-1.87.16-3.74.26-5.62.1-2.01-.69-2.83-2.78-2.36-3.01.67-6.04,1.29-9.09,1.72-1.8.26-2.37,1.2-2.5,2.84-1.07,14.2-3.45,28.21-6.34,42.14-.41,1.97.22,2.53,1.83,2.99,2.86.82,5.75,1.59,8.51,2.68,2.25.88,2.83.04,3.29-2,3.17-13.99,5.65-28.09,6.81-42.39Z" fill="#bfc1c3" stroke-width="0"/><path d="M201.06,358.57c5.62,0,11.24.08,16.86-.04,2.65-.06,2.44.85,1.34,2.62-1.92,3.08-4.27,5.91-5.71,9.29-3.02,7.1-3.54,14.75-4.84,22.22-1.01,5.75-1.84,11.53-2.67,17.31-.3,2.09-.93,3.04-3.4,2.58-15.69-2.91-31.42-5.63-47.13-8.46-4.3-.77-4.27-.83-3.14-5.04,1.4-5.22,3.04-10.35,5.94-14.98.87-1.39,1.42-2.96-.16-4.14-1.58-1.17-3.18-.53-4.48.71-1.39,1.33-1.97,3.16-2.77,4.85-2.48,5.21-3.94,10.76-5.3,16.32-.49,2.01-1.24,3.3-3.48,3.06-2.4-.26-3.04-1.94-2.92-4.02.37-6.76,2.83-12.92,6.06-18.71,9.64-17.27,24.59-25.14,44.23-24.52,3.86.12,7.72.02,11.58.02,0,.31,0,.61,0,.92Z" fill="#bfc1c3" stroke-width="0"/><path d="M369.43,117.66c8.81,2.97,15.96,8.38,22.74,14.86-1.14-10.83-13.36-25.4-30.95-36.9,4.46-.56,8.31-.25,12.16.04,13.09.96,23.83,7.38,34.13,14.77,9.65,6.92,18.2,14.95,24.38,25.22,1.47,2.45,2.61,5.1,4.01,7.6,1.49,2.65.41,3.57-2.23,3.78-7.58.61-15.16,1.29-22.75,1.91-8.57.7-17.15,1.34-25.72,2.09-2.29.2-3.43-.15-3.87-2.9-1.64-10.24-5.09-19.83-11.34-28.26-.36-.49-.92-.98-.56-2.21Z" fill="#bfc1c3" stroke-width="0"/><path d="M269.05,370.2c.11-3.84.58-8.32,1.89-12.68.48-1.6,1.13-3.58-1.16-4.09-2.21-.5-2.55,1.54-2.95,3.17-.92,3.75-1.65,7.53-1.94,11.38-.17,2.19-.7,3.39-3.47,2.67-3.93-1.03-8-1.55-12.03-2.12-1.56-.22-2.28-.72-2.41-2.39-.59-7.21.99-13.78,5.32-19.64,1.66-2.24,3.72-3.04,6.59-2.66,17.54,2.31,34.52,6.84,51.25,12.46,2.3.77,3.43,2.39,3.85,4.52,1.15,5.74.82,11.39-1.31,16.9-.86,2.23-2.38,3.46-4.78,3.22-11.51-1.13-23.11-1.18-34.6-2.71-3.31-.44-4.7-1.74-4.27-5.01.1-.76.01-1.54.01-3.01Z" fill="#bfc1c3" stroke-width="0"/><path d="M278.23,414.9c-2.65,0-5.32-.21-7.94.06-3.09.32-3.72-1.23-3.83-3.83-.21-5.1-.06-10.15.91-15.17.31-1.58.75-3.27-1.43-3.68-2.12-.4-2.07,1.46-2.4,2.81-.79,3.23-1.29,6.53-1.09,9.84.17,2.85-.98,3.43-3.48,2.98-1.73-.31-3.52-.31-5.28-.41q-5.02-.28-4.84-5.4c.21-5.78.97-11.39,3.91-16.57,1.47-2.58,3.42-3.62,6.26-3.13,17.13,2.96,34.43,3.7,51.76,3.96,1.88.03,2.74.72,3.3,2.45,2.29,7.1.9,13.96-1.13,20.8-.34,1.15-1.17,1.56-2.19,1.71-10.8,1.59-21.53,3.79-32.51,3.57Z" fill="#bfc1c3" stroke-width="0"/><path d="M113.28,367.19c.48-3.7,1.85-7.3,3.66-10.73,3.61-6.86,9.07-12.26,15.91-15.34,8.03-3.62,16.78-5.3,25.78-3.99.95.14,1.79.5,2.18,1.31,2.6,5.38,8,7.36,12.47,10.48,1.21.84,3.45,1.21,3.22,2.87-.18,1.23-2.36,1.14-3.66,1.58-12.58,4.29-23.15,11.17-30.51,22.58-1.43,2.21-2.97,4.26-3.76,6.79-.55,1.78-1.44,2.44-3.41,1.42-7.39-3.84-14.21-8.46-20.41-14-1.44-1.28-1.43-1.46-1.47-2.99Z" fill="#bfc1c3" stroke-width="0"/><path d="M214.32,279.37c6.02-4.86,12.11-8.05,18.57-10.58,12.23-4.78,25-7.2,37.96-5.36,19.1,2.72,29.97,15.51,36.5,32.66,1.78,4.67,2.48,9.6,2.59,14.6.04,1.84,0,3.83-2.51,3.81-2.19-.02-3.21-1.39-3.36-3.66-.85-12.65-6-23.36-14.86-32.35-.15-.16-.31-.32-.47-.47-6.03-5.72-7.44-5.96-14.58-1.79-4.38,2.56-8.61,5.38-12.94,8.04-1.84,1.13-2.49,2-.07,3.37,3.27,1.85,6.16,4.28,8.94,6.81,1.34,1.22,2.21,2.65.96,4.33-1.24,1.69-2.99,1.36-4.44.37-2.54-1.74-4.84-3.86-7.42-5.54-10.01-6.49-20.91-10.69-32.71-12.71-3.77-.64-7.65-.23-12.17-1.56Z" fill="#bfc1c3" stroke-width="0"/><path d="M294.06,333.92c0,3.75-.03,7.5.01,11.24.02,1.42-.25,1.97-1.88,1.46-10.17-3.22-20.84-3.26-31.29-4.66-2.62-.35-3.6-.94-3.37-3.77.51-6.25.74-12.54.89-18.81.07-2.93,1.32-4.75,3.96-5.81,8.14-3.26,16.39-3.01,24.55-.38,4.45,1.44,7.21,6.08,7.22,10.81,0,3.31,0,6.61,0,9.92-.04,0-.08,0-.12,0Z" fill="#fcfdfd" stroke-width="0"/><path d="M269.46,420.19c12.69-.42,25.26-1.95,37.72-4.22,2.86-.52,3.87.33,4.02,2.95.07,1.21.17,2.42.2,3.63.27,11.36-.48,12.23-11.33,14.94-9.04,2.25-18.23,3.56-27.41,4.96-3.86.59-4.13.34-4.24-3.47-.11-3.86-.12-7.71-.24-11.57-.04-1.27.14-2.85-1.93-2.73-1.8.11-2.03,1.32-1.99,2.79.04,1.87-.05,3.75,0,5.62.08,2.75-1.74,2.85-3.75,2.88-2.06.03-3.16-.43-2.83-2.97.35-2.71.08-5.49.09-8.25.02-3.6.91-4.52,4.41-4.56,2.43-.03,4.85,0,7.28,0Z" fill="#bfc1c3" stroke-width="0"/><path d="M218.48,289.24c9.32.72,16.27,3.08,22.82,6.67,1.89,1.03,2.45,1.86.02,3.26-6.02,3.46-11.84,7.26-17.8,10.83-1.6.96-1.44,1.75-.15,2.62,2.1,1.41,4.3,2.69,6.42,4.08,1.9,1.25,2.3,3.13,1.11,4.88-1.25,1.85-3.07,1.28-4.66.16-10.07-7.05-21.41-10.75-33.4-12.79-1.17-.2-2.84.28-3.03-1.75-.16-1.76.17-3.22,1.75-4.33,5.16-3.62,10.55-6.86,16.35-9.34,4-1.71,7.6-4.69,10.56-4.29Z" fill="#bfc1c3" stroke-width="0"/><path d="M167.16,327.82c7.44-6.27,14.86-10.8,23.47-13.1,2.5-.67,4.97.59,7.43,1.16,7.22,1.68,14.08,4.34,20.73,7.58,1.96.96,2.61,2.03.52,3.51-5.21,3.71-10.18,7.7-14.63,12.32-2.53,2.62-4.88.98-6.96-.77-4.88-4.1-10.32-7.12-16.47-8.81-4.27-1.17-8.64-1.63-14.08-1.9Z" fill="#bfc1c3" stroke-width="0"/><path d="M303.83,350.44c7.45-.92,14.72-.05,21.88,1.98,9.08,2.57,11.9,12.51,5.46,19.61-2.9,3.19-6.62,5.03-10.73,6.18-2.3.65-2.7-.36-2.27-2.36,1.18-5.44,1.34-10.85.06-16.35-.77-3.3-2.66-5.22-5.66-6.25-2.89-1-5.83-1.87-8.75-2.8Z" fill="#bfc1c3" stroke-width="0"/><path d="M263.1,450.81c-.64-2.61,1.22-3.16,3.33-3.39,9.68-1.06,19.27-2.7,28.78-4.77.53-.12,1.21-.04,1.57-.34,1.25-1.04,2.67-1.54,3.8-.28.82.92.27,2.39-.05,3.56-.82,3.04-2.46,5.3-5.72,6.27-9.03,2.69-18.4,3.26-27.65,4.58-2.36.34-4.07-2.15-4.08-5.62Z" fill="#bfc1c3" stroke-width="0"/><path d="M295.4,175.12c9.48-.61,14.77,4.97,15.22,15.51.2,4.59-.36,5.11-4.99,4.64-.33-.03-.66-.15-.98-.13-3.11.23-4.19-.86-4.05-4.26.24-5.6-1.88-10.72-5.2-15.75Z" fill="#fcfdfd" stroke-width="0"/><path d="M358.88,179.59c-.41,9.1-1.61,17.68-3.65,26.15-.28,1.15-.21,2.53-2.15,2.07-1.75-.42-2.3-1.32-1.89-3.07,1.98-8.25,3.06-16.64,3.84-25.07.19-2.09,1.63-2.38,2.93-2.31,1.64.09.7,1.7.91,2.23Z" fill="#bfc1c3" stroke-width="0"/><path d="M106.62,161c-1.21,4.93-5.27,7.02-9.21,9.23,2.76-3.39,5.84-6.46,9.21-9.23Z" fill="#bfc1c3" stroke-width="0"/><path d="M535.97,313.83c-3.34.35-6.69.39-10.04.08,3.34-.75,6.68-.81,10.04-.08Z" fill="#bfc1c3" stroke-width="0"/><path d="M224.58,91.32c-.42,2.37-1.81,3.48-4.23,3.24,1.66-.75,2.89-2.07,4.23-3.24Z" fill="#bfc1c3" stroke-width="0"/><path d="M282.25,102.6c.02-1.97,1.05-2.95,2.97-3.07-.68,1.33-1.63,2.39-2.97,3.07Z" fill="#bfc1c3" stroke-width="0"/><path d="M388.62,242.49c.43.53.25.97-.2,1.38.07-.46.13-.92.2-1.38Z" fill="#bfc1c3" stroke-width="0"/><path d="M440.47,396.74c.25.56.25,1.07-.25,1.5-.2-.55-.21-1.06.25-1.5Z" fill="#bfc1c3" stroke-width="0"/><path d="M259.51,47.13c-.41.09-.86.17-.75-.47.03-.16.41-.26.63-.39,0,.29-.01.58,0,.87.02,0,.12,0,.12,0Z" fill="#fcfdfd" stroke-width="0"/><path d="M442.32,567.33c.6.13.9.52.98,1.12-.59-.14-.86-.56-.98-1.12Z" fill="#bfc1c3" stroke-width="0"/><path d="M219.38,94.84c-.31.11-.62.22-.92.33.31-.11.62-.22.92-.33Z" fill="#bfc1c3" stroke-width="0"/><path d="M71.19,318.45l.17.04s-.2.05-.2.05c0,0,.03-.09.03-.09Z" fill="#fcfdfd" stroke-width="0"/><path d="M94.8,173.03c-.21.21-.42.42-.63.63.21-.21.42-.42.63-.63Z" fill="#bfc1c3" stroke-width="0"/><path d="M95.44,172.35c-.2.21-.4.42-.6.63,0-.4.21-.6.6-.63Z" fill="#bfc1c3" stroke-width="0"/><path d="M96.73,170.97c-.2.22-.4.43-.59.65.2-.22.39-.43.59-.65Z" fill="#bfc1c3" stroke-width="0"/><path d="M97.36,170.29c-.2.21-.4.43-.6.64.2-.22.4-.43.6-.64Z" fill="#bfc1c3" stroke-width="0"/><path d="M280.95,103.46c.3-.17.6-.34.9-.51-.15.44-.42.66-.9.51Z" fill="#bfc1c3" stroke-width="0"/><path d="M107.34,160.4c-.23.19-.45.38-.68.57.23-.19.45-.38.68-.57Z" fill="#bfc1c3" stroke-width="0"/><path d="M108.7,159.09c-.2.21-.41.41-.61.62.2-.21.41-.41.61-.62Z" fill="#bfc1c3" stroke-width="0"/><path d="M444.64,569.78c.21.21.42.41.64.62-.21-.21-.42-.41-.64-.62Z" fill="#bfc1c3" stroke-width="0"/><path d="M445.64,570.72c.27.25.53.5.8.74-.27-.25-.53-.5-.8-.74Z" fill="#bfc1c3" stroke-width="0"/><path d="M423.65,229.85c-.33-4.18,1.53-7.95,2.5-11.83,1.64-6.57,2.6-13.28,4.46-19.79,2.67-9.35,3.95-18.96,5.6-28.51,2.66,1.16,6.53,6.93,6.43,9.61-.02.62.14,1.3-.77,1.58-3.21.99-4.37,3.68-5.13,6.57-2.65,9.98-5.15,20-7.48,30.07-.95,4.11-1.6,8.28-2.7,12.35-.97-.02-1.94-.04-2.91-.06Z" fill="#0e4c8b" stroke-width="0"/><path d="M433.28,230.02c3.57-14.09,7.14-28.18,10.73-42.26.25-.98.58-2.09,1.92-1.73,1.54.42,1.12,1.6.84,2.7-2.82,11.21-5.64,22.42-8.44,33.64-.45,1.82-.82,3.65-1.28,5.47-.26,1.02-.32,2.25-1.78,2.42-.66-.08-1.33-.16-1.99-.24Z" fill="#0e4c8b" stroke-width="0"/><path d="M562.7,466.51c-.67,7.01-1.39,14.01-1.97,21.02-.14,1.65-.71,2.57-2.33,3.1-9.63,3.17-19.48,4.65-29.62,4.35-1.67-.05-2.04-.66-1.9-2.19,1.41-14.83,2.77-29.66,4.15-44.49.67-7.25,1.34-14.5,2.01-21.75.02-.22.13-.52.03-.65-1.85-2.35-4.58-1.72-7.01-1.87-1.24-.08-3.21-1.09-3.42,1.65-.5,6.6-1.16,13.19-1.74,19.78-1.37,15.38-2.75,30.77-4.06,46.16-.16,1.89-.8,2.05-2.52,1.67-25.22-5.57-44.44-19.57-57.27-41.83-20.3-35.25-14.45-78.93,14.31-107.6,15.86-15.81,35.29-23.96,57.68-25.11,2.59-.13,3.19.63,2.96,3.13-1.67,18.24-3.25,36.49-4.77,54.74-.19,2.31-.75,3.2-3.33,2.91-9.1-1-18.22-1.8-27.35-2.5-2.28-.17-2.84-1.1-2.61-3.12.22-1.96.32-3.93.53-6.61-6.89,5.19-11.16,11.53-14.4,18.5,13.59,1.14,27.2,2.28,40.81,3.42,4.07.34,8.14.63,12.2,1.09,2.03.23,2.93-.2,3.11-2.5,1.17-14.63,2.52-29.24,3.78-43.87.64-7.37,1.27-14.73,1.77-22.11.13-1.96.76-2.29,2.62-2,21.66,3.4,39.33,13.81,53.33,30.51,22.89,27.31,26.71,68.19,9.3,99.32-7.55,13.5-17.81,24.5-30.93,32.82-2.5,1.58-3.66,1.39-4.95-1.31-2.41-5.02-5.15-9.88-7.76-14.81-.23.04-.45.09-.68.13ZM451.06,407.41c0,3.88.29,7.71.76,11.56,3.68,30.75,27.35,58.49,57.13,66.96,2.14.61,2.95.36,3.15-2.03,1.75-21,3.67-41.99,5.32-63,.25-3.14,1.48-3.6,4.12-3.3,4.49.51,9,.96,13.52,1.18,2.96.14,3.9,1.16,3.61,4.24-2.03,21.09-3.86,42.19-5.83,63.28-.19,1.98.09,2.79,2.31,2.62,5.51-.42,10.94-1.21,16.32-2.52,2.91-.71,4.11-2.08,4.35-5.11,1.5-18.92,3.21-37.81,4.74-56.73.21-2.6,1.13-3.38,3.69-3.09,7.02.78,14.05,1.37,21.09,2.01,3.69.33,3.77.39,2.57,3.93-3.88,11.49-11.05,20.48-20.9,27.41-1.2.85-2.35,1.42-1.3,3.34,2.74,5.03,5.06,10.28,7.9,15.27,1.13,1.99,1.89,2.1,3.66.79,16.13-11.9,26.72-27.57,31.59-46.95,4.19-16.67,3.42-33.14-3.15-49.22-2.64-6.45-6.03-12.45-9.63-18.4-4.54-7.51-11.25-12.76-17.78-18.2-8.27-6.88-17.84-11.18-28.31-13.61-2.28-.53-3.13-.07-3.33,2.4-1.73,21.39-3.61,42.78-5.35,64.17-.17,2.06-.91,2.66-2.87,2.42-3.28-.4-6.58-.67-9.88-.97-13.29-1.23-26.59-2.41-39.88-3.72-2.27-.22-3.07.37-3.2,2.72-.31,5.5-.82,11-1.47,16.48-.26,2.2.34,3,2.54,3.02,2.08.02,4.16.51,6.25.53,2.33.02,2.99.93,2.76,3.22-1.01,10.32-1.86,20.66-2.8,30.98-.07.8.2,1.97-.91,2.23-.95.22-1.54-.71-2.17-1.29-4.14-3.87-7.63-8.27-10.63-13.06-16.93-27.1-8.08-63.47,19.4-79.72.62-.37,1.21-1.23,2.04-.81.87.44.42,1.41.38,2.1-.25,3.52-.54,7.04-.92,10.55-.18,1.63.21,2.42,2.03,2.55,5.72.4,11.44.89,17.14,1.5,2.16.23,2.86-.47,3.04-2.63,1.19-13.96,2.49-27.92,3.84-41.86.2-2.1-.16-3.17-2.52-2.74-1.08.2-2.21.15-3.29.32-20.98,3.3-38.27,13.09-51.46,29.79-6.96,8.82-11.64,18.7-14.58,29.68-1.94,7.23-2.69,14.39-3.09,21.71ZM487.97,439.05c.51-4.75,1.18-9.28,1.45-13.84.31-5.39,1.21-4.49-4.4-5.05-1.53-.15-3.07-.47-4.6-.44-2.66.06-2.91-1.3-2.68-3.52.88-8.55,1.62-17.13,2.39-25.69.09-.98.01-1.97.01-3.55-8.03,13.92-3.5,43.38,7.83,52.09ZM564.65,448.83c4.43-2.8,7.47-6.44,10.45-10.09,1.69-2.08,3.07-4.43,4.36-6.79.47-.85,1.85-2.03-.9-2.78-3.23-.88-6.5.1-9.65-1.09-2.33-.88-3.42.35-3.08,2.89.13.94-.31,1.93-.35,2.91-.22,4.84-1.31,9.65-.83,14.96Z" fill="#0e4c8b" stroke-width="0"/><path d="M424.39,164.44c-2.58,15.38-5.43,30.66-9.18,45.76-1.27,5.13-2.95,10.16-4.2,15.3-.62,2.56-1.74,2.87-3.96,1.97-2.34-.95-4.78-1.71-7.23-2.36-2.09-.56-2.83-1.54-2.23-3.76,2.48-9.28,4.17-18.72,5.53-28.22,1.15-8.08,2.08-16.19,2.43-24.35.1-2.37.77-3.55,3.34-3.83,4.6-.49,9.15-1.36,13.73-2.09,1.3-.2,2.3-.13,1.76,1.58Z" fill="#0e4c8b" stroke-width="0"/><path d="M395.2,175.67c-1.17,14.31-3.65,28.4-6.81,42.39-.46,2.04-1.04,2.88-3.29,2-2.76-1.08-5.65-1.86-8.51-2.68-1.61-.46-2.24-1.02-1.83-2.99,2.89-13.92,5.26-27.94,6.34-42.14.12-1.64.7-2.58,2.5-2.84,3.05-.44,6.08-1.06,9.09-1.72,2.09-.46,2.88.35,2.78,2.36-.1,1.87-.17,3.74-.26,5.62Z" fill="#0e4c8b" stroke-width="0"/><path d="M451.06,407.41c.4-7.32,1.15-14.48,3.09-21.71,2.95-10.99,7.62-20.87,14.58-29.68,13.19-16.7,30.47-26.48,51.46-29.79,1.09-.17,2.21-.12,3.29-.32,2.36-.43,2.72.64,2.52,2.74-1.35,13.95-2.65,27.9-3.84,41.86-.18,2.16-.88,2.86-3.04,2.63-5.7-.6-11.42-1.09-17.14-1.5-1.82-.13-2.21-.91-2.03-2.55.38-3.51.67-7.03.92-10.55.05-.7.5-1.66-.38-2.1-.82-.42-1.41.44-2.04.81-27.49,16.24-36.34,52.61-19.4,79.72,2.99,4.79,6.49,9.19,10.63,13.06.63.59,1.21,1.52,2.17,1.29,1.11-.26.84-1.43.91-2.23.95-10.33,1.8-20.66,2.8-30.98.22-2.29-.44-3.21-2.76-3.22-2.08-.02-4.16-.51-6.25-.53-2.2-.02-2.8-.82-2.54-3.02.65-5.48,1.16-10.98,1.47-16.48.13-2.35.93-2.94,3.2-2.72,13.29,1.31,26.58,2.49,39.88,3.72,3.29.3,6.59.57,9.88.97,1.95.24,2.7-.36,2.87-2.42,1.74-21.39,3.62-42.77,5.35-64.17.2-2.48,1.05-2.93,3.33-2.4,10.47,2.42,20.04,6.73,28.31,13.61,6.54,5.44,13.24,10.69,17.78,18.2,3.6,5.95,6.99,11.94,9.63,18.4,6.57,16.08,7.33,32.55,3.15,49.22-4.86,19.38-15.46,35.05-31.59,46.95-1.77,1.31-2.52,1.2-3.66-.79-2.84-4.99-5.16-10.24-7.9-15.27-1.05-1.92.09-2.5,1.3-3.34,9.85-6.93,17.03-15.92,20.9-27.41,1.19-3.54,1.12-3.6-2.57-3.93-7.03-.63-14.07-1.22-21.09-2.01-2.56-.29-3.48.49-3.69,3.09-1.53,18.91-3.25,37.81-4.74,56.73-.24,3.04-1.44,4.41-4.35,5.11-5.38,1.31-10.81,2.09-16.32,2.52-2.22.17-2.5-.64-2.31-2.62,1.97-21.09,3.8-42.19,5.83-63.28.3-3.07-.65-4.1-3.61-4.24-4.51-.21-9.02-.66-13.52-1.18-2.64-.3-3.88.17-4.12,3.3-1.66,21.01-3.58,42-5.32,63-.2,2.39-1.01,2.64-3.15,2.03-29.78-8.47-53.45-36.21-57.13-66.96-.46-3.85-.76-7.68-.76-11.56ZM586.32,400.98s0-.07.01-.11c.55.03,1.12-.03,1.65.1,2.73.69,3.41-.41,2.66-2.9-1.24-4.09-2.15-8.3-3.75-12.24-3.98-9.85-10.38-18-18.5-24.84-.51-.43-1.12-1.06-1.65-.71-.42.27-.54,1.15-.6,1.78-.41,4.26-.61,8.54-1.17,12.77-.95,7.18-1.26,14.41-1.79,21.62-.13,1.73.59,2.29,2.23,2.44,6.98.64,13.94,1.38,20.92,2.09Z" fill="#bfc1c3" stroke-width="0"/><path d="M487.97,439.05c-11.33-8.71-15.85-38.17-7.83-52.09,0,1.58.08,2.57-.01,3.55-.77,8.57-1.5,17.14-2.39,25.69-.23,2.22.02,3.58,2.68,3.52,1.53-.03,3.06.29,4.6.44,5.61.55,4.71-.34,4.4,5.05-.27,4.56-.93,9.09-1.45,13.84Z" fill="#fcfdfd" stroke-width="0"/><path d="M564.65,448.83c-.48-5.3.61-10.11.83-14.96.04-.97.48-1.97.35-2.91-.34-2.54.75-3.77,3.08-2.89,3.16,1.19,6.42.21,9.65,1.09,2.75.75,1.37,1.92.9,2.78-1.29,2.35-2.67,4.71-4.36,6.79-2.97,3.66-6.02,7.3-10.45,10.09Z" fill="#fcfdfd" stroke-width="0"/><path d="M586.32,400.98c-6.97-.7-13.94-1.45-20.92-2.09-1.63-.15-2.35-.71-2.23-2.44.53-7.21.84-14.44,1.79-21.62.56-4.23.76-8.51,1.17-12.77.06-.63.19-1.5.6-1.78.53-.35,1.14.28,1.65.71,8.11,6.83,14.51,14.98,18.5,24.84,1.59,3.94,2.51,8.16,3.75,12.24.75,2.48.07,3.59-2.66,2.9-.52-.13-1.1-.07-1.65-.1,0,.04,0,.07-.01.11ZM571.22,371.26c-.66,7.15-1.27,13.62-1.86,20.09-.12,1.33-.38,2.69,1.7,2.8,3.85.2,7.7.52,11.55.81,1.4.1,2.07-.22,1.54-1.85-2.64-8.03-6.36-15.4-12.93-21.86Z" fill="#0e4c8b" stroke-width="0"/><path d="M571.22,371.26c6.57,6.46,10.29,13.83,12.93,21.86.54,1.63-.13,1.95-1.54,1.85-3.85-.29-7.7-.61-11.55-.81-2.09-.11-1.82-1.48-1.7-2.8.59-6.47,1.2-12.94,1.86-20.09Z" fill="#fcfdfd" stroke-width="0"/></g></svg>