<?xml version="1.0" encoding="UTF-8"?><svg id="a" xmlns="http://www.w3.org/2000/svg" viewBox="0 0 699.96 486.91"><g id="b"><path d="M596.49,126.58c3.47.2,5.49,2.92,7.73,4.92,2.86,2.56,5.64,5.49,7.52,8.8,1.46,2.56,3.26,5.18,3.53,8.44.25,2.98,3.6,3.25,5.31,5.04,2.03,2.12,4.73,3.58,7.05,5.49,4.23,3.46,8.36,7.15,13.52,9.43,3.25,1.44,6.73,3.11,6.8,7.72.02,1.66,2.08,1.8,3.16,2.34,5.65,2.82,11.71,4.91,17.18,8.02,8.55,4.87,17.33,9.76,22.31,18.82,1.19,2.16,1.25,5.1-.34,7.49-3.07,4.64-6.83,8.8-9.38,13.81-.49.96.47,1.28.44,2.08-.16,3.89.43,7.87-.2,11.66-.99,5.97-2.92,11.72-6.01,17.07-2.51,4.34-4.56,9.07-8.55,12.22-3.87,3.05-7.53,6.36-12.07,8.65-3.08,1.56-6.07,3.03-9.35,4.11-1.16.38-2.04,2.16-2.68,3.48-2.17,4.48-5.91,7.47-9.79,10.21-2.47,1.75-5.6,1.5-8.51,1.05-1.35-.21-2.16-1.74-1.32-2.66,1.95-2.16.73-5.23,2.59-7.41.62-.72.24-2.11-1.48-2.01-3.9.21-7.32,2.04-10.92,3.21-4.51,1.47-7.78,4.85-11.42,7.75-2.43,1.94-4.87,3.86-6.89,6.17-3.11,3.57-6.2,7.17-7.27,12.07-.99,4.56-2.73,8.94-2.62,13.74.03,1.34.16,1.5,1.26.96,1.95-.96,3.84-2.14,5.88-2.82,1.99-.66,3.56-.36,4.21,2.37,1.6,6.76-2.42,11.44-6.49,15.18-4.89,4.5-5.25,9.39-4.92,15.23.18,3.16,1.57,6.02,1.35,9.23-.53,7.68-5.32,11.85-12.06,13.75-3.75,1.06-7.37,4.62-7.24,8.29.13,3.69-1.3,4.98-4.4,2.82-3.61-2.52-6.12-1.9-9,.56-2.54,2.17-6.05,3.17-7.43,6.75-1.05,2.73-1.11,5.33-.09,7.98.66,1.73.96,2.97-1.64,2.96-3.52-.01-6.77-.67-9.49-3.05-1.03-.9-2.01-.14-2.28.55-.79,2.03-1.61,4.16-1.79,6.3-.24,2.86-2.08,5.4-.94,9.18-4.28-3.35-6.54-7.29-8.47-10.94-2.76-5.22-6.14-9.05-11.75-10.76-3.74-1.14-4.42-4.83-6.3-7.45-.89-1.25-.33-3.95-2.88-1.37-2.69,2.71-3.32.4-3.66-1.7-.49-3.06-1.25-5.96-2.6-8.78-.94-1.97-3.07-2.06-4.36-3.56-2.36-2.74-2.14-6.26-2.64-9.18-.68-4-3.84-4.24-5.88-6.13-.65-.6-1.63-.82-2.33-1.39-1.25-1.01-1.97-2.99-2.9.6-.61,2.35-3.02.18-4.86-.76,1.84,3.78,5.04,6.14,7.19,9.33,2.26,3.35,4.55,6.69,6.78,10.07,4.11,6.24,5.91,13.44,8.43,20.29,1.03,2.81,1.94,6.01,2.28,9.24.22,2.09,1.03,3.96-.12,6.03-.39.71.2,2.08-1.13,2.17-1.08.07-1.47-.9-1.99-1.81-3.53-6.1-8.4-11.05-14.48-14.48-2.93-1.65-3.02,2.29-3.93,3.64-4.26,6.25-9.04,11.83-15.7,15.61-.66.37-1.31.86-1.77,1.44-1.11,1.4-2.72,1.59-4.14,1.31-1.61-.32-.67-1.95-.81-2.99-.67-5.3-1.57-10.62-5.09-14.78-2.37-2.8-3.66.93-4.38,1.93-4.33,6.01-7.48,12.71-9.29,19.89-1.86,7.37-3.65,14.84-3.2,22.51.25,4.34.06,8.71.56,13,.41,3.55,1.77,6.98,2.68,10.47.17.64.53,1.52-.41,1.77-.69.18-1.73.19-2.2-.21-2.63-2.26-5.29-4.51-7.63-7.05-5.05-5.48-8.56-11.93-10.6-19.08-.76-2.67-2.18-5.06-3.37-7.37-3.13-6.05-6.07-12.29-10.71-17.49-4.96-5.57-11.08-9.33-17.65-12.63-4.45-2.23-8.64-4.96-12.98-7.41-2.41-1.36-4.87-2.62-7.31-3.92-4.97-2.64-9.84-5.52-14.96-7.85-5.18-2.36-10.12-5.19-15.4-7.39-6.08-2.54-12.46-4.08-18.52-6.61-3.51-1.46-7.52-1.23-10.96-3.1-.7-.38-.99-1.37-2.08-1.23-.85.11-1.45-.53-1.67-1.36-.26-.97.26-1.54,1.01-2.13.85-.68,2.05-1.32,1.91-2.58-.02-.21-1.81-.27-2.79-.33-5.19-.35-9.88-2.42-14.47-4.55-1.53-.71-3.49-.59-4.66-2.23-.63-.89-.84-1.22.42-1.49,6.62-1.4,12.28-4.74,16.88-9.53,2.91-3.03,4.97-6.87,7.6-10.2,3.53-4.47,6.81-9.33,11.63-12.42,3.28-2.1,6.29.23,8.69,2.72,2.49,2.59,5.92,5.15,4.6,9.19-1.19,3.64-.56,7.16-.82,10.73-.19,2.63.87,4.98,2.25,7.12.87,1.35,3.54-.1,3.94,2.32.06.34.6.63.6.94-.02,6.51,2.41,2.66,4.61,1.22,2.69-1.76,5.1-4.23,8.8-3.92,1.41.12,1.91.5,1.86,1.92-.09,2.62-.03,5.25-.03,8.41,4.87-4.44,9.91-7.68,14.57-11.44,4.94-3.99,9.45-8.21,13.23-13.29.46-.62.69-1.15.73-1.84.35-5.2,4.18-7.56,7.98-10.06,2.28-1.5,4.38-3.28,6.49-5.03.47-.39,1.09-1.51.45-1.79-.79-.35-2.15-.29-2.84.19-3.43,2.36-7.23,2.94-11.24,2.81-1.32-.04-2.86.07-3.21-1.58-.33-1.53-.21-2.72,1.87-3.54,2.8-1.1,5.28-3.06,7.85-4.71.47-.3.75-.92,1.12-1.39-.57-.15-1.14-.42-1.71-.43-2.88-.04-5.76-.01-8.64-.01-5.28,0-6.77-1.18-6.84-6.39-.07-5.26-.1-10.6.67-15.78.69-4.65,3.36-8.05,7.93-10.55,6.07-3.32,12.33-6.3,18.37-9.7,3.54-1.99,7.54-3.17,11.34-4.68,4.41-1.76,8.78-3.67,13.28-5.15,2.68-.88,5.64-1.5,8.44-.62,1.91.59,1.59,2.77,1.87,4.35.2,1.13,0,2.33.09,3.49.03.36.4.87.73.98.35.12,1.06,0,1.22-.26,2.58-4.16,5.35-8.23,7.53-12.59,1.33-2.67,3.85-3.43,5.94-4.31,6.36-2.68,11.85-6.23,15.55-12.17.36-.58.31-1.52.23-2.27-.39-3.54.1-6.64,3.26-8.97,3.67-2.71,4.98-7.09,7.06-10.89.78-1.43-.94-2.59-1.66-3.24-4.45-3.99-8.56-8.35-13.15-12.22-4.96-4.18-10.82-6.4-16.35-9.43-6.1-3.34-12.42-6.38-18.16-10.45-3.76-2.66-7.99-4.65-11.95-7.03-1.93-1.16-2.36-3.43-3.29-5.26-4.71-9.25-12.54-14.85-21.65-19.1-6.77-3.16-13.32-6.84-20.22-9.67-5.31-2.17-11.07-3.22-16.52-5.08-4.09-1.4-8.34-1-12.44-1.72-6.34-1.11-12.66-1.03-19.02-1.09-3.12-.03-5.94,1.53-9.2,1.3-8.12-.59-15.69-2.27-21.91-7.99-2.2-2.02-12.6-2.62-15.37-1.44-1.78.75-3.85,1.08-5.8,1.1-5.35.05-10.51,1.87-15.96,1.41-2.02-.17-4.77.55-6.12,1.92-3.01,3.04-.97,6.45.61,9.54.69,1.35,1.65,2.55,2.45,3.84.79,1.29-.49,1.72-1.14,1.9-6.08,1.67-12.26,3.01-18.28,4.88-4.8,1.49-9.39,3.66-14.12,5.41-5.21,1.92-9.86,5.08-15,7.04-5.03,1.92-10.1,3.8-15.37,5.18-4.71,1.23-9.36,2.9-13.96,4.68-4.82,1.87-9.52,4.01-13.87,6.61-4.67,2.8-8.59,6.69-12.26,10.95-3.84,4.44-5.76,9.62-8.26,14.62-1.12,2.24,1.34,4.09,1.13,6.34-.14,1.51.27,3.17-1.4,4.08-1.59.87-2.37-.88-3.57-1.3-1.95-.69-2.36-2.89-3.57-4.33-.27-.32-.64-.56-.97-.84-.14.33-.31.66-.4,1-2.18,8.44-8.65,12.68-15.84,16.25-2.05,1.02-4.1,1.57-6.36,1.25-.35-.05-.67-.27-1.01-.41.16-.31.27-.66.49-.91,6.09-6.82,9.61-15.16,7.1-23.73-3.39-11.6-2.37-23.16-2.63-34.77-.12-5.46,2.59-10.14,4.99-14.48-3.92-4.54-10.05-1.94-14.99-4.31-3.78-1.82-6.25-4.61-8.49-7.84-.26-.38-.12-1.29.17-1.74.43-.67.91.22,1.31.24,5.05.14,10.1,1.02,15.13-.51,2.73-.83,5.6-.52,8.44-1.8,5.61-2.52,10.47-5.75,15-9.93,5.42-5,10.57-10.56,18.24-12.96-3.17-1.83-6.43-1.9-9.59-2.37-.71-.11-1.88.37-1.97-.6-.05-.58.84-1.47,1.52-1.84,3.19-1.77,6.7-2.61,10.22-3.56,12.42-3.36,25.08-1.77,37.64-2.35,5.74-.26,11.11-2.01,16.13-5.25,2.45-1.58,5.32-3,7.87-4.47,3.11-1.79,6.34-3.56,9.36-5.57,2.72-1.82,5.76-2.5,8.81-2.58,1.9-.05,3.14-1.47,4.96-1.47.88,0,.2-.6-.03-1.08-.91-1.96-1.22-4.5.04-5.91,1.17-1.3,3.48.12,5.24.53,5.04,1.18,10.03,1.3,15.09-.07,2.76-.75,5.67-.68,8.39-1.97,4.59-2.17,9.33-3.74,13.77-6.53,7.92-4.96,15.58-10.58,24.4-13.97,5.27-2.03,10.42-4.56,16.25-4.97.29-.02,3.7.96,2.98-2.81-1.06-5.53-2.99-11.11-2.06-16.9.44-2.74,1.12-5.48,2.05-8.09.3-.83,1.65-2.21,2.77-.18,1.23,2.22,3.34,3.49,5.47,4.68.59.33,1.48.34,1.31-.57-.47-2.48,1.69-4.3,1.37-6.82-.28-2.19,1.34-3.81,3.12-4.93,1.84-1.16,1.99,1.13,2.27,1.69,3.33,6.72,9.22,8.33,16.11,8.59-1.04-1.65-1.88-3.18-2.92-4.54-.42-.55-.83-1.01-.46-1.6.41-.65,1.06-.39,1.67-.13,3.07,1.34,6.35,1.99,9.61,1.42,5.15-.91,10.26-1.9,15.32-3.44,4.32-1.31,8.64-2.74,13-4,9.35-2.71,18.89-3.26,28.54-2.95.47.02.98-.11,1.39.03,3.2,1.13,4.92.67,4.55-3.35-.16-1.78,1.69-2.81,3.11-1.77,4.96,3.63,10.74,4.43,16.47,5.88,4.89,1.24,9.68.91,14.46.75,7.02-.25,13.79,2.24,20.81,1.41.45-.05.96.39,1.45.6,2.5,1.17,5.22-.03,7.76.73,3.23.76,6.42,1.59,9.41,3.11.66.34,2.05.58,2.12-.58.35-5.84,3.95-2.56,5.79-1.76,4.94,2.15,9.74,4.65,14.62,6.95,6.62,3.12,13.21,6.57,18.27,12.25,3.37,3.79,7.19,7.17,10.68,10.86,1.44,1.53,2.53,3.39,3.75,5.07,2.6-1.18,3.23-3.92,4.24-6.38.2-.5.18-1.11.92-1.14.75-.03.67.67.97,1.07,1.32,1.78,2.17,3.86,3.33,5.66,1.7,2.62,1.78,5.42,2.57,8.17,1.08,3.76,1.06,7.46,1.09,11.23,0,1.41.22,2.86-.92,4.08,1.63-.98,3.31-1.88,4.86-2.97.85-.6,1.78-1.52,2.6-.68.88.91.84,2.59.12,3.48-.73.91-1.28,1.84-.76,2.65.94,1.46.91-.83,1.84-.67,2.09.37,3.58-.85,4.96-2.29.92-.95,1.72-.69,1.85.68.43,4.73-1.11,8.96-3.67,12.78-1.18,1.77-1.64,3.67-2.1,5.62-.14.59.2,1.36-.05,1.85-3,5.77,2.35,2,3.48,3.01.74.66,1.63-1.86,2.14-.36.46,1.37.82,3.22-.53,4.61-.16.17-.38.28-.54.44-4.62,4.57-3.94,5.74,1.94,8.92,4.33,2.34,9.01,4.73,12.23,8.61,3.42,4.12,6.1,8.83,9.23,13.2.99,1.38,2.32,2.53,3.58,3.7.3.27.97.82,1.38.1.14-.25-.09-.86-.33-1.17-2.27-2.91-3.87-6.35-6.9-8.64-.9-.68-.93-1.69-1.11-2.66.16-.15.32-.3.48-.45l-.02-.02ZM373.28,67.07c-4.16,1.69-8.03,3.96-8.62,8.81-.27,2.19,1.04,4.57,1.64,6.87,1-6.03,3.65-11,6.97-15.7.11-.06.22-.12.33-.17-.1.06-.21.13-.31.19h-.01ZM532.82,103.35c-5.25-.11-10.85.95-16.38,3.78-6.85,3.5-11.23,8.09-10.86,16.12.07,1.57-.59,2.74-1.79,3.21-3.16,1.23-6.45,2.14-9.67,3.24-6.07,2.06-12.61,8.55-6.82,16.03.62.81.92,1.44.29,2.24-.69.88-1.52,1.15-2.66.61-2.57-1.22-4.68-3.06-6.88-4.8-.45-.36-.96-.65-1.44-.97-.09.51-.28,1.03-.27,1.54.16,7.34-1.13,14.85,1.79,21.9,1.69,4.08,3.61,8.04,6.66,11.5,3.62,4.11,8.24,6.42,12.87,8.87.67.35,1.01.76.85,1.43-.09.37-.48.96-.74.96-3.11.03-6.6.88-9.24-.24-5.71-2.43-11.4-5.27-15.41-10.41-.31-.4-1.08-.45-1.63-.67-.1.27-.36.62-.27.8,1.86,3.89,3.49,7.95,6.88,10.86,3.38,2.91,6.22,6.37,8.66,10,3.13,4.66,5.36,9.92,8.33,14.7,1.92,3.09,2.51,6.55,3.36,9.87.49,1.94,1.28,5.39-.62,6.16-1.34.54-2.94-2.75-4.13-4.65-.65-1.04-2.09-2.06-3.26-2.16-1.06-.09-.83,1.77-.52,2.32,1.23,2.25-.1,4.35-.15,6.49-.07,3.15-.33,6.27-.86,9.45-1.44,8.55-6.07,15.31-10.33,22.37-4.19,6.94-8.07,13.98-8.06,22.45,0,1.75,1.1,4.41-.7,5.09-2.12.8-3-2.05-4.34-3.4-.36-.36-.55-.93-.74-1.43-.19-.47-.05-1.29-.86-1.06-.54.15-1.34.64-1.4,1.07-.83,5.61-3.94,10.71-3.62,16.59.44,8.12-.61,16.24,2.74,24.24,1.91,4.54,3.34,9.29,5.76,13.66,1.08,1.95,3.58,5.14-.68,5.96-3.61.69-6.9,0-1.8,4.06,2.76,2.2,4.81,6.07,9.38,3.15.79-.51,2.42-.29,3.39.16,4.32,2,8.74,4.04,12.22,7.29,1.63,1.52,5.42,2.46,3.05,6.65-1.22,2.16.37,5.75,2.22,7.04,2.39,1.66,4.03,3.34,5.25,5.93.57,1.22.64,4.27,3.49,2.98,3.29-1.49,4.86-.76,4.51,2.84-.48,4.85,3.04,6.7,5.98,9.16,3.25,2.72,7.32,4.54,9.38,8.59.32.64,1.04,1.07,1.58,1.6.18-.21.49-.4.51-.63.23-2.13,1.91-3.26,3.06-4.81,2.68-3.58,5.35-3.82,8-.35.39.51,1.05,1.1,1.6,1.12.86.04.48-.94.7-1.46.78-1.79,1.63-3.54,2.46-5.31,2.14-4.53,6.41-6.99,10.11-9.83,2.36-1.8,5.33-6.02,8.75-.74.51.78,1.9.37,2.06-.84.16-1.26,1.09-1.54,1.91-2.11,3.66-2.51,7.72-4.64,10.83-7.72,4.34-4.29,4.2-10.05,3.18-15.69-.13-.7.2-1.82-1.04-2.09-5.16-1.12-9.97-2.83-14.24-6.22-1.01-.81-1.89-2.1-3.23-2.54-3.22-1.05-6.55-1.83-9.66-3.13-2.18-.91-5.03-2.06-5.88-3.9-1.67-3.6-4.17-7.14-3.49-11.59.26-1.69-.4-2.9-2.29-3.95-2.13-1.18-4.47.25-6.24-1.12-3.79-2.95-5.87-7.22-5.81-11.74.08-5.71,1.89-11.38,2.07-17.1.24-7.43-.1-14.86,3.16-21.8,1.21-2.57,2.24-5.45,4.17-7.38,2.4-2.38,4.87-4.77,7.64-6.87,5.68-4.33,11.51-8.29,17.94-11.41,3.36-1.63,6.14-4.29,9.92-5.22,4.32-1.06,8.67-.49,12.99-.5,2.43,0,3.69-.4,3.22-3.12-.29-1.7.56-2.63,2.3-2.8,1.83-.18,2.07.84,1.94,2.31-.03.38.3.81.52,1.18,3.76,6.08,10.58,6.2,16.37,7.95,3.77,1.13,7.96,1.39,11.83,2.25,6.05,1.36,12.25,1.03,18.23,2.57,3.34.86,6.83,1.19,10.26,1.67,5.02.7,11.41-1.26,12.73-7.55.83-3.96.62-7.91.44-11.82-.33-7.04-2.92-13.32-8.14-18.22-2.04-1.91-4.59-3.26-6.79-5-3.54-2.8-6.04-6.56-8.97-9.93-1.63-1.87-2.62-3.96-2.99-6.38-.3-1.96.87-2.74,2.44-2.13,2.47.96,4.9,2.16,7.11,3.61,3.7,2.44,7.55,4.76,12.03,4.38,9.38-.79,17.03,2.87,24.13,8.36.72.56,1.45.46,2.19.34.74-.13.77-.94.55-1.31-1.14-1.94-.92-4.38-2.76-6.14-3.81-3.64-8.08-6.72-12.6-9.24-9.68-5.39-19.48-10.61-30.33-13.39-.38-.1-.78-.49-.97-.84-.36-.68.3-.8.71-1.16,1.37-1.21,2.32-2.58.58-4.26-3.53-3.41-8.12-3.71-12.61-4.27-.72-.09-1.69.28-1.92-.82-.24-1.09.48-1.46,1.39-1.77.69-.23,1.48-.46,1.47-1.53-.01-.92-.67-1.09-1.24-1.49-8.4-5.8-17.46-10.71-24.76-17.99-4.19-4.17-7.94-8.65-11-13.82-2.89-4.89-6.94-9.11-12.14-11.61-7.42-3.56-14.63-7.51-22.22-10.77-7.08-3.04-14.04-5.79-22.64-5.53l-.05.03ZM443.65,75.3c1.36-4.96-.93-11.44-5.7-13.66-6.22-2.88-12.77-4.8-19.99-3.51-2.08.37-1.94,2.49-3.77,2.55-4.02.13-7.83.57-11.61,2.66-4.82,2.66-10.16,9.53-10.23,15-.06,4.75-1.07,9.54.16,14.23.66,2.5.45,5.84,4.46,6.1,1.33.08,1.37,1.41,1.2,2.4-.62,3.83,1.06,7.12,2.9,10.07,5.78,9.29,13.35,16.81,23.7,20.86,1.22.48,3.21,3.52,5.01.54,1.02-1.69,2.7-3.86,2.3-5.33-.77-2.81-1.87-5.79-4.51-7.77-4.82-3.61-10.56-6.16-13.31-12.13-.93-2.03-.03-2.51,1.53-2.83.41-.08.88.24,1.33.31.42.06.9.26.93-.55.05-1.51-.87-2.04-2.08-2.65-6.82-3.44-11.79-12.73-10.97-20.29.07-.67-.04-1.65,1.1-1.11,1.2.58,2.31,1.35,3.47,2.05-.49-2.56-.59-5.11-2.4-7.42-.96-1.22-1.37-3.91,2.14-3.72,3.49.19,7,.02,10.51.05.92,0,2.19-.21,2.7.28,2.16,2.1,1.76.06,1.86-1.06.13-1.47-.53-3.39,1.65-3.8,6.79-1.27,14.67,2.47,17.63,8.74h-.01ZM380.43,46.03c-1.53.2-2.49.2-3.37.46-4.7,1.42-9.61,2.45-13.99,4.55-2.78,1.33-5.75,1.56-8.5,2.27-2.61.68-5.83,3.43-8.88.41-.2-.19-1.24.03-1.41.32-.42.76.51.76.88,1.04,2.99,2.18,3.46,4.27,1.14,5.47-1.47.76-3.22.49-4.72.93-5.75,1.66-11.43,3.59-17.12,5.47-6.9,2.27-13.92,4.3-20,8.51-.43.3-.85.6-1.28.9.13.17.23.45.39.49.6.14,1.1-.14,1.68-.33,3.62-1.18,6.7-3.98,10.59-4.09,2.3-.07,4.14-1.25,6.33-1.58,5.97-.9,11.79-3.11,17.75-3.54,4.95-.36,8.94-2.89,13.34-4.31,2.62-.85,5.75-2.17,7.9-4.84,1.85-2.3,4.44-4.22,7.07-5.62,3.88-2.05,8.02-3.61,12.18-6.51h.02ZM646.55,276.4c9.8-3.76,16.9-9.13,22.24-17.15,4.75-7.14,9.66-21.16,7.84-26.48-2.7-.21-2.39,2.55-3.82,3.8-3.12,2.74-6.3,5.82-7.23,9.94-.91,4.06-2.71,7.38-5.46,10.29-.83.88-.79,1.69-.33,2.48,2.25,3.92-1.52,11.23-6.04,12.14-2.6.53-4.56,2.47-7.19,4.96v.02ZM576.09,316.49c-1.66,1.4-3.54,1.24-5.02,2.47-3.65,3.03-8.04,4.81-12.79,5.05-5.84.29-7.53,1.74-7.22,7.51.21,3.91,2.76,6.69,6.14,7.64,1.67.47,4.49-.72,6.08-2.59,2.84-3.32,6.9-5.64,8.62-9.84,1.34-3.28,4.11-6,4.19-10.25h0ZM577.2,335.59c-4.39,0-9.63,1.88-12.46,4.36-.69.61-.92,1.54-.53,2.57,2.64,6.86,11.92,8.88,16.9,3.56,3.55-3.8,8.45-6.52,9.85-12.1.12-.48,1.18-.75.63-1.48-.44-.57-1.11-.23-1.72-.06-4.4,1.25-8.54,3.61-12.67,3.15h0ZM603.32,279.89c1.51-1.21,2.55-1.81,3.28-2.68,2.95-3.51,5.26-7.41,7.36-11.5,1.66-3.24,3.51-6.37,2.85-10.14-.39-2.27-2.7-3.49-4.33-3.01-2.83.82-4.81,3.06-6.15,5.98-1.3,2.82-.91,5.95-1.94,8.58-1.63,4.15-.31,8.12-1.08,12.78h.01ZM430.32,362.82c-3.84,7.46-2.89,15.6-3.01,23.64-.12,8.01-5.11,14.91-5.37,22.94,2.89-7.73,7.87-14.45,10.42-22.21,1.55-4.71.17-23.2-2.05-24.37h0ZM643.07,271.98c.2-2.99-1.95-4.86-3.57-4.86-1.78,0-4.09,1.13-5.14,3.61-1.39,3.29-1.12,6.9-2.65,10.2-1.24,2.66-1.4,5.83-1.91,8.79-.08.49-.54,2.34,1.04,1.37,7.25-4.45,10.39-11.59,12.23-19.12h0ZM579.42,330.64c1.67-6.55,2.03-13.27,4.58-19.66,1.87-4.67,4.65-8.61,7.65-12.37,4.09-5.12,10.01-8.12,15.53-11.44,5.75-3.45,12.02-5.77,18.62-7.07,1.06-.21,1.49-.73,1.49-1.71,0-1.2-.95-1.06-1.69-1.04-3.66.09-6.97,1.72-10.07,3.2-6.22,2.98-12.25,6.33-17.74,10.73-5.47,4.39-10.01,9.31-13.59,15.29-2.11,3.53-3.11,7.37-4.29,11.21-1.32,4.29-1.28,8.53-.49,12.86h0ZM454.63,371.16c-2.63-5.59-4.86-10.05-6.86-14.62-2.65-6.08-5.82-12.06-4.88-19.08.05-.38.07-.82-.07-1.15-.11-.27-.47-.53-.76-.6-.15-.04-.62.38-.59.52.44,1.98-1.26,3.43-1.28,5.27-.07,7.02-.89,14.22,4.2,20.15,2.79,3.25,5.69,6.41,10.23,9.51h0ZM534.8,301.37c0,2.75-.26,5.54.06,8.25.5,4.2,4.47,5.64,7.34,7.59,1.75,1.19,2.78,3.44,5.29,3.72,1.68.19,2.91-.71,4.36-1.06.12-.03.25-.82.09-1.07-.88-1.33-2.27-.43-3.41-.66-.52-.11-1.1-.09-1.63,0-2.95.49-4.04-.81-3.59-3.65.31-1.94-.65-2.37-2.4-2.31-.96.04-2.75.84-2.73-1.06.03-2.49-.91-5.14,1.1-7.48-1.88-.22-3.85.17-4.46-2.26h-.02ZM627.11,264.52c1.25-3.65-2.45-3.53-3.81-5.15-.27-.32-1.75.28-1.74,1.56,0,.94.12,1.96,1.29,1.61,2.08-.62,3.03.79,4.27,1.98h-.01Z" fill="#014f9e" stroke-width="0"/><path d="M86.03,242.25c1.14-.9,2.28-.83,3.31-.69,6.07.85,12.01-.77,17.92-1.45,4.66-.54,9.07-3.17,13.19-5.95,2.6-1.76,4.61-4.01,6.95-5.98.92-.77,1.91-.71,2.85-.4,3.61,1.18,10.23-.47,12.45-3.44,2.47-3.32,1.64-7.57.74-10.71-1.04-3.64.58-5.7,1.87-8.19,4.6-8.92,12.46-14.43,21.16-18.43,6.54-3.01,13.74-4.59,20.63-6.85,6.58-2.16,12.99-4.71,19.34-7.52,8.36-3.7,16.53-7.75,25.54-10.12,5.23-1.38,10.69-2.58,15.81-4.69,1.59-.65,3.51-.63,5.29-.65,3.78-.04,6.84-2.74,10.67-2.7.95,0,.71-.99,0-1.7-3.24-3.19-6.41-6.44-9.63-9.65-.41-.41-1.29-.62-.84-1.37.2-.34.92-.45,1.42-.51,5.34-.63,10.7-1.11,16.02-1.9,1.77-.26,3.42-1.04,5.3-1.27,5.13-.62,8.17,3.14,11.98,5.21,3.76,2.04,7.81,2.75,11.83,3.85,4.15,1.14,8.26,1.2,12.4,1.05,3.8-.13,7.45-1.63,11.37-1.24,7.33.74,14.83.59,21.99,2.07,5.15,1.06,10.32,2.83,15.3,5,5.62,2.45,11.32,4.72,16.81,7.43,5.64,2.78,11.31,5.52,16.08,9.76,2.79,2.49,5.03,5.61,6.43,8.83,1.65,3.82,4.06,6.73,7.35,8.64,4.86,2.83,9.44,6.09,14.26,8.92,6.7,3.93,13.82,7.16,20.88,10.45,6.19,2.89,11.03,7.45,15.67,12.21,1.14,1.17,4.06,2.11,3.07,3.81-1.48,2.52-3.64,4.96-6.37,6.36-2.17,1.12-4.01,1.41-2.42,4.81,2.11,4.53-1.31,9.94-6.78,12.11-3.2,1.27-6.01,3.45-9.61,3.84-.82.09-1.99,1.09-2.21,1.89-1.19,4.29-4.37,3.37-7.41,3.18-4.64-.29-8.77,1.57-13.08,2.98-4.11,1.35-8.08,3-12.08,4.58-5.57,2.2-11.22,4.36-16.45,7.22-7.5,4.11-15.8,7.37-21.19,14.33-2.12,2.73-3,6.8-3.44,10.38-.82,6.76-1.38,13.65-.07,20.41.58,3,1.93,5.9,4.65,7.84.44.32.94,1.02.89,1.48-.45,4.18,1.94,7.17,3.9,10.48,1.31,2.23-.96,4.25-1.76,6.28-1.59,4-5.62,5.74-8.51,8.53-.41.4-1.29.42-1.96.43-3.5.05-7.01.08-10.51.03-2.76-.04-5.36,0-7.97,1.41-2.35,1.26-3.9.3-4-2.71-.11-3.46.47-6.62,2.12-9.72,1.7-3.18-1.23-5.5-2.71-7.38-1.76-2.23-3.33-4.69-5.37-6.81-4.91-5.1-10.79-6.55-17.32-5.52-2.02.32-4.01,2.27-5.54,3.91-3.48,3.71-6.86,7.48-9.89,11.65-3.19,4.39-6.02,9.36-10.56,12.52-3,2.09-6.17,4.36-10.19,4.52-1.41.06-2.79.73-4.21,1.01-.49.1-1.27.03-1.52-.28-.46-.58.3-.93.66-1.26,5.37-4.82,8.93-10.8,11.26-17.55.45-1.3.84-2.71.81-4.06-.11-5.21,2.36-9.95,2.52-15.14.24-7.75,1.91-15.61-2.72-22.76-.08-.13-.18-.26-.26-.39-.71-1.24-3.51-1.53-2.38-3.33.77-1.24,3.05-.37,4.65-.38,6.07-.05,6.06-.01,6.65-5.88.61-6.07,2.54-11.89,3.06-18.03.74-8.71-3.69-18.94-12.42-21.94-3.21-1.1-6.38-1.4-9.66-1.41-9.81-.02-19.64-.3-29.44.05-27.16.99-54.32.12-81.47.45-1.1,0-2.37-.31-2.88,1.28-.25.8-.97.67-1.52.2-2.18-1.9-4.92-1.92-7.5-1.94-11.29-.11-22.61-.5-33.87.09-9.7.51-19.37-.09-29.27.4l-.06.02Z" fill="#fefefe" stroke-width="0"/><path d="M194.68,284.75c1.03-7.93,2.95-14.47,3.52-21.3.28-3.35,1.46-6.8,2.07-10.24.27-1.54.98-2.29,2.63-2.28,6.85.04,13.7,0,20.55.02,1.11,0,2.21-.26,1.1,1.71-.85,1.49-.72,3.58-.85,5.42-.45,6.42-2.21,12.64-3.05,19.01-.72,5.46-2.02,10.9-2.97,16.38-.99,5.64-1.91,11.29-2.9,16.91-.91,5.15-1.79,10.35-2.86,15.47-1.15,5.5-2.25,10.95-2.9,16.55-.32,2.72-1.1,5.55-5.59,5.05-5.92-.65-11.97-.23-17.96-.14-1.97.03-2.56-.53-2.69-2.61-.4-6.64-.66-13.37-1.52-19.89-.68-5.16-.06-10.33-1.07-15.38-1.45,5.8-2.43,11.68-3.32,17.6-.79,5.25-2.36,10.38-2.86,15.74-.23,2.44-.94,4.92-4.85,4.63-6.19-.46-12.45-.15-18.67-.12-1.35,0-2.65-.26-2-1.86,1.52-3.74,2.22-7.62,2.49-11.6.46-6.66,2.41-13.09,3.45-19.66.99-6.3,1.97-12.72,3.65-18.95,1-3.71,1.29-7.6,1.94-11.4.77-4.49,1.56-8.99,2.4-13.47,1.11-5.91,2.34-11.79,3.4-17.71.23-1.29.76-1.66,1.97-1.66,7.55.02,15.1,0,22.65-.02,1.26,0,1.86.4,1.75,1.77-.6,7.53,1.75,14.85,1.49,22.43-.09,2.6.87,5.59,1.03,9.61h-.03Z" fill="#014f9e" stroke-width="0"/><path d="M114.65,348.43h-14.25c-7.03,0-8.63-1.48-11.09-8-2.34-6.19-.24-11.84,1.06-17.67.37-1.65.43-3.37.64-5.06.61-4.75.67-9.66,1.98-14.21,1.8-6.22,2.16-12.67,3.81-18.9,1.08-4.07,1.26-8.37,2.02-12.54,1.5-8.16,3.65-16.03,11.64-20.5,1.66-.93,3.55-1.36,5.5-1.36,10.74,0,21.49-.02,32.23,0,6.02,0,9.86,4.19,10.3,10.18.24,3.19.35,6.5-.31,9.4-1.05,4.62-1.04,9.39-2.57,13.96-1.23,3.68-1.46,7.75-1.82,11.67-.59,6.4-2.47,12.55-3.27,18.94-.62,4.96-1.48,10.07-2.78,14.92-1.67,6.22-3.53,12.77-8.98,16.95-1.89,1.45-4.82,1.98-7.31,2.12-5.59.3-11.2.09-16.81.09h.01ZM130.37,276.54c-.71-.78.65-2.4-1.17-2.78-1.52-.31-2.79-.05-3.48,1.71-1.82,4.64-2.6,9.66-3.22,14.4-.84,6.44-2.55,12.69-3.29,19.13-.45,3.91-.73,7.97-2.08,11.58-.78,2.09-.83,3.34.82,4.13,1.92.92,3.3-.4,3.73-2.27.91-3.91,2.21-7.87,2.56-11.74.61-6.7,2.7-13.07,3.37-19.69.49-4.86,1.76-9.56,2.76-14.47Z" fill="#014f9e" stroke-width="0"/><path d="M256.41,278.4c-.81-1.51,1.39-4.84-2.16-4.54-2.74.23-2.34,2.98-2.48,5.1-.12,1.84.74,2.61,2.26,3.51,2.57,1.53,4.88,3.49,7.42,5.16,4.54,2.98,8.66,6.58,12.99,9.87,1.45,1.1,2.29,2.57,2.29,4.3,0,6.51.33,12.97-1.3,19.48-.85,3.41-1.14,7.19-2.21,10.53-2.21,6.86-4.21,13.95-13.21,15.82-3.56.74-6.93.62-10.37.73-7.31.25-14.65-.21-21.95.15-8.17.4-13.54-5.38-13.02-12.93.38-5.59,1.06-11.12,2.19-16.55.38-1.81.91-3.6.97-5.48.05-1.51.89-2,2.28-2,7.55.01,15.12-.26,22.66.11,3.88.19,1.94,3.72,1.68,5.46-.34,2.26-.25,4.48-.24,6.7,0,1.93,1.79,1.38,2.58.81,2.59-1.88,3.91-11.41,1.68-13.69-1.87-1.91-4.41-3.15-6.64-4.72-4.06-2.85-8.18-5.63-12.28-8.38-7.13-4.79-5.91-11.41-5.54-18.25.3-5.42,2.05-10.49,3.16-15.69,1.45-6.8,8.05-13.69,16.28-13.69,10.12,0,20.26-.31,30.37.08,9.26.36,12.25,7.05,11.47,14.76-.35,3.51-.9,7-1.49,10.47-.25,1.46-.84,2.86-1.28,4.28-7.82-.05-15.63-.13-23.45-.09-1.22,0-2.01-.36-2.65-1.3h-.01Z" fill="#014f9e" stroke-width="0"/><path d="M40.02,324.95c4.39,0,8.67.24,12.9-.07,3.58-.26,3.03,1.95,2.55,3.81-1.17,4.58-2.44,9.14-2.63,13.87-.13,3.2-1.17,4.84-4.76,4.79-12.07-.16-24.14-.1-36.22-.07-2.62,0-2.54-.83-1.83-3.12,1.19-3.84,1.68-7.91,2.42-11.89,1.29-6.94,2.49-13.9,3.84-20.83.73-3.77,1.42-7.6,2.02-11.42.76-4.86,1.69-9.7,2.52-14.55.52-3.06.45-6.33,1.58-9.13,1.72-4.29,1.11-8.88,2.49-13.25,1.02-3.25,1.7-6.87,2.06-10.39.15-1.44.83-1.76,2.13-1.75,7.48.04,14.95.02,22.43.03.73,0,2-.15,1.73.91-.67,2.63.02,5.38-1.17,8.02-.96,2.12-1.39,4.6-1.54,6.96-.32,5.16-1.41,10.13-2.82,15.08-.5,1.75-.61,3.64-.76,5.47-.53,6.43-2.4,12.63-3.18,19.04-.66,5.41-2.59,10.68-2.72,16.24-.02.66-.58,1.31-1.03,2.27v-.02Z" fill="#014f9e" stroke-width="0"/><path d="M68.41,347.28c-2.88,0-5.76-.01-8.64,0-4.78.02-4.77-.23-4.17-5.07.86-6.9,2.79-13.58,3.7-20.49.75-5.7,1.96-11.4,2.89-17.12.88-5.4,1.48-10.98,2.95-16.12,1.7-5.94,2.22-12.01,3.49-17.96.89-4.14,2.32-8.31,2.23-12.71-.04-2,.62-4.03,1.06-6.03.23-1.05,1.21-.81,1.94-.81,7.47-.02,14.94-.11,22.41.03,3.67.06,2.07,3.16,1.72,4.51-1.17,4.55-2.04,9.13-2.66,13.77-.83,6.28-2.43,12.42-3.21,18.73-.42,3.39-.51,7.05-1.57,10.25-1.91,5.79-1.94,11.89-3.7,17.69-1.15,3.79-1.67,7.85-1.87,11.82-.26,5.01-2.86,9.57-2.62,14.6.26,5.47-3.21,5.2-6.95,4.94-2.32-.16-4.67-.03-7-.03h0Z" fill="#014f9e" stroke-width="0"/><path d="M53.07,300.25c-.24-2.35,2.19-4.04,1.58-6.42-.03-.14.35-.38.54-.57.19.3.51.58.56.9.49,2.89-1.93,5.31-1.39,8.24,0,.04-.45.17-.69.25-.2-.8-.41-1.6-.61-2.4h0Z" fill="#fefefe" stroke-width="0"/><path d="M256.41,278.4c.64.93,1.43,1.3,2.65,1.3,7.82-.03,15.63.05,23.45.09-2.86.95-5.81.32-8.71.39-5.36.12-10.74-.03-16.1.07-1.66.03-1.86-.53-1.29-1.85Z" fill="#464765" stroke-width="0"/><path d="M55.59,291.15c.26-2.97.52-5.93.85-9.61,2.39,3.87-.92,6.61-.85,9.61Z" fill="#fefefe" stroke-width="0"/><path d="M60.16,265.17c1.44,3.55-1.53,6.59-1.06,9.87,0-2.51-.05-5.16.03-7.81.02-.75-.15-1.81,1.06-2.03l-.03-.03Z" fill="#fefefe" stroke-width="0"/><path d="M60.19,265.2c.02-.76-.03-1.54.09-2.29.17-1.07-.57-2.3.55-3.18.03-.03.67.51.63.63-.61,1.56,1.6,3.9-1.3,4.81l.03.03Z" fill="#fefefe" stroke-width="0"/><path d="M58.77,279.05c-.29.75.37,2.14-.75,2.1-.92-.03-.6-1.43-.59-2.21,0-.77-.37-2.21.58-2.19,1.26.04.41,1.52.77,2.29h-.01Z" fill="#fefefe" stroke-width="0"/><path d="M52.27,309.36c.43,1.22.76,2.44-.1,4-.78-1.63-.55-2.82.1-4Z" fill="#fefefe" stroke-width="0"/><path d="M484.97,18.24c-2.54-.77-5.26.44-7.76-.73,2.58.36,5.31-.99,7.76.73Z" fill="#464765" stroke-width="0"/><path d="M62.93,249.17c.22,2.21.53,3.39-.47,5.16-.53-1.88-.73-3.11.47-5.16Z" fill="#fefefe" stroke-width="0"/><path d="M64.21,249.73c-1.18-2.27-.93-3.38-.57-4.92,1.15,1.47.63,2.61.57,4.92Z" fill="#fefefe" stroke-width="0"/><path d="M52.85,308.12v-3.13h.14v3.13h-.14Z" fill="#fefefe" stroke-width="0"/><path d="M596.01,127.03c-.42-.28-1.11-.33-1.03-1.06.02-.15.3-.35.49-.38.74-.11.9.43,1.02.99-.16.15-.32.3-.48.45Z" fill="#014f9e" stroke-width="0"/><path d="M532.82,103.35c8.59-.26,15.55,2.49,22.64,5.53,7.59,3.25,14.81,7.21,22.22,10.77,5.2,2.5,9.25,6.72,12.14,11.61,3.06,5.17,6.81,9.65,11,13.82,7.31,7.28,16.37,12.18,24.76,17.99.57.39,1.22.57,1.24,1.49.02,1.08-.78,1.3-1.47,1.53-.91.3-1.63.68-1.39,1.77.24,1.09,1.2.73,1.92.82,4.5.56,9.08.85,12.61,4.27,1.74,1.68.78,3.05-.58,4.26-.4.36-1.06.48-.71,1.16.19.36.59.75.97.84,10.85,2.78,20.66,8,30.33,13.39,4.53,2.52,8.79,5.6,12.6,9.24,1.84,1.76,1.62,4.2,2.76,6.14.22.37.19,1.19-.55,1.31s-1.47.22-2.19-.34c-7.1-5.48-14.75-9.15-24.13-8.36-4.48.38-8.33-1.94-12.03-4.38-2.21-1.46-4.64-2.65-7.11-3.61-1.57-.61-2.74.17-2.44,2.13.37,2.41,1.36,4.5,2.99,6.38,2.93,3.37,5.43,7.13,8.97,9.93,2.21,1.74,4.76,3.09,6.79,5,5.22,4.89,7.81,11.18,8.14,18.22.18,3.91.4,7.86-.44,11.82-1.32,6.29-7.71,8.25-12.73,7.55-3.43-.48-6.92-.81-10.26-1.67-5.99-1.54-12.19-1.21-18.23-2.57-3.86-.87-8.06-1.12-11.83-2.25-5.79-1.74-12.61-1.87-16.37-7.95-.23-.37-.56-.8-.52-1.18.13-1.47-.11-2.49-1.94-2.31-1.74.17-2.59,1.1-2.3,2.8.46,2.72-.79,3.12-3.22,3.12-4.32,0-8.67-.57-12.99.5-3.78.93-6.56,3.59-9.92,5.22-6.43,3.12-12.26,7.08-17.94,11.41-2.76,2.11-5.24,4.49-7.64,6.87-1.93,1.92-2.96,4.81-4.17,7.38-3.26,6.93-2.92,14.37-3.16,21.8-.18,5.72-2,11.39-2.07,17.1-.06,4.51,2.01,8.79,5.81,11.74,1.77,1.38,4.11-.06,6.24,1.12,1.89,1.04,2.54,2.26,2.29,3.95-.67,4.44,1.83,7.99,3.49,11.59.85,1.83,3.7,2.98,5.88,3.9,3.11,1.3,6.44,2.08,9.66,3.13,1.34.44,2.21,1.73,3.23,2.54,4.27,3.39,9.08,5.1,14.24,6.22,1.24.27.92,1.39,1.04,2.09,1.02,5.64,1.16,11.41-3.18,15.69-3.12,3.08-7.17,5.21-10.83,7.72-.82.56-1.75.84-1.91,2.11-.16,1.22-1.55,1.62-2.06.84-3.43-5.28-6.39-1.06-8.75.74-3.71,2.84-7.98,5.3-10.11,9.83-.83,1.76-1.68,3.52-2.46,5.31-.22.51.16,1.49-.7,1.46-.56-.02-1.21-.61-1.6-1.12-2.64-3.47-5.32-3.23-8,.35-1.16,1.55-2.83,2.68-3.06,4.81-.02.23-.33.42-.51.63-.54-.53-1.26-.96-1.58-1.6-2.05-4.05-6.13-5.87-9.38-8.59-2.94-2.46-6.45-4.31-5.98-9.16.35-3.6-1.21-4.33-4.51-2.84-2.85,1.29-2.92-1.75-3.49-2.98-1.22-2.6-2.86-4.27-5.25-5.93-1.85-1.29-3.44-4.88-2.22-7.04,2.37-4.19-1.42-5.13-3.05-6.65-3.48-3.25-7.9-5.28-12.22-7.29-.97-.45-2.6-.67-3.39-.16-4.58,2.92-6.62-.96-9.38-3.15-5.1-4.06-1.81-3.36,1.8-4.06,4.26-.82,1.77-4.01.68-5.96-2.42-4.38-3.85-9.12-5.76-13.66-3.36-8-2.3-16.12-2.74-24.24-.32-5.88,2.79-10.98,3.62-16.59.06-.43.86-.92,1.4-1.07.81-.23.67.6.86,1.06.2.5.38,1.07.74,1.43,1.34,1.35,2.22,4.2,4.34,3.4,1.8-.68.7-3.34.7-5.09,0-8.48,3.86-15.51,8.06-22.45,4.27-7.06,8.89-13.82,10.33-22.37.54-3.18.79-6.31.86-9.45.05-2.14,1.38-4.24.15-6.49-.3-.55-.53-2.41.52-2.32,1.16.1,2.61,1.12,3.26,2.16,1.19,1.9,2.79,5.19,4.13,4.65,1.9-.77,1.11-4.23.62-6.16-.85-3.33-1.44-6.79-3.36-9.87-2.97-4.78-5.21-10.04-8.33-14.7-2.44-3.63-5.27-7.09-8.66-10-3.38-2.91-5.01-6.97-6.88-10.86-.09-.18.17-.53.27-.8.55.21,1.32.26,1.63.67,4.01,5.14,9.7,7.98,15.41,10.41,2.64,1.13,6.14.28,9.24.24.26,0,.65-.59.74-.96.17-.67-.18-1.08-.85-1.43-4.63-2.44-9.24-4.76-12.87-8.87-3.05-3.46-4.97-7.41-6.66-11.5-2.91-7.05-1.63-14.56-1.79-21.9-.01-.51.17-1.03.27-1.54.48.32.99.61,1.44.97,2.19,1.74,4.31,3.58,6.88,4.8,1.13.54,1.97.27,2.66-.61.62-.8.33-1.43-.29-2.24-5.79-7.48.74-13.96,6.82-16.03,3.22-1.09,6.51-2,9.67-3.24,1.2-.47,1.86-1.64,1.79-3.21-.37-8.03,4.01-12.62,10.86-16.12,5.53-2.83,11.13-3.89,16.38-3.78l.05-.03ZM480.23,307.66c-.97,6.33-.26,12.69-.35,19.04v1.74c0,1.19-.51,2.42.29,3.54,1.16.99.4,2.36.7,3.52.31,1.23,1.04,2.07,2.26,2.31.67.13.92-.49.9-1.08-.29-6.31.95-12.27,3.99-17.83,2.27-4.14,4.08-8.66,7-12.28,2.74-3.4,3.81-5.87,2.65-10.61-1.44-5.93-1.5-12.43-.64-18.72.94-6.82,2.17-13.62,2.56-20.47.35-6.1,3.31-11.43,4.12-17.36.15-1.07,1.16-2.38.15-3.06-1.41-.94-2.06.95-2.39,1.68-1.92,4.14-3.59,8.4-5.32,12.61-2.41,5.87-3.44,11.99-4.66,18.08-1.05,5.27-.64,10.83-3.48,16.35,0-5.05.01-9.48,0-13.91,0-.89.45-2.17-.53-2.48-.45-.14-1.61,1.01-2,1.8-.72,1.46-1.52,3.08-1.57,4.65-.21,6.88.28,13.78-1.25,20.58-.89,3.94-1.62,7.91-2.42,11.87v.03ZM611.81,178.32c1.12-.17,1.56-.21,1.99-.31,1.18-.27,3.24.79,3.36-.63.1-1.29-1.77-2.35-3.35-2.75-.52-.13-1.11-.35-1.59-.22-2.16.59-3.68-1.11-5.52-1.59-1.61-.42-2.76-2.21-.43-3.89,1.46-1.06.84-2.72.59-4.13-.23-1.27-1.29-1.42-2.48-1.59-2.51-.34-4.84-1.3-7.11-2.51-.98-.52-2.76-1.31-3.58-.28-.93,1.17-.11,2.33,1.41,2.96,1.23.51.89,1.92.85,2.88-.18,4.29-4.59,4.06-6.82,4.9-5.93,2.23-11.62,4.8-17.03,8-3.28,1.94-6.67,3.98-8.18,7.83-.2.5-.02,1.21.18,1.76.06.15.94.26,1.19.06,3.19-2.53,6.62-4.4,10.48-5.96,7.15-2.89,14.4-4.54,22.03-4.81.51-.02,1.26-.09,1.29.61.02.45-.42,1.29-.73,1.32-3.29.39-5.4,3.33-8.6,3.89-1.14.2-2.24.99-1.93,2.14.38,1.38,1.78.87,2.75.57,2.84-.86,5.2-2.89,8.4-3.03,3.44-.15,7.03-1.72,10.25-1.1,3.35.65,7.05,1.42,9.94,3.83.55.46,1.72,1.08,2.24.05.46-.92-.17-1.76-.97-2.57-2.29-2.33-5.29-3.46-8.64-5.43h.01ZM579.05,143.72c0-1.47.04-2.17-.01-2.87-.06-.81.44-1.87-.47-2.36-1.24-.67-1.19.82-1.73,1.32-.98.9-1.97,1.32-3.41,1.41-7.17.43-14.14-2.13-21.33-1.29-3.34.39-5.83,2.22-8,4.55-.38.42-.37,1.69-.01,2.2.68.97,1-.2,1.5-.51.7-.44,1.28-.09,1.25.72-.09,2.48,1.09,2.15,2.8,1.52,3.04-1.12,6.27-2.44,8.07,1.9,1.23,2.98,3.43,5,6.29,6.3,2.97,1.35,6.5,3.46,9.3,1.93,5.21-2.86,7.61.38,10.52,3.31.59.6,1.21,1.17,1.77,1.79.46.51.82,1.28,1.67.81.85-.48.5-1.38.51-2.12.03-3.08-1.99-5.4-3.83-7.2-3.57-3.47-6.46-6.83-4.87-11.42h-.02ZM503.89,367.82c.46,3.3,2.5,5.53,3.97,7.99.65,1.09,2.08,2.77,3.58,1.49,1.29-1.1-.24-2.57-.66-3.85-.57-1.75-1.44-3.45-1.76-5.24-.75-4.11-.97-8.33-1.92-12.39-1.02-4.33-2.12-8.66-4.26-12.68-.69-1.3.24-3.43-.4-4.78-1.47-3.11-1.45-5.96-.07-9.03.56-1.24.86-3.05-.26-3.9-.64-.49-1.8.99-2.48,1.84-1.23,1.53-2.25,3.1-2.87,5.08-.92,2.98-2.41,5.76-3.44,8.75-1.38,4.01-2.43,7.99-1.75,12.16.18,1.08.62,3.45,3.17,2.4.83-.34,1.78.32,1.82,1.27.14,3.5,1.37,6.63,3.17,9.53.86,1.38,1.73,3.58,4.16,1.37h0ZM562.62,212.9c.41-1.51-.81-1.92-1.46-2.56-.79-.77-1.24.23-1.87.59-4.65,2.6-8.64,6.11-12.81,9.35-2.28,1.77-4.35,3.86-6.13,6.25-3.21,4.29-6.88,8.24-10.02,12.57-1.94,2.67-4.21,5.33-4.47,8.91-.04.52-.19,1.18.54,1.33.59.13.94-.27,1.26-.79.9-1.46,1.73-3.01,2.88-4.26,3.26-3.52,6.86-6.73,9.95-10.38,4.45-5.26,10.37-8.74,16.17-11.74,4.53-2.35,4.57-6,5.97-9.26h0ZM531.77,357.37c2.84.62,3.7-1.83,5.2-3.16.54-.47.4-.99-.36-1.17-2.03-.47-3.66-1.48-5.47-2.6-6.01-3.72-8.95-9.24-11.07-15.51-1.03-3.04-1.82-6.16-2.99-9.13-.33-.86-.85-2.51-2.11-2.2-1.24.31-.8,1.83-.83,2.89-.23,8.88,4.49,16.09,8.02,23.71,1.96,4.22,5.54,6,9.61,7.17h0ZM523.37,266.38c.42,1.27-.46,2.6.96,3.16.6.24,1.2,0,1.49-.73,2.03-5.16,5.05-9.69,8.5-14.01,1.21-1.51,1.35-3.61.64-5.56-.24-.64-.44-1.23-1.49-.72-2.83,1.35-5.41,3.56-6.68,5.92-1.95,3.64-2.39,8.09-3.41,11.94h-.01ZM530.44,227.13c.12,1.24-.23,2.19.56,2.44.9.29.91-.81,1.31-1.3.24-.29.56-.5.83-.76,3.83-3.71,7.79-7.23,12.27-10.19,1.4-.92,2.4-3.09,1.27-4.44-1.15-1.37-2.94-.46-4.54.53-4.06,2.5-6.82,6.23-9.58,9.88-.87,1.16-2.21,2.57-2.12,3.83h0ZM568.74,166.33c.27-.06,1.24-.36,2.22-.44,1.35-.1,1.7-.8,1.59-2.01-.15-1.59-1.15-.59-1.85-.71-1.75-.31-3.56-.35-4.97-1.89-2.4-2.62-5.09-4.97-7.48-7.59-.82-.89-1.7-1.16-2.34-.52-.69.68-.58,1.76.18,2.69.74.9,1.44,1.93,1.81,3.02,1.46,4.29,5.63,7.44,10.84,7.43v.02ZM543.77,382.11c-5.98.44-9.34,3.37-9.22,10.07.01.75-.54,2.1.5,2.14.84.03,1.88-.7,2.5-1.78,1.61-2.81,3.55-5.16,6.85-6.43,1.13-.44,3.9.09,3.55-2.13-.29-1.86-2.39-2.07-4.17-1.87h-.01Z" fill="#fdbb2e" stroke-width="0"/><path d="M443.65,75.3c-2.96-6.27-10.83-10.01-17.63-8.74-2.19.41-1.52,2.32-1.65,3.8-.1,1.12.3,3.16-1.86,1.06-.51-.5-1.78-.28-2.7-.28-3.5-.02-7.01.14-10.51-.05-3.51-.19-3.09,2.5-2.14,3.72,1.81,2.32,1.91,4.86,2.4,7.42-1.17-.7-2.27-1.48-3.47-2.05-1.14-.55-1.03.44-1.1,1.11-.82,7.56,4.15,16.85,10.97,20.29,1.21.61,2.13,1.13,2.08,2.65-.03.81-.51.61-.93.55-.45-.07-.93-.39-1.33-.31-1.57.32-2.47.8-1.53,2.83,2.75,5.97,8.49,8.53,13.31,12.13,2.64,1.98,3.74,4.96,4.51,7.77.4,1.47-1.28,3.64-2.3,5.33-1.8,2.98-3.79-.06-5.01-.54-10.35-4.04-17.92-11.57-23.7-20.86-1.84-2.95-3.52-6.24-2.9-10.07.16-.99.12-2.32-1.2-2.4-4.01-.25-3.81-3.6-4.46-6.1-1.23-4.69-.22-9.48-.16-14.23.07-5.47,5.41-12.34,10.23-15,3.79-2.09,7.6-2.53,11.61-2.66,1.84-.06,1.69-2.17,3.77-2.55,7.23-1.29,13.77.63,19.99,3.51,4.78,2.21,7.06,8.7,5.7,13.66h.01Z" fill="#fdbb2e" stroke-width="0"/><path d="M380.43,46.03c-4.17,2.9-8.3,4.46-12.18,6.51-2.63,1.39-5.23,3.32-7.07,5.62-2.15,2.67-5.28,4-7.9,4.84-4.4,1.42-8.39,3.95-13.34,4.31-5.97.44-11.79,2.64-17.75,3.54-2.19.33-4.03,1.51-6.33,1.58-3.89.11-6.97,2.91-10.59,4.09-.58.19-1.08.47-1.68.33-.16-.04-.26-.32-.39-.49.43-.3.85-.6,1.28-.9,6.08-4.22,13.09-6.24,20-8.51,5.69-1.87,11.36-3.8,17.12-5.47,1.5-.43,3.25-.17,4.72-.93,2.32-1.19,1.85-3.29-1.14-5.47-.38-.27-1.31-.27-.88-1.04.17-.3,1.21-.52,1.41-.32,3.05,3.03,6.28.27,8.88-.41,2.75-.71,5.72-.94,8.5-2.27,4.39-2.1,9.29-3.13,13.99-4.55.88-.27,1.83-.26,3.37-.46h-.02Z" fill="#fdbb2e" stroke-width="0"/><path d="M646.55,276.4c2.63-2.49,4.58-4.43,7.19-4.96,4.52-.91,8.3-8.22,6.04-12.14-.45-.79-.49-1.61.33-2.48,2.75-2.91,4.55-6.23,5.46-10.29.93-4.12,4.11-7.2,7.23-9.94,1.43-1.25,1.12-4.01,3.82-3.8,1.82,5.32-3.09,19.34-7.84,26.48-5.34,8.02-12.45,13.39-22.24,17.15v-.02Z" fill="#fdbb2e" stroke-width="0"/><path d="M576.09,316.49c-.08,4.25-2.85,6.97-4.19,10.25-1.71,4.2-5.78,6.52-8.62,9.84-1.59,1.86-4.41,3.06-6.08,2.59-3.38-.95-5.93-3.73-6.14-7.64-.31-5.78,1.38-7.23,7.22-7.51,4.76-.23,9.14-2.02,12.79-5.05,1.48-1.23,3.35-1.07,5.02-2.47h0Z" fill="#fdbb2e" stroke-width="0"/><path d="M577.2,335.59c4.14.47,8.27-1.9,12.67-3.15.61-.17,1.28-.51,1.72.06.56.72-.51.99-.63,1.48-1.4,5.58-6.3,8.31-9.85,12.1-4.98,5.33-14.26,3.3-16.9-3.56-.4-1.03-.17-1.96.53-2.57,2.83-2.49,8.07-4.36,12.46-4.36h0Z" fill="#fdbb2e" stroke-width="0"/><path d="M603.32,279.89c.77-4.65-.55-8.63,1.08-12.78,1.03-2.63.63-5.76,1.94-8.58,1.34-2.91,3.32-5.16,6.15-5.98,1.64-.47,3.94.74,4.33,3.01.66,3.78-1.19,6.91-2.85,10.14-2.1,4.08-4.41,7.99-7.36,11.5-.73.87-1.78,1.47-3.28,2.68h-.01Z" fill="#fdbb2e" stroke-width="0"/><path d="M430.32,362.82c2.22,1.17,3.6,19.66,2.05,24.37-2.56,7.76-7.53,14.48-10.42,22.21.26-8.03,5.25-14.94,5.37-22.94.12-8.04-.83-16.18,3.01-23.64h0Z" fill="#fdbb2e" stroke-width="0"/><path d="M643.07,271.98c-1.84,7.53-4.98,14.66-12.23,19.12-1.58.97-1.12-.89-1.04-1.37.51-2.96.67-6.13,1.91-8.79,1.53-3.3,1.26-6.91,2.65-10.2,1.05-2.48,3.35-3.61,5.14-3.61,1.62,0,3.78,1.87,3.57,4.86h0Z" fill="#fdbb2e" stroke-width="0"/><path d="M579.42,330.64c-.79-4.33-.83-8.57.49-12.86,1.18-3.84,2.18-7.68,4.29-11.21,3.58-5.99,8.12-10.91,13.59-15.29,5.49-4.4,11.52-7.75,17.74-10.73,3.1-1.48,6.42-3.11,10.07-3.2.74-.02,1.68-.16,1.69,1.04,0,.97-.43,1.5-1.49,1.71-6.6,1.31-12.87,3.62-18.62,7.07-5.53,3.32-11.44,6.32-15.53,11.44-3,3.76-5.78,7.69-7.65,12.37-2.56,6.4-2.92,13.11-4.58,19.66h0Z" fill="#fdbb2e" stroke-width="0"/><path d="M454.63,371.16c-4.54-3.1-7.44-6.26-10.23-9.51-5.09-5.93-4.27-13.13-4.2-20.15.02-1.83,1.71-3.29,1.28-5.27-.03-.14.43-.56.59-.52.29.07.65.33.76.6.14.34.12.77.07,1.15-.95,7.02,2.23,13,4.88,19.08,1.99,4.57,4.22,9.03,6.86,14.62h0Z" fill="#fdbb2e" stroke-width="0"/><path d="M534.8,301.37c.62,2.43,2.59,2.04,4.46,2.26-2,2.34-1.07,4.99-1.1,7.48-.02,1.91,1.77,1.1,2.73,1.06,1.76-.06,2.71.38,2.4,2.31-.45,2.84.64,4.14,3.59,3.65.53-.09,1.11-.1,1.63,0,1.14.24,2.53-.67,3.41.66.16.25.03,1.04-.09,1.07-1.44.36-2.68,1.25-4.36,1.06-2.51-.28-3.53-2.53-5.29-3.72-2.87-1.95-6.83-3.39-7.34-7.59-.32-2.71-.06-5.5-.06-8.25h.02Z" fill="#fdbb2e" stroke-width="0"/><path d="M373.26,67.05c-3.32,4.7-5.97,9.67-6.97,15.7-.59-2.3-1.9-4.68-1.64-6.87.59-4.84,4.46-7.11,8.62-8.81l-.02-.02h.01Z" fill="#fdbb2e" stroke-width="0"/><path d="M627.11,264.52c-1.24-1.18-2.19-2.6-4.27-1.98-1.17.35-1.29-.67-1.29-1.61,0-1.29,1.47-1.89,1.74-1.56,1.36,1.61,5.06,1.5,3.81,5.15h.01Z" fill="#fdbb2e" stroke-width="0"/><path d="M373.28,67.07c.1-.06.21-.13.31-.19-.11.06-.22.12-.33.17,0,0,.02.02.02.02Z" fill="#fdbb2e" stroke-width="0"/><path d="M130.37,276.54c-1,4.92-2.26,9.61-2.76,14.47-.67,6.62-2.76,12.99-3.37,19.69-.35,3.86-1.65,7.83-2.56,11.74-.43,1.86-1.81,3.19-3.73,2.27-1.65-.79-1.61-2.05-.82-4.13,1.36-3.61,1.63-7.68,2.08-11.58.74-6.43,2.45-12.69,3.29-19.13.62-4.74,1.4-9.76,3.22-14.4.69-1.75,1.96-2.02,3.48-1.71,1.83.38.47,2,1.17,2.78Z" fill="#fdbb2e" stroke-width="0"/><path d="M479.87,328.44v-1.74c.91-6.33.21-12.69.35-19.04.8-3.96,1.53-7.93,2.42-11.87,1.54-6.8,1.04-13.71,1.25-20.58.05-1.57.85-3.19,1.57-4.65.39-.79,1.55-1.95,2-1.8.98.31.52,1.59.53,2.48.02,4.43,0,8.87,0,13.91,2.84-5.52,2.43-11.09,3.48-16.35,1.21-6.09,2.25-12.21,4.66-18.08,1.73-4.22,3.4-8.48,5.32-12.61.34-.73.99-2.62,2.39-1.68,1.01.68,0,1.99-.15,3.06-.81,5.92-3.78,11.26-4.12,17.36-.39,6.85-1.62,13.66-2.56,20.47-.86,6.29-.81,12.79.64,18.72,1.15,4.74.09,7.21-2.65,10.61-2.92,3.62-4.73,8.14-7,12.28-3.04,5.55-4.28,11.52-3.99,17.83.03.6-.22,1.22-.9,1.08-1.22-.24-1.95-1.08-2.26-2.31-.3-1.16.46-2.53-.7-3.52.05-1.19.51-2.42-.3-3.54l.02-.03Z" fill="#014f9e" stroke-width="0"/><path d="M611.81,178.32c3.35,1.97,6.35,3.1,8.64,5.43.8.81,1.43,1.65.97,2.57-.52,1.03-1.69.41-2.24-.05-2.89-2.41-6.59-3.18-9.94-3.83-3.22-.62-6.8.95-10.25,1.1-3.21.14-5.56,2.17-8.4,3.03-.98.29-2.38.81-2.75-.57-.32-1.15.79-1.94,1.93-2.14,3.2-.56,5.31-3.5,8.6-3.89.31-.04.75-.87.73-1.32-.03-.7-.78-.63-1.29-.61-7.64.27-14.89,1.92-22.03,4.81-3.86,1.56-7.29,3.43-10.48,5.96-.25.2-1.14.1-1.19-.06-.2-.55-.37-1.26-.18-1.76,1.51-3.85,4.9-5.89,8.18-7.83,5.41-3.2,11.1-5.77,17.03-8,2.23-.84,6.65-.61,6.82-4.9.04-.96.38-2.37-.85-2.88-1.52-.63-2.34-1.79-1.41-2.96.82-1.03,2.59-.24,3.58.28,2.27,1.21,4.6,2.17,7.11,2.51,1.19.16,2.25.32,2.48,1.59.25,1.4.87,3.07-.59,4.13-2.33,1.68-1.18,3.47.43,3.89,1.84.48,3.37,2.19,5.52,1.59.48-.13,1.07.08,1.59.22,1.58.4,3.45,1.46,3.35,2.75-.12,1.42-2.18.36-3.36.63-.43.1-.88.14-1.99.31h-.01Z" fill="#014f9e" stroke-width="0"/><path d="M579.05,143.72c-1.59,4.59,1.3,7.95,4.87,11.42,1.85,1.8,3.86,4.12,3.83,7.2,0,.74.34,1.64-.51,2.12-.84.47-1.21-.29-1.67-.81-.56-.62-1.18-1.2-1.77-1.79-2.91-2.93-5.31-6.16-10.52-3.31-2.8,1.53-6.33-.57-9.3-1.93-2.86-1.3-5.06-3.32-6.29-6.3-1.79-4.34-5.02-3.03-8.07-1.9-1.7.63-2.89.95-2.8-1.52.03-.81-.54-1.16-1.25-.72-.51.32-.83,1.48-1.5.51-.36-.51-.37-1.78.01-2.2,2.16-2.34,4.66-4.16,8-4.55,7.19-.84,14.15,1.72,21.33,1.29,1.44-.09,2.43-.5,3.41-1.41.54-.5.49-1.99,1.73-1.32.9.48.41,1.55.47,2.36.05.7.01,1.4.01,2.87h.02ZM573.01,149.4c-.12.02-.24.04-.35.06l.09,1.59c.09,0,.18,0,.27,0v-1.63h-.01Z" fill="#014f9e" stroke-width="0"/><path d="M503.89,367.82c-2.43,2.21-3.3,0-4.16-1.37-1.8-2.9-3.03-6.03-3.17-9.53-.04-.95-.99-1.61-1.82-1.27-2.54,1.05-2.99-1.32-3.17-2.4-.68-4.17.37-8.15,1.75-12.16,1.03-2.99,2.52-5.77,3.44-8.75.61-1.98,1.64-3.55,2.87-5.08.68-.85,1.84-2.33,2.48-1.84,1.12.85.81,2.67.26,3.9-1.38,3.07-1.4,5.92.07,9.03.64,1.36-.29,3.49.4,4.78,2.14,4.02,3.24,8.36,4.26,12.68.95,4.06,1.17,8.28,1.92,12.39.33,1.79,1.19,3.49,1.76,5.24.42,1.27,1.95,2.75.66,3.85-1.5,1.27-2.92-.4-3.58-1.49-1.47-2.46-3.51-4.69-3.97-7.99h0ZM502.72,364.7c-.12.34-.28.55-.23.7.05.17.29.28.45.42.08-.18.24-.38.22-.55-.02-.16-.22-.3-.44-.56h0Z" fill="#014f9e" stroke-width="0"/><path d="M562.62,212.9c-1.4,3.26-1.44,6.91-5.97,9.26-5.8,3.01-11.71,6.48-16.17,11.74-3.09,3.65-6.7,6.86-9.95,10.38-1.15,1.24-1.98,2.8-2.88,4.26-.32.52-.67.91-1.26.79-.73-.15-.58-.81-.54-1.33.26-3.58,2.53-6.24,4.47-8.91,3.14-4.33,6.81-8.28,10.02-12.57,1.78-2.39,3.85-4.48,6.13-6.25,4.17-3.24,8.16-6.75,12.81-9.35.64-.36,1.09-1.36,1.87-.59.66.65,1.88,1.05,1.46,2.56h0Z" fill="#014f9e" stroke-width="0"/><path d="M531.77,357.37c-4.06-1.16-7.65-2.94-9.61-7.17-3.53-7.62-8.24-14.83-8.02-23.71.03-1.05-.41-2.58.83-2.89,1.26-.31,1.78,1.34,2.11,2.2,1.16,2.98,1.96,6.1,2.99,9.13,2.12,6.27,5.06,11.8,11.07,15.51,1.81,1.12,3.44,2.13,5.47,2.6.75.17.89.69.36,1.17-1.51,1.33-2.36,3.78-5.2,3.16h0Z" fill="#014f9e" stroke-width="0"/><path d="M523.37,266.38c1.01-3.85,1.46-8.3,3.41-11.94,1.27-2.37,3.85-4.58,6.68-5.92,1.05-.5,1.26.09,1.49.72.72,1.95.57,4.05-.64,5.56-3.45,4.32-6.46,8.85-8.5,14.01-.29.74-.88.96-1.49.73-1.42-.56-.54-1.89-.96-3.16h.01Z" fill="#014f9e" stroke-width="0"/><path d="M530.44,227.13c-.09-1.27,1.25-2.68,2.12-3.83,2.75-3.66,5.52-7.38,9.58-9.88,1.61-.99,3.4-1.9,4.54-.53,1.13,1.35.13,3.52-1.27,4.44-4.47,2.96-8.44,6.48-12.27,10.19-.27.26-.6.47-.83.76-.41.49-.41,1.59-1.31,1.3-.79-.25-.44-1.2-.56-2.44h0Z" fill="#014f9e" stroke-width="0"/><path d="M568.74,166.33c-5.21,0-9.39-3.14-10.84-7.43-.37-1.09-1.07-2.12-1.81-3.02-.76-.93-.87-2.01-.18-2.69.64-.64,1.52-.38,2.34.52,2.4,2.62,5.09,4.97,7.48,7.59,1.41,1.54,3.22,1.58,4.97,1.89.7.12,1.7-.88,1.85.71.12,1.21-.24,1.91-1.59,2.01-.99.07-1.96.38-2.22.44v-.02Z" fill="#014f9e" stroke-width="0"/><path d="M543.77,382.11c1.78-.19,3.88.01,4.17,1.87.35,2.22-2.41,1.69-3.55,2.13-3.29,1.27-5.24,3.63-6.85,6.43-.62,1.08-1.66,1.81-2.5,1.78-1.04-.04-.48-1.39-.5-2.14-.12-6.7,3.24-9.64,9.22-10.07h.01Z" fill="#014f9e" stroke-width="0"/><path d="M480.23,307.66c-.14,6.35.56,12.71-.35,19.04.09-6.35-.62-12.71.35-19.04Z" fill="#464765" stroke-width="0"/><path d="M479.87,328.44c.8,1.12.35,2.35.3,3.54-.8-1.12-.28-2.35-.3-3.54Z" fill="#464765" stroke-width="0"/><path d="M573.01,149.4v1.63c-.09,0-.18,0-.27,0l-.09-1.59c.12-.02.23-.04.35-.06h.01Z" fill="#fdbb2e" stroke-width="0"/><path d="M502.72,364.7c.22.26.42.4.44.56.02.17-.14.37-.22.55-.16-.14-.39-.25-.45-.42-.05-.15.11-.36.23-.7h0Z" fill="#818ac8" stroke-width="0"/><path d="M696.17,198.36c-5.11-7.25-12.18-12.53-19.68-17.01-3.46-2.07-7.24-3.79-11.08-5.33-4.36-1.74-9.12-3.34-11.77-7.95-1.23-2.15-3.28-3.65-5.15-5.29-2.86-2.52-7.08-2.79-9.56-5.7-3.99-4.68-9.62-7.2-14.08-11.23-.66-.6-1.67-.52-2.18-1.56-1.32-2.68-1.49-5.59-3.59-8.28-3.67-4.71-7.34-9.11-11.93-13.04-5.79-4.96-12.97-7.69-18.62-12.7-1.41-1.25-4.25-1.52-3.54-4.43,1.26-5.22,2.36-10.45,2.2-15.86-.03-.9.23-2.05-1.02-2.31-2.22-.45-1.5-2.2-.99-3.06.92-1.57.74-3.11.76-4.72.1-7.41-2.99-14.16-4.36-21.27-.18-.92-.91-1.33-1.77-.93-1.86.86-4.3.22-5.69,2.52-.44.73-2.05.8-3.16,1-.19.03-.72-.78-.79-1.24-1.1-7.83-4.7-14.58-9.65-20.49-4.07-4.85-8.17-9.66-11.78-14.86-.44-.63-1-1.38-1.86-1.14-.91.25-.55,1.17-.56,1.82-.03,2.8,0,5.61-.03,8.41,0,.59.2,1.36-.56,1.62-.77.27-1.27-.25-1.75-.83-3.11-3.76-7.02-6.68-10.91-9.47-5.05-3.62-10.82-5.99-16.5-8.59-6.59-3.01-13.29-5.86-19.78-9.13-1.9-.96-3.75-.77-4.75,1.58-.62,1.46-1.09,2.47-3.27,1.34-1.24-.64-2.91-1.37-4.41-1.5-7.29-.63-14.6-.43-21.92-1.51-7.16-1.06-14.56.6-21.86-1.25-4.07-1.03-8.28-1.93-11.79-3.95-4.2-2.42-8.07-2.91-12.13-.12-1.71,1.18-2.49,3.64-5.24,3.46-11.03-.7-21.67,1.42-32.15,4.62-3.54,1.08-7.12,2.02-10.62,3.21-6.51,2.21-13.07,3.98-19.71.81-6.38-3.04-12.59-6.41-18.92-9.55-1.18-.58-3.37-1.41-3.71-.99-1.13,1.37.29,2.62.95,3.99.51,1.07,2.43,1.75,1.49,3.31-1.69,2.83-6.18,3.09-7.95.36-1.28-1.97-2.1-.74-2.74.2-2.9,4.22-6.38,8.22-8.32,12.86-2.75,6.61-3.4,13.79-1.79,20.96.13.57.69.89-.27,1.4-4.23,2.25-8.99,3.04-13.31,5.28-4.7,2.43-9.34,4.97-13.92,7.59-5.16,2.95-9.94,6.6-15.22,9.3-3.99,2.05-8.31,3.49-12.79,4.6-4.61,1.14-9.33,1.52-13.45.35-4.88-1.38-9.9-3.3-14.19-6.41-.86-.62-1.94-.9-2.88-.46-1.04.48-.56,1.58-.61,2.49-.16,3.35,1.64,6.38,1.28,9.86-.23,2.18-1.33,3.41-2.79,3.6-7.25.98-12.6,5.81-18.44,9.33-6.87,4.14-13.5,7.56-21.79,7.28-13.55-.46-27.1-.59-40.2,4.02-4.32,1.52-8.08,3.64-11.68,6.52-3.88,3.1-6.88,7.18-11.3,9.7-1.13.64-3.01,1.98-2.63,3.43.35,1.36,2.33.42,3.57.62,1.93.31,4.82-1.01,5.59.82.71,1.68-2.34,2.33-3.57,3.62-.11.11-.19.25-.31.35-5.06,3.97-11.01,5.83-17.18,6.91-6.66,1.16-13.11-1.58-19.75-1.58-.47,0-.98-.38-1.4-.69-1.12-.83-2.46-.93-3.47-.24-1.21.82-.15,1.86.2,2.87.66,1.87,1.27,3.82,1.5,5.78.7,6.04,3.05,11.11,7.84,15.02,1.97,1.6,3.74,3.27,6.32,4.09,3.69,1.18,7.59,2.67,5.18,8.04-.29.65-.1,1.54-.07,2.32.53,12.51-1.18,25.07,2.82,37.47,2.21,6.87-2.72,12.83-6.24,18.34-2.04,3.19-4.47,6.28-6.75,9.38-2.51,3.42-4.12,6.36-9.74,6.15-4.27-.16-8.54-.26-12.81-.32l-1.26,7.42c0,.12-.01.23-.01.36-.01-.02-.02-.05-.03-.07l-11.11,65.44-2.3-.39,2.4-14.12c-.03-.11-.06-.23-.09-.34-.09-.89.2-1.68.56-2.45l9.49-55.87c-12.75-.13-25.52.09-38.27.1-2.59,0-4.93-1.01-5.73,3.66-1.08,6.29-2.3,12.68-3.43,18.97-1.19,6.62-2.63,13.25-3.48,19.94-.53,4.17-2.28,8.17-2.57,12.25-.33,4.67-.87,9.4-2.12,13.72-1.66,5.77-2.27,11.75-3.39,17.52-1.39,7.17-2.93,14.44-3.78,21.78-.72,6.26-1.05,6.22,5.48,6.22,26.01,0,52.02-.01,78.03.02,3.07,0,6.01-1.47,9.21-.34,1.68.59,3.24,1.56,5.3,1.43,12.81-.86,25.64-.25,38.5-.91,23.3-1.2,46.7-.34,70.06-.1,4.2.04,8.27-1.7,12.56-.46,1.25.36,1.99,1.47,3.51,1.45,9.27-.14,18.53-.09,27.8-.08.79,0,2.03-.67,2.24.44.24,1.29-1.46.21-1.95,1.18.81,1.25,1.97,2.05,3.46,2.66,2.9,1.2,5.82,2.42,8.52,4.01,5.97,3.51,12.17,6.53,18.46,9.41,2.15.99,5.13.83,6.27,3.71,1.37,3.44,4.77,4.59,7.58,6.31,4.53,2.77,9.87,3.12,14.82,4.64,6.26,1.91,12.5,3.93,18.41,6.85,4.72,2.33,9.67,4.19,14.3,6.67,7.86,4.21,15.49,8.83,23.31,13.11,8.24,4.52,16.87,8.31,23.74,15.1,3.23,3.19,5.64,6.82,7.75,10.66,2.56,4.68,4.82,9.52,6.9,14.48,2.13,5.09,3.8,10.52,7.53,14.86,1.83,2.13,3.36,4.52,5.19,6.64,2.51,2.9,5.82,4.85,9.01,6.87,3.85,2.43,7.8,3.41,11.65-.12,2.78-2.55,4.1-5.5,3.48-9.44-.58-3.68-2.36-7.15-2.5-10.76-.34-8.64-1.43-17.29.91-25.95.76-2.84,2.06-5.6,2.5-8.64-.11,3.08,2.4,5.59,1.92,8.68-.18,1.18.28,1.97,1.57.96,3.07-2.4,6.97-2.95,10.35-4.77,7.83-4.22,15.4-8.54,20.43-16.25.87-1.34,2.42-3.1,4.17-1.3,1.78,1.83,3.48,3.96,4.46,6.28,2.63,6.24,4.82,12.66,7.27,18.97.25.65-.29,2.22,1.05,1.82.81-.24,1.51-1.46,1.91-2.39,2.75-6.4,5.84-12.71,7.91-19.33.89-2.86,3.06-6.11.95-9.52-.25-.41-.11-1.24.13-1.73.29-.59.93-.17,1.45-.16,4.72.11,6.14,4.27,8.03,7.21,2.82,4.39,5.63,8.74,9.07,12.66.88,1,1.72,2.24,3.37,2.25,7.38.01,12.99-1.61,11.66-10.67-.01-.08,0-.16-.01-.23-.26-1.75.38-2.3,2.21-2.1,5.63.62,11.1-.75,16.55-1.84,2.23-.45,4.43-1.26,1.97-4.38-1.1-1.39-2.19-3.06-2.84-4.71-.66-1.7-2.69-3.45-1.39-5.4,1.47-2.2,3.87-1.98,6.31-1.58,2.28.37,4.65.34,6.98.3,3.57-.06,7.15-3.81,7.68-7.36.23-1.56-.39-4.05,1.28-4.59,5.16-1.67,9.24-4.63,12.9-8.53,4.97-5.3,6.15-11.97,4.58-18.23-1.66-6.59-.66-11.95,3.6-16.43,3.62-3.8,6.18-7.91,7-12.91,1.28-7.8-1.28-13.5-7.21-16.71-1.71-.93-2.06-1.87-1.3-3.22,1.08-1.91,2.26-3.85,3.79-5.39,2.86-2.88,5.81-5.76,9.14-8.04,1.27-.87,3.12-4.77,5.37-.95,2.7,4.59,6.7,6.34,11.79,6.11,9.32-.41,16.16-5,21.38-12.5,1.04-1.5,2.03-3.08,4.01-3.93,5.76-2.49,11.03-5.97,15.91-9.81,5.36-4.2,10.22-9.07,13.31-15.37,2.27-4.64,5.43-9.03,6.7-13.91,1.45-5.57,2.53-11.44,1.9-17.37-.33-3.12.3-6.45,2.24-8.54,2.07-2.22,3.82-4.48,5.4-7.05,4.35-7.11,2.79-13.82-1.2-19.47l.02-.02ZM48.08,347.35c-12.07-.16-24.14-.1-36.22-.07-2.62,0-2.54-.83-1.83-3.12,1.19-3.84,1.68-7.91,2.42-11.89,1.29-6.94,2.49-13.9,3.84-20.83.73-3.77,1.42-7.6,2.02-11.42.76-4.86,1.69-9.7,2.52-14.55.52-3.06.45-6.33,1.58-9.13,1.72-4.29,1.11-8.88,2.49-13.25,1.02-3.25,1.7-6.87,2.06-10.39.15-1.44.83-1.76,2.13-1.75,7.48.04,14.95.02,22.43.03.73,0,2-.15,1.73.91-.67,2.63.02,5.38-1.17,8.02-.96,2.12-1.39,4.6-1.54,6.96-.32,5.16-1.41,10.13-2.82,15.08-.5,1.75-.61,3.64-.76,5.47-.53,6.43-2.4,12.63-3.18,19.04-.66,5.41-2.59,10.68-2.72,16.24-.02.66-.58,1.31-1.03,2.27,4.39,0,8.67.24,12.9-.07,3.58-.26,3.03,1.95,2.55,3.81-1.17,4.58-2.44,9.14-2.63,13.87-.13,3.2-1.17,4.84-4.76,4.79v-.02ZM84.99,327.78c-.26,5.01-2.86,9.57-2.62,14.6.26,5.47-3.21,5.2-6.95,4.94-2.32-.16-4.67-.03-7-.03-2.88,0-5.76-.01-8.64,0-4.78.02-4.77-.23-4.17-5.07.86-6.9,2.79-13.58,3.7-20.49.75-5.7,1.96-11.4,2.89-17.12.88-5.4,1.48-10.98,2.95-16.12,1.7-5.94,2.22-12.01,3.49-17.96.89-4.14,2.32-8.31,2.23-12.71-.04-2,.62-4.03,1.06-6.03.23-1.05,1.21-.81,1.94-.81,7.47-.02,14.94-.11,22.41.03,3.67.06,2.07,3.16,1.72,4.51-1.17,4.55-2.04,9.13-2.66,13.77-.83,6.28-2.43,12.42-3.21,18.73-.42,3.39-.51,7.05-1.57,10.25-1.91,5.79-1.94,11.89-3.7,17.69-1.15,3.79-1.67,7.85-1.87,11.82h0ZM138.77,346.22c-1.89,1.45-4.82,1.98-7.31,2.12-5.59.3-11.2.09-16.81.09h-14.25c-7.03,0-8.63-1.48-11.09-8-2.34-6.19-.24-11.84,1.06-17.67.37-1.65.43-3.37.64-5.06.61-4.75.67-9.66,1.98-14.21,1.8-6.22,2.16-12.67,3.81-18.9,1.08-4.07,1.26-8.37,2.02-12.54,1.5-8.16,3.65-16.03,11.64-20.5,1.66-.93,3.55-1.36,5.5-1.36,10.74,0,21.49-.02,32.23,0,6.02,0,9.86,4.19,10.3,10.18.24,3.19.35,6.5-.31,9.4-1.05,4.62-1.04,9.39-2.57,13.96-1.23,3.68-1.46,7.75-1.82,11.67-.59,6.4-2.47,12.55-3.27,18.94-.62,4.96-1.48,10.07-2.78,14.92-1.67,6.22-3.53,12.77-8.98,16.95h.01ZM209.01,342.39c-.32,2.72-1.1,5.55-5.59,5.05-5.92-.65-11.97-.23-17.96-.14-1.97.03-2.56-.53-2.69-2.61-.4-6.64-.66-13.37-1.52-19.89-.68-5.16-.06-10.33-1.07-15.38-1.45,5.8-2.43,11.68-3.32,17.6-.79,5.25-2.36,10.38-2.86,15.74-.23,2.44-.94,4.92-4.85,4.63-6.19-.46-12.45-.15-18.67-.12-1.35,0-2.65-.26-2-1.86,1.52-3.74,2.22-7.62,2.49-11.6.46-6.66,2.41-13.09,3.45-19.66.99-6.3,1.97-12.72,3.65-18.95,1-3.71,1.29-7.6,1.94-11.4.77-4.49,1.56-8.99,2.4-13.47,1.11-5.91,2.34-11.79,3.4-17.71.23-1.29.76-1.66,1.97-1.66,7.55.02,15.1,0,22.65-.02,1.26,0,1.86.4,1.75,1.77-.6,7.53,1.75,14.85,1.49,22.43-.09,2.6.87,5.59,1.03,9.61,1.03-7.93,2.95-14.47,3.52-21.3.28-3.35,1.46-6.8,2.07-10.24.27-1.54.98-2.29,2.63-2.28,6.85.04,13.7,0,20.55.02,1.11,0,2.21-.26,1.1,1.71-.85,1.49-.72,3.58-.85,5.42-.45,6.42-2.21,12.64-3.05,19.01-.72,5.46-2.02,10.9-2.97,16.38-.99,5.64-1.91,11.29-2.9,16.91-.91,5.15-1.79,10.35-2.86,15.47-1.15,5.5-2.25,10.95-2.9,16.55h-.03ZM260,347.62c-3.56.74-6.93.62-10.37.73-7.31.25-14.65-.21-21.95.15-8.17.4-13.54-5.38-13.02-12.93.38-5.59,1.06-11.12,2.19-16.55.38-1.81.91-3.6.97-5.48.05-1.51.89-2,2.28-2,7.55.01,15.12-.26,22.66.11,3.88.19,1.94,3.72,1.68,5.46-.34,2.26-.25,4.48-.24,6.7,0,1.93,1.79,1.38,2.58.81,2.59-1.88,3.91-11.41,1.68-13.69-1.87-1.91-4.41-3.15-6.64-4.72-4.06-2.85-8.18-5.63-12.28-8.38-7.13-4.79-5.91-11.41-5.54-18.25.3-5.42,2.05-10.49,3.16-15.69,1.45-6.8,8.05-13.69,16.28-13.69,10.12,0,20.26-.31,30.37.08,9.26.36,12.25,7.05,11.47,14.76-.36,3.51-.9,7-1.49,10.47-.25,1.46-.84,2.86-1.28,4.28-2.86.95-5.81.32-8.71.38-5.36.12-10.74-.03-16.1.07-1.66.03-1.86-.53-1.29-1.85-.81-1.51,1.39-4.84-2.16-4.54-2.74.23-2.34,2.98-2.48,5.1-.12,1.84.74,2.61,2.26,3.51,2.57,1.53,4.88,3.49,7.42,5.16,4.54,2.98,8.66,6.58,12.99,9.87,1.45,1.1,2.29,2.57,2.29,4.3,0,6.51.33,12.97-1.3,19.48-.85,3.41-1.14,7.19-2.21,10.53-2.21,6.86-4.21,13.95-13.21,15.82h-.01ZM271.32,354.12c-.49.1-1.27.03-1.52-.28-.46-.58.3-.93.66-1.26,5.37-4.82,8.93-10.8,11.26-17.55.45-1.3.84-2.71.81-4.06-.11-5.21,2.36-9.95,2.52-15.14.24-7.75,1.91-15.61-2.72-22.76-.08-.13-.18-.26-.26-.39-.71-1.24-3.51-1.53-2.38-3.33.77-1.24,3.05-.37,4.65-.38,6.07-.05,6.06-.01,6.65-5.88.61-6.07,2.54-11.89,3.06-18.03.74-8.71-3.69-18.94-12.42-21.94-3.21-1.1-6.38-1.4-9.66-1.41-9.81-.02-19.64-.3-29.44.05-27.16.99-54.32.12-81.47.45-1.1,0-2.37-.31-2.88,1.28-.25.8-.97.67-1.52.2-2.18-1.9-4.92-1.92-7.5-1.94-11.29-.11-22.61-.5-33.87.09-9.7.51-19.37-.09-29.27.4,1.14-.9,2.28-.83,3.31-.69,6.07.85,12.01-.77,17.92-1.45,4.66-.54,9.07-3.17,13.19-5.95,2.6-1.76,4.61-4.01,6.95-5.98.92-.77,1.91-.71,2.85-.4,3.61,1.18,10.23-.47,12.45-3.44,2.47-3.32,1.64-7.57.74-10.71-1.04-3.64.58-5.7,1.87-8.19,4.59-8.92,12.46-14.43,21.16-18.43,6.54-3.01,13.74-4.59,20.63-6.85,6.58-2.16,12.99-4.71,19.34-7.52,8.36-3.7,16.53-7.75,25.54-10.12,5.23-1.38,10.69-2.58,15.81-4.69,1.59-.65,3.51-.63,5.29-.65,3.78-.04,6.84-2.74,10.67-2.7.95,0,.71-.99,0-1.7-3.24-3.19-6.41-6.44-9.63-9.65-.41-.41-1.29-.62-.84-1.37.2-.34.92-.45,1.42-.51,5.34-.63,10.7-1.11,16.02-1.9,1.77-.26,3.42-1.04,5.3-1.27,5.13-.62,8.18,3.14,11.98,5.21,3.76,2.04,7.81,2.75,11.83,3.85,4.15,1.14,8.26,1.2,12.4,1.05,3.8-.13,7.45-1.63,11.37-1.24,7.33.74,14.83.59,21.99,2.07,5.15,1.06,10.32,2.83,15.3,5,5.62,2.45,11.32,4.72,16.81,7.43,5.64,2.78,11.31,5.52,16.08,9.76,2.79,2.49,5.03,5.61,6.43,8.83,1.65,3.82,4.06,6.73,7.35,8.64,4.86,2.83,9.44,6.09,14.26,8.92,6.7,3.93,13.82,7.16,20.88,10.45,6.19,2.89,11.03,7.45,15.67,12.21,1.14,1.17,4.06,2.11,3.07,3.81-1.48,2.52-3.64,4.96-6.37,6.36-2.17,1.12-4.01,1.41-2.42,4.81,2.11,4.53-1.31,9.94-6.78,12.11-3.2,1.27-6.01,3.45-9.61,3.84-.82.09-1.99,1.09-2.21,1.89-1.19,4.29-4.37,3.37-7.41,3.18-4.64-.29-8.77,1.57-13.08,2.98-4.11,1.35-8.08,3-12.08,4.58-5.57,2.2-11.22,4.36-16.45,7.22-7.5,4.11-15.8,7.37-21.19,14.33-2.12,2.73-3,6.8-3.44,10.38-.82,6.76-1.38,13.65-.07,20.41.58,3,1.93,5.9,4.65,7.84.44.32.94,1.02.89,1.48-.45,4.18,1.94,7.17,3.9,10.48,1.31,2.23-.96,4.25-1.76,6.28-1.59,4-5.62,5.74-8.51,8.53-.41.4-1.29.42-1.96.43-3.5.05-7.01.08-10.51.03-2.76-.04-5.36,0-7.97,1.41-2.35,1.26-3.9.3-4-2.71-.11-3.46.47-6.62,2.12-9.72,1.7-3.18-1.23-5.5-2.71-7.38-1.76-2.23-3.33-4.69-5.37-6.81-4.91-5.1-10.79-6.55-17.32-5.52-2.02.32-4.01,2.27-5.54,3.91-3.48,3.71-6.86,7.48-9.89,11.65-3.19,4.39-6.02,9.36-10.56,12.52-3,2.09-6.16,4.36-10.19,4.52-1.41.06-2.79.73-4.21,1.01l-.06.02ZM690.25,213.09c-3.07,4.64-6.83,8.8-9.38,13.81-.49.96.47,1.28.44,2.08-.16,3.89.43,7.87-.2,11.66-.99,5.97-2.92,11.72-6.01,17.07-2.51,4.34-4.56,9.07-8.55,12.22-3.87,3.05-7.53,6.36-12.07,8.65-3.08,1.56-6.07,3.03-9.35,4.11-1.16.38-2.04,2.16-2.68,3.48-2.17,4.48-5.91,7.47-9.79,10.21-2.47,1.75-5.6,1.5-8.51,1.05-1.35-.21-2.16-1.74-1.32-2.66,1.95-2.16.73-5.23,2.59-7.41.62-.72.24-2.11-1.48-2.01-3.9.21-7.32,2.04-10.92,3.21-4.51,1.47-7.78,4.85-11.42,7.75-2.43,1.94-4.87,3.86-6.89,6.17-3.11,3.57-6.2,7.17-7.27,12.07-.99,4.56-2.73,8.94-2.62,13.74.03,1.34.16,1.5,1.26.96,1.95-.96,3.84-2.14,5.88-2.82,1.99-.66,3.56-.36,4.21,2.37,1.6,6.76-2.42,11.44-6.49,15.18-4.89,4.5-5.25,9.39-4.92,15.23.18,3.16,1.57,6.02,1.35,9.23-.53,7.68-5.32,11.85-12.06,13.75-3.75,1.06-7.37,4.62-7.24,8.29.13,3.69-1.3,4.98-4.4,2.82-3.61-2.52-6.12-1.9-9,.56-2.54,2.17-6.05,3.17-7.43,6.75-1.05,2.73-1.11,5.33-.09,7.98.66,1.73.96,2.97-1.64,2.96-3.52-.01-6.77-.67-9.49-3.05-1.03-.9-2.01-.14-2.28.55-.79,2.03-1.61,4.16-1.79,6.3-.24,2.86-2.08,5.4-.94,9.18-4.28-3.35-6.54-7.29-8.47-10.94-2.76-5.22-6.14-9.05-11.75-10.76-3.74-1.14-4.42-4.83-6.3-7.45-.89-1.25-.33-3.95-2.88-1.37-2.69,2.71-3.32.4-3.66-1.7-.49-3.06-1.25-5.96-2.6-8.78-.94-1.97-3.07-2.06-4.36-3.56-2.36-2.74-2.14-6.26-2.64-9.18-.68-4-3.84-4.24-5.88-6.13-.65-.6-1.63-.82-2.33-1.39-1.25-1.01-1.97-2.99-2.9.6-.61,2.35-3.02.18-4.86-.76,1.84,3.78,5.04,6.14,7.19,9.33,2.26,3.35,4.55,6.69,6.78,10.07,4.11,6.24,5.91,13.44,8.43,20.29,1.03,2.81,1.94,6.01,2.28,9.24.22,2.09,1.03,3.96-.12,6.03-.39.71.2,2.08-1.13,2.17-1.08.07-1.47-.9-1.99-1.81-3.53-6.1-8.4-11.05-14.48-14.48-2.93-1.65-3.02,2.29-3.93,3.64-4.26,6.25-9.04,11.83-15.7,15.61-.66.37-1.31.86-1.77,1.44-1.11,1.4-2.72,1.59-4.14,1.31-1.61-.32-.67-1.95-.8-2.99-.67-5.3-1.57-10.62-5.09-14.78-2.37-2.8-3.66.93-4.38,1.93-4.33,6.01-7.48,12.71-9.29,19.89-1.86,7.37-3.65,14.84-3.2,22.51.25,4.34.06,8.71.56,13,.41,3.55,1.77,6.98,2.68,10.47.17.64.53,1.52-.41,1.77-.69.18-1.73.19-2.2-.21-2.63-2.26-5.29-4.51-7.63-7.05-5.05-5.48-8.56-11.93-10.6-19.08-.76-2.67-2.18-5.06-3.38-7.37-3.13-6.05-6.07-12.29-10.71-17.49-4.96-5.57-11.08-9.33-17.65-12.63-4.45-2.23-8.64-4.96-12.98-7.41-2.41-1.36-4.87-2.62-7.31-3.92-4.97-2.64-9.84-5.52-14.96-7.85-5.18-2.36-10.12-5.19-15.4-7.39-6.08-2.54-12.46-4.08-18.52-6.61-3.51-1.46-7.52-1.23-10.96-3.1-.7-.38-.99-1.37-2.08-1.23-.85.11-1.45-.53-1.67-1.36-.26-.97.26-1.54,1.01-2.13.85-.68,2.05-1.32,1.91-2.58-.02-.21-1.81-.27-2.79-.33-5.19-.35-9.88-2.42-14.47-4.55-1.53-.71-3.49-.59-4.66-2.23-.63-.89-.84-1.22.42-1.49,6.62-1.4,12.28-4.74,16.88-9.53,2.91-3.03,4.97-6.87,7.6-10.2,3.53-4.47,6.81-9.33,11.63-12.42,3.28-2.1,6.29.23,8.69,2.72,2.49,2.59,5.92,5.15,4.6,9.19-1.19,3.64-.56,7.16-.82,10.73-.19,2.63.87,4.98,2.25,7.12.87,1.35,3.54-.1,3.94,2.32.06.34.6.63.6.94-.02,6.51,2.41,2.66,4.61,1.22,2.69-1.76,5.1-4.23,8.8-3.92,1.41.12,1.91.5,1.86,1.92-.09,2.62-.03,5.25-.03,8.41,4.87-4.44,9.91-7.68,14.57-11.44,4.94-3.99,9.45-8.21,13.23-13.29.46-.62.69-1.15.73-1.84.35-5.2,4.18-7.56,7.98-10.06,2.28-1.5,4.38-3.28,6.49-5.03.47-.39,1.09-1.51.45-1.79-.79-.35-2.15-.29-2.84.19-3.43,2.36-7.23,2.94-11.24,2.81-1.32-.04-2.86.07-3.21-1.58-.33-1.53-.21-2.72,1.87-3.54,2.8-1.1,5.28-3.06,7.85-4.71.47-.3.75-.92,1.12-1.39-.57-.15-1.14-.42-1.71-.43-2.88-.04-5.76-.01-8.64-.01-5.28,0-6.77-1.18-6.84-6.39-.07-5.26-.1-10.6.67-15.78.69-4.65,3.36-8.05,7.93-10.55,6.07-3.32,12.33-6.3,18.37-9.7,3.54-1.99,7.54-3.17,11.34-4.68,4.41-1.76,8.78-3.67,13.28-5.15,2.68-.88,5.64-1.5,8.44-.62,1.91.59,1.59,2.77,1.87,4.35.2,1.13,0,2.33.09,3.49.03.36.4.87.73.98.35.12,1.06,0,1.22-.26,2.58-4.16,5.35-8.23,7.53-12.59,1.33-2.67,3.85-3.43,5.94-4.31,6.36-2.68,11.85-6.23,15.55-12.17.36-.58.31-1.52.23-2.27-.39-3.54.1-6.64,3.26-8.97,3.67-2.71,4.98-7.09,7.06-10.89.78-1.43-.94-2.59-1.66-3.24-4.45-3.99-8.56-8.35-13.15-12.22-4.96-4.18-10.82-6.4-16.35-9.43-6.1-3.34-12.42-6.38-18.16-10.45-3.76-2.66-7.99-4.65-11.95-7.03-1.93-1.16-2.36-3.43-3.29-5.26-4.71-9.25-12.54-14.85-21.65-19.1-6.77-3.16-13.32-6.84-20.22-9.67-5.31-2.17-11.07-3.22-16.52-5.08-4.09-1.4-8.34-1-12.44-1.72-6.34-1.11-12.66-1.03-19.02-1.09-3.12-.03-5.94,1.53-9.2,1.3-8.12-.59-15.69-2.27-21.91-7.99-2.2-2.02-12.6-2.62-15.37-1.44-1.78.75-3.85,1.08-5.8,1.1-5.35.05-10.51,1.87-15.96,1.41-2.02-.17-4.77.55-6.12,1.92-3.01,3.04-.97,6.45.61,9.54.69,1.35,1.65,2.55,2.45,3.84.79,1.29-.49,1.72-1.14,1.9-6.08,1.67-12.26,3.01-18.28,4.88-4.8,1.49-9.39,3.66-14.12,5.41-5.21,1.92-9.86,5.08-15,7.04-5.03,1.92-10.1,3.8-15.37,5.18-4.71,1.23-9.36,2.9-13.96,4.68-4.82,1.87-9.52,4.01-13.87,6.61-4.67,2.8-8.59,6.69-12.26,10.95-3.84,4.44-5.76,9.62-8.26,14.62-1.12,2.24,1.34,4.09,1.13,6.34-.14,1.51.27,3.17-1.4,4.08-1.59.87-2.37-.88-3.57-1.3-1.95-.69-2.36-2.89-3.57-4.33-.27-.32-.64-.56-.97-.84-.14.33-.31.66-.4,1-2.18,8.44-8.65,12.68-15.84,16.25-2.05,1.02-4.1,1.57-6.36,1.25-.35-.05-.67-.27-1.01-.41.16-.31.27-.66.49-.91,6.09-6.82,9.61-15.16,7.1-23.73-3.39-11.6-2.37-23.16-2.63-34.77-.12-5.46,2.59-10.14,4.99-14.48-3.92-4.54-10.05-1.94-14.99-4.31-3.78-1.82-6.25-4.61-8.49-7.84-.26-.38-.12-1.29.17-1.74.43-.67.91.22,1.31.24,5.05.14,10.1,1.02,15.13-.51,2.73-.83,5.6-.52,8.44-1.8,5.61-2.52,10.47-5.75,15-9.93,5.42-5,10.57-10.56,18.24-12.96-3.17-1.83-6.43-1.9-9.59-2.37-.71-.11-1.88.37-1.97-.6-.05-.58.84-1.47,1.52-1.84,3.19-1.77,6.7-2.61,10.22-3.56,12.42-3.36,25.08-1.77,37.64-2.35,5.74-.26,11.11-2.01,16.13-5.25,2.45-1.58,5.32-3,7.87-4.47,3.11-1.79,6.34-3.56,9.36-5.57,2.72-1.82,5.76-2.5,8.81-2.58,1.9-.05,3.14-1.47,4.96-1.47.88,0,.2-.6-.03-1.08-.91-1.96-1.22-4.5.04-5.91,1.17-1.3,3.48.12,5.24.53,5.04,1.18,10.03,1.3,15.09-.07,2.76-.75,5.67-.68,8.39-1.97,4.59-2.17,9.33-3.74,13.77-6.53,7.92-4.96,15.58-10.58,24.4-13.97,5.27-2.03,10.42-4.56,16.25-4.97.29-.02,3.7.96,2.98-2.81-1.06-5.53-2.99-11.11-2.06-16.9.44-2.74,1.12-5.48,2.05-8.09.3-.83,1.65-2.21,2.77-.18,1.23,2.22,3.34,3.49,5.47,4.68.59.33,1.48.34,1.31-.57-.47-2.48,1.69-4.3,1.37-6.82-.28-2.19,1.34-3.81,3.12-4.93,1.84-1.16,1.99,1.13,2.27,1.69,3.33,6.72,9.22,8.33,16.11,8.59-1.04-1.65-1.88-3.18-2.92-4.54-.42-.55-.83-1.01-.46-1.6.41-.65,1.06-.39,1.67-.13,3.07,1.34,6.35,1.99,9.61,1.42,5.15-.91,10.26-1.9,15.32-3.44,4.32-1.31,8.64-2.74,13-4,9.35-2.71,18.89-3.26,28.54-2.95.47.02.98-.11,1.39.03,3.2,1.13,4.92.67,4.55-3.35-.16-1.78,1.69-2.81,3.11-1.77,4.96,3.63,10.74,4.43,16.47,5.88,4.89,1.24,9.68.91,14.46.75,7.02-.25,13.79,2.24,20.81,1.41.45-.05.96.39,1.45.6,2.57.36,5.31-.99,7.75.73,3.23.76,6.42,1.59,9.41,3.11.66.34,2.05.58,2.12-.58.36-5.84,3.95-2.56,5.79-1.76,4.94,2.15,9.74,4.65,14.62,6.95,6.62,3.12,13.21,6.57,18.27,12.25,3.37,3.79,7.19,7.17,10.68,10.86,1.44,1.53,2.53,3.39,3.75,5.07,2.6-1.18,3.23-3.92,4.24-6.38.2-.5.18-1.11.92-1.14.75-.03.67.67.97,1.07,1.32,1.78,2.17,3.86,3.33,5.66,1.7,2.62,1.78,5.42,2.57,8.17,1.08,3.76,1.06,7.46,1.09,11.23,0,1.41.22,2.86-.92,4.08,1.63-.98,3.31-1.88,4.86-2.97.85-.6,1.78-1.52,2.6-.68.88.91.84,2.59.12,3.48-.73.91-1.28,1.84-.76,2.65.94,1.46.91-.83,1.84-.66,2.09.37,3.58-.85,4.96-2.29.92-.95,1.72-.69,1.85.68.43,4.73-1.11,8.96-3.67,12.78-1.18,1.77-1.64,3.67-2.1,5.62-.14.59.2,1.36-.05,1.85-3,5.77,2.35,2,3.48,3.01.74.66,1.63-1.86,2.14-.36.46,1.37.82,3.22-.53,4.61-.16.17-.38.28-.54.44-4.62,4.57-3.94,5.74,1.94,8.92,4.33,2.34,9.01,4.73,12.23,8.61,3.42,4.12,6.1,8.83,9.23,13.2.99,1.38,2.32,2.53,3.58,3.7.3.27.97.82,1.38.1.14-.25-.09-.86-.33-1.17-2.27-2.91-3.87-6.35-6.9-8.64-.9-.68-.93-1.69-1.11-2.66-.42-.28-1.11-.33-1.03-1.06.02-.15.3-.35.49-.38.74-.11.9.43,1.02.99,3.48.2,5.5,2.91,7.73,4.92,2.86,2.56,5.64,5.49,7.52,8.8,1.46,2.56,3.26,5.18,3.53,8.44.25,2.98,3.6,3.25,5.31,5.04,2.03,2.12,4.73,3.58,7.05,5.49,4.23,3.46,8.36,7.15,13.52,9.43,3.25,1.44,6.73,3.11,6.8,7.72.02,1.66,2.08,1.8,3.16,2.34,5.65,2.82,11.71,4.91,17.18,8.02,8.55,4.87,17.33,9.76,22.31,18.82,1.19,2.16,1.25,5.1-.34,7.49v-.03Z" fill="#fdbb2e" stroke-width="0"/></g></svg>