<?xml version="1.0" encoding="UTF-8"?><svg id="b" xmlns="http://www.w3.org/2000/svg" viewBox="0 0 700 700"><g id="c"><circle cx="350" cy="350" r="350" fill="#045380" stroke-width="0"/><path d="M509.84,96.73c4.09,2.51,6.85-.58,9.99-2.16-4.14-12.21-15.38-18.88-26.6-15.94-10.24,2.68-17.38,13.94-15.23,24.03,2.61,12.29,14.74,19.38,29.63,16.96,2.64-4.42,5.44-9.08,7.96-13.29-2.14-4.13-5.99-4.61-8.14-7.16.8-.81,1.6-1.62,2.39-2.43ZM586.98,342.67c1.07-60.94-32.65-152.29-122.95-199.97-86.4-45.62-171.79-40.18-252.56,14.9-67.4,45.95-101.01,126.05-98.74,185.07h474.25ZM356.9,588.02c109.4,3.14,229.36-95,230.47-230.81h-230.47v230.81ZM326.2,355.72c-52.34,52.45-103.16,103.37-154.39,154.7,4.61,5.94,10.16,12.1,16.3,16.57,52.02-52.1,103.32-103.49,155.52-155.78-.59-3.86,1.01-9.41-.92-15.21-6.04-.91-11.88-.74-16.52-.28ZM255.46,355.98c-38.47,38.51-75.63,75.71-113.31,113.43,3.04,6.23,7.19,13.47,12.92,19.71,12.47-9.64,127.61-125.58,132.13-133.14h-31.75ZM229.91,557.74c37.96-38.01,75.39-75.5,113.37-113.54v-31.86c-43.88,44-88.19,88.43-132.71,133.07,5.66,4.26,12.44,9.22,19.34,12.33ZM181.44,356.01c-20.8,21.03-40.8,41.25-61.45,62.13,2.92,7.47,4.03,16.79,8.73,23.03,28.56-28.6,56.97-57.04,85.05-85.16h-32.33ZM255.66,570.62c7.89,4.31,16.66,7.05,24.62,9.19,21.21-21.21,41.88-41.88,63.41-63.41-.39-10.23.73-21.85-.68-33.33-29.15,29.22-57.92,58.05-87.35,87.54ZM64.38,275.32c-7.45,3.42-14.12,6.49-20.19,9.28-2.08,3.76-2.96,6.85-1.71,11.17,11.97,2.93,24.32,5.95,37.43,9.15-.03-4.65,2.85-7.37,1.02-11.37-5.01-1.39-10.35-2.88-17.76-4.94,9.17-4.29,16.13-7.54,22.76-10.63,1.01-3.32,2.88-5.84,1.65-10.03-11.94-2.98-24.36-6.08-36.9-9.21-2.08,3.76-3.37,6.98-2.75,10.26,5.04,3.33,10.81,2.34,16.43,6.31ZM138.6,120.15c8.25,10.34,16.24,20.34,24.19,30.3,3.84-2.5,6.89-3.91,8.23-7.12-1.44-5.34-7.85-7.72-8.21-14.29,7.97-.15,14.71,3.64,22.31,4.15,1.89-1.57,3.91-3.16,5.79-4.89.46-.43.48-1.33.85-2.47-8.1-9.55-15.23-20.25-24.18-29.3-3.64,2.03-6.51,3.69-7.64,7.1,1.74,4.44,6.56,7.02,7.34,12.33-3.65,1.46-6.85.11-9.99-.58-3.61-.79-7.1-2.16-10.97-1.83-2.81,1.04-4.99,2.99-7.71,6.6ZM622.09,361.3c.21,12,9.77,21.5,21.26,21.11,11.84-.4,20.49-9.85,20.26-22.13-.23-12.12-9.51-21.3-21.32-21.09-11.62.21-20.41,9.83-20.2,22.11ZM649.24,261.77c-4.45-.57-8.24,2.69-13.03,2.58-2.08-3.34-3.47-6.99-3.35-10.8,3.34-3.97,8.86-2.69,12.14-6.43-.41-3.17-.7-6.42-4.05-9.18-12.29,2.52-24.19,7.22-36.18,11.14-.06,4.42,1.28,7.3,3.31,9.69,4.8,1.26,8.54-3.08,13.42-1.79,1.74,3.49,3.99,6.89,2.75,11.04-3.58,3.2-8.86,2.29-12.21,6.1.55,2.02,1.02,4.18,1.75,6.26.34.96,1.21,1.74,2.33,3.29,12.14-3.9,24.33-7.81,37.07-11.91-1.34-3.98-1.5-7.29-3.95-10ZM660.6,310.09c-.13-12.46-8.86-21.76-20.52-21.87-11.82-.11-20.71,9.19-20.6,21.57.11,12.2,9.13,22.03,20.58,21.83,11.74-.2,21.48-9.32,20.54-21.53ZM415.99,44.28c-3.85,13.57-7.33,25.81-10.73,37.77,3.89,2.52,6.87,3.62,10.16,2.61,3.37-3.27,2.05-8.77,6.12-11.74,3.89.62,8.06.3,10.75,3.87-.34,4.58-3.54,8.42-2.17,13.07,3.09,1.65,6.12,2.67,10.31,1.45,3.39-11.61,6.87-23.56,10.33-35.41-3.49-2.95-6.83-3.71-10.03-3.86-3.34,4.06-2.44,9.17-5.69,12.69-4.14-.35-7.95-1.22-11.13-3.66-.32-4.67,3.66-8.53,1.2-13.77-2.26-.74-4.96-1.63-9.13-3.01ZM540.75,154.14c8.32-9.63,16.71-19.35,25.64-29.7-3.6-2.37-5.2-5.98-9.18-6.32-4.19,2.2-5.51,7.27-10.31,8.93-2.49-2.57-6.02-4.14-8.06-8.01,2.45-3.37,5.02-6.9,7.58-10.43-2.1-3.44-4.52-5.96-8.81-7.02-8.29,9.77-16.57,19.51-25.18,29.64,3.59,2.54,5.4,5.42,8.5,6.37,4.73-2.07,5.81-8.12,11.13-9.04,2.88,2.33,6.31,3.98,7.7,7.41-1.27,4.76-6.25,6.75-7.11,11.4,1.71,3.05,4.2,5.06,8.08,6.75ZM127.57,136.44c-14.22,4.76-21.92,15.13-19.78,25.99,2.02,10.22,11.38,17.79,21.48,17.37,11.92-.5,20.47-10.28,21.84-25.58-4.06-3.57-8.41-7.4-13.02-11.45-4.72,4.82-8.91,8.85-11.49,14.01,1.49,2.28,2.92,3.93,5.24,4.19,2.74-.13,4.32-5.12,8.02-1.2-1.01,5.12-4.57,7.71-9.41,8.92-6.99-.89-10.68-4.86-11.78-11.05.9-6.83,6.36-9.03,11.14-11.89-.51-3.18.11-6.22-2.24-9.31ZM331.69,38.1c-4.53,1.27-8.45-.81-11.07,3.65.33,4.29.64,8.7,1.01,13.12.36,4.33,2.43,8.74-.84,13.07-2.99,2.73-6.24,3.23-10.21-.14-4.77-7.64-1.15-17.75-5.5-26.98-3.36,1.61-7.37-.31-10.15,3.48.71,6.94,1.12,13.97,2.19,20.9,1.87,12.1,8.41,16.65,21.26,15.34,10.95-1.11,16.35-7.16,15.84-18.67-.33-7.35-1.52-14.66-2.52-23.77ZM78.39,419.39c4.38-5.9,4.27-12.22,3.3-18.48-1.4-9.03-7.43-14.73-14.37-14.24-6.87.49-10.33,5.19-11.46,15.27-.33,2.96,1.1,6.77-3.24,8.54-3.7-4.64-.65-9.41-.86-13.95-2.38-2.03-4.97-3.21-8.27-3.33-3.96,6.06-3.88,12.45-1.59,19.04.36,1.05.69,2.12,1.2,3.1,2.76,5.28,7.3,7.89,12.58,7.29,5.58-.63,8.45-3.7,10.31-10.1,1.25-4.3-.86-9.49,3.31-14.01,4.96,6.04,1.11,11.86,1.32,17.14,2.2,1.87,4.19,3.44,7.78,3.73ZM582.05,186.58c-8.39-3.94-8.11-10.87-10-15.92-3.44-.63-6.33-1.78-9.05,1.08-.69,6.93,2.22,12.91,6.31,18.25,7.08,9.24,15.88,8.78,23.39-.78,2.51-7.64-3.63-13.96-3.98-21.73,7.98,1.47,5.43,9,9.33,12.21,2.75.63,5.63,1.59,8.08-1.01-.81-11.2-6.19-20.05-13.78-22.01-6.58-1.7-11.61.59-13.18,3.71-4.16,10.71,1.9,17.05,2.88,26.21ZM220.44,102.71c2.38,1.4,4.55,2.68,7.2,4.25,2.6-2.38,6.68-2.55,8.84-6.97-11.04-8.68-22.03-17.32-32.75-25.74-3.92,1.4-6.78,2.98-9.79,5.83,1.24,13.62,2.3,27.6,4.76,41.66,4.05-.84,7.1-2.62,9.39-4.78,1.68-2.78-.35-5.77,2.84-8.83,2.34-1.33,5.85-3.33,9.51-5.41ZM377.15,43.45c-4.61-4.5-10.01-5.56-15.63-5.69-8.75-.19-14.42,3.97-15.58,11.13-.98,6.03,2.45,10.35,10.56,13.51,3.23,1.26,7.25,1.2,9.67,5.16-6.73,4.17-11.41-1.12-16.76-2.7-2.11,2.19-4.99,3.46-5.42,7.59,5.79,5.42,13.15,7,21.08,6.61,2.15-.11,4.37-.87,6.36-1.77,4.44-2.02,6.74-5.82,7.01-10.54.28-4.94-2.48-8.26-6.69-10.61-4.22-2.35-9.93-1.91-13.71-6.58,6.03-4.59,10.16,2.04,14.91,1.11,1.91-1.88,3.88-3.6,4.21-7.2ZM37.19,364.91c12.97,5.09,25.82,10.13,39.97,15.68-.27-5.18.17-8.41-1.28-11.54-1.64-2-4.82-2.07-6.08-5.08-.57-3.68-.68-7.7.26-12.02,1.81-1.47,3.76-3.05,5.64-4.58.17-3.76,1.32-7.34-1.46-10.93-12.87,5.74-25.29,11.28-37.14,16.56-1.53,4.15-1.38,7.38.1,11.91ZM629.81,226.39c3.53-15.24-2.16-26.49-14.37-29.51-10.88-2.69-22.54,4.77-25.18,16.12-2.71,11.61,4.35,21.73,17.27,24.63,2.12-2.38,1.82-5.42,2.25-8.32-2.13-3.03-6.67-3.5-7.88-7.6q-.4-9.74,9.91-13.71c3.31.71,6.32,1.92,8.2,6.04.2,2.49.46,5.71.69,8.59,2.87,2.01,5.28,3.65,9.1,3.76ZM99.54,239.85c-8.57-5.51-18.39-7.16-25.86-12.85.67-3.78,3.28-6.38,2.85-9.86-2.36-2.05-4.85-3.5-8.77-2.89-4.66,9.87-9.34,20.09-13.13,31.02,3.68,1.51,5.79,4.11,8.8,2.72,2.76-2.45,2.4-6.65,6.61-8.47,7.98,3.27,16.42,6.72,25.2,10.32,2.25-3.03,3.56-5.95,4.31-10ZM258.84,92.03c-3-8.37-6.08-16.98-9.05-25.28,2.45-3.63,7.41-2.68,9.16-6.54-.09-2.99-.59-5.82-3.77-7.92-10.04,3.75-20.55,6.89-30.81,12.09.73,3.48.72,6.82,4.29,8.54,3.17-.42,5.99-3.02,9.48-1.55,4.96,7.86,5.76,17.51,10.94,24.87,4.08-.12,7.2-.84,9.76-4.22ZM422.04,657.66c11.57-3.37,23.2-4.32,25.99-17.56,1.48-7.02-.55-13.54-6.6-17.64-10.03-6.78-19.43-2.16-29.47,2.11,3.42,11.25,6.62,21.73,10.08,33.09ZM393.95,649.4c-4.46-4.41-7.85-8.34-11.83-11.55-3.82-3.09-5.98-9.91-14.07-6.93,1.16,11.52,2.32,22.7,4.9,33.41,2.51.81,4.22.79,5.54-1.24,1.01-6.44-2.97-12.8-1.17-19.5,9.58,4.05,13.13,16.48,25.53,18.9-.71-12.96-2.31-24.11-4.53-34.89-2.42-1.05-4.07-.94-5.48.96-1.32,6.45,2.14,12.85,1.11,20.85ZM659.07,397.88c-12.2-3.24-24.83-5.2-37.94-7.44-2.95,9.81-5.04,19.3-5.67,28.85,3.28,2.05,5.96,2.84,8.85,1.35,3.48-5.01.9-11.95,5.64-16.72,8.93,1.58,17.88,3.16,26.77,4.73,1.68-3.8,3.19-6.69,2.35-10.78ZM312.56,586.96c9.6,2.75,20.04,2.19,31.19,3.4-.44-12.6.75-23.68-.88-34.84-10.41,10.79-20.23,20.98-30.31,31.44ZM271.58,635.45c-4.35-3.71-10.9-2.5-14.69-6.5.09-2.93.85-4.88,2.33-5.8,6.85-1.69,12.71,7.15,20.37.26-8.39-5.37-17.04-6.38-25.59-9.04-3.85,11.5-7.82,22.11-9.71,33.23,18.36,7.08,22.74,8.23,24.66,6.56.98-1.26,1.35-2.57.2-4.16-4.69-3.38-11.35-2.71-15.96-6.7-.12-2.68-.19-5.23,2.78-6.8,4.53,1.25,9.14,2.52,13.24,3.65,2.06-.97,2.9-2.02,2.38-4.7ZM503.7,602.98c.98,10.08,3.19,13.22,9.05,13.6,6.5.43,14.38-5.14,16.13-11.4,1.64-5.87-.19-8.55-9.02-12.99-.72-6.11-2.64-11.47-10.44-11.78-6.37,1.44-11.87,4.35-13.41,11.42-1.26,5.77,2.61,8.76,7.69,11.14ZM543.72,557.92c-13-.57-17.42,3.69-16.8,16.19,1.37,4.24,5.91,4.38,8.37,6.87,2.51,9.19,5.21,11.97,11,11.42,5.96-.56,12.95-6.83,14.15-12.68,1.24-6.04-1.15-8.88-10.89-12.89-1.05-3.42-1.69-7.24-5.83-8.91ZM188.03,586.75c5.63,1.75,9.68,7.4,16.05,8.75.64-1.49,2.35-2.19,1.08-5.58-5.77-3.82-12.67-8.38-20.06-13.26-6.82,10.28-12.91,19.47-19.27,29.07,7.43,5.66,13.94,11.35,23.42,14.57.39-10.59-11.23-9.39-13.34-16.24.17-2.38,1.83-3.77,3.64-5.07,5.47,1.06,8.9,6.43,14.23,7.25,1.54-1.31,2.71-2.24,2.06-4.21-1.07-2.4-3.73-3.19-5.75-4.73-2.05-1.56-4.49-2.66-5.85-5.1.19-2.28.98-4.22,3.79-5.45ZM563.17,548.52c-1.83-3.38-3.11-5.67-1.66-9.19.72-.77,1.86-2.24,3.24-3.4,1.6-1.35,4.3-1.7,3.86-4.71-.35-.63-.55-1.57-1.08-1.83-.91-.45-2.15-.87-3.04-.61-5.42,1.63-10.13,7.69-10.48,13.2-.53,8.19,9.95,19.93,18.66,20.91,8.39.95,13.02-3.43,15.72-14.93-1.17-5.46-4.01-9.55-9.98-10.38-7.61-1.06-11.09,4.48-15.24,10.94ZM331.46,657.75h13.51c3.61,2.13,2.9,6.61,6.18,8.24,1.84.61,3.59.83,5.01-1.79-3.81-9.55-7.76-19.47-11.7-29.38-1.17-2.95-2.69-5.34-8.36-4.07-4.75,10.33-10.82,21.35-15.6,33.69q6.58-.63,10.97-6.68ZM113.25,384.18c9.29-9.3,18.71-18.73,28.49-28.52-9.56-.31-19.6-.68-30.76.49.56,10.13-.63,19.91,2.27,28.03ZM243.38,610.39c-12.25-2.85-14.93,10.74-24.52,13.69-1.26-8.45,1.99-16.73.52-25.62-1.95.01-3.05-2.94-6.25-.98-1.13,11.41-1.38,23.21-1.27,35.01.01,1.57,1.4,2.49,4.45,3.77,9.49-7.12,18.31-16.25,27.07-25.87ZM145.97,547.72c-1.12-12.5-8.29-19.6-19.21-19.03-9.48.5-17.38,8.67-17.48,18.08-.11,10.03,6.85,16.83,18.19,17.62.39-.93.8-1.91,1.45-3.48-6.24-3.45-14.17-5.88-12.57-15.44.81-4.84,5.72-9.43,10.66-9.97,9.8-1.08,11.64,6.97,14.32,13.24,2.09.17,3.59.43,4.64-1ZM279.09,47.31c-4.29-.65-7.7-.07-10.95,2.92,3.32,12.28,5.1,24.95,9.92,36.58,4.28.23,7.41-.34,10.04-3.56-2.26-12.04-5.48-24.04-9.01-35.94ZM467.13,62.44c-4.97,11.65-9.98,23.38-14.93,34.98,4.01,2.43,6.68,4.45,11,3.89,4.66-11.61,10.63-22.96,14.67-35.66-3.55-1.38-5.74-3.53-10.75-3.21ZM118.08,205.88c2.73-4.1,6.09-6.27,5.31-10.59-10.86-6.73-20.59-14.64-31.52-20.21-3.28,2.78-5.58,5.07-5.43,9.71,10.04,6.69,20.45,13.64,31.64,21.1ZM38.43,324.78c13.01,1.03,25.28,3.76,37.78,3.32,2.05-3.36,2.11-6.5.97-10.43-12.52-1.6-25.1-3.99-37.68-3.43-1.98,3.43-1.77,6.32-1.07,10.53ZM296.55,626.49c-2.13-1.58-3.99-2.29-6.04.54-1.16,10.48-4.47,21.07-4.78,32.46,8.11,1.73,15.54,3.41,22.81,3.73,1.99-2.06,1.82-3.71.64-5.35-4.55-2.82-10.43-.69-15.15-4.48-1.14-8.91,3.78-17.67,2.53-26.9ZM157.47,593.21c-2.04-5.4-8.84-7.08-11.63-13.01,5.85-6.88,11.76-13.83,17.46-20.54-1.24-2.47-2.15-4.01-5.06-4.01-7.28,7.99-15.2,16.04-22.14,25.56,6.02,5.72,11.42,11.16,17.58,15.19,2.08-.49,3.29-1.15,3.8-3.2ZM495.56,627.08c-5.27-9.5-9.99-20.06-16.61-30.05-4.6,3.49-8.12,6-9.68,9.76,2.16,5.92,6.12.41,8.3,2.02,5.69,7.16,7.4,16.36,13.87,22.29,2.05-.79,3.24-1.59,4.11-4.02ZM606.1,492.98c3.71-1.75,8.16-1.79,11.98-5.53-1.66-3.98-1.87-8.37-5.47-12.36-3.67,2.14-8.39,1.58-11.87,5.71,1.18,3.92,1.4,8.3,5.37,12.17ZM79.69,488.02c4.98-.3,8.32,4.44,13.11,1.12,1.21-3.74,3.95-7.16,1.97-11.95-3.23-1.85-6.97-2.94-10.95-3.36-3.68,3.65-3.97,7.94-4.13,14.19Z" fill="#045380" stroke-width="0"/><path d="M586.98,342.67H112.73c-2.28-59.03,31.34-139.12,98.74-185.07,80.78-55.07,166.16-60.52,252.56-14.9,90.3,47.68,124.02,139.03,122.95,199.97ZM471.7,216.24c-1.17,2.76-1.91,5.61-3.45,7.91-4.9,7.3-4.27,14.63-.88,22.18,1.67,3.72,3.46,7.41,4.73,11.27,1.83,5.57.46,10.01-6.59,13.01-1.02-5.42-2.35-10.38-5.91-14.24-12.46-13.51-11.7-27.92-2.97-42.96,2.97-5.12,5.75-10.33,7.76-15.98,2.58-7.23,2.21-13.96-2.24-20.1-2.29-3.17-2.96-6.66-3.94-10.2-.26-.93-1.36-1.63-2.06-2.41-1.66,1.04-3.16,1.99-4.53,2.85-2.42-1.57-.18-5.72-4.53-6.21-7.12,12.23-20.28,16.31-32.98,21.23,4.82,8.8,14.22,3.17,20.87,8.81-5.81.6-9.94,1.02-14.25,1.46,2.21,6.83,8.71,4.25,13.11,8.11-7.11,7.14-17.81,9.61-21.33,18.79-8.64-2.05-15.2-5.6-22.07-8.4-3.42-1.39-6.89-2.96-10.48-3.55-5.33-.87-7.69,1.45-9.02,8.3,16.24-3.78,25.15,7.1,35.09,16.77-5.31,5.85-10.54,10.88-16.97,14.6-2.64-4.3-2.03-9.25-5.06-12.73h-68.76c-2.75,4.07-2.75,8.62-4.48,13.28-6.91-4.46-12.14-9.47-17.3-15.01,4.83-5.88,10.59-9.89,16.07-14.3,5.97-4.81,13.52-1.13,20.16-4.06-1.54-5.32-4.95-7.04-9.3-6.93-4.13.11-7.85,2.03-11.6,3.62-7.11,3.01-13.96,6.77-22.77,8.46-2.34-10.83-14.52-11.35-20.46-19.33,4.17-3.54,11.35-.46,13.17-7.1-4.01-3-9.07.59-12.92-2.82,5.29-4.81,14.87.75,19.65-8.01-13.6-4.84-26.39-9.44-33.68-21.73-3.72,1.9-.43,6.05-3.51,7.55-2.44-.8-3.45-4.3-6.7-3.16-1.44,2.98-.21,6.58-2.58,9.48-7.98,9.78-6.03,19.94-.77,30.16,3.06,5.94,6.16,11.86,8.9,17.94,4.54,10.08,2.97,19.8-3.46,28.37-4.45,5.94-8.47,11.96-10.5,19.36-7.51-6.62-8.64-9.33-3.62-18.45,7.06-12.85,6.14-24.31-2.97-35.58-4.24,3.65-5.14,8.7-4.3,13.3,1.34,7.37-.53,13.93-2.62,20.69-.98,3.17-1.8,6.48-2.01,9.77-.59,9.09,3.35,14.92,11.77,17.94,2.03.73,4.53-.04,6.57,2.34,1.36,6.2,7.87,8.85,11.35,13.12,1.71,8.15-5.56,10.47-8.53,15.61-.24,8.73.98,17.29,4.65,25.23,3.93.56,7.2,1.43,10.15-.78.67-4.53-4.94-4.11-5.61-6.97v-12.47c9.6-3.48,17-9.87,20.59-19.64,8.46,1.48,9.86,2.92,8.8,9.54-.57,3.58-2.51,7.05.98,11.75,7.94-3.1,17.16-2.82,25.68-7.02-4.69-10.6-12.91-.59-18.46-3.9,1.83-10.3,9.89-19.81,3.88-29.87-7.58-6.14-17.88-4.37-23.83-13.01,4.94-7.78,13.84-11.74,18.59-19.52,7.33,2.81,13.08,6.91,19.33,10.73,1.39,4.38,2.85,8.97,6.59,12.39-.97,8.25,1.4,15.61,4.55,22.82,3.11,7.12,11.27,10.57,12.54,18.71,5.96-2.07,38.6-1.82,45.1-.32.96-5.17,4.64-8.65,8.21-12.31,3.97-4.08,6.47-9.28,7.29-14.79,1.43-9.54,3.89-18.61,8.88-27.09,5.98-3.36,11.46-7.94,19.03-10.03,3.55,8.53,14.46,10.94,17.4,20.2-3.36,5.03-8.25,5.67-12.79,7.11-12.57,3.99-14.47,7.62-10.85,20.68,1.42,5.14,3.18,10.19,4.85,15.47-7.07.28-14.19-6.88-19.92,3.35,9.76,2.19,18.82,4.21,27.59,6.18,3.78-7.08-3.06-12.78.89-18.83,1.86-2.14,4.41-3.14,8.3-1.47,3.08,9.82,11.76,14.95,20.98,19.94-2.48,4.06.65,7.71-1.12,12.37-.54,2-6.41,1.54-4.76,6.4,3.21,1.45,6.41,1.22,10.35-.1,2.56-8.11,4.29-16.61,4.04-24.97-4-5.01-10.47-7.87-8.06-16.36,4.45-3.11,9.14-7.3,11.43-13.05,16.63-4.4,21.24-12.08,16.04-27.75-2.51-7.58-3.5-15.1-3.13-22.96.23-4.87.1-9.72-5.29-12.69ZM344.39,176.2c-.94,3.47-5.62,5.22-4.46,9.59.19,3.52,4.53,4.74,4.8,7.88-1.4,3.5-5.23,5.09-4.87,8.9-.11,3.82,3.66,5.4,4.73,8.47-1.19,3.44-5.52,5.33-4.53,10.48,1.43,3.64,4.7,6.44,8.91,8.71,4.56-2,7.83-5.17,9-7.94,1.24-6.35-3.9-7.85-4.16-11.61,1.39-3.01,5.09-4.69,4.61-8.64.06-3.73-4.17-5.05-4.94-8.88,1.13-2.67,4.79-4.27,4.98-8.73,1.21-3.65-4.67-4.83-4.56-8.77,1.3-3.01,5.08-4.66,4.51-8.62.3-3.8-3.97-5.07-4.77-8.42.82-3.54,5.64-5.15,4.75-9.5.19-3.79-4.21-4.99-4.74-8.4,1.11-3.47,5.71-5.2,4.43-10.93-1.57-3.29-4.33-6.92-10.14-7.72-3.82,2.67-8.03,5.03-8.15,9.02.27,5.34,4.31,6.79,4.94,10.23-1.5,2.85-5.04,4.49-4.86,8.94-.71,3.71,4.46,5.13,4.81,8.95-1.72,2.76-5.18,4.47-4.86,8.63-.29,3.51,3.68,5.07,4.57,8.35Z" fill="#f9fbfb" stroke-width="0"/><path d="M356.9,588.02v-230.81h230.47c-1.12,135.8-121.08,233.95-230.47,230.81ZM458.27,427.7c3.53,2.14,6.51,2.21,9.92-.68v-21.75c5.33,3.95,6.44,10.06,10.87,13,5.06-3.06,5.27-10.05,11.93-12.54v23.09c3.25.15,5.69,1.28,8.31-.9v-41.32c-3.66-.01-6.82-1.22-10.06,1.06-3.62,4.29-5.47,10.15-10.47,14.6-3.48-5.41-6.63-10.31-9.98-15.52-1.81-.15-3.61-.38-5.42-.42-1.83-.04-3.75-.15-5.09,1.99v39.38ZM442.91,511.95c4.85-6.86,2.76-14.26,3.11-21.36.38-7.78.04-15.59.1-23.39.05-7.26.22-14.52.34-22.57,4.86,0,8.52,0,12.19,0,15.97,0,31.94.04,47.91-.04,2.32-.01,5.42.92,6.03-4.53-7.24-.17-14.42-.4-21.6-.48-7.43-.08-14.85-.02-22.28-.02h-21.36c-1.89-5-1.18-8.73-1.2-12.37-.09-16.34-.01-32.68-.08-49.02,0-2.39.72-5.52-4.76-5.59v66.98c-4.99,0-8.63,0-12.27,0-16.34,0-32.68-.06-49.02.06-2.59.02-6.22-1.41-7.27,4.53,22.6,1.25,45.07-.25,68.08.84.82,22.86-.25,44.97,2.07,66.95ZM496.42,461.41c-12.25-8.68-24.99-7.8-33.15,1.93-7.3,8.71-6.77,22.36,1.2,30.41,8.4,8.49,21.68,8.14,33.47-1.16.22-5.89,1.15-12.08-.68-18.45-5.85-.59-11.3-.86-16.48.13-1.94,2.77-1.87,5.14-.47,7.39,2.58,1.63,6.28-.42,8.04,2.81.78,2.79-.43,4.35-2.86,5.2-3.28,1.15-6.57,1.15-9.77-.23-6.25-2.7-8.99-10.34-6.11-16.9,3.61-8.21,9.06-9.37,21.54-4.55,2.31-1.33,3.7-3.45,5.27-6.58ZM390.99,456.72v40.65c1.94,1.95,3.86,1.69,5.68,1.69,4.46,0,8.95.26,13.36-.18,11.48-1.16,19.08-9.41,19.44-20.66.34-10.72-6.28-19.39-17.13-21.55-6.88-1.37-13.9-1.09-21.34.05ZM402.11,385.98c-5.95,14.3-11.67,28.08-17.4,41.84,3.95,1.89,6.72,1.82,9.47.27,1.39-2.59,2.75-5.13,4.2-7.82,5.69-.59,11.11-.89,15.84.09,3.39,2.56,2.56,7.02,6.32,8.57,2.53.11,5.56,1.5,7.9-1.98-5.68-13.47-11.37-26.99-16.96-40.26-1.67-.43-2.7-.86-3.76-.92-1.46-.09-2.93.1-5.61.22Z" fill="#f9fbfb" stroke-width="0"/><path d="M326.2,355.72c4.64-.46,10.47-.64,16.52.28,1.92,5.8.33,11.35.92,15.21-52.2,52.29-103.51,103.68-155.52,155.78-6.14-4.47-11.69-10.63-16.3-16.57,51.23-51.33,102.05-102.25,154.39-154.7Z" fill="#dbb20e" stroke-width="0"/><path d="M255.46,355.98h31.75c-4.52,7.55-119.66,123.5-132.13,133.14-5.74-6.23-9.88-13.47-12.92-19.71,37.68-37.72,74.84-74.92,113.31-113.43Z" fill="#dbb20e" stroke-width="0"/><path d="M229.91,557.74c-6.9-3.1-13.68-8.06-19.34-12.33,44.52-44.64,88.83-89.07,132.71-133.07v31.86c-37.98,38.04-75.41,75.52-113.37,113.54Z" fill="#dbb20e" stroke-width="0"/><path d="M181.44,356.01h32.33c-28.08,28.11-56.49,56.56-85.05,85.16-4.7-6.23-5.81-15.55-8.73-23.03,20.65-20.88,40.65-41.1,61.45-62.13Z" fill="#dbb20e" stroke-width="0"/><path d="M255.66,570.62c29.43-29.49,58.2-58.33,87.35-87.54,1.4,11.48.29,23.1.68,33.33-21.53,21.53-42.2,42.2-63.41,63.41-7.96-2.14-16.73-4.89-24.62-9.19Z" fill="#dbb20e" stroke-width="0"/><path d="M64.38,275.32c-5.62-3.97-11.39-2.99-16.43-6.31-.62-3.28.67-6.5,2.75-10.26,12.54,3.13,24.97,6.23,36.9,9.21,1.23,4.2-.64,6.71-1.65,10.03-6.63,3.1-13.59,6.35-22.76,10.63,7.41,2.06,12.74,3.54,17.76,4.94,1.83,4-1.06,6.72-1.02,11.37-13.11-3.21-25.46-6.23-37.43-9.15-1.25-4.32-.37-7.41,1.71-11.17,6.07-2.79,12.74-5.86,20.19-9.28Z" fill="#dbb20e" stroke-width="0"/><path d="M138.6,120.15c2.72-3.61,4.9-5.56,7.71-6.6,3.87-.34,7.36,1.04,10.97,1.83,3.14.69,6.35,2.03,9.99.58-.78-5.31-5.6-7.89-7.34-12.33,1.13-3.41,4-5.07,7.64-7.1,8.95,9.05,16.07,19.75,24.18,29.3-.37,1.14-.38,2.05-.85,2.47-1.88,1.73-3.9,3.32-5.79,4.89-7.6-.5-14.34-4.3-22.31-4.15.36,6.58,6.77,8.95,8.21,14.29-1.33,3.2-4.39,4.61-8.23,7.12-7.95-9.96-15.94-19.97-24.19-30.3Z" fill="#dbb20e" stroke-width="0"/><path d="M622.09,361.3c-.21-12.28,8.58-21.9,20.2-22.11,11.81-.21,21.09,8.96,21.32,21.09.23,12.28-8.42,21.72-20.26,22.13-11.49.39-21.05-9.11-21.26-21.11ZM642.35,351.07c-8.2,3.4-10.34,5.96-9.44,11.32.81,4.8,5.32,8.25,10.49,8.03,4.62-.2,8.75-3.61,9.55-7.89,1.05-5.59-1.7-8.56-10.6-11.46Z" fill="#dbb20e" stroke-width="0"/><path d="M507.44,99.16c2.15,2.55,6,3.03,8.14,7.16-2.52,4.21-5.32,8.88-7.96,13.29-14.89,2.42-27.02-4.66-29.63-16.96-2.14-10.09,4.99-21.35,15.23-24.03,11.22-2.94,22.46,3.73,26.6,15.94-3.14,1.58-5.9,4.67-9.99,2.16-.75-1.28-1.29-2.74-2.28-3.8-3.33-3.57-7.3-5.2-11.98-2.76-4.4,2.29-6.51,6.22-5.92,11.05.6,4.93,3.68,8.01,8.8,8.48.89.08,1.86-.81,2.61-1.17.29-3.43-3.97-3.56-4.05-6.64.5-2.46,1.38-4.76,4.31-5.49,2.09.94,4.11,1.85,6.13,2.76Z" fill="#dbb20e" stroke-width="0"/><path d="M649.24,261.77c2.44,2.71,2.61,6.02,3.95,10-12.74,4.09-24.93,8.01-37.07,11.91-1.13-1.55-1.99-2.33-2.33-3.29-.74-2.07-1.2-4.24-1.75-6.26,3.35-3.82,8.63-2.9,12.21-6.1,1.24-4.16-1.02-7.55-2.75-11.04-4.87-1.29-8.61,3.05-13.42,1.79-2.03-2.4-3.37-5.28-3.31-9.69,11.99-3.92,23.88-8.62,36.18-11.14,3.35,2.76,3.64,6.01,4.05,9.18-3.28,3.75-8.8,2.47-12.14,6.43-.12,3.81,1.27,7.46,3.35,10.8,4.79.11,8.58-3.15,13.03-2.58Z" fill="#dbb20e" stroke-width="0"/><path d="M660.6,310.09c.95,12.21-8.8,21.33-20.54,21.53-11.46.2-20.48-9.62-20.58-21.83-.11-12.38,8.78-21.68,20.6-21.57,11.66.11,20.39,9.41,20.52,21.87ZM650.61,309.86c-1.5-6.51-4.92-9.77-11.18-9.27-6.17.49-9.13,4.19-9.83,10.06,1.39,5.23,4.24,8.64,10.02,8.72,6.22.08,9.47-3.36,10.99-9.52Z" fill="#dbb20e" stroke-width="0"/><path d="M415.99,44.28c4.17,1.37,6.87,2.26,9.13,3.01,2.46,5.24-1.52,9.1-1.2,13.77,3.18,2.44,6.99,3.31,11.13,3.66,3.24-3.51,2.34-8.63,5.69-12.69,3.2.15,6.54.92,10.03,3.86-3.46,11.85-6.94,23.8-10.33,35.41-4.2,1.22-7.23.2-10.31-1.45-1.37-4.64,1.83-8.49,2.17-13.07-2.69-3.57-6.87-3.25-10.75-3.87-4.07,2.97-2.75,8.47-6.12,11.74-3.29,1.01-6.28-.09-10.16-2.61,3.39-11.95,6.87-24.2,10.73-37.77Z" fill="#dbb20e" stroke-width="0"/><path d="M540.75,154.14c-3.88-1.69-6.37-3.7-8.08-6.75.85-4.65,5.84-6.64,7.11-11.4-1.39-3.42-4.81-5.08-7.7-7.41-5.32.92-6.4,6.97-11.13,9.04-3.11-.96-4.91-3.83-8.5-6.37,8.61-10.14,16.88-19.88,25.18-29.64,4.29,1.05,6.71,3.58,8.81,7.02-2.57,3.53-5.13,7.06-7.58,10.43,2.04,3.87,5.57,5.44,8.06,8.01,4.8-1.65,6.12-6.73,10.31-8.93,3.97.34,5.58,3.95,9.18,6.32-8.93,10.34-17.32,20.06-25.64,29.7Z" fill="#dbb20e" stroke-width="0"/><path d="M127.57,136.44c2.36,3.09,1.73,6.12,2.24,9.31-4.78,2.86-10.24,5.06-11.14,11.89,1.1,6.2,4.79,10.17,11.78,11.05,4.84-1.21,8.4-3.8,9.41-8.92-3.7-3.92-5.28,1.07-8.02,1.2-2.32-.25-3.74-1.9-5.24-4.19,2.58-5.16,6.76-9.19,11.49-14.01,4.61,4.05,8.96,7.88,13.02,11.45-1.37,15.3-9.92,25.08-21.84,25.58-10.1.42-19.46-7.15-21.48-17.37-2.15-10.86,5.55-21.23,19.78-25.99Z" fill="#dbb20e" stroke-width="0"/><path d="M331.69,38.1c1,9.11,2.19,16.42,2.52,23.77.51,11.51-4.89,17.56-15.84,18.67-12.85,1.3-19.38-3.24-21.26-15.34-1.07-6.92-1.48-13.95-2.19-20.9,2.77-3.79,6.79-1.87,10.15-3.48,4.36,9.23.73,19.33,5.5,26.98,3.96,3.37,7.22,2.87,10.21.14,3.27-4.33,1.2-8.74.84-13.07-.36-4.42-.68-8.83-1.01-13.12,2.62-4.45,6.55-2.38,11.07-3.65Z" fill="#dbb20e" stroke-width="0"/><path d="M78.39,419.39c-3.59-.29-5.58-1.86-7.78-3.73-.21-5.28,3.64-11.1-1.32-17.14-4.17,4.51-2.06,9.7-3.31,14.01-1.86,6.4-4.73,9.47-10.31,10.1-5.28.6-9.82-2-12.58-7.29-.51-.97-.83-2.05-1.2-3.1-2.29-6.6-2.37-12.99,1.59-19.04,3.3.11,5.89,1.3,8.27,3.33.21,4.53-2.84,9.3.86,13.95,4.35-1.77,2.91-5.57,3.24-8.54,1.13-10.07,4.59-14.78,11.46-15.27,6.94-.49,12.97,5.21,14.37,14.24.97,6.25,1.08,12.57-3.3,18.48Z" fill="#dbb20e" stroke-width="0"/><path d="M582.05,186.58c-.99-9.16-7.04-15.5-2.88-26.21,1.57-3.12,6.6-5.41,13.18-3.71,7.59,1.96,12.97,10.81,13.78,22.01-2.45,2.59-5.33,1.64-8.08,1.01-3.9-3.21-1.36-10.74-9.33-12.21.35,7.77,6.49,14.1,3.98,21.73-7.52,9.56-16.32,10.03-23.39.78-4.08-5.33-7-11.32-6.31-18.25,2.72-2.86,5.61-1.71,9.05-1.08,1.89,5.05,1.61,11.98,10,15.92Z" fill="#dbb20e" stroke-width="0"/><path d="M220.44,102.71c-3.65,2.08-7.17,4.08-9.51,5.41-3.2,3.06-1.17,6.05-2.84,8.83-2.29,2.16-5.34,3.94-9.39,4.78-2.47-14.07-3.52-28.04-4.76-41.66,3.01-2.85,5.87-4.43,9.79-5.83,10.72,8.42,21.71,17.07,32.75,25.74-2.15,4.42-6.24,4.59-8.84,6.97-2.65-1.56-4.82-2.84-7.2-4.25ZM206.03,90.93c-.57,3.01-.73,5.78,2.48,7.42,1.51-.54,2.87-1.06,3.1-2.9-1.05-2.37-2.71-4.06-5.58-4.52Z" fill="#dbb20e" stroke-width="0"/><path d="M377.15,43.45c-.33,3.61-2.3,5.32-4.21,7.2-4.76.93-8.88-5.69-14.91-1.11,3.78,4.66,9.49,4.23,13.71,6.58,4.21,2.35,6.97,5.68,6.69,10.61-.27,4.72-2.57,8.52-7.01,10.54-1.99.91-4.21,1.67-6.36,1.77-7.93.39-15.29-1.19-21.08-6.61.43-4.12,3.31-5.4,5.42-7.59,5.35,1.57,10.03,6.87,16.76,2.7-2.42-3.96-6.44-3.9-9.67-5.16-8.11-3.16-11.53-7.48-10.56-13.51,1.16-7.16,6.83-11.32,15.58-11.13,5.62.12,11.02,1.18,15.63,5.69Z" fill="#dbb20e" stroke-width="0"/><path d="M37.19,364.91c-1.48-4.53-1.63-7.76-.1-11.91,11.86-5.29,24.27-10.82,37.14-16.56,2.78,3.59,1.63,7.17,1.46,10.93-1.88,1.53-3.83,3.11-5.64,4.58-.93,4.32-.83,8.34-.26,12.02,1.26,3.02,4.44,3.08,6.09,5.08,1.45,3.13,1.01,6.36,1.28,11.54-14.15-5.55-27-10.59-39.97-15.68ZM59.24,361.23c1.48-2.44,1.11-4.04-.3-5.74-1.78.95-4.16.79-5.44,2.93.94,2.46,3.04,2.74,5.74,2.81Z" fill="#dbb20e" stroke-width="0"/><path d="M629.81,226.39c-3.81-.12-6.23-1.76-9.1-3.76-.23-2.88-.49-6.1-.69-8.59-1.87-4.12-4.88-5.34-8.2-6.04q-10.3,3.96-9.91,13.71c1.21,4.1,5.75,4.57,7.88,7.6-.43,2.9-.14,5.95-2.25,8.32-12.92-2.91-19.98-13.02-17.27-24.63,2.65-11.35,14.3-18.81,25.18-16.12,12.21,3.02,17.9,14.27,14.37,29.51Z" fill="#dbb20e" stroke-width="0"/><path d="M99.54,239.85c-.75,4.05-2.06,6.97-4.31,10-8.78-3.6-17.23-7.05-25.2-10.32-4.21,1.82-3.85,6.02-6.61,8.47-3.01,1.39-5.11-1.21-8.8-2.72,3.79-10.93,8.47-21.15,13.13-31.02,3.92-.61,6.41.83,8.77,2.89.43,3.47-2.18,6.07-2.85,9.86,7.47,5.69,17.29,7.34,25.86,12.85Z" fill="#dbb20e" stroke-width="0"/><path d="M258.84,92.03c-2.56,3.38-5.68,4.09-9.76,4.22-5.17-7.37-5.98-17.01-10.94-24.87-3.49-1.47-6.31,1.13-9.48,1.55-3.57-1.73-3.57-5.06-4.29-8.54,10.25-5.2,20.76-8.34,30.81-12.09,3.18,2.1,3.68,4.93,3.77,7.92-1.75,3.86-6.71,2.91-9.16,6.54,2.97,8.3,6.06,16.91,9.05,25.28Z" fill="#dbb20e" stroke-width="0"/><path d="M422.04,657.66c-3.46-11.36-6.65-21.85-10.08-33.09,10.03-4.26,19.43-8.89,29.47-2.11,6.05,4.09,8.08,10.62,6.6,17.64-2.79,13.24-14.43,14.19-25.99,17.56ZM421.54,628.49c1.31,11.29,2.53,14.73,7.32,20.53,11.07-3.86,14.53-8.51,11.83-15.9-2.68-7.35-8.63-8.79-19.15-4.63Z" fill="#dbb20e" stroke-width="0"/><path d="M393.95,649.4c1.03-8-2.43-14.39-1.11-20.85,1.4-1.9,3.05-2.01,5.48-.96,2.22,10.78,3.83,21.93,4.53,34.89-12.41-2.42-15.95-14.85-25.53-18.9-1.8,6.7,2.18,13.05,1.17,19.5-1.32,2.04-3.03,2.06-5.54,1.24-2.58-10.71-3.74-21.89-4.9-33.41,8.09-2.98,10.25,3.84,14.07,6.93,3.97,3.21,7.37,7.14,11.83,11.55Z" fill="#dbb20e" stroke-width="0"/><path d="M659.07,397.88c.83,4.09-.67,6.98-2.35,10.78-8.89-1.57-17.84-3.15-26.77-4.73-4.74,4.77-2.16,11.71-5.64,16.72-2.88,1.48-5.57.7-8.85-1.35.63-9.55,2.72-19.04,5.67-28.85,13.11,2.24,25.74,4.2,37.94,7.44Z" fill="#dbb20e" stroke-width="0"/><path d="M312.56,586.96c10.08-10.46,19.9-20.64,30.31-31.44,1.63,11.16.44,22.23.88,34.84-11.15-1.21-21.59-.65-31.19-3.4Z" fill="#dbb20e" stroke-width="0"/><path d="M271.58,635.45c.52,2.67-.32,3.72-2.38,4.7-4.1-1.13-8.71-2.4-13.24-3.65-2.97,1.57-2.9,4.12-2.78,6.8,4.61,4,11.27,3.32,15.96,6.7,1.15,1.59.78,2.9-.19,4.16-1.92,1.67-6.3.52-24.66-6.56,1.89-11.12,5.86-21.73,9.71-33.23,8.55,2.66,17.21,3.67,25.59,9.04-7.66,6.89-13.52-1.95-20.37-.26-1.48.91-2.24,2.86-2.33,5.8,3.79,4.01,10.34,2.79,14.69,6.5Z" fill="#dbb20e" stroke-width="0"/><path d="M503.7,602.98c-5.09-2.38-8.95-5.38-7.69-11.14,1.54-7.07,7.04-9.98,13.41-11.42,7.8.31,9.72,5.67,10.44,11.78,8.83,4.44,10.66,7.13,9.02,12.99-1.75,6.26-9.63,11.83-16.13,11.4-5.87-.38-8.07-3.53-9.05-13.6ZM522.44,604.33c.15-3.56-1.66-4.64-3.96-5.33-3.74.69-6.97,2.09-8.02,5.89-.32,2.95,1,4.46,3.58,5.36,3.86-.03,6.53-2.15,8.4-5.92ZM506.48,597.5q7.06-4.73,3.51-10.43c-4.28-.19-6.64,2.05-7.69,5.87.41.91.57,1.71,1.05,2.19.75.76,1.71,1.31,3.14,2.37Z" fill="#dbb20e" stroke-width="0"/><path d="M543.72,557.92c4.14,1.67,4.77,5.49,5.83,8.91,9.74,4,12.13,6.85,10.89,12.89-1.2,5.86-8.19,12.12-14.15,12.68-5.79.54-8.49-2.23-11-11.42-2.46-2.49-6.99-2.63-8.37-6.87-.62-12.49,3.8-16.76,16.8-16.19ZM541.92,582.84q6.9,3.77,11.95-4.21c-.25-2.49-1.7-3.88-4.17-4.46-4,1.12-7.17,3.15-7.78,8.67ZM532.45,570.96q7.35,3.06,10.41-4.28-6.21-3.69-10.41,4.28Z" fill="#dbb20e" stroke-width="0"/><path d="M188.03,586.75c-2.81,1.23-3.6,3.17-3.79,5.45,1.35,2.44,3.8,3.54,5.85,5.1,2.02,1.54,4.68,2.34,5.75,4.73.65,1.96-.52,2.9-2.06,4.21-5.33-.83-8.76-6.19-14.23-7.25-1.81,1.3-3.47,2.69-3.64,5.07,2.11,6.85,13.73,5.66,13.34,16.24-9.48-3.23-15.99-8.92-23.42-14.57,6.36-9.6,12.45-18.79,19.27-29.07,7.38,4.88,14.28,9.45,20.06,13.26,1.27,3.38-.44,4.09-1.08,5.58-6.37-1.35-10.42-7-16.05-8.75Z" fill="#dbb20e" stroke-width="0"/><path d="M563.17,548.52c4.15-6.46,7.63-11.99,15.24-10.94,5.97.83,8.81,4.92,9.98,10.38-2.7,11.5-7.33,15.88-15.72,14.93-8.71-.98-19.19-12.72-18.66-20.91.35-5.5,5.07-11.57,10.48-13.2.89-.27,2.13.16,3.04.61.53.26.73,1.19,1.08,1.83.44,3.01-2.26,3.36-3.86,4.71-1.39,1.17-2.52,2.63-3.24,3.4-1.45,3.52-.17,5.81,1.66,9.19ZM569.14,551.52c1.34,3.5,3.12,5.54,6.86,5.52,3.11-1.61,6.02-3.57,5.82-8.02-.9-3.11-2.87-4.84-6.24-4.72-3.58.89-5.52,3.25-6.44,7.22Z" fill="#dbb20e" stroke-width="0"/><path d="M331.46,657.75q-4.38,6.06-10.97,6.68c4.78-12.34,10.85-23.36,15.6-33.69,5.67-1.27,7.19,1.12,8.36,4.07,3.94,9.92,7.9,19.83,11.7,29.38-1.42,2.62-3.16,2.39-5.01,1.78-3.28-1.63-2.57-6.11-6.18-8.24h-13.51ZM339.7,641.62c-4.01,1.61-4.47,5.12-5.2,8.63,3.11,1.16,5.86,2,8.52-.21-.2-3.08-1.54-5.66-3.33-8.42Z" fill="#dbb20e" stroke-width="0"/><path d="M113.25,384.18c-2.9-8.12-1.71-17.9-2.27-28.03,11.17-1.16,21.2-.8,30.76-.49-9.78,9.79-19.2,19.22-28.49,28.52Z" fill="#dbb20e" stroke-width="0"/><path d="M243.38,610.39c-8.76,9.62-17.58,18.74-27.07,25.87-3.05-1.27-4.43-2.19-4.45-3.77-.11-11.8.14-23.6,1.27-35.01,3.2-1.97,4.3.99,6.25.98,1.46,8.88-1.78,17.17-.52,25.62,9.6-2.95,12.27-16.54,24.52-13.69Z" fill="#dbb20e" stroke-width="0"/><path d="M145.97,547.72c-1.05,1.43-2.55,1.17-4.64,1-2.69-6.27-4.52-14.32-14.32-13.24-4.94.55-9.85,5.13-10.66,9.97-1.6,9.56,6.33,12,12.57,15.44-.66,1.57-1.07,2.55-1.45,3.48-11.34-.79-18.29-7.59-18.19-17.62.1-9.41,8-17.58,17.48-18.08,10.93-.57,18.1,6.53,19.22,19.03Z" fill="#dbb20e" stroke-width="0"/><path d="M279.09,47.31c3.53,11.9,6.75,23.9,9.01,35.94-2.63,3.23-5.75,3.79-10.04,3.56-4.82-11.63-6.6-24.3-9.92-36.58,3.24-2.99,6.66-3.57,10.95-2.92Z" fill="#dbb20e" stroke-width="0"/><path d="M467.13,62.44c5.01-.32,7.2,1.83,10.75,3.21-4.03,12.7-10,24.05-14.67,35.66-4.33.56-6.99-1.47-11-3.89,4.95-11.6,9.96-23.33,14.93-34.98Z" fill="#dbb20e" stroke-width="0"/><path d="M118.08,205.88c-11.19-7.46-21.6-14.4-31.64-21.1-.15-4.64,2.15-6.93,5.43-9.71,10.93,5.57,20.66,13.48,31.52,20.21.78,4.32-2.58,6.49-5.31,10.59Z" fill="#dbb20e" stroke-width="0"/><path d="M38.43,324.78c-.7-4.21-.91-7.11,1.07-10.53,12.58-.56,25.16,1.83,37.68,3.43,1.14,3.93,1.07,7.07-.97,10.43-12.5.44-24.77-2.29-37.78-3.32Z" fill="#dbb20e" stroke-width="0"/><path d="M296.55,626.49c1.25,9.24-3.67,17.99-2.53,26.9,4.72,3.79,10.61,1.66,15.15,4.48,1.18,1.64,1.36,3.29-.64,5.35-7.28-.32-14.7-2-22.81-3.73.31-11.4,3.62-21.98,4.78-32.46,2.05-2.83,3.91-2.11,6.04-.54Z" fill="#dbb20e" stroke-width="0"/><path d="M157.47,593.21c-.51,2.05-1.72,2.71-3.8,3.2-6.15-4.03-11.56-9.47-17.58-15.19,6.94-9.53,14.87-17.58,22.14-25.56,2.91,0,3.81,1.54,5.06,4.01-5.7,6.7-11.61,13.66-17.46,20.54,2.79,5.93,9.58,7.61,11.63,13.01Z" fill="#dbb20e" stroke-width="0"/><path d="M495.56,627.08c-.87,2.43-2.06,3.24-4.11,4.02-6.47-5.94-8.19-15.13-13.87-22.29-2.18-1.6-6.14,3.9-8.3-2.02,1.56-3.76,5.08-6.27,9.68-9.76,6.62,9.99,11.33,20.55,16.61,30.05Z" fill="#dbb20e" stroke-width="0"/><path d="M606.1,492.98c-3.97-3.87-4.19-8.25-5.37-12.17,3.48-4.13,8.2-3.57,11.87-5.71,3.6,3.99,3.81,8.38,5.47,12.36-3.82,3.73-8.27,3.77-11.98,5.53Z" fill="#dbb20e" stroke-width="0"/><path d="M79.69,488.02c.16-6.25.45-10.54,4.13-14.19,3.98.42,7.72,1.5,10.95,3.36,1.98,4.78-.76,8.21-1.97,11.95-4.79,3.32-8.14-1.42-13.11-1.12Z" fill="#dbb20e" stroke-width="0"/><path d="M471.7,216.24c5.39,2.97,5.52,7.82,5.29,12.69-.37,7.86.62,15.38,3.13,22.96,5.2,15.67.59,23.36-16.04,27.75-2.29,5.75-6.98,9.95-11.43,13.05-2.41,8.49,4.06,11.35,8.06,16.36.25,8.36-1.48,16.86-4.04,24.97-3.94,1.32-7.14,1.55-10.35.1-1.66-4.86,4.21-4.4,4.76-6.4,1.77-4.65-1.36-8.31,1.12-12.37-9.22-4.99-17.9-10.13-20.98-19.94-3.89-1.66-6.45-.67-8.3,1.47-3.95,6.05,2.89,11.75-.89,18.83-8.77-1.96-17.82-3.99-27.59-6.18,5.72-10.23,12.85-3.08,19.92-3.35-1.67-5.28-3.42-10.33-4.85-15.47-3.61-13.06-1.71-16.68,10.85-20.68,4.54-1.44,9.42-2.08,12.79-7.11-2.95-9.26-13.86-11.67-17.4-20.2-7.56,2.09-13.05,6.67-19.03,10.03-4.98,8.48-7.44,17.55-8.88,27.09-.83,5.5-3.32,10.71-7.29,14.79-3.56,3.67-7.25,7.15-8.21,12.31-6.5-1.5-39.14-1.75-45.1.32-1.27-8.15-9.43-11.6-12.54-18.71-3.15-7.21-5.53-14.57-4.55-22.82-3.74-3.42-5.2-8.01-6.59-12.39-6.26-3.82-12-7.92-19.33-10.73-4.75,7.78-13.64,11.74-18.59,19.52,5.95,8.64,16.24,6.87,23.83,13.01,6,10.06-2.05,19.57-3.88,29.87,5.54,3.31,13.77-6.7,18.46,3.9-8.51,4.21-17.74,3.92-25.68,7.02-3.49-4.7-1.55-8.18-.98-11.75,1.06-6.63-.34-8.06-8.8-9.54-3.59,9.77-10.99,16.16-20.59,19.64v12.47c.68,2.86,6.28,2.44,5.61,6.97-2.95,2.2-6.22,1.34-10.15.78-3.67-7.93-4.89-16.5-4.65-25.23,2.97-5.13,10.24-7.46,8.53-15.61-3.48-4.27-9.99-6.93-11.35-13.12-2.03-2.37-4.54-1.61-6.57-2.34-8.42-3.01-12.36-8.85-11.77-17.94.21-3.29,1.03-6.6,2.01-9.77,2.09-6.76,3.96-13.32,2.62-20.69-.84-4.6.05-9.65,4.3-13.3,9.11,11.28,10.03,22.74,2.97,35.58-5.02,9.12-3.89,11.83,3.62,18.45,2.03-7.4,6.05-13.42,10.5-19.36,6.43-8.57,8-18.3,3.46-28.37-2.74-6.08-5.84-12.01-8.9-17.94-5.27-10.22-7.22-20.38.77-30.16,2.37-2.9,1.14-6.5,2.58-9.48,3.26-1.15,4.26,2.36,6.7,3.16,3.08-1.5-.21-5.64,3.51-7.55,7.28,12.29,20.07,16.89,33.68,21.73-4.77,8.76-14.36,3.2-19.65,8.01,3.84,3.41,8.91-.18,12.92,2.82-1.82,6.64-9,3.56-13.17,7.1,5.94,7.98,18.12,8.51,20.46,19.33,8.81-1.69,15.66-5.45,22.77-8.46,3.76-1.59,7.47-3.52,11.6-3.62,4.36-.11,7.77,1.61,9.3,6.93-6.64,2.93-14.19-.74-20.16,4.06-5.48,4.41-11.25,8.42-16.07,14.3,5.15,5.54,10.38,10.55,17.3,15.01,1.74-4.66,1.73-9.21,4.48-13.28h68.76c3.03,3.47,2.42,8.42,5.06,12.73,6.43-3.72,11.66-8.75,16.97-14.6-9.94-9.68-18.84-20.56-35.09-16.77,1.32-6.85,3.69-9.17,9.02-8.3,3.59.59,7.06,2.16,10.48,3.55,6.87,2.8,13.43,6.34,22.07,8.4,3.52-9.17,14.23-11.65,21.33-18.79-4.41-3.86-10.9-1.28-13.11-8.11,4.31-.44,8.44-.86,14.25-1.46-6.65-5.64-16.05,0-20.87-8.81,12.7-4.93,25.86-9,32.98-21.23,4.35.49,2.11,4.64,4.53,6.21,1.37-.86,2.87-1.81,4.53-2.85.7.78,1.8,1.48,2.06,2.41.98,3.54,1.64,7.03,3.94,10.2,4.45,6.14,4.81,12.87,2.24,20.1-2.02,5.66-4.79,10.86-7.76,15.98-8.73,15.04-9.49,29.45,2.97,42.96,3.56,3.86,4.9,8.82,5.91,14.24,7.04-3,8.42-7.44,6.59-13.01-1.27-3.86-3.06-7.55-4.73-11.27-3.39-7.56-4.02-14.88.88-22.18,1.55-2.3,2.28-5.15,3.45-7.91Z" fill="#045380" stroke-width="0"/><path d="M344.39,176.2c-.89-3.27-4.86-4.83-4.57-8.35-.32-4.16,3.14-5.87,4.86-8.63-.35-3.83-5.52-5.25-4.81-8.95-.19-4.45,3.35-6.09,4.86-8.94-.62-3.44-4.66-4.89-4.94-10.23.12-4,4.33-6.35,8.15-9.02,5.81.81,8.57,4.43,10.14,7.72,1.27,5.73-3.32,7.45-4.43,10.93.54,3.41,4.93,4.61,4.74,8.4.89,4.35-3.93,5.95-4.75,9.5.8,3.34,5.06,4.62,4.77,8.42.57,3.96-3.21,5.61-4.51,8.62-.11,3.94,5.77,5.12,4.56,8.77-.19,4.45-3.85,6.05-4.98,8.73.77,3.83,5,5.15,4.94,8.88.48,3.95-3.22,5.63-4.61,8.64.26,3.76,5.39,5.26,4.16,11.61-1.18,2.77-4.45,5.94-9,7.94-4.21-2.26-7.48-5.06-8.91-8.71-.98-5.15,3.34-7.04,4.53-10.48-1.07-3.08-4.84-4.66-4.73-8.47-.36-3.81,3.47-5.39,4.87-8.9-.27-3.14-4.61-4.36-4.8-7.88-1.16-4.37,3.52-6.12,4.46-9.59ZM345.56,219.98c.75,1.69,1.73,3.1,3.85,3.12,1.49-.41,2.45-1.35,2.85-2.85-.07-2.12-1.55-3.03-3.22-3.78-1.87.47-3.1,1.57-3.48,3.51ZM352.56,132.37c-.09-2.47-1.76-3.28-3.39-4.12-1.68.71-3.22,1.56-3.51,3.13.09,2.6,1.66,3.47,3.36,4.22,1.94-.43,3.1-1.67,3.55-3.23ZM349.05,198.83c-2.08,1.12-4.08,2.16-3.04,5.01,2.83,2.96,4.93,2.38,6.43-1.09-.24-1.76-1.1-2.83-3.39-3.92ZM348.78,188.21c2-.68,3.64-1.4,3.47-3.79-.68-1.65-1.66-3.03-3.8-3.08-2.99,1.91-4.37,3.93.32,6.87ZM352.31,150.24c-.11-2.42-1.79-3.18-3.31-4.1-1.62.71-3.18,1.48-3.43,3.54.52,2.3,1.77,3.67,4.25,3.43,1.45-.64,2.23-1.74,2.49-2.87ZM349,171.19c1.45-1.09,3.48-1.44,3.4-4.19,0-1.8-1.86-2.38-3.32-3.3-1.86,1.07-3.85,2.04-3.3,4.99.96.75,2.08,1.61,3.23,2.5Z" fill="#045380" stroke-width="0"/><path d="M458.27,427.7v-39.38c1.35-2.14,3.27-2.03,5.09-1.99,1.81.04,3.61.27,5.42.42,3.35,5.2,6.5,10.1,9.98,15.52,5-4.45,6.85-10.31,10.47-14.6,3.25-2.28,6.4-1.08,10.06-1.06v41.32c-2.62,2.18-5.07,1.05-8.31.9v-23.09c-6.66,2.49-6.87,9.49-11.93,12.54-4.42-2.94-5.53-9.05-10.87-13v21.75c-3.4,2.89-6.39,2.82-9.92.68Z" fill="#045380" stroke-width="0"/><path d="M442.91,511.95c-2.32-21.98-1.25-44.08-2.07-66.95-23.01-1.09-45.48.41-68.08-.84,1.04-5.94,4.68-4.51,7.27-4.53,16.34-.13,32.68-.06,49.02-.06,3.64,0,7.27,0,12.27,0v-66.98c5.48.07,4.75,3.2,4.76,5.59.07,16.34-.01,32.68.08,49.02.02,3.64-.69,7.37,1.2,12.37h21.36c7.43,0,14.86-.06,22.28.02,7.18.08,14.35.31,21.6.48-.61,5.45-3.71,4.52-6.03,4.53-15.97.08-31.94.04-47.91.04-3.66,0-7.33,0-12.19,0-.13,8.04-.29,15.3-.34,22.57-.06,7.8.28,15.61-.1,23.39-.35,7.1,1.73,14.5-3.11,21.36Z" fill="#045380" stroke-width="0"/><path d="M496.42,461.41c-1.57,3.12-2.97,5.25-5.27,6.58-12.48-4.82-17.94-3.66-21.54,4.55-2.88,6.56-.14,14.2,6.11,16.9,3.21,1.39,6.49,1.38,9.77.23,2.42-.85,3.63-2.42,2.86-5.2-1.76-3.24-5.46-1.18-8.04-2.81-1.4-2.25-1.48-4.62.47-7.39,5.18-.99,10.63-.72,16.48-.13,1.84,6.37.91,12.57.68,18.45-11.79,9.3-25.07,9.65-33.47,1.16-7.96-8.05-8.5-21.7-1.2-30.41,8.16-9.73,20.9-10.61,33.15-1.93Z" fill="#045380" stroke-width="0"/><path d="M390.99,456.72c7.44-1.14,14.47-1.42,21.34-.05,10.86,2.16,17.48,10.84,17.13,21.55-.36,11.25-7.96,19.49-19.44,20.66-4.41.45-8.9.19-13.36.18-1.82,0-3.74.25-5.68-1.69v-40.65ZM401.23,489.17c6.69,1.59,12.32,1.13,16.03-4.78,2.77-4.42,2.67-9.35-.15-13.72-3.71-5.74-9.48-5.88-15.88-5.63v24.13Z" fill="#045380" stroke-width="0"/><path d="M402.11,385.98c2.69-.12,4.16-.31,5.61-.22,1.05.06,2.09.49,3.76.92,5.59,13.27,11.28,26.79,16.96,40.26-2.34,3.48-5.36,2.09-7.9,1.98-3.76-1.55-2.93-6.02-6.32-8.57-4.73-.98-10.15-.68-15.84-.09-1.44,2.69-2.81,5.24-4.2,7.82-2.76,1.55-5.52,1.62-9.47-.27,5.72-13.76,11.45-27.53,17.4-41.84ZM406.92,400.12c-2.83,2.7-3.9,5.84-3.76,9.27,2.91,1.39,4.97,1.23,6.99,0,.24-3.53-1.71-6.28-3.23-9.28Z" fill="#045380" stroke-width="0"/><path d="M642.35,351.07c8.9,2.89,11.65,5.86,10.6,11.46-.8,4.28-4.93,7.69-9.55,7.89-5.17.22-9.68-3.23-10.49-8.03-.9-5.36,1.23-7.92,9.44-11.32Z" fill="#045380" stroke-width="0"/><path d="M507.44,99.16c-2.02-.91-4.04-1.82-6.13-2.76-2.93.73-3.81,3.04-4.31,5.49.09,3.07,4.34,3.21,4.05,6.64-.74.35-1.72,1.25-2.61,1.17-5.12-.46-8.19-3.55-8.8-8.48-.59-4.82,1.52-8.75,5.92-11.05,4.68-2.44,8.65-.8,11.98,2.76.99,1.06,1.53,2.52,2.28,3.8-.8.81-1.6,1.62-2.39,2.43Z" fill="#045380" stroke-width="0"/><path d="M650.61,309.86c-1.52,6.16-4.77,9.6-10.99,9.52-5.78-.08-8.64-3.49-10.02-8.72.7-5.87,3.66-9.57,9.83-10.06,6.26-.5,9.68,2.76,11.18,9.27Z" fill="#045380" stroke-width="0"/><path d="M206.03,90.93c2.87.46,4.54,2.15,5.58,4.52-.23,1.84-1.6,2.36-3.1,2.9-3.21-1.64-3.05-4.41-2.48-7.42Z" fill="#045380" stroke-width="0"/><path d="M59.24,361.23c-2.69-.07-4.8-.34-5.74-2.81,1.28-2.14,3.66-1.98,5.44-2.93,1.41,1.7,1.77,3.3.3,5.74Z" fill="#045380" stroke-width="0"/><path d="M421.54,628.49c10.52-4.16,16.47-2.72,19.15,4.63,2.69,7.39-.77,12.03-11.83,15.9-4.78-5.79-6.01-9.24-7.32-20.53Z" fill="#045380" stroke-width="0"/><path d="M522.44,604.33c-1.88,3.77-4.55,5.89-8.4,5.92-2.58-.9-3.9-2.41-3.58-5.36,1.05-3.8,4.28-5.2,8.02-5.89,2.3.68,4.11,1.77,3.96,5.33Z" fill="#045380" stroke-width="0"/><path d="M506.48,597.5c-1.43-1.05-2.39-1.6-3.14-2.37-.48-.49-.63-1.28-1.05-2.19,1.05-3.82,3.42-6.06,7.69-5.87q3.55,5.7-3.51,10.43Z" fill="#045380" stroke-width="0"/><path d="M541.92,582.84c.61-5.53,3.78-7.55,7.78-8.67,2.47.58,3.92,1.97,4.17,4.46q-5.05,7.98-11.95,4.21Z" fill="#045380" stroke-width="0"/><path d="M532.45,570.96q4.21-7.97,10.41-4.28-3.06,7.34-10.41,4.28Z" fill="#045380" stroke-width="0"/><path d="M569.14,551.52c.92-3.97,2.86-6.33,6.44-7.22,3.37-.12,5.34,1.61,6.24,4.72.2,4.45-2.71,6.41-5.82,8.02-3.74.02-5.52-2.02-6.86-5.52Z" fill="#045380" stroke-width="0"/><path d="M339.7,641.62c1.78,2.76,3.12,5.34,3.33,8.42-2.67,2.21-5.41,1.37-8.52.21.72-3.52,1.19-7.02,5.2-8.63Z" fill="#045380" stroke-width="0"/><path d="M345.56,219.98c.38-1.94,1.61-3.05,3.48-3.51,1.66.76,3.15,1.67,3.22,3.79-.4,1.5-1.36,2.44-2.86,2.85-2.11-.02-3.09-1.44-3.84-3.13Z" fill="#f9fbfb" stroke-width="0"/><path d="M352.56,132.37c-.44,1.56-1.6,2.8-3.55,3.23-1.7-.75-3.27-1.62-3.36-4.22.29-1.58,1.83-2.42,3.51-3.13,1.63.84,3.3,1.64,3.39,4.12Z" fill="#f9fbfb" stroke-width="0"/><path d="M349.05,198.83c2.29,1.09,3.15,2.16,3.39,3.92-1.5,3.47-3.6,4.05-6.43,1.09-1.04-2.86.96-3.9,3.04-5.01Z" fill="#f9fbfb" stroke-width="0"/><path d="M348.78,188.21c-4.69-2.94-3.32-4.95-.32-6.87,2.14.05,3.11,1.43,3.8,3.08.16,2.39-1.47,3.11-3.47,3.79Z" fill="#f9fbfb" stroke-width="0"/><path d="M352.31,150.24c-.26,1.12-1.04,2.23-2.49,2.87-2.48.24-3.73-1.13-4.25-3.43.25-2.05,1.81-2.82,3.43-3.53,1.51.92,3.19,1.67,3.31,4.09Z" fill="#f9fbfb" stroke-width="0"/><path d="M349,171.19c-1.15-.89-2.26-1.75-3.23-2.5-.55-2.95,1.45-3.92,3.31-4.99,1.46.93,3.32,1.5,3.32,3.3.08,2.76-1.95,3.1-3.4,4.19Z" fill="#f9fbfb" stroke-width="0"/><path d="M401.23,489.17v-24.13c6.4-.25,12.17-.11,15.88,5.63,2.82,4.37,2.92,9.3.15,13.72-3.71,5.91-9.34,6.38-16.03,4.78Z" fill="#f9fbfb" stroke-width="0"/><path d="M406.92,400.12c1.52,3,3.47,5.74,3.23,9.28-2.02,1.23-4.09,1.38-6.99,0-.13-3.44.94-6.57,3.76-9.27Z" fill="#f9fbfb" stroke-width="0"/></g></svg>