<?xml version="1.0" encoding="UTF-8"?><svg id="b" xmlns="http://www.w3.org/2000/svg" viewBox="0 0 700 700"><g id="c"><path d="M350,700c-93.49,0-181.38-36.41-247.49-102.51C36.41,531.38,0,443.49,0,350S36.41,168.62,102.51,102.51C168.62,36.41,256.51,0,350,0s181.38,36.41,247.49,102.51c66.11,66.11,102.51,154,102.51,247.49s-36.41,181.38-102.51,247.49c-66.11,66.11-154,102.51-247.49,102.51Z" fill="#fff" stroke-width="0"/><circle cx="350" cy="350" r="329.17" fill="#b99f6c" stroke-width="0"/><path d="M260.29,153.47c-.08-5.93-.08-11.87-.27-17.8-.16-5.11,1.09-6.96,6.3-3.92,9.14,5.34,19.14,8.65,29.37,11.25,6.07-1.27,12.02.46,17.78,1.55,22.27,4.24,44.08,1.69,65.84-3.19,3.14-.7,6.24-1.77,9.53-.94,21.89-7.74,44.19-13.02,67.65-11.65,23.1,1.34,41.47,10.41,51.88,32.09,4.68,9.76,4.8,20.1,2.17,30.45-.74,2.93-.96,5.18,1.56,7.44,11.89,10.67,21.02,23.09,24.16,39.19.09.44.95.73,1.45,1.09,3.27,4.96,4.07,10.64,4.06,16.32-.01,8.97,1.14,18.03-1.5,26.88-.6,2.01-.15,4.16.32,6.18.95,4.06.59,7.77-2.22,11.07-.9,1.06-1.4,2.4-1.64,3.78-.31,1.8-1.11,3.87.3,5.32,1.63,1.67,3.42-.02,5.09-.56,7.39-2.41,14.44-6.28,22.63-5.29,10.13-.47,20.21-.8,30.4-.34,28.85,1.3,45.16,17.86,53.87,43.33,9.27,27.09,7.17,54.73,1.34,82.17-7.09,33.4-20.86,64.27-40.52,91.84-19.31,27.08-42.55,50.72-74.99,62.63-17.73,6.51-35.24,6.92-52.21-2.65-2.02-1.14-4.1-2.1-6.56-1.81-28.05,3.31-55.79.79-83.39-4.42-.4-.08-.87.23-1.31.36-4.86,2.23-9.48-.03-14.16-.81-27.91-4.66-54.04-15.09-80.61-24.28-26.77-9.25-53.82-17.94-82.3-20.6-2.81-.26-5.43-1.02-7.6-2.94-38.34-2.66-76.12-.56-112.61,12.91-1.61.6-3.38,2.26-5.12.62-1.82-1.73-.64-3.88-.24-5.87,5.74-28.26,20.53-51.55,39.73-72.41,1.56-1.7,3.58-3.04,4.87-4.9,1.96-2.81,8.07-5.06,5.23-8.35-3.14-3.63-8.98-5.54-14.58-3.96-1.96.56-3.79,1.7-5.58,2.75-4.6,2.69-8.97,2.26-12.67-1.4-3.09-3.05-5.86-3.39-9.84-1.45-10.9,5.29-13.94,4.52-22.35-4.49-2.36-2.53-4.64-5.15-6.84-7.82-5.08-6.16-7.03-13.11-3.84-20.65,1.93-4.57.29-6.39-3.9-7.29-3.22-.69-6.25-1.92-8.59-4.24-12.87-12.76-14.03-18.75-3.33-31.14,5.09-5.9,9.52-12.36,14.47-18.39,5.69-6.91,9.9-8.02,18.26-5.27,7.02,2.3,14.05,4.59,21.03,7.01,2.51.87,4.8.96,7.4.19,6.78-2.03,10.71-4.49,9.22-13.41-1.85-11.06,2.25-21.85,6.66-32.16,2.29-5.35,8-5.77,11.93-8.74,2.13-4.43,6.63-5.53,10.54-7.31,39.48-17.98,81.14-27.78,124.06-32.77,6-.7,6.34-1.08,2.62-5.78-8.97-11.33-14.55-24.02-16.39-38.36-.29-2.3-.63-4.58-.51-6.9.35-6.78,2.98-8.94,9.85-8.13,2.05.24,4.03,1.09,6.72.54-.29-3.73-2.52-6.7-4.15-9.79-4.55-8.66-8.14-17.59-9.18-27.41-.27-2.52-.84-5.05.7-7.39Z" fill="#123626" stroke-width="0"/><path d="M260.29,153.47c3.11,15.2,7.57,29.88,16.16,43.02,1.06,1.63,3.31,3.26,1.66,5.4-1.31,1.69-3.44.42-5.21.14-14.61-2.33-14.48-2.36-12.48,12.64,1.96,14.69,8.27,27.25,17.97,38.26,1.18,1.34,3.3,2.43,2.72,4.48-.65,2.29-3.01,1.58-4.76,1.72-46.66,3.99-91.45,15.08-133.89,35.15-2.07.98-4.28,1.67-6.42,2.49.86-11.08,5.99-20.79,10.43-30.57,23.17-51.07,61.14-87.65,111.14-112.24.79-.39,1.8-.33,2.7-.49Z" fill="#fbfaf9" stroke-width="0"/><path d="M206.7,525.22c33.86,2.82,66.52,10.85,98.11,23.16,25.38,9.89,51.28,17.9,77.97,23.36,2.89.59,5.73,1.4,8.59,2.11-.86,3.08-3.58,2.42-5.71,2.74-63.41,9.34-121.01-4.51-172.2-43.49-2.71-2.06-7.14-3.01-6.76-7.87Z" fill="#fbfaf9" stroke-width="0"/><path d="M564.74,302.73c-9.15,3.14-18.87,4.6-27.47,9.37-1.46.81-3.86,1.43-3.49-1,.6-3.83-1.17-8.36,1.56-11.39,3.52-3.92,3.51-8.02,1.88-12.16-2.27-5.79,1.76-10.58,1.82-16.07.12-10.87-1.33-21.62-1.34-32.46,12.31,19.83,21.27,41.09,27.03,63.7Z" fill="#fbfaf9" stroke-width="0"/><path d="M388.84,140.41c-30.81,9.72-61.85,10.71-93.15,2.58,1.09-2.83,3.59-3.1,6.13-3.58,25.45-4.83,51.03-6.05,76.75-2.71,3.56.46,8.06-.8,10.27,3.71Z" fill="#fbfaf9" stroke-width="0"/><path d="M135.87,197c-1.66,7.99-7.34,14.74-12.52,21.72-.92,1.24-2.55.26-3.75-.53-7.92-5.2-15.8-10.45-23.8-15.52-3.36-2.13-3.76-4.5-1.23-7.36,3.65-4.12,5.04-9.77,9.69-13.28,5.84-4.42,10.88-4.18,14.48,2.11,1.81,3.16,3.34,3.33,6.53,2.76,5.58-1,10.55,3.62,10.6,10.1Z" fill="#123626" stroke-width="0"/><path d="M406.66,73.93c-4.69.85-6.07,4.04-8.15,6.32-3.03,3.32-5.16,3.26-7.15-1.07-1.26-2.74-1.23-7.79-4.89-7.29-2.93.4-1.52,5.26-2.27,8.07-.65,2.44-.87,5-1.29,7.5-.42,2.48-1.9,3.62-4.39,3.27-2.79-.4-4.04-2-3.54-4.84,1.6-9.09,3.21-18.18,4.82-27.27.36-2.02.36-4.48,3.19-4.58,2.8-.1,5.71.17,7.11,3.19,1.36,2.93,2.71,5.89,3.72,8.96,1.59,4.88,3.53,5.67,6.79,1.21,1.9-2.6,4.11-5,6.35-7.31,2.26-2.32,5.09-2.06,7.72-.82,2.73,1.29,2.05,3.86,1.68,6.11-1.36,8.43-2.83,16.84-4.21,25.27-.49,3.02-1.45,5.58-5.21,4.89-3.93-.72-3.42-3.67-2.92-6.52.85-4.85,1.69-9.7,2.63-15.1Z" fill="#123626" stroke-width="0"/><path d="M245.32,613.26c-2.22-.02-3.25,1.39-3.92,3.25-.7,1.95-1.3,3.94-2.11,5.85-1.15,2.7-3.35,2.91-5.77,2.06-2.41-.85-3.06-2.58-2.17-4.94,3.4-9.06,6.77-18.13,10.19-27.19.99-2.61,2.77-3.43,5.49-2.36,2.79,1.09,3.21,3.02,2.33,5.55-.3.87-.68,1.72-1.08,2.54-1.92,3.95-2.76,7.16,2.88,9.13,4.94,1.72,8.94,2.86,10.56-3.79.16-.67.54-1.28.73-1.94.88-3.12,2.49-5.05,6-3.48,3.45,1.54,2.83,4.02,1.69,6.92-2.95,7.5-5.62,15.11-8.45,22.67-1.13,3.01-1.96,6.65-6.57,4.96-4.75-1.74-2.67-5.04-1.59-7.99,2.32-6.3-1.46-11.53-8.2-11.24Z" fill="#123626" stroke-width="0"/><path d="M448.05,103.45c-.51,2.88-2.31,4.3-5.37,3.28-6.57-2.19-13.11-4.5-19.62-6.88-3.21-1.17-2.94-3.52-1.96-6.25,2.89-8.05,5.81-16.09,8.32-24.26,1.38-4.51,3.28-6.07,7.99-4.08,5.31,2.24,10.87,3.87,16.37,5.65,2.4.77,4.57,1.52,3.37,4.7-1.04,2.79-3.09,2.92-5.66,2.2-3.54-1-7.13-1.82-10.74-2.52-1.89-.37-4.41-1.53-5.15,1.5-.71,2.92,1.33,4.02,3.83,4.67,2.46.64,4.82,1.61,7.27,2.28,2.86.79,4.73,2.3,3.61,5.45-1.12,3.16-3.76,2.96-6.37,2.1-2.2-.72-4.41-1.43-6.51-2.37-2.66-1.19-5.01-1.53-6.21,1.76-1.28,3.51,1.47,4.41,3.87,5.27,3.26,1.17,6.57,2.21,9.88,3.25,1.99.63,3.17,1.81,3.05,4.26Z" fill="#123626" stroke-width="0"/><path d="M167.06,117.07c5.94,1.83,12.11,3.76,18.29,5.62,1.41.42,3.12,1.85,4.21-.28.74-1.44-.51-2.58-1.35-3.65-2.41-3.09-4.9-6.13-7.24-9.27-1.67-2.24-1.3-4.35.99-5.97,2.15-1.53,3.95-.71,5.37,1.17,5.85,7.73,11.66,15.48,17.49,23.22,1.07,1.42,1.54,2.94.22,4.38-1.63,1.77-3.59,2.91-6.16,2.14-6.19-1.84-12.38-3.68-18.58-5.51-1.52-.45-3.44-1.58-4.54-.2-1.52,1.89.68,3.31,1.67,4.68,2.16,2.99,4.5,5.85,6.82,8.72,1.6,1.98,2.66,3.97.15,5.94-2.1,1.65-4.37,1.8-6.1-.46-6.03-7.88-11.95-15.84-17.89-23.78-1.09-1.46-1.19-3.02.18-4.38,1.7-1.7,3.72-2.67,6.48-2.38Z" fill="#123626" stroke-width="0"/><path d="M372.83,640.54c.35,3.31.66,6.31-3.92,6.53-4.55.22-4.41-2.9-4.71-5.97-.78-8.03-1.56-16.06-2.54-24.06-.4-3.24-.76-6.13,3.56-6.72,4.35-.59,4.85,2.14,5.05,5.52.13,2.12-1.16,5.27,1.68,6.07,2.6.73,3.54-2.39,5.03-4.03,3.44-3.78,5.03-9.71,11.51-9.89,1.08-.03,2.55-.02,3.17.62,1.32,1.37-.23,2.38-1.02,3.44-9.85,13.17-9.78,13.1,1.38,24.84,1.77,1.86,6.52,3.76,3.41,6.86-2.65,2.65-6.94,1.83-9.78-1.59-1.31-1.58-2.53-3.29-4.07-4.6-2.11-1.78-3.17-6.03-6.93-4.35-3.15,1.41-1.68,4.85-1.83,7.32Z" fill="#123626" stroke-width="0"/><path d="M347.36,89.72c-10.98-.09-19.83-8.75-19.52-19.1.32-10.56,9.2-18.96,19.99-18.93,10.97.03,19.82,8.51,19.82,18.99,0,11.05-8.61,19.14-20.29,19.05Z" fill="#123626" stroke-width="0"/><path d="M303.89,55.64c6.8-.36,10.99,1.54,13.18,6.1,1.95,4.05,2.69,9.03-.53,12.45-3.94,4.19-2.25,6.5.95,9.63,1.66,1.63,6,3.47,3.14,6.19-2.43,2.32-6.6,1.58-9.36-1.34-1.58-1.67-2.97-3.52-4.5-5.25-1.64-1.85-3.61-3.05-6.1-1.87-2.7,1.27-2.27,3.7-1.84,6.02.44,2.37,2.22,5.15-1.23,6.57-2.84,1.17-5.62,1.02-6.29-2.88-1.65-9.53-3.23-19.08-4.86-28.62-.47-2.78.63-4.54,3.4-4.98,5.23-.82,10.48-1.51,14.02-2.01Z" fill="#123626" stroke-width="0"/><path d="M294.14,642.11c-11.18.11-19.52-7.48-19.68-17.92-.17-11,7.54-19,18.39-19.07,11.18-.08,19.51,7.48,19.74,17.92.25,10.83-7.63,18.97-18.45,19.07Z" fill="#123626" stroke-width="0"/><path d="M585.92,239.78c.49-8.5,4.59-14.09,11.42-17.57,6.78-3.45,13.5-2.81,19.55,1.9,6.26,4.88,9.43,11.26,8.62,19.35-.24,2.41-1.48,3.92-4.05,3.73-2.47-.18-4.6-.98-4.74-3.98-.05-1.15.19-2.31.16-3.46-.11-5.18-2.32-9.09-7.53-10.32-5.81-1.37-10.61.78-13.62,5.89-2.86,4.85-1.61,9.35,2.36,13.14,1,.95,2.35,1.56,3.22,2.6,1.58,1.87,1.13,3.94-.23,5.71-1.41,1.84-3.22,1.5-4.94.38-6.48-4.23-9.64-10.34-10.24-17.38Z" fill="#123626" stroke-width="0"/><path d="M97.92,275.92c0,.69.04,1.39,0,2.08-1.18,16.71-3.2,18.15-18.84,13.62-5.33-1.54-10.7-2.93-16.04-4.42-1.77-.49-3.59-.87-4.05-3.18-2.32-11.42,9.88-26.47,21.31-26.22,10.61.23,17.67,7.47,17.63,18.12Z" fill="#123626" stroke-width="0"/><path d="M284.18,94.77c-.37,2.46-2.25,3.03-3.96,3.62-5.89,2.01-11.81,3.89-17.71,5.87-3.37,1.13-5.3-.27-6.31-3.42-2.8-8.78-5.51-17.59-8.44-26.33-1.11-3.31.35-4.7,3.16-5.61,5.92-1.92,11.83-3.86,17.73-5.86,2.5-.84,4.7-.76,5.71,2.01,1.06,2.91-.81,4.2-3.29,4.95-3.53,1.05-7.06,2.13-10.59,3.19-2.17.65-3.91,1.69-3.31,4.37.62,2.78,2.59,3.83,5.19,3.13,3.11-.84,6.13-1.99,9.15-3.12,2.05-.76,3.66-.48,4.61,1.58,1,2.2.6,4.27-1.71,5.21-2.97,1.21-6.15,1.91-9.19,3-2.2.79-4.49,1.7-3.33,4.9,1.07,2.94,2.81,3.84,5.89,2.63,3.64-1.44,7.4-2.59,11.16-3.67,3.17-.91,4.72.77,5.24,3.55Z" fill="#123626" stroke-width="0"/><path d="M518.71,133.31c-2.13.16-3.15,1.4-4.03,2.79-1.1,1.74-.3,3.13,1.02,4.24,3.18,2.67,6.38,5.32,9.67,7.85,1.86,1.43,3.16,2.87,1.31,5.1-1.57,1.88-3.6,2.22-5.52.72-5.45-4.25-10.86-8.57-16.16-13.01-2.28-1.91-1.47-3.94.23-6.01,5.86-7.12,11.68-14.29,17.37-21.54,2.24-2.86,4.32-2.88,6.97-.65,4.94,4.16,9.98,8.19,14.97,12.28,1.84,1.51,2.7,3.16.73,5.24-1.74,1.84-3.48,1.96-5.42.29-2.1-1.8-4.23-3.58-6.42-5.26-2.5-1.92-4.7-6.39-8.45-2.14-3.84,4.35.84,5.79,3.29,7.85,1.59,1.33,3.24,2.59,4.86,3.89,2,1.61,2.07,3.54.63,5.46-1.62,2.17-3.58,1.74-5.39.21-3.16-2.65-6.11-5.58-9.65-7.31Z" fill="#123626" stroke-width="0"/><path d="M114.25,234.73c-.14,13.98-10.79,21.2-23.5,15.84-5.11-2.16-10.05-4.72-15.17-6.84-3.49-1.44-3.72-3.56-2.26-6.59,1.54-3.2,3.37-2.78,6.11-1.3,4.87,2.63,9.96,4.9,15.08,7.02,4.26,1.76,8.42,1.47,10.7-3.19,2.15-4.41.85-8.22-3.49-10.57-4.46-2.42-9.1-4.51-13.63-6.79-2.56-1.29-6.43-1.98-4.72-6.17,1.69-4.12,4.74-2.38,7.54-1.04,5.21,2.5,10.58,4.7,15.64,7.46,4.66,2.55,8,6.31,7.71,12.18Z" fill="#123626" stroke-width="0"/><path d="M418.38,631.85c2.52-.65,5.87-1.51,9.21-2.38,2.31-.6,4.84-1.23,5.74,1.81.83,2.82-1.08,4.21-3.6,4.85-6.02,1.54-12.08,2.98-18.06,4.65-3.4.95-4.52-.64-5.22-3.59-2.08-8.73-4.29-17.44-6.52-26.14-.78-3.02.04-4.86,3.22-5.63,6.04-1.46,12.07-2.98,18.06-4.65,2.4-.67,4.16-.38,4.92,2.13.83,2.74-.36,4.42-3.12,5.06-3.59.83-7.18,1.63-10.75,2.54-2.14.55-4.01,1.5-3.35,4.26.68,2.83,2.69,3.58,5.29,2.95,2.91-.7,5.77-1.6,8.66-2.36,2.05-.54,3.75.05,4.47,2.13.83,2.4-.23,4.07-2.61,4.75-2.88.83-5.8,1.49-8.7,2.24-2.14.55-4.09,1.4-3.6,4.13.51,2.8,2.47,3.67,5.97,3.25Z" fill="#123626" stroke-width="0"/><path d="M474.31,111.34c.53-8.75,3.33-15.79,13.18-18.76,7.74-2.33,17.83,1.07,22.65,8.18,1.49,2.2,3.78,4.82.27,7.12-2.92,1.91-5.16.66-6.81-2.25-2.72-4.82-6.96-6.72-12.3-5.42-4.72,1.16-7.38,4.66-8.45,9.21-1.65,7.02,2.64,12.7,10.31,13.18,3.53.22,6.33.97,6.12,4.74-.26,4.54-4.3,3.42-7.03,3.28-10.35-.55-17.97-8.87-17.95-19.27Z" fill="#123626" stroke-width="0"/><path d="M599.14,276.18c0-3.2-.13-4.37.03-5.51.35-2.65,0-6.12,4.26-5.6,3.9.48,3.87,3.26,3.01,6.26-.25.89-.66,1.82-.58,2.69.35,3.42.34,8.2,4.35,8.44,4.85.3,3.83-4.65,4.12-7.91.27-2.98-.08-6.11.69-8.94,1.09-3.99,4.52-5.63,8.42-6.18,4.33-.61,7.87.97,10.05,4.67,2.64,4.49,3.32,9.49,2.7,14.66-.28,2.34-1.13,4.08-3.94,3.54-2.38-.46-3.8-1.88-3.25-4.39.6-2.76,1.1-5.42-.28-8.1-.79-1.53-1.77-2.82-3.67-2.58-1.84.24-2.84,1.54-2.95,3.33-.16,2.53-.11,5.08-.19,7.62-.23,7.41-3.52,11.72-9.45,12.45-5.61.69-11.34-3.82-12.85-10.31-.47-2.01-.47-4.12-.48-4.16Z" fill="#123626" stroke-width="0"/><path d="M341.21,647.41c-10.31,0-16.52-4.23-19.37-12.29-2.6-7.34-.4-15.6,5.52-20.72,5.62-4.87,15.43-5.77,22.12-2.06,2.36,1.31,4.59,2.81,2.92,5.9-1.75,3.23-4.03,2.8-6.86.9-4.94-3.32-9.67-2.52-13.55,1.98-3.96,4.6-4.22,9.64-.81,14.62,3.19,4.67,7.86,5.65,12.82,3.57,3.17-1.32,6.45-3.33,7.88,1.16,1.4,4.37-3.21,4.88-5.89,6.1-1.81.82-4.04.71-4.79.83Z" fill="#123626" stroke-width="0"/><path d="M597.85,186.28c-.41,2.11-1.66,3.12-3.08,3.91-1.79,1-3.32.16-4.07-1.37-3.32-6.82-7.15-5.26-11.77-1.28-4,3.45-8.59,6.2-12.72,9.51-2.71,2.16-4.82,2.32-6.95-.6-2.24-3.07-.12-4.47,2.07-6.03,5.06-3.61,10.05-7.32,15.1-10.95,3.2-2.31,5.21-4.71,1.48-8.29-2-1.92-3.31-4.18-.5-6.41,2.7-2.14,4.57-.58,6.26,1.74,4.29,5.92,8.68,11.77,13,17.67.53.72.88,1.56,1.18,2.11Z" fill="#123626" stroke-width="0"/><path d="M461.42,590.92c-.7,3.61-1.14,7.29-2.13,10.82-1.69,6.04-1.52,11.76,1.56,17.36,1.39,2.53,2.41,5.37-1.3,6.91-3.58,1.49-5.14-.85-5.87-3.82-2.42-9.8-11.44-13.13-18.14-18.76-1.72-1.45-5.66-2.29-3.11-5.45,1.88-2.33,5-2.77,8.09-.73,3.33,2.2,5.78,7.88,9.9,6.16,3.83-1.59,1.99-7.43,3.22-11.26,1.04-3.26,3.08-5.29,6.44-5.06,2.22.15,1.82,2.2,1.33,3.82Z" fill="#123626" stroke-width="0"/><path d="M556,137.48c2.15.02,3.35,1.09,4.21,2.5,1.34,2.17.44,3.94-1.22,5.5-4.71,4.4-9.3,8.95-14.18,13.15-3.38,2.91-3.88,5.31-.25,8.33,2.11,1.76,3.78,4.04,5.81,5.9,2.04,1.87,2.64,3.68.62,5.9-2.1,2.31-3.96,1.66-5.81-.36-4.19-4.54-8.4-9.05-12.62-13.56-1.71-1.83-1.79-3.72,0-5.47,7.09-6.92,14.22-13.8,21.37-20.65.63-.61,1.54-.93,2.07-1.24Z" fill="#123626" stroke-width="0"/><path d="M122.77,158.99c.67.47,1.65,1.05,2.5,1.78,4.02,3.47,8.06,6.92,11.99,10.49,7.3,6.62,7.42,6.64,13.8-1.23,1.01-1.25,1.99-2.54,2.99-3.79,1.56-1.96,3.27-2.41,5.28-.59,1.77,1.61,2.48,3.29.66,5.35-4.27,4.85-8.52,9.72-12.76,14.6-1.95,2.25-3.77,1.99-5.89.1-7.07-6.3-14.22-12.5-21.36-18.72-1.71-1.49-2.91-3.11-1.43-5.35.89-1.35,1.96-2.6,4.22-2.64Z" fill="#123626" stroke-width="0"/><path d="M231.16,116.52c-2.2-.5-5.74-.11-5.7-4.01.03-2.87,1.99-3.98,5.19-4.14,6.45-.32,8.03-3.24,5.44-9.13-2.41-5.49-4.96-10.92-7.55-16.33-1.12-2.35-1.55-4.4,1.18-5.9,2.81-1.54,4.89-.77,6.21,2.07,3.12,6.71,6.61,13.28,9.18,20.19,3.13,8.39-3.91,17-13.95,17.24Z" fill="#123626" stroke-width="0"/><path d="M167.95,162.75c-1.36-1.07-2.54-1.78-3.45-2.75-6.46-6.82-12.84-13.72-19.32-20.53-1.85-1.94-2.67-3.66-.4-5.86,2.35-2.26,4.32-1.99,6.47.33,6.43,6.93,12.95,13.78,19.45,20.65,1.39,1.47,2.26,3.11.87,4.91-.93,1.21-2.29,2.08-3.62,3.24Z" fill="#123626" stroke-width="0"/><path d="M607.52,202.59c-.12,2.24-1.71,2.82-3.09,3.63-8.14,4.78-16.32,9.48-24.36,14.42-2.53,1.56-4.17,1.41-5.65-1.14-1.3-2.25-1.78-4.27.96-5.85,8.73-5.06,17.34-10.31,26.2-15.13,4.17-2.27,4.84,1.64,5.94,4.07Z" fill="#123626" stroke-width="0"/><path d="M461.19,499.44c1.29-38.9,14.02-75.89,34.86-110.29,13.78-22.75,30.6-42.86,52.67-58.17,5.15-3.57,10.7-6.39,16.25-9.27,4.07-2.12,7.01-2.19,8.37,2.95.35,1.33.89,2.88,2.48,2.97,2.14.13,2.6-1.78,2.8-3.32,1.04-7.79,6.08-9.13,12.93-9.08,18.69.14,32.38,8.43,41.16,24.66,9.42,17.41,12.19,36.43,10.67,55.8-3.94,50.16-22.66,94.59-54.82,133.1-16.79,20.1-36.31,37.06-62.61,43.8-23.21,5.95-42.78-2.72-54.24-23.9-8.03-14.83-10.24-31.01-10.52-49.25Z" fill="#b99f6c" stroke-width="0"/><path d="M368.94,477.88c-4.13-1.33-8.75-2.77-13.33-4.3-53.96-17.97-107.91-35.95-161.86-53.93-14.25-4.75-28.45-9.67-42.78-14.15-5.05-1.58-6.3-3.99-3.94-8.57.53-1.02.79-2.17,1.23-3.24,5.05-12.13,6.03-12.55,18.3-8.24,63.67,22.4,127.36,44.73,190.97,67.29,4.48,1.59,7.34.17,9.61-2.9,3.48-4.69,6.12-3.71,10.1-.32,13.49,11.49,9.82,13.61,25.16-.55,9.21-8.5,17.81-17.69,25.93-27.48,6.31-7.61,12.65-15.58,19.58-22.85,3.37-3.53,3.03-6.22-1.18-8.88-4.85-3.06-9.38-6.61-14.16-9.77-2.99-1.98-3.96-3.74-1.76-7.3,6.01-9.72,5.94-9.99,15.35-3.69,5.5,3.69,10.59,7.99,15.84,12.04,2.24,1.73,3.44,3.51,1.29,6.37-24.29,32.16-49.01,63.9-83.72,85.9-3.1,1.97-6.28,3.93-10.63,4.55Z" fill="#b99f6c" stroke-width="0"/><path d="M343.8,277.22c-6.93,4.81-13.26,3.64-19,4.56-18.92,3.03-37.38,7.7-55.61,13.5-5.38,1.71-6.87,3.5-2.72,8.51,4.55,5.49,5.79,12.43,5.64,19.53-.03,1.32.44,2.97-1.1,3.7-1.58.76-2.44-.76-3.47-1.58-7.65-6.1-16.27-10.43-25.36-13.88-1.36-.52-2.89-2.26-4.29-.38-1.07,1.43-.22,3.07.42,4.58,4.46,10.44,4.26,21.06,1.02,31.74-.37,1.22-.27,3.01-1.97,3.33-1.72.33-2.32-1.18-2.9-2.41-11.63-24.65-34.25-32.7-58.31-38.46-4-.96-8.07-1.92-12.29-1.61-1.53.11-3.59.33-3.9-1.83-.3-2.05,1.66-2.61,3.12-3.14,18.6-6.82,37.08-14.01,56.49-18.33,33.85-7.54,68.11-11.08,102.79-9.83,6.56.23,13.09,1.19,21.46,1.98Z" fill="#29785d" stroke-width="0"/><path d="M313.46,163.91c4.01.25,8.01.56,12.02.76,26.19,1.28,51.52-2.81,76.3-11.37,19.83-6.84,40.35-11.8,61.23-6.54,17.96,4.52,29.82,13.92,32.03,33.26.16,1.45.98,3.53-1.13,4.18-1.46.45-2.4-1.1-3.24-2.15-13.86-17.42-32.04-18.82-51.91-14.05-10.42,2.51-19.89,7.43-29.63,11.64-16.81,7.27-34.43,10.39-52.68,10.18-2.12-.03-5.24,1.07-5.99-1.82-.62-2.41,2.27-3,3.98-4.07.96-.6,1.89-1.34,2.6-2.22,1.09-1.35,3.33-2.42,2.21-4.58-.87-1.68-2.87-1.01-4.42-1.08-12.55-.58-24.82-2.53-36.48-7.42-1.84-.77-3.53-1.89-5.29-2.85.14-.62.27-1.24.41-1.86Z" fill="#b99f6c" stroke-width="0"/><path d="M159.41,351.79c15.34-.79,27.26,9.78,28.52,24.93.34,4.1-1.11,4.48-4.26,3.14-6.02-2.58-12.47-3.66-17.1-9.6-4.93-6.32-13.11-5.46-19.49.87-7.08,7.02-11.86,15.61-15.4,24.8-2.77,7.2-10.17,12.93-17.85,11.89-6.69-.9-12.82-.24-18.78,2.84-5.27,2.73-9.96-.36-14.54-2.08-3.21-1.2-.88-3.8-.1-5.85,13.17-34.8,40.4-48.66,75.53-50.76,1.15-.07,2.31-.12,3.46-.17Z" fill="#fbfaf9" stroke-width="0"/><path d="M467.79,195.67c-19.95.64-37.46,5.33-52.92,15.8-10.59,7.17-21.32,13.81-33.74,17.23-25.73,7.08-50.29,3.08-74.08-7.96-.61-.28-1.18-.74-1.65-1.23-.27-.28-.32-.79-.48-1.24.89-1.7,2.39-1.01,3.63-.79,35.11,6.1,68.3,2.46,99.12-17.26,15.79-10.1,33.76-11.79,52.14-8.41,2.42.44,4.95.77,7.99,3.88Z" fill="#b99f6c" stroke-width="0"/><path d="M238.93,474.76c.06,3.91-2.46,6.88-3.69,10.33-1.41,3.95-1.12,6.49,3.97,8.23,22.61,7.71,43.52,18.8,62.52,33.36.94.72,1.83,1.41,1.4,3.68-25.01-9.55-50.89-15.3-77.13-19.58-1.35-4.64,1.38-8.48,2.65-12.54,1.37-4.38.03-6.45-4.22-7.58-4.19-1.12-8.74-1.33-12.35-4.19-1.72-3.57.83-6.06,2.28-8.81,2.96-5.6,2.65-5.98-3.62-7.66-4.32-1.16-9.27-.26-12.88-3.82-.95-2.21-.25-4.22,1.28-5.69,5.12-4.94,8.68-11.31,14.41-15.68,6.61,1.82,13.33,3.41,18.33,8.64.33,4.33-2.72,7.16-4.85,10.28-2.64,3.86-1.61,5.45,2.65,6.61,3.27.89,7.5.26,9.25,4.45Z" fill="#29785d" stroke-width="0"/><path d="M202.51,508.27c-10.69-.5-21.37-.99-32.06-1.49-1.63-3.56.81-6.12,2.29-8.82,1.64-3,3.51-5.89,5.28-8.83,3.38-5.64,3.13-5.61-3.44-7.07-4.57-1.02-9.72.38-13.72-3.1,1.86-4.56,5.79-7.59,8.48-11.55,2.07-3.05,1.49-4.71-2.31-4.8-3.91-.09-7.82-.03-11.73-.09-1.1-.02-2.41.24-3.07-.98-.73-1.36.37-2.11,1.26-2.78,8.21-6.24,16.38-12.54,24.68-18.66,5.33-3.92,10.82-1.63,16.23.08.37,5.26-4.48,6.97-7.01,10.25-2.76,3.58-9.34,6.43-8.21,10.09,1.09,3.54,7.97,2.54,12.4,3.07,1.6.19,3.21.31,4.46,1.52,1.39,3.08-.74,5.2-2.13,7.46-4.46,7.27-4.4,7.32,4.23,8.9,4.62.85,9.63.77,13.26,4.59.02,8.61-5.52,14.98-8.91,22.23Z" fill="#29785d" stroke-width="0"/><path d="M447.83,260.61c7.34-2.41,14.67-4.85,22.02-7.21,4.82-1.55,9.7-2.91,14.52-4.46,9.8-3.14,10.63-4.31,11.09-14.65.33-7.42-.5-14.68-2.54-21.84-.43-1.53-2.47-3.52-.15-4.89,1.82-1.07,3.53.57,5.01,1.55,13.06,8.67,20.34,21.13,22.64,36.37,2.58,17.08,2.31,17.12-14.91,17.12-19.09,0-38.18,0-57.28,0-.13-.67-.27-1.33-.4-2Z" fill="#29785d" stroke-width="0"/><path d="M140.86,508.38c-8.01,4.57-17.34,3.63-25.86,6.14-3.16.93-2.6-1.65-1.85-3.43,4.71-11.14,12.03-20.64,19.23-30.19,1.03-1.37,2.66-1.76,4.35-1.71,7.37.2,14.76-.64,22.1.55.71,2.86-1.13,4.85-2.56,6.83-5.23,7.2-9.02,15.43-15.41,21.8Z" fill="#29785d" stroke-width="0"/><path d="M449.69,336.33c-1.71-.42-4.56,1.19-5.21-1.54-.48-2.04,2.18-2.58,3.67-3.56,8.99-5.89,17.56-12.47,27.33-17.1,10.5-4.98,21.33-8.72,33.16-8.91,4.99-.08,6.4,1.71,4.2,6.24-2.88,5.91-6.35,10.42-14.14,9.78-7.3-.6-13.97,1.94-20.16,6.08-8.62,5.77-18.29,8.66-28.85,9.01Z" fill="#b99f6c" stroke-width="0"/><path d="M140.86,508.38c4.52-10.47,12.3-18.89,17.97-28.63.68-.26,1.36-.53,2.04-.79,5.94.52,11.87,1.21,17.82,1.53,5.59.3,5.54,2.65,2.99,6.59-4.11,6.35-8.52,12.55-11.23,19.71-9.88.27-19.62,3.06-29.59,1.6Z" fill="#b99f6c" stroke-width="0"/><path d="M195.96,466.17c-5.65-.74-11.3-1.49-16.95-2.21-1.32-.17-2.89.22-3.64-1.28-.92-1.84.46-2.99,1.54-4.14,5.81-6.13,11.65-12.25,17.48-18.37,6.82-.26,12.93,2.38,19.15,4.61-1.93,5.53-6.57,9.01-10.05,13.37-1.81,2.26-4.6,3.8-5.14,7-.56.9-1.38,1.18-2.4,1.01Z" fill="#b99f6c" stroke-width="0"/><path d="M202.51,508.27c.25-8.4,6.5-14.45,8.62-22.12l.38-.55.66.08c5.11,1.31,10.2,2.73,15.35,3.89,4.13.93,5.23,3.1,3.7,6.99-1.84,4.69-3.48,9.46-5.21,14.2-7.83-.83-15.67-1.66-23.5-2.49Z" fill="#b99f6c" stroke-width="0"/><path d="M460.76,279.53c5.85.18,11.53.97,17.02,2.89,2.19.77,4.47,1.86,4.61,4.56.12,2.25-1.46,3.82-3.28,4.95-5.05,3.15-10.14,6.22-15.2,9.36-1.85,1.15-3.69,2.61-4.56-.93-1.92-7.74-7.74-11.65-14.45-14.64-1.18-.53-3.04-.28-2.91-2.2.15-2.28,2.27-1.94,3.71-2.14,5.01-.71,10.04-1.25,15.06-1.85Z" fill="#fbfaf9" stroke-width="0"/><path d="M399.53,323.45c-8.2-.17-14.28-4.35-19.3-10.25-2.42-2.85-1.82-6.17.34-8.92,2.11-2.69,4.66-1.11,6.83.12,5.95,3.38,12.5,4.59,19.14,5.31,3,.32,5.7.88,6.63,3.9,1.03,3.34-1.91,5-4.04,6.56-2.81,2.06-6.2,2.95-9.6,3.28Z" fill="#29785d" stroke-width="0"/><path d="M408.13,302.98c-5.06-.75-11.25-.76-13.1-5.23-1.77-4.29,3.76-7.29,6.72-10.33,3.94-4.04,8.89-6.58,14.27-8.16,3.08-.9,6.1-.63,7.88,2.52,1.95,3.45-.22,5.76-2.74,7.57-1.96,1.4-3.6,2.56-3.52,5.38.18,6.69-4.75,7.53-9.52,8.27Z" fill="#b99f6c" stroke-width="0"/><path d="M365.11,345.04c5.2-5.09,5.83-10.83,5.25-17.33-.4-4.45,2.67-7.02,7.22-5.31,4.26,1.6,8.33,3.81,12.24,6.17,4.04,2.44,4.53,5.72.64,8.84-7.23,5.81-15.67,8.07-25.35,7.64Z" fill="#b99f6c" stroke-width="0"/><path d="M247.73,461.03c12.32,6.3,23.31,14.43,32.93,24.83-13.26-3.8-26.52-7.61-39.79-11.41.29-5.49,2.01-10.25,6.85-13.41Z" fill="#29785d" stroke-width="0"/><path d="M247.73,461.03c-2.28,4.47-4.56,8.95-6.85,13.42-.65.1-1.3.21-1.95.31-3.93-1.15-7.79-2.69-11.8-3.34-5.8-.94-5.58-3.19-2.51-7.16,2.66-3.43,4.86-7.21,7.26-10.84,6.17.67,11.14,3.88,15.85,7.61Z" fill="#b99f6c" stroke-width="0"/><path d="M509.49,296.7c-5.86.36-9.87-4.69-15.53-5.31-1.89-.21-.89-2.72.02-4.05,2.04-2.96,4.7-5.1,8.4-5.55,2.34-.28,4.26-1.01,6.13-2.71,4.65-4.24,6.38-3.58,8.4,2.58,3.42,10.44,1.24,14.85-7.43,15.04Z" fill="#fbfaf9" stroke-width="0"/><path d="M483.21,353.33c-2.54-.45-7.24.84-8.17-2.39-1.15-3.95,4.49-4.64,6.59-5.4,5.17-1.89,9.51-5.67,15.05-6.51,1.53-.23,3.3-1.04,4.35.77.8,1.38-.17,2.61-.93,3.77-3.86,5.91-8.81,9.99-16.89,9.76Z" fill="#fbfaf9" stroke-width="0"/><path d="M435.29,401.16c-4.43-2.35-8.88-4.68-13.29-7.05-2.04-1.1-3.56-2.85-1.95-4.98,1.63-2.17,3.33-.27,4.6.95,3.63,3.5,8.31,5.85,10.65,11.09Z" fill="#b99f6c" stroke-width="0"/><path d="M408.59,430.66c-4.68-2.16-9.28-2.72-12.25-6.56-.8-1.04-2.2-2.09-1.08-3.49.99-1.24,2.62-1.05,3.7-.12,3.33,2.85,7.66,4.76,9.63,10.18Z" fill="#b99f6c" stroke-width="0"/><path d="M119.97,208.61c-2.29-1.16-5.38-2.22-4.21-4.81,1.73-3.83,3.49-8.46,8.42-9.32,2.36-.41,4.15,1.75,3.13,4.08-1.67,3.82-2.73,8.36-7.35,10.05Z" fill="#b99f6c" stroke-width="0"/><path d="M114,192.19c-1.63,2.83-1.9,7.48-6.8,7.79-2.08.13-3.78-1.62-3.96-3.98-.21-2.81,5.5-8.61,7.98-8.25,2.33.33,2.84,1.95,2.78,4.44Z" fill="#b99f6c" stroke-width="0"/><path d="M348.05,82.36c-5.84.13-11.41-5.21-11.71-11.23-.29-5.78,5.16-11.86,10.87-12.12,6.15-.28,11.85,5.29,12,11.74.14,6.2-4.93,11.46-11.16,11.61Z" fill="#b99f6c" stroke-width="0"/><path d="M302.86,62.99c4.57-.47,7.43,1.29,7.32,5.1-.17,6.22-5.82,5.77-9.82,6.32-4.16.58-4.53-3.14-4.64-6.16-.21-5.75,4.49-4.63,7.14-5.26Z" fill="#b99f6c" stroke-width="0"/><path d="M293.84,612.27c6.07.16,10.52,4.99,10.45,11.34-.07,6.66-4.93,11.47-11.33,11.18-5.81-.26-10.14-4.93-10.1-10.91.04-6.69,4.84-11.77,10.98-11.61Z" fill="#b99f6c" stroke-width="0"/><path d="M79.49,265.75c5.17.46,9.47,2.7,11.3,8.2,1.17,3.5.28,7.02-1.77,9.82-2.03,2.78-5.07,1.04-7.67.47-1.79-.39-3.59-.91-5.27-1.62-3.2-1.36-8.67.01-7.96-6.27.62-5.52,5.91-10.53,11.38-10.59Z" fill="#b99f6c" stroke-width="0"/><path d="M556,474.8c.43,8.63-12.95,23.38-20.91,23.23-2.83-.05-4.83-1.41-6.19-3.76-.86-1.48-1.16-3.2-.02-4.57,1.87-2.23,4.02-1.09,6.31-.4,5.27,1.6,6.74.12,5.47-5.48-1.07-4.73-2.44-9.39-2.24-14.32.06-1.42.94-3.84-1.54-3.72-2.14.11-2.59,2.28-2.43,4.3.82,9.93-3.31,16.37-12.5,19.81-3.19,1.2-5.93.83-8.18-1.72-1.56-1.77-2.92-3.93-1.68-6.29,1.34-2.56,3.57-1.12,5.51-.62,7.26,1.86,10.12-.14,11.1-7.66.82-6.3.48-12.44-2.4-18.22-1.44-2.88-1.64-5.66,1.73-6.92,3.49-1.3,4.04,1.92,5,4.22.73,1.77.2,4.93,3.01,4.66,2.84-.27,2.69-3.37,3.05-5.56,1.52-9.16,4.13-18,7.56-26.61.48-1.2,1.74-2.53.48-3.79-1.24-1.24-2.68-.34-3.72.51-14,11.36-22.49,26.04-25.84,43.67-.68,3.58,1.63,3.06,3.84,1.92,1.03-.53,2.38-1.13,2.99.22.4.88.29,2.39-.23,3.2-.98,1.51-2.18,3.41-3.71,3.95-11.14,3.91-22.38,6.21-33.35-.57-5.41-3.35-5.69-6.23-1.18-11.01,8.39-8.9,18.29-15.59,29.95-19.39,3.32-1.08,5.54-2.81,7.32-5.76,7.01-11.62,15.16-22.15,28.03-27.92,2.55-1.14,3.42-3.64,4.52-5.92,6.49-13.39,14.82-25.55,24.86-36.5,1.44-1.57,2.88-4.49,5.52-2.97,2.01,1.15.86,3.84.63,5.8-1.81,15.06-7.11,29.07-13.18,42.82-1.35,3.07-1.7,5.82-.95,9.27,2.62,12.08-.7,23.69-4.09,35.11-1.17,3.93-1.86,7.33-.36,11.35,4.38,11.74,4.59,23.9,3.22,36.22-.5,4.5-2.56,5.94-6.8,5.64-8.24-.59-13.18-5.88-17.4-12.07-1.66-2.44-.17-4.11,2.02-5.65,3.35-2.37,6.8-4.78,9.54-7.78,3.97-4.34,4.53-9.66,1.43-14.74-2.99-4.9-7.44-3.66-11.66-1.74-4.26,1.93-5.28,9.11-1.87,12.27,1.86,1.72,3.11.49,3.77-1.04,1.15-2.62,2.49-4.82,5.56-5.46Z" fill="#123626" stroke-width="0"/><path d="M596.92,327.92c12.38,2.68,19.39,10.15,24.67,19.23,9.2,15.81,10.72,33.44,9.34,51.09-4.07,51.97-24.88,96.64-60.8,134.21-11.45,11.97-25.06,21.06-40.68,27.03-4.05,1.55-7.91,2-12.11,1.39-.07-3.22,2.84-2.97,4.39-3.56,23.64-8.96,40.72-25.96,55.24-45.7,27.53-37.41,43.95-78.95,44.43-125.95.1-9.97-1.5-19.81-4.55-29.33-2.56-7.98-5.81-15.56-13.37-20.34-2.51-1.59-4.45-3.84-6.55-8.06Z" fill="#123626" stroke-width="0"/><path d="M212.16,485.69c-.3.25-.65.41-1.04.47-6.72-1.39-13.42-2.97-20.18-4.11-3.8-.64-4.21-2.09-2.22-5.02,2.45-3.6,4.83-7.25,7.24-10.87.8-.33,1.6-.67,2.4-1.01,5.35,2.84,11.47,2.41,17.16,3.93,4.04,1.08,4.24,2.62,2.5,5.73-2.01,3.59-3.91,7.24-5.85,10.87Z" fill="#123626" stroke-width="0"/><path d="M547.76,443.35c3.22-13.64,4.82-27.73,14.54-38.71,1.64-1.85,3.36-4.21,6.36-2.92,2.16.93,1.67,3.09,1.38,4.88-.44,2.66-1.37,4.95-4.8,4.65-2.86-.25-5.1,1.13-6.19,3.57-1.34,3.01,1.76,3.72,3.34,5.17,4.45,4.1,5.25,9.39,5.34,15.12.12,7.07-1.97,13.62-3.98,20.22-.65,2.13-1.91,3.91-4.39,3.62-4.1-.47-7.73.61-11.27,2.53-1.59.87-3.73,2.14-5.05.42-1.48-1.93.79-3.28,2.04-4.46,6.56-6.2,11.86-13.29,15.6-21.52.47-1.04,1.04-2.05,1.41-3.13.38-1.11.59-2.52-.46-3.19-1.49-.96-2.62.25-3.36,1.39-2.94,4.49-5.34,9.41-10.52,12.35Z" fill="#b99f6c" stroke-width="0"/><path d="M515.76,453.96c-1.07,3.9-2.11,7.81-3.24,11.69-.4,1.37-1.13,2.68-2.87,2.25-1.62-.4-1.93-1.88-1.93-3.28,0-5.26,2.53-8.93,8.03-10.66Z" fill="#b99f6c" stroke-width="0"/></g></svg>