<?xml version="1.0" encoding="UTF-8"?>
<svg id="Layer_2" data-name="Layer 2" xmlns="http://www.w3.org/2000/svg" viewBox="0 0 496.41 700">
  <defs>
    <style>
      .cls-1 {
        fill: #013594;
      }

      .cls-2 {
        fill: #fefefe;
      }
    </style>
  </defs>
  <g id="Layer_1-2" data-name="Layer 1">
    <g>
      <path class="cls-2" d="M485.31,251.68c-.15,2.65,.04,5.29-.35,7.95-.6,4.18-2.62,7.4-6.08,9.68-.9,.6-.97,1.01-.67,1.97,3.61,11.52,6.03,23.31,7.74,35.25,1.32,9.22,2.36,18.49,2.79,27.79,.31,6.77,2.13,13.21,3.62,19.73,2.19,9.6,3.41,19.33,3.85,29.16,.39,8.62,.25,17.24-.5,25.83-1.04,11.84-3.11,23.52-5.96,35.06-3.82,15.5-8.84,30.62-14.6,45.5-3.17,8.18-10.63,11.67-18.93,8.68-.98-.35-1.35-.12-1.86,.61-12.55,18.11-22.31,37.51-27.33,59.09-.77,3.32-.99,6.76-1.71,10.09-2.17,10.07-13.59,14.44-22.04,8.5q-2.39-1.68-4.16,.75c-11.2,15.33-22.82,30.32-35.9,44.13-12.17,12.86-25.7,24-40.56,33.64-20.61,13.35-40.85,27.26-61.92,39.9-2.43,1.46-4.99,2.7-7.44,4.13-2.04,1.19-3.92,1.14-6.01,0-7.62-4.11-14.82-8.92-22.08-13.61-12.86-8.31-25.41-17.1-38.54-24.98-7.8-4.68-15.9-8.85-23.45-13.95-27.68-18.72-50.79-41.86-68.14-70.54-.69-1.15-1.13-1.03-2.15-.37-8.51,5.5-19.34,1.25-21.7-8.56-.86-3.58-.77-7.31-1.29-10.96-1.76-12.37-6.2-23.75-12.34-34.53-4.65-8.16-10.11-15.77-15.67-23.32-.65-.88-1.14-1.17-2.36-.75-7.67,2.64-15.07-.88-18.09-8.49-7.01-17.72-12.96-35.79-16.88-54.46-2.59-12.34-4.19-24.82-4.53-37.46-.25-9.41,.13-18.78,1.32-28.1,1.44-11.2,3.93-22.18,7.65-32.85,.4-1.15,.52-2.18,0-3.32-1.24-2.71-.9-5.59-.64-8.4,1.71-18.01,4.43-35.85,9.78-53.19,.2-.64,.52-1.12-.3-1.61-5.22-3.11-6.57-8.13-6.8-13.74-.63-15.84,2.74-30.75,10.25-44.71,.69-1.27,.76-2.04-.44-3.05-1.93-1.63-3.69-3.46-5.47-5.26-6.18-6.26-5.46-16.2,1.61-21.37,6.74-4.93,13.57-9.72,20.35-14.59,.91-.65,1.77-1.12,1.47-2.73-2.1-11.29-2.96-22.7-2.7-34.19,.23-9.77,1.1-19.49,2.5-29.17,1.87-12.9,4.26-25.7,7.74-38.24,3.34-12.04,9.17-23.06,15.01-34.02,4.03-7.57,8.17-15.09,12.98-22.21C76.76,2.87,79.73,.23,84.25,0c.96-.05,1.72,.2,2.47,.83,21.95,18.29,43.93,36.55,65.89,54.83,19.36,16.12,38.62,32.38,57.64,48.91,3.91,3.4,7.76,6.87,11.54,10.41,1.02,.95,2.02,1.22,3.3,1.03,7.77-1.14,15.61-1.36,23.44-1.3,7.82,.06,15.65,.37,23.4,1.68,.82,.14,1.42-.05,2.07-.65,24.45-22.04,49.8-43.03,75.01-64.2,19.8-16.62,39.71-33.1,59.48-49.75,2.35-1.98,4.48-2.09,7.07-1.09,2.66,1.02,4.57,2.92,6.13,5.18,5.06,7.35,9.32,15.18,13.51,23.04,5.73,10.74,11.34,21.56,14.73,33.31,2.85,9.84,4.74,19.92,6.51,30.01,1.61,9.17,2.78,18.41,3.4,27.7,.64,9.44,.72,18.88-.16,28.33-.48,5.09-1.05,10.15-2.03,15.17-.31,1.6,.09,2.66,1.57,3.68,6.7,4.64,13.3,9.42,19.9,14.2,7.4,5.36,8.16,15.3,1.68,21.79-1.88,1.88-3.79,3.73-5.76,5.51-.73,.66-.76,1.12-.3,1.95,4.76,8.64,7.97,17.83,9.57,27.57,.74,4.48,1.13,8.99,.98,13.54Zm-9.32,79.22c-.28-2.86-.55-5.56-.81-8.27-2.12-22.15-6.26-43.83-15.06-64.42-.27-.64-.69-1.32-.07-1.98,.6-.63,1.31-.39,1.99-.17,2.59,.83,5.18,1.65,7.75,2.52,2.19,.73,2.74,.47,2.87-1.78,.35-5.84,.15-11.66-.85-17.44-1.89-10.89-6.24-20.78-12.41-29.89-.99-1.47-.96-2.39,.39-3.62,3.82-3.5,7.5-7.17,11.25-10.75,2.12-2.02,2.11-2.64-.24-4.32-6.74-4.83-13.49-9.65-20.24-14.48-1.11-.79-2.16-1.64-3.07-2.67-3.15-3.55-3-7.75-2.23-11.96,2.11-11.72,2.78-23.51,2.3-35.41-.83-20.23-4.42-40.02-9.43-59.57-2.42-9.45-6.92-18.11-11.34-26.75-4.54-8.88-9.41-17.58-14.73-26.03-.88-1.39-1.47-1.41-2.51-.23-.93,1.07-2.02,2.02-3.07,2.97-24.4,22.04-49.79,42.92-74.65,64.43-18.14,15.69-36.37,31.29-53.57,48.03-.86,.84-1.61,.79-2.59,.62-18.23-3.22-36.49-3.28-54.76-.41-1.49,.23-2.53-.05-3.61-1.15-5.81-5.93-11.95-11.52-18.11-17.07-26.02-23.44-52.88-45.89-79.52-68.62-11.24-9.59-22.63-19.03-33.3-29.28-1.1-1.06-1.35-.23-1.8,.46-4.54,7.02-8.64,14.3-12.54,21.68-5.26,9.96-10.65,19.92-13.6,30.84-4.33,16.03-7.32,32.34-8.85,48.89-1.44,15.56-1.4,31.08,1.59,46.47,1.35,6.93-.74,12-6.77,15.89-6.58,4.25-12.8,9.06-19.17,13.63-1.83,1.32-1.87,2.16-.26,3.69,3.29,3.13,6.63,6.2,9.84,9.4,3.94,3.91,3.96,2.47,.87,7.28-.18,.27-.34,.55-.51,.83-8.49,13.66-12.58,28.44-11.4,44.57,.17,2.39,.51,2.54,2.75,1.77,2.63-.9,5.29-1.73,7.95-2.55,.66-.21,1.39-.52,2.01,.1,.68,.68,.13,1.35-.14,1.96-1.7,3.99-3.24,8.04-4.63,12.15-4.61,13.61-7.46,27.61-9.29,41.83-.65,5.08-1.1,10.18-1.62,15.27-.06,.62-.24,1.31,.46,1.76,.81,.53,1.32-.1,1.9-.47,.73-.46,1.38-1.08,2.52-1.2-.17,.5-.25,.8-.37,1.08-11.57,27.25-14.97,55.62-11.42,84.89,2.97,24.53,10.26,47.9,19.17,70.83,.79,2.02,2.08,2.19,3.41,.49,1.28-1.64,2.49-3.32,3.75-4.97,1.34-1.76,2.09-1.77,3.43,.03,4.85,6.49,9.74,12.95,14.48,19.52,13.88,19.23,23.84,40.02,25.29,64.16,.13,2.16,1.37,2.66,3.11,1.36,2.64-1.99,5.28-3.98,7.86-6.04,3.9-3.11,3.84-2.86,6.02,1.27,14.79,27.94,35.4,50.83,60.68,69.63,11.56,8.6,23.74,16.2,37.01,21.94,2.08,.9,2.11,.85,2.11-1.34,0-.78,0-1.56,0-2.34,.01-.69-.19-1.52,.66-1.86,.73-.3,1.19,.32,1.68,.73,8.1,6.89,16.28,13.68,24.63,20.28,6.61,5.22,13.17,10.51,20.35,14.97,1.85,1.15,3.52,1.26,5.38,.05,2.45-1.59,4.83-3.27,7.12-5.07,11.69-9.17,22.76-19.06,33.75-29.04,.51-.46,.95-1.2,1.8-.83,.82,.36,.64,1.18,.67,1.88,.08,2.04-.19,4.1,.29,6.32,9.44-5.42,18.97-10.38,27.79-16.52,17.23-12,31.59-27,44.87-43.13,9.73-11.82,18.72-24.2,27.59-36.67,1.41-1.99,1.75-2.04,3.69-.55,3.18,2.45,6.34,4.95,9.53,7.39,1.81,1.38,2.95,.86,3.24-1.4,.64-5.08,1.55-10.11,2.94-15.04,5.98-21.14,15.72-40.47,28.33-58.4,2.66-3.78,5.45-7.41,8.92-10.49,1.26-1.12,2.2-1.13,3.16,.32,1,1.51,2.09,2.96,3.14,4.45,.52,.74,.98,1.53,2.11,1.42,1.18-.11,1.34-1.05,1.66-1.88,4.16-10.67,7.92-21.48,11.08-32.49,6.15-21.41,9.83-43.16,9.18-65.55-.54-18.58-4.14-36.5-10.84-53.82-.36-.93-1.52-2.02-.5-3,1.1-1.05,1.91,.49,2.89,.76,.12,.03,.24,.04,.65,.12Z"/>
      <path class="cls-1" d="M475.98,330.9c-.41-.07-.53-.08-.65-.12-.98-.27-1.79-1.81-2.89-.76-1.02,.98,.14,2.07,.5,3,6.7,17.32,10.3,35.24,10.84,53.82,.65,22.39-3.03,44.13-9.18,65.55-3.16,11.01-6.92,21.82-11.08,32.49-.33,.84-.48,1.77-1.66,1.88-1.13,.11-1.59-.68-2.11-1.42-1.05-1.48-2.14-2.93-3.14-4.45-.96-1.45-1.9-1.45-3.16-.32-3.47,3.09-6.26,6.71-8.92,10.49-12.61,17.93-22.35,37.25-28.33,58.4-1.39,4.93-2.3,9.96-2.94,15.04-.29,2.26-1.43,2.78-3.24,1.4-3.19-2.44-6.35-4.93-9.53-7.39-1.93-1.49-2.27-1.44-3.69,.55-8.87,12.47-17.86,24.85-27.59,36.67-13.28,16.12-27.63,31.12-44.87,43.13-8.83,6.15-18.35,11.1-27.79,16.52-.48-2.23-.21-4.29-.29-6.32-.03-.69,.16-1.51-.67-1.88-.85-.37-1.29,.37-1.8,.83-10.99,9.99-22.06,19.87-33.75,29.04-2.29,1.8-4.68,3.48-7.12,5.07-1.86,1.21-3.52,1.11-5.38-.05-7.18-4.46-13.74-9.75-20.35-14.97-8.34-6.59-16.53-13.39-24.63-20.28-.48-.41-.94-1.03-1.68-.73-.85,.34-.64,1.17-.66,1.86-.01,.78,0,1.56,0,2.34,0,2.19-.03,2.24-2.11,1.34-13.27-5.73-25.45-13.33-37.01-21.94-25.27-18.8-45.89-41.69-60.68-69.63-2.19-4.13-2.13-4.39-6.02-1.27-2.58,2.06-5.22,4.05-7.86,6.04-1.74,1.3-2.98,.8-3.11-1.36-1.45-24.14-11.41-44.93-25.29-64.16-4.74-6.57-9.64-13.03-14.48-19.52-1.34-1.8-2.09-1.79-3.43-.03-1.26,1.65-2.47,3.33-3.75,4.97-1.33,1.7-2.62,1.53-3.41-.49-8.91-22.93-16.2-46.3-19.17-70.83-3.54-29.27-.15-57.64,11.42-84.89,.12-.28,.2-.57,.37-1.08-1.13,.11-1.79,.73-2.52,1.2-.58,.37-1.09,1-1.9,.47-.7-.45-.52-1.14-.46-1.76,.52-5.09,.97-10.2,1.62-15.27,1.83-14.22,4.67-28.23,9.29-41.83,1.39-4.11,2.93-8.16,4.63-12.15,.26-.62,.82-1.29,.14-1.96-.62-.62-1.35-.3-2.01-.1-2.66,.83-5.31,1.65-7.95,2.55-2.24,.77-2.57,.62-2.75-1.77-1.18-16.13,2.91-30.91,11.4-44.57,.17-.28,.34-.55,.51-.83,3.09-4.81,3.06-3.37-.87-7.28-3.22-3.2-6.56-6.28-9.84-9.4-1.61-1.53-1.57-2.38,.26-3.69,6.37-4.58,12.59-9.38,19.17-13.63,6.03-3.9,8.12-8.97,6.77-15.89-2.99-15.39-3.03-30.91-1.59-46.47,1.53-16.55,4.52-32.86,8.85-48.89,2.95-10.92,8.34-20.88,13.6-30.84,3.9-7.39,7.99-14.67,12.54-21.68,.44-.69,.7-1.51,1.8-.46,10.67,10.25,22.05,19.68,33.3,29.28,26.63,22.73,53.5,45.18,79.52,68.62,6.16,5.55,12.3,11.14,18.11,17.07,1.08,1.1,2.12,1.39,3.61,1.15,18.27-2.87,36.53-2.81,54.76,.41,.98,.17,1.73,.22,2.59-.62,17.2-16.74,35.43-32.34,53.57-48.03,24.86-21.51,50.25-42.39,74.65-64.43,1.06-.96,2.14-1.9,3.07-2.97,1.03-1.18,1.63-1.16,2.51,.23,5.32,8.44,10.19,17.15,14.73,26.03,4.42,8.64,8.92,17.3,11.34,26.75,5.01,19.55,8.61,39.34,9.43,59.57,.49,11.9-.18,23.69-2.3,35.41-.76,4.22-.91,8.42,2.23,11.96,.91,1.03,1.97,1.88,3.07,2.67,6.74,4.83,13.49,9.65,20.24,14.48,2.34,1.68,2.35,2.3,.24,4.32-3.75,3.58-7.43,7.24-11.25,10.75-1.35,1.24-1.38,2.16-.39,3.62,6.17,9.11,10.51,19,12.41,29.89,1,5.78,1.21,11.6,.85,17.44-.14,2.25-.69,2.52-2.87,1.78-2.58-.87-5.17-1.69-7.75-2.52-.68-.22-1.4-.46-1.99,.17-.63,.66-.21,1.35,.07,1.98,8.8,20.59,12.93,42.27,15.06,64.42,.26,2.71,.53,5.41,.81,8.27Zm-225.69,207.64c0-5.72-.09-11.22,.05-16.71,.05-1.88-.56-2.13-2.29-2.12-8.83,.07-16.95-2.12-23.63-8.22-6.12-5.6-9.15-12.85-10.09-20.9-1.37-11.65-1.97-8.99,4.33-16.54,8.98-10.76,18.69-20.85,28.41-30.94,1.44-1.49,2.11-2.96,2.1-5.1-.07-37.51-.05-75.01-.04-112.52,0-.91,.03-1.82,.11-2.72,.08-.87-.08-2,.99-2.31,1.04-.3,1.63,.65,2.19,1.33,2.11,2.57,3.58,5.53,5.05,8.49,1.9,3.83,3.81,7.66,6.52,11.01,.67,.82,1.4,2.08,2.61,1.63,1.15-.43,.99-1.83,1.09-2.92,0-.06,0-.13,0-.19,.33-12.78,1.28-25.5,3.46-38.1,2.66-15.38,6.79-30.31,13.97-44.26,3.78-7.35,8.22-14.25,14.31-19.96,.46-.43,.9-1.13,1.62-.77,.82,.41,.27,1.13,.16,1.73-1.64,8.84-.95,17.42,2.94,25.62,.96,2.02,2.01,4,3.79,5.68,.65-1.29,1.2-2.39,1.76-3.48,5.31-10.28,11.33-20.09,19.13-28.7,12.03-13.26,26.27-21.57,44.92-19.89,.79,.07,1.61,.08,2.02-.79,.44-.94-.18-1.57-.73-2.23-10.1-12.14-22.24-21.72-36.58-28.34-14.47-6.68-29.61-10.56-45.72-9.71-.37,.02-.82,.19-.98-.33-.1-.34,.15-.6,.4-.82,.34-.3,.66-.62,.99-.93,22.11-20.2,44.2-40.42,66.34-60.59,12.84-11.7,25.65-23.44,38.69-34.92,1.34-1.18,1.68-.89,2.14,.64,2.48,8.25,4.7,16.55,6.12,25.06,2.36,14.21,2.39,28.36-.9,42.47-3.19,13.7-9,26.29-16.13,38.31-.8,1.35-.78,2.24,.26,3.42,2.66,3.01,5.25,6.09,7.77,9.22,5.03,6.23,9.46,12.83,12.22,20.42,.33,.91,.82,1.85,0,2.73-.83,.9-1.81,.42-2.72,.14-4.52-1.37-9.03-2.77-13.55-4.15-.76-.23-1.55-.42-2.13,.35-.57,.74-.31,1.45,.17,2.14,1.37,1.97,2.6,4.04,4.11,5.9,22.18,27.47,38.26,58.23,49.4,91.64,2.15,6.45,3.96,13.02,4.07,19.91,.02,1.04,.17,2.2-1.15,2.58-1.46,.42-1.87-.8-2.39-1.75-.28-.51-.51-1.05-.77-1.57-1.77-3.53-3.36-7.16-5.67-10.38-.68-.94-1.24-2.46-2.77-1.94-1.8,.6-.95,2.23-.78,3.37,1.59,10.79,2.42,21.63,2.26,32.55-.24,15.72-3.62,30.47-12.19,43.95-6.47,10.18-13.48,19.98-20.18,29.99-.93,1.39-1.71,2.89-2.54,4.36-.19,.34-.32,.81,.07,1.05,.19,.12,.61-.03,.89-.15,1.69-.71,3.17-1.77,4.6-2.89,15.65-12.27,28.97-26.67,39.47-43.61,6.97-11.24,10.58-23.34,10.18-36.69-.36-11.75-1.78-23.39-2.98-35.05-.47-4.58-.89-9.17-.54-13.78,.09-1.2,.25-2.59,1.67-3.03,1.3-.41,1.74,.82,2.4,1.57,.37,.42,.73,1.13,1.34,.81,.59-.31,.27-1.03,.2-1.6-1.75-14.16-6.58-27.24-13.67-39.56-3.17-5.51-6.61-10.83-10.15-16.1-1.17-1.74-.77-2.6,1.27-2.8,.64-.06,1.3-.05,1.94-.07,3.76-.13,7.51-.3,11.27-.37,1.32-.02,1.88-.46,1.82-1.83-.08-1.81,0-3.62-.02-5.43-.08-8.71-2.34-16.74-7.39-23.93-2.76-3.93-5.71-7.71-8.68-11.47-1.05-1.33-.95-2.27,.46-3.19,1.63-1.06,3.22-2.18,4.82-3.28,2.34-1.63,2.37-2.01,.31-3.9-6.31-5.79-12.44-11.74-17.93-18.35-2.68-3.23-3.7-6.5-2.63-10.73,1.11-4.38,2.49-8.74,2.94-13.26,1.49-14.99,2-30,.47-45.02-1.93-18.88-7.53-36.58-17.06-53.02-1.26-2.16-1.69-2.23-3.7-.62-19.36,15.56-38.62,31.23-57.59,47.27-20.65,17.46-41.06,35.19-60.29,54.22-1.48,1.46-2.62,1.9-4.42,.76-.96-.61-2.14-.91-3.25-1.26-12.98-4.12-26.33-4.82-39.8-4.06-8.95,.5-17.79,1.73-26.19,5.13-1.12,.46-1.66-.19-2.32-.82-4.78-4.57-9.5-9.2-14.36-13.69-33.36-30.83-68.7-59.32-104.05-87.79-1.64-1.32-2.24-1.2-3.32,.66-4.63,8.04-8.45,16.45-11.32,25.28-5.3,16.34-7.13,33.14-6.69,50.24,.21,8.16,.26,16.34,1.61,24.42,.76,4.6,2.18,9.06,3.01,13.65,.42,2.33,.06,4.31-1.28,6.23-1.97,2.83-4.2,5.43-6.55,7.95-4.2,4.51-8.63,8.78-13.21,12.9-1.86,1.67-1.81,2.19,.28,3.66,.95,.67,1.91,1.34,2.88,1.99,3.98,2.68,4.13,2.27,1.13,6.34-5.84,7.91-10.99,16.2-13.28,25.92-1.09,4.59-1.4,9.2,.47,13.73,.55,1.34,1.14,1.75,2.6,1.01,3.4-1.73,6.9-3.26,10.36-4.86,.69-.32,1.44-.9,2.11-.11,.64,.76,.04,1.45-.4,2.09-6.47,9.59-11.7,19.83-15.89,30.61-3.45,8.9-6.05,18.03-7.52,27.47-.14,.88-.42,1.86,.53,2.49,.84,.56,1.6,.04,2.37-.3,1.12-.49,2.25-1,3.4-1.4,2.21-.77,2.99-.22,2.91,2.18-.23,6.93-.53,13.86-.8,20.78-.97,24.65,4.1,47.98,15.06,70.09,7.43,14.99,16.61,28.84,26.87,42,.68,.87,1.54,1.77,.56,2.9-.99,1.15-2,.36-2.96-.16-3.43-1.87-6.61-4.11-9.61-6.59-18.82-15.62-33.79-34.26-44.2-56.47-.4-.85-.69-1.77-1.87-1.6-1.15,.17-1.27,1.08-1.37,2.04-1.76,17.82-1.73,35.6,1.62,53.26,2.11,11.11,5.51,21.82,10.35,32.06,.97,2.06,1.61,2.21,3.34,.83,1.47-1.17,2.9-2.4,4.37-3.57,1.74-1.39,2.4-1.29,3.57,.52,5.91,9.21,12.12,18.26,17.65,27.7,9.66,16.48,20.36,32.33,29.39,49.18,.78,1.46,1.7,1.59,2.95,.61,1.83-1.44,3.69-2.86,5.54-4.29,2.77-2.13,3.23-2.02,4.57,1.12,9.07,21.24,20.96,40.74,35.95,58.32,9.72,11.39,20.54,21.61,32.62,30.46,2.03,1.48,3.16,1.06,3.63-1.42,.39-2.04,.69-4.09,1.02-6.14,.16-.97,.27-2.01,1.38-2.37,1.2-.39,1.73,.63,2.34,1.34,4.97,5.73,9.92,11.48,14.91,17.19,1.02,1.17,1.94,2.5,3.65,3.31-.12-.61-.17-.98-.28-1.34-12.06-40.9-24.14-81.79-36.19-122.7-6.75-22.9-13.44-45.82-20.15-68.73-.32-1.08-.99-2.52,.28-3.1,1.23-.56,2.25,.56,2.96,1.66,.07,.11,.16,.2,.24,.31,19.87,26.91,39.74,53.81,59.59,80.73,.72,.98,1.54,1.65,2.67,2.12,9.98,4.14,19.93,8.33,29.9,12.5,1.53,.64,3.06,1.28,4.65,1.95Zm37.44,60.21c.2-.61,.42-1.21,.61-1.82,2.75-8.91,3.84-18.11,4.44-27.36,.64-9.91,.55-19.81-.86-29.68-.3-2.09-.92-1.82-2.4-1.19-12.42,5.32-24.88,10.56-37.31,15.87-1.08,.46-1.95,.52-3.07,.04-11.73-4.98-23.47-9.91-35.23-14.81-1.6-.67-3.13-1.54-4.87-1.86-3.7,18.2-.74,50.82,4.01,60.95,3.85-19.14,9.46-38.54,12.47-42.94,1.63,2.63,3.29,5.17,4.81,7.8,.66,1.13,1.15,1.46,2.31,.54,1.68-1.32,3.56-2.37,5.25-3.68,1.1-.84,1.68-.66,2.42,.44,1.09,1.61,2.42,3.05,3.52,4.65,.85,1.23,1.45,1.58,2.42,.09,.99-1.51,2.23-2.86,3.3-4.33,.57-.78,.93-.87,1.53-.02,1.16,1.64,2.44,3.19,3.6,4.83,.56,.8,.91,.88,1.52,.04,1.33-1.83,2.79-3.58,4.12-5.42,.65-.91,1.14-1.17,2.14-.39,1.63,1.27,3.49,2.26,5.08,3.58,1.43,1.18,2.05,.75,2.86-.67,1.44-2.55,3.08-4.99,4.83-7.78,5.72,14.2,9.84,28.38,12.51,43.13Zm-11.81,9.15c-1.94,8.24-4.62,16.16-8.58,23.94-1.18-1.54-2.24-2.69-3.02-4.02-.78-1.32-1.5-1.14-2.63-.49-3.84,2.21-3.88,2.2-6.88-1-.69-.73-1.14-1.07-1.91-.07-.74,.97-1.63,2.43-2.54,2.5-1.12,.08-1.87-1.54-2.72-2.48-.65-.72-1.08-.93-1.81-.1-.98,1.11-1.94,2.73-3.16,3.01-1.34,.3-2.74-1.15-4.02-1.97-1.17-.75-1.78-.42-2.47,.6-.89,1.32-1.92,2.54-3.02,3.97-.53-1.04-.98-1.83-1.35-2.65-3.14-6.91-5.6-14.05-7.13-21.8-.37,.92-.68,1.54-.88,2.2-3.13,10.21-3.8,20.56-1.83,31.09,.33,1.74,1.09,2.69,2.77,3.25,8.15,2.74,16.27,5.56,24.39,8.4,.98,.34,1.83,.31,2.8-.05,8.19-3.01,16.39-6,24.63-8.9,1.18-.42,1.62-1.1,1.86-2.16,.83-3.81,1.25-7.67,1.23-11.57-.05-7.42-.86-14.71-3.73-21.72Zm21.12-273.09c-.84,.12-2.03-.4-2.42,.9-.39,1.3,.81,1.55,1.62,2.03,2.38,1.44,4.83,2.79,7.12,4.36,15.47,10.63,25.87,25.15,32.49,42.56,.31,.81,.41,1.89,1.59,1.96,1.05,.07,1.36-.87,1.81-1.54,4.4-6.49,8.74-13.02,13.2-19.46,1.01-1.47,.96-2.42-.32-3.66-6.12-5.93-12.71-11.25-20.09-15.55-10.83-6.31-22.43-10.3-35-11.6Zm57.46-34.49c.05-1.72-.17-3.78-.42-5.84-.17-1.43-.74-1.68-2.06-1.3-7.15,2.04-14.31,4.03-21.48,5.99-1.29,.35-1.59,.97-1.26,2.26,1.13,4.45,2.11,8.94,3.25,13.38,.45,1.76,.21,2.62-1.79,3.14-8.07,2.11-16.08,4.42-24.11,6.66-.61,.17-1.41,.2-1.48,1.01-.05,.66,.61,.91,1.11,1.21,4.85,2.86,10.06,4.4,15.73,4.1,6.77-.36,12.8-2.98,18.59-6.24,9.34-5.25,14.12-13.2,13.92-24.37Zm-128.44,186.88c.03,9.4,5.15,15.94,14.53,18.63,1.17,.33,2.31,.71,3.14-.52,.78-1.17,0-2.05-.68-2.95-3.73-4.88-7.45-9.78-11.18-14.67-.82-1.08-1.63-2.17-2.49-3.23-.47-.58-1.08-.92-1.88-.67-.82,.26-1.33,.81-1.43,1.66-.07,.57-.01,1.16-.01,1.75Zm53.63,.21c.02-.26,.05-.52,.05-.78,0-1.11,.06-2.25-1.27-2.75-1.38-.52-1.99,.44-2.67,1.33-4.42,5.82-8.85,11.64-13.29,17.44-.62,.81-1.12,1.63-.47,2.63,.64,.98,1.57,.98,2.58,.73,9.42-2.28,14.81-8.92,15.07-18.62Z"/>
      <path class="cls-2" d="M250.29,538.55c-1.6-.67-3.13-1.31-4.65-1.95-9.96-4.17-19.92-8.36-29.9-12.5-1.12-.47-1.94-1.14-2.67-2.12-19.85-26.92-39.72-53.83-59.59-80.73-.08-.1-.17-.2-.24-.31-.7-1.09-1.72-2.22-2.96-1.66-1.27,.58-.59,2.03-.28,3.1,6.71,22.91,13.41,45.83,20.15,68.73,12.05,40.9,24.13,81.8,36.19,122.7,.11,.36,.15,.73,.28,1.34-1.71-.81-2.63-2.14-3.65-3.31-4.99-5.71-9.94-11.46-14.91-17.19-.62-.71-1.14-1.73-2.34-1.34-1.11,.36-1.22,1.4-1.38,2.37-.33,2.05-.63,4.1-1.02,6.14-.47,2.48-1.6,2.91-3.63,1.42-12.09-8.86-22.91-19.07-32.62-30.46-14.99-17.58-26.89-37.08-35.95-58.32-1.34-3.14-1.8-3.25-4.57-1.12-1.85,1.43-3.7,2.84-5.54,4.29-1.25,.98-2.17,.85-2.95-.61-9.03-16.85-19.74-32.7-29.39-49.18-5.53-9.44-11.73-18.48-17.65-27.7-1.16-1.82-1.83-1.91-3.57-.52-1.47,1.17-2.9,2.4-4.37,3.57-1.72,1.38-2.37,1.23-3.34-.83-4.83-10.24-8.24-20.94-10.35-32.06-3.35-17.67-3.38-35.44-1.62-53.26,.09-.96,.22-1.87,1.37-2.04,1.18-.17,1.47,.75,1.87,1.6,10.41,22.21,25.38,40.85,44.2,56.47,2.99,2.49,6.18,4.72,9.61,6.59,.95,.52,1.96,1.31,2.96,.16,.98-1.14,.12-2.03-.56-2.9-10.26-13.16-19.44-27.01-26.87-42-10.95-22.1-16.02-45.44-15.06-70.09,.27-6.93,.57-13.86,.8-20.78,.08-2.4-.7-2.95-2.91-2.18-1.16,.4-2.28,.91-3.4,1.4-.77,.34-1.53,.86-2.37,.3-.95-.63-.66-1.61-.53-2.49,1.47-9.44,4.07-18.58,7.52-27.47,4.18-10.78,9.41-21.02,15.89-30.61,.44-.65,1.04-1.33,.4-2.09-.66-.8-1.42-.21-2.11,.11-3.46,1.61-6.96,3.13-10.36,4.86-1.46,.74-2.05,.33-2.6-1.01-1.87-4.53-1.55-9.14-.47-13.73,2.3-9.72,7.45-18.01,13.28-25.92,3.01-4.07,2.85-3.67-1.13-6.34-.97-.65-1.92-1.32-2.88-1.99-2.09-1.47-2.14-1.99-.28-3.66,4.58-4.12,9.02-8.39,13.21-12.9,2.34-2.52,4.57-5.12,6.55-7.95,1.34-1.92,1.71-3.9,1.28-6.23-.83-4.59-2.24-9.06-3.01-13.65-1.34-8.08-1.4-16.26-1.61-24.42-.44-17.09,1.39-33.9,6.69-50.24,2.87-8.83,6.69-17.24,11.32-25.28,1.07-1.86,1.67-1.99,3.32-.66,35.35,28.47,70.68,56.96,104.05,87.79,4.86,4.49,9.58,9.11,14.36,13.69,.66,.64,1.2,1.28,2.32,.82,8.39-3.41,17.24-4.63,26.19-5.13,13.47-.76,26.82-.06,39.8,4.06,1.11,.35,2.28,.65,3.25,1.26,1.8,1.14,2.94,.7,4.42-.76,19.23-19.03,39.65-36.76,60.29-54.22,18.96-16.04,38.23-31.71,57.59-47.27,2-1.61,2.44-1.54,3.7,.62,9.54,16.43,15.13,34.13,17.06,53.02,1.54,15.03,1.02,30.03-.47,45.02-.45,4.52-1.83,8.88-2.94,13.26-1.07,4.23-.04,7.5,2.63,10.73,5.48,6.61,11.61,12.56,17.93,18.35,2.06,1.89,2.03,2.27-.31,3.9-1.6,1.11-3.19,2.23-4.82,3.28-1.41,.92-1.52,1.86-.46,3.19,2.98,3.76,5.92,7.54,8.68,11.47,5.05,7.19,7.31,15.22,7.39,23.93,.02,1.81-.06,3.62,.02,5.43,.06,1.37-.5,1.81-1.82,1.83-3.76,.06-7.51,.24-11.27,.37-.65,.02-1.3,0-1.94,.07-2.04,.2-2.44,1.06-1.27,2.8,3.54,5.27,6.98,10.6,10.15,16.1,7.09,12.32,11.92,25.4,13.67,39.56,.07,.57,.39,1.3-.2,1.6-.61,.32-.97-.39-1.34-.81-.66-.75-1.1-1.98-2.4-1.57-1.42,.45-1.58,1.83-1.67,3.03-.35,4.61,.07,9.2,.54,13.78,1.2,11.66,2.62,23.3,2.98,35.05,.41,13.35-3.21,25.46-10.18,36.69-10.5,16.94-23.82,31.33-39.47,43.61-1.42,1.12-2.91,2.18-4.6,2.89-.28,.12-.7,.27-.89,.15-.38-.24-.26-.72-.07-1.05,.82-1.47,1.61-2.96,2.54-4.36,6.7-10.01,13.71-19.81,20.18-29.99,8.57-13.48,11.95-28.23,12.19-43.95,.16-10.92-.67-21.76-2.26-32.55-.17-1.14-1.01-2.77,.78-3.37,1.53-.51,2.09,1,2.77,1.94,2.31,3.22,3.9,6.86,5.67,10.38,.26,.52,.49,1.06,.77,1.57,.53,.95,.94,2.17,2.39,1.75,1.31-.38,1.16-1.54,1.15-2.58-.11-6.89-1.92-13.47-4.07-19.91-11.14-33.41-27.22-64.17-49.4-91.64-1.5-1.86-2.74-3.93-4.11-5.9-.48-.69-.74-1.4-.17-2.14,.58-.76,1.37-.58,2.13-.35,4.52,1.38,9.03,2.78,13.55,4.15,.91,.28,1.88,.76,2.72-.14,.82-.89,.33-1.82,0-2.73-2.76-7.59-7.19-14.19-12.22-20.42-2.53-3.13-5.11-6.21-7.77-9.22-1.04-1.18-1.06-2.07-.26-3.42,7.13-12.03,12.94-24.61,16.13-38.31,3.28-14.11,3.26-28.26,.9-42.47-1.41-8.51-3.64-16.81-6.12-25.06-.46-1.54-.8-1.82-2.14-.64-13.04,11.48-25.85,23.22-38.69,34.92-22.13,20.17-44.23,40.39-66.34,60.59-.33,.31-.66,.63-.99,.93-.25,.22-.5,.47-.4,.82,.16,.51,.61,.35,.98,.33,16.11-.85,31.24,3.03,45.72,9.71,14.34,6.62,26.47,16.19,36.58,28.34,.55,.66,1.18,1.29,.73,2.23-.41,.87-1.23,.86-2.02,.79-18.65-1.68-32.89,6.63-44.92,19.89-7.81,8.61-13.83,18.42-19.13,28.7-.56,1.09-1.11,2.19-1.76,3.48-1.78-1.68-2.83-3.65-3.79-5.68-3.89-8.2-4.57-16.78-2.94-25.62,.11-.59,.66-1.32-.16-1.73-.72-.35-1.16,.35-1.62,.77-6.09,5.7-10.53,12.61-14.31,19.96-7.18,13.95-11.31,28.88-13.97,44.26-2.18,12.61-3.13,25.33-3.46,38.1,0,.06,0,.13,0,.19-.1,1.09,.06,2.49-1.09,2.92-1.21,.45-1.94-.81-2.61-1.63-2.71-3.35-4.62-7.18-6.52-11.01-1.47-2.96-2.93-5.92-5.05-8.49-.56-.68-1.15-1.64-2.19-1.33-1.07,.32-.91,1.44-.99,2.31-.08,.9-.11,1.81-.11,2.72,0,37.51-.02,75.01,.04,112.52,0,2.13-.66,3.6-2.1,5.1-9.72,10.08-19.44,20.18-28.41,30.94-6.3,7.55-5.7,4.89-4.33,16.54,.94,8.04,3.97,15.3,10.09,20.9,6.68,6.1,14.8,8.29,23.63,8.22,1.73-.01,2.34,.23,2.29,2.12-.13,5.49-.05,10.99-.05,16.71ZM79.67,298.17c.02,8.12,2.74,18.56,6.71,25.71,.37,.66,.65,1.56,1.68,1.23,1.04-.33,.69-1.22,.64-1.97-1.33-19.39,2.72-37.49,13.18-53.97,6.7-10.56,15.43-18.97,27.05-24.06,1.06-.47,2.16-.88,3.25-1.26,.65-.23,1.26-.45,1.18-1.29-.1-1.03-.94-.89-1.63-.93-.26-.02-.52,0-.78,0-11.14-.03-21.7,2.44-31.69,7.35-.59,.29-1.23,.95-1.92,.24-.68-.7-.08-1.34,.26-1.92,4.6-7.97,9.32-15.86,14.74-23.31,10.42-14.35,22.86-26.43,38.7-34.77,15.38-8.1,31.9-11.61,49.12-12.34,.69-.03,1.52,.2,1.89-.63,.41-.95-.42-1.39-.97-1.9-4.55-4.25-9.03-8.56-13.67-12.71-23.42-20.97-46.91-41.86-70.29-62.88-7.47-6.72-14.64-13.77-21.98-20.63-1.76-1.64-2.34-1.44-3.04,.8-2.26,7.16-4.21,14.4-5.68,21.78-3.51,17.7-3.39,35.27,1.78,52.68,3.36,11.3,8.35,21.86,14.41,31.93,.95,1.58,.82,2.6-.39,3.91-2.03,2.18-3.89,4.52-5.8,6.81-5.73,6.91-10.92,14.16-14,22.7-.34,.94-1.16,2.04-.4,2.93,.9,1.03,2.08,.1,3.07-.19,5.03-1.48,10.03-3.04,15.04-4.58,.55-.17,1.14-.45,1.58,.17,.42,.59,.09,1.1-.27,1.58-.23,.31-.42,.65-.64,.98-5.54,8.29-11.23,16.49-16.44,25.01-6.77,11.09-10.22,23.14-10.92,36.05-.03,.64-.13,1.31,.57,1.73,.73,.44,1.24-.08,1.75-.42,1.94-1.29,3.85-2.63,5.81-3.9,.54-.35,1.04-1.14,1.86-.53,.94,.7,.2,1.44-.06,2.08-2.45,5.95-3.6,12.15-3.72,18.55Zm112.36,45.5c.36,4.97,.69,9.55,1.05,14.14,.05,.67-.11,1.56,.75,1.84,.75,.25,1.13-.47,1.59-.9,8.82-8.32,17.62-16.65,26.44-24.96,1.23-1.16,1.87-2.57,2.2-4.22,2.28-11.69,3.26-23.47,2.77-35.38-.67-16.06-3.73-31.6-9.81-46.51-.27-.66-.32-1.75-1.4-1.54-1.17,.23-.65,1.25-.58,1.93,1.27,12.54,1.61,25.08,.05,37.63-1.26,10.2-3.48,20.15-7.93,29.5-1.1,2.31-1.14,2.28-3.08,.64-10.65-8.99-21.27-18.03-32.15-26.75-4.15-3.33-8.4-6.52-13.38-8.55-13.09-5.33-25.75-4.95-37.82,2.94-.57,.37-1.4,.67-1.3,1.54,.11,.92,1.04,.87,1.68,1.06,4.03,1.2,8.06,2.4,12.13,3.47,1.34,.35,1.73,1,1.74,2.31,.01,2.52,.09,5.06,.33,7.57,.76,7.99,2.94,15.5,7.78,22.06,6.06,8.22,14.53,12.68,24.15,15.25,3.17,.85,6.43,1.39,9.85,2.11-.55,.28-.93,.5-1.33,.69-11.27,5.14-21.13,12.27-29.91,20.99-1.26,1.25-1.38,2.16-.36,3.64,4.82,6.99,9.53,14.05,14.28,21.08,.46,.68,.76,1.59,1.85,1.45,1.1-.14,1.12-1.12,1.4-1.87,3.88-10.4,9.22-19.97,16.27-28.56,3.74-4.56,7.85-8.74,12.76-12.59Z"/>
      <path class="cls-2" d="M287.73,598.75c-2.67-14.75-6.79-28.93-12.51-43.13-1.75,2.79-3.39,5.23-4.83,7.78-.8,1.42-1.43,1.85-2.86,.67-1.59-1.32-3.45-2.31-5.08-3.58-1-.78-1.49-.52-2.14,.39-1.32,1.84-2.78,3.58-4.12,5.42-.61,.84-.96,.76-1.52-.04-1.16-1.64-2.44-3.19-3.6-4.83-.6-.85-.96-.76-1.53,.02-1.07,1.47-2.31,2.81-3.3,4.33-.97,1.49-1.57,1.15-2.42-.09-1.1-1.6-2.43-3.04-3.52-4.65-.74-1.1-1.33-1.28-2.42-.44-1.69,1.3-3.58,2.36-5.25,3.68-1.16,.91-1.65,.58-2.31-.54-1.53-2.62-3.18-5.17-4.81-7.8-3.01,4.4-8.62,23.8-12.47,42.94-4.75-10.13-7.72-42.75-4.01-60.95,1.74,.33,3.27,1.2,4.87,1.86,11.76,4.9,23.51,9.83,35.23,14.81,1.12,.48,1.99,.42,3.07-.04,12.43-5.31,24.89-10.55,37.31-15.87,1.47-.63,2.1-.9,2.4,1.19,1.41,9.87,1.5,19.77,.86,29.68-.59,9.25-1.68,18.45-4.44,27.36-.19,.61-.41,1.22-.61,1.82Z"/>
      <path class="cls-2" d="M275.92,607.9c2.86,7.01,3.68,14.31,3.73,21.72,.03,3.9-.39,7.76-1.23,11.57-.23,1.06-.67,1.74-1.86,2.16-8.23,2.9-16.43,5.89-24.63,8.9-.98,.36-1.82,.39-2.8,.05-8.12-2.83-16.24-5.66-24.39-8.4-1.67-.56-2.44-1.51-2.77-3.25-1.97-10.53-1.3-20.88,1.83-31.09,.2-.66,.51-1.29,.88-2.2,1.54,7.75,4,14.89,7.13,21.8,.37,.82,.82,1.61,1.35,2.65,1.09-1.43,2.12-2.65,3.02-3.97,.69-1.02,1.3-1.36,2.47-.6,1.28,.82,2.68,2.27,4.02,1.97,1.22-.28,2.18-1.9,3.16-3.01,.73-.82,1.16-.62,1.81,.1,.85,.94,1.6,2.56,2.72,2.48,.91-.07,1.8-1.54,2.54-2.5,.77-1,1.22-.66,1.91,.07,3,3.19,3.04,3.21,6.88,1,1.12-.65,1.85-.83,2.63,.49,.78,1.32,1.84,2.48,3.02,4.02,3.96-7.78,6.64-15.71,8.58-23.94Z"/>
      <path class="cls-2" d="M297.04,334.81c12.57,1.3,24.17,5.29,35,11.6,7.38,4.3,13.97,9.62,20.09,15.55,1.28,1.24,1.34,2.19,.32,3.66-4.46,6.45-8.8,12.97-13.2,19.46-.46,.67-.76,1.61-1.81,1.54-1.18-.08-1.28-1.15-1.59-1.96-6.62-17.4-17.02-31.92-32.49-42.56-2.29-1.57-4.74-2.92-7.12-4.36-.81-.49-2-.73-1.62-2.03,.39-1.31,1.58-.78,2.42-.9Z"/>
      <path class="cls-2" d="M354.5,300.32c.21,11.17-4.57,19.12-13.92,24.37-5.79,3.25-11.83,5.88-18.59,6.24-5.67,.3-10.87-1.24-15.73-4.1-.5-.3-1.16-.55-1.11-1.21,.06-.81,.87-.84,1.48-1.01,8.03-2.24,16.04-4.55,24.11-6.66,2-.52,2.24-1.38,1.79-3.14-1.14-4.44-2.12-8.93-3.25-13.38-.33-1.29-.03-1.91,1.26-2.26,7.17-1.96,14.34-3.95,21.48-5.99,1.33-.38,1.9-.12,2.06,1.3,.24,2.06,.46,4.12,.42,5.84Z"/>
      <path class="cls-2" d="M226.06,487.2c0-.58-.06-1.17,.01-1.75,.1-.84,.61-1.4,1.43-1.66,.8-.25,1.41,.09,1.88,.67,.85,1.06,1.66,2.15,2.49,3.23,3.73,4.89,7.45,9.78,11.18,14.67,.68,.89,1.46,1.78,.68,2.95-.83,1.24-1.97,.86-3.14,.52-9.38-2.69-14.5-9.23-14.53-18.63Z"/>
      <path class="cls-2" d="M279.7,487.41c-.26,9.69-5.64,16.34-15.07,18.62-1.01,.24-1.95,.25-2.58-.73-.65-1.01-.16-1.82,.47-2.63,4.44-5.81,8.87-11.63,13.29-17.44,.68-.89,1.29-1.84,2.67-1.33,1.34,.5,1.27,1.64,1.27,2.75,0,.26-.03,.52-.05,.78Z"/>
      <path class="cls-1" d="M79.66,298.17c.13-6.41,1.27-12.61,3.72-18.55,.26-.64,1-1.38,.06-2.08-.82-.61-1.32,.18-1.86,.53-1.95,1.27-3.86,2.61-5.81,3.9-.52,.34-1.02,.86-1.75,.42-.7-.42-.61-1.09-.57-1.73,.69-12.91,4.15-24.96,10.92-36.05,5.2-8.52,10.89-16.71,16.44-25.01,.22-.32,.41-.66,.64-.98,.36-.49,.69-.99,.27-1.58-.44-.62-1.03-.34-1.58-.17-5.01,1.53-10.01,3.1-15.04,4.58-.99,.29-2.17,1.23-3.07,.19-.77-.89,.06-1.99,.4-2.93,3.07-8.55,8.26-15.8,14-22.7,1.9-2.29,3.77-4.63,5.8-6.81,1.21-1.3,1.34-2.33,.39-3.91-6.06-10.07-11.05-20.63-14.41-31.93-5.17-17.4-5.29-34.97-1.78-52.68,1.46-7.37,3.41-14.62,5.68-21.78,.71-2.24,1.29-2.44,3.04-.8,7.34,6.86,14.51,13.91,21.98,20.63,23.38,21.02,46.87,41.9,70.29,62.88,4.63,4.15,9.12,8.47,13.67,12.71,.55,.51,1.38,.95,.97,1.9-.36,.84-1.2,.6-1.89,.63-17.22,.72-33.74,4.24-49.12,12.34-15.84,8.34-28.28,20.42-38.7,34.77-5.41,7.45-10.14,15.34-14.74,23.31-.34,.59-.94,1.23-.26,1.92,.69,.71,1.33,.05,1.92-.24,9.99-4.91,20.55-7.38,31.69-7.35,.26,0,.52-.01,.78,0,.69,.05,1.52-.1,1.63,.93,.08,.84-.52,1.06-1.18,1.29-1.1,.38-2.19,.8-3.25,1.26-11.61,5.1-20.34,13.5-27.05,24.06-10.46,16.48-14.5,34.58-13.18,53.97,.05,.75,.39,1.64-.64,1.97-1.03,.33-1.31-.57-1.68-1.23-3.98-7.15-6.7-17.59-6.72-25.71Z"/>
      <path class="cls-1" d="M192.03,343.67c-4.91,3.85-9.02,8.03-12.76,12.59-7.05,8.59-12.4,18.15-16.27,28.56-.28,.75-.3,1.74-1.4,1.87-1.09,.14-1.39-.77-1.85-1.45-4.75-7.03-9.46-14.09-14.28-21.08-1.02-1.48-.9-2.39,.36-3.64,8.77-8.71,18.63-15.85,29.91-20.99,.4-.18,.79-.4,1.33-.69-3.42-.72-6.67-1.27-9.85-2.11-9.62-2.57-18.08-7.03-24.15-15.25-4.83-6.56-7.02-14.07-7.78-22.06-.24-2.51-.31-5.05-.33-7.57,0-1.31-.4-1.96-1.74-2.31-4.07-1.07-8.1-2.27-12.13-3.47-.63-.19-1.57-.14-1.68-1.06-.1-.87,.73-1.16,1.3-1.54,12.07-7.89,24.73-8.27,37.82-2.94,4.98,2.03,9.22,5.22,13.38,8.55,10.88,8.72,21.49,17.76,32.15,26.75,1.94,1.64,1.98,1.67,3.08-.64,4.45-9.34,6.67-19.29,7.93-29.5,1.55-12.55,1.22-25.09-.05-37.63-.07-.69-.58-1.71,.58-1.93,1.08-.21,1.13,.88,1.4,1.54,6.08,14.91,9.15,30.45,9.81,46.51,.49,11.91-.49,23.69-2.77,35.38-.32,1.65-.96,3.06-2.2,4.22-8.82,8.31-17.63,16.64-26.44,24.96-.46,.43-.84,1.15-1.59,.9-.86-.29-.69-1.17-.75-1.84-.36-4.58-.68-9.17-1.05-14.14Zm-44.3-41.66c-.17,9.84,3.99,16.86,12.2,21.51,3.32,1.89,6.78,3.48,10.48,4.52,6.76,1.91,13.19,1.15,19.29-2.3,.59-.33,1.5-.52,1.41-1.39-.09-.93-1.08-.81-1.71-.99-7.03-1.99-14.06-3.96-21.11-5.86-1.29-.35-1.65-.84-1.3-2.18,1.03-3.94,1.91-7.92,2.87-11.88,.29-1.19,.31-2.04-1.23-2.44-6.18-1.64-12.35-3.34-18.49-5.14-1.54-.45-1.95,.01-2.08,1.44-.15,1.68-.42,3.34-.34,4.7Z"/>
      <path class="cls-2" d="M147.72,302.01c-.09-1.36,.19-3.02,.34-4.7,.13-1.43,.53-1.9,2.08-1.44,6.14,1.8,12.31,3.5,18.49,5.14,1.54,.41,1.52,1.25,1.23,2.44-.96,3.96-1.84,7.94-2.87,11.88-.35,1.34,0,1.83,1.3,2.18,7.05,1.9,14.08,3.88,21.11,5.86,.63,.18,1.61,.06,1.71,.99,.09,.88-.82,1.06-1.41,1.39-6.11,3.45-12.54,4.21-19.29,2.3-3.7-1.04-7.16-2.64-10.48-4.52-8.21-4.66-12.37-11.68-12.2-21.51Z"/>
    </g>
  </g>
</svg>