<?xml version="1.0" encoding="UTF-8"?><svg id="b" xmlns="http://www.w3.org/2000/svg" viewBox="0 0 700 564.08"><g id="c"><path d="M181.08,431.25c-18.21.22-36.24-1.38-53.75-6.57-4.87-1.44-7.34.7-10.2,3.73-19.07,20.28-42.06,31.28-70.41,29.77-23.96-1.28-42.51-14.3-45.93-33.74-3.62-20.56,5.41-36.39,21.22-48.62,14.59-11.29,31.62-15.11,49.72-13.58,6.93.59,9.84-1.78,12.97-8.01,7.12-14.2,9.21-24.94-2.51-39.92-19.37-24.76-15.47-73.58,3.37-98.98,15.25-20.56,46.52-31.29,68.47-8.23,2.81,2.95,4.21,1.79,6.13-.57,6.25-7.67,13.2-14.65,21.1-20.64,5.91-3.93,12.15-7.06,19.28-8.08,5.08.74,6.25-1.73,6.17-6.44-.25-15.19-.1-30.4-.09-45.6.03-58.95,42.34-101.33,101.22-101.36,41.59-.02,83.19-.02,124.78,0,58.5.03,101,42.32,101.14,100.64.05,22.4.1,44.8-.07,67.19-.04,4.6.87,7.33,6.13,6.36,3.11-1.09,2.74-4.19,3.68-6.49,5.02-12.18,8.86-24.86,15.6-36.3,8.1,1.41,16.5,1.07,24.27,4.42,10.68,4.6,18.89,11.24,19.21,23.94.12,4.67,3.3,4.08,5.99,4.49,18.21,2.8,19.99,3.54,32.52,14.17,3.28-6.52,3.82-13.7,5.91-20.38.64-2.06.66-4.52,3.71-4.09,10.76,1.5,21.83,1.77,31.36,8.11,10.73,7.13,14.55,16.2,11.49,28.77-6.24,25.6-13.59,50.89-21.68,75.95-1.72,5.34-1.27,7.99,4.03,11.14,23.04,13.68,30.64,42.61,18.03,66.24-10.5,19.67-33.43,25.82-51.73,13.21-4.77-3.29-6.47-1.65-9.31,1.75-8.59,10.25-18.91,18.01-32.43,20.41-23.27,4.13-42.28-15.88-39.15-40.85,1.37-10.95,5.8-20.76,10-31.51-4.39,1.97-8.77,3.95-13.15,5.92-5.69,1.47-11.2-.61-16.81-.82-2.01-1.66-4.24-4.28-6.78-2.77-2.04,1.21-.77,4.43-.78,6.72-.07,34.14.29,68.29-.14,102.43-.68,53.62-43.45,96.19-97.06,96.62-44.27.35-88.55.21-132.82,0-17.93-.08-34.87-4.61-50.07-14.3-32.96-21.02-48.31-51.42-47.04-90.31.2-6.09-.5-9.93-7.53-5.32-6.02.51-12.04,1.02-18.05,1.53ZM458.29,181.22c6.03,1,7.65-1.6,7.58-7.53-.31-24.53-.38-49.07.03-73.6.11-6.4-2.18-7.29-7.79-7.27-58.66.19-117.33.2-176-.02-5.87-.02-7.69,1.29-7.63,7.44.33,32.27.27,64.54.03,96.8-.04,5.03,1.47,8.09,6.06,9.74,4.34,3.39,7.33,7.96,10.76,13,3.42-7.52,6.55-14.39,9.68-21.26,3.86-8.17,9.81-13.46,19.33-12.43,8.61.93,16.52,4.07,23.05,10,8.1,7.35,10.01,15.63,6.18,25.97-1.48,3.99-3,7.95-4.46,11.94-.78,2.12-1.32,4.01,1.83,4.91,9.08,2.61,15.1,9.35,21.15,16.9,15.64-25.13,35.03-40.37,65.99-26.83.13-10.97,3.12-20.58,6.89-30,3.95-7.7,9.78-13.57,17.32-17.78ZM282.06,376.6c-2.03-1.97-4.06-3.95-7.42-3.76,0,30.75.15,61.12-.13,91.48-.05,5.73,1.76,7.02,7.21,7.01,58.88-.18,117.75-.21,176.63.03,6.01.02,7.57-1.53,7.53-7.53-.27-42.1-.28-84.19-.02-126.29.05-7.95-2.95-14.21-7.52-20.15-5.91,7.48-11.81,14.96-17.72,22.44-7.49,6.34-14.36,13.4-23.07,18.28-21.58,12.08-42.17,9.42-59.76-8.01-.89-.88-1.88-1.65-2.97-2.59-14.06,18.61-29.36,34.64-54.79,34.34-6.44-.2-11.99-3.46-17.97-5.24Z" fill="#283d82" stroke-width="0"/><path d="M200.54,177.81c-7.13,1.02-13.37,4.16-19.28,8.08.08-20.53.19-41.06.23-61.59.13-63.5,45.3-115.25,108.09-123.74,2.89-.39,5.85-.38,8.78-.38,47.73-.03,95.46-.45,143.18.08,53.99.61,104.1,43.6,114.48,96.62,3.83,19.58,2.25,39.28,3.08,58.93-6.74,11.44-10.59,24.12-15.6,36.3-.95,2.3-.58,5.4-3.68,6.49,0-29.6.02-59.2.02-88.8,0-1.06-.1-2.14-.27-3.18-8.51-51.7-52-88.67-104.57-88.76-43.48-.07-86.95-.1-130.43,0-49.98.13-92.56,34.24-102.27,83.35-4.98,25.21-1.61,51.03-1.75,76.58Z" fill="#a4a8aa" stroke-width="0"/><path d="M181.08,431.25c6.02-.51,12.04-1.02,18.05-1.53.4,6.64.75,13.29,1.22,19.92,3.87,54.09,48.6,96.32,102.7,96.59,44.82.22,89.65.46,134.46-.09,35.1-.42,62.95-15.74,83.7-44.02,14.11-19.24,19.56-41.2,19.77-64.62.31-33.61.26-67.22.37-100.83,5.61.21,11.12,2.29,16.81.82,1.59,11.95.56,23.96.66,35.94.19,22.41.11,44.82.04,67.23-.19,58.12-39.11,107.17-95.64,120.6-8.86,2.1-17.83,2.84-26.93,2.83-44.02-.08-88.03.03-132.05-.05-60.69-.12-111.59-43.47-121-103.33-1.52-9.69-1.49-19.63-2.17-29.45Z" fill="#a4a8aa" stroke-width="0"/><path d="M258.18,271.16c5.02,4.23,6.72,8.86,4.36,15.48-5.98,16.8-10.88,33.96-14.86,51.36-.57,2.48-.78,5.04-.42,7.87,11.6-12.23,23.25-24.56,28.42-40.73,9.81-30.69,19.42-61.42,31.61-91.27.6-1.48,1.05-3.06,1.87-4.4,2.54-4.13,2.82-11.04,8.96-11.13,7.6-.11,14.62,2.94,19.48,9.33,1.99,2.62,2.62,5.52,1.26,8.99-4.45,11.38-8.57,22.89-13.26,35.54,11.56-4.01,21.83-3.54,29.36,6.79,6.64,9.12,9.59,19.22,7.66,30.95,3.73-.52,3.57-3.64,4.49-5.71,6.73-15.19,14.03-30.07,26.93-41.12,13.95-11.95,34.7-8.5,44.42,7.03,3.58,5.71,4.54,11.72,2.84,18.37-5.59,21.84-24.69,38.89-47.09,41.98-6.92.95-4.49,6.69-4.56,10.6-.09,4.43,2.42,7.09,7.3,5.64,7.87-2.34,14.3-7.17,20.16-12.64,19.03-17.75,30.84-39.86,38.46-64.47.74-2.38.73-3.68-1.47-5.28-6.76-4.94-8.06-12.17-7.56-19.96.45-7.01,2.38-13.64,5.51-19.89,5.32-10.63,14.47-14.68,25.95-11.52,7.04,1.94,11.05,6.56,10.54,13.98-.34,4.98-1.69,9.9-2.65,15.22,4.92-.38,9.86-1.17,14.78-1.06,15.71.35,22.5,10.12,17.76,25.03-4.76,14.98-9.48,29.97-12.83,45.34-.59,2.72-.96,5.49-.71,8.46,19.06-17.87,31.03-39.49,35.54-65.43-7.49-1.99-11.72-7.5-11.98-15.93-.17-5.34,1.59-8.43,7.96-8.07,12.84.72,12.84.43,17.29-11,3.19-8.19,6.78-16.24,9.51-24.57,1.84-5.62,4.73-6.8,10.11-5.2,4.13,1.23,8.22,2.39,11.65,5,4.9,3.73,7.31,8.35,4.51,14.61-1.3,2.91-2.05,6.06-3.39,8.95-1.71,3.67-1.88,5.7,2.76,7.8,5.38,2.44,6.58,8.24,5.59,13.84-.98,5.53-5.9,4.46-9.69,4.71-5.99.41-9.16,3.06-11,9.14-5.15,17.07-9.84,34.24-14.13,51.54-.4,1.63-1.04,3.57.31,4.38,1.79,1.07,3.49-.28,4.74-1.86,10.38-13.15,21.47-25.74,26.6-42.32,4.17-13.46,9.49-26.56,13.96-39.92,1.39-4.15,3.22-5.48,7.56-4.38,4.41,1.12,8.84,2.04,12.69,4.58,5.68,3.75,8.12,8.32,5.71,15.54-6.4,19.14-12.5,38.39-16.32,58.97,3.95-2.15,5.39-5.39,7.21-8.19,14.85-22.89,28.12-46.54,33.14-73.8,1.2-6.52,4.49-7.1,9.92-5.9,14.68,3.24,19.27,10.01,15.61,24.4-7.09,27.87-15.06,55.49-24.37,82.69-1.87,5.46-.91,7.05,4.4,8.92,24.9,8.77,34.83,36.22,21.02,57.01-9.26,13.93-29.43,14.35-38.63.84-1.98-2.91-2.97-4.75,1.13-7.47,8.13-5.41,11.63-18.84,7.82-26.34-.96-1.88-1.93-4.23-4.37-4.07-2.37.16-2.1,2.79-2.69,4.43-4.56,12.79-8.81,25.71-16.73,36.99-5.92,8.42-12.85,15.63-22.49,19.84-17.38,7.59-32.07-1.75-32.46-20.65-.3-14.5,6.25-26.16,15.18-36.84,4.99-5.97,11.14-10.64,18.2-15.9-11.06-1.7-17.78-8.32-23.15-17.16-5.08,5.93-9.46,11.6-14.42,16.71-13.45,13.86-26.75,12.62-37.76-3.22-1.05-1.51-2.08-3.04-3.16-4.61-5.12,6.07-9.86,12.12-15.06,17.73-6.64,7.16-14.18,12.45-24.69,8.03-10.04-4.22-18-15.88-17.89-26.37.1-10.25,3.08-19.99,5.9-29.7,3.11-10.72,6.69-21.3,10.15-32.23-6.57-1.8-9.48.67-11.72,6.84-10.3,28.41-22.37,55.95-43.24,78.58-6.74,7.3-14.29,13.51-23.04,18.35-24.7,13.64-53.91-8.33-49.87-31.25.17-.94.02-1.93.02-4.59-4.41,8.68-7.79,16.05-11.81,23.05-6.59,11.47-14.95,21.44-26.64,28.13-14.97,8.56-30.63,5.87-43.37-7.4-1.65-1.72-3.13-3.61-5.04-5.83-4.9,6.02-9.46,12.05-14.46,17.68-11.48,12.92-17.41,14.09-32.75,7.08-.28.41-.85.88-.78,1.22,4.44,23.12-7.07,37.63-32.49,40.84-23.16,2.93-45.75-.36-67.88-7.02-4.69-1.41-7.06-.64-10.04,3.01-14.91,18.22-33.08,30.85-57.57,31.92-7.51.33-14.94-.25-22.14-2.43-19.24-5.84-27.37-23.93-18.2-41.81,10.09-19.67,27.81-26.99,48.77-27.88,6.37-.27,12.8.36,19.16,1.03,3.89.41,5.65-.91,7.09-4.49,5.15-12.85,10.51-25.62,16.16-38.25,1.83-4.08,1.62-6.38-2.22-9.23-32.06-23.83-25.7-83.82-6.59-104.05,17.23-18.25,41.63-16.44,53.49,4.81.5.89.7,1.94,1.19,3.37-12.32.79-19.44,8.53-24.95,18.04-10.29,17.77-15.5,36.55-10.18,59.23,4.14-8.86,7.37-16.04,10.83-23.11,11.85-24.23,24.95-47.71,42.3-68.54,3.74-4.49,7.87-8.72,12.22-12.64,11.66-10.51,25.13-14.78,39.74-7.52,14.68,7.29,18.81,21.23,18.22,36.41-.73,18.74-9.43,34.78-19.25,50.15-11.14,17.45-24.5,32.94-41.61,44.9-7.94,5.55-16.39,10.2-26.12,11.34-5.24.61-7.75,2.84-9.42,7.79-4.16,12.35-8.95,24.49-13.51,36.71-1.05,2.83-2.71,5.91,2.52,6,19.96.34,40.04,2.56,59.66-3.06,6.64-1.9,13.49-4,17.02-10.79,1.86-3.57,5.5-.78,8.28-3.09-10.65-15.26-3.8-30.7.6-45.82,4.9-16.86,11.37-33.25,16.53-50.04,2.09-6.8,5.36-9,11.97-6.75,1.31.44,9.41,3.77,10.62,4.79ZM632.84,285.99c.68.18,1.35.36,2.03.54-2.09,6.52-4.47,12.96-6.16,19.58-1.24,4.84-3.64,7.71-8.47,9.4-8.12,2.85-15.47,7.45-21.64,13.38-11.8,11.35-21.15,24.2-20.26,41.73.67,13.17,11.14,19.96,23.44,15.55,5.64-2.02,10.31-5.48,14.54-9.64,13.24-13.03,18.84-30.02,24.63-46.96.89-2.6.64-6.64,4.1-7.15,3.89-.58,7.06,1.95,9.57,4.89,2.32,2.72,3.46,5.91,3.73,9.5.61,8.37-1.28,16.2-6.88,22.33-5.49,6.02-1.51,8.37,3.14,10.5,9.94,4.53,20.44.03,24.94-10.38,9.04-20.91-1.11-41.52-23.6-46.99-6.44-1.57-7.96-3.75-5.61-10.17,4.39-11.99,8.11-24.25,11.67-36.52,5.27-18.14,10.3-36.36,15.15-54.62,1.71-6.45-3.03-11.3-11.49-13.37-7.63-1.87-6.08,4.7-6.93,7.86-3.5,12.89-7.32,25.6-13.83,37.36-8.26,14.92-15.99,30.18-27.13,43.28-1.79,2.1-3.91,5.34-7.2,3.52-2.81-1.56-1.2-4.76-.85-7.31,1.46-10.85,4.33-21.38,7.37-31.86,2.96-10.23,6.48-20.3,9.22-30.59,1.86-6.99-1.11-9.97-9.62-12.67-6.62-2.1-7.7,2.21-9.23,6.64-3.3,9.57-7.1,18.99-9.92,28.69-5.99,20.62-18.78,36.83-32.86,52.25-2.23,2.45-4.8,6.4-8.49,4.49-3.52-1.83-1.38-6.26-1.57-9.55-.08-1.29.4-2.62.61-3.93,2.96-18.47,9.15-36.08,14.04-54.05,2.07-7.6,5.98-11.17,13.55-11.83,2.65-.23,7.28,1.41,6.74-4.13-.44-4.48-3.14-6.6-7.7-5.96-4.55.63-4.85-1.4-3.43-4.99,2.36-5.94,4.89-11.85,6.66-17.98,2.09-7.23-4.02-8.75-8.72-10.94-4.54-2.12-7.91-2.03-9.75,3.87-2.22,7.1-6.07,13.75-7.81,20.93-2.67,11.03-9.05,16.04-20.16,15.35-6.07-.38-5.72,2.9-4.38,7.12,2.23,7.02,8.19,5.7,13.93,5.51-2.36,7.34-5.01,13.79-6.48,20.5-4.89,22.27-18.36,39.27-33.25,55.45-2.42,2.63-5.47,6.87-9.04,4.79-2.69-1.57-1.15-6.46-.5-9.78,3.67-18.84,8.99-37.24,15.1-55.43,3.67-10.94-.94-17.39-12.62-18.29-5.98-.46-11.67,1.07-17.35,2.35-4.44,1-5.44-.28-4.29-4.32,1.31-4.61,2.89-9.17,3.81-13.86,1.51-7.7-2.31-12.29-10.18-12.86-9.78-.7-14.4,2.14-18.35,12.95-3.57,9.77-6.98,19.93,1.12,29.38.83.96,2.13,1.91,3.33,2.09,3.84.58,2.88,2.64,2.14,5.15-6.56,22.22-16,42.96-31.4,60.55-8.28,9.46-16.97,18.57-29.15,23.15-4.62,1.74-9.62,3.01-13.29-1.47-5.41-6.63-3.25-14.21-1.4-21.43,1.6-6.22,6.05-1.5,9.18-1.93,1.31-.18,2.63-.4,3.91-.73,19.1-4.88,29.9-18.22,36.56-35.82,3.03-8.01.51-14.58-5.08-20.41-10.99-11.47-27.34-10.55-38.46,2.54-15.19,17.89-24.35,38.76-28.43,61.72-2.19,12.33.43,23.26,12.14,30.57,11.54,7.2,22.55,6.17,33.74-.67,12.09-7.4,21.15-17.78,29.35-29.06,14.74-20.29,23.79-43.37,32.52-66.6,1-2.66,1.3-5.87,5.09-6.42,5.7-.82,11.39-1.75,17.62-2.72-3.26,9.78-6.53,18.77-9.26,27.93-4.02,13.49-9.38,26.74-9.61,41.07-.17,10.5,5.72,17.7,14.61,22.05,8.65,4.24,14.6-1.54,20.14-7.21,1.67-1.71,3.17-3.6,4.63-5.49,5.04-6.5,10.03-13.04,15.86-20.64,1.65,12.8,7.09,21.32,17.9,24.24,9.98,2.69,15.32-5.57,20.79-11.97,5.48-6.42,10.47-13.26,15.96-20.27.67,2.5,1.05,4.53,1.76,6.44,3.03,8.22,8.23,14.73,17.07,16.42,8.55,1.63,13.74-4.29,18.28-10.51,3.42-4.69,6.8-9.41,10.2-14.11ZM147.45,390.49c-6.13,0-12.27.24-18.38-.08-4.59-.24-6.55-2.28-4.55-7.39,6.02-15.37,11.75-30.86,17.34-46.4,1.27-3.53,3.08-4.84,6.81-5.21,12-1.18,22.38-6.32,31.81-13.74,20.7-16.31,36.5-36.46,47.67-60.27,5.15-10.98,8.94-22.34,7.68-34.68-1.16-11.43-5.29-21.54-16.58-26.37-11.43-4.89-21.98-1.9-31.2,5.91-6.11,5.17-11.64,10.97-16.58,17.3-20.52,26.25-35.4,55.67-48.72,86-1.02,2.32-1.21,6.27-3.93,6.37-3.65.12-4.71-3.94-5.72-6.82-4.03-11.45-3.46-23.22-.54-34.66,4.67-18.31,11.01-35.94,29.15-45.66,4.59-2.46,1.67-4.02.05-5.83-9.21-10.28-24.83-10.11-36.52.28-12.22,10.86-16.2,25.26-17.52,40.76-2.1,24.55,1.67,46.94,23.83,62.14,3.07,2.11,3.34,3.9,1.9,7.18-6.74,15.36-13.32,30.8-19.7,46.32-1.54,3.74-2.96,5-7.52,4.55-9.52-.94-19.22-1.22-28.75-.46-13.51,1.07-25.14,6.71-33.49,17.87-6.43,8.59-9.61,17.96-4.84,28.33,4.82,10.47,14.54,13.58,24.91,14.73,19.48,2.17,36.88-2.83,52.06-15.59,6.18-5.2,11.51-11.07,16.47-17.35,2.08-2.64,3.94-4.34,8-2.83,21.57,8,44.02,10.06,66.84,8.69,8.64-.52,16.83-2.67,23.92-7.95,8.51-6.34,11.8-17.71,7.67-26.17-1.63-3.34-3.14-5.48-6.82-1.52-5.02,5.41-11.7,8.07-18.8,9.94-15.14,3.98-30.51,3.92-45.95,2.62ZM310.84,283.4c-1.28-1.72.08-3.14.53-4.43,7.01-20.11,14.1-40.2,21.28-60.25,2.66-7.42,1.07-10.32-6.77-13.81-6.55-2.91-9.37-.54-11.94,5.6-8.95,21.4-16.11,43.43-23.95,65.23-5.29,14.7-6.82,30.77-15.83,44.13-7.59,11.27-15.1,22.63-25.13,31.94-1.79,1.66-4.08,4.62-6.78,3.15-3.11-1.69-1.7-5.36-1.21-8.03,1.41-7.58,2.97-15.16,5.03-22.58,3.7-13.33,7.93-26.52,11.7-39.83,1.87-6.6-1.08-9.54-9.59-12.79-7.04-2.69-7.6,2.24-9.04,6.38-4.63,13.33-9.4,26.62-13.6,40.09-3.55,11.4-7.61,22.8-7.59,34.97.02,8.33,7.21,18.44,14.81,21.21,8.43,3.07,14.12-1.44,19.65-7.05,7.89-8,13.73-17.55,20.51-26.64,9.11,22.95,33.51,34.25,55.85,11.29,15-15.41,23.7-33.93,28.39-54.54,2.68-11.78,2.03-23.32-4.87-33.8-7.7-11.71-19.01-12.08-27.08-.75-3.39,4.76-6.22,9.92-9.32,14.89-1.34,2.15-1.88,5.06-5.07,5.59Z" fill="#fefefe" stroke-width="0"/><path d="M440.97,199c-3.78,9.42-6.77,19.02-6.89,30-30.95-13.54-50.35,1.7-65.99,26.83-6.05-7.54-12.07-14.29-21.15-16.9-3.15-.91-2.61-2.79-1.83-4.91,1.47-3.99,2.99-7.96,4.46-11.94,3.83-10.34,1.91-18.61-6.18-25.97-6.53-5.93-14.44-9.07-23.05-10-9.53-1.03-15.47,4.26-19.33,12.43-2.33-2.18-1.34-5.02-1.35-7.57-.08-21.62.22-43.24-.2-64.85-.13-6.81,1.36-9.12,8.7-9.05,41.36.38,82.73.39,124.09,0,7.41-.07,8.74,2.36,8.66,9.09-.32,24.28-.01,48.56.06,72.84Z" fill="#fefefe" stroke-width="0"/><path d="M300.03,381.84c25.43.3,40.73-15.73,54.79-34.34,1.09.94,2.08,1.71,2.97,2.59,17.59,17.42,38.19,20.09,59.76,8.01,8.71-4.88,15.57-11.94,23.07-18.28.05,33.61,0,67.22.23,100.83.03,4.96-1.63,6.34-6.45,6.33-42.94-.15-85.89-.11-128.83-.05-3.66,0-6.07-.45-6-5.09.29-20,.34-40,.47-60Z" fill="#fefefe" stroke-width="0"/><path d="M300.03,381.84c-.13,20-.18,40-.47,60-.07,4.63,2.34,5.09,6,5.09,42.94-.06,85.89-.1,128.83.05,4.82.02,6.48-1.36,6.45-6.33-.22-33.61-.18-67.22-.23-100.83,5.91-7.48,11.81-14.96,17.72-22.44.08,47.16.1,94.32.31,141.48.02,4.64-1.73,5.86-6.09,5.85-54.89-.1-109.78-.1-164.66,0-4.29,0-6.2-1.08-6.16-5.79.25-27.44.25-54.88.33-82.32,5.98,1.79,11.53,5.05,17.97,5.24Z" fill="#a4a8aa" stroke-width="0"/><path d="M440.97,199c-.07-24.28-.38-48.57-.06-72.84.09-6.73-1.24-9.16-8.66-9.09-41.36.39-82.73.39-124.09,0-7.34-.07-8.83,2.25-8.7,9.05.42,21.61.12,43.23.2,64.85,0,2.55-.98,5.39,1.35,7.57-3.13,6.87-6.25,13.74-9.68,21.26-3.43-5.04-6.42-9.62-10.76-13,2.14-2.57,1.18-5.64,1.19-8.47.07-30.41.19-60.82-.08-91.23-.05-5.88,1.45-7.75,7.55-7.73,54.15.23,108.29.16,162.44.09,4.17,0,7.06.18,6.99,5.77-.32,25.33-.28,50.67-.37,76.01-7.54,4.2-13.37,10.08-17.32,17.78Z" fill="#a4a8aa" stroke-width="0"/><path d="M541.36,336.67c-.11,33.61-.07,67.22-.37,100.83-.21,23.43-5.67,45.38-19.77,64.62-20.74,28.29-48.6,43.6-83.7,44.02-44.82.54-89.64.31-134.46.09-54.1-.27-98.83-42.5-102.7-96.59-.48-6.64-.82-13.28-1.22-19.92,7.03-4.61,7.73-.77,7.53,5.32-1.26,38.9,14.08,69.29,47.04,90.31,15.19,9.69,32.14,14.22,50.07,14.3,44.27.2,88.55.34,132.82,0,53.61-.42,96.38-43,97.06-96.62.43-34.14.07-68.28.14-102.43,0-2.29-1.26-5.51.78-6.72,2.54-1.51,4.77,1.11,6.78,2.77Z" fill="#fefefe" stroke-width="0"/><path d="M200.54,177.81c.14-25.55-3.23-51.37,1.75-76.58,9.71-49.11,52.29-83.23,102.27-83.35,43.48-.11,86.95-.08,130.43,0,52.57.09,96.06,37.05,104.57,88.76.17,1.05.27,2.12.27,3.18,0,29.6,0,59.2-.02,88.8-5.26.97-6.17-1.76-6.13-6.36.17-22.4.12-44.8.07-67.19-.14-58.31-42.64-100.6-101.14-100.64-41.59-.02-83.19-.02-124.78,0-58.88.03-101.19,42.41-101.22,101.36,0,15.2-.16,30.4.09,45.6.08,4.71-1.09,7.18-6.17,6.44Z" fill="#fefefe" stroke-width="0"/><path d="M282.06,376.6c-.08,27.44-.08,54.88-.33,82.32-.04,4.71,1.86,5.79,6.16,5.79,54.89-.1,109.78-.1,164.66,0,4.36,0,6.11-1.21,6.09-5.85-.2-47.16-.23-94.32-.31-141.48,4.57,5.94,7.57,12.2,7.52,20.15-.26,42.1-.25,84.19.02,126.29.04,6-1.52,7.55-7.53,7.53-58.88-.24-117.75-.21-176.63-.03-5.45.02-7.26-1.28-7.21-7.01.28-30.36.13-60.73.13-91.48,3.36-.19,5.39,1.8,7.42,3.76Z" fill="#fefefe" stroke-width="0"/><path d="M458.29,181.22c.09-25.34.05-50.68.37-76.01.07-5.59-2.82-5.77-6.99-5.77-54.15.07-108.29.14-162.44-.09-6.1-.03-7.61,1.84-7.55,7.73.28,30.41.16,60.82.08,91.23,0,2.83.95,5.9-1.19,8.47-4.6-1.65-6.1-4.71-6.06-9.74.25-32.27.3-64.54-.03-96.8-.06-6.15,1.75-7.46,7.63-7.44,58.66.22,117.33.21,176,.02,5.61-.02,7.9.87,7.79,7.27-.41,24.53-.35,49.07-.03,73.6.08,5.93-1.55,8.53-7.58,7.53Z" fill="#fefefe" stroke-width="0"/><path d="M251.76,264.55c-10.96-6.16-8.73-16.53-5.3-27.08,1.48-4.54,2.46-9.25,4.05-13.75,3.81-10.73,6.91-12.78,15.21-10.62,9.41,2.45,16.3,10.88,14.58,19.03-2.49,11.79-8.29,22.33-13.99,32.83-2.78,5.12-11.37,1.37-14.55-.42ZM248.83,251.88c.51,4.76,3.88,7.84,8.46,9.99,2.41,1.13,4.53,1.5,6.06-1.37,5.02-9.4,9.94-18.99,11.99-29.41,1.3-6.64-4.19-10.51-9.9-12.78-3.42-1.36-6.76-1.21-8.59,3.05-4.12,9.59-6.57,19.6-8.03,30.52Z" fill="#fefefe" stroke-width="0"/><path d="M632.84,285.99c-3.4,4.7-6.78,9.42-10.2,14.11-4.54,6.22-9.73,12.15-18.28,10.51-8.84-1.69-14.03-8.2-17.07-16.42-.71-1.91-1.09-3.94-1.76-6.44-5.49,7.02-10.48,13.86-15.96,20.27-5.46,6.4-10.8,14.66-20.79,11.97-10.81-2.92-16.24-11.43-17.9-24.24-5.83,7.6-10.82,14.14-15.86,20.64-1.47,1.89-2.96,3.78-4.63,5.49-5.54,5.67-11.48,11.45-20.14,7.21-8.89-4.35-14.79-11.55-14.61-22.05.23-14.34,5.59-27.58,9.61-41.07,2.73-9.15,6-18.15,9.26-27.93-6.23.97-11.92,1.9-17.62,2.72-3.79.54-4.09,3.76-5.09,6.42-8.73,23.23-17.78,46.31-32.52,66.6-8.19,11.27-17.25,21.66-29.35,29.06-11.19,6.84-22.2,7.87-33.74.67-11.71-7.31-14.33-18.23-12.14-30.57,4.09-22.97,13.24-43.83,28.43-61.72,11.12-13.09,27.47-14.01,38.46-2.54,5.59,5.83,8.11,12.4,5.08,20.41-6.66,17.6-17.46,30.94-36.56,35.82-1.28.33-2.6.54-3.91.73-3.13.43-7.58-4.3-9.18,1.93-1.85,7.22-4.01,14.8,1.4,21.43,3.66,4.48,8.66,3.21,13.29,1.47,12.18-4.58,20.87-13.69,29.15-23.15,15.4-17.59,24.84-38.33,31.4-60.55.74-2.5,1.7-4.57-2.14-5.15-1.2-.18-2.5-1.13-3.33-2.09-8.1-9.46-4.69-19.61-1.12-29.38,3.94-10.8,8.57-13.65,18.35-12.95,7.87.57,11.69,5.16,10.18,12.86-.92,4.69-2.5,9.25-3.81,13.86-1.15,4.04-.14,5.32,4.29,4.32,5.68-1.28,11.37-2.81,17.35-2.35,11.67.9,16.29,7.35,12.62,18.29-6.1,18.19-11.42,36.59-15.1,55.43-.65,3.33-2.2,8.21.5,9.78,3.58,2.09,6.62-2.16,9.04-4.79,14.89-16.17,28.36-33.18,33.25-55.45,1.47-6.71,4.12-13.16,6.48-20.5-5.74.19-11.69,1.51-13.93-5.51-1.34-4.22-1.69-7.49,4.38-7.12,11.11.69,17.49-4.32,20.16-15.35,1.74-7.18,5.59-13.83,7.81-20.93,1.84-5.89,5.21-5.99,9.75-3.87,4.7,2.2,10.81,3.71,8.72,10.94-1.77,6.13-4.3,12.04-6.66,17.98-1.42,3.59-1.12,5.62,3.43,4.99,4.56-.64,7.26,1.48,7.7,5.96.54,5.54-4.09,3.9-6.74,4.13-7.57.65-11.48,4.23-13.55,11.83-4.89,17.96-11.08,35.58-14.04,54.05-.21,1.31-.69,2.64-.61,3.93.2,3.29-1.95,7.72,1.57,9.55,3.68,1.91,6.25-2.05,8.49-4.49,14.09-15.42,26.88-31.63,32.86-52.25,2.82-9.71,6.62-19.12,9.92-28.69,1.52-4.42,2.6-8.74,9.23-6.64,8.51,2.7,11.49,5.68,9.62,12.67-2.74,10.28-6.26,20.36-9.22,30.59-3.04,10.48-5.91,21.01-7.37,31.86-.34,2.56-1.95,5.76.85,7.31,3.28,1.82,5.41-1.42,7.2-3.52,11.14-13.1,18.87-28.36,27.13-43.28,6.51-11.76,10.33-24.47,13.83-37.36.86-3.16-.69-9.73,6.93-7.86,8.46,2.07,13.2,6.92,11.49,13.37-4.85,18.26-9.87,36.48-15.15,54.62-3.56,12.27-7.28,24.53-11.67,36.52-2.35,6.42-.83,8.6,5.61,10.17,22.49,5.47,32.63,26.08,23.6,46.99-4.5,10.41-15,14.91-24.94,10.38-4.66-2.12-8.64-4.48-3.14-10.5,5.6-6.13,7.5-13.96,6.88-22.33-.26-3.6-1.41-6.78-3.73-9.5-2.51-2.95-5.68-5.47-9.57-4.89-3.45.51-3.21,4.56-4.1,7.15-5.79,16.94-11.39,33.94-24.63,46.96-4.23,4.16-8.9,7.62-14.54,9.64-12.31,4.41-22.77-2.38-23.44-15.55-.89-17.53,8.46-30.39,20.26-41.73,6.17-5.93,13.52-10.53,21.64-13.38,4.83-1.69,7.23-4.56,8.47-9.4,1.69-6.62,4.08-13.06,6.16-19.58-.68-.18-1.35-.36-2.03-.54ZM424.25,261.1c-.2-2.48-1.13-5.28-3.71-7.01-3.13-2.1-5.65.05-7.79,1.95-11.73,10.38-17.29,24.48-22.77,38.56-1.22,3.13.73,3.49,3.41,2.97,11.48-2.2,30.81-24.61,30.86-36.47ZM618.98,330.56c-13.59,7.65-23.43,18.71-29.1,33.27-1.07,2.75-3.23,6.5.23,8.79,3.74,2.48,7.1.08,9.86-2.71,1.3-1.32,2.6-2.7,3.63-4.23,7.15-10.65,12.48-22.15,15.38-35.12Z" fill="#a4a8aa" stroke-width="0"/><path d="M147.45,390.49c15.44,1.29,30.81,1.36,45.95-2.62,7.1-1.87,13.78-4.52,18.8-9.94,3.68-3.96,5.18-1.82,6.82,1.52,4.13,8.46.84,19.83-7.67,26.17-7.08,5.28-15.28,7.43-23.92,7.95-22.82,1.37-45.27-.68-66.84-8.69-4.07-1.51-5.92.2-8,2.83-4.96,6.28-10.29,12.15-16.47,17.35-15.18,12.75-32.58,17.75-52.06,15.59-10.37-1.15-20.08-4.27-24.91-14.73-4.78-10.37-1.59-19.74,4.84-28.33,8.36-11.16,19.98-16.8,33.49-17.87,9.53-.76,19.23-.48,28.75.46,4.56.45,5.98-.81,7.52-4.55,6.38-15.52,12.96-30.96,19.7-46.32,1.44-3.28,1.17-5.07-1.9-7.18-22.16-15.2-25.94-37.59-23.83-62.14,1.33-15.5,5.31-29.9,17.52-40.76,11.69-10.39,27.31-10.55,36.52-.28,1.62,1.81,4.54,3.37-.05,5.83-18.14,9.71-24.49,27.35-29.15,45.66-2.92,11.45-3.49,23.21.54,34.66,1.01,2.87,2.07,6.94,5.72,6.82,2.72-.09,2.91-4.05,3.93-6.37,13.32-30.33,28.2-59.76,48.72-86,4.95-6.33,10.47-12.12,16.58-17.3,9.22-7.81,19.77-10.8,31.2-5.91,11.29,4.84,15.42,14.94,16.58,26.37,1.25,12.34-2.53,23.7-7.68,34.68-11.18,23.81-26.97,43.96-47.67,60.27-9.42,7.42-19.81,12.56-31.81,13.74-3.73.37-5.54,1.68-6.81,5.21-5.59,15.54-11.32,31.02-17.34,46.4-2,5.11-.03,7.16,4.55,7.39,6.11.31,12.25.08,18.38.08ZM148.87,317.09c6.28-1.71,10.46-3.89,14.35-6.56,30.07-20.62,46.87-50.15,56.4-84.47,1.27-4.59,2.17-9.21.4-14.11-1.69-4.67-4.1-5.69-8.46-3.55-6.68,3.29-11.38,8.7-15.8,14.4-14.5,18.71-24.09,40.12-33.51,61.59-4.54,10.36-8.59,20.94-13.38,32.7ZM86.57,394.82c-9.34-2.89-18.22-2.86-26.87-1.64-10.59,1.5-19.9,6.16-25.78,15.72-2.05,3.34-4.4,6.97-1.83,11.16,2.63,4.29,6.87,4.68,11.27,4.3,19.56-1.69,34.14-10.78,43.21-29.54Z" fill="#a4a8aa" stroke-width="0"/><path d="M310.84,283.4c3.19-.53,3.73-3.44,5.07-5.59,3.11-4.97,5.93-10.13,9.32-14.89,8.07-11.34,19.38-10.96,27.08.75,6.9,10.49,7.55,22.02,4.87,33.8-4.69,20.61-13.38,39.12-28.39,54.54-22.35,22.96-46.74,11.66-55.85-11.29-6.79,9.09-12.62,18.64-20.51,26.64-5.53,5.61-11.22,10.12-19.65,7.05-7.61-2.77-14.8-12.89-14.81-21.21-.03-12.17,4.04-23.57,7.59-34.97,4.19-13.47,8.97-26.76,13.6-40.09,1.44-4.14,2-9.07,9.04-6.38,8.52,3.25,11.46,6.19,9.59,12.79-3.78,13.31-8,26.5-11.7,39.83-2.06,7.42-3.62,15-5.03,22.58-.5,2.67-1.91,6.34,1.21,8.03,2.71,1.47,4.99-1.49,6.78-3.15,10.03-9.31,17.53-20.67,25.13-31.94,9.01-13.36,10.54-29.43,15.83-44.13,7.84-21.8,15-43.83,23.95-65.23,2.57-6.14,5.39-8.52,11.94-5.6,7.84,3.49,9.43,6.39,6.77,13.81-7.18,20.05-14.27,40.14-21.28,60.25-.45,1.29-1.81,2.71-.53,4.43ZM340.96,281.09c-.02-5.68-2.07-10.07-4.71-10.84-4.48-1.3-6.18,2.42-8.01,5.11-10.99,16.15-19.11,33.83-26.94,51.63-1.92,4.36-3.75,8.9-4.63,13.54-1.07,5.71,2.68,8.6,8.22,6.71,2.21-.75,4.41-2.07,6.1-3.68,18.24-17.36,25.98-39.71,29.98-62.47Z" fill="#a4a8aa" stroke-width="0"/><path d="M248.83,251.88c1.46-10.93,3.91-20.94,8.03-30.52,1.83-4.26,5.17-4.41,8.59-3.05,5.71,2.27,11.2,6.14,9.9,12.78-2.05,10.42-6.97,20.01-11.99,29.41-1.53,2.87-3.66,2.51-6.06,1.37-4.58-2.16-7.96-5.24-8.46-9.99Z" fill="#a4a8aa" stroke-width="0"/><path d="M424.25,261.1c-.06,11.86-19.38,34.27-30.86,36.47-2.68.51-4.63.16-3.41-2.97,5.48-14.08,11.05-28.18,22.77-38.56,2.14-1.9,4.66-4.05,7.79-1.95,2.58,1.73,3.51,4.53,3.71,7.01ZM399.22,288.69c9.21-5.1,14.78-13.3,18.87-22.62.85-1.94,2.63-4.9.06-6.52-2.56-1.62-3.95,1.45-5.34,2.98-6.68,7.32-11.2,15.95-14.69,25.16-.09.61-.18,1.22-.27,1.83.46-.27.91-.54,1.37-.81Z" fill="#fefefe" stroke-width="0"/><path d="M618.98,330.56c-2.91,12.98-8.23,24.47-15.38,35.12-1.03,1.53-2.33,2.91-3.63,4.23-2.76,2.79-6.12,5.19-9.86,2.71-3.45-2.29-1.3-6.04-.23-8.79,5.67-14.56,15.51-25.63,29.1-33.27ZM608.38,345.11c-6.54,6-11.61,12.91-13.55,21.75,7.16-5.61,10.9-13.35,13.55-21.75Z" fill="#fefefe" stroke-width="0"/><path d="M148.87,317.09c4.79-11.77,8.84-22.34,13.38-32.7,9.42-21.47,19.01-42.88,33.51-61.59,4.42-5.7,9.12-11.11,15.8-14.4,4.35-2.15,6.77-1.13,8.46,3.55,1.77,4.9.88,9.52-.4,14.11-9.53,34.33-26.33,63.86-56.4,84.47-3.89,2.67-8.07,4.86-14.35,6.56ZM159.98,306.72c1.79-1.11,3.67-2.09,5.35-3.35,2.76-2.07,5.57-4.14,8.04-6.53,19.98-19.29,33.29-42.63,40.9-69.17,1.29-4.48,4.86-11.47,0-13.93-4.22-2.13-8.45,4.22-11.5,8.02-20.18,25.17-31.97,54.71-42.79,84.97Z" fill="#fefefe" stroke-width="0"/><path d="M86.57,394.82c-9.06,18.77-23.65,27.85-43.21,29.54-4.4.38-8.65-.01-11.27-4.3-2.57-4.19-.22-7.82,1.83-11.16,5.88-9.56,15.19-14.21,25.78-15.72,8.65-1.23,17.53-1.25,26.87,1.64ZM77.91,398.69c-9.19-1.79-16.29-1.8-23.29.6-7.42,2.54-13.99,6.37-17.54,13.9-1.8,3.82-.9,5.89,3.63,6.36,13.48,1.4,31.14-8.41,37.2-20.86Z" fill="#fefefe" stroke-width="0"/><path d="M340.96,281.09c-3.99,22.77-11.73,45.11-29.98,62.47-1.69,1.61-3.9,2.93-6.1,3.68-5.53,1.89-9.29-.99-8.22-6.71.87-4.64,2.71-9.18,4.63-13.54,7.84-17.8,15.95-35.48,26.94-51.63,1.83-2.7,3.53-6.41,8.01-5.11,2.64.76,4.69,5.16,4.71,10.84ZM300.25,343.27c18.23-6.53,39.64-50.8,33.5-67.6-13.84,20.95-24.4,42.97-33.5,67.6Z" fill="#fefefe" stroke-width="0"/><path d="M398.11,287.68c3.5-9.2,8.01-17.83,14.69-25.15,1.39-1.53,2.78-4.59,5.34-2.98,2.57,1.62.79,4.58-.06,6.52-4.09,9.32-9.67,17.52-18.87,22.62-.34-.36-.71-.7-1.11-1.01Z" fill="#283d82" stroke-width="0"/><path d="M399.22,288.69c-.46.27-.91.54-1.37.81.09-.61.18-1.22.26-1.83.39.31.76.65,1.1,1.01Z" fill="#283d82" stroke-width="0"/><path d="M608.38,345.11c-2.65,8.41-6.39,16.14-13.55,21.75,1.94-8.85,7.02-15.75,13.55-21.75Z" fill="#283d82" stroke-width="0"/><path d="M159.98,306.72c10.82-30.26,22.61-59.8,42.79-84.97,3.05-3.8,7.28-10.15,11.5-8.02,4.87,2.46,1.29,9.44,0,13.93-7.61,26.54-20.92,49.88-40.9,69.17-2.48,2.39-5.28,4.46-8.04,6.53-1.68,1.26-3.56,2.24-5.35,3.35Z" fill="#283d82" stroke-width="0"/><path d="M77.91,398.69c-6.06,12.45-23.72,22.25-37.2,20.86-4.53-.47-5.43-2.54-3.63-6.36,3.54-7.53,10.11-11.36,17.54-13.9,7-2.4,14.1-2.39,23.29-.6Z" fill="#283d82" stroke-width="0"/><path d="M300.25,343.27c9.11-24.63,19.67-46.64,33.5-67.6,6.13,16.8-15.27,61.07-33.5,67.6Z" fill="#283d82" stroke-width="0"/></g></svg>