<?xml version="1.0" encoding="UTF-8"?><svg id="b" xmlns="http://www.w3.org/2000/svg" viewBox="0 0 723.41 576.07"><g id="c"><path d="M182.33,561.07c-47.34-.74-96.89-1.39-147.29-1.93-2.03-.02-7.41-.08-10.85-4.63-3.44-4.55-2-9.87-1.52-11.62,7.74-28.49,15.7-58.28,23.67-88.55,1.91-7.25,7.02-11.25,14.38-11.25.22,0,.46,0,.69.01,2.39.07,5.03.1,8.32.1,1.67,0,3.34,0,5.01-.02,1.7,0,3.39-.02,5.09-.02,2.17,0,4.08.01,5.84.04,15.67-58.86,31.66-118.62,47.14-176.44l7.54-28.19c1.42-5.29,2.84-10.57,4.3-16.01l6.17-22.93,11.4,10.27,3.48,3.13c20.88,18.74,42.47,38.13,53.13,66.93,3.92,10.6,6.25,21.57,6.92,32.63,33.69,22.49,59.42,55.62,78.64,101.22l.08.18c.76,1.8,1.59,3.77,2.18,4.96,1.33.09,3.49.1,5.45.11,22.97.12,47.07,4.42,64.46,11.5l12.04,4.9-93.93,110.58-51.77-166.1c-2.34,8.51-4.7,17.13-6.98,25.65-11.67,43.44-25.22,93.97-38.42,143.94-2.02,7.64-6.97,11.51-14.71,11.51h-.43Z" fill="#fdfdfd" stroke-width="0"/><path d="M155.92,216.92c21.69,19.53,43.67,38.2,54.08,66.33,3.64,9.85,5.81,20.03,6.39,30.52.13,2.35.47,4.27,2.73,5.74,36.64,23.96,59.92,58.4,76.6,97.98,4.6,10.92,4.55,10.95,16.33,11.01,21.71.11,44.48,4.09,60.95,10.81-24.72,29.11-49.31,58.05-74.45,87.65-18.78-60.25-37.24-119.47-55.7-178.7-.34.02-.67.04-1.01.05-5.02,18.29-10.11,36.56-15.03,54.88-12.89,47.97-25.74,95.95-38.43,143.98-.95,3.58-2.28,4.56-5.9,4.5-49.11-.77-98.22-1.4-147.34-1.93-3.62-.04-4.36-.8-3.39-4.37,8.02-29.51,15.91-59.05,23.69-88.62.86-3.29,2.31-4.32,5.7-4.23,9.05.26,18.12-.08,27.17.18,3.38.1,4.82-.91,5.7-4.22,18.41-69.17,36.93-138.31,55.43-207.45,2.11-7.88,4.24-15.75,6.49-24.11Z" fill="#242021" stroke-width="0"/><path d="M478.06,509.29c-4.29,0-7.45-2.3-9.73-4.3-3.42-3.01-6.83-6.03-10.24-9.06-12.91-11.46-26.25-23.32-40.14-33.79-31.53-23.78-66.95-35.83-105.29-35.83-.69,0-1.38,0-2.08.01h-.24c-10.4,0-13.55-7.62-14.74-10.49-14.9-35.91-33.95-63.56-58.25-84.54-3.93-3.39-8.18-6.93-12.6-9.84-5.38-3.54-8.32-8.39-8.97-14.81-2.44-24.14-12.99-45.62-32.25-65.67-7.28-7.58-15.31-14.87-23.08-21.91-3.68-3.34-7.49-6.79-11.21-10.27-10.31-9.63-22.1-21.41-31.44-35.75-1.53-2.34-5.58-8.57-2.31-14.98.97-1.9,2.29-3.27,3.75-4.27-1.69-1.37-3.47-2.73-5.29-4.11-1.81-1.38-3.67-2.8-5.52-4.29-6.48-5.24-14.42-12.73-18.37-24.24-.85-2.47-2.82-8.23.81-13.32,1.29-1.81,4.34-4.84,10.25-4.84.5,0,1.01.02,1.54.06-.65-1.35-1.36-2.72-2.08-4.11-.93-1.8-1.88-3.67-2.79-5.6-2.8-5.96-6-14.15-5.8-24.74l.3-16.11,16.78,9.88c1.79,1.05,3.36,1.97,4.93,2.91,31.83,18.98,65.96,38.59,102.48,51.45,30.03,10.57,60.46,15.93,90.46,15.93,4.17,0,8.41-.1,12.58-.31,11.33-.55,22.42-2.87,34.17-5.32,3.69-.77,7.51-1.57,11.31-2.3,13.2-2.54,25.96-3.83,37.92-3.83,23.69,0,45.05,4.79,65.31,14.65,20.85,10.14,38.71,25.8,56.23,49.29,12.58,16.87,23.14,35.1,33.36,52.74l2.19,3.79c1.4,2.42,2.85,3.8,5.16,4.93,13.22,6.47,32.43,17.2,46.57,35.54,9.77,12.68,15.81,27.56,18.45,45.48.81,5.47-.71,10.41-4.5,14.68-8.6,9.69-19.84,16.98-35.39,22.93-3.03,1.16-6.09,2.28-9.05,3.36-7.28,2.66-14.16,5.16-20.78,8.33-12.9,6.17-22.95,16.2-30.71,30.64-6.54,12.18-11.02,25.15-15.76,38.87-1.43,4.15-2.91,8.44-4.44,12.66-5.18,14.31-11.23,29.46-20.28,43.39-1.14,1.75-4.61,7.1-11.23,7.1ZM321.59,393.73c7.5,0,14.5,1.32,21.27,2.6l2.08.39c23.18,4.32,46.11,12.97,72.16,27.24,3.84,2.1,7.71,4.17,11.57,6.24,3.39,1.82,6.86,3.67,10.33,5.56.61-2.54,1.26-5.04,1.9-7.49.88-3.36,1.71-6.54,2.42-9.74,2.1-9.53,3.75-19.76,1.85-30.26-17.87-3.81-31.42-13.95-40.26-30.13-7.91-14.48-12.12-30.86-12.84-50.09-.64-16.95.15-31.97,2.41-45.74-3.88-1.12-7.88-2.54-12.12-4.29-15.84-6.54-27.4-16.74-34.35-30.3-.96-1.87-3.5-6.84-.37-11.96,1.41-2.31,4.29-5.07,9.99-5.07.44,0,.92.01,1.46.05,1.21.07,2.44.11,3.66.11,10.8,0,22-2.92,34.25-8.93,1.86-.91,4.38-1.96,7.38-1.96,3.99,0,7.52,1.74,10.49,5.17,2.33,2.68,5.71,4.88,10.66,6.9,11.46,4.69,23.91,5.64,37.08,6.65,1.99.15,3.97.3,5.96.47,1.88.16,3.76.31,5.64.45,10.02.79,20.36,1.61,30.7,3.57-7.04-11.45-14.27-22.15-22.55-32.19-19.13-23.19-42.67-34.83-71.97-35.59-1.13-.03-2.26-.04-3.38-.04-16.11,0-32.22,2.95-46.06,5.72-3.91.78-7.95,1.71-11.85,2.61-9.33,2.15-18.98,4.37-29.02,5.13-4.86.37-9.83.55-14.77.55-22.84,0-46.31-3.85-71.77-11.77-22.71-7.06-44.62-16.5-65.81-25.62-5.6-2.41-11.21-4.83-16.83-7.2-1.22-.52-2.44-1.04-3.67-1.56-1.06-.45-2.11-.9-3.15-1.34-.81,2.11-2.19,4.26-4.32,6.43-.09.09-.19.19-.29.29,5.38,3.77,11.14,7.17,17.13,10.7,3.06,1.8,6.22,3.67,9.34,5.59l.81.5c6.88,4.24,13.99,8.63,20.89,15.51l12.69,12.63-17.6,3.29c-2.21.41-4.44,1.05-6.79,1.72-1.11.32-2.25.64-3.44.96,2.71,3.62,5.81,7.3,9.43,11.22,5.49,5.93,11.46,11.75,17.23,17.39,8.28,8.08,16.83,16.43,24.58,25.61,16.84,19.97,26.05,40.27,28.14,62.05.57,5.95,1.82,7.17,4.35,8.37,4.99,2.37,8.93,5.97,12.4,9.14.7.64,1.4,1.28,2.1,1.9,21.86,19.35,38,44.74,49.33,77.6.15.44.28.75.39.97.15.01.33.02.55.02h.63ZM548.18,281.71c-7.43,0-14.31,2.27-21.05,6.95-8.18,5.68-12.96,14.13-16.51,29.16-1,4.23-.38,6.94,2.34,10.35.8,1,1.61,2,2.42,3,4.45,5.51,9.04,11.18,12.78,17.75,12.03-.06,22.52-1.4,32.04-4.07,5.18-1.46,9.82-3.4,14.02-5.9-.39-.18-.78-.36-1.18-.53-3.22-1.43-6.39-2.95-9.46-4.42-8.51-4.08-16.56-7.93-25.42-9.93l-23.17-5.23,20.47-12.06c.5-.3,1-.58,1.49-.86,1.26-.71,2.55-1.45,2.95-1.94,3.8-4.6,8.92-7.03,14.81-7.03,1.64,0,3.37.19,5.15.57,10.79,2.28,18.92,8.36,25.7,13.88,4.31,3.51,8.3,5.84,12.33,7.15-5.43-14.2-14.46-24.34-27.44-30.86-7.91-3.97-15.4-5.99-22.26-5.99ZM438.38,242.71c-2.42,18.43,2.05,29.02,14.92,35.38,6.77,3.35,13.67,5.05,20.51,5.05h0c1.33,0,2.66-.06,4-.19-2.73-.12-5.4-.63-7.94-1.51l-.42-.15c-4.09-1.41-13.68-4.73-14.5-15.17-.44-5.57,2.01-9.36,4.9-11.91-4.03-1.92-7.37-4.33-9.98-6.41-3.73-2.96-6.79-4.59-9.92-5.28-.56-.12-1.06-.23-1.5-.31-.02.16-.05.33-.07.5Z" fill="#fdfdfd" stroke-width="0"/><path d="M101.4,68.78c3.08,1.81,5.44,3.19,7.79,4.59,33.45,19.95,67.23,39.24,104.17,52.24,34.53,12.15,70.02,17.93,106.63,16.14,15.88-.77,31.27-4.79,46.8-7.77,33.48-6.44,66.15-5.13,97.34,10.04,21.83,10.62,38.48,27.25,52.8,46.46,13.13,17.61,23.96,36.67,34.95,55.62,2.28,3.92,5.04,6.65,9.16,8.66,16.54,8.1,31.8,17.97,43.26,32.83,9.38,12.16,14.38,26.06,16.59,41.11.41,2.8-.34,4.93-2.23,7.07-8.68,9.78-19.72,15.8-31.71,20.39-10.21,3.91-20.63,7.25-30.53,11.99-15.71,7.51-26.81,19.55-34.94,34.68-9.01,16.78-14.32,35-20.76,52.78-5.21,14.39-10.91,28.53-19.32,41.47-2.31,3.55-3.7,3.63-6.86.86-16.74-14.71-33.1-29.85-50.93-43.3-33.5-25.27-71.11-38.18-113.13-37.72-3.88.04-4.97-1.75-6.19-4.68-13.97-33.69-32.9-63.98-60.79-88.05-4.34-3.75-8.8-7.44-13.58-10.58-3.08-2.03-4.42-4.33-4.78-7.9-2.84-28.01-15.59-51.21-34.83-71.24-10.99-11.45-23.08-21.72-34.66-32.54-11.09-10.36-21.64-21.21-29.98-34-3.52-5.41-2.6-7.08,4.03-7.42.17,0,.35,0,.52-.02,2.17-.32,5.57,1.05,6.26-.73.98-2.5-2.13-4.36-3.79-6.22-5.38-6.01-12.14-10.42-18.36-15.44-6.72-5.43-12.49-11.53-15.39-19.97-1.33-3.87-1.53-6.25,3.73-5.59,2.4.3,4.87.05,7.31.05,6.28,0,6.24,0,4.19-6.24-1.96-5.98-5.23-11.35-7.89-17-2.92-6.19-5.05-12.55-4.9-20.56ZM180.97,167.55c-8.55,1.6-15.76,5.54-24.73,3.89,5.25,9.9,11.7,18.02,18.76,25.65,13.49,14.56,28.69,27.47,41.52,42.68,13.94,16.53,23.86,34.97,25.96,56.88.67,7.02,2.53,12.58,9.68,15.97,4.59,2.18,8.4,6.13,12.3,9.58,22.63,20.03,36.96,45.45,46.67,73.62,1.9,5.52,4.88,7.37,10.02,7.33,7.49-.06,14.78,1.47,22.08,2.82,24.68,4.6,47.46,14.25,69.36,26.24,9.3,5.1,18.72,9.98,27.97,15.16,3.51,1.96,5.23,2.41,6.14-2.59,1.48-8.16,4.03-16.12,5.81-24.23,2.61-11.84,4.18-23.62,1.54-35.88-1.01-4.66-3.44-4.89-6.48-5.51-15.45-3.18-26.87-11.74-34.4-25.53-7.82-14.3-11.09-29.84-11.69-45.93-.62-16.3.02-32.57,3.16-48.64.52-2.64.31-3.86-2.87-4.58-5.38-1.22-10.69-3.03-15.8-5.15-12.74-5.26-23.13-13.34-29.57-25.9-1.34-2.61-1.37-3.51,2.13-3.29,15.13.92,29.21-3.18,42.63-9.76,2.73-1.34,4.44-1.59,6.62.93,3.82,4.4,8.81,7.24,14.2,9.44,14.7,6.02,30.34,6.5,45.82,7.79,12.24,1.02,24.48,1.72,36.57,4.13,7.25,1.44,14.02,4.2,21.73,7.93-11.53-20.07-22.56-38.71-36.48-55.58-20.57-24.94-46.63-38.17-78.99-39.01-17.46-.45-34.52,2.45-51.54,5.85-13.23,2.64-26.29,6.57-39.73,7.59-28.35,2.14-55.97-2.4-83.03-10.82-28.1-8.74-54.74-21.1-81.78-32.51-7.59-3.2-15.1-6.67-23.7-9.03,5.71,8.02,6.15,10.6,2.19,14.64-1.66,1.69-3.82,3.26-6.04,3.96-4.49,1.42-3.18,2.59-.54,4.81,10.6,8.9,22.85,15.2,34.53,22.41,6.77,4.18,13.61,8.3,20,14.66ZM540.23,314.89c2.62-1.55,5.1-2.7,6.91-4.91,2.77-3.35,6.27-4.2,10.76-3.25,8.54,1.81,15.2,6.68,21.7,11.97,7.46,6.07,15.52,10.27,25.51,10.55,5.15.14,5.3-1.93,4.26-5.76-5.35-19.63-16.37-35-34.7-44.21-17.72-8.9-35.74-10.28-52.91,1.64-12.04,8.36-17.06,20.97-20.3,34.73-1.68,7.11-.33,12.79,4.15,18.38,5.74,7.19,11.83,14.19,15.97,22.54,1,2.01,2.81,1.75,4.52,1.76,12.4.08,24.68-1.06,36.65-4.43,9.48-2.67,18.13-7.05,25.57-13.65,2.92-2.59,4.27-4.44-.9-5.96-3.64-1.07-7.06-2.93-10.56-4.48-11.9-5.28-23.25-11.91-36.62-14.93ZM503.88,245.04c0,2.11.07,3.5-.01,4.89-.84,15.11-17.43,27.31-30.9,22.62-3.71-1.29-8.28-2.69-8.63-7.17-.33-4.18,3.96-5.69,7.24-7.25,3.07-1.46,5.85-3.15,6.87-6.65.58-1.98.38-3.31-2.35-3.17-7.92.39-14.4-3.12-20.38-7.87-4.11-3.26-8.49-5.94-13.74-7.1-9.44-2.09-11.72-1.1-12.93,8.15-2.49,19.03,1.19,35.7,20.08,45.04,17.47,8.64,35.4,7.86,52.43-1.54,16.41-9.06,17.53-27.06,2.32-39.94Z" fill="#242021" stroke-width="0"/><path d="M593.48,272.65c-2.54,0-4.95-.87-7.36-2.66-7.03-5.23-15.1-10.03-25.39-15.1-4.37-2.16-6.33-5.75-7.38-7.68-.13-.24-.26-.49-.4-.72-1.57-2.64-3.13-5.3-4.69-7.95-10.21-17.33-20.78-35.24-33.21-51.2-19.63-25.18-41.57-41.36-67.06-49.45-2.17-.68-3.5-1.91-4.14-2.5-.08-.07-.17-.16-.31-.27l-7.33-6.08,21.28-25.07c14.89-17.54,29.71-35,44.54-52.45,2.57-3.03,5.15-6.05,7.73-9.07,5.79-6.78,11.78-13.8,17.56-20.75,3.71-4.46,8.21-6.63,13.75-6.63,25.45.05,50.57.08,74.71.08s48.74-.03,72.17-.08h.03c2.17,0,7.61.02,11.09,4.58,3.51,4.6,2.05,9.95,1.5,11.97-7.02,25.71-14.5,53.69-23.53,88.04-2.58,9.82-10.07,11.28-14.31,11.28-.25,0-.5,0-.76-.01-2.38-.08-4.9-.11-8.19-.11-1.63,0-3.26,0-4.88.02-1.66,0-3.32.02-4.98.02s-3.1,0-4.46-.03c-9.06,34.17-18.36,68.81-27.36,102.35l-7.1,26.43c-.13.49-.28.99-.42,1.48-.18.62-.37,1.26-.43,1.6-1.18,7.35-6.47,9.95-10.65,9.95Z" fill="#fdfdfd" stroke-width="0"/><path d="M449.52,127.87c19.99-23.54,39.82-46.91,59.66-70.26,8.46-9.96,16.99-19.85,25.35-29.89,1.81-2.17,3.58-3.24,6.55-3.24,48.96.1,97.92.11,146.88,0,3.92,0,4.58.81,3.52,4.66-8.01,29.33-15.82,58.72-23.55,88.13-.85,3.25-2.23,4.37-5.66,4.26-8.53-.28-17.08.06-25.61-.17-3.4-.09-4.71,1-5.61,4.37-11.61,43.84-23.41,87.63-35.16,131.44-.36,1.34-.84,2.67-1.05,4.03-.37,2.29-1.31,2.56-3.11,1.22-8.4-6.25-17.48-11.38-26.85-15.99-2.09-1.03-2.81-3-3.85-4.76-12.16-20.49-23.88-41.26-38.58-60.13-18.93-24.29-41.82-43.17-71.64-52.63-.3-.09-.52-.42-1.29-1.05Z" fill="#242021" stroke-width="0"/><path d="M305.57,143.02c-25.16,0-51.02-4.08-79.05-12.47-22.09-6.61-45.11-16.49-72.45-31.08-9.09-4.85-8.03-12.85-7.15-16.05,4.98-18.23,10.05-37.13,15.48-57.78,1.79-6.8,6.65-10.55,13.69-10.55,24.46.04,49.55.07,76.73.07,23.88,0,47.76-.02,71.64-.05,9.11,0,12.34,6.08,13.46,9.7,7.26,23.54,14.71,47.46,21.9,70.59l8.52,27.38c.56,1.79.49,3.35.44,4.07v6.95l-6.97,1.87c-18.15,4.88-37.06,7.35-56.23,7.35Z" fill="#fdfdfd" stroke-width="0"/><path d="M359.36,126.58c-43.93,11.81-87.24,7.79-130.14-5.05-24.72-7.4-48-18.24-70.71-30.37-2.37-1.26-3.27-2.49-2.51-5.27,5.27-19.26,10.42-38.56,15.5-57.87.69-2.61,1.81-3.53,4.61-3.53,49.45.09,98.91.08,148.36.02,2.41,0,3.69.58,4.46,3.06,10.09,32.68,20.27,65.33,30.42,97.99.1.31.01.69.01,1.01Z" fill="#242021" stroke-width="0"/><path d="M243.63,391.46c16.52,53,33.05,106.01,49.88,160,1.86-2.13,3.19-3.61,4.48-5.13,27.96-32.93,55.91-65.86,83.89-98.76,1.04-1.22,1.88-3.58,3.86-2.83,3.22,1.23,6.48,2.75,9.14,4.87,1.23.98-1.06,2.55-1.97,3.62-16.3,19.29-32.65,38.54-49,57.79-17.59,20.71-35.18,41.41-52.78,62.12-.67.79-1.38,1.54-2.64,2.94-14.79-47.42-29.4-94.28-44.48-142.66-2.13,7.72-3.92,14.04-5.61,20.38-10.51,39.29-21.03,78.57-31.46,117.88-.76,2.88-1.74,4.19-5.14,4.15-65.67-.72-131.33-1.33-197-1.75-5.21-.03-5.36-1.56-4.18-5.91,12.15-44.96,24.14-89.97,36.05-135,.94-3.55,2.28-5.06,6.25-4.9,8.87.36,17.77-.1,26.65.21,3.71.13,4.95-1.13,5.88-4.62,19.03-71.55,38.21-143.06,57.38-214.57.98-3.65,2.05-7.26,3.48-12.29,2.61,3.04,4.32,5.51,6.5,7.45,2.4,2.14,2.85,4.18,2.01,7.31-10.89,40.26-21.63,80.57-32.42,120.86-9.22,34.42-18.52,68.81-27.57,103.27-.98,3.74-2.39,4.97-6.24,4.84-9.05-.3-18.12.07-27.17-.18-3.27-.09-4.47,1.13-5.25,4.09-9.92,37.46-19.91,74.91-30,112.33-1,3.7-.84,5.07,3.69,5.1,48.25.27,96.5.78,144.76,1.23,9.23.09,18.47.12,27.69.42,2.88.1,4.4-.53,5.2-3.53,10.3-38.8,21-77.5,30.97-116.39,4.49-17.5,9.84-34.75,15.17-52.33Z" fill="#a91e22" stroke-width="0"/><path d="M548.24,559.17c-24.03-.09-48.48-.13-74.75-.13-22.83,0-46.4.03-72.07.1h-.12c-2.34,0-7.84,0-11.37-4.64-3.56-4.68-2.03-10.23-1.52-12.06,7.71-27.89,14.33-52.55,20.26-75.37,2.34-9.02,8.02-10.37,11.2-10.37,4.06,0,6.95,2.26,8.87,3.76,11.98,9.36,23.42,19.51,34.49,29.32,5.29,4.7,10.73,9.52,16.19,14.22,11.92-16.44,19.08-35.55,25.91-55.31l1.36-3.94c4.27-12.43,8.69-25.27,14.96-37.51,8.85-17.25,19.54-28.55,33.63-35.58,1.32-.66,2.52-1.02,3.4-1.29.2-.06.41-.12.61-.19l6.01-2.07,4.1,4.73,4.04,3.78-17.58,66.51h35.71l-6.14,22.78c-2.2,8.13-4.35,16.1-6.48,24.09l-2.66,9.95c-4.11,15.37-8.36,31.27-12.38,46.92-2.1,8.16-7.34,12.3-15.57,12.3h-.09Z" fill="#fdfdfd" stroke-width="0"/><path d="M562.9,379.65c-5.9,22.34-11.81,44.68-17.71,67.02-.48,1.81-.93,3.64-1.5,5.87h35.6c-3.23,11.99-6.36,23.5-9.43,35.03-5.06,18.97-10.17,37.93-15.06,56.95-.95,3.7-2.3,5.25-6.52,5.23-48.96-.18-97.92-.16-146.88-.03-3.96.01-5.08-.58-3.92-4.78,6.94-25.12,13.74-50.28,20.29-75.51,1.16-4.48,2.26-3.84,5.17-1.56,18.83,14.7,36.09,31.22,54.3,46.64,3.13,2.65,4.23,2.2,6.61-.8,14.66-18.46,22.8-40.06,30.36-61.96,4.71-13.63,9.19-27.34,15.8-40.22,6.82-13.28,15.74-24.62,29.45-31.45.9-.45,1.91-.68,2.87-1.01.17.2.36.39.55.57Z" fill="#242021" stroke-width="0"/><path d="M613.71,283.36c-3.07-3.4-5.66-6.4-8.41-9.25-2.02-2.09-.28-4.04.19-5.82,10.78-40.65,21.68-81.27,32.59-121.88,3.46-12.89,3.51-12.88,16.69-12.88,5.92,0,11.85-.08,17.77.04,2.38.05,3.63-.47,4.33-3.1,10.12-38.13,20.37-76.22,30.63-114.31.74-2.75.48-3.97-2.94-3.96-56.61.1-113.23.1-169.84,0-3.02,0-4.3,1.74-5.86,3.57-29.31,34.51-58.71,68.96-87.82,103.64-3.55,4.22-6.83,6.28-12.18,4.54-1.94-.63-4.03-.79-6.09-1.17.26-1.78,1.63-2.72,2.61-3.87,32.56-38.38,65.18-76.71,97.68-115.14,2.25-2.66,4.51-3.68,7.97-3.68,62.54.1,125.08.14,187.61-.06,5.4-.02,5.28,1.57,4.13,5.81-12.11,44.79-24.1,89.62-35.92,134.48-1.13,4.28-2.8,5.83-7.31,5.59-7.64-.42-15.34.16-22.98-.22-4.42-.22-6.22,1.17-7.37,5.55-11.39,43.36-23.03,86.66-34.62,129.97-.13.48-.37.94-.86,2.18Z" fill="#a91e22" stroke-width="0"/><path d="M380.75,561.9c2.06,0,3.78,0,5.5,0,56.96,0,113.93-.06,170.89.12,4.41.01,5.86-1.4,6.93-5.44,9.73-36.97,19.62-73.91,29.69-110.79,1.27-4.65.2-5.41-4.25-5.27-9.88.33-19.78.1-30.16.1,4.75-17.8,9.35-35.08,13.96-52.35.36-1.34.95-2.66,1.07-4.02.89-9.76,5.81-15.54,16.31-15.98.74,1.27-.25,2.83-.67,4.39-4.52,16.96-8.98,33.94-13.67,50.85-1.07,3.86-.59,5.13,3.77,4.96,8.87-.35,17.77-.04,26.65-.14,2.73-.03,4.12.06,3.15,3.64-12.47,46.14-24.8,92.31-37.06,138.5-.74,2.8-2.08,3.44-4.74,3.44-66.37-.06-132.74-.08-199.11.03-4,0-3.99-1.33-3.15-4.47,10.27-38.09,20.49-76.19,30.58-114.33,1.01-3.8,2.13-4.16,5.33-2,8.16,5.51,6.99,3.09,4.72,11.68-8.07,30.58-16.35,61.11-24.54,91.66-.44,1.65-.75,3.35-1.21,5.41Z" fill="#a91e22" stroke-width="0"/><path d="M144.11,82.91q-10.94-5.31-8.03-16.15c5.53-20.64,11.15-41.26,16.51-61.95.95-3.67,2.53-4.79,6.34-4.78,60.61.13,121.21.13,181.82,0,3.81,0,5.32,1.2,6.42,4.76,11.67,37.85,23.46,75.66,35.4,113.42,1.21,3.84.65,4.88-3.41,5.33-7.38.81-7.37,1.12-9.55-5.88-10.44-33.5-20.93-66.98-31.22-100.53-1.17-3.81-2.82-5-6.84-4.99-54.34.15-108.67.15-163.01.01-3.93,0-5.64.87-6.67,4.94-5.32,20.87-11.03,41.65-16.61,62.46-.27.99-.66,1.94-1.14,3.35Z" fill="#a91e22" stroke-width="0"/><path d="M562.34,379.08c.18-.24.36-.47.53-.71,0,.43,0,.85.01,1.28-.19-.18-.37-.37-.55-.57Z" fill="#242021" stroke-width="0"/><path d="M180.97,167.55c-6.39-6.36-13.23-10.48-20-14.66-11.68-7.21-23.93-13.51-34.53-22.41-2.65-2.22-3.96-3.39.54-4.81,2.22-.7,4.38-2.27,6.04-3.96,3.96-4.04,3.52-6.62-2.19-14.64,8.6,2.37,16.12,5.83,23.7,9.03,27.03,11.41,53.68,23.76,81.78,32.51,27.07,8.42,54.68,12.96,83.03,10.82,13.45-1.02,26.51-4.94,39.73-7.59,17.02-3.4,34.07-6.3,51.54-5.85,32.36.84,58.42,14.07,78.99,39.01,13.92,16.87,24.95,35.52,36.48,55.58-7.7-3.73-14.47-6.49-21.73-7.93-12.09-2.4-24.34-3.11-36.57-4.13-15.48-1.29-31.12-1.77-45.82-7.79-5.39-2.21-10.38-5.04-14.2-9.44-2.19-2.52-3.89-2.26-6.62-.93-13.42,6.58-27.5,10.68-42.63,9.76-3.49-.21-3.46.69-2.13,3.29,6.44,12.56,16.83,20.64,29.57,25.9,5.11,2.11,10.42,3.93,15.8,5.15,3.17.72,3.38,1.94,2.87,4.58-3.14,16.07-3.77,32.35-3.16,48.64.61,16.1,3.88,31.63,11.69,45.93,7.53,13.78,18.95,22.35,34.4,25.53,3.04.63,5.47.85,6.48,5.51,2.65,12.27,1.07,24.04-1.54,35.88-1.79,8.11-4.33,16.07-5.81,24.23-.91,5-2.63,4.55-6.14,2.59-9.25-5.18-18.67-10.06-27.97-15.16-21.89-12-44.68-21.65-69.36-26.24-7.3-1.36-14.59-2.89-22.08-2.82-5.13.04-8.11-1.81-10.02-7.33-9.71-28.17-24.04-53.58-46.67-73.62-3.9-3.45-7.71-7.4-12.3-9.58-7.14-3.39-9-8.95-9.68-15.97-2.1-21.91-12.02-40.35-25.96-56.88-12.83-15.2-28.03-28.11-41.52-42.68-7.06-7.62-13.51-15.75-18.76-25.65,8.98,1.64,16.18-2.3,24.73-3.89Z" fill="#a91e22" stroke-width="0"/><path d="M540.23,314.89c13.38,3.02,24.72,9.65,36.62,14.93,3.5,1.55,6.91,3.41,10.56,4.48,5.17,1.52,3.82,3.36.9,5.96-7.44,6.61-16.09,10.99-25.57,13.65-11.96,3.36-24.24,4.5-36.65,4.43-1.72-.01-3.53.25-4.52-1.76-4.13-8.35-10.22-15.35-15.97-22.54-4.47-5.6-5.82-11.28-4.15-18.38,3.24-13.76,8.26-26.37,20.3-34.73,17.17-11.92,35.18-10.54,52.91-1.64,18.32,9.2,29.35,24.58,34.7,44.21,1.04,3.83.89,5.9-4.26,5.76-9.99-.28-18.05-4.48-25.51-10.55-6.5-5.29-13.16-10.16-21.7-11.97-4.49-.95-7.99-.1-10.76,3.25-1.82,2.2-4.29,3.36-6.91,4.91Z" fill="#a91e22" stroke-width="0"/><path d="M503.88,245.04c15.21,12.88,14.09,30.88-2.32,39.94-17.03,9.4-34.96,10.19-52.43,1.54-18.89-9.34-22.57-26.01-20.08-45.04,1.21-9.25,3.49-10.24,12.93-8.15,5.25,1.16,9.63,3.84,13.74,7.1,5.98,4.75,12.46,8.26,20.38,7.87,2.72-.13,2.92,1.19,2.35,3.17-1.02,3.5-3.81,5.19-6.87,6.65-3.28,1.56-7.57,3.07-7.24,7.25.35,4.47,4.92,5.88,8.63,7.17,13.47,4.68,30.06-7.51,30.9-22.62.08-1.38.01-2.77.01-4.89Z" fill="#fdfdfd" stroke-width="0"/></g></svg>