<?xml version="1.0" encoding="UTF-8"?><svg id="b" xmlns="http://www.w3.org/2000/svg" viewBox="0 0 700 797.74"><g id="c"><path d="M350,20.25C172.91,20.25,17.77,85.87,17.77,85.87v344.47c0,85.91,44.11,165.8,116.82,211.56l215.41,135.59,215.41-135.59c72.71-45.76,116.82-125.65,116.82-211.56V85.87S527.09,20.25,350,20.25Z" fill="#062341" stroke-width="0"/><polygon points="418.03 491.2 418.03 426.77 441.75 426.77 441.75 290.61 434.4 289.4 366.5 490.78 333.5 490.78 265.6 289.4 258.25 290.61 258.25 426.77 281.97 426.77 281.97 491.2 146.39 491.2 146.39 426.77 170.11 426.77 170.11 244.43 146.39 244.43 146.39 180 283.27 180 350 334.08 416.73 180 553.61 180 553.61 244.43 529.89 244.43 529.89 426.77 553.61 426.77 553.61 491.2 418.03 491.2" fill="#ffd61c" stroke-width="0"/><path d="M350,0C163.44,0,0,69.13,0,69.13v362.89c0,90.5,46.47,174.67,123.07,222.88l226.93,142.84,226.93-142.84c76.59-48.21,123.07-132.37,123.07-222.88V69.13S536.56,0,350,0ZM635.81,432.03c0,33.58-8.58,66.87-24.81,96.27-16.23,29.4-39.84,54.39-68.26,72.28l-192.74,121.31-192.74-121.31c-28.42-17.89-52.02-42.88-68.26-72.28-16.23-29.4-24.81-62.69-24.81-96.27V113.96c56.41-18.88,166.87-49.77,285.81-49.77,118.92,0,229.36,30.88,285.81,49.77v318.07Z" fill="#ffd61c" stroke-width="0"/></g></svg>