<?xml version="1.0" encoding="UTF-8"?><svg id="b" xmlns="http://www.w3.org/2000/svg" viewBox="0 0 700 538.5"><g id="c"><path d="M263.03,415.17c-4.97.86-8.98,3.82-13.3,6.09-3.3,1.74-6.47,3.72-9.76,5.48-1.03.55-2.21,1.43-3.45.43-.93-.75-.59-1.77-.02-2.49.99-1.26,1.1-4.36,2.77-3.68,4.34,1.78,6.73-1.55,9.77-2.93,5.55-2.52,10.29-6.59,16.07-8.77,1.26-.48,3.14-.89,3.13-3.24-5.67,1.01-10.95,3.09-16.31,4.86-11.67,3.84-23.28,7.87-34.71,12.4-1.46.58-3.77,2.77-4.69.17-.8-2.26,2.2-2.48,3.78-3.18,2.41-1.08,4.96-1.85,7.36-2.95.95-.43,2.95-.35,2.32-2.18-.53-1.55-2.14-.83-3.27-.66-6.03.89-12.07,1.73-15.83,1.74,16.93-5.98,37.92-4.19,56.62-12.73-6.65-5.26-13.75-6.81-22.13-4.35-7.55,2.21-15.46,3.2-23.28,4.74q-.32-11.4-11.61-11.4c-66.44,0-132.88,0-199.32,0q-7.08,0-7.08-6.86c0-30.26,0-60.51,0-90.77,0-5.93.14-6.06,5.98-6.07,9.05,0,18.09-.12,27.14.05,3.6.06,4.96-1.18,4.95-4.86-.07-58.48-.08-116.97,0-175.45,0-4-1.66-5.11-5.35-5.04-9.2.15-18.41-.09-27.6.11C1.45,103.69-.02,102.62,0,98.59.14,67.4.12,36.21.02,5.02,0,1.47,1,.03,4.79.04c55.99.09,111.98.08,167.97.01,3.3,0,4.97,1.54,6.62,4.15,15.23,24.09,30.59,48.1,45.92,72.13.59.92,1.15,1.86,1.81,2.72.84,1.08,1.56,2.78,3.14,2.4,2.04-.48,1.46-2.51,1.47-3.97.04-23.86.13-47.72-.06-71.58C231.62,1.57,232.6-.01,237.3,0c68.15.15,136.31.1,204.46.1,6,0,6.33.33,6.33,6.36,0,30.41-.08,60.82.09,91.23.02,4.41-1.04,6.12-5.74,5.94-9.19-.34-18.41.1-27.6-.18-4.6-.14-5.93,1.62-5.84,6.01.23,10.76.06,21.52.08,32.28.01,6.02.17,6.17,6.43,6.17,37.43,0,74.86.1,112.29-.1,5.05-.03,7.61,1.22,9.63,6.25,15.14,37.73,30.66,75.3,46.1,112.91,16.56,40.34,33.14,80.67,49.75,120.99,5.82,14.12,11.92,28.11,17.53,42.31,1.45,3.66,3.5,4.53,7.02,4.5,12.48-.13,24.95.04,37.43-.1,3.38-.04,4.72.98,4.71,4.53-.09,31.5-.1,63.01,0,94.51.01,3.76-1.35,4.77-4.95,4.77-68.78-.08-137.56-.1-206.34.02-4.33,0-5.19-1.64-5.17-5.52.12-29.16.07-58.33.06-87.49,0-6.18-.11-6.28-6.27-6.29-7.8-.02-15.6.2-23.39-.08-4.46-.16-5.95,1.34-5.92,5.87.17,29.01.09,58.02.08,87.02,0,5.99-.4,6.4-6.32,6.4-68.15,0-136.31-.03-204.46.09-4.27,0-5.68-1.15-5.65-5.54.17-28.23.38-56.46-.16-84.68-.11-5.81,2.07-8.11,6.44-10.45,6.83-3.66,13.4-7.8,20.07-11.73l.64.96c-6.47,4.45-12.87,9-19.44,13.28-1.74,1.13-4.1,1.88-3.21,4.26.91,2.45,2.9,4.35,5.97,4.31,3.14-.04,5.71-1.37,7.92-3.48,2.03-1.94,3.91-4.06,6.09-5.8,2.86-2.28,3.02-3.91-1.22-5.07.89-.66,1.31-1.19,1.82-1.31,11.28-2.57,17.62-11.75,25.4-18.99.72-.67,2.02-1.41.96-2.65-1.37-1.59-3.13-2.95-5.31-1.97-2.83,1.27-5.56,2.81-8.2,4.45-6.05,3.76-12.02,7.65-18.03,11.49l-.7-.9c4.08-3.19,8.15-6.39,12.23-9.58.49-.25.95-.51.68-1.2.3-.11.6-.22.9-.32-.26.14-.53.28-.78.43-.36.32-1.03.45-.7,1.18ZM472.51,207.31c-.31.31-.62.62-.93.93-1.87-.12-2.7,1.41-3.72,2.49-7.85,8.28-14.51,17.5-20.24,27.29-5.5,9.4-12.04,17.77-20.49,24.61-16.62,13.46-32.5,27.56-44.5,45.59-6.65,9.99-13.98,19.51-17.08,31.38-1.67,6.38-.56,8.18,5.64,9.64,2.24.53,3.38.04,3.86-2.5,3.34-17.59,10.75-33.36,21.61-47.55,10.2-13.32,23.13-23.87,35.46-35.04,6.47-5.86,13.06-11.68,17.52-19.3,7.19-12.28,13.11-25.32,21.89-36.65.32-.31.63-.62.94-.92l.14-.16-.11.2ZM440.66,295.21c4.17-.85,7.89-2.73,11.49-4.87-4.92-.9-8.9.39-11.48,4.9l-.12.09.11-.11ZM222.63,270.88c.11.05.22.09.33.14-.12-.03-.25-.06-.37-.1-1.46-5.75-5.47-9.1-10.51-11.48,3.32,4,5.54,9.04,10.55,11.44ZM120.63,189.49l.1.12-.11-.12c-1.91-5.99-5.2-11.19-9.08-16.04.99,6.53,3.78,12.02,9.09,16.03ZM422,290.59c-2.19-.08-2.93,1.73-3.5,3.18-2.06,5.19-5.32,9.22-11.16,11.68,10.54-.22,12.51-7.62,14.6-14.91.12-.07.27-.12.37-.22.05-.04,0-.17,0-.26l-.31.54ZM297.48,441.24c.24.57.41,1.19.75,1.7.79,1.18,1.73,2.54,3.34,1.55,1.11-.68,1.54-2.32,1.03-3.35-.84-1.7-2.12.12-3.22.09-.62-.02-1.23-.03-1.85-.04-.13-.26-.4-.73-.38-.74,2.15-1.3,4.71-3.95,6.41-3.48,2.08.57.4,4.08.81,6.27.12.62-.63,1.45.4,1.9,2.61-3.61,2.93-6.92.83-9.25-2.57-2.85-5.58-2.13-8.53-.78-1.22.56-2.14,1.26-2.13,3.1.02,2.07,1.29,2.37,2.55,3.02ZM490.27,246.56c5.95-3.94,11.46-8.32,14.89-14.93-5.86,4.16-13,5.83-18.63,10.27l-.12.1.11-.11q5.06-.74,3.79,4.71l-.28.15.24-.19ZM475.29,262.47c8.99-3.85,18.03-7.58,26.95-11.59,3.98-1.79,7.47-4.41,9.77-8.31-7.61,4.47-16.3,6.2-24.04,10.11-4.84,2.44-9.92,4.63-12.66,9.8l-.11.09.1-.11ZM186.13,263.41c.12.03.25.04.36.09.05.02.07.12.1.19-.16-.08-.32-.17-.48-.25-10.83-8.5-23.62-12.67-36.55-16.54-1.37-.41-2.3-.04-2.69,1.63-.34,1.49-.68,2.52,1.12,3.37,2.95,1.39,5.75,3.09,8.61,4.68.66.37,1.17.82,2.06.22,3.49-2.4,7.21-1.29,10.65-.08,5.69,2,11.22,4.45,16.82,6.7ZM156.53,217.19c12.28,7.45,23.43,16.49,35.1,24.79,1.78,1.26,3.54,2.55,5.36,3.74,1.39.91,2.72.71,3.65-.7.79-1.2.58-2.38-.54-3.33-.83-.7-1.67-1.41-2.56-2.04-15.3-10.78-30.97-20.98-47.43-29.91-3.32-1.8-6.6-3.81-10.52-4.91,1.25,6.74,6.03,13.04,11.52,16.06,3.67,2.01,4.78.7,4.59-2.96.27-.25.55-.5.82-.74ZM160.22,241.36c13.09,3.23,25.34,8.38,36.52,15.97,1.8,1.22,3.53,2.61,5.74,3.01.86.16,2.47.17,1.97-1-1.44-3.36-1.87-7.83-5.4-9.47-13.36-6.21-26.94-11.97-40.54-17.94-.71,1.32,1.72,2.32.39,3.32-1.13.85-2.37-.09-3.49-.56-5.76-2.43-11.13-5.59-16.25-9.16-2.18-1.52-4.28-3.14-7.29-4.01,4.32,7.79,10.37,12.82,17.83,16.41,2.78,1.34,5.24,3.32,7.89,4.95.71.44,1.74,1.21,1.85-.58.26-.31.52-.61.78-.92ZM357.84,398.92c-.76,2.64-5.07,1.38-5.35,4.94,3.02-.61,5.84-.67,8.94.54-.43-1.77-.74-3.06-1.06-4.36,3.22,1.43,6.21,3.16,10.08,3.04,3.52-.11,6.4,2.15,8.7,4.87,1.61,1.9,3.26,3.77,4.9,5.64,1.72,1.96,3.22,1.98,4.88-.25,2.27-3.05,5-5.45,9.02-6.13,1.6-.27,2.65-1.78,3.64-3.38-3.03-1.12-6.54-1.3-7.16-4.86-.65-3.74-2.66-5.38-6.29-5.45-.9-.02-2.22,0-2.13-1.2.1-1.32,1.46-1.4,2.56-1.41,3.98-.02,6.73,2.23,8.93,5.19,3.7,4.97,8.21,6.48,14.33,4.8,3.22-.88,3.95-2.22,3.58-5.16-.54-4.3-2.96-7.41-5.9-10.3-5.9-5.79-12.07-11.56-14.93-19.48-1.3-3.6-3.79-5.22-6.18-7.58-6.19-6.11-16.37-3.04-21.98-10.06-.05-.07-.3.05-.45.03-4.32-.53-10.17,2.83-12.37,6.92-2.09,3.9-4.02,8.3-9.91,5.42-.46-.22-1.17.06-1.84.12q2.79,4.63-.66,6.05c1.11,1.56,3.78,1.26,4.54,3.5-4.58,1.23-6.41,3.93-5.82,8.02.24,1.66,2.91,3.65-.74,4.94-.88.31.24,1.27.81,1.6,1.34.79,2.39,1.63,3.22,3.13,2.85,5.13,7.27,8.47,12.93,10.14.59.17,1.15.48,1.72.72ZM191.38,315.9c0,15.98-.09,31.17.07,46.36.04,3.64-1.03,4.87-4.79,4.87-52.25-.1-104.5-.1-156.74-.01-3.42,0-4.63-.95-4.59-4.49.17-14.66.16-29.32,0-43.98-.04-3.43.96-4.67,4.5-4.6,9.67.2,19.34-.04,29.01.12,3.43.06,4.96-.65,4.95-4.61-.12-75.33-.11-150.66,0-225.98,0-3.86-1.34-4.75-4.89-4.67-9.67.2-19.34-.06-29.01.13-3.45.07-4.6-1.02-4.56-4.53.17-14.35.26-28.7-.04-43.04-.1-4.65,1.07-6.13,5.93-6.11,42.11.19,84.22.18,126.33,0,4.36-.02,6.7,1.55,8.92,5.09,40.53,64.76,82.96,128.3,124.62,192.32.86,1.32,1.48,3.02,3.52,3.6.12-1.07.28-1.82.28-2.58.02-46.94,0-93.89.08-140.83,0-3.04-.97-4.08-4.04-4.04-10.14.14-20.27.02-30.41.07-2.45.01-4.26-.28-4.24-3.44.07-15.6.05-31.19,0-46.79,0-2.4.96-3.37,3.34-3.31,3.43.09,6.86.01,10.29.01,49.13,0,98.26.03,147.39-.06,3.7,0,5.65.42,5.56,4.96-.29,14.81-.2,29.63-.04,44.45.04,3.38-1.2,4.25-4.36,4.21-9.98-.14-19.97.11-29.94-.13-3.8-.09-4.78,1.3-4.76,4.88.11,27.14.06,54.27.07,81.41,0,1.94.06,3.88,1.27,6.22,4.04-6.47,5.94-13.19,8.61-19.55.57-1.35,1.03-2.96,2.25-3.28,3.44-.91,2.98-3.44,2.98-5.9,0-14.82.09-29.63-.06-44.45-.04-3.67,1.24-4.92,4.9-4.86,9.67.18,19.34-.08,29.01.13,3.54.08,4.47-1.1,4.45-4.55-.14-24.48-.14-48.97,0-73.46.02-3.6-1.28-4.54-4.62-4.49-10.76.14-21.52.05-32.28.05-51,0-102,.05-153-.09-4.25-.01-5.56,1.06-5.52,5.44.21,24.17.16,48.35.03,72.52-.02,3.42.87,4.62,4.44,4.54,9.82-.23,19.65.1,29.47-.16,4.02-.11,4.96,1.33,4.94,5.11-.14,25.42-.06,50.84-.09,76.26,0,1.13.58,2.52-.78,3.34-.97-.13-1.22-.92-1.63-1.55-35.15-53.76-70.51-107.38-104.63-161.81-1.46-2.33-2.97-3.64-5.9-3.63-51,.06-102,.07-153,0-3.19,0-4.38.94-4.37,4.27.11,24.64.11,49.28,0,73.92-.01,3.31,1.12,4.29,4.34,4.24,9.82-.16,19.66.14,29.47-.15,4.16-.12,5.28,1.16,5.25,5.27-.18,24.95-.09,49.91-.09,74.86,0,40.08-.07,80.16.1,120.24.02,4.37-1.26,5.6-5.53,5.47-9.35-.29-18.72.06-28.07-.16-3.93-.09-5.54.92-5.51,5.2.17,24.17.15,48.35.01,72.52-.02,3.72,1.18,4.78,4.84,4.77,62.23-.09,124.46-.09,186.69,0,3.44,0,4.69-.98,4.61-4.49-.19-9.02-.17-18.05-.01-27.08.06-3.23-1.43-5.11-3.85-6.92-8.15-6.07-12.69-13.64-9.37-24.21.22-.71.33-1.54-1.82-2.86ZM337.73,316.77c8.42-4.78,14.68-10.34,21.15-15.62.67-.55,1-1.57,1.36-2.42,7.51-17.78,15.06-35.55,22.48-53.37,9.39-22.56,18.7-45.16,27.95-67.78,1.22-2.97,2.87-4.29,6.26-4.28,32.28.11,64.57.07,96.85.08,1.38,0,3.25-.48,3.98.74,3.36,5.59,6.05,11.6,8.7,17.48,2.05,4.54.74,5.13,5.77,3.32,4.05-1.46,5.35-.51,5.39,3.93.03,3.03-1.05,5.8-1.92,8.63-.48,1.55-1.77,3.01-.8,4.86,1.71.14,2.37-1.26,3.38-2.14,1.01-.88,1.81-2.77,3.29-2.1,2.02.91.35,2.7.31,4.11-.23,7.5-2.13,14.79,1.31,22.45,7.78,17.34,14.59,35.11,21.81,52.7,22.91,55.79,45.87,111.56,68.69,167.39,1.48,3.63,3.44,4.88,7.31,4.77,9.66-.27,19.34.06,29-.16,3.75-.09,4.76,1.21,4.72,4.85-.18,14.66-.19,29.32,0,43.98.05,3.73-1.18,4.79-4.82,4.78-52.09-.09-104.18-.1-156.27,0-3.69,0-4.84-1.14-4.8-4.82.17-14.66.18-29.32,0-43.98-.05-3.69,1.06-4.86,4.76-4.81,12.79.19,25.58-.03,38.36.12,3.83.05,4.63-.93,3.09-4.54-5.29-12.48-10.42-25.04-15.44-37.63-1.03-2.58-2.42-3.52-5.18-3.51-35.71.16-71.42.24-107.13.26-2.25,0-3.29.55-3.59,2.97-.51,4.21-2.69,7.64-6.22,10.01-3.38,2.27-4.73,1.54-5.25-2.47-.16-1.2-.58-2.39-1.01-3.54-.27-.71-.79-1.53-1.71-1.17-.77.31-1.09,1.22-.61,1.94,1.91,2.86-.06,3.58-2.23,4.03-1.47.3-2.09,1.14-2.4,2.47-.59,2.55-2.95,5.79-1.54,7.48,2.79,3.36,3.4,8.33,6.92,10.6,3.51,2.27,4.83,5.18,4.81,8.68-.01,3.38,1.33,4.36,4.31,4.19,3.3-.19,4.09,1.5,4.06,4.59-.14,14.81-.14,29.63,0,44.45.03,3.39-.96,4.66-4.5,4.66-52.56-.08-105.12-.08-157.68,0-3.19,0-4.42-.93-4.39-4.26.13-14.97.15-29.94-.01-44.91-.04-3.68,1.51-4.45,4.76-4.4,8.73.14,17.47.05,26.2.05,7.72,0,7.46-.11,10.34-7.07,1.94-4.69-3.16-5.38-4.03-8.44-.56-1.97-2.05-1.71-3.45-.16-4.79,5.32-10.28,9.17-18.01,7.99-.68-.1-1.49.37-2.2.69-3.39,1.51-6.71,1.32-9.81-.65-1.48-.95-2.66-1.25-4.21-.16-1.42,1.01-2.9.43-4.42-.23-4.92-2.12-9.48.76-9.48,5.92,0,21.37.13,42.73-.11,64.1-.05,4.66,1.06,6.02,5.92,6.01,50.84-.2,101.69-.12,152.53-.12,10.92,0,21.84-.07,32.75.04,2.85.03,4.23-.63,4.21-3.87-.1-24.95-.09-49.91-.01-74.86,0-2.91-1.1-3.88-3.87-3.73-3.89.21-7.79.21-11.68.29q-7.7.16-5.68-7.1c.5-1.8,1.1-3.59,1.35-5.42.52-3.82,2.53-4.79,6.33-4.76,30.72.26,61.44.29,92.16.36,13.16.03,13.08.04,17.64,12.42,1.23,3.32.65,4.35-2.98,4.29-10.76-.17-21.52.08-32.28-.13-3.58-.07-4.48,1.17-4.46,4.58.12,24.48.13,48.97,0,73.46-.02,3.52,1.12,4.5,4.57,4.5,62.38-.09,124.77-.08,187.15,0,3.25,0,4.33-.99,4.31-4.27-.11-24.64-.13-49.28.02-73.92.02-3.74-1.5-4.36-4.74-4.32-11.85.15-23.71-.03-35.56.11-2.92.04-4.47-.86-5.58-3.65-6.16-15.33-12.51-30.58-18.78-45.86-31.81-77.41-63.63-154.81-95.34-232.26-1.41-3.44-3.18-4.61-6.9-4.6-38.52.14-77.05.14-115.57,0-3.75-.01-5.48,1.21-6.86,4.61-10.83,26.68-21.89,53.27-32.8,79.93-9.87,24.12-19.63,48.29-29.92,73.63ZM469.32,362.59c0,.09,0,.18,0,.26,13.72,0,27.44,0,41.16,0,6.57,0,6.66-.06,4.11-6.29-7.91-19.32-15.89-38.62-23.85-57.92-1.81-4.38-5.69-5.24-8.86-1.37-2.64,3.22-4.81,6.89-2.68,11.76,5.05,11.56,9.65,23.33,14.54,34.96,1.33,3.15,1.44,4.67-2.86,4.62-15.12-.21-30.25-.19-45.37-.01-4.07.05-4.36-1.53-3.33-4.77,1.22-3.85,2.21-7.78,3.18-11.71.2-.83.18-2.08-.3-2.62-.91-1-1.48.38-2.22.77-3.44,1.83-6.82,3.82-10.41,5.29-2.61,1.07-3.9,2.68-4.51,5.35-1.33,5.76-2.7,11.51-4.41,17.16-1.01,3.34-.79,4.67,3.26,4.61,14.18-.21,28.37-.08,42.56-.08ZM234.44,209.44c1.5,13.62,2.51,15.67,11.23,23.73,2.29,2.11,4.66,4.15,6.81,6.38,13.91,14.41,20.8,32.23,24.69,51.44,1.52,7.5,4.23,14.43,8.61,21.18,1.13-2.68-1.13-4.98.74-7.63.71,1.99,1.19,3.43,1.73,4.84,4.91,12.84,12.9,23.25,25.34,29.37,9.11,4.48,19.15,7.18,26.34,15.15-1.75-6.5-5.7-11.16-11.29-14.19-20.14-10.92-32.99-28-41.74-48.63-10-23.58-21.26-46.45-37.3-66.64-4.24-5.33-8.99-10.19-15.16-15ZM218.14,229.15c.85,2.76,1.71,5.21,2.36,7.72,1.72,6.58,4.61,12.53,8.95,17.8,1.45,1.76,4.86,3.31,4.06,5.16-1.06,2.44-4.49.24-6.8.9-.21.06-.35.37-.53.57,2.06,2.31,4.13,4.62,6.83,6.25.68.41,1.25,1.13.73,1.94-.53.83-1.33.47-2.05.09-1.82-.96-3.65-1.9-6.47-3.36,5.17,7.09,9.88,13.01,15.3,18.36.72.71,2.02,1.37,1.46,2.64-.55,1.23-1.9.66-2.92.77-3.21.37-5.91-2.18-9.84-1.91,5.91,5.56,11.76,9.86,18.94,11.97,3.84,1.12,5.03-.18,3.93-3.96-.81-2.76-2.32-5.15-4.52-6.97-2.15-1.77-2.77-3.49-2.01-6.43,1.31-5.03,1.85-10.28-3.53-13.79-2.34-1.52-1.74-4.41-1.18-5.85,2.28-5.87-.7-10.17-4.25-13.5-5.49-5.15-10.44-10.69-15.12-16.53-.72-.91-1.16-2.35-3.34-1.87ZM402.88,442.11c-3.76-4.75-6.83-4.99-10.69-1.15-1.19,1.18-2.04,2.87-4.2,2.25-4.89-1.42-8.53.75-11.38,4.38-1.85,2.37-3.41,2.21-4.57-.16-1.95-3.98-4.04-1.39-5.88-.23-2.98,1.88.02,3.05.83,4.34,1.54,2.44,3.76,4.03,6.52,5.02,2.5.9,4.75,2.35,6.56,4.37.83.93,1.89,2.08.66,3.21-1.13,1.03-1.89-.38-2.66-1.03-2.49-2.1-5.17-3.81-8.84-4.86.19,2.51.04,4.59,1.72,6.08,2.19,1.93,1.66,3.43-.05,5.48-2.86,3.44-3.09,6.18-1.63,10.31.34-.7.69-1.4,1.01-2.1,1.01-2.18,2.31-4.74,4.83-4.46,2.59.29.75,3.12,1.33,4.73.61,1.67,1.28,3.59,3.16,3.55,1.75-.03,2.11-2.08,2.44-3.57.45-2,.35-4.05-.31-6.01-1.14-3.37,2.63-5.36,2.29-8.48,1.72-.18,3.58-.88,5.13-.45,3.58.99,6.58.51,8.97-2.35.91.93.86,1.8.54,2.45-1.16,2.41.05,3.52,2.16,3.94,2.46.48,3.41-.96,3.42-3.21,0-1.09.01-2.2-.19-3.26-.75-3.91.53-6.08,4.78-5.96.87.02,1.98.48,2.5-.59.53-1.11-.08-2.12-.74-3.01-2.36-3.2-5.51-2.97-8.41.9-2.34,3.12-4.32,6.55-8.15,8.1-1.5.61-3.62,1.98-4.48-.07-.83-1.95,1.68-2.04,2.97-2.71,2.49-1.29,5.17-2.21,2.39-6.04-1.97-2.72-2.09-6.4.05-9.27,2.04-2.75,4.85-.44,7.9-.15ZM188.07,313.73c-1.83-3.38-4.8-5.45-5.07-8.55-.51-5.73-4-5.84-8.4-5.69-7.32.24-7.28.06-7.39-7.34-.03-1.85.97-4.36-1.89-5.09-4.07-1.04-7.7-3.17-12.01-4.85,0,9.88.04,19.35-.03,28.82-.02,2.46,1.31,2.73,3.28,2.72,10.27-.05,20.54-.02,31.5-.02ZM184.12,179.13c2.7,2.45,4.86,4.12,6.69,6.1,14.06,15.26,26.06,32.19,38.86,48.47,4.04,5.14,7.13,12.06,15.81,9.13-.07-1.18-1.54-1.79-2.64-2.47-11.16-6.95-18-17.36-23.74-28.81-4.81-9.6-9.66-19.24-16.08-27.91-3.11-4.2-6.69-8.04-10.06-12.04,1.63,6.31,6.1,11.06,7.59,18.37-5.51-4.31-9.3-9.29-16.44-10.85ZM327.08,465.99c.42-1.14.9-2.25,1.23-3.42,2.2-7.72-3.43-13.5-5.11-20.26-.25-.99-1.28-.26-2-.18-5.56.6-8.52-1.19-9.53-6.35-.6-3.09-.83-5.87-5.07-5.36-.98.12-1.62-.81-1.85-1.81-.45-1.99.67-5.38-1.96-5.47-2.13-.07-2.62,3.48-3.75,5.47-.47.84-1.42,1.71-.7,2.89,8.8.02,12.72,4.01,11.18,11.2-.39,1.8-2.58,3.5-1.46,5.17,1.57,2.35,3.25-1.92,5.2-.5.07,1.83-2.5,2.39-2.17,4.35,1.44,1.38,3.33.07,5.52,1.15-3.29,2.6-3.52,6.06-3.29,9.71.1,1.62,1.15,2.13,2.32,2.51,1.41.45,1.86-.64,2.28-1.71.73-1.89,1.45-3.78,2.28-5.63.97-2.15,2.16-2,3.28-.11,1.5,2.54,2.05,5.43,3.61,8.34ZM442.17,299.8c-3.08-.98-5.78-.25-8.39.79-1.6.64-2.35,1.8-1.82,3.73,1.17,4.31,7.3,10.04,11.76,10.39,11.47.91,20.58-4.3,28.91-11.52-6.92,1.64-13.91.88-20.88,1.07-.35,1.99,1.68,4.4-.8,5.62-2.61,1.29-5.24.36-7.46-1.27-3.24-2.38-2.6-5.6-1.32-8.81ZM256.21,446.67c.99-.31,3.44.38,5.48,2.26,1.56,1.44,3.71,1.5,5.75.94,1.32-.36,3.06-.69,2.91-2.43-.12-1.39-1.63-1.69-2.92-1.78-.89-.06-2,.31-2.47-.77-.58-1.35.7-1.9,1.42-2.61,3.1-3.04,6.38-5.93,9.33-9.11,2.22-2.4,4.51-3.64,7.8-2.57,1.07.35,2.87,1.12,3.02-.75.29-3.53-2.47-5.44-4.78-7.5-2.15-1.92-3.38-.17-4.6,1.18-7,7.69-13.97,15.43-20.94,23.15ZM164.86,196.03c1.34,1.64,2.71,3.25,4.02,4.91,8.16,10.4,16.55,20.61,25.96,29.91,1.65,1.63,3.41,5.86,5.86,3.63,2.41-2.19-.58-5.32-2.4-7.62-.29-.36-.64-.68-.95-1.03-5.93-6.82-12.66-12.83-19.14-19.1-4.08-3.95-7.84-8.26-13.35-10.7ZM437.89,244.79c-14.16,11.51-32.87,17.09-43.42,33.25,13.87-11.9,32.17-17.95,43.42-33.25ZM415.55,423.99c6.17-3.67,6.27-11.8,2.76-17.71-3.65-6.14-7.8-1.07-11.74-.71-.45.04-.87.3-1.31.48-3.11,1.24-3.9,2.47-.72,4.97,4.41,3.48,10.12,5.95,11,12.96ZM208.41,218.66c-5.09-7.89-10.26-15.67-18.08-21.11-4.22-2.94-8.78-4.43-15.05-1.74,7.48.24,13.77.77,16.01,8.04,2.63,8.53,9.14,12.41,17.12,14.81ZM214.06,252.22c-3.35-5.86-.12-11.16-1.4-16.33-1.78-7.18-4.28-10.76-9.38-11.85,1.24,3.94,2.72,7.91,1.97,11.86-1.42,7.46,2.28,11.97,8.81,16.32ZM485.62,213.98c-12.03,8.67-24.79,16.57-31.68,30.55,10.18-10.59,23.45-17.93,31.68-30.55ZM333.9,431.86c-1.94-.31-3.83.62-5.33,2.38-.37.43-.49,1.08-.72,1.62,5.23,1.83.53,3.48-.29,4.77-1.47,2.32-1.41,4.27.12,6.41,1.92,2.68,4.22.98,6.33.55,2.43-.49,3.09-2.17,2.65-4.55-.43-2.28-.35-4.37,2.72-4.86,2.78-.45,2.1-2.26,1.08-3.76-1.43-2.12-3.68-2.68-6.56-2.56ZM473.78,241.41c10.76-.77,28.02-16.4,30.15-27.19-7.84,11.8-20.46,17.34-30.15,27.19ZM507.44,254.73c-9.94,6.89-20.93,11.73-31.77,16.86,12.8-1.5,24.53-4.99,31.77-16.86ZM275.78,448.46c7.77-.81,12.18-6.39,16.48-11.87.66-.85,2.52-3.36.72-4.45-2.2-1.33-3.66,1.15-4.8,2.64-3.73,4.9-7.09,10.12-12.4,13.68ZM282.43,348.07c-9.44.55-14.99-6.51-21.73-11.25,5,8.13,10.72,14.86,21.73,11.25ZM285.97,340.62c-9.3-2.77-16.13-8.36-24.86-9.25,7.44,3.98,14.19,9.63,24.86,9.25ZM208.51,286.32c-5.66-4.93-12.38-7.49-19.67-8.76,5.92,4.36,12.54,7.13,19.67,8.76ZM459.5,293.87c8.09-1.62,16.86-.26,24.12-5.51-8.03,1.88-16.78.6-24.12,5.51ZM392.76,412.7c-1.01,2.58-4.05,3.39-2.46,5.75,2.01,2.98,10.74,4.96,14.68,3.55-4.42-2.39-9.48-3.59-12.22-9.3ZM190.44,297.63c5.21,5.73,11.74,6.25,20.04,5.22-7.54-1.96-13.79-3.59-20.04-5.22ZM297.38,352.53c-2.77-.79-5.48-1.17-8.11.17-2.66,1.36-5.64,1.21-9.29,1.48,6.88,4.76,11.93-.54,17.4-1.65ZM477.07,209.74c3.05-4.89,6.64-9.49,9.35-16.14-6.25,4.57-8.81,9.75-9.35,16.14ZM193.72,272.61c6.15,4.45,12.8,6.94,17.83,6.78-5.34-3.67-10.78-6.05-17.83-6.78ZM185.18,285.56c-5.33-5.2-9.93-9-16.97-11.51,4.96,5.63,9.86,8.96,16.97,11.51ZM277.06,302.87c-6.33-3.87-8.82-11.44-16.85-10.87,5.96,2.47,8.64,9.74,16.85,10.87ZM269.14,278.54c-2.87-6.84-4.52-12.89-11.05-15.37,3.99,4.38,5.16,10.71,11.05,15.37ZM215.17,333.14c-5.99-2.17-11.18-3.44-17.93-3.54,6.07,3.59,11.2,5.11,17.93,3.54ZM245.46,383.53c6.62,1.74,11.8-.62,14.95-7.19-4.96,3.37-9.7,5.41-14.95,7.19ZM320.68,439.2c3.4-1.38,4.94-4.03,4.4-7.22-.47-2.77-2.27-5.14-5.62-5.29-2.86-.13-4.66,1.05-5.13,4.97,2.05-2.59,3.94-4.32,6.53-2.73,5.45,3.34-1.31,6.63-.18,10.27ZM214.13,323.43c-4.82-1.86-9.73-2.83-14.79-3.03,4.48,3.31,9.27,5.09,14.79,3.03ZM418.34,326.06c5.73.96,9.03,5.48,14.48,6.24-3.66-5.46-8.95-7.89-14.48-6.24ZM250.72,305.79c4.25,4.42,8.5,7,15.3,7.32-5.35-3.22-9.31-6.38-15.3-7.32ZM165.08,259.95c2.33,3.04,4.57,5.13,7.31,6.62,1.26.69,2.77,1.01,3.67-.56.97-1.68-.33-2.62-1.57-3.28-2.74-1.45-5.67-2.37-9.41-2.79ZM261.01,320.35c3.17,3.97,6.67,7.44,12.81,8.36-4.01-4.19-7.91-7.03-12.81-8.36ZM265.85,305.32c3.77,5.21,6.97,9.42,13.26,12.36-4.04-5.35-7.03-9.79-13.26-12.36ZM326.39,383.06c.92-2.45.74-4.4-1.58-5.66-2.63-1.42-6.71-.22-8.59,2.4q7.95.05,10.17,3.26ZM434.45,323.98c7.91,3.09,11.37,1.99,14.68-4.94-4.49,3.83-9.3,4.32-14.68,4.94ZM189.71,305.77c3.67,3.67,7.89,5.94,13.21,5.13-4.12-2.44-8.38-4.49-13.21-5.13ZM313.86,367.57c-5.41,1.67-10.6.17-15.41,2.23,6.24,2.69,11.34,2.09,15.41-2.23ZM154.79,273.87c3.3,4.94,6.46,6.7,11.76,6.84-3-3.62-7.11-5.14-11.76-6.84ZM228.8,295.54c4.71,5.39,8.03,7.06,12.86,6.77-3.59-3.2-7.6-5.34-12.86-6.77ZM280.14,392.91c-5.77.57-10.12,1.21-14.99,3.09,5.47,1.36,9.89,1.12,14.99-3.09ZM232.99,359.72c-4.94-1.82-9.95-2.27-15.61-.33,5.54,1.93,10.53,1.68,15.61.33ZM462.21,285.6c8.12.1,10.77-.49,13.85-3.05-6.1-.71-9.99.14-13.85,3.05ZM406,417.77c-1.65-4.12-5.02-5.59-8.23-7.18-.86-.43-1.79.17-2.47.86-.56.56-.43,1.1.21,1.46,3.21,1.84,5.81,5.02,10.5,4.86ZM245.55,371.28c-4.76-1.25-9.56-1.17-14.39-.5,4.72,2.25,9.51,2.6,14.39.5ZM410.56,289.21c-4.16,1.3-6.08,4.93-8.42,8.14,4.51-.86,6.68-4.26,8.42-8.14ZM157.46,198.7c1.59,4.65,3.65,7.71,8.08,10.19-1.71-4.57-3.56-7.8-8.08-10.19ZM400.71,355.45c.24-6.39-1.72-9.62-6.81-11.62,2.28,3.89,4.32,7.38,6.81,11.62ZM303.18,362.14h-12.88c4.37,2.62,8.7,3.05,12.88,0ZM415.34,343.34c.94-5.05-.18-8.08-3.93-11.03.38,4.03,1.64,7.47,3.93,11.03ZM434.3,318.96c-3.48-.73-6.1-3.08-9.1-5.69.97,5.99,2.96,7.25,9.1,5.69ZM329.48,364.67c-4.09,2.31-8.24,2.25-11.44,6.15,4.83-.7,8.89-.81,11.44-6.15ZM226.08,352.04c-4.14-1.7-7.56-1.39-12.28-1.1,4.44,2.78,7.81,3.3,12.28,1.1ZM458.73,277.68c-5.26.86-6.62,3.88-8.24,7.75,3.88-1.64,5.85-4.08,8.24-7.75ZM295.33,383.17c-4.1-2.57-7.44-3.42-12.08-2.63,3.86,2.54,7.11,3.57,12.08,2.63ZM407.38,465.27c2.44-1.9,4.34-4.07,3.6-7.06-.4-1.62-2.67-1.58-3.61-.9-3.37,2.41.03,5.24.01,7.96ZM343.66,428.53c4.22-.06,7.36.65,10.59-1.86-3.84-1.04-7-2.1-10.59,1.86ZM273.28,375.88c-3.11-4.15-4.99-5.16-9.28-4.94,2.48,3.01,5.41,4.48,9.28,4.94ZM267.52,287.79c-1.61-4.31-2.52-8.13-7.12-11.17,1.97,4.69,2.25,8.9,7.12,11.17ZM464.22,247.52c-4.23,1.77-6.46,3.95-7.93,7.59,3.98-1.04,6.17-3.28,7.93-7.59ZM306.73,390.78c3.59-.41,7.35,0,10.85-2.47-4.41-1.13-8.02-.93-10.85,2.47ZM383.49,335.3c-.4,3.91-.84,6.93.95,10.5,2.27-3.89,1.77-6.84-.95-10.5ZM310.31,423.65c2.83-3.01,4.48-5.38,5.31-9.17-3.89,2.14-5.49,4.54-5.31,9.17ZM219.66,340.72c-3.25.04-6.56-.85-10.26.66,4.05,2.42,7.28,2.32,10.26-.66ZM297.73,376.6c-3.31-2.01-5.76-3.21-9.13-3,2.14,3.47,4.79,4.07,9.13,3ZM451.48,275.43c-6.08,1.58-6.29,1.69-8.49,4.39,3.69.64,6.25-.73,8.49-4.39ZM317.53,440.14c.95-2.36,1.72-4.38,2.57-6.36.43-.99,1.25-2.11-.19-2.75-1.54-.69-2.83.11-3.33,1.6-.86,2.61-.46,5.16.95,7.51ZM288.17,333.95c1.99-2.42,3.38-4.12,5.1-6.2-4.53-.29-5.95,1.46-5.1,6.2ZM354.38,418.29c3.35-.88,6.01-1.59,9.27-2.45-4.12-2.4-6.89-2.08-9.27,2.45ZM373.85,477.06c-2.1,1.35-2.4,3.16-2.51,5.05-.09,1.66,1.19,2.01,2.35,2.42.92.32,1.96.36,2.57-.47.78-1.06-.65-1.5-.9-2.31-.45-1.47-.94-2.92-1.52-4.7ZM272.35,386.5c-3.92-.86-6.86-1.26-10.05.73,3.5,1.86,6.33,1.53,10.05-.73ZM331.93,384.24c-4.07.79-5.97,2.86-7.07,7.35,3.41-2.34,5.69-4.05,7.07-7.35ZM353.63,345.96c-3-4.1-6.03-5.4-10.61-4.31,3.29,2.09,6.35,3.19,10.61,4.31ZM401.93,335.69c.43-4.44-.43-7.22-4.23-9.61.72,3.69,1.55,6.47,4.23,9.61ZM239.09,350.89c-.76-3.38-2.22-5.41-5.31-7.12.4,3.71,1.71,5.85,5.31,7.12ZM264.02,362.42c-1.88-4.23-2.92-4.99-6.86-5.12,1.68,2.53,3.57,4.51,6.86,5.12ZM313.4,398.24c3.66-1.1,6.24-1.63,8.02-4.25-3.5-.8-5.71.39-8.02,4.25ZM318.39,354.92c2.38,3.21,4.65,3.14,7.93,1.73-2.57-1.95-4.82-2.01-7.93-1.73ZM321.83,459.58c-1.01,2.75-3.18,4.54-1.95,7.07.5,1.03,2.66,1.24,3.25.27,1.4-2.31.38-4.57-1.3-7.34ZM314.76,406.67c3.03-1.71,4.91-3.09,6.15-6.01-3.55.54-5.44,1.94-6.15,6.01ZM418.12,318.03c-3.66-.77-6.08-.03-8.12,3.16,3.22-.14,5.72-.67,8.12-3.16ZM485.91,283.38c3.23-.37,4.57-2.33,6.25-5.12-3.49.5-5.36,1.79-6.25,5.12ZM431.11,283.96c2.72-1.22,4.21-2.7,4.39-5.82-2.97,1.06-4.58,2.45-4.39,5.82ZM246.51,347.81c1.07,3.6,2.69,5.23,6.22,5.64-1.33-2.94-3-4.51-6.22-5.64ZM234.24,317.83c.53,3.43,1.81,5.29,5.03,6.3-.21-3.34-1.97-4.84-5.03-6.3ZM253.75,283.96c1.6-2.17,1.82-4.28-.55-6.55-1.99,2.42-.54,4.47.55,6.55ZM475.26,248.59c-4.53.53-5.55,2.84-5.32,6.41,2.44-1.43,3.62-3.59,5.32-6.41ZM205.48,296.5c3.07,2.43,3.56,2.46,6.87.36-2.29-1.03-4.46-2.17-6.87-.36ZM425.37,301.77c3.29-.77,4.32-2.71,5.35-5.36-3.46.25-4.57,2.14-5.35,5.36ZM395.81,449.77c1.83-1.53,2.87-2.4,3.91-3.28.65-.55,2-.89,1.26-2.01-.43-.65-1.51-.99-2.37-1.21-1.17-.31-2.29.06-2.52,1.37-.24,1.35-.17,2.76-.28,5.13ZM358.13,335.6c1.98-1.94,1.95-3.75.83-5.63-.13-.22-.98-.34-1.12-.18-1.55,1.8-1.1,3.62.29,5.82ZM146.5,192.09c-2.03-5.24-2.11-5.31-6.2-6.52.95,2.99,2.96,4.7,6.2,6.52ZM331.54,421.15c-1.67,1.65-2.6,3.14-2.24,5.69,2.69-1.31,3.89-2.68,2.24-5.69ZM300.08,390.16c-3.56-.16-5.05,1.42-6.43,4.38,3.2-.34,4.66-1.82,6.43-4.38ZM307.14,343.73c2.07,2.81,4.02,3.33,7.15,2.12-2.31-1.99-4.18-2.71-7.15-2.12ZM457.37,260.68c2.93-.12,4.33-1.26,5.29-3.67-2.85-.56-4.09.72-5.29,3.67ZM440.99,264.49c2.95-.38,4.27-1.69,5.34-4.58-3.29.66-4.86,1.66-5.34,4.58ZM437.35,291.15q4.3-1.12,5.42-5.14c-2.82.7-4.38,2.4-5.42,5.14ZM428.85,276.94c2.6-.76,4.14-1.94,4.66-4.92-2.76.84-4.7,1.63-4.66,4.92ZM230.69,327.81c-.46-3.38-1.27-5.14-3.93-6.04-.42,3.1,1.26,4.25,3.93,6.04ZM230.11,337.22c-.82-2.95-1.55-4.84-4.27-5.74-.13,3.08,1.07,4.58,4.27,5.74ZM447.72,266.76q-4.19.44-5.3,3.67c2.22-.31,4.11-.99,5.3-3.67ZM335.84,405.82c1.41-.28,1.82-1.48,2.18-2.66.19-.62.07-1.42-.65-1.49-1.53-.15-2.14,1.04-2.5,2.25-.23.77,0,1.53.96,1.9ZM119.4,205.09q-.76-3.89-3.74-5.07c0,2.42.93,4.11,3.74,5.07ZM300.55,381.48c1.62,1.85,3.27,1.76,4.97.69.59-.37.69-1.16.04-1.46-1.74-.81-3.44-.78-5.01.77ZM244.13,316.17c1.48,2.81,3.05,4.48,6.5,3.92-1.62-2.48-3.3-3.97-6.5-3.92ZM238.37,338.84c-.34-2.9-1.3-4.28-3.89-4.77-.14,2.66,1.06,3.87,3.89,4.77ZM270.73,360.41c.72,2.99,1.94,4.55,4.86,4.74-.65-2.67-1.91-4.17-4.86-4.74ZM296.45,402.51c-2.59,1.98-4.28,3.35-4.33,6.36,2.77-1.13,4.02-2.76,4.33-6.36ZM252.75,364.44c-1.46-2.89-2.73-4.67-6.2-5.12,1.39,2.88,2.63,4.6,6.2,5.12ZM356.27,318.04c2.23-.9,3.52-2.01,3.08-4.77-2.38.89-3.78,1.92-3.08,4.77ZM283.44,322.99c3.31,2.75,3.72,2.74,5.54-.24-1.9-.03-3.67-.64-5.54.24ZM326.33,415.46q3.02-.72,4.17-3.37-3.06.64-4.17,3.37ZM127.29,151.21c.15,3.02.77,4.87,3.33,5.99.43-2.7-.27-4.47-3.33-5.99ZM340.22,393.88c-1.35.3-2.56.95-2.8,2.51-.11.74.67,1.03,1.28.87,1.35-.36,2.63-1.02,2.92-2.52.15-.74-.68-.85-1.39-.86ZM266.27,355.34q-.42-2.98-3.2-3.71c-.06,2.23,1.13,3.31,3.2,3.71ZM360.28,433.95c-2.05-.8-3.58-1.53-5.15-.16-.15.13.01.96.25,1.12,1.56,1.02,3.1,1.18,4.89-.96ZM365.98,429.35c1.42-2.1.93-3.68-.62-5.07-.36-.32-.99-.41-1.12.13-.47,1.93.28,3.47,1.74,4.94ZM170.48,185.36c-1.6,2.43-1.28,4.38.46,6.67,1.37-2.51,1.53-4.49-.46-6.67ZM405.52,314.29c-1.54-1.83-2.93-1.1-4.23.15-.58.56-.87,1.7-.03,1.84,1.68.29,3.13-.57,4.26-1.99ZM276.01,369.4c.69,2.93,2.07,3.82,4.83,3.44-.73-2.31-2.13-3.12-4.83-3.44ZM407.04,328.68c.85-2.02.65-3.42-.57-4.57-.18-.17-1.02-.03-1.12.17-.86,1.8-.03,3.07,1.69,4.4ZM221.11,302.68c.3,2.27,1.41,3.29,3.35,3.33.22,0,.72-.73.64-.97-.54-1.64-1.75-2.4-3.99-2.36ZM333.33,393.18q-3.25.27-2.94,3.18c1.44-.65,2.8-1.32,2.94-3.18ZM233.12,313.37c.68-2.44-.16-3.66-2.29-4.57-.74,2.42.2,3.58,2.29,4.57ZM288.4,403.24c-1.12.31-1.93,1.01-2.12,2.16-.14.84.21,1.68,1.24,1.38,1.09-.32,1.71-1.28,1.92-2.39.12-.68-.28-1.12-1.04-1.15ZM457,268.76c.76-.31,1.78-.79,1.99-1.99.13-.71-.49-1.21-1.14-1.03-1.16.32-2.51.67-2.5,2.26,0,.76.69.9,1.66.76ZM365.11,437.59c-1,.52-1.29,1.53-1.35,2.63-.04.74-.09,1.78,1.01,1.57,1.16-.23,1.66-1.27,1.65-2.46,0-.81-.24-1.49-1.32-1.74ZM421.07,308.66c.06-.87-.52-1.03-1.15-.98-1.19.1-1.9.89-2.24,1.94-.2.61.01,1.27.83,1.2,1.33-.12,2.16-.93,2.56-2.17ZM230.61,414.51c-.74-.15-1.17-.25-1.61-.31-.59-.09-.85.29-.73.76.18.69.72.29,1.1.19.34-.1.65-.32,1.24-.63Z" fill="#5b3137" stroke-width="0"/><polygon points="483.62 340.42 451.4 340.42 464.22 291.72 483.62 340.42" fill="#fefefe" stroke-width="0"/><path d="M204.91,296.43c3.61,2.69,4.43,2.72,7.82.37-2.5-1.22-4.8-2.16-7.82-.37Z" fill="none" stroke-width="0"/><path d="M209.45,302.4c-6.45-1.68-12.91-3.36-19.36-5.04,5.22,6.12,11.94,6.81,19.36,5.04Z" fill="none" stroke-width="0"/><path d="M222.6,270.93c.18.2.36.4.54.61.44-.46.28-.76-.25-.97-1.77-5.27-5.5-8.69-10.31-11.12,2.54,4.54,4.97,9.17,10.01,11.48Z" fill="none" stroke-width="0"/><path d="M165.49,194.77c-.1-.35-.4-.53-.79-.6-.08.53.05.88.79.6Z" fill="none" stroke-width="0"/><path d="M165.51,208.99c-1.22-4.84-3.67-7.85-7.44-9.87.76,4.32,2.89,7.57,7.44,9.87Z" fill="none" stroke-width="0"/><path d="M170.49,184.99c-1.92,2.58-1.54,4.8.45,7.46,1.65-2.72,1.76-4.95-.45-7.46Z" fill="none" stroke-width="0"/><path d="M212.09,279.51c-5.72-3.96-11.36-6.45-18.12-7.02,4.2,4.17,12.39,7.42,18.12,7.02Z" fill="none" stroke-width="0"/><path d="M221,303.67c.38,1.44,1.47,2.31,2.93,2.6.92.19,1.45-.22,1.42-1.46-.53-1.11-1.45-2.08-2.94-2.32-.86-.14-1.67.16-1.4,1.18Z" fill="none" stroke-width="0"/><path d="M230.52,337.24c-1.11-2.78-1.49-4.98-4.03-5.49-.82-.16-1,.69-.88,1.24.47,2.17,1.58,3.76,4.91,4.25Z" fill="none" stroke-width="0"/><path d="M231.43,308.85c-1.01-.26-1.16.7-1.13,1.48.06,1.34.77,2.33,1.98,2.82,1,.4,1.3-.36,1.42-1.46-.2-1.19-.79-2.46-2.27-2.84Z" fill="none" stroke-width="0"/><path d="M238.66,350.44c-.4-3.02-1.65-5.3-5.08-6.92.38,4.24,2.12,6.14,5.08,6.92Z" fill="none" stroke-width="0"/><path d="M237.31,338.67c.77.21,1.14-.37,1.09-1.04-.14-1.93-1.43-2.95-3.03-3.69-1,.11-1.31.71-1.1,1.59.39,1.63,1.45,2.7,3.05,3.14Z" fill="none" stroke-width="0"/><path d="M234.2,318.28c.35,3.16,1.87,5.08,4.9,6.04-.29-4.17-.76-4.75-4.9-6.04Z" fill="none" stroke-width="0"/><path d="M230.46,327.63c.28-3.01-.71-4.8-2.95-5.87-.62-.3-1.13.24-1.11.98.07,2.46,1.58,3.7,4.06,4.89Z" fill="none" stroke-width="0"/><path d="M168.97,274.85c4.6,5.59,10.17,9.23,15.4,10.06-5.47-6.12-10.84-9.63-15.4-10.06Z" fill="none" stroke-width="0"/><path d="M203.01,260.63c.95.07,2.35-.09,1.72-1.29-1.82-3.46-1.99-8.09-6.16-9.98-13.16-5.97-26.37-11.82-39.58-17.68-.32-.14-.83.14-1.2.21-.19,1.36,1.75,1.82,1.01,3.61-9.99-2.66-17.69-9.59-26.87-13.98,2.14,3.6,4.54,6.88,7.26,9.89,1.66,1.84,2.74,4.54,5.74,4.81.36-2.02,1.22-.86,2.02-.24,3.3,2.54,6.52,5.21,10.32,7,.94.44,2.37,1.77,2.38-.8l.73-.82c13.04,3.79,25.59,8.68,36.81,16.52,1.78,1.24,3.53,2.6,5.82,2.77Z" fill="none" stroke-width="0"/><path d="M188.55,277.47c6.01,4.67,12.89,7.4,20.21,8.89-5.97-4.92-12.63-7.98-20.21-8.89Z" fill="none" stroke-width="0"/><path d="M185.2,262.03c-11.01-7.14-23.04-11.91-35.64-15.37-1.68-.46-2.54.05-2.91,1.89-.29,1.44-.87,2.59,1.03,3.38,3.02,1.25,5.97,2.68,8.61,4.66.69.51,1.36,1.32,2.42.57,3.6-2.57,7.36-1.41,10.94-.13,5.51,1.98,10.9,4.27,16.34,6.42.13-.68-.31-1.1-.8-1.42Z" fill="none" stroke-width="0"/><path d="M203.2,310.95c-4.34-2.61-8.71-4.98-13.84-5.27,3.8,3.89,8.17,6.32,13.84,5.27Z" fill="none" stroke-width="0"/><path d="M146.48,192c-.61-3.99-2.68-5.94-6.42-7.37.76,4.05,2.95,5.9,6.42,7.37Z" fill="none" stroke-width="0"/><path d="M241.52,302.58c-3.42-3.68-7.6-5.84-13.52-7.49,4.27,5.13,8.39,7.35,13.52,7.49Z" fill="none" stroke-width="0"/><path d="M214.86,322.76c-5.45-1.13-10.54-2.19-16.78-3.48,5.55,5.4,12.15,6.62,16.78,3.48Z" fill="none" stroke-width="0"/><path d="M128.77,151.68c-.54-.43-1.36-.44-1.48.29-.43,2.44.84,4.09,3.27,5.66,1.06-2.76.03-4.5-1.79-5.95Z" fill="none" stroke-width="0"/><path d="M156.39,231.11c.11.1.21.2.32.3.11-.09.22-.19.34-.28-.11-.1-.21-.27-.32-.28-.11,0-.22.16-.34.26Z" fill="none" stroke-width="0"/><path d="M149.9,220.33c4.69,2.98,5.37,2.64,6.31-2.73,2.6.32,4.34,2.21,6.3,3.6,10.88,7.78,21.67,15.68,32.51,23.51,1.74,1.26,3.73,3.07,5.66.62,2.03-2.57-.37-3.93-2.1-5.16-17.36-12.37-35.24-23.92-54.23-33.67-1.52-.78-3.04-1.99-5.37-1.63,1.96,6.67,5.31,11.88,10.92,15.45Z" fill="none" stroke-width="0"/><path d="M154.29,273.55c3.04,5.48,7.56,6.86,13.2,8.08-3.61-4.65-7.98-6.26-13.2-8.08Z" fill="none" stroke-width="0"/><path d="M145.53,236.73c-.18-.13-.37-.26-.55-.39-.08.4-.08.72.55.39Z" fill="none" stroke-width="0"/><path d="M176.39,265.93c.68-1.46-.28-2.44-1.35-3.08-2.96-1.77-6.19-2.74-10.54-3.13,2.77,3.36,5.16,5.77,8.3,7.24,1.3.61,2.82.6,3.59-1.04Z" fill="none" stroke-width="0"/><path d="M265.83,355.42c.72.14,1.16-.35,1.02-1.05-.31-1.59-1.19-2.8-2.81-3.23-1.02-.27-1.28.41-1.22,1.47.4,1.42,1.37,2.5,3.01,2.82Z" fill="none" stroke-width="0"/><path d="M288.8,373.66c2.5,3.83,3.4,4.17,8.61,2.93-3.93-2.79-4.89-3.1-8.61-2.93Z" fill="none" stroke-width="0"/><path d="M256.69,356.36c1.8,3.7,3.92,5.69,8.19,6.32-1.87-3.82-4.16-5.6-8.19-6.32Z" fill="none" stroke-width="0"/><path d="M311.92,346.78c.87,0,2.33-.31,1.88-1.33-.83-1.85-2.98-1.83-4.54-2.24-.97.02-2.12.14-1.8,1.03.7,1.96,2.53,2.54,4.46,2.54Z" fill="none" stroke-width="0"/><path d="M288.45,333.74c1.66-1.95,3.18-3.73,4.82-5.65-4.92-.78-6.23.75-4.82,5.65Z" fill="none" stroke-width="0"/><path d="M285.52,340.25c-8.91-2.59-15.79-8.45-25.1-9.47,7.83,6.7,17.69,10.51,25.1,9.47Z" fill="none" stroke-width="0"/><path d="M326.33,383.58c1.25-3.11,1.02-5.49-1.72-6.37-3.27-1.05-6.58-.84-9.43,2.65,4.21.87,8.98-1.98,11.15,3.73Z" fill="none" stroke-width="0"/><path d="M289.62,322.84c-2.29-.5-4.26-.96-6.45-.02,3.1,3.21,3.59,3.23,6.45.02Z" fill="none" stroke-width="0"/><path d="M251.02,320.05c-1.81-2.38-3.46-4.09-6.17-4.12-.72,0-.86.85-.46,1.39,1.49,1.99,3.05,3.92,6.63,2.73Z" fill="none" stroke-width="0"/><path d="M329.63,364.21c-4.15,2.74-8.64,2.35-11.88,6.94,4.99-.98,9.55-.72,11.88-6.94Z" fill="none" stroke-width="0"/><path d="M120.45,189.45c-1.33-6.38-5.1-11.38-9.07-16.27,1.01,6.57,3.47,12.32,9.07,16.27Z" fill="none" stroke-width="0"/><path d="M116.4,199.53c-.15-.08-.92.5-.89.72.25,2.39.81,4.59,4.11,4.78.27-2.66-.96-4.39-3.21-5.51Z" fill="none" stroke-width="0"/><path d="M326.44,356.5c-2.44-2.02-4.9-2.01-8.46-1.76,2.74,3.53,5.14,3.81,8.46,1.76Z" fill="none" stroke-width="0"/><path d="M228.37,415.24c.53.78,1.56-.14,2.42-.57-.44-.22-.81-.52-1.2-.58-.86-.12-2.1-.15-1.22,1.15Z" fill="none" stroke-width="0"/><path d="M303.98,361.89h-14.69c5.59,3.61,10.67,3.54,14.69,0Z" fill="none" stroke-width="0"/><path d="M253.07,277.05c-2.01,2.76-.72,5,.7,8.28,1.94-3.65,2.06-6.06-.7-8.28Z" fill="none" stroke-width="0"/><path d="M268.52,277.72c-2.12-5.99-3.62-12.45-10.72-14.75,4.06,4.55,5.27,11.22,10.72,14.75Z" fill="none" stroke-width="0"/><path d="M265.47,312.37c-4.83-2.5-8.82-6.08-14.98-6.75,5.66,5.93,10.09,7.88,14.98,6.75Z" fill="none" stroke-width="0"/><path d="M260.16,276.49c2.18,5.01,2.14,9.92,8.81,11.5-3.25-4.04-3.61-8.77-8.81-11.5Z" fill="none" stroke-width="0"/><path d="M198.32,329.86c4.93,3.4,10.16,5.3,17.19,3.24-6.2-2.31-11.54-3.55-17.19-3.24Z" fill="none" stroke-width="0"/><path d="M246.5,347.78c1.8,4.92,2.37,5.35,6.47,5.09-1.56-2.38-3.08-4.3-6.47-5.09Z" fill="none" stroke-width="0"/><path d="M246.66,358.91c.88,3.7,2.48,5.43,6.23,5.48-1.29-2.89-2.77-4.72-6.23-5.48Z" fill="none" stroke-width="0"/><path d="M282.74,347.7c-9.86,1.09-15.19-6.49-22.14-11.15,6.09,11.4,13.53,15.11,22.14,11.15Z" fill="none" stroke-width="0"/><path d="M260.16,292.09c6.01,2.42,8.63,9.97,15.95,10.32-5.36-3.41-7.77-11.45-15.95-10.32Z" fill="none" stroke-width="0"/><path d="M274.15,375.9c-3.21-3.42-5.87-5.77-10.78-5.56,2.85,3.57,5.8,5.4,10.78,5.56Z" fill="none" stroke-width="0"/><path d="M270.7,360.2c.36,3.23,1.75,4.84,5.33,5.31-.94-3.07-2.24-4.81-5.33-5.31Z" fill="none" stroke-width="0"/><path d="M265.36,304.97c3.97,5.56,7.41,9.87,12.85,12.16-2.93-4.87-6.03-9.61-12.85-12.16Z" fill="none" stroke-width="0"/><path d="M260.7,320.05c3.06,4.48,6.92,7.78,12.57,8.45-3.35-4.09-7.42-7.11-12.57-8.45Z" fill="none" stroke-width="0"/><path d="M313.85,367.49c-5.26,1.49-10.69.15-15.9,2.1,5.98,3.33,12.68,2.46,15.9-2.1Z" fill="none" stroke-width="0"/><path d="M433.58,273.02c.19-.77-.65-1.12-1.22-.91-2.06.78-3.99,1.76-3.58,5.32,2.43-1.03,4.22-2.09,4.8-4.41Z" fill="none" stroke-width="0"/><path d="M443.74,285.69c-3.84.61-5.47,2.59-6.89,6.02,3.97-.62,5.6-2.58,6.89-6.02Z" fill="none" stroke-width="0"/><path d="M420.4,260.87c5.58-3.46,10.73-7.43,15.18-12.27,1.69-1.09,2.75-2.54,3.09-4.78-2.41.27-3.37,1.92-4.62,3.15-3.75,2.48-7.43,5.09-11.28,7.42-9.97,6.05-20.08,11.91-27.6,21.14-.63.77-1.85,1.39-.59,3.21,8.31-6.42,16.91-12.37,25.81-17.88Z" fill="none" stroke-width="0"/><path d="M429.37,296.28c-2.46.72-3.73,2.44-3.9,4.98,0,.11.18.24.42.55,2.65-.43,3.92-2.41,4.72-4.74.25-.71-.65-.98-1.25-.8Z" fill="none" stroke-width="0"/><path d="M432.2,283.79c1.72-.97,3.07-2.41,3.45-4.46.19-1-.68-1.21-1.52-.86-1.8.77-2.99,2.11-3.33,4.04-.15.82.24,1.49,1.4,1.27Z" fill="none" stroke-width="0"/><path d="M400.64,315.22c-.37.93.24,1.62,1.1,1.42,1.46-.33,2.96-.76,3.92-2.06.03-1.02-.68-1.38-1.41-1.49-1.73-.26-2.97.54-3.61,2.13Z" fill="none" stroke-width="0"/><path d="M407.53,305.3c9.19-.86,12.03-3.88,14.54-14.65.16-.27.33-.53.49-.8-.36.04-.71.08-1.07.12-5.35,4.51-5.61,13.42-13.97,15.33Z" fill="none" stroke-width="0"/><path d="M469.85,255.96c2.44-2.74,4.49-4.44,5.43-7.61-4.47.48-5.89,2.73-5.43,7.61Z" fill="none" stroke-width="0"/><path d="M446.34,259.9c-3.05.22-4.85,1.31-5.74,4.78,3.3-.35,5-1.61,5.74-4.78Z" fill="none" stroke-width="0"/><path d="M393.96,343.75c1.87,4.04,3.92,7.75,7.18,12.08-.11-7.22-2.3-10.64-7.18-12.08Z" fill="none" stroke-width="0"/><path d="M464.14,247.59c-4.26,1.34-6.58,3.67-8.02,7.92,4.19-1.47,6.78-3.53,8.02-7.92Z" fill="none" stroke-width="0"/><path d="M476.46,282.82c-5.32-1.58-10.07-.22-15.84,2.88,6.47.52,11.34-.19,15.84-2.88Z" fill="none" stroke-width="0"/><path d="M442.23,279.85c4.26.96,6.99-.44,9.77-4.71-4.09,1.02-7.33,1.45-9.77,4.71Z" fill="none" stroke-width="0"/><path d="M462.57,257.64c.25-.96-.85-1.16-1.6-1.01-1.8.37-3.1,1.42-3.35,3.33-.1.76.59.95,1.44.84,1.54-.49,3.04-1.39,3.51-3.16Z" fill="none" stroke-width="0"/><path d="M442.01,270.99c2.55-.91,4.95-1.28,5.88-4.14-4.3-.29-4.54-.13-5.88,4.14Z" fill="none" stroke-width="0"/><path d="M448.9,319.54c-4.27,2.95-9.08,3.9-14.11,4.4,6.79,3.3,11.31,2.44,14.11-4.4Z" fill="none" stroke-width="0"/><path d="M507.77,253.55c-10.3,7.83-21.48,12.8-33.5,18.11,13.93.62,31.04-8.58,33.5-18.11Z" fill="none" stroke-width="0"/><path d="M397.58,325.67c.61,3.98,1.4,7.04,4.39,10.24.83-4.76-.4-7.68-4.39-10.24Z" fill="none" stroke-width="0"/><path d="M484.02,288.19c-8.31,1.87-17.37.48-24.83,5.79,8.41-1.51,17.48-.13,24.83-5.79Z" fill="none" stroke-width="0"/><path d="M534.1,213.34c.08-.18.15-.37.23-.55-.3.05-.74.02-.23.55Z" fill="none" stroke-width="0"/><path d="M451.13,304.14c.39,2.18,2.01,4.34-.18,5.5-2.56,1.36-5.23.42-7.42-1.27-3.04-2.34-2.63-5.31-.83-8.71-3.3-.95-6.02-.4-8.68.58-2.04.75-3.14,2.13-2.14,4.35,2.13,4.74,5.4,8.54,10.43,10.09,8.06,2.48,25.77-4.57,31.04-12.47-7.47,2.56-14.77,1.61-22.22,1.93Z" fill="none" stroke-width="0"/><path d="M411.25,331.8c.24,4.43,1.71,7.97,4.22,12.21,1.07-5.7-.09-8.86-4.22-12.21Z" fill="none" stroke-width="0"/><path d="M405.81,323.71c-1.05.04-1.2,1.25-.93,2.18.33,1.12.51,2.42,2.17,2.8.73-.59.89-1.45.72-2.37-.22-1.19-.44-2.67-1.96-2.62Z" fill="none" stroke-width="0"/><path d="M434.66,318.72c-3.88-.61-6.53-3.07-9.43-5.81.28,6.45,3.39,8.32,9.43,5.81Z" fill="none" stroke-width="0"/><path d="M409.55,321.61c3.58-.49,6.36-.83,8.95-3.65-3.89-.99-6.56-.34-8.95,3.65Z" fill="none" stroke-width="0"/><path d="M421.24,308.62c.2-1.07-.61-1.32-1.4-1.16-1.49.32-2.44,1.27-2.4,2.86.02.74.68.88,1.36.72,1.28-.33,2.19-1.1,2.44-2.42Z" fill="none" stroke-width="0"/><path d="M418.88,326.21c5.15.31,8.02,6.27,13.89,5.3-5.51-5.97-9.18-7.45-13.89-5.3Z" fill="none" stroke-width="0"/><path d="M331.9,392.6c-1.37.24-2.21,1.12-2.43,2.47-.15.92.32,1.64,1.3,1.29,1.33-.48,2.45-1.33,2.86-2.84-.17-1.06-.98-1.06-1.74-.93Z" fill="none" stroke-width="0"/><path d="M306.09,381.44c.13-1.54-1.46-1.14-2.6-1.43-.96.29-2.71-.11-2.9,1.37-.21,1.61,1.49,1.6,2.63,1.67,1.23.07,2.75-.12,2.87-1.6Z" fill="none" stroke-width="0"/><path d="M279.16,393.16c-4.6.33-9.21.59-13.86,2.65,5.86,2.05,9.34,1.46,13.86-2.65Z" fill="none" stroke-width="0"/><path d="M295.64,383.29c-4.36-3.01-7.89-3.79-12.36-2.72,3.65,2.9,7.18,3.64,12.36,2.72Z" fill="none" stroke-width="0"/><path d="M277.33,369.34c-.81-.15-1.62.18-1.3,1.25.5,1.64,1.77,2.4,3.41,2.65.8-.06,1.7-.23,1.36-1.26-.53-1.58-1.9-2.36-3.47-2.64Z" fill="none" stroke-width="0"/><path d="M293.54,394.91c3.48-.78,5.39-2.06,6.47-5.01-3.48-.05-5.3,1.35-6.47,5.01Z" fill="none" stroke-width="0"/><path d="M292.99,431.9c-2.12-1.26-3.76,1.07-4.88,2.61-3.73,5.09-7.36,10.23-13.02,13.7.63.46,1.06,1,1.35.94,7.23-1.64,11.69-7.01,15.95-12.4.71-.9,2.74-3.58.6-4.85Z" fill="none" stroke-width="0"/><path d="M289.61,404.5c.24-.9-.2-1.43-1.18-1.51-1.24.38-2.17,1.1-2.31,2.49-.08.83.22,1.66,1.18,1.55,1.39-.16,1.97-1.32,2.3-2.53Z" fill="none" stroke-width="0"/><path d="M298.02,352.01c-3.25-.54-6.06-.89-8.82.53-2.67,1.38-5.66,1.14-9.35,1.71,5.65,3.16,11.66,2.35,18.16-2.24Z" fill="none" stroke-width="0"/><path d="M225.94,352.22c-4.57-2.22-8-2.33-11.42-.44,3.66,1.98,7.18,2.75,11.42.44Z" fill="none" stroke-width="0"/><path d="M216.51,359.47c6.34,1.77,11.62,2.12,16.92.08-5.28-1.79-10.57-2.43-16.92-.08Z" fill="none" stroke-width="0"/><path d="M459.24,266.7c.15-.89-.6-1.41-1.51-1.16-1.22.32-2.44.85-2.62,2.29-.12.97.65,1.26,1.59,1.2,1.21-.32,2.32-.97,2.54-2.32Z" fill="none" stroke-width="0"/><path d="M272.53,386.36c-3.96-.89-7.12-1.4-10.74.93,3.89,1.9,7.02,1.89,10.74-.93Z" fill="none" stroke-width="0"/><path d="M260.1,376.75c-4.6,2.99-9.69,4.71-15.1,6.86,7.11,1.87,12.39-.51,15.1-6.86Z" fill="none" stroke-width="0"/><path d="M230.77,370.54c4.91,2.77,9.91,3.16,14.99.8-4.92-1.77-9.95-1.28-14.99-.8Z" fill="none" stroke-width="0"/><path d="M295.47,403.13c-1.85,1.28-3.73,2.65-3.32,5.86,2.63-.85,4-2.49,4.37-4.93.1-.68-.46-1.34-1.05-.93Z" fill="none" stroke-width="0"/><path d="M384.6,345.9c2.37-3.97,1.85-7.1-1.29-11.05-.29,4.33-1.12,7.61,1.29,11.05Z" fill="none" stroke-width="0"/><path d="M305.4,391.33q9.44-1.02,12.15-3.26c-4.36-1.05-8.26-1.01-12.15,3.26Z" fill="none" stroke-width="0"/><path d="M358.3,329.41c-1.51-.02-1.55,1.63-1.55,2.81,0,1.32.03,3.15,1.74,3.06,1.18-.06,1.37-1.78,1.41-3.08-.25-1.08-.12-2.77-1.6-2.78Z" fill="none" stroke-width="0"/><path d="M440.74,295.14c4.44-.39,8.05-2.79,12.9-4.73-6.74-1.37-10.04.02-12.9,4.73Z" fill="none" stroke-width="0"/><path d="M359.8,314.7c-.06-.92-.37-1.63-1.39-1.26-1.35.49-2.44,1.33-2.59,2.92-.07.81.12,1.79,1.08,1.57,1.62-.37,2.46-1.71,2.89-3.22Z" fill="none" stroke-width="0"/><path d="M453.7,245.43c.71,0,1-.47,1.01-1.13.52-.6,1.03-1.2,1.55-1.8,10.18-9.24,21.96-16.81,30.31-28.26-1.95-.99-2.88-.16-3.87.64-5.06,4.11-10.39,7.92-15.14,12.36-4.57,4.28-9.95,7.99-12.23,14.28-.26.06-.47.19-.63.4-1.04.53-1.25,1.59-1.58,2.55-.14.41-.05.95.56.95Z" fill="none" stroke-width="0"/><path d="M458.35,278.07c-4.55.23-6.93,2.73-6.96,7.2,3.18-1.58,5.48-3.88,6.96-7.2Z" fill="none" stroke-width="0"/><path d="M476.97,210.07c3.44-4.95,6.89-9.89,8.82-15.68-5.61,3.73-8.67,8.89-8.82,15.68Z" fill="none" stroke-width="0"/><path d="M313.42,398.33c3.71-.92,6.3-1.74,8.71-4.47-4.16-.82-6.68.17-8.71,4.47Z" fill="none" stroke-width="0"/><path d="M342.83,341.5c3.3,2.54,6.62,3.67,11.26,4.55-3.32-4.34-6.49-5.8-11.26-4.55Z" fill="none" stroke-width="0"/><path d="M324.66,391.83c3.74-2.27,6.08-4.27,7.68-7.65-4.55.26-6.47,2.72-7.68,7.65Z" fill="none" stroke-width="0"/><path d="M317.73,401.34c-1.48.9-2.76,2.02-2.91,3.9-.02.3.49.95.68.92,1.62-.23,2.66-1.42,3.73-2.5.72-.72,1.73-1.37,1.42-2.75-1.09-.76-2.03-.12-2.92.43Z" fill="none" stroke-width="0"/><path d="M209.46,340.94c3.73,3.3,6.95,3.17,11.55-1.1-4.5.81-8.01-.2-11.55,1.1Z" fill="none" stroke-width="0"/><path d="M542.02,211.95c-.04-.63-.07-1.24-.1-1.86-.66-.32-1.3-.64-1.96-.95-.6.34-1.2.67-1.8,1-.66,1.72-1.8,2.72-3.73,2.56-.25-1.28-.36-2.55.74-3.57.86-3.11,1.72-6.22,2.59-9.33-.43-.64-.43-1.27,0-1.91-.77-3.27-2.53-4.36-5.67-2.69-1.35.73-2.77,1.33-4.37,1.22-.25.54-.78.68-1.13.34-.5-.48-.21-.8.44-.81-1.5-2.45,1.39-6.25-2.46-7.98-4.83,1.2-8.6,4.23-12.41,7.18-2.28,1.77-3.59,2.09-4.22-1.51-1.05-6.06-3.12-7.28-8.68-4.73-3.85,1.76-4.36.72-4.28-2.94.1-4.94-2.04-6.28-6.43-3.94-8.99,4.77-16.83,11.21-24.25,18.09-9.84,9.13-18.93,18.96-26.01,30.45-3.93,6.37-10.42,9.71-16.12,13.91-16.33,12.04-31.79,24.82-44.07,41.3-4.31,5.78-10.63,10.31-17.57,13.35-5.85,7.03-13.59,11.7-20.93,16.89.18,1.32-.65,2.02-1.67,2.51-4,1.92-7.3,4.75-10.35,7.86-2.67,2.73-4.61,2.55-7.15-.4-17.49-20.23-30.01-43.2-40.1-67.93-8.97-21.97-22.4-41.26-42.16-55.34-2.77-1.97-5.62-3.9-9.46-2.32-2.59,1.07-3.11-1.67-3.87-3.05-5.9-10.63-12.38-20.87-19.64-30.61-6.78-9.09-13.43-18.35-23.05-24.77-2.62-1.75-5.51-4.84-8.7-3.29-3.65,1.77-1.97,6.07-2.36,9.37-.33,2.77,1.72,5.37.41,8.51-3.94-1.87-6.04-5.83-9.67-7.84-2.53-1.39-4.86-4.24-7.95-2.72-3.18,1.55-2.36,5.09-2.39,7.99-.02,2.92-.17,5.86.96,9.91-6.09-5.08-11.23-9.44-16.46-13.69-2.65-2.15-5.42-4.17-8.23-6.11-1.53-1.07-3.34-2.21-5.16-.87-1.75,1.28-2.2,3.41-1.95,5.48.63,5.07,1.28,10.15,2.2,15.16.37,1.99.57,3.94.51,5.93-4.29-2.41-8.5-4.98-12.9-7.19-2-1-4.39-2.1-6.6-.24-2.31,1.95-1.54,4.46-1.02,6.89,1.47,6.73,4.2,13.01,7.02,19.23.98,2.17,1.22,3.46-1.08,4.9-3.8,2.39-4.02,6.2-2.74,9.95,3.12,9.16,8.7,16.89,15.44,23.61,2.66,2.64,4.28,4.95,5.18,8.7,2.57,10.67,7.86,20.26,13.86,29.41,2.3,3.51,5.1,6.71,6.74,10.61,1.23,2.92,4.2,4.01,6.05,6.24,4.65,1.97,9.3,3.93,13.96,5.9,3.8.67,7.62,1.32,11.41,2.06,1.91.37,2.94,1.47,2.82,3.6-.12,2.01.02,4.03.04,6.06,1.05,5.12,2.89,9.84,6.88,13.45,1.58.29,2.05,1.97,3.31,2.66,2.62.42,2.17,2.42,1.73,3.98-1.22,4.34-.74,8.58.19,12.86,2.4,4.37,5.52,8.11,9.72,10.85,2.27,1.47,3.26,3.55,3.59,6.08,1.98,4.71,4.26,9.25,7.31,13.34.7,1.35,1.54,2.56,2.47,3.68,6.18,7.52,16.49,10.74,22.48,19.04-2.48.75-5.11,1.66-7.8,2.33-4.75,1.19-9.52,2.35-14.29,3.5-9.89,2.4-19.8,4.78-29.6,7.51-9.3,2.58-12.79,11.18-6.67,17.26,6.54,6.51,15.24,10.76,22.65,16.43,5.95,4.54,11.91,10.81,19.8,13.25,4.19,1.54,8.38,3.08,12.57,4.62,8.85-3.32,17.16,1.08,25.82,2.09.36.22.72.39,1.06.35.48-.06.96-.11,1.45-.15h.04c1.27.03,2.56-.03,3.85-.22.2-.03.38-.06.58-.08,6.89-.36,13.8-.73,19.07-6.59,2.83-3.14,5.08-4.92,7.51.3.26.56.74,1.02,1.29,1.45.16.48.32.97.49,1.5,2.91.26,5.4.88,7.45,1.92,4.11,2.26,5.85,5.92,5.97,11.86.12,6.15,3.24,9.96,8.46,10.36,6.54.5,11.31-3.17,12.24-9.49.16-1.07.21-2.19.09-3.27-.51-5.17-.39-9.4,6.35-10.94,4.23-.96,9.57-2.48,14.06-1.24,4.15,1.14,9.04-.34,12.2,4.37,1.52,2.27,3.09,4.1,2.81,7.03-.2,1.98-.28,4.07,1.19,5.79.96,1.13.74,2.28-.15,3.39-2.88,3.52-2.21,7.72-1.86,11.68.4,4.63,4.02,6.43,8.05,7.23,3.59.71,8.89-2.66,10.49-6.46.66-1.57,1.02-3.22,1.06-4.99.1-5.86,3.94-8.47,9.69-6.69.89.27,1.78.55,2.69.76,10.02,2.27,14.56-.8,16.63-11.25-.07-5.07-.22-9.52-5.56-13.01-3.06-2-3.74-7.4-6.99-10.32-4.51-.37-9.09-1-12.23,3.48-.46.65-1.23.93-2.08.7-4.38-1.13-7.97.9-11.1,3.39-3.2,2.55-3.68.37-4.09-1.89-.3-1.66-.11-3.41,0-5.11.36-6.01-.49-11.7-3.55-17.03-2.12-3.71-1.44-7.94-1.01-11.88.1-.9.37-1.36.76-1.57.48.05.95.07,1.46.07.1,0,.36,0,.51,0,.63.17,1.27.36,1.83.3,1.5.51,3.01,1.69,4.61,3.58,1.44,1.71,2.94,3.41,4.38,5.05l.56.64c1.41,1.61,2.89,2.4,4.5,2.4.22,0,.42-.02.63-.05.09.69.37,1.44.9,2.24,2.44,3.62,9.5,5.25,13.73,5.25,1.64,0,3.06-.22,4.22-.63l5.93-2.12-3.74-2.02,1.97-.07-1.01-2.55c1.91,1.68,3.33,3.58,3.69,6.45l.53,4.26,3.69-2.2c7.66-4.55,7.91-14.54,3.74-21.56-1.07-1.8-2.34-3.05-3.78-3.74,1.16-1.39,1.55-3.27,1.24-5.73-.68-5.39-3.78-9.07-6.73-11.95l-.88-.87c-4.41-4.31-8.62-8.44-11.43-13.38v-.06c-.06-.07-.09-.13-.15-.2-.63-1.14-1.19-2.33-1.66-3.58-.03-1.39,1.06-2.6,3.87-3.87,9.96-4.47,18.49-11.15,23.87-21.08.68-1.24,1.25-2.56,3.06-2.21,5.22-4.21,11.85-5.92,17.33-9.69,2.65-1.67,4.8-3.8,6.45-6.5.71-1.16,1.15-2.65,2.57-3.23,1.68-.67,3.42-2.61,5.1-1.52,1.75,1.14,9.69-5.48,13.5-7.27,1.78-.84,2.46-3.23,4.66-3.64,2.19-9.87,4.62-11.09,11.56-12.08,8.27-7.04,14.87-15.73,22.78-23.1,12.64-11.77,23.23-24.81,28.74-41.45-.23-2.49-.82-5,.22-7.46-.1-1.61-.33-3.24.55-4.74-.38-1.89-.44-3.75.4-5.55Z" fill="#060604" stroke-width="0"/><path d="M156.16,217.59s.03,0,.05,0c0-.03.01-.06.02-.09l-.07.08Z" fill="#060604" stroke-width="0"/><path d="M191.38,315.9c2.14,1.32,2.04,2.15,1.82,2.86-3.33,10.57,1.22,18.14,9.37,24.21,2.42,1.8,3.91,3.68,3.85,6.92-.16,9.02-.17,18.06.01,27.08.07,3.51-1.17,4.49-4.61,4.49-62.23-.09-124.46-.09-186.69,0-3.66,0-4.86-1.05-4.84-4.77.14-24.17.16-48.35-.01-72.52-.03-4.28,1.58-5.29,5.51-5.2,9.35.22,18.72-.13,28.07.16,4.26.13,5.54-1.11,5.53-5.47-.17-40.08-.1-80.16-.1-120.24,0-24.95-.09-49.91.09-74.86.03-4.11-1.09-5.4-5.25-5.27-9.82.29-19.65-.01-29.47.15-3.22.05-4.36-.93-4.34-4.24.11-24.64.11-49.28,0-73.92-.01-3.32,1.18-4.27,4.37-4.27,51,.07,102,.07,153,0,2.92,0,4.43,1.3,5.9,3.63,34.12,54.42,69.49,108.04,104.63,161.81.41.63.66,1.43,1.63,1.55,1.36-.82.78-2.21.78-3.34.03-25.42-.05-50.84.09-76.26.02-3.77-.92-5.22-4.94-5.11-9.82.27-19.65-.07-29.47.16-3.57.08-4.46-1.12-4.44-4.54.13-24.17.18-48.35-.03-72.52-.04-4.37,1.28-5.45,5.52-5.44,51,.14,102,.09,153,.09,10.76,0,21.52.09,32.28-.05,3.34-.04,4.64.89,4.62,4.49-.14,24.48-.14,48.97,0,73.46.02,3.45-.92,4.63-4.45,4.55-9.67-.21-19.34.05-29.01-.13-3.66-.07-4.94,1.18-4.9,4.86.14,14.81.06,29.63.06,44.45,0,2.46.45,4.99-2.98,5.9-1.21.32-1.68,1.94-2.25,3.28-2.68,6.36-4.58,13.08-8.61,19.55-1.22-2.35-1.27-4.28-1.27-6.22,0-27.14.04-54.27-.07-81.41-.01-3.58.96-4.97,4.76-4.88,9.98.23,19.96-.02,29.94.13,3.15.05,4.39-.83,4.36-4.21-.16-14.81-.25-29.64.04-44.45.09-4.54-1.86-4.97-5.56-4.96-49.13.09-98.26.06-147.39.06-3.43,0-6.86.08-10.29-.01-2.38-.06-3.35.91-3.34,3.31.05,15.6.07,31.19,0,46.79-.01,3.16,1.79,3.45,4.24,3.44,10.14-.05,20.28.08,30.41-.07,3.06-.04,4.04,1,4.04,4.04-.08,46.94-.06,93.89-.08,140.83,0,.76-.16,1.51-.28,2.58-2.04-.58-2.66-2.28-3.52-3.6-41.67-64.03-84.09-127.56-124.62-192.32-2.21-3.54-4.55-5.11-8.92-5.09-42.11.18-84.22.19-126.33,0-4.86-.02-6.03,1.46-5.93,6.11.29,14.34.21,28.7.04,43.04-.04,3.51,1.11,4.59,4.56,4.53,9.67-.18,19.34.07,29.01-.13,3.56-.07,4.9.81,4.89,4.67-.11,75.33-.11,150.66,0,225.98,0,3.96-1.53,4.67-4.95,4.61-9.67-.16-19.34.08-29.01-.12-3.53-.07-4.53,1.17-4.5,4.6.15,14.66.16,29.32,0,43.98-.04,3.54,1.18,4.5,4.59,4.49,52.25-.09,104.5-.09,156.74.01,3.76,0,4.82-1.23,4.79-4.87-.16-15.19-.07-30.39-.07-46.36Z" fill="#fefefe" stroke-width="0"/><path d="M337.73,316.77c10.29-25.33,20.05-49.5,29.92-73.63,10.9-26.65,21.97-53.24,32.8-79.93,1.38-3.4,3.11-4.63,6.86-4.61,38.52.15,77.05.14,115.57,0,3.71-.01,5.49,1.15,6.9,4.6,31.71,77.45,63.54,154.85,95.34,232.26,6.28,15.28,12.63,30.53,18.78,45.86,1.12,2.78,2.66,3.68,5.58,3.65,11.85-.14,23.71.03,35.56-.11,3.25-.04,4.76.58,4.74,4.32-.14,24.64-.12,49.28-.02,73.92.01,3.28-1.06,4.27-4.31,4.27-62.38-.08-124.77-.08-187.15,0-3.45,0-4.59-.98-4.57-4.5.13-24.48.13-48.97,0-73.46-.02-3.41.88-4.65,4.46-4.58,10.76.21,21.52-.04,32.28.13,3.64.06,4.21-.96,2.98-4.29-4.57-12.39-4.48-12.39-17.64-12.42-30.72-.07-61.44-.1-92.16-.36-3.8-.03-5.81.94-6.33,4.76-.25,1.83-.85,3.63-1.35,5.42q-2.02,7.26,5.68,7.1c3.89-.08,7.79-.09,11.68-.29,2.77-.15,3.88.82,3.87,3.73-.08,24.95-.09,49.91.01,74.86.01,3.24-1.36,3.9-4.21,3.87-10.92-.1-21.83-.04-32.75-.04-50.84,0-101.69-.08-152.53.12-4.86.02-5.97-1.35-5.92-6.01.24-21.36.1-42.73.11-64.1,0-5.16,4.56-8.04,9.48-5.92,1.52.65,2.99,1.23,4.42.23,1.55-1.09,2.72-.78,4.21.16,3.09,1.97,6.42,2.16,9.81.65.7-.31,1.51-.79,2.2-.69,7.73,1.18,13.22-2.67,18.01-7.99,1.4-1.55,2.89-1.81,3.45.16.87,3.06,5.97,3.76,4.03,8.44-2.88,6.96-2.62,7.07-10.34,7.07-8.73,0-17.47.1-26.2-.05-3.25-.05-4.8.72-4.76,4.4.17,14.97.14,29.94.01,44.91-.03,3.32,1.2,4.26,4.39,4.26,52.56-.07,105.12-.08,157.68,0,3.54,0,4.53-1.26,4.5-4.66-.14-14.81-.14-29.63,0-44.45.03-3.09-.76-4.79-4.06-4.59-2.98.17-4.33-.81-4.31-4.19.02-3.51-1.3-6.42-4.81-8.68-3.52-2.27-4.13-7.24-6.92-10.6-1.41-1.69.95-4.93,1.54-7.48.31-1.33.93-2.17,2.4-2.47,2.17-.45,4.14-1.17,2.23-4.03-.48-.72-.16-1.63.61-1.94.91-.37,1.44.46,1.71,1.17.43,1.14.86,2.33,1.01,3.54.52,4.01,1.87,4.75,5.25,2.47,3.53-2.38,5.71-5.8,6.22-10.01.3-2.42,1.34-2.97,3.59-2.97,35.71-.03,71.42-.11,107.13-.26,2.76-.01,4.15.93,5.18,3.51,5.02,12.59,10.15,25.15,15.44,37.63,1.53,3.61.74,4.59-3.09,4.54-12.79-.15-25.58.06-38.36-.12-3.7-.05-4.81,1.12-4.76,4.81.19,14.66.18,29.32,0,43.98-.04,3.68,1.11,4.83,4.8,4.82,52.09-.1,104.18-.1,156.27,0,3.64,0,4.87-1.05,4.82-4.78-.19-14.66-.18-29.32,0-43.98.05-3.64-.97-4.94-4.72-4.85-9.66.22-19.34-.11-29,.16-3.87.11-5.82-1.14-7.31-4.77-22.82-55.83-45.77-111.6-68.69-167.39-7.22-17.59-14.03-35.36-21.81-52.7-3.44-7.67-1.53-14.95-1.31-22.45.04-1.41,1.71-3.21-.31-4.11-1.48-.67-2.29,1.22-3.29,2.1-1.01.88-1.67,2.27-3.38,2.14-.96-1.85.33-3.31.8-4.86.87-2.83,1.95-5.6,1.92-8.63-.04-4.45-1.34-5.4-5.39-3.93-5.03,1.82-3.72,1.22-5.77-3.32-2.65-5.88-5.35-11.9-8.7-17.48-.73-1.22-2.6-.74-3.98-.74-32.28-.01-64.57.03-96.85-.08-3.38-.01-5.04,1.31-6.26,4.28-9.25,22.62-18.56,45.21-27.95,67.78-7.42,17.82-14.97,35.59-22.48,53.37-.36.85-.69,1.88-1.36,2.42-6.46,5.28-12.73,10.84-21.15,15.62Z" fill="#fefefe" stroke-width="0"/><path d="M357.84,398.92c-.57-.24-1.13-.55-1.72-.72-5.66-1.67-10.08-5.01-12.93-10.14-.83-1.5-1.88-2.34-3.22-3.13-.57-.34-1.69-1.29-.81-1.6,3.65-1.29.98-3.28.74-4.94-.59-4.09,1.23-6.79,5.82-8.02-.76-2.24-3.43-1.95-4.54-3.51q3.45-1.42.66-6.05c.67-.06,1.38-.35,1.84-.12,5.89,2.88,7.82-1.52,9.91-5.42,2.2-4.09,8.05-7.46,12.37-6.92.15.02.4-.1.45-.03,5.61,7.02,15.79,3.95,21.98,10.06,2.39,2.36,4.88,3.98,6.18,7.58,2.85,7.92,9.02,13.69,14.93,19.48,2.95,2.89,5.36,6,5.9,10.3.37,2.94-.35,4.28-3.58,5.16-6.12,1.68-10.63.17-14.33-4.8-2.21-2.96-4.95-5.21-8.93-5.19-1.1,0-2.47.09-2.56,1.41-.09,1.2,1.23,1.18,2.13,1.2,3.64.07,5.64,1.72,6.29,5.45.62,3.56,4.13,3.75,7.16,4.86-.98,1.6-2.04,3.11-3.64,3.38-4.02.68-6.75,3.09-9.02,6.13-1.65,2.23-3.16,2.2-4.88.25-1.65-1.87-3.3-3.74-4.9-5.64-2.3-2.73-5.18-4.98-8.7-4.87-3.87.12-6.86-1.61-10.08-3.04-.52-1.1-1.5-1.15-2.53-1.11Z" fill="#fefefe" stroke-width="0"/><path d="M469.32,362.59c-14.19,0-28.37-.13-42.56.08-4.05.06-4.26-1.27-3.26-4.61,1.7-5.65,3.08-11.41,4.41-17.16.61-2.67,1.9-4.28,4.51-5.35,3.59-1.47,6.97-3.46,10.41-5.29.74-.39,1.3-1.77,2.22-.77.49.54.51,1.79.3,2.62-.96,3.93-1.96,7.86-3.18,11.71-1.02,3.24-.74,4.82,3.33,4.77,15.12-.18,30.25-.2,45.37.01,4.3.06,4.19-1.46,2.86-4.62-4.89-11.64-9.49-23.4-14.54-34.96-2.13-4.86.05-8.53,2.68-11.76,3.17-3.88,7.06-3.01,8.86,1.37,7.96,19.3,15.94,38.6,23.85,57.92,2.55,6.23,2.46,6.29-4.11,6.29-13.72.01-27.44,0-41.16,0,0-.09,0-.18,0-.26Z" fill="#fefefe" stroke-width="0"/><path d="M234.44,209.44c6.18,4.81,10.92,9.67,15.16,15,16.04,20.18,27.3,43.06,37.3,66.64,8.75,20.63,21.6,37.72,41.74,48.63,5.59,3.03,9.54,7.69,11.29,14.19-7.19-7.97-17.23-10.67-26.34-15.15-12.44-6.12-20.43-16.52-25.34-29.37-.54-1.41-1.02-2.85-1.73-4.84-1.86,2.65.4,4.94-.74,7.63-4.38-6.75-7.09-13.68-8.61-21.18-3.9-19.21-10.78-37.03-24.69-51.44-2.16-2.24-4.53-4.27-6.81-6.38-8.72-8.06-9.73-10.1-11.23-23.73Z" fill="#b7a97a" stroke-width="0"/><path d="M471.53,208.2c-8.79,11.33-14.7,24.37-21.89,36.65-4.46,7.62-11.05,13.44-17.52,19.3-12.33,11.16-25.26,21.72-35.46,35.04-10.87,14.19-18.27,29.96-21.61,47.55-.48,2.55-1.62,3.03-3.86,2.5-6.2-1.46-7.3-3.26-5.64-9.64,3.1-11.87,10.44-21.39,17.08-31.38,12-18.03,27.88-32.13,44.5-45.59,8.45-6.84,14.99-15.22,20.49-24.61,5.73-9.8,12.4-19.01,20.24-27.29,1.02-1.08,1.85-2.61,3.72-2.49l-.05-.04Z" fill="#b7a97a" stroke-width="0"/><path d="M218.14,229.15c2.18-.49,2.61.96,3.34,1.87,4.67,5.85,9.63,11.38,15.12,16.53,3.55,3.33,6.53,7.64,4.25,13.5-.56,1.44-1.16,4.32,1.18,5.85,5.39,3.51,4.84,8.75,3.53,13.79-.77,2.94-.14,4.66,2.01,6.43,2.2,1.82,3.72,4.22,4.52,6.97,1.11,3.78-.09,5.09-3.93,3.96-7.18-2.1-13.03-6.41-18.94-11.97,3.92-.28,6.63,2.27,9.84,1.91,1.02-.12,2.37.46,2.92-.77.57-1.27-.73-1.92-1.46-2.64-5.42-5.35-10.13-11.27-15.3-18.36,2.82,1.46,4.65,2.4,6.47,3.36.72.38,1.52.74,2.05-.09.52-.8-.05-1.53-.73-1.94-2.7-1.63-4.77-3.94-6.83-6.25.18-.2.32-.5.53-.56,2.31-.67,5.75,1.54,6.8-.9.8-1.85-2.61-3.41-4.06-5.16-4.34-5.27-7.24-11.22-8.95-17.8-.65-2.51-1.51-4.97-2.36-7.72Z" fill="#b7a97a" stroke-width="0"/><path d="M402.88,442.11c-3.06-.29-5.86-2.59-7.9.15-2.13,2.87-2.02,6.55-.05,9.27,2.78,3.84.1,4.75-2.39,6.04-1.29.67-3.8.76-2.97,2.71.87,2.05,2.98.67,4.48.07,3.84-1.55,5.81-4.98,8.15-8.1,2.9-3.87,6.05-4.1,8.41-.9.66.89,1.27,1.9.74,3.01-.52,1.08-1.64.62-2.5.59-4.25-.12-5.54,2.05-4.78,5.96.2,1.06.19,2.17.19,3.26,0,2.25-.96,3.69-3.42,3.21-2.12-.42-3.33-1.53-2.16-3.94.32-.66.38-1.52-.54-2.45-2.39,2.85-5.39,3.34-8.97,2.35-1.55-.43-3.41.27-5.13.45.34,3.12-3.43,5.11-2.29,8.48.66,1.95.76,4,.31,6.01-.34,1.49-.69,3.53-2.44,3.57-1.88.04-2.56-1.88-3.16-3.55-.58-1.61,1.27-4.43-1.33-4.73-2.52-.28-3.82,2.28-4.83,4.46-.33.71-.67,1.4-1.01,2.1-1.46-4.13-1.23-6.87,1.63-10.31,1.71-2.05,2.23-3.55.05-5.48-1.69-1.49-1.53-3.56-1.72-6.08,3.67,1.05,6.35,2.76,8.84,4.86.77.65,1.53,2.06,2.66,1.03,1.24-1.13.18-2.28-.66-3.21-1.8-2.02-4.06-3.47-6.56-4.37-2.77-1-4.98-2.59-6.52-5.02-.81-1.29-3.81-2.46-.83-4.34,1.83-1.16,3.92-3.75,5.88.23,1.17,2.38,2.72,2.53,4.57.16,2.84-3.63,6.48-5.8,11.38-4.38,2.16.63,3.01-1.07,4.2-2.25,3.87-3.84,6.94-3.6,10.69,1.15ZM390.17,451.48c-.52-1.67-.89-3.34-1.55-4.88-.69-1.63-2.16-2.16-3.85-1.81-2.33.48-4.5,1.36-5.54,3.71-.52,1.18.22,2.17,1.21,2.71,2.31,1.26,4.56,2.4,5.74,5.08.66,1.49,1.97.57,2.47-.42.68-1.35,1.02-2.88,1.52-4.39Z" fill="#b7a97a" stroke-width="0"/><path d="M188.07,313.73c-10.96,0-21.23-.02-31.5.02-1.96,0-3.29-.26-3.28-2.72.07-9.47.03-18.95.03-28.82,4.31,1.68,7.94,3.8,12.01,4.85,2.86.73,1.86,3.24,1.89,5.09.12,7.4.07,7.58,7.39,7.34,4.39-.15,7.89-.03,8.4,5.69.27,3.1,3.24,5.17,5.07,8.55Z" fill="#fefefe" stroke-width="0"/><path d="M184.12,179.13c7.14,1.55,10.93,6.54,16.44,10.85-1.49-7.31-5.96-12.06-7.59-18.37,3.37,4,6.96,7.84,10.06,12.04,6.42,8.67,11.26,18.31,16.08,27.91,5.74,11.44,12.58,21.86,23.74,28.81,1.1.68,2.57,1.29,2.64,2.47-8.69,2.93-11.77-3.99-15.81-9.13-12.79-16.29-24.79-33.21-38.86-48.47-1.82-1.98-3.98-3.65-6.69-6.1Z" fill="#b7a97a" stroke-width="0"/><path d="M159.44,242.28c-.1,1.79-1.14,1.02-1.85.58-2.65-1.63-5.11-3.61-7.89-4.95-7.46-3.59-13.51-8.62-17.83-16.41,3.01.87,5.12,2.5,7.29,4.01,5.12,3.57,10.48,6.73,16.25,9.16,1.12.47,2.36,1.41,3.49.56,1.33-1-1.1-2-.39-3.32,13.6,5.97,27.18,11.73,40.54,17.94,3.53,1.64,3.96,6.12,5.4,9.47.5,1.17-1.11,1.16-1.97,1-2.21-.4-3.94-1.79-5.74-3.01-11.18-7.59-23.43-12.73-36.52-15.96-.35-.05-.7-.11-1.05-.16.09.36.18.72.27,1.08Z" fill="#b7a97a" stroke-width="0"/><path d="M155.71,217.93c.19,3.65-.92,4.97-4.59,2.96-5.49-3.01-10.27-9.31-11.52-16.06,3.92,1.09,7.19,3.1,10.52,4.91,16.46,8.93,32.13,19.13,47.43,29.91.89.63,1.72,1.34,2.56,2.04,1.12.94,1.33,2.12.54,3.33-.93,1.41-2.26,1.61-3.65.7-1.82-1.19-3.58-2.48-5.36-3.74-11.68-8.29-22.83-17.34-35.11-24.79-.34-.08-.67-.17-1.01-.25.06.33.12.66.19,1Z" fill="#b7a97a" stroke-width="0"/><path d="M327.08,465.99c-1.56-2.91-2.11-5.8-3.61-8.34-1.12-1.89-2.31-2.04-3.28.11-.83,1.84-1.54,3.74-2.28,5.63-.41,1.07-.87,2.16-2.28,1.71-1.17-.38-2.21-.89-2.32-2.51-.23-3.65,0-7.11,3.29-9.71-2.19-1.08-4.07.23-5.52-1.15-.32-1.96,2.24-2.52,2.17-4.35-1.96-1.42-3.64,2.85-5.2.5-1.11-1.67,1.08-3.36,1.46-5.17,1.54-7.19-2.38-11.18-11.18-11.2-.72-1.18.23-2.06.7-2.89,1.12-1.99,1.62-5.54,3.75-5.47,2.63.09,1.51,3.49,1.96,5.47.23.99.86,1.92,1.85,1.81,4.24-.51,4.47,2.27,5.07,5.36,1.01,5.17,3.97,6.96,9.53,6.35.72-.08,1.75-.81,2,.18,1.68,6.76,7.32,12.54,5.11,20.26-.33,1.16-.82,2.28-1.23,3.42Z" fill="#b7a97a" stroke-width="0"/><path d="M442.17,299.8c-1.28,3.21-1.92,6.42,1.32,8.81,2.22,1.63,4.86,2.57,7.46,1.27,2.47-1.23.44-3.63.8-5.62,6.97-.19,13.96.57,20.88-1.07-8.34,7.22-17.44,12.43-28.91,11.52-4.46-.35-10.59-6.09-11.76-10.39-.53-1.93.22-3.09,1.82-3.73,2.61-1.04,5.31-1.77,8.39-.79Z" fill="#b7a97a" stroke-width="0"/><path d="M164.86,196.03c5.51,2.44,9.27,6.75,13.35,10.7,6.47,6.27,13.21,12.28,19.14,19.1.31.35.66.67.95,1.03,1.82,2.31,4.81,5.43,2.4,7.62-2.45,2.23-4.2-2-5.86-3.63-9.41-9.3-17.8-19.51-25.96-29.91-1.31-1.66-2.68-3.28-4.02-4.91Z" fill="#b7a97a" stroke-width="0"/><path d="M437.89,244.79c-11.25,15.3-29.55,21.35-43.42,33.25,10.55-16.16,29.26-21.74,43.42-33.25Z" fill="#b7a97a" stroke-width="0"/><path d="M415.55,423.99c-.88-7.01-6.6-9.49-11-12.96-3.17-2.5-2.39-3.73.72-4.97.43-.17.86-.44,1.31-.48,3.94-.37,8.09-5.44,11.74.71,3.51,5.9,3.41,14.04-2.76,17.71Z" fill="#b7a97a" stroke-width="0"/><path d="M208.41,218.66c-7.98-2.4-14.49-6.29-17.12-14.81-2.24-7.27-8.52-7.79-16.01-8.04,6.27-2.7,10.82-1.2,15.05,1.74,7.82,5.44,12.99,13.22,18.08,21.11Z" fill="#b7a97a" stroke-width="0"/><path d="M186.13,263.41c-5.6-2.26-11.13-4.7-16.82-6.71-3.44-1.21-7.16-2.32-10.65.08-.88.61-1.4.15-2.06-.22-2.86-1.58-5.66-3.28-8.61-4.68-1.8-.85-1.47-1.88-1.12-3.37.39-1.67,1.31-2.05,2.69-1.63,12.92,3.87,25.72,8.04,36.55,16.54l.02-.02Z" fill="#b7a97a" stroke-width="0"/><path d="M214.06,252.22c-6.54-4.36-10.23-8.86-8.81-16.32.75-3.95-.74-7.92-1.97-11.86,5.1,1.1,7.61,4.67,9.38,11.85,1.28,5.17-1.95,10.47,1.4,16.33Z" fill="#b7a97a" stroke-width="0"/><path d="M485.62,213.98c-8.23,12.63-21.5,19.96-31.68,30.55,6.89-13.98,19.65-21.88,31.68-30.55Z" fill="#b7a97a" stroke-width="0"/><path d="M333.9,431.86c2.88-.12,5.13.45,6.56,2.56,1.02,1.5,1.7,3.31-1.08,3.76-3.07.49-3.15,2.58-2.72,4.86.45,2.38-.22,4.06-2.65,4.55-2.11.43-4.42,2.13-6.33-.55-1.53-2.14-1.59-4.08-.12-6.41.82-1.29,5.52-2.94.29-4.77.23-.55.35-1.19.72-1.62,1.5-1.76,3.38-2.69,5.33-2.38Z" fill="#b7a97a" stroke-width="0"/><path d="M475.3,262.48c2.74-5.17,7.82-7.35,12.66-9.8,7.75-3.91,16.43-5.64,24.04-10.11-2.3,3.9-5.79,6.52-9.77,8.31-8.92,4.01-17.96,7.74-26.95,11.59v.02Z" fill="#b7a97a" stroke-width="0"/><path d="M473.78,241.41c9.68-9.86,22.31-15.39,30.15-27.19-2.13,10.79-19.39,26.42-30.15,27.19Z" fill="#b7a97a" stroke-width="0"/><path d="M507.44,254.73c-7.24,11.86-18.97,15.36-31.77,16.86,10.84-5.12,21.83-9.97,31.77-16.86Z" fill="#b7a97a" stroke-width="0"/><path d="M486.53,241.9c5.63-4.45,12.77-6.12,18.63-10.27-3.43,6.62-8.94,11-14.89,14.93l.04.04q1.27-5.45-3.79-4.71h0Z" fill="#b7a97a" stroke-width="0"/><path d="M282.43,348.07c-11.01,3.61-16.73-3.11-21.73-11.25,6.74,4.74,12.28,11.8,21.73,11.25Z" fill="#b7a97a" stroke-width="0"/><path d="M285.97,340.62c-10.67.38-17.42-5.27-24.86-9.25,8.73.89,15.56,6.48,24.86,9.25Z" fill="#b7a97a" stroke-width="0"/><path d="M208.51,286.32c-7.13-1.63-13.75-4.41-19.67-8.76,7.29,1.27,14.01,3.83,19.67,8.76Z" fill="#b7a97a" stroke-width="0"/><path d="M297.48,441.24c-1.25-.65-2.53-.96-2.55-3.02-.01-1.85.9-2.54,2.13-3.1,2.95-1.35,5.96-2.07,8.53.78,2.1,2.33,1.78,5.64-.83,9.25-1.03-.45-.28-1.28-.4-1.9-.41-2.19,1.26-5.7-.81-6.27-1.69-.47-4.25,2.18-6.41,3.48-.02,0,.25.49.38.74l-.04.05Z" fill="#b7a97a" stroke-width="0"/><path d="M459.5,293.87c7.33-4.91,16.09-3.63,24.12-5.51-7.26,5.25-16.03,3.89-24.12,5.51Z" fill="#b7a97a" stroke-width="0"/><path d="M392.76,412.7c2.75,5.71,7.8,6.91,12.22,9.3-3.94,1.41-12.67-.57-14.68-3.55-1.59-2.37,1.45-3.17,2.46-5.75Z" fill="#b7a97a" stroke-width="0"/><path d="M190.44,297.63c6.25,1.63,12.5,3.25,20.04,5.22-8.3,1.03-14.83.51-20.04-5.22Z" fill="#b7a97a" stroke-width="0"/><path d="M421.93,290.54c-2.09,7.29-4.06,14.69-14.6,14.91,5.84-2.46,9.1-6.49,11.16-11.68.57-1.45,1.31-3.26,3.5-3.18l-.07-.05Z" fill="#b7a97a" stroke-width="0"/><path d="M297.38,352.53c-5.47,1.11-10.52,6.41-17.4,1.65,3.65-.27,6.63-.11,9.29-1.48,2.63-1.34,5.33-.96,8.11-.17Z" fill="#b7a97a" stroke-width="0"/><path d="M477.07,209.74c.53-6.39,3.09-11.57,9.35-16.14-2.71,6.65-6.3,11.25-9.35,16.14Z" fill="#b7a97a" stroke-width="0"/><path d="M193.72,272.61c7.06.73,12.5,3.11,17.83,6.78-5.03.17-11.68-2.32-17.83-6.78Z" fill="#b7a97a" stroke-width="0"/><path d="M185.18,285.56c-7.11-2.56-12.01-5.88-16.97-11.51,7.04,2.51,11.65,6.31,16.97,11.51Z" fill="#b7a97a" stroke-width="0"/><path d="M277.06,302.87c-8.21-1.12-10.89-8.4-16.85-10.87,8.03-.57,10.51,6.99,16.85,10.87Z" fill="#b7a97a" stroke-width="0"/><path d="M269.14,278.54c-5.89-4.66-7.07-10.99-11.05-15.37,6.54,2.48,8.19,8.53,11.05,15.37Z" fill="#b7a97a" stroke-width="0"/><path d="M215.17,333.14c-6.72,1.57-11.86.05-17.93-3.54,6.75.1,11.93,1.37,17.93,3.54Z" fill="#b7a97a" stroke-width="0"/><path d="M120.63,189.49c-5.31-4.01-8.1-9.5-9.09-16.03,3.88,4.85,7.17,10.04,9.08,16.04h.01Z" fill="#b7a97a" stroke-width="0"/><path d="M245.46,383.53c5.25-1.78,9.99-3.82,14.95-7.19-3.15,6.56-8.33,8.93-14.95,7.19Z" fill="#b7a97a" stroke-width="0"/><path d="M320.68,439.2c-1.13-3.64,5.63-6.94.18-10.27-2.59-1.59-4.48.15-6.53,2.73.47-3.92,2.27-5.1,5.13-4.97,3.36.16,5.15,2.53,5.62,5.29.54,3.19-1,5.84-4.4,7.22Z" fill="#b7a97a" stroke-width="0"/><path d="M214.13,323.43c-5.52,2.06-10.31.28-14.79-3.03,5.06.21,9.98,1.17,14.79,3.03Z" fill="#b7a97a" stroke-width="0"/><path d="M418.34,326.06c5.54-1.66,10.82.78,14.48,6.24-5.45-.75-8.76-5.27-14.48-6.24Z" fill="#b7a97a" stroke-width="0"/><path d="M250.72,305.79c5.99.94,9.95,4.1,15.3,7.32-6.8-.32-11.05-2.9-15.3-7.32Z" fill="#b7a97a" stroke-width="0"/><path d="M165.08,259.95c3.74.42,6.67,1.34,9.41,2.79,1.24.66,2.54,1.59,1.57,3.28-.9,1.56-2.41,1.24-3.67.56-2.73-1.49-4.98-3.58-7.31-6.62Z" fill="#b7a97a" stroke-width="0"/><path d="M261.01,320.35c4.9,1.33,8.8,4.16,12.81,8.36-6.14-.92-9.64-4.38-12.81-8.36Z" fill="#b7a97a" stroke-width="0"/><path d="M265.85,305.32c6.24,2.57,9.22,7.01,13.26,12.36-6.3-2.94-9.49-7.15-13.26-12.36Z" fill="#b7a97a" stroke-width="0"/><path d="M326.39,383.06q-2.22-3.21-10.17-3.26c1.88-2.61,5.96-3.82,8.59-2.4,2.32,1.25,2.5,3.21,1.58,5.66Z" fill="#b7a97a" stroke-width="0"/><path d="M434.45,323.98c5.37-.61,10.18-1.11,14.68-4.94-3.3,6.93-6.77,8.03-14.68,4.94Z" fill="#b7a97a" stroke-width="0"/><path d="M189.71,305.77c4.84.63,9.1,2.69,13.21,5.13-5.32.81-9.54-1.45-13.21-5.13Z" fill="#b7a97a" stroke-width="0"/><path d="M313.86,367.57c-4.07,4.32-9.17,4.93-15.41,2.23,4.81-2.06,10-.57,15.41-2.23Z" fill="#b7a97a" stroke-width="0"/><path d="M154.79,273.87c4.65,1.7,8.76,3.21,11.76,6.84-5.3-.14-8.45-1.89-11.76-6.84Z" fill="#b7a97a" stroke-width="0"/><path d="M228.8,295.54c5.26,1.43,9.28,3.57,12.86,6.77-4.83.3-8.15-1.38-12.86-6.77Z" fill="#b7a97a" stroke-width="0"/><path d="M280.14,392.91c-5.11,4.21-9.52,4.45-14.99,3.09,4.88-1.88,9.23-2.52,14.99-3.09Z" fill="#b7a97a" stroke-width="0"/><path d="M232.99,359.72c-5.08,1.35-10.07,1.59-15.61-.33,5.66-1.94,10.67-1.49,15.61.33Z" fill="#b7a97a" stroke-width="0"/><path d="M222.63,270.89c-5.01-2.4-7.23-7.44-10.55-11.44,5.04,2.38,9.05,5.74,10.51,11.48l.04-.05Z" fill="#b7a97a" stroke-width="0"/><path d="M462.21,285.6c3.86-2.9,7.75-3.76,13.85-3.05-3.08,2.56-5.74,3.14-13.85,3.05Z" fill="#b7a97a" stroke-width="0"/><path d="M406,417.77c-4.69.16-7.29-3.02-10.5-4.86-.64-.37-.77-.9-.21-1.46.68-.68,1.61-1.28,2.47-.86,3.21,1.59,6.59,3.06,8.23,7.18Z" fill="#b7a97a" stroke-width="0"/><path d="M245.55,371.28c-4.88,2.1-9.67,1.75-14.39-.5,4.83-.67,9.63-.75,14.39.5Z" fill="#b7a97a" stroke-width="0"/><path d="M410.56,289.21c-1.74,3.88-3.9,7.28-8.42,8.14,2.34-3.21,4.26-6.84,8.42-8.14Z" fill="#b7a97a" stroke-width="0"/><path d="M357.84,398.92c1.02-.04,2.01,0,2.53,1.11.31,1.3.63,2.59,1.06,4.36-3.1-1.21-5.92-1.15-8.94-.54.29-3.56,4.6-2.3,5.35-4.94Z" fill="#b7a97a" stroke-width="0"/><path d="M157.46,198.7c4.52,2.39,6.37,5.62,8.08,10.19-4.43-2.48-6.49-5.54-8.08-10.19Z" fill="#b7a97a" stroke-width="0"/><path d="M400.71,355.45c-2.49-4.24-4.53-7.73-6.81-11.62,5.09,2,7.06,5.23,6.81,11.62Z" fill="#b7a97a" stroke-width="0"/><path d="M303.18,362.14c-4.19,3.05-8.52,2.62-12.88,0h12.88Z" fill="#b7a97a" stroke-width="0"/><path d="M415.34,343.34c-2.29-3.56-3.54-7-3.93-11.03,3.75,2.95,4.87,5.99,3.93,11.03Z" fill="#b7a97a" stroke-width="0"/><path d="M434.3,318.96c-6.14,1.57-8.13.3-9.1-5.69,3,2.61,5.62,4.96,9.1,5.69Z" fill="#b7a97a" stroke-width="0"/><path d="M440.67,295.23c2.58-4.51,6.56-5.79,11.48-4.9-3.61,2.15-7.33,4.03-11.49,4.87v.02Z" fill="#b7a97a" stroke-width="0"/><path d="M329.48,364.67c-2.55,5.34-6.61,5.45-11.44,6.15,3.2-3.91,7.35-3.84,11.44-6.15Z" fill="#b7a97a" stroke-width="0"/><path d="M226.08,352.04c-4.47,2.2-7.84,1.67-12.28-1.1,4.72-.29,8.14-.59,12.28,1.1Z" fill="#b7a97a" stroke-width="0"/><path d="M458.73,277.68c-2.38,3.67-4.35,6.11-8.24,7.75,1.62-3.86,2.97-6.89,8.24-7.75Z" fill="#b7a97a" stroke-width="0"/><path d="M295.33,383.17c-4.96.94-8.22-.09-12.08-2.63,4.64-.79,7.97.06,12.08,2.63Z" fill="#b7a97a" stroke-width="0"/><path d="M407.38,465.27c.02-2.72-3.38-5.55-.01-7.96.95-.68,3.22-.72,3.61.9.74,2.99-1.16,5.16-3.6,7.06Z" fill="#b7a97a" stroke-width="0"/><path d="M343.66,428.53c3.59-3.96,6.75-2.9,10.59-1.86-3.23,2.51-6.37,1.8-10.59,1.86Z" fill="#b7a97a" stroke-width="0"/><path d="M273.28,375.88c-3.87-.46-6.8-1.93-9.28-4.94,4.29-.22,6.17.79,9.28,4.94Z" fill="#b7a97a" stroke-width="0"/><path d="M267.52,287.79c-4.88-2.27-5.15-6.48-7.12-11.17,4.6,3.04,5.51,6.85,7.12,11.17Z" fill="#b7a97a" stroke-width="0"/><path d="M464.22,247.52c-1.77,4.31-3.96,6.56-7.93,7.59,1.47-3.64,3.71-5.82,7.93-7.59Z" fill="#b7a97a" stroke-width="0"/><path d="M306.73,390.78c2.84-3.39,6.45-3.6,10.85-2.47-3.51,2.47-7.27,2.06-10.85,2.47Z" fill="#b7a97a" stroke-width="0"/><path d="M383.49,335.3c2.72,3.66,3.22,6.61.95,10.5-1.79-3.57-1.35-6.6-.95-10.5Z" fill="#b7a97a" stroke-width="0"/><path d="M310.31,423.65c-.17-4.63,1.42-7.03,5.31-9.17-.83,3.78-2.48,6.16-5.31,9.17Z" fill="#b7a97a" stroke-width="0"/><path d="M219.66,340.72c-2.98,2.99-6.21,3.09-10.26.66,3.7-1.52,7.01-.63,10.26-.66Z" fill="#b7a97a" stroke-width="0"/><path d="M297.73,376.6c-4.34,1.07-6.99.47-9.13-3,3.37-.2,5.81.99,9.13,3Z" fill="#b7a97a" stroke-width="0"/><path d="M451.48,275.43c-2.23,3.66-4.79,5.03-8.49,4.39,2.2-2.7,2.41-2.81,8.49-4.39Z" fill="#b7a97a" stroke-width="0"/><path d="M317.53,440.14c-1.41-2.35-1.81-4.9-.95-7.51.49-1.5,1.79-2.3,3.33-1.6,1.44.65.61,1.76.19,2.75-.85,1.98-1.62,4-2.57,6.36Z" fill="#b7a97a" stroke-width="0"/><path d="M288.17,333.95c-.85-4.75.57-6.49,5.1-6.2-1.72,2.09-3.11,3.78-5.1,6.2Z" fill="#b7a97a" stroke-width="0"/><path d="M354.38,418.29c2.38-4.53,5.15-4.85,9.27-2.45-3.26.86-5.92,1.56-9.27,2.45Z" fill="#b7a97a" stroke-width="0"/><path d="M373.85,477.06c.58,1.78,1.07,3.23,1.52,4.7.24.81,1.68,1.25.9,2.31-.61.82-1.65.79-2.57.47-1.16-.41-2.44-.77-2.35-2.42.11-1.9.4-3.71,2.51-5.05Z" fill="#b7a97a" stroke-width="0"/><path d="M272.35,386.5c-3.72,2.27-6.55,2.59-10.05.73,3.19-2,6.13-1.59,10.05-.73Z" fill="#b7a97a" stroke-width="0"/><path d="M331.93,384.24c-1.38,3.3-3.66,5.01-7.07,7.35,1.1-4.5,3-6.56,7.07-7.35Z" fill="#b7a97a" stroke-width="0"/><path d="M353.63,345.96c-4.26-1.12-7.32-2.22-10.61-4.31,4.58-1.09,7.61.21,10.61,4.31Z" fill="#b7a97a" stroke-width="0"/><path d="M401.93,335.69c-2.67-3.13-3.5-5.92-4.23-9.61,3.8,2.39,4.65,5.17,4.23,9.61Z" fill="#b7a97a" stroke-width="0"/><path d="M239.09,350.89c-3.6-1.27-4.91-3.41-5.31-7.12,3.09,1.71,4.55,3.74,5.31,7.12Z" fill="#b7a97a" stroke-width="0"/><path d="M264.02,362.42c-3.28-.61-5.18-2.58-6.86-5.12,3.94.13,4.97.89,6.86,5.12Z" fill="#b7a97a" stroke-width="0"/><path d="M313.4,398.24c2.31-3.86,4.52-5.05,8.02-4.25-1.78,2.62-4.36,3.15-8.02,4.25Z" fill="#b7a97a" stroke-width="0"/><path d="M318.39,354.92c3.11-.27,5.36-.22,7.93,1.73-3.27,1.41-5.55,1.47-7.93-1.73Z" fill="#b7a97a" stroke-width="0"/><path d="M321.83,459.58c1.67,2.77,2.7,5.03,1.3,7.34-.59.97-2.75.77-3.25-.27-1.22-2.53.94-4.32,1.95-7.07Z" fill="#b7a97a" stroke-width="0"/><path d="M314.76,406.67c.71-4.06,2.6-5.47,6.15-6.01-1.24,2.92-3.12,4.3-6.15,6.01Z" fill="#b7a97a" stroke-width="0"/><path d="M418.12,318.03c-2.39,2.49-4.9,3.02-8.12,3.16,2.03-3.19,4.46-3.92,8.12-3.16Z" fill="#b7a97a" stroke-width="0"/><path d="M485.91,283.38c.88-3.33,2.76-4.62,6.25-5.12-1.67,2.79-3.02,4.75-6.25,5.12Z" fill="#b7a97a" stroke-width="0"/><path d="M431.11,283.96c-.19-3.36,1.42-4.76,4.39-5.82-.17,3.12-1.66,4.6-4.39,5.82Z" fill="#b7a97a" stroke-width="0"/><path d="M246.51,347.81c3.22,1.13,4.9,2.7,6.22,5.64-3.53-.41-5.15-2.04-6.22-5.64Z" fill="#b7a97a" stroke-width="0"/><path d="M234.24,317.83c3.05,1.46,4.82,2.96,5.03,6.3-3.21-1.01-4.5-2.87-5.03-6.3Z" fill="#b7a97a" stroke-width="0"/><path d="M253.75,283.96c-1.09-2.07-2.54-4.13-.55-6.55,2.37,2.26,2.15,4.38.55,6.55Z" fill="#b7a97a" stroke-width="0"/><path d="M475.26,248.59c-1.7,2.82-2.88,4.98-5.32,6.41-.23-3.58.78-5.88,5.32-6.41Z" fill="#b7a97a" stroke-width="0"/><path d="M205.48,296.5c2.41-1.81,4.58-.67,6.87.36-3.31,2.1-3.8,2.07-6.87-.36Z" fill="#b7a97a" stroke-width="0"/><path d="M425.37,301.77c.78-3.22,1.88-5.11,5.35-5.36-1.03,2.65-2.06,4.59-5.35,5.36Z" fill="#b7a97a" stroke-width="0"/><path d="M395.81,449.77c.11-2.37.04-3.78.28-5.13.23-1.31,1.35-1.68,2.52-1.37.86.23,1.94.56,2.37,1.21.74,1.12-.62,1.46-1.26,2.01-1.04.88-2.08,1.75-3.91,3.28Z" fill="#b7a97a" stroke-width="0"/><path d="M358.13,335.6c-1.38-2.2-1.84-4.02-.29-5.82.14-.16.99-.04,1.12.18,1.11,1.88,1.14,3.69-.83,5.63Z" fill="#b7a97a" stroke-width="0"/><path d="M146.5,192.09c-3.23-1.82-5.25-3.53-6.2-6.52,4.09,1.21,4.16,1.28,6.2,6.52Z" fill="#b7a97a" stroke-width="0"/><path d="M331.54,421.15c1.65,3.01.45,4.39-2.24,5.69-.37-2.55.57-4.04,2.24-5.69Z" fill="#b7a97a" stroke-width="0"/><path d="M300.08,390.16c-1.76,2.56-3.22,4.04-6.43,4.38,1.38-2.96,2.86-4.54,6.43-4.38Z" fill="#b7a97a" stroke-width="0"/><path d="M307.14,343.73c2.97-.59,4.84.13,7.15,2.12-3.13,1.21-5.08.69-7.15-2.12Z" fill="#b7a97a" stroke-width="0"/><path d="M457.37,260.68c1.2-2.95,2.44-4.23,5.29-3.67-.96,2.41-2.35,3.55-5.29,3.67Z" fill="#b7a97a" stroke-width="0"/><path d="M440.99,264.49c.48-2.91,2.05-3.92,5.34-4.58-1.07,2.88-2.39,4.19-5.34,4.58Z" fill="#b7a97a" stroke-width="0"/><path d="M437.35,291.15c1.05-2.74,2.6-4.43,5.42-5.14q-1.12,4.02-5.42,5.14Z" fill="#b7a97a" stroke-width="0"/><path d="M428.85,276.94c-.04-3.3,1.9-4.09,4.66-4.92-.52,2.98-2.06,4.16-4.66,4.92Z" fill="#b7a97a" stroke-width="0"/><path d="M230.69,327.81c-2.67-1.79-4.35-2.94-3.93-6.04,2.67.89,3.47,2.66,3.93,6.04Z" fill="#b7a97a" stroke-width="0"/><path d="M230.11,337.22c-3.2-1.15-4.4-2.66-4.27-5.74,2.72.9,3.45,2.78,4.27,5.74Z" fill="#b7a97a" stroke-width="0"/><path d="M447.72,266.76c-1.19,2.68-3.08,3.36-5.3,3.67q1.1-3.23,5.3-3.67Z" fill="#b7a97a" stroke-width="0"/><path d="M335.84,405.82c-.96-.37-1.19-1.13-.96-1.9.36-1.21.97-2.4,2.5-2.25.72.07.84.87.65,1.49-.36,1.18-.77,2.38-2.18,2.66Z" fill="#b7a97a" stroke-width="0"/><path d="M119.4,205.09c-2.81-.95-3.74-2.65-3.74-5.07q2.98,1.17,3.74,5.07Z" fill="#b7a97a" stroke-width="0"/><path d="M300.55,381.48c1.57-1.54,3.27-1.58,5.01-.77.66.31.55,1.09-.04,1.46-1.7,1.06-3.35,1.15-4.97-.69Z" fill="#b7a97a" stroke-width="0"/><path d="M244.13,316.17c3.2-.05,4.89,1.44,6.5,3.92-3.46.57-5.03-1.11-6.5-3.92Z" fill="#b7a97a" stroke-width="0"/><path d="M238.37,338.84c-2.83-.89-4.02-2.1-3.89-4.77,2.59.49,3.55,1.87,3.89,4.77Z" fill="#b7a97a" stroke-width="0"/><path d="M270.73,360.41c2.95.57,4.21,2.07,4.86,4.74-2.92-.19-4.14-1.75-4.86-4.74Z" fill="#b7a97a" stroke-width="0"/><path d="M296.45,402.51c-.31,3.6-1.56,5.23-4.33,6.36.05-3,1.75-4.37,4.33-6.36Z" fill="#b7a97a" stroke-width="0"/><path d="M297.52,441.19c.62.01,1.23.02,1.85.04,1.11.03,2.39-1.79,3.22-.09.51,1.03.08,2.67-1.03,3.35-1.61.99-2.55-.37-3.34-1.55-.34-.51-.5-1.13-.75-1.7,0,0,.04-.05.04-.05Z" fill="#b7a97a" stroke-width="0"/><path d="M252.75,364.44c-3.58-.52-4.81-2.24-6.2-5.12,3.47.45,4.74,2.23,6.2,5.12Z" fill="#b7a97a" stroke-width="0"/><path d="M356.27,318.04c-.7-2.85.7-3.88,3.08-4.77.44,2.77-.85,3.87-3.08,4.77Z" fill="#b7a97a" stroke-width="0"/><path d="M283.44,322.99c1.87-.88,3.63-.27,5.54-.24-1.82,2.98-2.23,2.99-5.54.24Z" fill="#b7a97a" stroke-width="0"/><path d="M326.33,415.46q1.11-2.74,4.17-3.37-1.15,2.65-4.17,3.37Z" fill="#b7a97a" stroke-width="0"/><path d="M127.29,151.21c3.06,1.52,3.76,3.29,3.33,5.99-2.56-1.12-3.18-2.97-3.33-5.99Z" fill="#b7a97a" stroke-width="0"/><path d="M340.22,393.88c.71,0,1.54.11,1.39.86-.29,1.5-1.57,2.16-2.92,2.52-.61.16-1.39-.13-1.28-.87.24-1.55,1.45-2.21,2.8-2.51Z" fill="#b7a97a" stroke-width="0"/><path d="M266.27,355.34c-2.07-.4-3.26-1.48-3.2-3.71q2.78.73,3.2,3.71Z" fill="#b7a97a" stroke-width="0"/><path d="M360.28,433.95c-1.79,2.14-3.33,1.98-4.89.96-.24-.16-.4-.99-.25-1.12,1.56-1.37,3.09-.64,5.15.16Z" fill="#b7a97a" stroke-width="0"/><path d="M365.98,429.35c-1.46-1.47-2.21-3.01-1.74-4.94.13-.53.76-.45,1.12-.13,1.55,1.39,2.04,2.96.62,5.07Z" fill="#b7a97a" stroke-width="0"/><path d="M170.48,185.36c1.99,2.18,1.84,4.17.46,6.67-1.75-2.29-2.06-4.24-.46-6.67Z" fill="#b7a97a" stroke-width="0"/><path d="M405.52,314.29c-1.13,1.42-2.58,2.28-4.26,1.99-.83-.14-.55-1.29.03-1.84,1.3-1.25,2.69-1.98,4.23-.15Z" fill="#b7a97a" stroke-width="0"/><path d="M276.01,369.4c2.7.33,4.11,1.13,4.83,3.44-2.76.38-4.14-.52-4.83-3.44Z" fill="#b7a97a" stroke-width="0"/><path d="M407.04,328.68c-1.71-1.34-2.54-2.61-1.69-4.4.1-.2.94-.34,1.12-.17,1.22,1.15,1.42,2.55.57,4.57Z" fill="#b7a97a" stroke-width="0"/><path d="M221.11,302.68c2.24-.04,3.45.73,3.99,2.36.08.24-.42.97-.64.97-1.94-.04-3.05-1.06-3.35-3.33Z" fill="#b7a97a" stroke-width="0"/><path d="M333.33,393.18c-.14,1.86-1.5,2.53-2.94,3.18q-.31-2.91,2.94-3.18Z" fill="#b7a97a" stroke-width="0"/><path d="M233.12,313.37c-2.09-.99-3.03-2.15-2.29-4.57,2.13.91,2.97,2.13,2.29,4.57Z" fill="#b7a97a" stroke-width="0"/><path d="M288.41,403.25c.75.03,1.16.47,1.03,1.15-.2,1.11-.82,2.07-1.92,2.39-1.03.3-1.38-.54-1.24-1.38.19-1.15,1-1.85,2.12-2.16Z" fill="#b7a97a" stroke-width="0"/><path d="M457,268.76c-.97.14-1.66,0-1.66-.76,0-1.59,1.34-1.93,2.5-2.26.66-.18,1.27.33,1.14,1.03-.21,1.2-1.23,1.68-1.99,1.99Z" fill="#b7a97a" stroke-width="0"/><path d="M365.11,437.59c1.07.24,1.31.92,1.32,1.74,0,1.19-.49,2.24-1.65,2.46-1.09.22-1.05-.83-1.01-1.57.06-1.1.35-2.11,1.35-2.63Z" fill="#b7a97a" stroke-width="0"/><path d="M421.07,308.66c-.4,1.23-1.23,2.05-2.56,2.17-.82.07-1.03-.59-.83-1.2.34-1.05,1.05-1.85,2.24-1.94.63-.05,1.2.11,1.15.98Z" fill="#b7a97a" stroke-width="0"/><path d="M186.11,263.43c.16.08.32.17.48.25-.03-.07-.05-.17-.1-.19-.11-.05-.24-.06-.36-.08,0,0-.02.02-.02.02Z" fill="#b7a97a" stroke-width="0"/><polygon points="490.27 246.56 490.03 246.75 490.31 246.6 490.27 246.56" fill="#b7a97a" stroke-width="0"/><polygon points="486.52 241.89 486.41 242 486.53 241.9 486.52 241.89" fill="#b7a97a" stroke-width="0"/><polygon points="475.29 262.47 475.19 262.58 475.3 262.48 475.29 262.47" fill="#b7a97a" stroke-width="0"/><path d="M471.57,208.24c.31-.31.62-.62.93-.93,0,0-.03-.03-.03-.03-.32.31-.63.62-.95.92,0,0,.05.04.05.04Z" fill="#b7a97a" stroke-width="0"/><polygon points="472.51 207.31 472.61 207.11 472.47 207.27 472.51 207.31" fill="#b7a97a" stroke-width="0"/><path d="M422,290.59l.31-.54c0,.09.04.22,0,.26-.1.1-.24.15-.37.22,0,0,.07.05.07.05Z" fill="#b7a97a" stroke-width="0"/><path d="M222.59,270.93c.12.03.25.06.37.1-.11-.05-.22-.09-.33-.14,0,0-.04.05-.04.05Z" fill="#b7a97a" stroke-width="0"/><polygon points="440.66 295.21 440.55 295.33 440.67 295.23 440.66 295.21" fill="#b7a97a" stroke-width="0"/><polygon points="120.61 189.5 120.73 189.61 120.63 189.49 120.61 189.5" fill="#b7a97a" stroke-width="0"/><path d="M390.17,451.48c-.5,1.51-.84,3.04-1.52,4.39-.5.98-1.81,1.9-2.47.42-1.18-2.67-3.43-3.82-5.74-5.08-.99-.54-1.73-1.53-1.21-2.71,1.04-2.35,3.21-3.23,5.54-3.71,1.69-.35,3.16.17,3.85,1.81.66,1.54,1.03,3.21,1.55,4.88ZM387.86,450.61c-.52-1.36-.38-3.52-2.64-3.68-1.36-.09-3.47.62-3.13,2.01.48,1.95,3.03,2.39,4.7,3.41.71.43,1.1-.74,1.07-1.75Z" fill="#060604" stroke-width="0"/><path d="M159.44,242.28c-.09-.36-.18-.72-.27-1.08.35.06.7.11,1.05.16-.26.3-.52.61-.78.92Z" fill="#5b3137" stroke-width="0"/><path d="M155.71,217.93c-.06-.33-.12-.66-.19-1,.33.08.67.17,1.01.25-.27.25-.55.49-.82.74Z" fill="#5b3137" stroke-width="0"/><path d="M387.86,450.61c.03,1.01-.36,2.18-1.07,1.75-1.67-1.02-4.21-1.46-4.7-3.41-.35-1.39,1.76-2.11,3.13-2.01,2.26.16,2.12,2.31,2.64,3.68Z" fill="#b7a97a" stroke-width="0"/><path d="M260.83,398.83c-6.39-2.27-12.37-6.8-12.37-6.8,0,0-28.64,5.23-37.92,8.04-5.47,1.65-19.13,4.26-21.45,9.48-.9,2.04,1.35,6.05,3.11,7.42,2.03,1.58,7.5,3.84,9.89,2.89,7.21-2.89,28.85-11.13,28.85-11.13-15.25,1.03-32.15,3.09-32.15,3.09,0,0,24.73-5.76,43.07-7.01,5.1-1.26,18.96-5.98,18.96-5.98Z" fill="#fefefe" stroke-width="0"/><path d="M263.72,400.27l-33.8,11.54s-25.76,9.69-25.76,12.37c0,5.36,8,6.96,10.1,4.74,1.32-1.4-.62-6.18-.62-6.18,0,0,6.11,5.3,8.04,4.12s0-8.86,0-8.86c0,0,5.41,3.93,7.42,3.5s5.36-6.18,5.36-6.18l1.19,1.1c1.01.94,2.52,1.13,3.73.46l24.35-13.31v-3.3Z" fill="#fefefe" stroke-width="0"/><path d="M267.02,404.8l-51.11,27.82,4.33,4.53h2.62c4.08,0,8.07-1.17,11.5-3.38,0,0,12.99-9.4,24.22-15.58-15.77,14.01-27.2,18.96-27.2,18.96,0,0-1.13,4.58,3.71,7.63,2.78,1.75,7.63-1.03,7.63-1.03l12.98-12.57s-2.16.11-6.59-1.3c6.46-2.07,9.93-3.12,11.66-3.63,1.02-.3,1.94-.86,2.68-1.62l16.37-16.95-2.25-1.99c-1.83-1.62-4.53-1.81-6.57-.47l-32.23,21.25,28.28-21.68Z" fill="#fefefe" stroke-width="0"/><path d="M276.88,416.62c-.77-.85-2.1-.88-2.92-.08l-26.35,25.81c-.48.47-.61,1.19-.33,1.8h0c.32.7,1.1,1.07,1.85.87l1.49-.4c.57-.15,1.01-.61,1.14-1.18l.51-2.26,4.97,4.35c.51.45,1.19.66,1.86.58l4.51-.54c.99-.12,1.8-.84,2.04-1.81h0c.25-1.04-.21-2.12-1.14-2.65l-.53-.3c-.51-.29-1.11-.38-1.68-.26l-4.47.94,16.38-15.25,5.9.73c1.3.16,2.45-.85,2.45-2.17v-.38c0-1.02-.38-2-1.07-2.75l-4.62-5.05Z" fill="#fefefe" stroke-width="0"/><path d="M288.76,426.85c-3.13-1.97-6.21,4.69-8.66,7.11-2.48,3.59-6.87,7.48-9.49,9.67-.62.52-.14,1.54.65,1.37,3.22-.68,8.68-2.64,13.57-8.25,1.64-1.88,6.85-8.05,3.92-9.89Z" fill="#fefefe" stroke-width="0"/><polygon points="241.93 102.2 270.19 102.2 270.19 146.32 241.93 102.2" fill="#fefefe" stroke-width="0"/></g></svg>