<?xml version="1.0" encoding="UTF-8"?><svg id="b" xmlns="http://www.w3.org/2000/svg" viewBox="0 0 684.01 627.5"><g id="c"><path d="M516.35,459.13c-4.99,4.88-9.29,9.79-14.23,14.03-14.26,12.26-31.35,18.49-49.21,23.08-1.49.38-2.57-.19-3.63-1.14-4.44-3.96-8.63-8.14-12.21-12.93-12.04-16.08-19.27-34.28-23.87-53.67-.45-1.9.14-3.26,1.44-4.62,23.08-24.11,48.13-46.12,73.11-68.17,9.74-8.59,21.73-13.06,34.33-15.85,1.36-.3,2.03-.02,2.55,1.39,8.04,21.84,12.59,44.19,10.01,67.59-.85,7.71-1.9,15.4-2.92,23.09-.2,1.51-.15,2.28,1.79,2.03,10.51-1.31,20.39-4.39,29.29-10.24,11.43-7.52,20.09-17.67,27.29-29.12,1.62-2.58,3.63-4.2,6.43-5.33,14.35-5.78,27.23-13.9,38.31-24.76,17.66-17.31,30.45-37.76,39.03-60.87,5.82-15.68,10.5-31.63,10.11-48.64-.16-7.16-1.75-13.66-5.81-19.76-13.02-19.58-28.44-37.06-45.65-52.99-13.56-12.56-27.62-24.58-40.7-37.67-5.76-5.77-8.86-12.57-8.91-20.8-.05-8.95-4.12-15.75-11.51-20.65-2.39-1.59-4.92-3.02-7.11-4.85-13.27-11.13-27.77-20.39-42.99-28.57-43.97-23.64-90.03-41.41-139.42-49.95-20.56-3.56-41.18-5.62-62.06-3.77-5.06.45-10.2.8-15.06-1.14-16.4-6.52-33.51-10.04-50.94-12.34-16.77-2.21-33.55-3.29-50.45-1.83-36.51,3.16-69.79,15.84-101.1,34.31-4.03,2.38-3.95,2.45-.42,5.7,4.34,4,8.62,8.05,13.24,12.37-1.22.44-1.99.72-2.76.99-25.64,8.81-51.38,17.38-75.9,29.08-12.44,5.94-24.45,12.7-35.75,20.64-.37.26-.9.43-.59,1.16,22.34,6.52,44.73,13.1,67.17,19.52,2.69.77,2.59,1.38,1.03,3.33-11.14,13.93-21.12,28.66-30,44.14-14,24.41-24.73,50.3-34.87,76.46-.3.76-1.21,1.51-.49,2.74,15.36-11.92,31.84-21.95,48.75-31.79.14,1.31-.45,2.1-.81,2.93-7.06,16.07-12.59,32.66-17.15,49.6-7.7,28.63-10.42,58.01-13.69,87.32-1.89,16.97-2.34,34.02-3.35,51.05-.16,2.69-.29,5.37-.45,8.49,8.63-7.27,17.34-13.44,26.16-19.85.1.7.19.97.18,1.24-.88,23.51,1.96,46.68,6.78,69.62,4.26,20.26,8.94,40.41,20.1,58.33,2.99,4.8,5.78,9.71,9.27,14.18,1.6,2.04,3.01,2.88,5.68,1.14,6.61-4.3,14.04-6.93,21.42-9.61,23.76-8.63,48.08-15.53,71.93-23.88,1.79-.63,2.77-.15,3.99,1.01,9.13,8.7,19.95,13.82,32.57,14.7,15.4,1.07,30.65,3.22,45.89,5.64,15.18,2.4,29.78,6.27,43.15,14.03,20.19,11.72,38.85,25.57,56.7,40.56,14.59,12.25,28.69,25.1,44.09,36.38,4.07,2.98,8.57,4.65,13.52,5.1,5.08.46,10.16.23,15.16-.87,26.14-5.74,46.79-19.95,62.75-41.13,13.61-18.06,20.61-38.87,24.82-60.87,4.2-21.98,1.83-43.44-4.06-65.29Z" fill="#fdfdfd" stroke-width="0"/><path d="M516.35,459.13c5.89,21.85,8.26,43.31,4.06,65.29-4.21,22-11.2,42.8-24.82,60.87-15.96,21.18-36.61,35.39-62.75,41.13-5,1.1-10.07,1.33-15.16.87-4.96-.45-9.45-2.12-13.52-5.1-15.4-11.28-29.49-24.13-44.09-36.38-17.85-14.98-36.52-28.84-56.7-40.56-13.38-7.76-27.97-11.63-43.15-14.03-15.24-2.41-30.49-4.56-45.89-5.64-12.63-.88-23.44-6-32.57-14.7-1.22-1.16-2.21-1.63-3.99-1.01-23.84,8.35-48.17,15.25-71.93,23.88-7.39,2.68-14.81,5.31-21.42,9.61-2.67,1.74-4.09.9-5.68-1.14-3.49-4.47-6.28-9.38-9.27-14.18-11.16-17.91-15.84-38.06-20.1-58.33-4.82-22.94-7.66-46.11-6.78-69.62.01-.27-.07-.54-.18-1.24-8.82,6.41-17.53,12.58-26.16,19.85.16-3.12.29-5.81.45-8.49,1-17.02,1.46-34.08,3.35-51.05,3.26-29.31,5.99-58.7,13.69-87.32,4.56-16.94,10.09-33.53,17.15-49.6.36-.83.95-1.61.81-2.93-16.91,9.84-33.39,19.87-48.75,31.79-.72-1.23.19-1.98.49-2.74,10.14-26.16,20.87-52.05,34.87-76.46,8.88-15.48,18.85-30.21,30-44.14,1.56-1.95,1.66-2.56-1.03-3.33C44.83,118.02,22.44,111.43.09,104.92c-.31-.73.21-.89.59-1.16,11.3-7.94,23.3-14.7,35.75-20.64,24.52-11.7,50.26-20.27,75.9-29.08.77-.27,1.54-.55,2.76-.99-4.61-4.32-8.9-8.37-13.24-12.37-3.53-3.25-3.61-3.33.42-5.7C133.59,16.51,166.87,3.82,203.38.67c16.89-1.46,33.68-.38,50.45,1.83,17.43,2.3,34.54,5.82,50.94,12.34,4.87,1.93,10.01,1.59,15.06,1.14,20.88-1.85,41.5.21,62.06,3.77,49.39,8.54,95.45,26.31,139.42,49.95,15.22,8.18,29.72,17.44,42.99,28.57,2.19,1.84,4.72,3.27,7.11,4.85,7.39,4.91,11.46,11.7,11.51,20.65.05,8.22,3.15,15.03,8.91,20.8,13.08,13.09,27.14,25.11,40.7,37.67,17.21,15.94,32.63,33.41,45.65,52.99,4.06,6.1,5.64,12.6,5.81,19.76.38,17.01-4.3,32.96-10.11,48.64-8.57,23.11-21.37,43.56-39.03,60.87-11.08,10.86-23.96,18.98-38.31,24.76-2.8,1.13-4.81,2.75-6.43,5.33-7.2,11.46-15.86,21.61-27.29,29.12-8.9,5.85-18.78,8.93-29.29,10.24-1.94.24-1.99-.52-1.79-2.03,1.02-7.69,2.06-15.38,2.92-23.09,2.59-23.4-1.97-45.75-10.01-67.59-.52-1.41-1.19-1.69-2.55-1.39-12.6,2.79-24.6,7.26-34.33,15.85-24.99,22.06-50.03,44.07-73.11,68.17-1.31,1.36-1.9,2.72-1.44,4.62,4.6,19.39,11.83,37.59,23.87,53.67,3.58,4.78,7.78,8.96,12.21,12.93,1.06.95,2.13,1.53,3.63,1.14,17.86-4.59,34.95-10.82,49.21-23.08,4.94-4.25,9.23-9.15,14.23-14.03ZM514.34,466.85c-1.17,1.11-1.93,1.79-2.64,2.53-3.72,3.87-7.63,7.54-11.98,10.72-13.86,10.13-29.64,15.86-46.1,19.99-2.38.6-4.58.04-6.42-1.63-4.25-3.87-8.45-7.78-12-12.35-13.2-16.97-21.02-36.36-25.85-57.11-.65-2.79.01-5.31,2.07-7.41,4.15-4.24,8.19-8.61,12.46-12.74,17.95-17.4,36.71-33.93,55.08-50.89,12.15-11.22,26.24-18.44,42.33-21.9,4.13-.89,5.55-.12,7,3.84,2.27,6.21,4.31,12.49,5.95,18.9,3.98,15.51,5.99,31.23,4.5,47.24-.66,7.15-1.61,14.27-2.53,21.39-.23,1.8.28,2.13,1.99,1.82,7.05-1.28,13.7-3.6,19.88-7.23,12.2-7.17,21.14-17.58,28.6-29.34,2.16-3.41,4.86-5.61,8.61-7.13,13.82-5.57,26.24-13.42,36.9-23.91,19.97-19.65,33.34-43.24,41.66-69.85,3.82-12.22,6.72-24.57,6.22-37.51-.21-5.52-1.19-10.69-4.32-15.53-12.15-18.78-26.71-35.49-42.89-50.83-14.32-13.57-29.46-26.26-43.43-40.21-6.46-6.45-10.39-14-10.38-23.22,0-8.27-3.68-14.24-10.48-18.6-2.26-1.45-4.6-2.81-6.64-4.53-14.31-12.02-30.1-21.74-46.57-30.44-44.09-23.3-90.31-40.42-139.73-48.32-18.41-2.94-36.88-4.42-55.53-2.73-5.54.5-11.17.79-16.48-1.32-15.96-6.33-32.6-9.72-49.54-12.14-29.88-4.26-59.43-3.37-88.53,5.11-20.5,5.97-40.01,14.31-58.51,25-2.07,1.2-2.03,1.88-.34,3.39,4.5,4.02,8.84,8.21,13.29,12.29,2.61,2.4,2.65,2.38-.61,3.53-14.82,5.19-29.7,10.21-44.46,15.57-21.82,7.93-43.07,17.14-62.78,29.56-1.06.67-2.33,1.14-3.15,2.58,22.7,6.61,45.14,13.15,68.02,19.82-29.61,34.82-49.79,74.28-65.54,116.28,15.91-10.78,32.62-20.05,48.98-29.94-.7,2.26-1.56,4.28-2.49,6.27-12.71,27.24-21.38,55.74-26.66,85.31-2.66,14.91-4.08,29.98-5.94,44.99-2.53,20.37-3.68,40.83-4.63,61.31-.03.6-.46,1.48.43,1.72.41.11,1.04-.34,1.48-.66,3.32-2.44,6.6-4.93,9.92-7.37,4.67-3.43,9.35-6.82,14.55-10.6-.19,2.96-.36,5.22-.48,7.48-.12,2.3-.22,4.59-.25,6.89-.38,29.85,4.91,58.87,12.41,87.62,4.28,16.39,11.92,31.02,21.2,44.99,1.41,2.13,2.57,2.4,4.76,1.06,5.58-3.42,11.73-5.62,17.85-7.85,21.24-7.72,42.9-14.21,64.34-21.33,3.73-1.24,7.73-2.04,11.03-4.02,2.25-1.35,2.98-.66,4.29.67,9.32,9.42,20.47,15.07,33.81,15.82,14.56.81,28.94,2.95,43.32,5.25,14.55,2.33,28.74,5.53,41.9,12.5,15.99,8.46,30.51,19.09,44.91,29.91,16.63,12.49,31.69,26.89,47.92,39.88,4.26,3.41,8.48,6.91,12.99,9.97,8.91,6.04,18.7,4.87,28.28,2.36,29.34-7.7,50.73-25.68,65.46-51.85,9.13-16.23,13.88-33.93,16.67-52.26,2.59-16.97.7-33.6-3.18-50.84Z" fill="#251e1f" stroke-width="0"/><path d="M514.34,466.85c3.88,17.24,5.77,33.87,3.18,50.84-2.79,18.32-7.54,36.02-16.67,52.26-14.72,26.16-36.12,44.14-65.46,51.85-9.58,2.52-19.37,3.69-28.28-2.36-4.51-3.06-8.72-6.56-12.99-9.97-16.23-12.99-31.3-27.38-47.92-39.88-14.39-10.82-28.92-21.45-44.91-29.91-13.16-6.97-27.36-10.17-41.9-12.5-14.38-2.31-28.76-4.44-43.32-5.25-13.34-.74-24.48-6.4-33.81-15.82-1.32-1.33-2.04-2.02-4.29-.67-3.29,1.98-7.3,2.78-11.03,4.02-21.45,7.12-43.1,13.61-64.34,21.33-6.13,2.23-12.27,4.43-17.85,7.85-2.19,1.34-3.34,1.07-4.76-1.06-9.28-13.96-16.92-28.59-21.2-44.99-7.5-28.76-12.79-57.78-12.41-87.62.03-2.3.14-4.6.25-6.89.11-2.26.29-4.53.48-7.48-5.19,3.78-9.88,7.18-14.55,10.6-3.32,2.44-6.6,4.93-9.92,7.37-.44.32-1.07.77-1.48.66-.89-.23-.46-1.12-.43-1.72.95-20.48,2.11-40.94,4.63-61.31,1.86-15.01,3.28-30.08,5.94-44.99,5.27-29.57,13.95-58.07,26.66-85.31.93-1.99,1.79-4.01,2.49-6.27-16.36,9.88-33.07,19.15-48.98,29.94,15.75-42,35.93-81.46,65.54-116.28-22.87-6.66-45.32-13.2-68.02-19.82.82-1.45,2.09-1.91,3.15-2.58,19.72-12.42,40.96-21.63,62.78-29.56,14.76-5.36,29.64-10.38,44.46-15.57,3.27-1.14,3.22-1.13.61-3.53-4.45-4.08-8.79-8.28-13.29-12.29-1.69-1.5-1.73-2.19.34-3.39,18.5-10.69,38.01-19.03,58.51-25,29.1-8.47,58.65-9.37,88.53-5.11,16.93,2.42,33.58,5.81,49.54,12.14,5.32,2.11,10.95,1.83,16.48,1.32,18.65-1.69,37.11-.21,55.53,2.73,49.42,7.9,95.64,25.02,139.73,48.32,16.47,8.7,32.26,18.42,46.57,30.44,2.04,1.71,4.39,3.08,6.64,4.53,6.79,4.35,10.48,10.33,10.48,18.6-.01,9.22,3.91,16.77,10.38,23.22,13.98,13.95,29.11,26.64,43.43,40.21,16.19,15.34,30.74,32.05,42.89,50.83,3.13,4.84,4.1,10.01,4.32,15.53.5,12.93-2.4,25.29-6.22,37.51-8.32,26.61-21.69,50.2-41.66,69.85-10.66,10.48-23.08,18.33-36.9,23.91-3.75,1.51-6.45,3.72-8.61,7.13-7.46,11.77-16.4,22.18-28.6,29.34-6.18,3.63-12.83,5.95-19.88,7.23-1.71.31-2.22-.01-1.99-1.82.91-7.12,1.86-14.24,2.53-21.39,1.49-16.02-.51-31.73-4.5-47.24-1.64-6.41-3.68-12.69-5.95-18.9-1.45-3.96-2.87-4.73-7-3.84-16.09,3.47-30.18,10.68-42.33,21.9-18.36,16.96-37.12,33.49-55.08,50.89-4.26,4.13-8.3,8.49-12.46,12.74-2.06,2.1-2.72,4.62-2.07,7.41,4.83,20.75,12.65,40.14,25.85,57.11,3.55,4.57,7.75,8.48,12,12.35,1.84,1.67,4.04,2.23,6.42,1.63,16.46-4.13,32.24-9.86,46.1-19.99,4.35-3.18,8.25-6.85,11.98-10.72.71-.74,1.47-1.42,2.64-2.53ZM26.63,222.22c10.65-7.74,22.06-14.16,34.13-19.41,5.84-2.54,11.72-4.98,18.23-7.75-32.2,60.8-41.87,126.1-45.91,192.82,9.59-7.88,19.29-15.22,29.76-22.36-.2,1.47-.3,2.4-.46,3.32-1.9,11.26-2.93,22.61-3.15,34.02-.53,27.72,3.56,54.8,11.83,81.25,4.41,14.1,10.03,27.71,16.43,41.03,1.01,2.1,1.92,2.18,3.87,1.22,3.77-1.86,7.64-3.57,11.59-5.02,25.6-9.45,51.93-16.76,77.45-26.43,1.52-.57,2.25.15,3.19,1.05,11.4,11.01,25.36,16.22,40.86,17.53,12.51,1.06,25.03,1.95,37.32,4.62,29.85,6.48,56.97,18.52,80.78,38.08,20.36,16.73,40.27,33.95,59.69,51.75,9.41,8.62,19.77,12.63,32.33,8.96,7.19-2.1,14.16-4.97,20.38-9.15,19.83-13.32,34.24-31.3,44.07-52.94,7.89-17.35,10.75-35.86,11.79-54.73.31-5.68-.08-11.3-1-16.88-.16-.99-.07-3.01-2.1-1.2-8.19,7.31-17.81,12.23-27.81,16.45-9.63,4.06-19.45,7.57-29.82,9.27-1.54.25-3.07.4-4.36-.75-4.01-3.56-8.3-6.81-11.87-10.84-12.38-14-20.75-30.26-26.73-47.82-1.76-5.16-2.95-10.51-4.71-15.67-2.39-6.98-.62-12.51,4.53-17.68,22.43-22.56,45.45-44.48,69.54-65.27,13.67-11.8,29.61-18.88,47.47-21.65,5.21-.81,6.29-.26,8.21,4.72,4.87,12.63,8.75,25.53,11.09,38.88,2.65,15.07,2.3,30.14.31,45.23-.12.93-.73,2.17-.01,2.74.88.7,1.95-.29,2.89-.67,5.18-2.12,9.85-5.11,14.18-8.63,8.91-7.25,15.42-16.45,21.23-26.21.95-1.6,1.95-3.01,3.85-3.63,16.68-5.39,31.08-14.69,42.83-27.45,19.91-21.61,33.29-46.89,39.46-75.78,2.02-9.47,3.99-18.97,1.98-28.73-.29-1.42-.6-2.78-1.39-4.04-14.68-23.3-33.08-43.34-53.71-61.43-9.72-8.52-19.73-16.71-28.72-26.05-9.06-9.42-16.19-19.64-15.91-33.54.09-4.34-2.17-7.92-5.89-10.3-5.74-3.67-10.9-8.12-16.35-12.18-17.58-13.09-36.69-23.6-56.44-33.02-29.56-14.11-60.01-25.58-92.06-32.81-27.25-6.15-54.61-10.19-82.6-7.52-5.6.53-10.9-.19-16.04-2.25-11.8-4.73-24.14-7.42-36.58-9.72-32.71-6.05-65.12-5.64-97.26,3.78-16.27,4.77-31.32,12.37-46.71,19.22-.95.42-1.81.82-.56,1.98,6.79,6.32,12.85,13.47,20.81,18.47,15.34,9.65,31.93,16.1,49.79,19.24,2.95.52,5.91,1.03,8.86,1.55-9.24.52-18.53,1.34-27.45-1.34-14.4-4.33-28.67-9.11-41.95-16.34-1.31-.72-2.45-.69-3.8-.19-4.76,1.75-9.55,3.44-14.35,5.08-23.92,8.2-47.85,16.4-70.59,27.61-3.88,1.91-7.82,3.75-11.52,6.31,1.07,1,2.16,1.06,3.13,1.35,18.66,5.45,37.31,10.91,56,16.25,2.36.68,2.41,1.15.91,2.99-19.29,23.77-36.88,48.7-51.49,75.65-4.33,7.99-8.69,15.97-11.95,24.49-.34.24-.57.65-.28.91.39.35.56-.16.76-.43Z" fill="#fcb618" stroke-width="0"/><path d="M26.14,221.74c3.26-8.51,7.62-16.5,11.95-24.49,14.61-26.95,32.2-51.88,51.49-75.65,1.49-1.84,1.45-2.31-.91-2.99-18.69-5.34-37.34-10.81-56-16.25-.97-.28-2.06-.35-3.13-1.35,3.7-2.56,7.64-4.4,11.52-6.31,22.74-11.21,46.67-19.41,70.59-27.61,4.8-1.65,9.59-3.33,14.35-5.08,1.35-.5,2.49-.52,3.8.19,13.28,7.23,27.55,12.01,41.95,16.34,8.92,2.68,18.21,1.86,27.45,1.34-2.95-.52-5.91-1.03-8.86-1.55-17.86-3.14-34.45-9.59-49.79-19.24-7.95-5-14.02-12.15-20.81-18.47-1.24-1.16-.39-1.55.56-1.98,15.39-6.85,30.44-14.45,46.71-19.22,32.14-9.42,64.56-9.82,97.26-3.78,12.45,2.3,24.78,4.99,36.58,9.72,5.14,2.06,10.44,2.78,16.04,2.25,27.99-2.67,55.34,1.38,82.6,7.52,32.05,7.23,62.49,18.7,92.06,32.81,19.75,9.43,38.86,19.93,56.44,33.02,5.45,4.06,10.61,8.5,16.35,12.18,3.72,2.38,5.98,5.96,5.89,10.3-.28,13.91,6.84,24.12,15.91,33.54,8.98,9.34,19,17.52,28.72,26.05,20.63,18.09,39.03,38.13,53.71,61.43.79,1.26,1.1,2.62,1.39,4.04,2.01,9.77.04,19.26-1.98,28.73-6.17,28.89-19.55,54.17-39.46,75.78-11.75,12.76-26.15,22.06-42.83,27.45-1.91.62-2.9,2.03-3.85,3.63-5.81,9.76-12.32,18.96-21.23,26.21-4.33,3.52-9,6.51-14.18,8.63-.94.38-2,1.37-2.89.67-.71-.57-.11-1.81.01-2.74,1.99-15.09,2.33-30.16-.31-45.23-2.35-13.35-6.23-26.26-11.09-38.88-1.92-4.98-3-5.53-8.21-4.72-17.86,2.77-33.8,9.85-47.47,21.65-24.09,20.78-47.11,42.71-69.54,65.27-5.14,5.17-6.91,10.7-4.53,17.68,1.76,5.16,2.95,10.51,4.71,15.67,5.99,17.56,14.36,33.82,26.73,47.82,3.57,4.04,7.87,7.28,11.87,10.84,1.29,1.15,2.82,1.01,4.36.75,10.37-1.7,20.19-5.21,29.82-9.27,10.01-4.22,19.63-9.15,27.81-16.45,2.03-1.81,1.94.21,2.1,1.2.92,5.59,1.31,11.2,1,16.88-1.04,18.87-3.9,37.38-11.79,54.73-9.83,21.64-24.25,39.62-44.07,52.94-6.22,4.18-13.19,7.05-20.38,9.15-12.55,3.67-22.92-.33-32.33-8.96-19.41-17.8-39.32-35.02-59.69-51.75-23.81-19.56-50.93-31.6-80.78-38.08-12.3-2.67-24.81-3.57-37.32-4.62-15.5-1.31-29.46-6.52-40.86-17.53-.94-.91-1.68-1.63-3.19-1.05-25.52,9.67-51.85,16.98-77.45,26.43-3.95,1.46-7.82,3.16-11.59,5.02-1.95.96-2.86.88-3.87-1.22-6.39-13.31-12.02-26.92-16.43-41.03-8.27-26.45-12.36-53.53-11.83-81.25.22-11.4,1.25-22.76,3.15-34.02.16-.92.26-1.86.46-3.32-10.47,7.14-20.17,14.49-29.76,22.36,4.04-66.72,13.71-132.02,45.91-192.82-6.51,2.76-12.39,5.21-18.23,7.75-12.07,5.25-23.48,11.67-34.13,19.41-.16-.16-.32-.32-.48-.48ZM494.91,277.07c-.51.59-1.08.28-1.62.24-15.29-1.18-30.58-2.22-45.9-2.83-34.1-1.38-68.2-1.41-102.3.27-37.75,1.86-75.25,5.76-112.34,13.25-19.93,4.03-39.63,8.96-58.57,16.42-26.9,10.6-51.91,24.98-76.97,39.24-1.39.79-2.3,1.88-2.96,3.35-3.34,7.44-6.18,15.07-8.29,22.94-5.44,20.32-7.64,40.83-3.32,61.67,3.34,16.1,10.3,30.82,17.34,45.52.83,1.74,2.1,1.43,3.36,1.12,4.18-1.03,8.37-2.06,12.49-3.3,16.23-4.88,32.11-10.85,48.43-15.45,2.13-.6,2.09-1.87,1.83-3.47-1.44-8.95-1.21-17.93-.83-26.94.69-16.5,4.34-32.07,13.89-45.81,3.1-4.46,5.62-9.06,6.93-14.37,1.06-4.3,2.92-4.85,6.59-2.39,6.88,4.62,11.23,15.07,9.63,23.16-.7,3.57-1.46,7.13-2.08,10.71-1.93,11.08-3.35,22.22-1.12,33.41,3.23,16.28,13.1,28.77,24.02,40.46,6.81,7.29,16.1,10.53,25.43,13.33,13.3,3.99,26.84,7.13,40.02,11.52,12.11,4.03,24.06,8.43,34.31,16.38,5.28,4.1,10.7,8.02,15.85,12.28,17.27,14.28,34.37,28.77,50.6,44.23,7.49,7.13,14.54,14.78,23.39,20.3,4.6,2.87,9.18,5.92,15.2,4.66,7.2-1.5,13.89-4.24,20.44-7.46,6.89-3.39,11.92-8.45,14.92-15.62,4.5-10.78-.1-22.57-10.79-27.19-.88-.38-1.76-.76-2.65-1.11-7.7-2.94-14.63-7.37-20.69-12.73-15.78-13.94-28.04-30.74-36.45-50-8.69-19.9-13.47-41.08-18.58-62.12-1.46-6-.3-11.44,3.43-16.27,3.57-4.62,7.14-9.26,11.04-13.6,23.82-26.46,50.37-49.81,79.95-69.65,9.94-6.67,19.86-13.39,31.11-17.8,13.86-5.43,28.42-6.8,43.11-7.4,6.49-.27,7.84.96,7.89,7.39.04,4.61.38,9.19,1.24,13.72,2.2,11.54,7.06,22.01,12.96,32.06,4.69,7.98,9.71,9.53,18,5.51,5.63-2.73,10.64-6.43,15.71-10.05,21.65-15.48,36.06-36.16,44.39-61.29,1.47-4.43.86-8.29-2.2-11.77-8.83-10.01-18.13-19.54-29.23-27.07-10.65-7.22-21.65-13.82-34.27-17.13-1.43-.38-2.88-.65-4.55-.5,4.26,10.03,8.36,19.78,11.71,30.38-48.56-29.19-99.07-52.62-152.87-68.48-53.79-15.85-108.73-25.24-164.81-27.51.36.58.79.71,1.24.78,16.26,2.68,32.45,5.7,48.53,9.3,33.18,7.43,66.46,14.53,98.48,26.29,35,12.85,69.54,26.77,102.27,44.81,13.86,7.64,27.26,16,39.21,26.48.88.77,2.13,1.37,2.14,2.97-1.24.46-2.27-.22-3.28-.62-15.08-5.87-30.28-11.42-45.48-16.99-36.8-13.5-74.52-23.49-113.07-30.43-33.89-6.1-68.03-9.95-102.45-11.5-43.54-1.96-86.79-.65-129.32,10.09-3.85.97-7.71,1.89-11.78,3.79,1.66,0,2.79.08,3.91-.01,10.31-.82,20.62-1.79,30.94-2.49,23.14-1.58,46.29-2.64,69.49-1.14,23.62,1.52,47.18,3.59,70.66,6.62,22.24,2.88,44.42,6.27,66.15,11.88,33.63,8.7,66.11,20.83,98.11,34.26.88.37,2.1.44,2.45,1.66ZM168.94,57.6c-.69-3.95-2.76-6.37-4.53-8.96-.89-1.31-2.62-2.67-1.89-4.24.82-1.77,3.06-1.13,4.71-1.24,2.48-.17,4.98-.18,7.47-.21,20.36-.21,39.68,3.76,56.97,14.97,11.41,7.4,23.71,12.4,36.91,15.38,6.13,1.38,12.24,1.7,17.97-1.23,6.71-3.42,10.24-9.3,10.46-16.67.19-6.56-4.19-10.45-9.75-12.95-8.12-3.65-16.18-7.5-24.82-9.8-35.85-9.53-71.34-7.04-106.55,3.41-3.98,1.18-7.9,2.57-12.03,4.65,8.45,5.69,16.53,11.12,25.09,16.88ZM545.44,168.63c-7.11-23.25-22.97-38.01-44.61-46.24-19.55-7.44-40.45-10.02-60.97-13.76-.55-.1-1.27-.36-1.62.17-.41.62.07,1.29.37,1.87,1.09,2.05,2.6,3.78,4.22,5.42,12.11,12.2,26.37,21.49,41.02,30.25,1.15.69,1.87.59,2.59-.53.61-.97,1.33-1.87,2.06-2.76,6.47-7.81,16.86-8.44,24.35-1.62,7.56,6.88,13.42,15.19,19.77,23.09.54.67.96,1.53,1.85,1.73,3.53.78,6.91,2.23,10.96,2.4Z" fill="#251e1f" stroke-width="0"/><path d="M26.63,222.22c-.2.27-.37.78-.76.43-.3-.26-.06-.67.28-.91.16.16.32.32.48.48Z" fill="#251e1f" stroke-width="0"/><path d="M494.91,277.07c-.34-1.22-1.56-1.29-2.45-1.66-32-13.42-64.48-25.56-98.11-34.26-21.73-5.62-43.91-9-66.15-11.88-23.47-3.04-47.04-5.1-70.66-6.62-23.2-1.5-46.35-.43-69.49,1.14-10.32.7-20.62,1.67-30.94,2.49-1.12.09-2.25.01-3.91.01,4.07-1.9,7.92-2.82,11.78-3.79,42.53-10.74,85.78-12.05,129.32-10.09,34.42,1.55,68.56,5.4,102.45,11.5,38.55,6.94,76.27,16.93,113.07,30.43,15.19,5.57,30.4,11.12,45.48,16.99,1.02.4,2.04,1.08,3.28.62,0-1.59-1.25-2.19-2.14-2.97-11.95-10.48-25.35-18.84-39.21-26.48-32.73-18.04-67.27-31.96-102.27-44.81-32.01-11.76-65.3-18.85-98.48-26.29-16.08-3.6-32.27-6.62-48.53-9.3-.45-.07-.88-.2-1.24-.78,56.08,2.27,111.02,11.65,164.81,27.51,53.8,15.86,104.31,39.29,152.87,68.48-3.35-10.6-7.45-20.35-11.71-30.38,1.67-.15,3.11.12,4.55.5,12.62,3.31,23.62,9.91,34.27,17.13,11.1,7.52,20.4,17.06,29.23,27.07,3.06,3.47,3.67,7.34,2.2,11.77-8.33,25.13-22.74,45.81-44.39,61.29-5.07,3.62-10.08,7.32-15.71,10.05-8.29,4.02-13.31,2.47-18-5.51-5.9-10.05-10.76-20.52-12.96-32.06-.86-4.53-1.21-9.11-1.24-13.72-.05-6.44-1.4-7.66-7.89-7.39-14.69.6-29.25,1.96-43.11,7.4-11.24,4.41-21.16,11.13-31.11,17.8-29.59,19.84-56.13,43.19-79.95,69.65-3.9,4.33-7.48,8.98-11.04,13.6-3.72,4.83-4.89,10.27-3.43,16.27,5.11,21.03,9.88,42.22,18.58,62.12,8.42,19.26,20.67,36.06,36.45,50,6.07,5.36,12.99,9.79,20.69,12.73.89.34,1.77.73,2.65,1.11,10.69,4.62,15.29,16.41,10.79,27.19-2.99,7.17-8.02,12.23-14.92,15.62-6.55,3.22-13.25,5.96-20.44,7.46-6.02,1.26-10.6-1.8-15.2-4.66-8.85-5.52-15.9-13.17-23.39-20.3-16.24-15.46-33.33-29.95-50.6-44.23-5.15-4.26-10.57-8.18-15.85-12.28-10.25-7.95-22.2-12.35-34.31-16.38-13.18-4.39-26.73-7.53-40.02-11.52-9.32-2.8-18.61-6.04-25.43-13.33-10.92-11.68-20.79-24.18-24.02-40.46-2.22-11.19-.8-22.33,1.12-33.41.62-3.58,1.38-7.14,2.08-10.71,1.59-8.09-2.75-18.55-9.63-23.16-3.67-2.46-5.52-1.91-6.59,2.39-1.31,5.31-3.82,9.91-6.93,14.37-9.55,13.74-13.2,29.31-13.89,45.81-.38,9.02-.6,18,.83,26.94.26,1.6.29,2.87-1.83,3.47-16.32,4.6-32.2,10.57-48.43,15.45-4.12,1.24-8.31,2.27-12.49,3.3-1.25.31-2.52.62-3.36-1.12-7.04-14.7-14-29.42-17.34-45.52-4.32-20.85-2.12-41.36,3.32-61.67,2.11-7.88,4.94-15.5,8.29-22.94.66-1.47,1.57-2.56,2.96-3.35,25.06-14.26,50.07-28.65,76.97-39.24,18.94-7.46,38.64-12.39,58.57-16.42,37.08-7.49,74.59-11.39,112.34-13.25,34.1-1.68,68.2-1.65,102.3-.27,15.32.62,30.61,1.66,45.9,2.83.54.04,1.12.34,1.62-.24ZM559.17,272c-.12.07-.25.14-.37.2.06.06.14.19.19.18.14-.03.26-.12.39-.18-.06-.06-.13-.13-.2-.2Z" fill="#fcb618" stroke-width="0"/><path d="M168.94,57.6c-8.56-5.76-16.64-11.19-25.09-16.88,4.14-2.08,8.06-3.47,12.03-4.65,35.21-10.45,70.7-12.95,106.55-3.41,8.64,2.3,16.71,6.15,24.82,9.8,5.56,2.5,9.94,6.38,9.75,12.95-.22,7.38-3.75,13.25-10.46,16.67-5.74,2.93-11.84,2.61-17.97,1.23-13.2-2.98-25.5-7.98-36.91-15.38-17.29-11.21-36.61-15.18-56.97-14.97-2.49.03-4.99.03-7.47.21-1.66.11-3.89-.52-4.71,1.24-.73,1.57,1,2.93,1.89,4.24,1.76,2.59,3.84,5,4.53,8.96Z" fill="#fcb618" stroke-width="0"/><path d="M545.44,168.63c-4.05-.17-7.43-1.61-10.96-2.4-.89-.2-1.3-1.05-1.85-1.73-6.35-7.9-12.21-16.21-19.77-23.09-7.49-6.82-17.88-6.19-24.35,1.62-.73.88-1.45,1.79-2.06,2.76-.72,1.13-1.44,1.22-2.59.53-14.66-8.76-28.91-18.05-41.02-30.25-1.62-1.63-3.14-3.37-4.22-5.42-.31-.58-.79-1.25-.37-1.87.35-.52,1.07-.27,1.62-.17,20.52,3.74,41.42,6.32,60.97,13.76,21.64,8.23,37.49,22.99,44.61,46.24Z" fill="#fcb618" stroke-width="0"/><path d="M559.17,272c.08.08.14.14.2.2-.13.06-.25.15-.39.18-.05.01-.13-.12-.19-.18.12-.07.25-.14.37-.2Z" fill="#251e1f" stroke-width="0"/></g></svg>