<?xml version="1.0" encoding="UTF-8"?><svg id="b" xmlns="http://www.w3.org/2000/svg" xmlns:xlink="http://www.w3.org/1999/xlink" viewBox="0 0 637.84 696.63"><defs><clipPath id="d"><path d="M394.15,385.26c53.12-17.85,124.65-28.34,175.86-34.02,14.1-1.57,25.44-2.62,32.47-3.23h0c.47-.05.73-.29.86-.48.14-.19.28-.51.17-.93-4.28-16.02-14.47-54.89-16.69-69.59-.33-2.18.06-4.43.46-6.82.35-2.04,1-5.85.15-6.78-.41-.45-2.2-1.18-6.29-1.08-20.62.52-37.1,1.56-53.45,3.38-64.65,7.18-125.09,27.28-189.61,63.12l56.06,56.43Z" fill="none" stroke-width="0"/></clipPath></defs><g id="c"><path d="M202.27,640.11l-64.25,23.49,16.8-79.32-74.99-4.07,31.31-43.22-56.56-9.53,22.47-39.29c.28-.48,2.81-4.89,7.07-11.38l5.36-8.16-9.36-2.77c-2.15-.64-4.31-1.3-6.48-1.99l-52.18-16.59,31.13-45.05L0,381.56l44.78-33.95c1.23-.93,3.88-2.93,7.51-5.64l12.25-9.14-57.56-14.4,47.78-49.89c8.45-8.82,16.38-15.98,24.98-22.53l7.65-5.83-27.26-20.32,27.11-15.01-50.76-28.85,85.73-16.53-21.35-28.99,69.85-4.71-1.45-6.05,9.83-.8-15.79-54.6,47.59,13.33,85.61-1.25L284.31,0l121.16,68.86-.22-61.85,72.02,77.93.2.18c1.63,1.52,6.32,5.16,28.01,19.02,19.87,12.7,40.42,25.84,53.04,39.5,26.96,29.18,44.39,60.64,51.81,93.51l.46,2.02,1.45,1.47c.59.6,1.16,1.22,1.68,1.84,7.07,8.33,9.52,18.61,7.49,31.43l-.2,1.26.24,1.25c2.19,11.32,7.74,33.94,15.24,62.03,2.59,9.69.69,19.93-5.21,28.11-2.23,3.09-4.96,5.79-8.13,8.03l-3.45,2.43,2.64,26.93c.81,7.91-1.25,15.93-5.8,22.61l-1.66,2.43,11.27,64.75-18.98,18.54-7.84,7.68-3.05-.3-1.71,5.74c-1.02,3.42-2.74,6.55-5.1,9.31l-1.29,1.5-.35,1.94c-.32,1.8-.64,3.33-.99,4.79-.46,1.89-1.54,6.34-4.19,11.13l-.9,1.62-.05,9.72-1.61,4.47-.05.18c-3.82,12.64-12.2,21.12-24.23,24.5l-41.1,12.61-8.79,1.99,7.33,29.12-30.59-9.03c-3.05-.9-29.92-8.84-51.3-15.21l-4.26-1.27-3.06,3.21c-6.03,6.32-13.81,12.59-21.91,17.65l-.28.17c-3.81,2.37-5.99,4.5-6.95,5.56l-1.68,1.85-2.32,32.45-33.3-4.62c-15.43-2.14-28.94-9.77-40.16-22.68l-4.13-4.76-5.29,3.43c-18.95,12.28-37.78,21.99-55.98,28.85l-60.23,22.71,10.24-56.53Z" fill="#fff" stroke-width="0"/><path d="M210.42,636.3l.19-1,1.13-6.17-6.31,2.32-57.57,21.04,12.51-59.1c.74-3.48,1.61-7.25,2.66-11.53l1.05-4.25-4.48-.15c-2.26-.08-4.13-.16-5.85-.25l-60.45-3.28,31.28-43.18-6.36-.53c-9.87-.82-16.01-1.84-16.67-1.95l-35.63-6,17.58-30.74c.6-1.05,6.14-10.64,15.11-22.97l3.09-4.25-5.2-1.27c-6.67-1.63-13.6-3.58-20.6-5.8l-43.08-13.69,25.29-36.6c.96-1.38,1.96-2.78,2.97-4.15l2.74-3.69-49.5-19.46,35.04-26.57c2.81-2.13,12.96-9.79,25.54-18.87l6.16-4.45-60.48-15.14,39.61-41.36c11.59-12.1,22.54-21.3,35.51-29.83l4.2-2.77-26.74-19.93,28.52-15.79-45.18-25.67,78.12-15.06-20.35-27.63,59.81-4.04,1.4-.09,4.26-.28-1.48-6.19,10.21-.83-14.64-50.62,36.08,10.11,85.21-1.24c1.1,0,2.15.01,3.19.04.77.02,1.55.04,2.32.07l4.41.17-11.17-70.13,118.97,67.62-.2-55.6,59.11,63.96c2.52,2.64,11.12,8.56,29.65,20.41,19.48,12.45,39.62,25.33,51.61,38.3,26.97,29.19,44.06,60.62,50.8,93.42l.25,1.2.95.8c1.19,1.01,2.27,2.08,3.21,3.19,8.64,10.18,6.62,21.99,5.65,27.67l-.1.6.11.6c1.96,10.87,7.68,34.34,15.71,64.41,2.07,7.74.55,15.93-4.16,22.46-2.78,3.86-6.59,6.97-10.99,8.98l-2.32,1.06,3.13,31.92c.77,7.57-1.72,15.22-6.84,20.98l-1.12,1.27,11.24,64.57-16.41,16.03-5.38,5.27-8.81-.88.46,4.34c.63,5.92-1.54,11.66-5.95,15.75l-.88.82-.2,1.18c-.05.32-.11.63-.18.95l-.02.13c-.32,1.9-.71,4.12-1.26,6.39-.49,2.01-1.63,6.72-4.69,11.36l-.57.87-.05,10.63-1.29,3.57-.07.22c-3.1,10.38-9.84,17.27-19.49,19.94l-40.85,12.54-3.92.89-3.1-.07c-.93-.02-1.71-.04-2.44-.09-.61-.04-1.13-.1-1.63-.2l-5.53-.99,7.05,28.02-18.33-5.41c-.32-.09-34.82-10.28-58.13-17.25l-2.41-.72-1.54,1.94c-5.75,7.25-14.96,15.19-24.64,21.24l-.26.16c-6.79,4.21-11.35,9.16-11.92,12.9l-.02.13-1.77,24.69-25.5-3.54c-16.14-2.24-30.38-11.77-41.19-27.56l-2.08-3.04-3.06,2.1c-21.38,14.7-42.57,26.06-62.97,33.75l-48.02,18.1,8.92-49.23Z" fill="#103385" stroke-width="0"/><path d="M548.82,422c-.79,0-1.58,0-2.36-.01-7.37-.17-13.83-1.51-18.73-2.96l24.37.54c-.97.76-2.38,1.87-3.27,2.43Z" fill="#103385" stroke-width="0"/><path d="M340.99,542.52s32.43,25.95,95.89,45.23c4.83,1.47,8.39-20.44,10.19-20.1,1.57.3,5.91,25.23,7.38,25.48l17.69,4.91-9.24-31.18-73.32-46.14c-5.19-2.41-8.09-11.96-7.37-17.18l-.2,12.5-43.72-.61,2.68,27.09Z" fill="#facf2d" stroke-width="0"/><path d="M398.91,473.11c-.88.57-1.37.87-1.37.87-.37.52-.6,1.12-.69,1.73,0,0,.42,2.06.92,4.94l1.13-7.55Z" fill="#facf2d" stroke-width="0"/><path d="M592.33,483.18l-10.9-57.69c-1-5.11-15.04,1.23-22.65,4.72-2.99,1.37-36.11-13.22-36.11-13.22-1.47-4.88-4.67-8.73-7.23-11.2-.97-.94-.16-2.53,1.19-2.33l69.23,12.43c2.9.2,5.38-6.46,5.08-9.07l-3.22-32.83c-.7-6.19-7.18-10.48-13.91-9.21l-112.21,17.68c-1.23.23.67-.96,0,0,0,0-6.75,18.99-11.35,32.45h0s-.01.03-.01.03c-1.5,4.39-3.18,8.78-4.99,12.7l-4.88,12.43c-.8,2.03-.27,4.33,1.35,5.87l22.25,21.17-21.93,32.16c-1.4,2.11-4.15,2.99-6.6,2.11l-20.74-7.38c-3.44-1.22-7.2.75-7.96,4.17l-3.65,16.47c26.73,16.48,102.36,63.04,103.27,62.83l40.42-12.4c2.47-.57,2.61-2.95,3.38-5.07l.05-10.96c.45-1.29-4.42-2.63-5.8-2.29l9.83-6.65c1.3-.16,1.97-8.08,1.97-8.08,1.06-3.09-8.96-7.14-15.8-7.3-9.5-.22-14.23-4.88-16.57-9.04,0,0,9.95-1.98,14.09-.99,11.05,2.66,25.52,4.27,25.62-.3,0,0-2.21-8.4-3.51-11.32-.89-1.99-2.96-3.23-5.18-3.13l-12.27.71c-1.62-.02-3.12-.8-3.96-2.06l-11.64-17.47c-1-1.49-2.9-2.29-4.8-2l-14.57,3.02c-5.38.92-9.91,4.26-12.3,8.94-7.6,14.86-31.16,33.13-31.16,33.13l24.17-41.29c3.01-5.53,5.82-9.24,11.33-10.56l39.58-9.26c2.26-.43,11.75-3.22,12.67-1.72l-12.44,11.82c-1.54,1.44-1.74,3.67-.48,5.33l6.62,12.02c1.28,1.68,6.35,1.12,8.41.3l-2.99-6.38c.23-1.12,6.8-3.55,8-3.47l14.84,5.66,13.66,1.14,4.76-4.65Z" fill="#facf2d" stroke-width="0"/><path d="M421.74,549.41c-1.11-5.37-2.61-11.01-4.4-16.57,7.59-9.26,13.6-17.04,15.61-20.72,10.01-18.36,11.79-36.61,5.27-54.24-1.39-3.77-3.1-7.19-4.6-10.21-.71-1.43-1.28-2.58-1.83-3.76l-.66-1.4c4.55-8.62,7.19-17.36,8.05-26.63,1.12-12.06-1.51-23.91-8.05-36.22-.64-1.2-1.32-2.38-1.92-3.41l-9.86-17.25-12.55,13.32-7.33,7.74c-6.46,6.82-13.02,13.73-19.34,20.72-2.41,2.66-3.83,5.52-4.86,7.6-.29.59-.61,1.25-.87,1.65-4.22,4.97-8.94,10.18-13.51,15.22l-4.53,5.02c-.9-.85-1.84-1.71-2.84-2.63-2.91-2.66-5.65-5.17-8.07-7.84-2.87-3.17-5.81-5.9-8.65-8.54-1.22-1.13-2.34-2.17-3.45-3.25l-13.23-12.74-8.34,16.21c-8.43,16.38-10.26,32.86-5.45,49,1.92,6.43,4.7,12.67,8.28,18.62h0c-4.76,9.66-7.23,17.77-8.02,26.3-1.09,11.76,1.09,23.13,6.64,34.48-1.37,6.13-2.31,12.52-2.78,19.08-3.4,47.6,18.51,88.28,49.88,92.64l13.9,1.93.96-13.44c1.16-11.63,14.87-19.82,17.17-21.26,10.02-6.26,19.12-14.54,23.48-20.92,9.03-13.19,9.46-31.36,5.91-48.51Z" fill="#103385" stroke-width="0"/><path d="M316.4,559.46c.5-7,1.58-13.76,3.14-20.21-5.72-10.99-8.05-21.94-7.01-33.23.73-7.83,3.03-15.35,7.48-24.38l1.37-2.77c-4.11-6.27-7.23-12.91-9.31-19.86-4.39-14.72-2.68-29.83,5.07-44.91l4.69-9.11,7.31,7.04c1.17,1.13,2.35,2.23,3.53,3.32,2.75,2.56,5.6,5.21,8.3,8.19,2.58,2.84,5.43,5.46,8.46,8.23,2.41,2.21,4.85,4.47,7.24,6.9l.94-1.01c.9-.96,1.75-1.86,2.58-2.79l5.19-5.74c4.62-5.1,9.39-10.37,13.89-15.68.37-.44.93-1.55,1.41-2.53.94-1.89,2.12-4.25,4.01-6.34,6.33-6.99,12.9-13.92,19.26-20.62l7.33-7.75,6.94-7.37,5.8,10.14c.56.96,1.21,2.08,1.81,3.21,6.01,11.31,8.43,22.13,7.41,33.09-.87,9.37-3.77,18.25-8.74,26.95l1.86,3.96c.62,1.31,1.26,2.6,1.89,3.87,1.51,3.04,3.08,6.19,4.35,9.65,5.94,16.07,4.28,32.78-4.94,49.69-2.02,3.7-8.41,13.26-16.69,23.28,2.14,6.27,3.66,11.66,4.92,17.76,3.29,15.91,1.38,31.85-5.4,44.86-8.13,15.61-39.73,22.84-41.26,44.32l-.53,7.39-7.62-1.06c-28.24-3.92-47.86-41.91-44.67-86.48Z" fill="#103385" stroke-width="0"/><path d="M365.25,639.28c-1.51-21.6,35.91-34.69,41.67-45.74,6.39-12.26,8.18-27.33,5.06-42.42-1.2-5.79-2.14-9.7-4.27-15.93l-14.53,15.42s29.78-40.9,30.94-43.03c8.69-15.93,10.28-31.63,4.73-46.65-1.22-3.29-2.73-6.33-4.19-9.27-.74-1.5-1.34-2.71-1.93-3.95l-1.03-2.2-14.26,14.2,13.56-19.36c4.74-8.29,7.45-16.62,8.28-25.47.95-10.22-1.34-20.36-6.99-31-.58-1.09-1.2-2.16-1.74-3.08l-3.09-5.41-10.82,11.45c-6.25,6.59-12.72,13.41-18.92,20.27-1.54,1.71-2.55,3.72-3.43,5.5-.75,1.51-1.29,2.55-1.91,3.29-4.51,5.33-9.28,10.6-13.9,15.7l-5.25,5.8c-.66.74-1.35,1.48-2.07,2.25l-4.35,4.67-3-3.05c-2.43-2.47-4.93-4.79-7.08-6.76-2.94-2.7-5.99-5.48-8.72-8.49-2.59-2.85-5.37-5.44-8.07-7.95-1.26-1.17-2.43-2.26-3.59-3.37l-3.37-3.24-2.25,4.38c-7.31,14.21-8.93,28.4-4.82,42.18,1.95,6.55,5.45,11.7,9.37,17.67l17.25,23.35-17.86-17.81-1.03,2.1c-4.24,8.61-6.44,15.73-7.12,23.1-.98,10.56,1.75,20.51,6.6,31.18,2.21,4.86,11.68,17.87,11.68,17.87l-12.13-11.87c-1.55,6.4-1.8,9.57-2.27,16.19-3.04,42.56,15.06,78.75,41.21,82.38l3.43.48.24-3.36Z" fill="#facf2d" stroke-width="0"/><path d="M358.43,634.27c2.15-19.51,36.15-32.76,42-43.99,5.58-10.7,7.2-24.55,4.46-37.89-.44-1.96-.9-3.96-1.43-6.06-12.96,15.25-26.65,30.83-32.38,37.31-3.34,3.78-9.28,4.21-13.28.95-8.22-6.65-21.34-17.7-29.94-26.83-.09.88-.18,1.76-.23,2.63-2.51,35.14,11.3,67.43,30.81,73.87Z" fill="#103385" stroke-width="0"/><path d="M369.33,514.07l1.26-1.35c1.86-2,3.72-3.99,5.57-6.02,4.24-4.53,8.62-9.23,12.8-14.02,2.11-2.45,3.79-5.15,5.37-7.79,2.16-3.56,4.22-6.92,7.17-9.15,2.52-1.93,4.57-4.31,6.57-6.6l1.12-1.27c3.04-3.44,6.06-6.96,9.2-10.6l.05-.1c1.17,2.33,2.24,4.62,3.11,6.93,4.59,12.45,3.22,25.16-4.21,38.78-5.86,10.75-13.94,19.39-23.09,28.76-1.21,1.25-2.48,2.48-3.74,3.72-.66-.63-1.34-1.22-2.04-1.84-6.88-6.21-13.43-12.12-19.13-19.44Z" fill="#103385" stroke-width="0"/><path d="M388.46,533.51c-6.88-6.21-13.43-12.12-19.13-19.44l1.26-1.35c1.86-2,3.72-3.99,5.57-6.02,4.24-4.53,8.62-9.23,12.8-14.02,2.11-2.45,3.79-5.15,5.37-7.79,2.16-3.56,4.22-6.92,7.17-9.15,2.52-1.93,4.57-4.31,6.57-6.6l1.12-1.27c3.04-3.44,6.06-6.96,9.2-10.6l.05-.1c1.17,2.33,2.24,4.62,3.11,6.93,4.59,12.45,3.22,25.16-4.21,38.78-5.86,10.75-13.94,19.39-23.09,28.76-1.21,1.25-2.48,2.48-3.74,3.72-.66-.63-1.34-1.22-2.04-1.84Z" fill="#facf2d" stroke-width="0"/><path d="M369.33,514.07c5.7,7.33,12.25,13.24,19.13,19.44.7.62,1.38,1.21,2.04,1.84,1.26-1.23,2.53-2.46,3.74-3.72,9.16-9.36,17.23-18.01,23.09-28.76,7.43-13.62,8.8-26.34,4.21-38.78-.87-2.31-1.94-4.6-3.11-6.93l-.05.1c-3.14,3.64-49.06,56.8-49.06,56.8Z" fill="#103385" stroke-width="0"/><path d="M366.78,445.97c.76-.78,1.44-1.53,2.13-2.29l5.1-5.71c4.71-5.17,9.57-10.52,14.2-15.99,1.31-1.57,2.23-3.38,3.01-4.98.69-1.41,1.36-2.76,2.14-3.59,6.27-6.95,12.85-13.88,19.22-20.57l3.43-3.65c4.44,8.68,6.11,16.49,5.39,24.56-.91,9.68-4.56,18.8-11.12,28-2.49,3.46-5.2,7.12-8.13,10.41-3.86,4.28-7.82,8.44-11.78,12.59l-2.39,2.5-.58-.54c-7.48-6.7-14.63-13.06-20.63-20.74Z" fill="#103385" stroke-width="0"/><path d="M366.78,445.97c6,7.68,13.14,14.04,20.63,20.74l.58.54,2.39-2.5c3.96-4.15,7.91-8.3,11.78-12.59,2.93-3.29,5.64-6.94,8.13-10.41,6.57-9.2,10.21-18.32,11.12-28,.72-8.07-.95-15.88-5.39-24.56l-3.43,3.65c-6.37,6.7-12.94,13.62-19.22,20.57-.78.83-1.45,2.19-2.14,3.59-.79,1.6-1.71,3.41-3.01,4.98-4.64,5.47-9.49,10.82-14.2,15.99l-5.1,5.71c-.68.75-1.37,1.51-2.13,2.29Z" fill="#103385" stroke-width="0"/><path d="M323.41,455.47c-2.95-9.98-2.35-19.93,1.96-30.32,2.53,2.37,4.92,4.58,7.14,7.01,2.96,3.28,6.17,6.24,9.26,9.07,5,4.56,9.73,8.88,13.47,14.46,3.32,4.91,7.52,8.92,11.57,12.77,1.46,1.42,2.95,2.8,4.33,4.25,2.17,2.2,4.46,4.25,6.73,6.38.24.2.5.44.71.66-5.08,7.89-11.52,14.29-18.34,21.01l-.92.91c-1.65-1.6-3.35-3.2-5.04-4.79-5.21-4.89-10.57-9.98-15.52-15.32-7.48-8.04-12.51-16.6-15.36-26.09Z" fill="#103385" stroke-width="0"/><path d="M338.76,481.56c4.95,5.34,10.32,10.43,15.52,15.32,1.69,1.59,3.38,3.18,5.04,4.79l.92-.91c6.82-6.72,13.26-13.12,18.34-21.01-.21-.22-.47-.45-.71-.66-2.27-2.13-4.56-4.17-6.73-6.38-1.39-1.45-2.87-2.82-4.33-4.25-4.06-3.85-8.26-7.86-11.57-12.77-3.74-5.58-8.48-9.9-13.47-14.46-3.09-2.84-6.3-5.79-9.26-9.07-2.22-2.43-4.61-4.65-7.14-7.01-4.3,10.4-4.91,20.34-1.96,30.32,2.85,9.49,7.88,18.06,15.36,26.09Z" fill="#103385" stroke-width="0"/><path d="M324.39,507.51c.41-4.72,1.66-9.48,3.93-14.86l3.64,3.75c4.34,4.49,8.66,8.95,13.01,13.35,1.14,1.13,2.34,2.19,3.56,3.21,1.84,1.54,3.58,3.04,4.69,4.74,4.24,6.59,9.51,12.77,17.05,20.05,2.96,2.84,6.03,5.64,9.05,8.41l1.87,1.73c-4.85,7.49-10.93,13.61-17.36,20.04-.64.66-1.31,1.33-1.95,1.98-9.73-8.75-19.73-17.79-27.36-28.9-7.97-11.57-11.2-22.19-10.14-33.5Z" fill="#103385" stroke-width="0"/><path d="M334.53,541.02c7.63,11.12,17.63,20.15,27.36,28.9.64-.66,1.31-1.33,1.95-1.98,6.43-6.43,12.51-12.54,17.36-20.04l-1.87-1.73c-3.02-2.78-6.09-5.57-9.05-8.41-7.54-7.29-12.8-13.46-17.05-20.05-1.1-1.7-2.84-3.2-4.69-4.74-1.22-1.02-2.42-2.08-3.56-3.21-4.35-4.41-8.67-8.86-13.01-13.35l-3.64-3.75c-2.27,5.38-3.52,10.14-3.93,14.86-1.06,11.31,2.17,21.93,10.14,33.5Z" fill="#103385" stroke-width="0"/><path d="M221.2,638.2c10.39-57.35,30.21-106.23,58.9-145.29,18.39-25.03,35.03-38.29,41.33-42.83l-.14-.19,2.11-1.18c.22-.15.39-.26.51-.33l6.55-4.23.77.18,6.93-3.88c32.58-18.24,56.49-23.98,57.49-24.21l33.01-7.75-16.87,40.96-13.76,21.41c-.27.42-26.03,40.96-39.38,106.43l-1.02,4.98-3.64,3.66c-1.99,2-49.36,49.27-108.46,71.55l-29.87,11.26,5.53-30.54Z" fill="#103385" stroke-width="0"/><path d="M231.05,639.93c24.32-134.23,95.38-181.46,98.39-183.41l2.93-1.89,5.46,1.28-2.06-2.86,7.38-4.13c31.35-17.56,53.91-22.97,54.86-23.19l14.1-3.31-9.29,22.56-13.29,20.68c-.26.41-26.87,41.82-40.71,109.7l-.44,2.17-1.59,1.6c-1.93,1.94-47.82,47.73-104.89,69.25l-13.28,5.01,2.44-13.44Z" fill="#facf2d" stroke-width="0"/><path d="M395.95,444.68l4.01-11.55s-19.49-9.41-41.65,1.25c-4.94,2.38-5.49,17.98-11.09,21.12l9.07,12.6-22.36-5.25s-70.99,45.83-95.01,178.41c56.09-21.15,102.05-67.41,102.05-67.41,14.34-70.27,41.77-112.27,41.77-112.27,0,0-25.87,33.25-83.3,98.88,47.99-81.8,96.49-115.78,96.49-115.78Z" fill="#103385" stroke-width="0"/><path d="M163.01,566.89c-2.89-.07-5.82-.18-8.69-.33l-40.66-2.21,23.33-32.21c35.01-48.32,74.97-85.09,118.77-109.31,24.21-13.38,43.5-19.34,53.53-21.8l-.15-.81,7.02-.65c.19-.03.34-.06.45-.07l9.76-1.51.75.57,6.22-.58c12.17-1.13,24.17-1.57,35.66-1.31,17.02.39,27.39,2.22,28.51,2.42l40.8,7.55-42.2,42.87-6.91,1.33c-.51.11-9.76,2.06-25.27,7.59l3.24,6.23-13.07,6.34c-1.02.51-37.44,19.31-76.4,70.73l-3.46,4.58-5.34,2.35c-2.85,1.25-28.71,12.19-67.98,16.55-12.6,1.4-25.37,1.96-37.94,1.68h0Z" fill="#103385" stroke-width="0"/><path d="M199.25,551.07c37.94-4.21,62.6-14.93,63.64-15.38l1.89-.83,1.22-1.61c42.03-55.47,81.16-74.77,81.55-74.96l-3.85-7.4c26.3-10.73,42.3-13.93,42.6-13.99l2.48-.48,20.36-20.69-14.26-2.64c-.96-.18-23.86-4.3-60.09-.93l-8.51.79.62,3.45-4.44-3.37-3.49.54c-3.59.56-88.97,14.93-170.04,126.82l-8.1,11.18,14.26.77c14.58.79,29.44.36,44.17-1.27Z" fill="#facf2d" stroke-width="0"/><path d="M394.63,310.44l-3.63-5.94c-.04-.06-5.01-7.99-15.91-20.76l-5.17,4.89-10.14-9.51c-.8-.72-31.18-27.87-94.88-47.12l-5.59-1.68-4.05-4.1c-1.52-1.54-37.27-38.25-54.67-98.45l-10.9-37.69,38.84,10.88c59.19,16.59,108.53,41.28,146.63,73.36,21.24,17.89,33.39,33.62,39.02,41.91l.72-.37,2.8,5.95c.11.19.19.34.25.45l4.8,8.67-.34.89,2.42,5.14c15.55,32.98,19.18,56.15,19.54,58.68l5.58,39.26-55.34-24.48Z" fill="#103385" stroke-width="0"/><path d="M429.94,297.58c-.13-.92-3.38-22.95-18.35-54.69l-3.52-7.46-3.22,1.64,1.93-5.07-1.66-2.99c-1.71-3.08-43.37-75.89-180.57-114.35l-13.71-3.84,3.8,13.15c16.42,56.81,49.71,90.98,51.12,92.4l1.43,1.45,1.99.6c68.61,20.73,100.35,50.13,100.66,50.43l6.09-5.77c19.07,20.43,27.44,33.93,27.6,34.18l1.27,2.08,27.09,11.98-1.95-13.73Z" fill="#facf2d" stroke-width="0"/><path d="M410.43,293.44l11.6,5.13s-3.05-21.48-17.71-52.59l-14.08,7.16,7.84-20.61s-40.21-72.59-175.74-110.58c16.09,55.63,49.23,89.19,49.23,89.19,71.66,21.65,103.89,52.29,103.89,52.29,0,0-13.11-12.8-75.37-74.8,80.1,54.9,110.36,104.81,110.36,104.81Z" fill="#103385" stroke-width="0"/><path d="M404.19,284.87l-5.49-4.38c-.05-.04-7.51-5.85-22.21-14.22l-3.13,6.33-12.85-5.57c-.89-.37-29.23-11.86-79.45-13.01-8.52-.19-17.31-.08-26.12.34l-5.83.28-5.24-2.51c-1.96-.94-48.39-23.55-85.83-74.38l-23.45-31.83,40.27-2.72c15.14-1.02,30.13-1.37,44.57-1.04,48.64,1.11,92.32,9.7,129.81,25.53,19.95,8.42,33.28,16.99,40.26,22.04l.55-.59,4.72,4.66c.17.14.3.26.39.33l7.55,6.56v.95s4.07,4.03,4.07,4.03c26.14,25.83,37.68,46.43,38.91,48.69l19,35.08-60.52-4.57Z" fill="#103385" stroke-width="0"/><path d="M432.83,260.99c-.45-.82-11.22-20.46-36.39-45.34l-5.92-5.85-2.45,2.61.03-5.41-2.6-2.26c-2.68-2.33-67.32-56.94-209.56-47.34l-14.22.96,8.18,11.1c35.33,47.98,78.55,69.01,80.37,69.89l1.85.89,2.08-.1c71.66-3.39,111.75,13.69,112.15,13.86l3.7-7.47c25.05,12.86,37.65,22.77,37.88,22.95l1.92,1.54,29.62,2.24-6.64-12.27Z" fill="#facf2d" stroke-width="0"/><path d="M413.07,263.6l12.68.96s-10.4-19.19-35.06-43.57l-10.71,11.44.13-22s-63.19-54.88-203.7-45.41c34.6,46.98,77.47,67.49,77.47,67.49,74.84-3.54,115.83,14.54,115.83,14.54,0,0-16.79-7.67-96.96-45.23,94.43,24.93,140.31,61.79,140.31,61.79Z" fill="#103385" stroke-width="0"/><path d="M384.67,429.43l8.72-8.86s-22.31-4.12-57.8-.83l2.72,15.05-18.03-13.7s-84.71,13.13-164.79,123.65c60.32,3.28,104.01-15.97,104.01-15.97,43.9-57.93,84.41-77.29,84.41-77.29,0,0-16.82,7.76-97.88,44.26,79.58-54.92,138.63-66.31,138.63-66.31Z" fill="#103385" stroke-width="0"/><path d="M578.66,290.54l1.53-7.21c.48-2.28,11.15-56.48-46.11-118.45-9.76-10.57-28.49-22.54-46.59-34.11-14.33-9.16-29.15-18.63-34.73-24.67l-14.32-15.5.08,20.94c.02,4.92.44,9.39,1.22,13.5-3.54-2.15-7.18-4.29-10.93-6.42-5.26-2.99-10.73-5.95-16.24-8.81l-14.09-8.02-71.14-40.44,2.66,16.72c.16,1,3.54,20.86,21.57,42.4-10.67-3.69-21.79-7.02-33.36-9.97h0c-7.58-1.44-15.29-2.17-23.01-2.18l-41.8.61-14.57.21c8.51,10.82,29.92,32.05,40.27,39.56-21.98-3.98-32.43-4.52-56.03-1.35l-13.21,1.08s5.11,21.34,23.69,34.57c-24.82-2.62-51.39-2.54-84.04,3.76l-21.76,4.2s24.27,13.79,32.31,18.25c-17.53,1.83-40.69,14.66-40.69,14.66l27.08,20.18c-29.83,14.85-46.71,24.51-67.54,46.26l-10.2,10.66,74.85,18.73c-18.02,7.27-78.45,53.08-78.45,53.08l14.04,5.52c.83.33,16.43,6.38,33.43,7.96-13.9,11.19-25.03,22.76-33.25,34.66l-6.36,9.2,10.79,3.43c34.39,10.93,57.48,11.93,71.66,10.43-28.38,22.67-49.59,59.74-49.59,59.74,0,0,64.81,10.92,122.82-11.28-17.24,26.87-33.92,62.08-43.24,106.07l-3.13,14.76,14.13-5.17c70.79-25.88,99.9-68.09,101.65-69.84l2.67-2.69-.1-1.13.22.2,5.55-4.88c27.88-24.55,47.22-55.71,48.03-57.02l26.28-45.85-11.06,3.57c-3.2-3.84-27.9,16.46-29.9,5.58l-2.07-11.28,10.16-34.84c2.58-.51,4.04-.75,4.13-.76l2.68-.4,21.53-21.87-15.48-2.86c-.38-.07-4.18-.75-10.86-1.35,4.7-.3,9.49-.58,14.45-.81l4.52-.21,7.75-13.95,3.71-6.8-6.61-4.25s-.32-.2-.93-.56c8.29-4.03,13.9-11.32,14.79-12.52l1.82-2.48,14.76,4.62-6.45-8.84,3.83-6.89,1.6,5.8,23.4-14.91-.73-1.88.32-.1c17.6,2.38,29.65-2.01,36.34-13.16l.21-.26,2.84,1.64s16.67-6.38,17.54-5.89c7.01,3.98,14.86,1.91,16.37,1.46l6.12-1.86-.32-5.02c2.98,2.15,5.89,3.91,8.01,5.12h0c15.52,8.83,22.24,8,25.42,6.33l.07.21,27.96,2.13-.05-.48,12.09,1.4Z" fill="#facf2d" stroke-width="0"/><path d="M572.12,281.49s10.92-51.56-44.05-111.06c-17.03-18.44-67.88-44.23-81.32-58.78.04,10.92,2.18,18.4,5.21,23.68,105.42,65.57,111.84,145.2,111.84,145.2l8.33.97Z" fill="#103385" stroke-width="0"/><path d="M557.39,280.65s-9.78-91.82-148.51-163.53l-7.16,12.89-9.69-22.46-53.9-30.64s4.23,26.58,31.93,50.8c35.81,12.28,68.79,39.84,98.12,67.7,59.68,35.81,76.45,84.27,76.45,84.27l12.76.97Z" fill="#103385" stroke-width="0"/><path d="M535.12,277.42c-17.92-41.23-55.25-64.68-55.25-64.68,0,0,19.55,34.34,21.68,48.74,7.94,10.79,37.28,24.47,33.57,15.94Z" fill="#103385" stroke-width="0"/><path d="M370.06,432.45s-37.23,62.81-64.53,86.85l-15.09-5.46,8.67,12.37s-35.73,48.59-105.66,74.15c27.3-128.93,105.5-182.78,105.5-182.78l20.89,6.85-9.55-13.59,26.32-12.04-7.7,26.39c-56.51,47-82.75,94.25-82.75,94.25,0,0,64.38-69.03,92.7-88.1,2.83,15.42,31.19,1.11,31.19,1.11Z" fill="#103385" stroke-width="0"/><path d="M350.61,381.01l8.72-8.86s-22.31-4.12-57.8-.83l2.72,15.05-18.03-13.7s-84.71,13.13-164.79,123.65c60.32,3.28,104.01-15.97,104.01-15.97,43.9-57.93,84.41-77.29,84.41-77.29,0,0-16.82,7.76-97.88,44.26,79.58-54.92,138.63-66.31,138.63-66.31Z" fill="#103385" stroke-width="0"/><path d="M363.76,353.64l5.57-10.02s-30.82-26.88-128.3-12.12l.81,25.89-18.53-21.36s-98.42,33.54-137.2,89.67c60.14,19.12,83.35,6.41,83.35,6.41,34.54-33.11,79.35-56.2,79.35-56.2l-38.05,10.92s35.03-27.71,152.99-33.18Z" fill="#103385" stroke-width="0"/><path d="M359.16,330.3c11.48,2.13,21.69-11.69,21.69-11.69,0,0-89.29-60.12-237.73,10.45l4.66,26.67-19.92-18.86-45.83,33.76s24.17,9.5,43.81,7.48c107.62-78.54,175.98-58.45,233.31-47.81Z" fill="#103385" stroke-width="0"/><path d="M269.84,287.05s-46.71,1.15-111.11,27.02l-41.64-11.2-1.67-13.42-9.21,11.87-21.32-5.24c58.8-61.39,147.19-50.2,147.19-50.2l87.91,42.79s-112.15-30.51-172.5-13.63c63.76-3.63,122.35,12.02,122.35,12.02Z" fill="#103385" stroke-width="0"/><path d="M484.56,276.03c3.38,7.88,13.47,4.83,13.47,4.83,0,0-8.28-118.19-181.73-162.36l-10.34,18.61-5.46-20.53-42.94-.07c49.83,63.33,103.23,33.88,205.93,133.69,0,0-17.21-31.13-66.82-73.77,0,0,61.75,38.56,87.89,99.6Z" fill="#103385" stroke-width="0"/><path d="M455.62,280.89c-27.93,49.35-209.87-93.55-209.87-93.55,0,0-7.65-9.32-21.76-31.78,154.55-12.62,248.63,118.67,248.63,118.67l-7.03,3.54-68.8-39.73s67.66,27.26,58.83,42.86Z" fill="none" stroke-width="0"/><path d="M456.81,286.94c-4.69,5.73-40.31-13.02-74.66-33.37-22.79-13.5-42.01-32.28-65.29-44.33-37.38-19.36-71.11-21.89-71.11-21.89,0,0-7.65-9.32-21.76-31.78,125.69-17.09,248.25,105.63,257.38,129.65l-6.37,1.11c-4.16,2.09-2.8.57-6.63-2.21-8.89-6.45-37.13-30.15-71.57-46.08,50.47,33.4,60.02,48.9,60.02,48.9Z" fill="#103385" stroke-width="0"/><path d="M152.9,197.03c78.37-15.11,132.2,8.53,132.2,8.53l-2.44,15.79,19.99-11.47c83.37,47.11,102.19,94.93,102.19,94.93l-8.9,3.31s-40.57-40.96-116.44-66.81c87.45,47.19,105.06,71.33,105.06,71.33-126.98-66.1-231.65-115.61-231.65-115.61Z" fill="#103385" stroke-width="0"/><path d="M213.98,236.84l-38.47-19.67c-24.05-1.74-41.04,7.76-41.04,7.76l23.06,17.19c15.94-4.75,56.44-5.28,56.44-5.28Z" fill="#103385" stroke-width="0"/><path d="M385.54,265.04l51.61,27.75-12.95,3.94-14.24-10.03,6.61,11.98-8.33,5.31c-4.3-15.63-22.69-38.95-22.69-38.95Z" fill="#103385" stroke-width="0"/><path d="M312.49,325.37l11.01-6.27c106.2-60.46,186.36-70.45,257.17-72.24.76-.02,1.49-.02,2.18,0,7.58.17,13.28,2.46,16.95,6.79,5.44,6.42,4.13,14.07,3.27,19.14-.12.71-.28,1.63-.34,2.16l-.03.24.04.24c2.28,14.39,12.13,51.91,16.26,67.37,1.26,4.7.34,9.67-2.52,13.64-2.89,4.02-7.46,6.57-12.51,7.01-31.2,2.7-138.43,13.41-208.06,37.67l-6.07,2.12-77.34-77.84Z" fill="#103385" stroke-width="0"/><path d="M324.18,326.95l3-1.71c104.79-59.66,183.86-69.52,253.7-71.28.63-.02,1.24-.02,1.82,0,5.44.12,9.2,1.5,11.5,4.2,3.32,3.91,2.41,9.19,1.69,13.43-.28,1.65-.58,3.37-.44,4.26,2.16,14.29,12.26,52.81,16.51,68.71.72,2.68.19,5.51-1.44,7.77-1.67,2.31-4.3,3.78-7.22,4.03-31.42,2.72-139.4,13.51-209.86,38.05l-1.66.58-67.6-68.03Z" fill="#103385" stroke-width="0"/><path d="M328.57,327.54c108.08-61.54,188.58-69.31,252.4-70.92,19.3-.49,10.94,14.02,11.78,19.6,2.17,14.36,12.16,52.48,16.56,68.99,1.09,4.08-1.88,8.11-6.27,8.49-30.77,2.67-139.56,13.47-210.53,38.2l-63.94-64.36Z" fill="#103385" stroke-width="0"/><g clip-path="url(#d)"><polygon points="591 351.02 610.12 348.4 607.62 333.14 588.5 335.76 591 351.02" fill="#103385" stroke-width="0"/><polygon points="583.51 305.25 599.48 302.94 596.98 287.68 594.49 272.43 578.51 274.75 581.01 290 565.04 292.32 567.53 307.57 551.56 309.89 554.06 325.14 538.09 327.46 540.58 342.71 524.61 345.03 527.11 360.28 543.08 357.96 559.05 355.65 556.56 340.39 572.53 338.08 570.03 322.82 586 320.51 583.51 305.25" fill="#103385" stroke-width="0"/><polygon points="576.02 259.49 591.99 257.18 589.49 241.92 573.52 244.24 576.02 259.49" fill="#facf2d" stroke-width="0"/><polygon points="578.51 274.75 594.49 272.43 591.99 257.18 576.02 259.49 560.04 261.81 562.54 277.06 546.57 279.38 549.07 294.63 533.09 296.95 535.59 312.2 519.62 314.52 522.11 329.77 506.14 332.09 508.64 347.34 492.67 349.66 495.16 364.91 511.14 362.6 527.11 360.28 524.61 345.03 540.58 342.71 538.09 327.46 554.06 325.14 551.56 309.89 567.53 307.57 565.04 292.32 581.01 290 578.51 274.75" fill="#facf2d" stroke-width="0"/><polygon points="560.04 261.81 576.02 259.49 573.52 244.24 557.55 246.55 560.04 261.81" fill="#fff" stroke-width="0"/><polygon points="544.07 264.12 560.04 261.81 557.55 246.55 541.58 248.87 544.07 264.12" fill="#fff" stroke-width="0"/><polygon points="546.57 279.38 562.54 277.06 560.04 261.81 544.07 264.12 528.1 266.44 530.6 281.69 514.63 284.01 517.12 299.26 501.15 301.58 503.65 316.83 487.67 319.15 490.17 334.4 474.2 336.72 476.7 351.97 460.72 354.29 463.22 369.54 479.19 367.23 495.16 364.91 492.67 349.66 508.64 347.34 506.14 332.09 522.11 329.77 519.62 314.52 535.59 312.2 533.09 296.95 549.07 294.63 546.57 279.38" fill="#fff" stroke-width="0"/><polygon points="528.1 266.44 544.07 264.12 541.58 248.87 525.6 251.18 528.1 266.44" fill="#103385" stroke-width="0"/><polygon points="512.13 268.75 528.1 266.44 525.6 251.18 509.63 253.5 512.13 268.75" fill="#103385" stroke-width="0"/><polygon points="496.16 271.07 512.13 268.75 509.63 253.5 493.66 255.81 496.16 271.07" fill="#103385" stroke-width="0"/><polygon points="399.33 378.8 415.3 376.49 412.81 361.23 396.84 363.55 399.33 378.8" fill="#103385" stroke-width="0"/><polygon points="480.18 273.38 496.16 271.07 493.66 255.81 477.69 258.13 480.18 273.38" fill="#103385" stroke-width="0"/><polygon points="514.63 284.01 530.6 281.69 528.1 266.44 512.13 268.75 496.16 271.07 480.18 273.38 464.21 275.7 466.71 290.95 450.74 293.27 453.23 308.52 437.26 310.84 439.76 326.09 423.79 328.41 426.28 343.66 410.31 345.98 412.81 361.23 415.3 376.49 431.28 374.17 447.25 371.86 463.22 369.54 460.72 354.29 476.7 351.97 474.2 336.72 490.17 334.4 487.67 319.15 503.65 316.83 501.15 301.58 517.12 299.26 514.63 284.01" fill="#103385" stroke-width="0"/><polygon points="383.36 381.12 399.33 378.8 396.84 363.55 380.86 365.86 383.36 381.12" fill="#facf2d" stroke-width="0"/><polygon points="396.84 363.55 412.81 361.23 410.31 345.98 394.34 348.29 396.84 363.55" fill="#facf2d" stroke-width="0"/><polygon points="464.21 275.7 480.18 273.38 477.69 258.13 461.72 260.44 464.21 275.7" fill="#facf2d" stroke-width="0"/><polygon points="367.39 383.43 383.36 381.12 380.86 365.86 364.89 368.18 367.39 383.43" fill="#facf2d" stroke-width="0"/><polygon points="380.86 365.86 396.84 363.55 394.34 348.29 378.37 350.61 380.86 365.86" fill="#facf2d" stroke-width="0"/><polygon points="394.34 348.29 410.31 345.98 407.81 330.72 391.84 333.04 394.34 348.29" fill="#facf2d" stroke-width="0"/><polygon points="448.24 278.01 464.21 275.7 461.72 260.44 445.74 262.76 448.24 278.01" fill="#facf2d" stroke-width="0"/><polygon points="450.74 293.27 466.71 290.95 464.21 275.7 448.24 278.01 432.27 280.33 434.76 295.58 418.79 297.9 421.29 313.15 405.32 315.47 407.81 330.72 410.31 345.98 426.28 343.66 423.79 328.41 439.76 326.09 437.26 310.84 453.23 308.52 450.74 293.27" fill="#facf2d" stroke-width="0"/><polygon points="351.42 385.75 367.39 383.43 364.89 368.18 348.92 370.49 351.42 385.75" fill="#fff" stroke-width="0"/><polygon points="364.89 368.18 380.86 365.86 378.37 350.61 362.39 352.92 364.89 368.18" fill="#fff" stroke-width="0"/><polygon points="378.37 350.61 394.34 348.29 391.84 333.04 375.87 335.35 378.37 350.61" fill="#fff" stroke-width="0"/><polygon points="432.27 280.33 448.24 278.01 445.74 262.76 429.77 265.07 432.27 280.33" fill="#fff" stroke-width="0"/><polygon points="335.44 388.06 351.42 385.75 348.92 370.49 332.95 372.81 335.44 388.06" fill="#fff" stroke-width="0"/><polygon points="348.92 370.49 364.89 368.18 362.39 352.92 346.42 355.24 348.92 370.49" fill="#fff" stroke-width="0"/><polygon points="362.39 352.92 378.37 350.61 375.87 335.35 359.9 337.67 362.39 352.92" fill="#fff" stroke-width="0"/><polygon points="375.87 335.35 391.84 333.04 389.35 317.78 373.37 320.1 375.87 335.35" fill="#fff" stroke-width="0"/><polygon points="416.3 282.64 432.27 280.33 429.77 265.07 413.8 267.39 416.3 282.64" fill="#fff" stroke-width="0"/><polygon points="319.47 390.38 335.44 388.06 332.95 372.81 316.98 375.12 319.47 390.38" fill="#fff" stroke-width="0"/><polygon points="332.95 372.81 348.92 370.49 346.42 355.24 330.45 357.55 332.95 372.81" fill="#fff" stroke-width="0"/><polygon points="346.42 355.24 362.39 352.92 359.9 337.67 343.93 339.98 346.42 355.24" fill="#fff" stroke-width="0"/><polygon points="359.9 337.67 375.87 335.35 373.37 320.1 357.4 322.41 359.9 337.67" fill="#fff" stroke-width="0"/><polygon points="400.32 284.96 416.3 282.64 413.8 267.39 397.83 269.7 400.32 284.96" fill="#fff" stroke-width="0"/><polygon points="418.79 297.9 434.76 295.58 432.27 280.33 416.3 282.64 400.32 284.96 384.35 287.27 386.85 302.53 370.88 304.84 373.37 320.1 389.35 317.78 391.84 333.04 407.81 330.72 405.32 315.47 421.29 313.15 418.79 297.9" fill="#fff" stroke-width="0"/><polygon points="303.5 392.69 319.47 390.38 316.98 375.12 301 377.44 303.5 392.69" fill="#fff" stroke-width="0"/><polygon points="316.98 375.12 332.95 372.81 330.45 357.55 314.48 359.87 316.98 375.12" fill="#fff" stroke-width="0"/><polygon points="330.45 357.55 346.42 355.24 343.93 339.98 327.95 342.3 330.45 357.55" fill="#fff" stroke-width="0"/><polygon points="343.93 339.98 359.9 337.67 357.4 322.41 341.43 324.73 343.93 339.98" fill="#fff" stroke-width="0"/><polygon points="357.4 322.41 373.37 320.1 370.88 304.84 354.9 307.16 357.4 322.41" fill="#fff" stroke-width="0"/><polygon points="384.35 287.27 400.32 284.96 397.83 269.7 381.86 272.02 384.35 287.27" fill="#fff" stroke-width="0"/><polygon points="370.88 304.84 386.85 302.53 384.35 287.27 368.38 289.59 370.88 304.84" fill="#fff" stroke-width="0"/><polygon points="287.53 395.01 303.5 392.69 301 377.44 285.03 379.76 287.53 395.01" fill="#103385" stroke-width="0"/><polygon points="301 377.44 316.98 375.12 314.48 359.87 298.51 362.19 301 377.44" fill="#103385" stroke-width="0"/><polygon points="314.48 359.87 330.45 357.55 327.95 342.3 311.98 344.62 314.48 359.87" fill="#103385" stroke-width="0"/><polygon points="327.95 342.3 343.93 339.98 341.43 324.73 325.46 327.05 327.95 342.3" fill="#103385" stroke-width="0"/><polygon points="341.43 324.73 357.4 322.41 354.9 307.16 338.93 309.48 341.43 324.73" fill="#103385" stroke-width="0"/><polygon points="368.38 289.59 384.35 287.27 381.86 272.02 365.88 274.34 368.38 289.59" fill="#103385" stroke-width="0"/><polygon points="354.9 307.16 370.88 304.84 368.38 289.59 352.41 291.91 354.9 307.16" fill="#103385" stroke-width="0"/><polygon points="271.56 397.33 287.53 395.01 285.03 379.76 269.06 382.07 271.56 397.33" fill="#103385" stroke-width="0"/><polygon points="285.03 379.76 301 377.44 298.51 362.19 282.53 364.5 285.03 379.76" fill="#103385" stroke-width="0"/><polygon points="298.51 362.19 314.48 359.87 311.98 344.62 296.01 346.93 298.51 362.19" fill="#103385" stroke-width="0"/><polygon points="311.98 344.62 327.95 342.3 325.46 327.05 309.49 329.36 311.98 344.62" fill="#103385" stroke-width="0"/><polygon points="325.46 327.05 341.43 324.73 338.93 309.48 322.96 311.79 325.46 327.05" fill="#103385" stroke-width="0"/><polygon points="352.41 291.91 368.38 289.59 365.88 274.34 349.91 276.65 352.41 291.91" fill="#103385" stroke-width="0"/><polygon points="338.93 309.48 354.9 307.16 352.41 291.91 336.44 294.22 338.93 309.48" fill="#103385" stroke-width="0"/><polygon points="604.47 333.45 601.98 318.19 599.48 302.94 583.51 305.25 586 320.51 570.03 322.82 572.53 338.08 556.56 340.39 559.05 355.65 575.02 353.33 591 351.02 588.5 335.76 604.47 333.45" fill="#fff" stroke-width="0"/><path d="M590.07,263.07c-20.62.52-46.06,2.6-62.41,4.42-64.65,7.18-125.09,27.28-189.61,63.12" fill="none" stroke="#ffde17" stroke-miterlimit="10" stroke-width="8.99"/><path d="M590.1,261.3c-20.62.52-46.06,2.6-62.41,4.42-64.65,7.18-125.09,27.28-189.61,63.12" fill="none" stroke="#ffde17" stroke-miterlimit="10" stroke-width="8.99"/><path d="M394.18,383.49c53.12-17.85,124.65-28.34,175.86-34.02,14.1-1.57,32.49-3.55,39.52-4.15" fill="none" stroke="#ffde17" stroke-miterlimit="10" stroke-width="8.99"/><path d="M394.15,385.26c53.12-17.85,124.65-28.34,175.86-34.02,14.1-1.57,32.49-3.55,39.52-4.15" fill="none" stroke="#ffde17" stroke-miterlimit="10" stroke-width="8.99"/></g><path d="M403.39,580.81c-.66.33-1.34.6-2.02.81-5.95,1.84-11.97-.93-14.63-6.73-.93-2.04-22.75-51.27-11.82-165.92.54-5.69,3.86-10.7,8.65-13.08.66-.33,1.35-.6,2.04-.82,1.33-.41,2.68-.6,4.03-.56,3.55.1,6.75,1.74,8.99,4.61,2.25,2.88,3.28,6.64,2.9,10.61-9.92,104.07,9.13,149.74,9.32,150.18,3.16,7.03.34,16.11-6.28,20.23-.39.24-.79.47-1.19.67Z" fill="#fff" stroke-width="0"/><path d="M400.11,574.73c-3.01.93-6.16-.41-7.56-3.48-.9-1.97-21.94-49.45-11.2-162.09.4-4.24,3.82-7.59,7.62-7.48,3.8.11,6.56,3.63,6.15,7.87-10.25,107.57,9.69,153.47,9.9,153.92,1.64,3.66.2,8.36-3.23,10.49-.54.34-1.1.59-1.66.77Z" fill="#103385" stroke-width="0"/><path d="M405.85,558.57c-.59.29-1.2.53-1.82.71l-14.94,4.33c-.57.17-1.15.28-1.74.35-5.11.58-9.57-2.79-10.62-8l-2.94-14.61c-.39-1.96-.27-4.04.34-6.01-1.24-1.39-2.08-3.13-2.44-5.1l-2.68-14.68c-.44-2.42-.11-4.95.92-7.24-1.14-1.5-1.87-3.35-2.08-5.34l-1.63-14.93c-.32-2.91.44-5.89,2.14-8.38,1.19-1.75,2.79-3.15,4.63-4.07.87-.43,1.77-.74,2.69-.93l15.14-3.04c.29-.06.58-.1.87-.14,5.52-.62,10.15,3.25,10.78,9.02l1.63,14.93c.22,2-.07,4.01-.83,5.9.78,1.18,1.33,2.54,1.6,4.01l2.68,14.68c.34,1.87.22,3.8-.34,5.66,1.15,1.33,1.94,2.96,2.31,4.78l2.94,14.61c.58,2.87.06,5.91-1.46,8.56-1.21,2.12-3.05,3.87-5.16,4.92Z" fill="#fff" stroke-width="0"/><path d="M393.99,501.77l-15.14,3.04c-2.28.46-4.34-1-4.58-3.25l-1.63-14.93c-.25-2.25,1.41-4.45,3.69-4.91l15.14-3.04c2.28-.46,4.34,1,4.58,3.25l1.63,14.93c.25,2.25-1.41,4.45-3.69,4.91Z" fill="#facf2d" stroke-width="0"/><path d="M397.85,527.12l-14.99,4.07c-2.26.61-4.42-.68-4.83-2.9l-2.68-14.68c-.4-2.22,1.1-4.51,3.36-5.13l14.99-4.07c2.26-.61,4.42.68,4.83,2.9l2.68,14.68c.4,2.22-1.1,4.51-3.36,5.13Z" fill="#103385" stroke-width="0"/><path d="M402.87,552.36l-14.94,4.33c-2.25.65-4.44-.61-4.89-2.81l-2.94-14.61c-.44-2.21,1.02-4.52,3.28-5.18l14.94-4.33c2.25-.65,4.44.61,4.89,2.81l2.94,14.61c.44,2.21-1.02,4.52-3.28,5.18Z" fill="#facf2d" stroke-width="0"/><path d="M287.91,565.08c.51.48,1.07.91,1.65,1.29,5.05,3.28,11.75,2.18,16.3-2.68,1.6-1.71,39.45-43.13,68.66-155.4,1.45-5.57.02-11.2-3.73-14.7-.52-.48-1.08-.92-1.67-1.3-1.12-.73-2.36-1.26-3.66-1.56-3.43-.81-7.04-.06-10.18,2.11-3.14,2.17-5.42,5.5-6.43,9.39-26.52,101.9-60.5,140.63-60.84,141.01-5.44,5.9-5.9,15.29-1,20.92.29.33.59.65.91.94Z" fill="#fff" stroke-width="0"/><path d="M293.15,560.11c2.55,1.66,6.02,1.18,8.42-1.39,1.54-1.65,38.05-41.6,66.75-151.9,1.08-4.15-1.02-8.22-4.69-9.09-3.67-.87-7.52,1.79-8.6,5.94-27.41,105.33-62.33,144.05-62.67,144.43-2.83,3.07-3.08,7.93-.54,10.85.4.46.85.85,1.32,1.16Z" fill="#103385" stroke-width="0"/><path d="M293.26,543.22c.46.43.97.82,1.5,1.15l12.77,7.95c.49.3,1,.57,1.54.78,4.68,1.86,10.1-.21,12.9-4.92l7.86-13.19c1.05-1.77,1.66-3.79,1.75-5.83,1.67-1.01,3.07-2.45,4.09-4.24l7.64-13.33c1.26-2.2,1.82-4.69,1.62-7.15,1.61-1.14,2.94-2.72,3.84-4.57l6.72-13.84c1.31-2.7,1.61-5.74.85-8.55-.53-1.97-1.57-3.73-3.01-5.06-.68-.63-1.44-1.16-2.25-1.57l-13.4-6.77c-.25-.13-.52-.25-.78-.35-5.05-2.01-10.82.51-13.41,5.86l-6.72,13.84c-.9,1.85-1.32,3.85-1.25,5.85-1.16.93-2.15,2.09-2.91,3.42l-7.63,13.33c-.97,1.7-1.53,3.57-1.63,5.5-1.56.97-2.88,2.32-3.86,3.98l-7.86,13.2c-1.54,2.59-2.1,5.63-1.57,8.54.43,2.34,1.57,4.47,3.22,6.01Z" fill="#fff" stroke-width="0"/><path d="M324.22,492.02l13.4,6.77c2.02,1.02,4.49.16,5.5-1.93l6.72-13.84c1.01-2.09.2-4.61-1.83-5.63l-13.4-6.77c-2.02-1.02-4.49-.16-5.5,1.93l-6.72,13.84c-1.01,2.09-.2,4.61,1.83,5.63Z" fill="#facf2d" stroke-width="0"/><path d="M311.77,515.23l12.9,7.72c1.95,1.16,4.46.48,5.61-1.53l7.64-13.33c1.15-2.01.51-4.59-1.44-5.75l-12.9-7.72c-1.95-1.16-4.46-.48-5.61,1.53l-7.64,13.33c-1.15,2.01-.51,4.59,1.44,5.75Z" fill="#103385" stroke-width="0"/><path d="M298.25,538.05l12.77,7.95c1.93,1.2,4.45.56,5.64-1.43l7.86-13.2c1.19-1.99.59-4.58-1.34-5.78l-12.77-7.95c-1.93-1.2-4.45-.56-5.64,1.43l-7.86,13.2c-1.19,1.99-.59,4.58,1.34,5.78Z" fill="#facf2d" stroke-width="0"/><path d="M368.46,421.1c-17.71-3.4-33.67-11.56-46.16-23.59-19.48-18.63-28.3-44.7-23.55-69.72,8.15-42.92,53.05-70.84,100.08-62.24l.83.16c46.52,8.93,77.79,50.79,69.72,93.31-5.26,27.7-26.55,50.56-55.56,59.65-14.19,4.43-29.58,5.33-44.53,2.59l-.84-.16Z" fill="#fff" stroke-width="0"/><path d="M304.58,328.87c-4.53,23.86,4.37,47.42,21.82,64.1,11.49,11.08,26.64,19.04,44.04,22.22,14.51,2.65,28.82,1.63,41.77-2.42,25.97-8.14,46.32-28.37,51.35-54.84,7.51-39.58-22.03-78.31-65.85-86.32-43.89-8.03-85.6,17.68-93.11,57.26Z" fill="#103385" stroke-width="0"/><ellipse cx="384.03" cy="343.42" rx="60.94" ry="67.39" transform="translate(-13.08 671.63) rotate(-81.38)" fill="#facf2d" stroke-width="0"/><ellipse cx="384.03" cy="343.42" rx="46.99" ry="51.97" transform="translate(-13.08 671.63) rotate(-81.38)" fill="#103385" stroke-width="0"/><ellipse cx="384.03" cy="343.42" rx="14.09" ry="15.58" transform="translate(-13.08 671.63) rotate(-81.38)" fill="#fff" stroke-width="0"/><ellipse cx="384.03" cy="343.42" rx="7.43" ry="8.22" transform="translate(-13.08 671.63) rotate(-81.38)" fill="#103385" stroke-width="0"/><polygon points="379.17 303.02 403.39 307.45 395.53 315.82 399.79 326.4 375.57 321.97 383.42 313.6 379.17 303.02" fill="#facf2d" stroke-width="0"/><polygon points="368.13 361.17 392.35 365.6 384.5 373.96 388.75 384.54 364.53 380.11 372.38 371.75 368.13 361.17" fill="#facf2d" stroke-width="0"/><polygon points="339.21 346.92 343.36 325.04 352.81 332.43 364.34 328.88 360.18 350.75 350.73 343.37 339.21 346.92" fill="#facf2d" stroke-width="0"/><polygon points="403.58 358.69 407.73 336.81 417.18 344.2 428.71 340.65 424.56 362.52 415.11 355.14 403.58 358.69" fill="#facf2d" stroke-width="0"/><polygon points="417 322.22 407.53 330.34 404.22 330.58 405.64 327.72 417 322.22" fill="#fff" stroke-width="0"/><polygon points="351.09 365.33 362.45 359.83 363.87 356.97 360.56 357.21 351.09 365.33" fill="#fff" stroke-width="0"/><polygon points="406.98 375.53 398.37 366.38 398.09 363.22 401.09 364.6 406.98 375.53" fill="#fff" stroke-width="0"/><polygon points="361.11 312.02 367 322.94 370 324.33 369.72 321.17 361.11 312.02" fill="#fff" stroke-width="0"/><path d="M527.55,382.34c1.46,0,2.96.07,4.52.22.88.08,1.87.19,2.95.33l-6.06,7.08c-1.48-.29-2.91-.57-4.27-.82-.77-.14-1.72-.2-2.8-.2l5.66-6.61Z" fill="#103385" stroke-width="0"/><path d="M516.42,389.31c-8.2.92-18.26,3.26-18.26,3.26,0,0,8.65-8.35,24-9.96l-5.74,6.7Z" fill="#103385" stroke-width="0"/><path d="M539.63,383.55c16.25,2.53,46.12,8.89,46.12,8.89l-.86.24c-3.46.94-6.22,2.91-8.01,5.4-1.14,1.6-2.93,2.12-6.37,1.28-9.62-2.34-24.58-5.9-37.13-8.51l6.25-7.31Z" fill="#103385" stroke-width="0"/><polygon points="482.44 414.8 489.05 414.14 540.66 436.32 546.88 446.43 482.44 414.8" fill="#103385" stroke-width="0"/><polygon points="493.66 427.78 496.83 427.47 545.48 452.09 527.3 455.69 519.69 441.76 493.66 427.78" fill="#fff" stroke-width="0"/></g></svg>