<?xml version="1.0" encoding="UTF-8"?><svg id="b" xmlns="http://www.w3.org/2000/svg" viewBox="0 0 700 562.75"><g id="c"><rect x="175.94" width="375.58" height="562.75" rx="122.91" ry="122.91" fill="#f6c629" stroke-width="0"/><path d="M205.26,112.47h316.93c57.41,0,104.02,46.61,104.02,104.02v129.77c0,57.41-46.61,104.02-104.02,104.02H205.26c-57.41,0-104.01-46.61-104.01-104.01v-129.77c0-57.41,46.61-104.02,104.02-104.02Z" transform="translate(645.1 -82.35) rotate(90)" fill="#fdfefd" stroke-width="0"/><path d="M205.26,118.14h316.93c54.28,0,98.35,44.07,98.35,98.35v129.77c0,54.28-44.07,98.35-98.35,98.35H205.26c-54.28,0-98.35-44.07-98.35-98.35v-129.77c0-54.28,44.07-98.35,98.35-98.35Z" transform="translate(645.1 -82.35) rotate(90)" fill="#06478a" stroke-width="0"/><rect x="267.86" y="93.17" width="189.25" height="377.24" fill="#fdfefd" stroke-width="0"/><rect x="179.52" y="192.83" width="365.91" height="177.91" transform="translate(644.27 -80.69) rotate(90)" fill="#f6c629" stroke-width="0"/><rect x="196.52" y="209.83" width="331.91" height="143.91" transform="translate(644.27 -80.69) rotate(90)" fill="#fdfefd" stroke-width="0"/><path d="M311.5,231.58c5.55-8.32,10.75-16.26,17.24-23.28,11.52-12.46,25.34-17.55,42.08-13.89,3.07.67,5.92.31,8.88-.56,13.07-3.86,24.2-.89,32.74,9.98,2.57,3.27,3.85,2.35,5.03-.81,2.57-6.91,5.24-13.78,7.6-20.76,1.03-3.06,2.65-4.24,5.87-3.95,10.03.9,20.02,1.81,29.02,7.03,1.46.85,4.03,2.87,3.94-1.29-.19-8.9,3.02-15.79,11.6-19.2,8.49-3.38,16.12-.5,23.16,4.29,2.88,1.96,5.58,4.31,7.96,6.86,2.62,2.81,4.23,2.44,6.76-.31,9.27-10.1,20.6-15.97,34.66-15.16,11.26.65,21.19,4.75,29.23,12.79,2.23,2.23,3.37,2.3,4.48-.78,1.08-2.99,2.42-5.88,3.6-8.83,6.48-16.18,28.74-26.82,48.25-15.53,4.05,2.35,8.08,4.67,11.43,8.09,8.12,8.29,8.66,19.74,1.11,28.52-1.27,1.48-3.24,2.57-2.07,5.09.96,2.07,2.81,2.17,4.63,2.4,32.94,4.19,50.15,28.75,51.25,59.14,1.12,30.84-13.45,54.07-37.6,72.13-20.82,15.57-44.76,22.95-69.85,27.71-28.13,5.34-56.42,9.71-84.8,13.42-31.53,4.12-63.14,7.69-94.72,11.49-48.87,5.88-97.89,10.57-146.65,17.38-12.41,1.73-24.93,3.54-35.52,11.25-3.57,2.6-5.63,5.63-5.7,10.43-.12,8.7-5.4,14.96-13.86,17.63-8.28,2.62-16.57-.42-23.02-8.19-8.28-9.98-12.2-21.38-11.82-34.33.17-5.75-.34-6-5.4-3.28-18.59,9.97-38.23,16.09-59.5,15.83-27.75-.33-53.08-17.29-62.59-41.94-3.88-10.06-5.19-20.52-2.05-31.04,4.76-15.91,16.99-24.91,33.7-24.65,3.97.06,5.31-1.36,5.94-4.89,2.08-11.72,5.43-23.14,8.74-34.56.45-1.55,1.86-3.35.41-4.68-1.77-1.63-3.46.35-4.9,1.17-11.29,6.46-23.06,11.44-36.17,12.73-26.95,2.65-45.56-12.35-52.32-37.43-1.7-6.32-2.74-12.81-2.1-19.4.7-7.23,3.44-13.34,10.42-16.59,7.38-3.43,15.61-3.93,21.39,1.54,9.34,8.84,19.24,7.2,29.5,4.17,25.82-7.62,47.51-22.73,68.72-38.62,3.87-2.9,7.71-6.1,12.05-8.07,10.11-4.59,20.05-3.1,29.04,3.14,3.4,2.36,5.43,1.82,8.1-.84,5.61-5.58,11.8-10.55,19.61-12.62,17.57-4.66,35.54,4.09,42.78,21.29,2.41,5.72,5.2,7.97,11.66,8.14,13.83.37,22.89,8.58,25.69,22.45.89,4.4,2.24,5.83,6.89,6.91,11.33,2.64,20.81,8.44,24.1,20.88.11.43.62.75,1.36,1.6ZM121.51,226.53c1.13,1.78.28,3.13-.23,4.52-5.82,15.68-11.44,31.43-15.91,47.57-4.96,17.93-9.38,35.89-9.63,54.72-.19,14.17,14.07,27.75,24.42,29.38,6.78,1.07,10.97-2.72,10.42-9.49-1.9-23.51,2.78-45.89,11.85-67.52,1.56-3.71,3.57-3.41,6.2-1.6,4.67,3.23,8.07,7.52,10.26,12.74,5.61,13.3,6.13,26.92,2.4,40.78-6.29,23.36-24.79,36.21-48.76,33.87-15.53-1.52-27.98-22.99-21.57-37.19,3.22-7.13.17-13.37-7.48-15.31-12.23-3.1-24.08,6.09-25.01,19.4-1.74,25.13,20.85,48.89,48.17,50.95,13.98,1.05,27.4-1.27,40.44-5.96,28.47-10.23,49.65-27.43,53.31-59.57,1.64-14.44-1.03-28.44-11.1-39.93-2.02-2.31-2.07-3.58.43-5.5,10.41-8,17.94-18.45,24.29-29.76,3.05-5.44,5.57-11.17,8.74-17.59,1.61,6.5,3.57,11.6,8.53,14.89,2.04,1.36,1.4,3.13.68,4.91-4.02,9.93-7.97,19.88-12.05,29.78-2.46,5.99-2.15,9.75,1.31,12.35,3.75,2.82,7.86,2.3,12.78-1.67,1.69-1.37,3.27-2.84,4.27-4.87,2.36-4.81,4.97-9.5,7.13-14.4,3.16-7.19,6.13-14.48,8.46-22,.8-2.58,6.64-5.33,8.72-3.95,2.73,1.81.05,3.91-.51,5.67-4.85,15.31-9.98,30.52-13.41,46.26-2.43,11.14-1.45,21.34,6.61,30.02,10.49,11.3,22.3,14.19,34.47,1.32,5.76-6.1,11.36-12.32,16-19.32,1.79-2.71,3.23-3.76,4.97.09,1.67,3.7,4.37,6.71,7.2,9.57,9.84,9.91,22.68,9.69,30.33-.56,1.6-2.14,3.02-4.42,4.45-6.67,3.68-5.8,3.75-5.89,8.72-.89,8.32,8.36,20.66,11.17,30.82,1.45,5.22-4.99,9.9-10.42,14.34-16.07,4.42-5.61,4.26-5.6,8.33,0,5.36,7.38,12.04,12.63,21.78,12.1,7.72-.42,12.83-5.64,17.52-10.77,13.4-14.65,24.2-31.15,33.25-48.82,1.39-2.71,2.49-5.69,5.23-8.18.6,4.01-.87,7.14-1.37,10.37-4.27,27.64,20.8,48.9,46.21,39.08,8.4-3.25,15.51-8.47,21.95-14.72,5.91-5.73,11.13-12.05,16.26-18.46.58-.73,1.54-1.67,2.29-1.64,1.04.05,1.17,1.31,1.34,2.35,1.29,7.54,5.62,12.96,12.21,16.5,20.16,10.82,46.39-1.66,51.23-23.99,1.39-6.4-.67-12.28-1.16-18.4-.27-3.4.63-4.38,3.85-2.65,7.18,3.87,11.18,10,12.48,17.84,2.21,13.28-3.4,23.93-12.17,33.11-12.61,13.2-29.28,18.52-46.42,22.19-28.02,6.01-56.56,8.76-84.98,11.98-28.77,3.26-57.63,5.68-86.43,8.57-31.3,3.15-62.57,6.58-93.88,9.58-29.82,2.85-59.66,5.49-89.25,10.29-17.19,2.79-32.95,8.58-45.17,21.9-13.56,14.78-13.79,37.8-.22,52.07,2.33,2.46,4.77,4.17,8.39,2.87,3.51-1.26,3.98-4.13,4.17-7.26.4-6.5,3.19-11.78,7.97-16.21,10.48-9.71,23.7-12.91,37.09-15.04,17.01-2.71,34.17-4.51,51.29-6.55,33.24-3.96,66.49-7.8,99.74-11.69,29.92-3.5,59.88-6.74,89.76-10.6,29.87-3.86,59.65-8.35,89.29-13.79,24.78-4.54,48.59-11.52,68.89-27.23,19.75-15.28,32.14-34.69,30.69-60.53-1.39-24.76-14.94-43.95-42.31-46.44-3.49-.32-7.92,2.52-10.3-1.03-1.94-2.89-2.09-6.98-3.05-10.53-.35-1.29-.65-2.61-1.11-3.86-2.02-5.44-.28-9.25,4.61-12.25,4.16-2.56,4.63-6.85,1.69-10.74-2.08-2.76-5.09-4.34-7.91-6.12-11.83-7.44-26.34-2.81-31.65,10.11-1.85,4.49-3.44,9.08-5.21,13.6-8.62,22.04-17.55,43.91-34.07,61.58-7.81,8.36-15.76,16.43-27.22,19.85-3.36,1-5.88.41-6.78-2.94-.99-3.73-1.16-7.83.33-11.36,1.31-3.11,4.86-.93,7.31-1.6.64-.18,1.32-.23,1.97-.36,15.69-3.18,26.29-13.24,34.87-25.94,5.16-7.64,9.11-15.95,7.95-25.34-2.4-19.33-27.29-30.61-44.09-20.23-11.37,7.03-18.25,17.94-24.68,29.21-1.16,2.03-1.48,4.68-3.93,6.11-.7-2.49.16-4.57.38-6.71.61-6.15,1.72-12.47-2.86-17.76-3.87-4.47-8.43-8.19-13.68-10.9-5.8-2.99-10.02-.3-9.97,6.22.04,5.03,0,10-1.03,14.99-4.25,20.52-12.57,39.48-22.04,57.99-3.06,5.97-5.79,12.22-10.58,17.5-.99-2.31-.26-4.03.17-5.8,4.48-18.56,10.09-36.78,16.37-54.8,2.61-7.48.83-12.63-5.95-16.64-4.53-2.67-9.51-3.97-14.73-4.67-2.86-.38-4.14.49-5.13,3.22-4.65,12.9-9.37,25.78-13.75,38.78-5,14.84-14.97,26.78-24.02,39.2-2.67,3.66-5.33,7.43-9.89,10.49.54-3.07.86-5.37,1.35-7.63,4.04-18.68,9.9-36.85,15.71-55.03.95-2.99.71-5.5-.7-8.16-4.05-7.63-14.41-10.26-22.16-5.52-2.4,1.47-4.29,2.82-7.67,1.26-10.44-4.82-20.57-3.79-29.58,3.69-12.03,9.99-19.69,23.15-25.79,37.22-7.88,18.17-19.04,34.15-31.66,49.23-.72.86-1.44,2.21-2.8,1.55-1.33-.64-.8-2.08-.56-3.14,1.29-5.71,2.47-11.46,4.06-17.09,3.65-12.87,7.69-25.64,11.23-38.54,1.9-6.9-.69-12.54-6.57-16.52-6.47-4.39-13.55-5.16-21.12-3.51-6.99,1.52-7.02,1.36-5.31-5.25.42-1.62.84-3.25,1.13-4.89,2.15-12.14-4.12-19.42-16.54-19.38-6.03.02-11.72,1.19-17.3,5.49.34-6.6.76-11.88-.72-17.17-4.02-14.34-22.51-26.4-38.56-12.31-5.68,4.99-10.88,10.4-15.68,16.23-1.68,2.04-2.56,4.16-4.68-.37-4.99-10.68-18.95-18.45-30.18-8.23-4.31,3.92-9.41,6.97-14.13,10.43-18.58,13.63-38.07,25.64-60.21,32.63-15.3,4.83-30.34,7.16-43.93-5.16-4.35-3.94-10.37-.7-10.7,5.33-.44,7.96,1.06,15.7,4.39,22.96,8.58,18.67,26.43,23.73,46.25,17.64,14.78-4.55,27.46-13.04,40.17-21.48,5.81-3.86,11.04-8.6,17.31-11.84Z" fill="#06478a" stroke-width="0"/><path d="M121.51,226.53c-6.27,3.23-11.5,7.98-17.31,11.84-12.71,8.44-25.39,16.94-40.17,21.48-19.82,6.09-37.67,1.03-46.25-17.64-3.34-7.26-4.83-14.99-4.39-22.96.33-6.02,6.35-9.27,10.7-5.33,13.6,12.33,28.63,10,43.93,5.16,22.14-6.99,41.63-18.99,60.21-32.63,4.72-3.47,9.83-6.51,14.13-10.43,11.22-10.23,25.19-2.45,30.18,8.23,2.12,4.53,3,2.41,4.68.37,4.79-5.83,10-11.25,15.68-16.23,16.05-14.09,34.54-2.04,38.56,12.31,1.48,5.3,1.06,10.57.72,17.17,5.58-4.3,11.28-5.47,17.3-5.49,12.41-.05,18.69,7.24,16.54,19.38-.29,1.65-.71,3.27-1.13,4.89-1.71,6.61-1.68,6.77,5.31,5.25,7.57-1.64,14.65-.88,21.12,3.51,5.87,3.99,8.46,9.62,6.57,16.52-3.54,12.9-7.58,25.66-11.23,38.54-1.6,5.63-2.77,11.38-4.06,17.09-.24,1.07-.77,2.5.56,3.14,1.36.66,2.08-.69,2.8-1.55,12.62-15.08,23.78-31.06,31.66-49.23,6.1-14.07,13.76-27.23,25.79-37.22,9.01-7.48,19.14-8.51,29.58-3.69,3.38,1.56,5.27.21,7.67-1.26,7.75-4.74,18.11-2.11,22.16,5.52,1.41,2.66,1.65,5.17.7,8.16-5.8,18.18-11.66,36.35-15.71,55.03-.49,2.26-.81,4.56-1.35,7.63,4.56-3.06,7.22-6.83,9.89-10.49,9.05-12.42,19.02-24.36,24.02-39.2,4.38-13,9.1-25.88,13.75-38.78.99-2.74,2.27-3.61,5.13-3.22,5.21.7,10.2,2,14.73,4.67,6.78,4.01,8.56,9.16,5.95,16.64-6.29,18.02-11.89,36.24-16.37,54.8-.43,1.77-1.16,3.49-.17,5.8,4.79-5.29,7.53-11.53,10.58-17.5,9.47-18.51,17.79-37.47,22.04-57.99,1.03-4.99,1.08-9.96,1.03-14.99-.05-6.52,4.17-9.21,9.97-6.22,5.25,2.7,9.81,6.43,13.68,10.9,4.58,5.29,3.47,11.61,2.86,17.76-.21,2.14-1.08,4.23-.38,6.71,2.45-1.43,2.77-4.08,3.93-6.11,6.43-11.27,13.31-22.18,24.68-29.21,16.8-10.39,41.69.9,44.09,20.23,1.16,9.39-2.79,17.7-7.95,25.34-8.58,12.7-19.18,22.76-34.87,25.94-.66.13-1.33.19-1.97.36-2.45.67-6-1.51-7.31,1.6-1.49,3.53-1.33,7.64-.33,11.36.89,3.35,3.42,3.95,6.78,2.94,11.45-3.42,19.41-11.49,27.22-19.85,16.52-17.68,25.45-39.54,34.07-61.58,1.77-4.52,3.36-9.11,5.21-13.6,5.31-12.91,19.82-17.54,31.65-10.11,2.82,1.77,5.83,3.36,7.91,6.12,2.93,3.89,2.47,8.18-1.69,10.74-4.89,3-6.63,6.81-4.61,12.25.46,1.25.76,2.57,1.11,3.86.96,3.55,1.11,7.64,3.05,10.53,2.38,3.56,6.81.71,10.3,1.03,27.37,2.49,40.93,21.68,42.31,46.44,1.45,25.84-10.95,45.25-30.69,60.53-20.3,15.7-44.11,22.68-68.89,27.23-29.64,5.43-59.42,9.93-89.29,13.79-29.88,3.86-59.84,7.09-89.76,10.6-33.25,3.89-66.5,7.74-99.74,11.69-17.12,2.04-34.28,3.84-51.29,6.55-13.38,2.13-26.6,5.34-37.09,15.04-4.78,4.42-7.57,9.7-7.97,16.21-.19,3.13-.66,5.99-4.17,7.26-3.62,1.3-6.06-.41-8.39-2.87-13.57-14.27-13.34-37.29.22-52.07,12.22-13.32,27.99-19.11,45.17-21.9,29.59-4.8,59.43-7.43,89.25-10.29,31.31-3,62.58-6.44,93.88-9.58,28.81-2.9,57.67-5.31,86.43-8.57,28.43-3.22,56.96-5.98,84.98-11.98,17.13-3.67,33.81-8.99,46.42-22.19,8.77-9.18,14.38-19.84,12.17-33.11-1.31-7.84-5.31-13.97-12.48-17.84-3.22-1.74-4.12-.75-3.85,2.65.49,6.12,2.55,12,1.16,18.4-4.84,22.33-31.07,34.8-51.23,23.99-6.59-3.54-10.93-8.96-12.21-16.5-.18-1.04-.31-2.3-1.34-2.35-.75-.03-1.7.91-2.29,1.64-5.13,6.41-10.35,12.72-16.26,18.46-6.43,6.25-13.55,11.47-21.95,14.72-25.41,9.82-50.48-11.45-46.21-39.08.5-3.23,1.96-6.36,1.37-10.37-2.74,2.49-3.84,5.47-5.23,8.18-9.05,17.67-19.85,34.16-33.25,48.82-4.69,5.13-9.79,10.35-17.52,10.77-9.75.53-16.43-4.72-21.78-12.1-4.07-5.6-3.91-5.62-8.33,0-4.45,5.65-9.12,11.08-14.34,16.07-10.16,9.72-22.5,6.91-30.82-1.45-4.97-5-5.04-4.91-8.72.89-1.43,2.26-2.85,4.53-4.45,6.67-7.65,10.25-20.49,10.47-30.33.56-2.84-2.86-5.54-5.87-7.2-9.57-1.74-3.85-3.17-2.79-4.97-.09-4.64,7.01-10.24,13.23-16,19.32-12.17,12.87-23.98,9.99-34.47-1.32-8.06-8.68-9.04-18.88-6.61-30.02,3.43-15.74,8.57-30.95,13.41-46.26.56-1.76,3.24-3.86.51-5.67-2.08-1.38-7.92,1.37-8.72,3.95-2.33,7.53-5.3,14.81-8.46,22-2.15,4.9-4.77,9.59-7.13,14.4-.99,2.02-2.57,3.5-4.27,4.87-4.92,3.98-9.03,4.49-12.78,1.67-3.46-2.6-3.78-6.36-1.31-12.35,4.08-9.9,8.03-19.85,12.05-29.78.72-1.78,1.37-3.55-.68-4.91-4.95-3.3-6.92-8.4-8.53-14.89-3.17,6.42-5.69,12.15-8.74,17.59-6.35,11.32-13.88,21.76-24.29,29.76-2.5,1.92-2.46,3.19-.43,5.5,10.07,11.49,12.75,25.48,11.1,39.93-3.66,32.14-24.84,49.35-53.31,59.57-13.04,4.68-26.46,7.01-40.44,5.96-27.32-2.06-49.92-25.82-48.17-50.95.92-13.31,12.77-22.5,25.01-19.4,7.65,1.94,10.7,8.18,7.48,15.31-6.41,14.21,6.05,35.68,21.57,37.19,23.97,2.34,42.47-10.51,48.76-33.87,3.73-13.86,3.21-27.47-2.4-40.78-2.2-5.21-5.59-9.51-10.26-12.74-2.63-1.81-4.64-2.11-6.2,1.6-9.07,21.63-13.75,44.01-11.85,67.52.55,6.77-3.64,10.56-10.42,9.49-10.35-1.63-24.62-15.21-24.42-29.38.26-18.83,4.67-36.79,9.63-54.72,4.47-16.14,10.08-31.89,15.91-47.57.51-1.39,1.36-2.74.23-4.52ZM602.39,196.71c1.92,6.93,3.41,12.91,5.27,18.78.96,3.03.42,4.55-2.5,6.25-8.22,4.79-15.23,11.01-19.21,19.94-6.59,14.82.54,28.46,16.37,31.52,19.54,3.77,37.16-11.93,35.49-31.72-.28-3.32-1.16-6.59-1.56-9.91-.34-2.76-2.95-6.22-.98-8.02,2.5-2.29,6.4-.4,9.62.36,1.43.34,2.8,1.1,4.1,1.85,11.95,6.91,17.58,22.46,13.29,36.86-5.22,17.5-17.6,28.42-33.48,35.99-15.91,7.59-33.03,10.78-50.29,13.28-50.4,7.3-101.12,11.93-151.77,16.99-55.66,5.56-111.41,10.29-166.92,17.36-13.12,1.67-26.28,3.36-38.41,9.15-10.39,4.96-19.04,11.86-23.95,22.62-5.52,12.08-3.21,27.13,5.42,35.54.89.86,1.7,2.45,3.27,1.69,1.25-.6.78-2.09.83-3.21.32-7.46,3.67-13.45,8.88-18.55,5.24-5.14,11.58-8.47,18.34-11.11,11.49-4.48,23.59-6.39,35.71-7.83,57.54-6.84,115.11-13.43,172.65-20.22,49.39-5.83,98.75-11.84,147.63-21.19,21.23-4.06,41.65-10.11,59.43-22.96,22.13-15.98,35.35-36.4,31.41-64.98-3.36-24.37-23.19-38.75-47.06-34.12-2.68.52-3.58-.23-4.18-2.6-1.61-6.32-3.35-12.61-5.07-18.9-1.91-7.01-.09-12.58,6.42-16.2,2.24-1.24,2.53-2.6.7-4.25-4.95-4.47-10.27-8.23-17.46-7.11-6.94,1.08-11.31,5.14-13.62,11.78-4.72,13.6-10.37,26.84-16.32,39.94-7.8,17.16-18.9,31.96-32.76,44.66-5.83,5.34-12.3,9.85-20.08,12.01-7.86,2.18-13.2-1.62-13.74-9.84-.34-5.06.56-10,1.65-14.93.59-2.66,1.38-3.61,4.22-2.14,2.89,1.49,6.13,1.24,9.34.56,16.31-3.49,34.56-22.86,37.56-39.69.94-5.29-.28-9.81-3.04-14.3-7.01-11.44-27.84-17.7-41.78-1.13-16.26,19.33-26.07,41.53-29.63,66.5-3.51,24.61,23.73,38.57,40.58,30.18,6.06-3.01,11.71-6.49,16.68-11.04,17.76-16.25,29.65-36.56,39.94-57.96,3-6.25,5.72-12.63,9-19.91ZM154.95,222.52c4.22-10.93,8.21-21.31,12.22-31.68.54-1.4,1.26-2.71.88-4.33-1.78-7.55-13.61-12.55-19.98-8.16-7.72,5.32-15.13,11.08-22.81,16.46-18.31,12.85-37.54,23.96-59.22,30.21-15.61,4.5-30.71,5.57-43.96-6.41-2.29-2.07-3.83-.97-3.77,1.82.06,3.17.41,6.36.96,9.48,3.64,20.72,18.64,30.66,39.13,26.1,6.43-1.43,12.44-3.91,18.25-6.91,19.46-10.03,36.8-23.18,53.77-36.85.93-.75,1.54-2.37,3.54-1.29-1.27,3.64-2.46,7.33-3.84,10.95-10.28,26.9-19.99,53.98-25.88,82.25-2.25,10.82-4.39,21.72-2.71,32.87,1.35,9,9.97,18.72,18.15,20.21,2.39.44,6.02,1.98,5.65-3.28-1.86-26.31,3.64-51.22,14.48-75.11,1.2-2.66,2.48-2.7,4.96-1.97,7.71,2.3,13.1,7.29,16.89,14.11,7.22,12.99,8.59,26.91,6.36,41.39-3.76,24.47-21.03,41.62-45,44.61-26.15,3.26-45.94-21.87-36.03-45.93,1.01-2.45.36-3.77-1.2-5.21-2.25-2.08-5.02-2.6-7.95-2.33-8.35.77-13.97,7.27-14.37,16.55-.86,19.67,16.53,39.92,38.45,43.21,27.78,4.16,52.51-4.15,73.69-21.99,17.21-14.5,22.75-33.69,18.63-55.72-2.03-10.88-7.98-19.3-17.12-26.03,10.9-4.67,18.38-12.4,24.77-21.35,10.13-14.19,16.99-29.91,21.76-46.6,2.21-7.74,4.22-15.55,3.8-23.69-.44-8.69-4.3-15.31-12.41-19.14-7.73-3.65-13.94-.63-19.74,4.34-1.52,1.31-3.02,2.66-4.44,4.08-12.25,12.31-21.95,26.56-31.3,41.08-1.01,1.57-1.41,3.87-4.61,4.25ZM377.11,218.29c-9.3-8.82-21.07-9.38-30.69-1.48-2.83,2.32-5.38,5.04-7.77,7.83-7.03,8.22-12.37,17.55-16.48,27.47-7.34,17.7-18.37,32.99-30.17,47.82-3.13,3.93-6.48,7.71-10.75,10.49-1.24.81-2.69,2.12-4.08,1.37-1.67-.9-1.26-2.94-1.13-4.59.62-7.36,2.17-14.57,3.99-21.71,3.59-14.11,7.85-28.02,12.24-41.89,2.69-8.49-.39-13.97-8.94-16.39-4.14-1.17-8.28-1.03-12.44-.26-4.72.87-9.43,1.74-14.66,2.7,1.73-6.89,3.37-13.14,4.84-19.44.89-3.79.32-7.29-2.6-10.2-3.78-3.77-19.09-3.18-22.24,2.14-5.36,9.06-8.62,18.5-7.86,29.05.44,6.11,3.84,10.74,8.8,11.36,3.46.43,2.72,1.78,1.92,3.8-4.96,12.43-9.9,24.86-14.85,37.29-.73,1.82-2.04,3.77.28,5.35,2.07,1.41,3.9.18,5.5-1.02,2.88-2.16,4.64-5.22,6.21-8.41,5.33-10.82,9.83-21.98,13.67-33.42.48-1.44.37-3.42,2.67-3.8,6.3-1.03,12.58-2.18,19.51-3.39-.69,2.05-1.06,3.14-1.43,4.23-6.77,19.78-14.01,39.41-17.63,60.11-1.94,11.1,3.42,22.08,13.38,27.4,5.17,2.76,10.27,2.93,15.02-.91,2.33-1.89,4.61-3.89,6.7-6.04,8.09-8.34,14.53-17.94,20.93-27.58.62-.94.7-2.73,2.57-2.47.41,8.8,3.58,16.37,9.95,22.42,8.95,8.51,17.22,7.63,24.23-2.34,4.26-6.05,7.21-12.85,11.1-19.7,1.66,4.87,3.65,8.89,6.69,12.33,8.75,9.91,17.74,10.33,27.1,1.09,7.31-7.21,13.38-15.42,19.04-23.95,1.32-1.98,2.72-3.91,4.56-6.55.07,12.54,6.33,22.51,15.92,26.11,10.14,3.81,15.32-3.8,21.29-9.48.85-.81,1.61-1.71,2.36-2.6,15.56-18.44,27.72-38.97,37.24-61.09,3.45-8.02,6.15-16.28,7.57-24.91,1.63-9.9-4.45-19.85-13.76-22.82-1.96-.62-2.82-.28-2.66,1.94.81,11.8-2.64,22.84-6.18,33.84-5.37,16.7-12.78,32.5-21.2,47.84-2.89,5.26-5.71,10.64-10.03,14.93-1.82,1.8-3.05,5.84-6.23,4.16-3.03-1.6-1.83-5.4-1.4-8.32,3.26-21.97,10.76-42.78,17.54-63.79,2.08-6.45,1-9.44-5.23-12.32-2.25-1.04-4.78-1.46-7.11-2.36-2.67-1.03-3.9-.03-4.76,2.52-1.92,5.71-3.95,11.38-6.14,16.99-3.53,9.03-5.24,18.78-9.92,27.31-7.67,13.97-16.73,27.06-27.18,39.12-2.86,3.3-5.94,6.37-9.72,8.66-2.7,1.63-4.19.85-4-2.27.22-3.5.55-7.02,1.22-10.45,3.87-19.91,10.01-39.2,16.29-58.45,1.56-4.77.11-8.02-4.43-10.12-5.78-2.67-11.54-.38-16.64,6.84ZM597.96,219.85q5.13-2.88,2.72-6.42c-1.79,1.52-1.79,3.78-2.72,6.42Z" fill="#fefefd" stroke-width="0"/><path d="M602.39,196.71c-3.28,7.28-6,13.67-9,19.91-10.29,21.4-22.18,41.71-39.94,57.96-4.97,4.55-10.62,8.02-16.68,11.04-16.86,8.39-44.09-5.57-40.58-30.18,3.56-24.97,13.37-47.17,29.63-66.5,13.94-16.57,34.77-10.31,41.78,1.13,2.75,4.5,3.98,9.01,3.04,14.3-3,16.83-21.25,36.2-37.56,39.69-3.21.69-6.45.94-9.34-.56-2.84-1.47-3.63-.51-4.22,2.14-1.09,4.93-1.99,9.87-1.65,14.93.55,8.22,5.88,12.02,13.74,9.84,7.78-2.16,14.25-6.67,20.08-12.01,13.86-12.7,24.96-27.5,32.76-44.66,5.96-13.1,11.61-26.34,16.32-39.94,2.31-6.65,6.68-10.7,13.62-11.78,7.19-1.12,12.51,2.64,17.46,7.11,1.82,1.65,1.54,3.01-.7,4.25-6.51,3.62-8.33,9.19-6.42,16.2,1.71,6.29,3.46,12.58,5.07,18.9.6,2.37,1.5,3.12,4.18,2.6,23.87-4.63,43.7,9.75,47.06,34.12,3.94,28.58-9.28,49-31.41,64.98-17.78,12.84-38.2,18.89-59.43,22.96-48.89,9.35-98.25,15.36-147.63,21.19-57.54,6.79-115.11,13.38-172.65,20.22-12.13,1.44-24.22,3.35-35.71,7.83-6.76,2.64-13.1,5.97-18.34,11.11-5.21,5.1-8.56,11.09-8.88,18.55-.05,1.12.42,2.61-.83,3.21-1.57.76-2.38-.83-3.27-1.69-8.63-8.4-10.94-23.45-5.42-35.54,4.92-10.76,13.56-17.66,23.95-22.62,12.14-5.79,25.29-7.48,38.41-9.15,55.51-7.07,111.26-11.8,166.92-17.36,50.66-5.06,101.37-9.68,151.77-16.99,17.25-2.5,34.38-5.69,50.29-13.28,15.87-7.57,28.26-18.5,33.48-35.99,4.3-14.41-1.34-29.95-13.29-36.86-1.29-.75-2.66-1.51-4.1-1.85-3.22-.76-7.12-2.65-9.62-.36-1.97,1.8.64,5.26.98,8.02.4,3.32,1.28,6.59,1.56,9.91,1.67,19.79-15.94,35.49-35.49,31.72-15.83-3.06-22.97-16.7-16.37-31.52,3.97-8.93,10.99-15.15,19.21-19.94,2.92-1.7,3.45-3.22,2.5-6.25-1.86-5.87-3.35-11.85-5.27-18.78ZM521.88,236.78c13.84-.2,33.25-21.38,35.36-35.08.6-3.91-.39-7.62-3.9-9.65-3.48-2.01-6.09.94-8.24,3.03-11.83,11.53-17.63,26.41-23.22,41.69ZM615.21,245.26c-.28-3.9-.73-8.21-1.95-12.4-.43-1.48-.73-2.74-3.01-2.05-8,2.42-15.58,12.99-14.94,21.19.49,6.17,5.05,9.55,11.12,8.23,5.74-1.25,8.81-6.33,8.78-14.97Z" fill="#f6c629" stroke-width="0"/><path d="M154.95,222.52c3.2-.38,3.6-2.68,4.61-4.25,9.35-14.52,19.05-28.77,31.3-41.08,1.42-1.42,2.91-2.78,4.44-4.08,5.79-4.97,12.01-7.99,19.74-4.34,8.11,3.83,11.96,10.45,12.41,19.14.41,8.14-1.59,15.95-3.8,23.69-4.77,16.69-11.62,32.41-21.76,46.6-6.39,8.95-13.86,16.68-24.77,21.35,9.14,6.74,15.09,15.16,17.12,26.03,4.11,22.02-1.42,41.22-18.63,55.72-21.18,17.84-45.92,26.15-73.69,21.99-21.92-3.28-39.3-23.54-38.45-43.21.4-9.28,6.03-15.78,14.37-16.55,2.93-.27,5.7.25,7.95,2.33,1.56,1.44,2.21,2.76,1.2,5.21-9.9,24.05,9.89,49.18,36.03,45.93,23.97-2.99,41.24-20.14,45-44.61,2.22-14.48.86-28.4-6.36-41.39-3.8-6.83-9.18-11.81-16.89-14.11-2.48-.74-3.75-.69-4.96,1.97-10.83,23.9-16.34,48.8-14.48,75.11.37,5.26-3.25,3.72-5.65,3.28-8.18-1.5-16.79-11.21-18.15-20.21-1.68-11.16.46-22.05,2.71-32.87,5.89-28.27,15.6-55.35,25.88-82.25,1.38-3.62,2.57-7.3,3.84-10.95-2-1.08-2.61.54-3.54,1.29-16.97,13.67-34.31,26.82-53.77,36.85-5.8,2.99-11.82,5.48-18.25,6.91-20.5,4.56-35.5-5.37-39.13-26.1-.55-3.12-.9-6.31-.96-9.48-.05-2.79,1.48-3.89,3.77-1.82,13.25,11.98,28.35,10.91,43.96,6.41,21.68-6.25,40.91-17.36,59.22-30.21,7.68-5.38,15.09-11.15,22.81-16.46,6.38-4.39,18.2.61,19.98,8.16.38,1.62-.34,2.93-.88,4.33-4.01,10.37-8.01,20.75-12.22,31.68ZM156.17,267.28c5.94.78,11.3-3.01,15.76-8.38,15.18-18.27,25.36-39.27,33.26-61.47,1.51-4.24,2.79-8.6,2.86-13.18.02-1.52-.13-3.14-1.78-3.8-1.42-.57-2.68.3-3.63,1.2-2.54,2.42-5.18,4.8-7.4,7.49-17.75,21.53-32.36,45.14-45.5,69.69-4.08,7.63-3.75,8.1,6.43,8.44Z" fill="#f6c629" stroke-width="0"/><path d="M377.11,218.29c5.11-7.23,10.87-9.52,16.64-6.84,4.54,2.1,5.98,5.35,4.43,10.12-6.28,19.25-12.42,38.53-16.29,58.45-.67,3.44-1,6.96-1.22,10.45-.2,3.12,1.3,3.9,4,2.27,3.78-2.28,6.86-5.36,9.72-8.66,10.45-12.07,19.51-25.16,27.18-39.12,4.68-8.53,6.39-18.28,9.92-27.31,2.19-5.61,4.22-11.28,6.14-16.99.86-2.55,2.09-3.55,4.76-2.52,2.33.9,4.86,1.32,7.11,2.36,6.23,2.89,7.31,5.87,5.23,12.32-6.78,21.01-14.28,41.82-17.54,63.79-.43,2.92-1.63,6.72,1.4,8.32,3.18,1.68,4.41-2.36,6.23-4.16,4.33-4.28,7.15-9.67,10.03-14.93,8.42-15.34,15.83-31.15,21.2-47.84,3.54-11.01,6.99-22.04,6.18-33.84-.15-2.22.7-2.56,2.66-1.94,9.31,2.97,15.39,12.92,13.76,22.82-1.42,8.63-4.12,16.89-7.57,24.91-9.53,22.12-21.68,42.65-37.24,61.09-.76.9-1.52,1.8-2.36,2.6-5.97,5.68-11.14,13.29-21.29,9.48-9.58-3.6-15.85-13.57-15.92-26.11-1.85,2.64-3.25,4.57-4.56,6.55-5.66,8.53-11.74,16.74-19.04,23.95-9.37,9.24-18.35,8.81-27.1-1.09-3.04-3.44-5.03-7.46-6.69-12.33-3.88,6.85-6.84,13.65-11.1,19.7-7.01,9.96-15.28,10.84-24.23,2.34-6.37-6.05-9.54-13.61-9.95-22.42-1.86-.26-1.94,1.54-2.57,2.47-6.4,9.64-12.84,19.23-20.93,27.58-2.09,2.15-4.36,4.15-6.7,6.04-4.75,3.84-9.85,3.67-15.02.91-9.96-5.32-15.32-16.3-13.38-27.4,3.62-20.7,10.87-40.34,17.63-60.11.37-1.09.74-2.18,1.43-4.23-6.93,1.21-13.21,2.36-19.51,3.39-2.3.38-2.18,2.36-2.67,3.8-3.83,11.44-8.33,22.6-13.67,33.42-1.57,3.19-3.33,6.24-6.21,8.41-1.59,1.2-3.43,2.43-5.5,1.02-2.32-1.59-1-3.53-.28-5.35,4.94-12.43,9.89-24.87,14.85-37.29.8-2.02,1.54-3.37-1.92-3.8-4.95-.61-8.35-5.25-8.8-11.36-.76-10.56,2.5-19.99,7.86-29.05,3.15-5.32,18.46-5.91,22.24-2.14,2.93,2.92,3.49,6.42,2.6,10.2-1.47,6.3-3.12,12.55-4.84,19.44,5.23-.96,9.95-1.83,14.66-2.7,4.17-.77,8.31-.91,12.44.26,8.55,2.42,11.63,7.9,8.94,16.39-4.4,13.87-8.65,27.79-12.24,41.89-1.82,7.14-3.37,14.35-3.99,21.71-.14,1.65-.54,3.69,1.13,4.59,1.39.75,2.84-.56,4.08-1.37,4.27-2.79,7.62-6.56,10.75-10.49,11.8-14.83,22.83-30.11,30.17-47.82,4.11-9.92,9.45-19.25,16.48-27.47,2.39-2.79,4.94-5.51,7.77-7.83,9.62-7.9,21.38-7.34,30.69,1.48ZM334.51,292c.35,3.74-.95,7.53,2.08,8.72,3.3,1.3,4.49-2.62,6.14-4.73,1.33-1.7,2.38-3.64,3.43-5.54,10.7-19.51,20.5-39.43,27.25-60.7.53-1.68,2.81-3.58.68-5.34-2.09-1.73-4.8-1.41-7.17-.36-4.09,1.8-7.19,4.89-9.7,8.5-12.68,18.21-19.44,38.65-22.7,59.45Z" fill="#f6c629" stroke-width="0"/><path d="M597.96,219.85c.93-2.64.93-4.89,2.72-6.42q2.41,3.54-2.72,6.42Z" fill="#06478a" stroke-width="0"/><path d="M521.88,236.78c5.59-15.28,11.39-30.16,23.22-41.69,2.15-2.09,4.77-5.04,8.24-3.03,3.51,2.03,4.5,5.74,3.9,9.65-2.11,13.7-21.52,34.88-35.36,35.08ZM530.91,228.39c6.23-3.73,10.48-8.15,14.17-13.09,2.99-4,5.8-8.19,6.94-13.18.32-1.42.76-3.23-.63-4.2-1.74-1.22-2.58.81-3.67,1.63-2.71,2.05-4.56,4.91-6.33,7.69-4.07,6.39-8.25,12.78-10.47,21.15Z" fill="#fefefd" stroke-width="0"/><path d="M615.21,245.26c.03,8.64-3.03,13.72-8.78,14.97-6.08,1.32-10.64-2.05-11.12-8.23-.65-8.2,6.94-18.77,14.94-21.19,2.28-.69,2.58.57,3.01,2.05,1.22,4.19,1.68,8.5,1.95,12.4ZM609.03,237.46c-4.57,3-7.49,6.37-8.41,11-.52,2.64-1.35,6.01,2.97,6.61,3.77.52,5.55-1.63,6.01-5.08.53-3.96.38-7.91-.57-12.53Z" fill="#fefefd" stroke-width="0"/><path d="M156.17,267.28c-10.18-.34-10.51-.82-6.43-8.44,13.13-24.55,27.74-48.16,45.5-69.69,2.23-2.7,4.86-5.07,7.4-7.49.96-.91,2.21-1.78,3.63-1.2,1.66.67,1.81,2.28,1.78,3.8-.07,4.58-1.36,8.94-2.86,13.18-7.9,22.2-18.08,43.21-33.26,61.47-4.47,5.37-9.82,9.16-15.76,8.38ZM201.85,190.91c-3.5,1.6-4.88,3.76-6.34,5.65-14.55,18.8-27.06,38.94-38.73,59.6-.92,1.62-2.99,3.69-1.25,5.38,1.64,1.59,4.12.29,6.07-.57,1.19-.53,2.39-1.28,3.28-2.22,3.45-3.63,7.01-7.15,9.81-11.36,8.91-13.4,16.4-27.55,22.46-42.45,1.73-4.25,2.94-8.71,4.7-14.03Z" fill="#fefefd" stroke-width="0"/><path d="M334.51,292c3.26-20.8,10.02-41.24,22.7-59.45,2.51-3.61,5.61-6.69,9.7-8.5,2.37-1.05,5.08-1.36,7.17.36,2.13,1.76-.14,3.66-.68,5.34-6.74,21.28-16.55,41.19-27.25,60.7-1.04,1.9-2.09,3.84-3.43,5.54-1.65,2.11-2.84,6.02-6.14,4.73-3.03-1.19-1.73-4.98-2.08-8.72ZM340.69,288.86c10.2-18.7,20.65-37.22,25.86-58.03-15.69,16.22-21.62,36.79-25.86,58.03Z" fill="#fefefd" stroke-width="0"/><path d="M530.91,228.39c2.22-8.37,6.4-14.76,10.47-21.15,1.77-2.78,3.62-5.64,6.33-7.69,1.09-.83,1.93-2.85,3.67-1.63,1.39.97.95,2.78.63,4.2-1.13,4.99-3.95,9.18-6.94,13.18-3.69,4.94-7.94,9.36-14.17,13.09Z" fill="#06478a" stroke-width="0"/><path d="M609.03,237.46c.95,4.62,1.1,8.57.57,12.53-.46,3.45-2.24,5.6-6.01,5.08-4.32-.6-3.49-3.97-2.97-6.61.91-4.63,3.84-8.01,8.41-11Z" fill="#06478a" stroke-width="0"/><path d="M201.85,190.91c-1.76,5.32-2.97,9.78-4.7,14.03-6.05,14.9-13.55,29.05-22.46,42.45-2.8,4.21-6.36,7.74-9.81,11.36-.89.94-2.09,1.69-3.28,2.22-1.95.86-4.43,2.16-6.07.57-1.74-1.69.33-3.75,1.25-5.38,11.68-20.67,24.18-40.8,38.73-59.6,1.46-1.89,2.84-4.05,6.34-5.65Z" fill="#06478a" stroke-width="0"/><path d="M340.69,288.86c4.25-21.24,10.17-41.81,25.86-58.03-5.21,20.81-15.66,39.32-25.86,58.03Z" fill="#06478a" stroke-width="0"/></g></svg>