<?xml version="1.0" encoding="UTF-8"?><svg id="b" xmlns="http://www.w3.org/2000/svg" xmlns:xlink="http://www.w3.org/1999/xlink" viewBox="0 0 636.91 696.7"><defs><clipPath id="d"><path d="M394.66,385.2c51.29-17.23,120.34-27.36,169.77-32.84,13.61-1.51,24.56-2.53,31.34-3.12h0c.45-.05.7-.28.83-.47.14-.19.27-.49.16-.9-4.13-15.47-13.97-52.99-16.11-67.18-.32-2.1.05-4.28.45-6.58.34-1.97.97-5.64.14-6.54-.4-.44-2.13-1.14-6.07-1.04-19.9.5-35.82,1.51-51.6,3.26-62.41,6.93-120.75,26.33-183.04,60.94l54.12,54.47Z" fill="none" stroke-width="0"/></clipPath></defs><g id="c"><path d="M200.36,641.99l-62.43,22.82,17.14-80.94-77.06-4.19,31.14-42.99-53.37-8.99,26.67-46.64c.4-.7,2.9-5.03,7.05-11.35-2.12-.63-4.25-1.28-6.39-1.96l-59.39-18.88,30.41-44.01L0,383.59l53.16-40.3c1.2-.91,3.77-2.85,7.29-5.48l-52.95-13.25,54.46-56.87c8.3-8.67,16.3-15.9,24.93-22.48l-27.56-20.55,24.74-13.7-54.65-31.05,90.49-17.45-21.61-29.34,71.9-4.85-1.37-5.73,9.09-.74-16.36-56.56,57.07,15.99,73.55-1.07L279.43,0l119.12,67.71-.24-65.61,81.56,88.25c1.48,1.38,7.23,5.57,26.04,17.58,19.56,12.5,39.78,25.43,52.58,39.28,26.88,29.1,44.26,60.53,51.7,93.48.69.7,1.35,1.42,1.98,2.16,11.41,13.45,9.96,28.65,8.81,35.96,2.08,10.8,7.35,32.22,14.61,59.41,3.04,11.39.81,23.43-6.11,33.04-2.61,3.62-5.82,6.79-9.49,9.37l2.15,21.94c.95,9.29-1.5,18.7-6.78,26.46l11.02,63.34-20.96,20.48-9.9,9.7-.45-.04c-1.25,4.2-3.39,8.13-6.33,11.55-.28,1.55-.61,3.24-1.04,5.03-.51,2.08-1.72,7.05-4.73,12.5l-.04,8.8-1.9,5.28c-4.36,14.41-14.36,24.47-28.2,28.37l-39.77,12.21-1.75.4,8.32,33.06-41.29-12.19c-1.25-.37-28.05-8.28-49.55-14.69-6.19,6.5-14.1,12.9-22.5,18.15l-.29.18c-2.76,1.71-4.41,3.24-5.21,4.12l-2.61,36.38-39.56-5.49c-16.52-2.29-31.25-10.62-43.09-24.24-18.73,12.14-37.32,21.72-55.38,28.53l-69.7,26.28,9.91-54.71Z" fill="#fff" stroke-width="0"/><path d="M217.29,627.55l.18-.97,1.09-5.95-6.09,2.24-55.57,20.31,12.08-57.05c.71-3.36,1.55-7,2.57-11.13l1.01-4.1-4.33-.15c-2.19-.07-3.98-.15-5.65-.24l-58.36-3.17,30.2-41.68-6.14-.51c-9.53-.8-15.45-1.77-16.1-1.88l-34.4-5.79,16.97-29.68c.58-1.02,5.93-10.27,14.59-22.17l2.99-4.1-5.02-1.22c-6.44-1.57-13.13-3.45-19.88-5.6l-41.58-13.22,24.41-35.33c.92-1.34,1.89-2.68,2.87-4l2.65-3.56-47.78-18.78,33.83-25.65c2.71-2.06,12.52-9.45,24.65-18.22l5.95-4.29-58.39-14.61,38.24-39.93c11.19-11.68,21.76-20.56,34.28-28.8l4.06-2.67-25.81-19.24,27.53-15.25-43.62-24.78,75.41-14.54-19.65-26.67,57.73-3.9,1.35-.08,4.12-.27-1.43-5.97,9.86-.8-14.13-48.87,34.83,9.76,82.26-1.2c1.07,0,2.07.01,3.08.04.75.02,1.49.04,2.24.07l4.26.16-10.78-67.71,114.85,65.28-.19-53.68,57.07,61.75c2.43,2.55,10.73,8.27,28.62,19.7,18.81,12.02,38.25,24.45,49.82,36.97,26.03,28.18,42.53,58.52,49.04,90.19l.24,1.16.91.77c1.15.97,2.19,2.01,3.1,3.08,8.34,9.83,6.39,21.23,5.46,26.71l-.1.58.1.58c1.89,10.49,7.41,33.15,15.16,62.18,2,7.47.53,15.38-4.01,21.68-2.69,3.73-6.36,6.73-10.61,8.67l-2.24,1.02,3.02,30.81c.75,7.3-1.66,14.69-6.6,20.25l-1.09,1.22,10.85,62.34-15.84,15.48-5.2,5.09-8.51-.85.44,4.19c.61,5.71-1.49,11.25-5.74,15.21l-.85.79-.19,1.14c-.05.3-.11.61-.17.91l-.02.12c-.31,1.84-.68,3.98-1.21,6.17-.47,1.94-1.58,6.48-4.53,10.97l-.55.84-.05,10.26-1.24,3.45-.06.21c-3,10.02-9.5,16.67-18.81,19.25l-39.43,12.1-3.78.86-2.99-.07c-.9-.02-1.65-.04-2.35-.09-.59-.04-1.09-.1-1.57-.19l-5.34-.96,6.81,27.05-17.7-5.22c-.31-.09-33.62-9.92-56.11-16.65l-2.33-.7-1.48,1.87c-5.55,7-14.44,14.67-23.79,20.51l-.25.15c-6.55,4.07-10.96,8.84-11.51,12.46l-.02.13-1.71,23.84-24.62-3.41c-15.58-2.16-29.33-11.36-39.76-26.61l-2.01-2.94-2.95,2.03c-20.64,14.2-41.09,25.16-60.79,32.59l-46.35,17.47,8.61-47.53Z" fill="#103385" stroke-width="0"/><path d="M543.98,420.67c-.76,0-1.52,0-2.28-.01-7.12-.16-13.35-1.46-18.09-2.86l23.53.52c-.94.74-2.29,1.8-3.16,2.35Z" fill="#103385" stroke-width="0"/><path d="M343.35,537.02s31.31,25.05,92.57,43.66c4.66,1.42,8.1-19.74,9.84-19.4,1.51.29,5.71,24.35,7.13,24.6l17.08,4.74-8.92-30.1-70.78-44.54c-5.01-2.32-7.81-11.54-7.11-16.59l-.19,12.07-42.2-.59,2.59,26.15Z" fill="#facf2d" stroke-width="0"/><path d="M399.26,470.01c-.85.55-1.32.84-1.32.84-.35.51-.58,1.08-.66,1.67,0,0,.41,1.99.89,4.77l1.09-7.29Z" fill="#facf2d" stroke-width="0"/><path d="M585.98,479.73l-10.53-55.7c-.97-4.93-14.52,1.19-21.87,4.55-2.89,1.32-34.86-12.77-34.86-12.77-1.42-4.71-4.51-8.43-6.98-10.81-.94-.91-.15-2.45,1.15-2.25l66.84,12c2.8.19,5.19-6.23,4.9-8.76l-3.1-31.7c-.68-5.97-6.93-10.11-13.43-8.89l-108.32,17.07c-1.19.23.65-.93,0,0,0,0-6.52,18.34-10.95,31.33h0s-.01.02-.01.02c-1.45,4.24-3.07,8.47-4.81,12.26l-4.71,12c-.77,1.96-.26,4.18,1.3,5.67l21.48,20.44-21.17,31.05c-1.35,2.03-4,2.88-6.37,2.04l-20.02-7.12c-3.32-1.18-6.96.72-7.69,4.02l-3.52,15.9c25.8,15.91,98.81,60.86,99.7,60.66l39.02-11.97c2.39-.55,2.52-2.84,3.27-4.89l.05-10.58c.44-1.24-4.26-2.54-5.6-2.21l9.49-6.42c1.25-.15,1.9-7.8,1.9-7.8,1.02-2.98-8.65-6.89-15.25-7.05-9.17-.21-13.74-4.71-15.99-8.73,0,0,9.61-1.91,13.6-.95,10.67,2.56,24.64,4.12,24.73-.29,0,0-2.13-8.11-3.39-10.92-.86-1.92-2.86-3.12-5.01-3.02l-11.85.69c-1.57-.02-3.01-.77-3.82-1.99l-11.23-16.87c-.96-1.44-2.8-2.21-4.63-1.94l-14.07,2.92c-5.19.89-9.56,4.12-11.87,8.63-7.34,14.35-30.08,31.99-30.08,31.99l23.34-39.86c2.91-5.33,5.62-8.92,10.94-10.19l38.21-8.94c2.18-.42,11.34-3.11,12.23-1.66l-12.01,11.41c-1.48,1.39-1.68,3.54-.46,5.15l6.39,11.61c1.23,1.62,6.13,1.08,8.11.29l-2.89-6.16c.22-1.08,6.56-3.43,7.72-3.35l14.33,5.47,13.19,1.1,4.59-4.49Z" fill="#facf2d" stroke-width="0"/><path d="M421.3,543.67c-1.07-5.18-2.52-10.63-4.24-16,7.33-8.94,13.13-16.45,15.07-20.01,9.67-17.72,11.38-35.34,5.08-52.36-1.35-3.64-2.99-6.94-4.44-9.85-.68-1.38-1.24-2.49-1.77-3.63l-.63-1.35c4.39-8.32,6.94-16.76,7.77-25.7,1.08-11.65-1.46-23.09-7.77-34.96-.61-1.16-1.28-2.3-1.85-3.29l-9.51-16.65-12.11,12.86-7.07,7.47c-6.24,6.58-12.56,13.25-18.67,20-2.33,2.57-3.7,5.33-4.7,7.34-.28.57-.58,1.21-.84,1.6-4.08,4.8-8.64,9.83-13.04,14.7l-4.38,4.84c-.87-.82-1.78-1.65-2.74-2.54-2.81-2.57-5.45-5-7.79-7.57-2.77-3.06-5.61-5.7-8.35-8.25-1.17-1.09-2.26-2.1-3.33-3.13l-12.77-12.3-8.05,15.65c-8.14,15.81-9.91,31.72-5.26,47.3,1.85,6.2,4.53,12.24,7.99,17.97h0c-4.59,9.33-6.98,17.16-7.75,25.39-1.05,11.35,1.06,22.33,6.41,33.28-1.32,5.92-2.23,12.09-2.68,18.42-3.29,45.95,17.86,85.23,48.15,89.43l13.42,1.86.93-12.98c1.12-11.23,14.35-19.14,16.58-20.53,9.67-6.04,18.46-14.04,22.67-20.19,8.72-12.74,9.13-30.27,5.7-46.83Z" fill="#103385" stroke-width="0"/><path d="M319.61,553.37c.48-6.75,1.52-13.28,3.03-19.51-5.52-10.61-7.77-21.18-6.77-32.08.7-7.56,2.93-14.82,7.22-23.53l1.32-2.67c-3.97-6.05-6.98-12.46-8.98-19.17-4.24-14.21-2.59-28.8,4.9-43.35l4.53-8.8,7.06,6.8c1.13,1.09,2.27,2.15,3.41,3.21,2.66,2.47,5.41,5.03,8.01,7.9,2.49,2.74,5.24,5.27,8.16,7.94,2.33,2.13,4.68,4.32,6.99,6.66l.91-.97c.87-.93,1.69-1.8,2.49-2.69l5.01-5.54c4.46-4.92,9.07-10.01,13.41-15.14.36-.42.89-1.49,1.36-2.44.91-1.83,2.04-4.1,3.87-6.12,6.11-6.75,12.45-13.44,18.59-19.91l7.08-7.48,6.7-7.11,5.6,9.79c.54.93,1.17,2.01,1.75,3.1,5.8,10.92,8.14,21.36,7.16,31.94-.84,9.05-3.64,17.62-8.44,26.01l1.79,3.82c.59,1.27,1.21,2.51,1.82,3.74,1.46,2.94,2.97,5.98,4.2,9.31,5.74,15.51,4.13,31.65-4.77,47.97-1.95,3.57-8.12,12.8-16.12,22.47,2.07,6.05,3.53,11.25,4.75,17.15,3.18,15.36,1.33,30.74-5.21,43.31-7.85,15.07-38.35,22.05-39.83,42.78l-.51,7.14-7.35-1.02c-27.26-3.78-46.21-40.45-43.13-83.49Z" fill="#103385" stroke-width="0"/><path d="M366.76,630.43c-1.46-20.85,34.67-33.49,40.23-44.16,6.16-11.84,7.9-26.39,4.89-40.95-1.16-5.59-2.07-9.37-4.13-15.38l-14.02,14.89s28.75-39.49,29.87-41.54c8.39-15.38,9.93-30.53,4.56-45.03-1.17-3.17-2.64-6.11-4.05-8.95-.71-1.44-1.3-2.62-1.86-3.82l-1-2.12-13.77,13.71,13.09-18.69c4.58-8,7.19-16.04,7.99-24.59.92-9.86-1.29-19.65-6.75-29.93-.56-1.05-1.16-2.08-1.68-2.97l-2.98-5.22-10.45,11.05c-6.04,6.37-12.28,12.95-18.26,19.57-1.49,1.65-2.46,3.59-3.31,5.3-.72,1.46-1.24,2.46-1.85,3.17-4.35,5.14-8.96,10.24-13.42,15.16l-5.07,5.6c-.64.71-1.3,1.43-2,2.17l-4.2,4.51-2.9-2.95c-2.34-2.39-4.76-4.62-6.84-6.53-2.84-2.6-5.78-5.29-8.42-8.19-2.5-2.75-5.19-5.25-7.79-7.67-1.22-1.13-2.34-2.18-3.46-3.26l-3.25-3.13-2.18,4.23c-7.06,13.72-8.62,27.42-4.66,40.72,1.89,6.32,5.27,11.29,9.04,17.05l16.65,22.54-17.25-17.2-1,2.02c-4.09,8.31-6.22,15.19-6.87,22.3-.94,10.2,1.69,19.8,6.37,30.1,2.14,4.7,11.27,17.26,11.27,17.26l-11.71-11.46c-1.49,6.18-1.73,9.24-2.19,15.63-2.94,41.09,14.53,76.02,39.78,79.52l3.31.46.23-3.24Z" fill="#facf2d" stroke-width="0"/><path d="M360.18,625.59c2.07-18.83,34.9-31.62,40.54-42.47,5.39-10.33,6.95-23.7,4.31-36.58-.43-1.9-.87-3.83-1.38-5.85-12.51,14.73-25.73,29.76-31.26,36.02-3.22,3.65-8.96,4.06-12.82.91-7.94-6.42-20.6-17.09-28.91-25.9-.09.85-.17,1.7-.22,2.54-2.42,33.92,10.91,65.09,29.75,71.32Z" fill="#103385" stroke-width="0"/><path d="M370.7,509.55l1.22-1.3c1.8-1.93,3.59-3.85,5.37-5.82,4.09-4.37,8.32-8.91,12.35-13.54,2.04-2.36,3.66-4.97,5.18-7.52,2.08-3.43,4.08-6.68,6.92-8.84,2.43-1.86,4.41-4.16,6.34-6.37l1.09-1.22c2.94-3.32,5.85-6.72,8.88-10.23l.05-.09c1.13,2.25,2.16,4.46,3,6.69,4.43,12.01,3.11,24.29-4.07,37.44-5.65,10.38-13.45,18.72-22.29,27.76-1.17,1.21-2.39,2.4-3.61,3.59-.64-.61-1.3-1.18-1.97-1.78-6.64-5.99-12.97-11.7-18.47-18.77Z" fill="#103385" stroke-width="0"/><path d="M389.17,528.32c-6.64-5.99-12.97-11.7-18.47-18.77l1.22-1.3c1.8-1.93,3.59-3.85,5.37-5.82,4.09-4.37,8.32-8.91,12.35-13.54,2.04-2.36,3.66-4.97,5.18-7.52,2.08-3.43,4.08-6.68,6.92-8.84,2.43-1.86,4.41-4.16,6.34-6.37l1.09-1.22c2.94-3.32,5.85-6.72,8.88-10.23l.05-.09c1.13,2.25,2.16,4.46,3,6.69,4.43,12.01,3.11,24.29-4.07,37.44-5.65,10.38-13.45,18.72-22.29,27.76-1.17,1.21-2.39,2.4-3.61,3.59-.64-.61-1.3-1.18-1.97-1.78Z" fill="#facf2d" stroke-width="0"/><path d="M370.7,509.55c5.5,7.07,11.83,12.78,18.47,18.77.67.6,1.33,1.17,1.97,1.78,1.22-1.19,2.44-2.38,3.61-3.59,8.84-9.04,16.64-17.38,22.29-27.76,7.17-13.15,8.5-25.43,4.07-37.44-.84-2.23-1.87-4.44-3-6.69l-.05.09c-3.03,3.51-47.36,54.83-47.36,54.83Z" fill="#103385" stroke-width="0"/><path d="M368.24,443.81c.73-.75,1.39-1.48,2.06-2.21l4.92-5.51c4.55-4.99,9.23-10.15,13.71-15.43,1.26-1.51,2.15-3.26,2.91-4.8.67-1.36,1.31-2.67,2.07-3.47,6.06-6.71,12.4-13.4,18.55-19.86l3.31-3.53c4.28,8.38,5.9,15.92,5.21,23.71-.88,9.34-4.4,18.15-10.74,27.03-2.4,3.34-5.02,6.87-7.85,10.05-3.73,4.14-7.55,8.14-11.37,12.15l-2.31,2.41-.56-.52c-7.22-6.47-14.12-12.61-19.91-20.02Z" fill="#103385" stroke-width="0"/><path d="M368.24,443.81c5.79,7.41,12.69,13.55,19.91,20.02l.56.52,2.31-2.41c3.82-4.01,7.64-8.02,11.37-12.15,2.83-3.17,5.45-6.7,7.85-10.05,6.34-8.88,9.86-17.69,10.74-27.03.69-7.79-.92-15.33-5.21-23.71l-3.31,3.53c-6.15,6.46-12.5,13.15-18.55,19.86-.76.8-1.4,2.11-2.07,3.47-.76,1.55-1.65,3.29-2.91,4.8-4.48,5.28-9.17,10.44-13.71,15.43l-4.92,5.51c-.66.73-1.32,1.46-2.06,2.21Z" fill="#103385" stroke-width="0"/><path d="M326.37,452.97c-2.85-9.64-2.27-19.24,1.89-29.27,2.44,2.29,4.75,4.42,6.89,6.77,2.86,3.17,5.96,6.02,8.94,8.76,4.82,4.4,9.4,8.57,13,13.96,3.2,4.74,7.26,8.61,11.17,12.33,1.41,1.37,2.84,2.7,4.18,4.1,2.1,2.13,4.3,4.1,6.5,6.16.24.2.49.43.69.64-4.9,7.62-11.12,13.79-17.7,20.28l-.89.88c-1.6-1.55-3.23-3.08-4.86-4.62-5.03-4.72-10.2-9.63-14.98-14.79-7.22-7.76-12.07-16.03-14.82-25.19Z" fill="#103385" stroke-width="0"/><path d="M341.19,478.16c4.78,5.16,9.96,10.07,14.98,14.79,1.63,1.54,3.27,3.07,4.86,4.62l.89-.88c6.58-6.49,12.8-12.66,17.7-20.28-.2-.21-.45-.44-.69-.64-2.19-2.06-4.4-4.03-6.5-6.16-1.34-1.4-2.77-2.73-4.18-4.1-3.92-3.72-7.97-7.59-11.17-12.33-3.61-5.39-8.18-9.56-13-13.96-2.98-2.74-6.08-5.59-8.94-8.76-2.14-2.35-4.45-4.48-6.89-6.77-4.16,10.04-4.74,19.64-1.89,29.27,2.75,9.16,7.6,17.43,14.82,25.19Z" fill="#103385" stroke-width="0"/><path d="M327.32,503.22c.4-4.56,1.6-9.15,3.8-14.35l3.51,3.62c4.19,4.34,8.36,8.64,12.56,12.89,1.1,1.09,2.26,2.11,3.44,3.09,1.78,1.49,3.46,2.93,4.52,4.58,4.1,6.36,9.18,12.32,16.46,19.36,2.86,2.74,5.82,5.44,8.74,8.12l1.81,1.67c-4.68,7.23-10.55,13.13-16.76,19.34-.62.63-1.27,1.28-1.88,1.92-9.39-8.45-19.05-17.17-26.41-27.9-7.69-11.17-10.81-21.42-9.79-32.34Z" fill="#103385" stroke-width="0"/><path d="M337.1,535.56c7.36,10.73,17.02,19.45,26.41,27.9.62-.63,1.27-1.28,1.88-1.92,6.2-6.21,12.07-12.11,16.76-19.34l-1.81-1.67c-2.92-2.68-5.88-5.38-8.74-8.12-7.28-7.04-12.36-13-16.46-19.36-1.07-1.65-2.74-3.09-4.52-4.58-1.18-.98-2.34-2.01-3.44-3.09-4.2-4.25-8.37-8.55-12.56-12.89l-3.51-3.62c-2.19,5.19-3.4,9.79-3.8,14.35-1.02,10.92,2.1,21.17,9.79,32.34Z" fill="#103385" stroke-width="0"/><path d="M227.7,629.38c10.03-55.36,29.16-102.55,56.86-140.25,17.75-24.16,33.81-36.96,39.89-41.35l-.13-.19,2.04-1.14c.21-.14.38-.25.49-.32l6.33-4.08.74.17,6.69-3.75c31.45-17.61,54.53-23.15,55.5-23.37l31.87-7.48-16.28,39.55-13.28,20.67c-.26.41-25.13,39.54-38.02,102.74l-.98,4.81-3.51,3.53c-1.92,1.93-47.65,47.56-104.7,69.07l-28.84,10.87,5.34-29.48Z" fill="#103385" stroke-width="0"/><path d="M237.22,631.05c23.48-129.58,92.07-175.18,94.98-177.06l2.83-1.83,5.28,1.24-1.99-2.77,7.13-3.99c30.26-16.95,52.05-22.17,52.96-22.39l13.61-3.2-8.97,21.77-12.83,19.96c-.25.39-25.94,40.37-39.3,105.9l-.43,2.1-1.54,1.55c-1.86,1.87-46.16,46.08-101.26,66.85l-12.82,4.83,2.35-12.97Z" fill="#facf2d" stroke-width="0"/><path d="M396.4,442.56l3.87-11.15s-18.82-9.09-40.2,1.2c-4.77,2.3-5.3,17.36-10.7,20.39l8.76,12.16-21.58-5.07s-68.53,44.24-91.72,172.23c54.15-20.41,98.51-65.08,98.51-65.08,13.84-67.83,40.33-108.38,40.33-108.38,0,0-24.98,32.09-80.41,95.45,46.33-78.97,93.15-111.77,93.15-111.77Z" fill="#103385" stroke-width="0"/><path d="M171.53,560.54c-2.79-.06-5.61-.17-8.39-.32l-39.25-2.13,22.53-31.09c33.8-46.64,72.37-82.15,114.66-105.52,23.37-12.92,42-18.67,51.68-21.04l-.14-.78,6.77-.63c.18-.03.33-.05.43-.07l9.42-1.46.72.55,6-.56c11.75-1.09,23.33-1.52,34.43-1.26,16.43.37,26.44,2.14,27.52,2.34l39.39,7.28-40.74,41.39-6.67,1.28c-.49.1-9.42,1.99-24.39,7.33l3.13,6.02-12.62,6.12c-.98.5-36.14,18.64-73.75,68.28l-3.34,4.42-5.16,2.27c-2.75,1.2-27.71,11.77-65.63,15.97-12.16,1.35-24.49,1.89-36.62,1.62h0Z" fill="#103385" stroke-width="0"/><path d="M206.51,545.27c36.63-4.07,60.44-14.41,61.43-14.85l1.82-.8,1.17-1.55c40.58-53.55,78.35-72.19,78.73-72.37l-3.72-7.14c25.39-10.36,40.83-13.45,41.12-13.51l2.4-.46,19.66-19.97-13.76-2.55c-.92-.17-23.03-4.15-58.01-.9l-8.22.76.6,3.33-4.28-3.25-3.37.52c-3.47.54-85.89,14.41-164.15,122.43l-7.82,10.8,13.76.75c14.07.76,28.42.35,42.64-1.23Z" fill="#facf2d" stroke-width="0"/><path d="M395.12,312.97l-3.5-5.74c-.03-.05-4.84-7.72-15.36-20.04l-4.99,4.72-9.78-9.18c-.77-.7-30.1-26.9-91.6-45.48l-5.39-1.63-3.91-3.96c-1.47-1.48-35.98-36.92-52.78-95.04l-10.52-36.39,37.5,10.51c57.14,16.02,104.77,39.85,141.55,70.82,20.51,17.27,32.23,32.45,37.67,40.46l.7-.36,2.71,5.74c.1.18.19.33.24.43l4.64,8.37-.33.86,2.34,4.96c15.01,31.84,18.52,54.2,18.87,56.65l5.38,37.9-53.43-23.63Z" fill="#103385" stroke-width="0"/><path d="M429.22,300.56c-.13-.89-3.26-22.15-17.71-52.8l-3.4-7.2-3.11,1.58,1.86-4.89-1.6-2.89c-1.65-2.97-41.87-73.27-174.32-110.39l-13.24-3.71,3.67,12.69c15.86,54.85,47.99,87.83,49.35,89.2l1.38,1.4,1.92.58c66.24,20.01,96.87,48.39,97.17,48.68l5.88-5.57c18.41,19.72,26.49,32.75,26.64,33l1.23,2.01,26.15,11.57-1.88-13.26Z" fill="#facf2d" stroke-width="0"/><path d="M410.38,296.56l11.2,4.95s-2.95-20.74-17.1-50.77l-13.6,6.92,7.57-19.89s-38.82-70.08-169.65-106.75c15.53,53.71,47.52,86.1,47.52,86.1,69.18,20.9,100.29,50.48,100.29,50.48,0,0-12.65-12.36-72.76-72.21,77.33,53,106.54,101.18,106.54,101.18Z" fill="#103385" stroke-width="0"/><path d="M404.36,288.29l-5.3-4.23c-.05-.04-7.25-5.65-21.44-13.73l-3.02,6.11-12.4-5.37c-.85-.35-28.22-11.45-76.69-12.56-8.22-.19-16.71-.08-25.21.32l-5.63.27-5.06-2.42c-1.9-.91-46.71-22.73-82.85-71.81l-22.63-30.72,38.87-2.62c14.62-.99,29.09-1.32,43.02-1.01,46.96,1.07,89.12,9.36,125.32,24.64,19.26,8.13,32.12,16.4,38.87,21.27l.53-.57,4.55,4.5c.17.14.29.25.38.32l7.29,6.33v.92s3.93,3.89,3.93,3.89c25.24,24.94,36.38,44.82,37.57,47l18.34,33.87-58.43-4.41Z" fill="#103385" stroke-width="0"/><path d="M432,265.23c-.43-.79-10.83-19.75-35.13-43.77l-5.71-5.64-2.36,2.52.03-5.22-2.51-2.18c-2.59-2.25-64.98-54.96-202.3-45.7l-13.73.93,7.9,10.72c34.11,46.31,75.83,66.62,77.59,67.46l1.79.85,2-.1c69.18-3.27,107.88,13.21,108.26,13.38l3.57-7.21c24.19,12.41,36.34,21.98,36.57,22.16l1.86,1.48,28.6,2.16-6.41-11.84Z" fill="#facf2d" stroke-width="0"/><path d="M412.92,267.76l12.25.92s-10.04-18.53-33.85-42.06l-10.33,11.04.13-21.24s-61-52.98-196.65-43.83c33.4,45.35,74.78,65.15,74.78,65.15,72.25-3.41,111.82,14.03,111.82,14.03,0,0-16.21-7.41-93.61-43.66,91.16,24.07,135.46,59.65,135.46,59.65Z" fill="#103385" stroke-width="0"/><path d="M385.52,427.84l8.42-8.55s-21.53-3.98-55.8-.8l2.63,14.53-17.41-13.23s-81.77,12.67-159.08,119.37c58.23,3.16,100.41-15.41,100.41-15.41,42.38-55.93,81.49-74.61,81.49-74.61,0,0-16.24,7.49-94.49,42.72,76.83-53.02,133.83-64.01,133.83-64.01Z" fill="#103385" stroke-width="0"/><path d="M572.78,293.76l1.47-6.96c.47-2.2,10.76-54.52-44.51-114.35-9.42-10.2-27.5-21.76-44.98-32.93-13.83-8.84-28.14-17.98-33.53-23.82l-13.83-14.96.07,20.21c.02,4.75.42,9.06,1.18,13.03-3.42-2.08-6.93-4.15-10.55-6.2-5.08-2.89-10.35-5.75-15.68-8.5l-13.6-7.74-68.67-39.04,2.57,16.14c.15.97,3.42,20.14,20.82,40.93-10.3-3.56-21.04-6.78-32.21-9.62h0c-7.32-1.39-14.76-2.09-22.22-2.1l-40.35.59-14.07.21c8.22,10.45,28.88,30.94,38.87,38.19-21.22-3.84-31.31-4.37-54.09-1.31l-12.75,1.04s4.93,20.6,22.87,33.38c-23.96-2.53-49.61-2.45-81.13,3.63l-21,4.05s23.43,13.31,31.2,17.62c-16.93,1.77-39.28,14.15-39.28,14.15l26.14,19.48c-28.79,14.34-45.09,23.66-65.2,44.66l-9.85,10.29,72.26,18.08c-17.39,7.02-75.73,51.24-75.73,51.24l13.56,5.33c.8.32,15.86,6.16,32.27,7.69-13.42,10.8-24.17,21.97-32.1,33.46l-6.14,8.88,10.42,3.31c33.2,10.55,55.49,11.52,69.18,10.07-27.4,21.88-47.87,57.68-47.87,57.68,0,0,62.57,10.54,118.56-10.89-16.64,25.94-32.75,59.93-41.74,102.4l-3.02,14.25,13.64-4.99c68.34-24.98,96.44-65.73,98.13-67.42l2.58-2.59-.1-1.09.21.2,5.36-4.72c26.92-23.7,45.58-53.78,46.37-55.05l25.37-44.27-10.68,3.45c-3.09-3.71-26.94,15.89-28.86,5.39l-2-10.89,9.81-33.63c2.49-.5,3.9-.72,3.99-.73l2.59-.38,20.79-21.11-14.94-2.76c-.36-.07-4.04-.73-10.49-1.3,4.54-.29,9.16-.56,13.95-.79l4.36-.2,7.48-13.47,3.58-6.57-6.38-4.1s-.31-.2-.9-.54c8-3.89,13.42-10.93,14.27-12.09l1.76-2.39,14.25,4.46-6.23-8.53,3.69-6.65,1.54,5.6,22.59-14.39-.71-1.81.31-.1c16.99,2.3,28.62-1.94,35.08-12.71l.2-.25,2.75,1.59s16.09-6.16,16.93-5.68c6.77,3.85,14.35,1.85,15.8,1.41l5.91-1.79-.31-4.84c2.88,2.07,5.68,3.78,7.73,4.94h0c14.99,8.52,21.47,7.72,24.54,6.11l.07.2,26.99,2.06-.05-.47,11.67,1.35Z" fill="#facf2d" stroke-width="0"/><path d="M566.47,285.03s10.54-49.78-42.52-107.22c-16.44-17.8-65.53-42.7-78.51-56.75.04,10.55,2.11,17.77,5.03,22.86,101.77,63.3,107.96,140.17,107.96,140.17l8.04.93Z" fill="#103385" stroke-width="0"/><path d="M552.25,284.22s-9.44-88.64-143.37-157.87l-6.91,12.44-9.35-21.68-52.03-29.58s4.08,25.66,30.83,49.04c34.57,11.85,66.41,38.47,94.72,65.35,57.61,34.57,73.8,81.35,73.8,81.35l12.32.94Z" fill="#103385" stroke-width="0"/><path d="M530.75,281.09c-17.3-39.8-53.34-62.44-53.34-62.44,0,0,18.87,33.15,20.93,47.05,7.66,10.42,35.98,23.62,32.41,15.39Z" fill="#103385" stroke-width="0"/><path d="M371.41,430.76s-35.94,60.63-62.3,83.84l-14.57-5.27,8.37,11.94s-34.5,46.91-102,71.58c26.35-124.46,101.85-176.45,101.85-176.45l20.17,6.61-9.22-13.12,25.41-11.62-7.43,25.48c-54.55,45.37-79.89,90.98-79.89,90.98,0,0,62.15-66.64,89.49-85.05,2.73,14.89,30.11,1.07,30.11,1.07Z" fill="#103385" stroke-width="0"/><path d="M352.63,381.1l8.42-8.55s-21.53-3.98-55.8-.8l2.63,14.53-17.41-13.23s-81.77,12.67-159.08,119.37c58.23,3.16,100.41-15.41,100.41-15.41,42.38-55.93,81.49-74.61,81.49-74.61,0,0-16.24,7.49-94.49,42.72,76.83-53.02,133.83-64.01,133.83-64.01Z" fill="#103385" stroke-width="0"/><path d="M365.33,354.67l5.37-9.67s-29.75-25.95-123.86-11.7l.78,25-17.89-20.62s-95.01,32.38-132.45,86.57c58.06,18.45,80.47,6.18,80.47,6.18,33.35-31.97,76.6-54.26,76.6-54.26l-36.73,10.54s33.81-26.75,147.7-32.03Z" fill="#103385" stroke-width="0"/><path d="M360.88,332.14c11.08,2.06,20.94-11.28,20.94-11.28,0,0-86.2-58.04-229.49,10.09l4.5,25.74-19.23-18.2-44.24,32.59s23.33,9.17,42.3,7.22c103.89-75.82,169.88-56.42,225.23-46.15Z" fill="#103385" stroke-width="0"/><path d="M274.65,290.39s-45.09,1.11-107.26,26.09l-40.2-10.81-1.61-12.95-8.89,11.46-20.58-5.06c56.77-59.27,142.09-48.47,142.09-48.47l84.87,41.31s-108.26-29.45-166.52-13.16c61.55-3.51,118.11,11.6,118.11,11.6Z" fill="#103385" stroke-width="0"/><path d="M481.94,279.75c3.26,7.61,13,4.66,13,4.66,0,0-7.99-114.09-175.44-156.74l-9.98,17.97-5.27-19.82-41.45-.07c48.1,61.14,99.66,32.7,198.8,129.06,0,0-16.62-30.06-64.51-71.22,0,0,59.61,37.23,84.85,96.15Z" fill="#103385" stroke-width="0"/><path d="M454.01,284.45c-26.96,47.64-202.6-90.31-202.6-90.31,0,0-7.38-9-21.01-30.68,149.2-12.18,240.02,114.56,240.02,114.56l-6.79,3.42-66.41-38.36s65.31,26.31,56.79,41.37Z" fill="none" stroke-width="0"/><path d="M455.15,290.29c-4.53,5.53-38.92-12.57-72.08-32.21-22-13.03-40.55-31.16-63.03-42.8-36.08-18.69-68.64-21.14-68.64-21.14,0,0-7.38-9-21.01-30.68,121.34-16.5,239.65,101.97,248.47,125.16l-6.15,1.07c-4.02,2.02-2.71.55-6.4-2.13-8.58-6.23-35.84-29.11-69.1-44.48,48.72,32.24,57.94,47.21,57.94,47.21Z" fill="#103385" stroke-width="0"/><path d="M161.77,203.49c75.65-14.59,127.62,8.23,127.62,8.23l-2.36,15.24,19.29-11.07c80.48,45.48,98.65,91.64,98.65,91.64l-8.59,3.19s-39.17-39.54-112.41-64.5c84.42,45.56,101.42,68.86,101.42,68.86-122.59-63.81-223.63-111.6-223.63-111.6Z" fill="#103385" stroke-width="0"/><path d="M220.73,241.92l-37.13-18.99c-23.21-1.68-39.62,7.49-39.62,7.49l22.26,16.59c15.39-4.59,54.49-5.1,54.49-5.1Z" fill="#103385" stroke-width="0"/><path d="M386.35,269.14l49.82,26.79-12.5,3.8-13.75-9.68,6.38,11.56-8.04,5.13c-4.15-15.09-21.9-37.6-21.9-37.6Z" fill="#103385" stroke-width="0"/><path d="M315.83,327.39l10.63-6.05c102.52-58.37,179.91-68.01,248.26-69.74.73-.02,1.43-.02,2.1,0,7.31.17,12.82,2.37,16.37,6.55,5.25,6.19,3.99,13.58,3.15,18.47-.12.68-.27,1.57-.33,2.09l-.03.23.04.23c2.2,13.89,11.71,50.11,15.69,65.04,1.21,4.54.32,9.34-2.44,13.17-2.79,3.88-7.2,6.34-12.08,6.77-30.12,2.61-133.63,12.94-200.85,36.36l-5.86,2.04-74.66-75.15Z" fill="#103385" stroke-width="0"/><path d="M327.12,328.91l2.9-1.65c101.16-57.59,177.49-67.11,244.91-68.81.61-.02,1.2-.02,1.76,0,5.25.12,8.88,1.45,11.1,4.06,3.2,3.77,2.33,8.87,1.63,12.96-.27,1.6-.56,3.25-.43,4.11,2.08,13.79,11.84,50.98,15.93,66.33.69,2.58.18,5.32-1.39,7.5-1.61,2.23-4.15,3.65-6.97,3.89-30.33,2.63-134.58,13.04-202.59,36.73l-1.6.56-65.25-65.68Z" fill="#103385" stroke-width="0"/><path d="M331.35,329.48c104.34-59.4,182.05-66.91,243.65-68.46,18.63-.47,10.56,13.53,11.37,18.92,2.09,13.86,11.74,50.66,15.99,66.6,1.05,3.94-1.81,7.83-6.05,8.2-29.71,2.57-134.72,13-203.24,36.87l-61.73-62.13Z" fill="#103385" stroke-width="0"/><g clip-path="url(#d)"><polygon points="584.69 352.15 603.15 349.62 600.74 334.89 582.28 337.42 584.69 352.15" fill="#103385" stroke-width="0"/><polygon points="577.46 307.97 592.88 305.73 590.47 291 588.06 276.28 572.64 278.51 575.05 293.24 559.63 295.47 562.04 310.2 546.62 312.44 549.04 327.16 533.62 329.4 536.03 344.12 520.61 346.36 523.02 361.09 538.44 358.85 553.86 356.62 551.45 341.89 566.86 339.65 564.45 324.93 579.87 322.69 577.46 307.97" fill="#103385" stroke-width="0"/><polygon points="570.23 263.79 585.65 261.55 583.24 246.83 567.82 249.06 570.23 263.79" fill="#facf2d" stroke-width="0"/><polygon points="572.64 278.51 588.06 276.28 585.65 261.55 570.23 263.79 554.81 266.02 557.22 280.75 541.8 282.98 544.21 297.71 528.8 299.95 531.21 314.67 515.79 316.91 518.2 331.63 502.78 333.87 505.19 348.59 489.77 350.83 492.18 365.56 507.6 363.32 523.02 361.09 520.61 346.36 536.03 344.12 533.62 329.4 549.04 327.16 546.62 312.44 562.04 310.2 559.63 295.47 575.05 293.24 572.64 278.51" fill="#facf2d" stroke-width="0"/><polygon points="554.81 266.02 570.23 263.79 567.82 249.06 552.4 251.3 554.81 266.02" fill="#fff" stroke-width="0"/><polygon points="539.39 268.26 554.81 266.02 552.4 251.3 536.98 253.53 539.39 268.26" fill="#fff" stroke-width="0"/><polygon points="541.8 282.98 557.22 280.75 554.81 266.02 539.39 268.26 523.98 270.49 526.39 285.22 510.97 287.45 513.38 302.18 497.96 304.42 500.37 319.14 484.95 321.38 487.36 336.1 471.94 338.34 474.35 353.06 458.93 355.3 461.34 370.03 476.76 367.79 492.18 365.56 489.77 350.83 505.19 348.59 502.78 333.87 518.2 331.63 515.79 316.91 531.21 314.67 528.8 299.95 544.21 297.71 541.8 282.98" fill="#fff" stroke-width="0"/><polygon points="523.98 270.49 539.39 268.26 536.98 253.53 521.57 255.77 523.98 270.49" fill="#103385" stroke-width="0"/><polygon points="508.56 272.73 523.98 270.49 521.57 255.77 506.15 258 508.56 272.73" fill="#103385" stroke-width="0"/><polygon points="493.14 274.96 508.56 272.73 506.15 258 490.73 260.24 493.14 274.96" fill="#103385" stroke-width="0"/><polygon points="399.67 378.97 415.09 376.73 412.68 362.01 397.26 364.24 399.67 378.97" fill="#103385" stroke-width="0"/><polygon points="477.72 277.2 493.14 274.96 490.73 260.24 475.31 262.47 477.72 277.2" fill="#103385" stroke-width="0"/><polygon points="510.97 287.45 526.39 285.22 523.98 270.49 508.56 272.73 493.14 274.96 477.72 277.2 462.3 279.43 464.71 294.16 449.29 296.39 451.7 311.12 436.28 313.36 438.69 328.08 423.27 330.32 425.68 345.04 410.26 347.28 412.68 362.01 415.09 376.73 430.5 374.5 445.92 372.26 461.34 370.03 458.93 355.3 474.35 353.06 471.94 338.34 487.36 336.1 484.95 321.38 500.37 319.14 497.96 304.42 513.38 302.18 510.97 287.45" fill="#103385" stroke-width="0"/><polygon points="384.25 381.2 399.67 378.97 397.26 364.24 381.84 366.48 384.25 381.2" fill="#facf2d" stroke-width="0"/><polygon points="397.26 364.24 412.68 362.01 410.26 347.28 394.85 349.51 397.26 364.24" fill="#facf2d" stroke-width="0"/><polygon points="462.3 279.43 477.72 277.2 475.31 262.47 459.89 264.71 462.3 279.43" fill="#facf2d" stroke-width="0"/><polygon points="368.83 383.44 384.25 381.2 381.84 366.48 366.42 368.71 368.83 383.44" fill="#facf2d" stroke-width="0"/><polygon points="381.84 366.48 397.26 364.24 394.85 349.51 379.43 351.75 381.84 366.48" fill="#facf2d" stroke-width="0"/><polygon points="394.85 349.51 410.26 347.28 407.85 332.55 392.44 334.79 394.85 349.51" fill="#facf2d" stroke-width="0"/><polygon points="446.88 281.67 462.3 279.43 459.89 264.71 444.47 266.94 446.88 281.67" fill="#facf2d" stroke-width="0"/><polygon points="449.29 296.39 464.71 294.16 462.3 279.43 446.88 281.67 431.46 283.9 433.87 298.63 418.45 300.86 420.86 315.59 405.44 317.83 407.85 332.55 410.26 347.28 425.68 345.04 423.27 330.32 438.69 328.08 436.28 313.36 451.7 311.12 449.29 296.39" fill="#facf2d" stroke-width="0"/><polygon points="353.41 385.67 368.83 383.44 366.42 368.71 351 370.95 353.41 385.67" fill="#fff" stroke-width="0"/><polygon points="366.42 368.71 381.84 366.48 379.43 351.75 364.01 353.98 366.42 368.71" fill="#fff" stroke-width="0"/><polygon points="379.43 351.75 394.85 349.51 392.44 334.79 377.02 337.02 379.43 351.75" fill="#fff" stroke-width="0"/><polygon points="431.46 283.9 446.88 281.67 444.47 266.94 429.05 269.18 431.46 283.9" fill="#fff" stroke-width="0"/><polygon points="337.99 387.91 353.41 385.67 351 370.95 335.58 373.18 337.99 387.91" fill="#fff" stroke-width="0"/><polygon points="351 370.95 366.42 368.71 364.01 353.98 348.59 356.22 351 370.95" fill="#fff" stroke-width="0"/><polygon points="364.01 353.98 379.43 351.75 377.02 337.02 361.6 339.26 364.01 353.98" fill="#fff" stroke-width="0"/><polygon points="377.02 337.02 392.44 334.79 390.03 320.06 374.61 322.3 377.02 337.02" fill="#fff" stroke-width="0"/><polygon points="416.04 286.14 431.46 283.9 429.05 269.18 413.63 271.41 416.04 286.14" fill="#fff" stroke-width="0"/><polygon points="322.57 390.14 337.99 387.91 335.58 373.18 320.16 375.42 322.57 390.14" fill="#fff" stroke-width="0"/><polygon points="335.58 373.18 351 370.95 348.59 356.22 333.17 358.46 335.58 373.18" fill="#fff" stroke-width="0"/><polygon points="348.59 356.22 364.01 353.98 361.6 339.26 346.18 341.49 348.59 356.22" fill="#fff" stroke-width="0"/><polygon points="361.6 339.26 377.02 337.02 374.61 322.3 359.19 324.53 361.6 339.26" fill="#fff" stroke-width="0"/><polygon points="400.62 288.37 416.04 286.14 413.63 271.41 398.21 273.65 400.62 288.37" fill="#fff" stroke-width="0"/><polygon points="418.45 300.86 433.87 298.63 431.46 283.9 416.04 286.14 400.62 288.37 385.21 290.61 387.62 305.34 372.2 307.57 374.61 322.3 390.03 320.06 392.44 334.79 407.85 332.55 405.44 317.83 420.86 315.59 418.45 300.86" fill="#fff" stroke-width="0"/><polygon points="307.15 392.38 322.57 390.14 320.16 375.42 304.74 377.65 307.15 392.38" fill="#fff" stroke-width="0"/><polygon points="320.16 375.42 335.58 373.18 333.17 358.46 317.75 360.69 320.16 375.42" fill="#fff" stroke-width="0"/><polygon points="333.17 358.46 348.59 356.22 346.18 341.49 330.76 343.73 333.17 358.46" fill="#fff" stroke-width="0"/><polygon points="346.18 341.49 361.6 339.26 359.19 324.53 343.77 326.77 346.18 341.49" fill="#fff" stroke-width="0"/><polygon points="359.19 324.53 374.61 322.3 372.2 307.57 356.78 309.81 359.19 324.53" fill="#fff" stroke-width="0"/><polygon points="385.21 290.61 400.62 288.37 398.21 273.65 382.8 275.88 385.21 290.61" fill="#fff" stroke-width="0"/><polygon points="372.2 307.57 387.62 305.34 385.21 290.61 369.79 292.84 372.2 307.57" fill="#fff" stroke-width="0"/><polygon points="291.73 394.61 307.15 392.38 304.74 377.65 289.32 379.89 291.73 394.61" fill="#103385" stroke-width="0"/><polygon points="304.74 377.65 320.16 375.42 317.75 360.69 302.33 362.93 304.74 377.65" fill="#103385" stroke-width="0"/><polygon points="317.75 360.69 333.17 358.46 330.76 343.73 315.34 345.96 317.75 360.69" fill="#103385" stroke-width="0"/><polygon points="330.76 343.73 346.18 341.49 343.77 326.77 328.35 329 330.76 343.73" fill="#103385" stroke-width="0"/><polygon points="343.77 326.77 359.19 324.53 356.78 309.81 341.36 312.04 343.77 326.77" fill="#103385" stroke-width="0"/><polygon points="369.79 292.84 385.21 290.61 382.8 275.88 367.38 278.12 369.79 292.84" fill="#103385" stroke-width="0"/><polygon points="356.78 309.81 372.2 307.57 369.79 292.84 354.37 295.08 356.78 309.81" fill="#103385" stroke-width="0"/><polygon points="276.32 396.85 291.73 394.61 289.32 379.89 273.91 382.12 276.32 396.85" fill="#103385" stroke-width="0"/><polygon points="289.32 379.89 304.74 377.65 302.33 362.93 286.91 365.16 289.32 379.89" fill="#103385" stroke-width="0"/><polygon points="302.33 362.93 317.75 360.69 315.34 345.96 299.92 348.2 302.33 362.93" fill="#103385" stroke-width="0"/><polygon points="315.34 345.96 330.76 343.73 328.35 329 312.93 331.24 315.34 345.96" fill="#103385" stroke-width="0"/><polygon points="328.35 329 343.77 326.77 341.36 312.04 325.94 314.28 328.35 329" fill="#103385" stroke-width="0"/><polygon points="354.37 295.08 369.79 292.84 367.38 278.12 351.96 280.35 354.37 295.08" fill="#103385" stroke-width="0"/><polygon points="341.36 312.04 356.78 309.81 354.37 295.08 338.95 297.31 341.36 312.04" fill="#103385" stroke-width="0"/><polygon points="597.7 335.18 595.29 320.46 592.88 305.73 577.46 307.97 579.87 322.69 564.45 324.93 566.86 339.65 551.45 341.89 553.86 356.62 569.27 354.38 584.69 352.15 582.28 337.42 597.7 335.18" fill="#fff" stroke-width="0"/><path d="M583.8,267.25c-19.9.5-44.46,2.51-60.25,4.26-62.41,6.93-120.75,26.33-183.04,60.94" fill="none" stroke="#ffde17" stroke-miterlimit="10" stroke-width="8.68"/><path d="M583.83,265.53c-19.9.5-44.46,2.51-60.25,4.26-62.41,6.93-120.75,26.33-183.04,60.94" fill="none" stroke="#ffde17" stroke-miterlimit="10" stroke-width="8.68"/><path d="M394.69,383.49c51.29-17.23,120.34-27.36,169.77-32.84,13.61-1.51,31.36-3.42,38.15-4.01" fill="none" stroke="#ffde17" stroke-miterlimit="10" stroke-width="8.68"/><path d="M394.66,385.2c51.29-17.23,120.34-27.36,169.77-32.84,13.61-1.51,31.36-3.42,38.15-4.01" fill="none" stroke="#ffde17" stroke-miterlimit="10" stroke-width="8.68"/></g><path d="M403.59,573.98c-.63.31-1.29.58-1.95.78-5.75,1.78-11.56-.89-14.13-6.49-.9-1.97-21.96-49.49-11.41-160.18.52-5.49,3.72-10.33,8.35-12.63.64-.32,1.3-.58,1.97-.79,1.28-.4,2.59-.58,3.89-.54,3.43.1,6.51,1.68,8.68,4.45,2.17,2.78,3.16,6.41,2.8,10.24-9.58,100.47,8.81,144.55,9,144.98,3.05,6.78.33,15.55-6.06,19.53-.38.23-.76.45-1.15.64Z" fill="#fff" stroke-width="0"/><path d="M400.42,568.11c-2.91.9-5.94-.4-7.3-3.36-.87-1.9-21.18-47.74-10.82-156.48.39-4.09,3.68-7.33,7.35-7.22,3.67.1,6.33,3.51,5.94,7.6-9.9,103.85,9.36,148.15,9.55,148.59,1.59,3.53.19,8.07-3.12,10.13-.52.33-1.06.57-1.61.74Z" fill="#103385" stroke-width="0"/><path d="M405.96,552.51c-.57.28-1.16.51-1.76.69l-14.42,4.18c-.55.16-1.11.27-1.68.34-4.93.56-9.24-2.69-10.25-7.72l-2.84-14.1c-.38-1.89-.26-3.9.33-5.8-1.2-1.34-2.01-3.02-2.35-4.92l-2.59-14.17c-.43-2.34-.11-4.77.89-6.99-1.1-1.45-1.8-3.23-2.01-5.16l-1.57-14.41c-.31-2.81.43-5.69,2.07-8.09,1.15-1.69,2.69-3.05,4.47-3.92.84-.42,1.71-.72,2.6-.89l14.61-2.93c.28-.06.56-.1.84-.13,5.33-.6,9.8,3.14,10.41,8.71l1.57,14.41c.21,1.93-.07,3.87-.8,5.7.76,1.14,1.28,2.46,1.54,3.87l2.59,14.17c.33,1.81.21,3.67-.33,5.47,1.11,1.28,1.87,2.85,2.23,4.62l2.84,14.1c.56,2.77.06,5.7-1.41,8.26-1.17,2.05-2.94,3.73-4.98,4.74Z" fill="#fff" stroke-width="0"/><path d="M394.51,497.68l-14.61,2.93c-2.21.44-4.19-.96-4.42-3.14l-1.57-14.41c-.24-2.18,1.36-4.3,3.56-4.74l14.61-2.93c2.21-.44,4.19.96,4.42,3.14l1.57,14.41c.24,2.18-1.36,4.3-3.56,4.74Z" fill="#facf2d" stroke-width="0"/><path d="M398.24,522.15l-14.47,3.93c-2.18.59-4.27-.66-4.66-2.8l-2.59-14.17c-.39-2.14,1.06-4.35,3.25-4.95l14.47-3.93c2.18-.59,4.27.66,4.66,2.8l2.59,14.17c.39,2.14-1.06,4.35-3.25,4.95Z" fill="#103385" stroke-width="0"/><path d="M403.08,546.51l-14.42,4.18c-2.18.63-4.29-.58-4.72-2.71l-2.84-14.1c-.43-2.13.99-4.37,3.17-5l14.42-4.18c2.18-.63,4.29.58,4.72,2.71l2.84,14.1c.43,2.13-.99,4.37-3.17,5Z" fill="#facf2d" stroke-width="0"/><path d="M292.1,558.79c.5.46,1.03.88,1.59,1.24,4.87,3.17,11.34,2.1,15.73-2.59,1.54-1.65,38.08-41.64,66.28-150.01,1.4-5.38.02-10.82-3.61-14.19-.5-.47-1.04-.89-1.61-1.26-1.08-.71-2.27-1.21-3.53-1.51-3.31-.78-6.8-.06-9.83,2.03-3.03,2.1-5.24,5.31-6.21,9.06-25.6,98.37-58.4,135.76-58.73,136.12-5.25,5.7-5.7,14.76-.96,20.19.28.32.57.62.88.91Z" fill="#fff" stroke-width="0"/><path d="M297.16,553.99c2.46,1.6,5.81,1.14,8.13-1.34,1.49-1.59,36.73-40.16,64.44-146.64,1.04-4.01-.98-7.94-4.52-8.77-3.54-.84-7.26,1.73-8.3,5.74-26.46,101.68-60.17,139.06-60.5,139.43-2.74,2.97-2.97,7.65-.52,10.47.39.44.82.82,1.28,1.12Z" fill="#103385" stroke-width="0"/><path d="M297.27,537.69c.45.42.93.79,1.44,1.11l12.32,7.67c.47.29.97.55,1.48.75,4.51,1.79,9.75-.21,12.46-4.75l7.59-12.74c1.02-1.71,1.6-3.66,1.69-5.63,1.61-.97,2.96-2.37,3.95-4.1l7.37-12.87c1.21-2.12,1.75-4.53,1.57-6.9,1.55-1.1,2.84-2.63,3.7-4.41l6.48-13.36c1.26-2.61,1.56-5.54.82-8.26-.51-1.91-1.52-3.6-2.91-4.89-.66-.61-1.39-1.12-2.17-1.52l-12.94-6.53c-.24-.12-.5-.24-.75-.34-4.88-1.94-10.44.49-12.95,5.65l-6.48,13.36c-.87,1.79-1.28,3.71-1.21,5.64-1.12.89-2.07,2.02-2.81,3.3l-7.37,12.87c-.94,1.64-1.47,3.45-1.58,5.31-1.5.94-2.78,2.24-3.73,3.84l-7.59,12.74c-1.49,2.5-2.03,5.43-1.52,8.25.41,2.25,1.52,4.32,3.11,5.8Z" fill="#fff" stroke-width="0"/><path d="M327.15,488.26l12.94,6.53c1.95.99,4.33.15,5.31-1.87l6.48-13.36c.98-2.02.19-4.45-1.76-5.44l-12.94-6.53c-1.95-.99-4.33-.15-5.31,1.87l-6.48,13.36c-.98,2.02-.19,4.45,1.76,5.44Z" fill="#facf2d" stroke-width="0"/><path d="M315.14,510.67l12.45,7.45c1.88,1.12,4.31.46,5.42-1.48l7.37-12.87c1.11-1.94.49-4.43-1.39-5.55l-12.45-7.45c-1.88-1.12-4.31-.46-5.42,1.48l-7.37,12.87c-1.11,1.94-.49,4.43,1.39,5.55Z" fill="#103385" stroke-width="0"/><path d="M302.09,532.7l12.32,7.67c1.86,1.16,4.3.54,5.44-1.38l7.59-12.74c1.15-1.92.57-4.42-1.29-5.58l-12.32-7.67c-1.86-1.16-4.3-.54-5.44,1.38l-7.59,12.74c-1.15,1.92-.57,4.42,1.29,5.58Z" fill="#facf2d" stroke-width="0"/><path d="M369.86,419.8c-17.09-3.28-32.5-11.16-44.56-22.78-18.81-17.99-27.32-43.16-22.74-67.3,7.87-41.44,51.21-68.39,96.62-60.09l.8.15c44.9,8.62,75.09,49.03,67.3,90.08-5.08,26.74-25.63,48.81-53.63,57.58-13.69,4.28-28.56,5.14-42.98,2.5l-.81-.15Z" fill="#fff" stroke-width="0"/><path d="M308.2,330.76c-4.37,23.04,4.22,45.78,21.06,61.88,11.09,10.69,25.72,18.38,42.51,21.45,14.01,2.56,27.83,1.57,40.32-2.33,25.07-7.86,44.72-27.39,49.57-52.94,7.25-38.21-21.27-75.6-63.57-83.34-42.37-7.75-82.64,17.07-89.89,55.28Z" fill="#103385" stroke-width="0"/><ellipse cx="384.89" cy="344.81" rx="58.82" ry="65.06" transform="translate(-13.72 673.66) rotate(-81.38)" fill="#facf2d" stroke-width="0"/><ellipse cx="384.89" cy="344.81" rx="45.36" ry="50.17" transform="translate(-13.72 673.66) rotate(-81.38)" fill="#103385" stroke-width="0"/><ellipse cx="384.89" cy="344.81" rx="13.6" ry="15.04" transform="translate(-13.72 673.66) rotate(-81.38)" fill="#fff" stroke-width="0"/><ellipse cx="384.89" cy="344.81" rx="7.17" ry="7.93" transform="translate(-13.72 673.66) rotate(-81.38)" fill="#103385" stroke-width="0"/><polygon points="380.2 305.81 403.58 310.09 396 318.16 400.11 328.38 376.73 324.1 384.31 316.03 380.2 305.81" fill="#facf2d" stroke-width="0"/><polygon points="369.54 361.94 392.93 366.22 385.34 374.29 389.45 384.51 366.07 380.23 373.65 372.16 369.54 361.94" fill="#facf2d" stroke-width="0"/><polygon points="341.62 348.19 345.63 327.07 354.76 334.2 365.88 330.77 361.87 351.89 352.75 344.76 341.62 348.19" fill="#facf2d" stroke-width="0"/><polygon points="403.77 359.55 407.78 338.43 416.9 345.56 428.03 342.13 424.02 363.25 414.9 356.12 403.77 359.55" fill="#facf2d" stroke-width="0"/><polygon points="416.72 324.34 407.58 332.18 404.38 332.41 405.75 329.65 416.72 324.34" fill="#fff" stroke-width="0"/><polygon points="353.1 365.96 364.06 360.65 365.43 357.89 362.24 358.12 353.1 365.96" fill="#fff" stroke-width="0"/><polygon points="407.05 375.81 398.74 366.98 398.47 363.92 401.36 365.26 407.05 375.81" fill="#fff" stroke-width="0"/><polygon points="362.76 314.49 368.45 325.04 371.35 326.38 371.08 323.33 362.76 314.49" fill="#fff" stroke-width="0"/><path d="M523.45,382.38c1.41,0,2.86.07,4.36.21.85.08,1.8.19,2.85.32l-5.85,6.83c-1.43-.28-2.81-.55-4.12-.79-.74-.14-1.66-.19-2.7-.2l5.46-6.38Z" fill="#103385" stroke-width="0"/><path d="M512.7,389.11c-7.92.88-17.63,3.15-17.63,3.15,0,0,8.35-8.06,23.17-9.62l-5.54,6.47Z" fill="#103385" stroke-width="0"/><path d="M535.1,383.55c15.68,2.44,44.52,8.58,44.52,8.58l-.83.23c-3.34.91-6.01,2.81-7.73,5.22-1.1,1.55-2.83,2.04-6.15,1.24-9.28-2.26-23.73-5.7-35.85-8.21l6.04-7.05Z" fill="#103385" stroke-width="0"/><polygon points="479.9 413.71 486.28 413.08 536.1 434.49 542.1 444.25 479.9 413.71" fill="#103385" stroke-width="0"/><polygon points="490.73 426.25 493.79 425.95 540.76 449.72 523.2 453.19 515.86 439.74 490.73 426.25" fill="#fff" stroke-width="0"/></g></svg>