<?xml version="1.0" encoding="UTF-8"?><svg id="b" xmlns="http://www.w3.org/2000/svg" viewBox="0 0 610 532.93"><g id="c"><path d="M0,532.93l146.87-119.77H16.59l144.76-74.38,2.77-14.22h-80.87l90.31-48.51,24.18-124.25h-74.95L242.47.6,432.3.03c.73-.02,1.75-.03,2.92-.03,16.89,0,75.58,3.42,121.82,47.47,35.14,33.46,52.96,79.11,52.96,135.69,0,110.18-118.69,204.59-215.85,204.59h-91.16l-27.72,145.18H0ZM394.15,235.66c20.64,0,63.1-35.33,63.1-52.5,0-14.87-2.97-23.04-5.74-25.73-3.32-3.22-11.41-5.11-16.33-5.32l-1.31.03h-85.89s-15.95,83.52-15.95,83.52h62.11Z" fill="#0233cd" stroke-width="0"/><path d="M88.03,501.62l87.55-71.4,60.26-309.72h-48.25l70.16-88.63,175.01-.52c.36-.02,1.3-.03,2.45-.03,13.93,0,62.3,2.8,100.08,38.79,28.7,27.32,43.25,65.36,43.25,113.06,0,91.69-103.12,173.28-184.41,173.28h-117.19l-27.72,145.18H88.03ZM394.15,266.98c35.93,0,94.55-46.82,94.55-83.81,0-22.15-5.13-38.35-15.24-48.16-14.49-14.06-37.59-14.22-38.57-14.22l-1,.04-111.93-.02-27.91,146.17h100.1Z" fill="#fff" stroke-width="0"/><path d="M525.99,79.8c-36.7-34.95-84.54-35.29-93.18-35.03l-168.49.5-48.93,61.81h36.81l-64.3,330.46-62.13,50.66h112.32l27.72-145.18h128.34c74.63,0,170.93-77.52,170.93-159.86,0-43.89-13.15-78.67-39.09-103.37ZM394.15,280.4h-116.38l33.04-173h122.96s.7-.02.7-.02c.31-.02,29.26-.55,48.4,18.02,12.82,12.43,19.31,31.87,19.31,57.77,0,45.08-65.38,97.23-108.03,97.23Z" fill="#ff4200" stroke-width="0"/></g></svg>