<?xml version="1.0" encoding="UTF-8"?><svg id="b" xmlns="http://www.w3.org/2000/svg" viewBox="0 0 700 541.05"><g id="c"><path d="M175.92,370.79c-7.04,8.35-14.6,16.11-23.49,22.56-13.08,9.48-27.64,13.66-43.71,13.31-12-.26-23.31-2.97-33.71-8.98-16.8-9.73-26.78-24.57-31.85-43.04-3.44-12.56-3.28-25.24-1.28-37.97.33-2.09.02-3.3-1.98-4.52-15.46-9.42-27.53-22.03-34.03-39.1-6.43-16.87-8.41-34.26-1.66-51.55,5.98-15.34,17.33-24.68,33.74-27.35,12.77-2.08,23.38,2.5,32.51,11.18,3.47,3.3,6.31,7.08,8.63,11.26.42.77.71,1.67,1.65,2.29,3.38-4.82,6.88-9.53,10.73-13.98,10.28-11.87,21.84-22.11,36.45-28.43,10.61-4.59,21.74-6.31,33.22-5.89,5.05.18,9.98,1.42,14.92,2.48,6.06,2.39,11.87,5.26,17.01,9.33,2.1,2.07,4.2,4.13,6.63,6.53v-3.26c0-22.94,0-45.88,0-68.82,0-7.31.81-14.5,2.59-21.61,10.69-42.78,47.84-71.83,91.92-71.83,41.7,0,83.4.02,125.11,0,15.94-.01,31.08,3.41,44.95,11.28,31.25,17.74,48.11,44.69,49.27,80.64.76,23.49.16,47.02.19,70.54,0,.85-.28,1.75.33,2.73,2.11-2.28,4.15-4.49,6.19-6.69,5.05-4.63,10.56-8.55,17.05-10.93,6.21-1.48,12.45-2.46,18.82-1.07.56.12.96-.1,1.34-.4,5.49-4.39,11.64-4.51,18.1-2.88,7.41,1.86,14.26,4.77,19.64,10.42,1.11,1.17,1.61.76,2.38-.29,3.44-4.7,7.3-9.02,11.66-12.91,8.95-7.99,19.26-11.45,31.29-10.49,16.85,1.34,32,13.21,36.5,29.28.62,2.23,1.42,2.92,3.81,3.29,12.09,1.89,20.31,12.1,19.07,23.1-.31,2.74-1.28,5.23-2.46,7.66-10.66,21.82-23.15,42.37-41.1,59.11-6.63,6.18-14.03,11.18-22.37,14.86-13.68,6.05-26.85,4.61-39.74-2.21-1.4-.74-2.15-.71-3.29.42-6.93,6.86-14.31,13.21-21.97,19.23-.94.74-1.53,1.6-1.97,2.71-3.58,9.04-7.39,17.99-11.42,26.85-4.77,10.49-10.81,20.16-18.44,28.82-5.12,5.26-10.83,9.78-17.07,13.63-1.33.63-2.61,1.4-4,1.86-1.94.65-2.42,1.85-2.4,3.83.1,12.37.05,24.74.05,37.11,0,7.72-.78,15.34-2.62,22.85-10.19,41.49-46.72,71.12-89.37,71.55-43,.43-86.01.12-129.02.13-5.33,0-10.65-.42-15.89-1.4-45.21-8.52-77.1-47.01-77.11-93.03,0-30.31,0-60.62,0-90.93,0-.64,0-1.28,0-1.93-.12,0-.24,0-.36,0-2.1,4.68-4.21,9.37-6.31,14.05-5.04,9.29-10.62,18.23-17.1,26.6ZM441.82,313.55c-1.29-1.36-2.64-2.66-3.85-4.08-.99-1.15-1.54-.84-2.05.35-.2.45-.43.88-.69,1.3-3.59,5.7-5.84,12.24-10.76,17.11-3.22,1.95-6.47,3.74-10.44,3.65-7.53-.16-14.41-2.44-20.73-6.42-1.41-.89-2.18-.8-3.24.38-1.53,1.7-3.19,3.29-4.87,4.85-12.18,11.3-24.77,13.14-38.69,5.41-2.32-1.29-3.27-1.15-4.96.95-8.56,10.65-17.41,13.09-30.38,9.95-5.89-1.43-10.91-4.66-15.45-8.64-.68-.59-1.24-1.38-2.15-.23-1.57,1.98-3.21,3.9-4.82,5.84-5.17,5.03-10.46,9.89-17.17,12.88-1.26.35-2.5.93-3.77.99-2.34.1-2.59,1.33-2.59,3.31.06,29.32.07,58.64-.02,87.96,0,2.25.58,2.78,2.79,2.78,59.13-.06,118.26-.07,177.39.01,2.48,0,2.85-.73,2.84-2.98-.07-42.67-.05-85.34-.05-128,0-.57-.04-1.15,0-1.72.06-.83-.27-1.32-.97-1.79-1.83-1.22-3.59-2.56-5.37-3.85ZM441.64,199.42c1.14.92,2.27,1.86,3.44,2.75.56.43.98,1.48,1.72,1.13.76-.36,1.18-1.31,1.32-2.22.09-.56.03-1.14.03-1.72,0-36.03-.02-72.07.05-108.1,0-1.96-.54-2.38-2.42-2.38-59.37.05-118.75.05-178.12-.01-2.15,0-2.47.65-2.47,2.59.06,36.77.04,73.54.05,110.31,0,4.4-.29,8.82.82,13.17.42,1.63-.73,3.9.55,4.89,1.16.9,3.27.56,4.96.77,6.21,1.26,11.93,3.68,17.16,7.27,4.31,4.02,8.07,8.42,9.55,14.36.96-.38,1.15-1.01,1.48-1.56,4.15-6.96,8.72-13.6,14.21-19.6,10.57-11.55,23.23-17.41,39.13-14.69.98.17,1.67-.28,2.41-.86,2.49-1.92,5.26-3.35,8.45-3.5,9.12-.44,17.38,2.27,24.92,7.27,3.63,2.41,6.41,5.7,8.84,9.59,1.86-5.59,3.61-10.83,6.21-15.74,2.64-4.97,6.39-8.6,11.92-10.19,2.9-.83,5.79-.62,8.71-.31,5.96,1.57,11.8,3.48,17.08,6.77ZM435.88,244.81c-.06-.06-.12-.11-.19-.17,1.74-6.77,3.47-13.55,5.23-20.32,1.55-5.94.08-10.2-4.83-13.91-4.28-3.23-9.23-4.82-14.39-5.82-3.01-.58-5.24.65-6.68,3.39-1.18,2.25-2.27,4.53-3.14,6.91-4.84,13.35-8.8,26.97-12.49,40.68-.34,1.27-.74,2.49-1.44,3.62-4.32,6.95-8.77,13.8-13.7,20.34-4.17,5.53-8.35,11.06-13.81,16.14.11-3.62.94-6.65,1.62-9.68,4.03-18.07,9.41-35.77,15.39-53.28,1.14-3.35.82-6.23-1.04-9.07-1.18-1.8-2.67-3.3-4.44-4.53-4.48-3.11-9.61-4.42-14.87-5.26-2.68-.42-4.75.99-5.76,3.56-.3.76-.61,1.53-.79,2.32-.31,1.39-.82,1.59-2.17.93-11.21-5.46-23.3-3.33-32.3,5.39-11.21,10.86-18.42,24.25-24.59,38.33-1.9,4.33-2.84,9.06-5.28,13.15-5.39,8.99-11.3,17.64-17.86,25.82-2.78,3.47-5.53,7-9.32,10.11.41-4.93,1.43-9.3,2.48-13.65,4.05-16.64,8.99-33.01,14.45-49.23,1.4-4.16.51-7.69-2.39-10.86-1.97-2.16-4.33-3.68-6.95-4.93-7.58-3.6-15.33-3.06-23.17-1.13-2.76.68-2.82.59-2.08-2.16,1.36-5.11,3.16-10.14,2.56-15.59-.42-3.77-2.02-6.83-5.11-9.1-3.95-2.88-8.49-3.18-13.12-3.06-6.09.16-11.69,1.42-15.3,7.07-5.64,8.83-8.79,18.43-8.55,28.94.16,7.15,2.62,13.3,9.32,16.97.93.51.71.99.41,1.75-1.28,3.27-2.44,6.59-3.73,9.85-3.22,8.13-6.49,16.23-10.02,24.23-2.11,4.77-.47,9.24,3.78,10.9,2.88,1.12,5.62.48,8.19-1.01,3.74-2.17,6.23-5.48,8.15-9.27,5.6-11.02,10.25-22.43,14.21-34.14.24-.71.14-1.76,1.19-1.95,2.99-.54,5.94-1.42,9.19-1.52-.34,1.03-.6,1.8-.86,2.56-5.81,17.33-11.68,34.63-15.22,52.63-2.24,11.41,1.11,20.79,9.26,28.7,3.22,3.13,6.99,5.37,11.37,6.53,6.75,1.77,12.13-.9,17.07-5.12,7.73-6.6,13.7-14.71,19.59-22.89.35-.48.5-1.22,1.37-1.21.38.82.73,1.64,1.15,2.43,4.05,7.64,9.63,13.62,18.19,16.14,6.41,1.89,12.03.88,16.59-4.53,3.72-4.42,6.66-9.3,9.42-14.32.69-1.24,1.1-1.41,1.95-.17,1.96,2.85,4.35,5.32,7.11,7.42,8.49,6.49,16.87,6.58,24.91.24,3.42-2.7,6.48-5.78,9.29-9.1,2.57-3.03,5.04-6.12,7.7-9.36,3.69,8.07,10.32,11.86,18.27,13.84,5.25,1.31,6.79.56,9.47-4.29,4.51-8.15,9.07-16.28,13.62-24.41,1.89-3.38,3.79-6.75,5.89-10.47.23.71.36.92.35,1.13-.16,9.64,4.23,17.16,11.21,23.29,5.11,4.49,11.01,7.05,18.04,5.59,4.08-.85,7.24-3.36,10.25-6.03,7.22-6.41,12.95-14.08,18.53-21.89.43-.6.6-1.52,1.55-1.66,5.99,11.99,14.44,20.13,29.8,18.54-1.37.86-1.97,1.26-2.58,1.63-12.1,7.34-24.52,14.12-36.96,20.85-6.55,3.54-13.16,7-18.89,11.85-5.18,4.39-8.24,9.79-7.14,16.8,1.97,12.51,9.47,20.42,21.26,24.2,10.22,3.28,19.75.17,28.78-4.48,12.56-6.47,21.08-16.97,27.56-29.19,6.26-11.79,11.31-24.14,16.08-36.59.49-1.28.88-2.53,2.12-3.47,11.12-8.43,21.52-17.66,31.05-27.86,1.16-1.24,1.69-1.23,3.02-.11,11.39,9.56,23.84,12.73,37.93,6.15,9.23-4.31,16.82-10.71,23.64-18.09,13.53-14.63,23.44-31.63,32.35-49.33,3.35-6.65-1.03-11.95-6.08-13.45-4.46-1.32-8.54.31-10.3,4.18-7,15.41-16.95,28.74-29.04,40.47-5.95,5.77-12.43,10.92-20.78,12.97-3.92.96-5.93-.27-6.64-4.21-.69-3.79.07-7.49.69-11.21.25-1.47,1.25-1.27,2.22-1.11,4.93.84,9.69-.04,14.12-2.03,16.66-7.48,27.71-20.21,33.75-37.29,1.92-5.41,2.31-11.06-.07-16.58-5.86-13.6-20.85-20.95-35.24-17.27-7.41,1.9-12.77,6.79-17.56,12.38-9.76,11.39-16.58,24.51-21.9,38.43-4.26,11.14-7.41,22.54-7.06,34.64.02.58.03,1.14-.37,1.63-3.86,4.65-7.84,9.18-12.17,13.49-.46-.75-.15-1.27.02-1.79,7.3-22.83,13.71-45.9,19.5-69.16.62-2.49.31-4.66-.77-6.85-1.15-2.34-2.87-4.16-4.97-5.66-4.37-3.1-9.38-4.46-14.57-5.36-2.66-.46-4.91.76-5.81,3.28-.43,1.2-.72,2.45-1.12,3.83-6.76-3.77-13.79-4.6-20.97-2.44-7.16,2.16-12.38,7.22-17.1,12.74-8.59,10.06-14.78,21.56-19.77,33.74-1.64,4-2.51,8.43-4.69,12.08-7.45,12.44-15.65,24.39-25.66,34.97-.55.58-1.01,1.37-2.18,1.59.81-4.08,1.46-7.95,2.36-11.75,4.1-17.25,9.22-34.2,14.91-50.98,1.34-3.95.52-7.24-2.03-10.26-4.31-5.12-10.29-7.02-16.53-8.25-4.28-.84-5.48-.13-7.78,3.7-7.18,12-14.34,24.03-21.6,35.99-1.8,2.97-3.21,6.21-5.61,8.8ZM63.82,279.28c-.36-.15-.55-.17-.64-.27-.43-.49-.86-.99-1.25-1.51-5.16-6.84-8.51-14.51-10.34-22.85-.93-4.23-.82-8.53.51-12.64,2.64-8.19,6.99-14.68,16.73-15.08.16,0,.33-.01.49-.04,1.22-.19,1.46-.7.8-1.82-2.54-4.31-5.11-8.57-8.9-11.97-5.25-4.72-11.31-7.83-18.41-7.37-13.27.85-22.43,7.81-27.43,20.1-4.24,10.42-3.76,21.16-1.55,31.89,4.61,22.41,18.65,37.29,38.36,47.54,3.52,1.83,3.54,1.74,2.82,5.67-2.23,12.12-3.73,24.23-1.2,36.55,5.29,25.69,23.29,44.44,50.35,46.87,16.02,1.44,30.44-2.31,43.23-12.27,10.92-8.51,19.84-18.79,27.23-30.41,15.12-23.77,23.48-49.54,22.29-77.97-.32-7.68-1.23-15.34-4.4-22.49-.62-1.4-.56-2.56,0-3.95,3.46-8.54,5.9-17.34,5.93-26.62.04-14.84-6.6-26.07-19.56-32.99-13.68-7.3-28.16-6.37-42.34-1.55-14.94,5.08-26.36,15.29-36.35,27.13-14.78,17.52-25.29,37.53-33.6,58.77-.94,2.41-1.86,4.83-2.79,7.25Z" fill="#01458b" stroke-width="0"/><path d="M193.05,182.4c-5.14-4.08-10.94-6.94-17.01-9.33.04-18.52.09-37.03.1-55.54.02-29.34,9.61-55.21,28.81-77.3,17.12-19.7,38.6-32.37,64.22-37.82C276.64.81,284.16-.01,291.81,0c43.91.07,87.83,0,131.74.1,17.94.04,34.81,4.72,50.58,13.06,24.45,12.94,42.41,32.12,53.49,57.49,5.97,13.68,9.39,28.01,9.4,43.05.02,19.09.17,38.18.27,57.27-6.49,2.38-12,6.3-17.05,10.93-.06-.98-.17-1.95-.17-2.93,0-20.4-.04-40.79,0-61.19.02-8.39-1-16.65-2.99-24.78-10.79-44.1-51.19-75.87-96.67-75.92-42.02-.05-84.04,0-126.06-.03-6.15,0-12.26.39-18.31,1.54-29.64,5.65-52.41,21.37-68.29,46.93-10.1,16.25-14.57,34.17-14.58,53.24-.01,17.37,0,34.73,0,52.1,0,3.85-.07,7.69-.11,11.54Z" fill="#f0681e" stroke-width="0"/><path d="M520.04,380.09c6.24-3.85,11.95-8.37,17.07-13.63.04,2.62.12,5.24.12,7.85-.04,17.2-.12,34.4-.16,51.61-.04,18.27-4.41,35.51-12.94,51.57-15.12,28.47-38.01,48.01-68.74,58.04-11.02,3.59-22.38,5.33-34.03,5.39-39.15.18-78.31.2-117.46.05-11.12-.05-22.28.31-33.25-2.16-42.14-9.5-71.31-34.26-87.21-74.44-5.16-13.04-7.35-26.71-7.3-40.75.07-16.71,0-33.42-.03-50.13,0-.89-.13-1.79-.2-2.68,6.47-8.37,12.06-17.31,17.1-26.6.05,1.14.15,2.29.15,3.43,0,24.98,0,49.97.01,74.95,0,8.62,1.04,17.12,3.12,25.49,10.95,44.19,51.47,75.81,97.32,75.86,41.28.04,82.57,0,123.85.01,6.97,0,13.89-.56,20.75-1.83,42.99-7.94,77.88-43.95,81.51-90.69,1.32-17.05.41-34.22.32-51.34Z" fill="#f0681e" stroke-width="0"/><path d="M424.56,192.65c-2.92-.31-5.81-.53-8.71.31-5.54,1.59-9.29,5.22-11.92,10.19-2.61,4.91-4.35,10.16-6.21,15.74-2.42-3.9-5.2-7.18-8.84-9.59-7.54-5-15.79-7.71-24.92-7.27-3.19.15-5.96,1.58-8.45,3.5-.75.58-1.43,1.02-2.41.86-15.9-2.72-28.56,3.14-39.13,14.69-5.49,6-10.06,12.64-14.21,19.6-.33.55-.52,1.18-1.48,1.56-1.48-5.93-5.24-10.33-9.55-14.36.03-1.06.09-2.13.09-3.19,0-36.54.02-73.08-.04-109.62,0-1.97.38-2.6,2.5-2.6,43.59.07,87.17.07,130.76,0,2,0,2.59.42,2.58,2.52-.08,25.89-.05,51.78-.05,77.67Z" fill="#fefefe" stroke-width="0"/><path d="M435.88,244.81c2.41-2.59,3.81-5.83,5.61-8.8,7.26-11.96,14.42-23.98,21.6-35.99,2.29-3.83,3.5-4.54,7.78-3.7,6.24,1.23,12.22,3.13,16.53,8.25,2.54,3.02,3.36,6.32,2.03,10.26-5.69,16.78-10.81,33.74-14.91,50.98-.9,3.8-1.55,7.67-2.36,11.75,1.18-.22,1.63-1.01,2.18-1.59,10.01-10.58,18.21-22.53,25.66-34.97,2.19-3.65,3.05-8.08,4.69-12.08,4.99-12.18,11.18-23.68,19.77-33.74,4.72-5.53,9.93-10.58,17.1-12.74,7.18-2.16,14.21-1.34,20.97,2.44.4-1.38.69-2.63,1.12-3.83.9-2.52,3.14-3.74,5.81-3.28,5.18.9,10.19,2.26,14.57,5.36,2.11,1.49,3.83,3.32,4.97,5.66,1.08,2.2,1.39,4.37.77,6.85-5.79,23.25-12.21,46.33-19.5,69.16-.16.51-.48,1.04-.02,1.79,4.33-4.31,8.31-8.85,12.17-13.49.41-.49.39-1.06.37-1.63-.35-12.1,2.8-23.5,7.06-34.64,5.32-13.92,12.13-27.04,21.9-38.43,4.79-5.59,10.15-10.48,17.56-12.38,14.39-3.68,29.37,3.67,35.24,17.27,2.38,5.51,1.99,11.16.07,16.58-6.04,17.08-17.09,29.81-33.75,37.29-4.43,1.99-9.2,2.86-14.12,2.03-.97-.16-1.97-.36-2.22,1.11-.63,3.72-1.38,7.42-.69,11.21.71,3.94,2.72,5.17,6.64,4.21,8.35-2.05,14.83-7.2,20.78-12.97,12.1-11.72,22.04-25.05,29.04-40.47,1.76-3.87,5.84-5.5,10.3-4.18,5.05,1.5,9.43,6.8,6.08,13.45-8.92,17.7-18.82,34.69-32.35,49.33-6.82,7.38-14.41,13.78-23.64,18.09-14.09,6.58-26.54,3.4-37.93-6.15-1.33-1.12-1.87-1.13-3.02.11-9.53,10.2-19.93,19.43-31.05,27.86-1.24.94-1.63,2.19-2.12,3.47-4.77,12.46-9.82,24.8-16.08,36.59-6.49,12.22-15.01,22.73-27.56,29.19-9.03,4.65-18.56,7.76-28.78,4.48-11.79-3.78-19.29-11.69-21.26-24.2-1.1-7.01,1.95-12.41,7.14-16.8,5.73-4.85,12.35-8.31,18.89-11.85,12.45-6.73,24.86-13.51,36.96-20.85.61-.37,1.21-.76,2.58-1.63-15.36,1.59-23.81-6.55-29.8-18.54-.95.14-1.12,1.06-1.55,1.66-5.58,7.8-11.31,15.48-18.53,21.89-3.01,2.67-6.17,5.18-10.25,6.03-7.02,1.46-12.93-1.1-18.04-5.59-6.98-6.14-11.37-13.65-11.21-23.29,0-.21-.13-.42-.35-1.13-2.09,3.72-4,7.09-5.89,10.47-4.55,8.13-9.11,16.26-13.62,24.41-2.68,4.84-4.22,5.6-9.47,4.29-7.94-1.99-14.57-5.77-18.27-13.84-2.66,3.23-5.13,6.33-7.7,9.36-2.81,3.32-5.87,6.4-9.29,9.1-8.05,6.35-16.42,6.25-24.91-.24-2.75-2.1-5.14-4.57-7.11-7.42-.86-1.24-1.27-1.08-1.95.17-2.76,5.01-5.7,9.9-9.42,14.32-4.56,5.42-10.19,6.42-16.59,4.53-8.56-2.52-14.14-8.5-18.19-16.14-.42-.79-.76-1.62-1.15-2.43-.87-.01-1.02.73-1.37,1.21-5.89,8.18-11.85,16.29-19.59,22.89-4.94,4.22-10.33,6.9-17.07,5.12-4.39-1.15-8.16-3.4-11.37-6.53-8.15-7.91-11.5-17.3-9.26-28.7,3.53-18,9.41-35.3,15.22-52.63.26-.77.51-1.53.86-2.56-3.26.11-6.2.98-9.19,1.52-1.05.19-.95,1.24-1.19,1.95-3.96,11.7-8.61,23.12-14.21,34.14-1.93,3.79-4.41,7.1-8.15,9.27-2.56,1.49-5.3,2.13-8.19,1.01-4.25-1.66-5.89-6.13-3.78-10.9,3.54-8,6.81-16.1,10.02-24.23,1.29-3.26,2.45-6.58,3.73-9.85.3-.77.52-1.25-.41-1.75-6.7-3.67-9.15-9.82-9.32-16.97-.24-10.51,2.91-20.11,8.55-28.94,3.6-5.64,9.21-6.9,15.3-7.07,4.62-.12,9.17.17,13.12,3.06,3.1,2.26,4.7,5.33,5.11,9.1.6,5.44-1.2,10.47-2.56,15.59-.73,2.76-.68,2.84,2.08,2.16,7.84-1.93,15.59-2.47,23.17,1.13,2.62,1.24,4.99,2.77,6.95,4.93,2.9,3.18,3.78,6.7,2.39,10.86-5.46,16.22-10.4,32.6-14.45,49.23-1.06,4.35-2.07,8.72-2.48,13.65,3.78-3.12,6.54-6.64,9.32-10.11,6.56-8.18,12.47-16.82,17.86-25.82,2.45-4.08,3.38-8.81,5.28-13.15,6.18-14.09,13.38-27.47,24.59-38.33,8.99-8.72,21.09-10.84,32.3-5.39,1.35.66,1.86.46,2.17-.93.17-.79.49-1.56.79-2.32,1.01-2.57,3.09-3.99,5.76-3.56,5.26.83,10.39,2.15,14.87,5.26,1.78,1.23,3.27,2.74,4.44,4.53,1.86,2.84,2.19,5.72,1.04,9.07-5.97,17.51-11.36,35.2-15.39,53.28-.68,3.03-1.51,6.07-1.62,9.68,5.46-5.08,9.64-10.61,13.81-16.14,4.92-6.54,9.38-13.39,13.7-20.34.7-1.13,1.1-2.35,1.44-3.62,3.68-13.71,7.65-27.33,12.49-40.68.87-2.39,1.96-4.67,3.14-6.91,1.43-2.74,3.67-3.97,6.68-3.39,5.16.99,10.12,2.59,14.39,5.82,4.92,3.71,6.38,7.97,4.83,13.91-1.76,6.77-3.49,13.55-5.23,20.32-.27.24-.4.72-.15.79.39.12.25-.38.33-.62ZM341.75,303.4c1.76,6.7,5,12.13,10.23,16.14,8.65,6.63,14.36,5.24,20.68-.25,5.29-4.6,9.71-9.96,13.89-15.53,3.01-4.02,5.87-8.16,8.82-12.29.71.74.23,1.37.11,1.95-1.3,6.28-.31,11.91,4.76,16.3,3.24,2.8,7.12,4.17,11.28,5.05,1.74.37,2.43-.04,3.23-1.49,11.88-21.39,23.81-42.74,35.73-64.1.24-.43.36-.97,1.14-1.2-1.96,7.36-4.29,14.42-5.76,21.7-.97,4.8-2.62,9.65-1.92,14.5,1.35,9.33,6.47,16.33,15.06,20.43,4.45,2.12,8.88,1.75,12.99-1.27,3.19-2.34,6.05-5.01,8.67-7.95,6.78-7.6,12.65-15.87,18.21-24.37.46-.7.67-1.69,1.76-1.9.09.35.18.66.25.98.09.48.15.97.24,1.45,1.7,9.05,5.79,16.69,14.23,20.94,7.69,3.87,12.95,3.27,17.9-3.91.37-.54.8-1.04,1.16-1.59,1.79-2.72,3.57-5.44,5.48-8.36.22,1.39-.35,2.33-.68,3.3-2.08,6.12-4.24,12.2-6.26,18.34-.55,1.67-1.48,2.75-2.96,3.66-14.78,9.11-30.15,17.17-45.33,25.57-4.44,2.46-8.85,5-12.55,8.55-3.43,3.3-5.33,7.21-4.47,12.11,1.63,9.27,7.1,15.45,15.62,19.01,9.39,3.93,18.2,1.15,26.63-3.02,12.32-6.1,20.49-16.36,26.71-28.27,6.25-11.98,11.35-24.49,16.13-37.13.37-.99.63-1.98,1.58-2.69,13.02-9.74,25.07-20.56,35.85-32.76.85-.96,1.33-1.11,2.19.04,2.03,2.7,4.5,4.99,7.35,6.82,8.54,5.44,17.43,7.45,27.19,3.21,5.86-2.54,11.17-5.87,15.91-10.07,17.84-15.79,29.68-35.82,39.92-56.95,1.04-2.16-.15-4.25-2.78-5.38-2.64-1.13-4.44-.54-5.51,1.75-7.28,15.62-17.29,29.32-29.62,41.3-6.44,6.26-13.6,11.42-22.36,14.23-7.84,2.51-12.74-2.27-13.55-8.96-.75-6.15.95-12.01,2.28-17.9.24-1.07.78-1.04,1.59-.56,4.88,2.9,10.04,2.38,14.89.38,16.98-7.01,27.72-19.75,33.03-37.18.91-3,1.13-6.19.07-9.21-5.48-15.53-22.34-20.26-34.24-14.62-4.83,2.29-8.49,6.12-11.85,10.17-10.42,12.61-17.44,27.07-22.52,42.5-3.01,9.12-5.27,18.43-4.51,28.18.09,1.12-.5,1.84-1.13,2.61-6.04,7.46-12.63,14.42-19.67,20.94-2.19,2.03-4.31,4.21-7.09,5.98-.02-2.01.71-3.5,1.23-5.01,9.18-26.88,16.98-54.15,23.74-81.73.95-3.87.13-6.04-3.06-8.48-3.35-2.56-7.28-3.61-11.27-4.56-1.72-.41-2.45.16-2.82,1.9-.6,2.82-1.21,5.67-2.39,8.49-.42-.36-.68-.56-.91-.79-5.57-5.55-12.28-7.19-19.84-5.68-6.66,1.33-11.26,5.81-15.49,10.64-9.28,10.61-15.67,22.93-20.8,35.95-1.32,3.34-2.1,6.99-3.91,10.03-6.15,10.35-13,20.25-20.68,29.54-3.55,4.3-7.2,8.52-11.97,11.55-1.06.67-2.34,1.73-3.6.89-1.16-.77-1.04-2.34-.94-3.63.29-3.66.81-7.29,1.55-10.9,4-19.4,9.97-38.25,16.17-57.02.91-2.76.36-4.75-1.49-6.65-3.87-3.95-8.92-5.23-14.1-6.22-1.12-.21-1.39.63-1.8,1.31-1.48,2.45-2.95,4.92-4.42,7.37-12.84,21.4-25.67,42.81-38.52,64.21-.54.89-1.01,1.87-2.05,2.36-.13-.24-.21-.32-.2-.38,4.73-17.73,9.42-35.48,14.27-53.19.86-3.15-.1-5.41-2.24-7.47-2.74-2.64-6.18-3.9-9.76-4.9-4.75-1.33-4.85-1.4-6.69,3.08-4.7,11.43-8.02,23.31-11.42,35.17-1.14,3.99-1.64,8.38-3.67,11.87-7.46,12.81-15.88,25.02-25.97,35.96-2.5,2.71-5.16,5.3-8.59,6.86-2.03.93-2.8.41-2.93-1.85-.22-3.71.37-7.35,1.09-10.95,3.94-19.8,9.99-39.01,16.23-58.16,1.32-4.04.67-6.23-2.81-8.77-3.45-2.52-7.41-3.68-11.53-4.56-1.65-.35-2.37-.02-2.87,1.57-.98,3.11-2.13,6.17-3.24,9.35-7.42-9.3-21.84-8.85-29.03-3.26-3.59,2.79-6.81,5.9-9.63,9.42-8.09,10.11-14.01,21.46-18.74,33.46-1.2,3.04-1.88,6.36-3.53,9.12-7.75,12.93-16.14,25.44-26.55,36.43-2.25,2.37-4.64,4.65-7.69,6.02-2.26,1.01-2.91.56-3.06-1.9-.23-3.95.42-7.81,1.19-11.65,3.92-19.64,9.96-38.69,16.18-57.69,1.12-3.44.71-5.49-2.17-7.79-5.25-4.2-11.32-5.72-17.93-4.73-4.92.73-9.79,1.73-14.68,2.68-1.94.38-2.4-.14-1.82-2.08,1.34-4.46,2.51-8.96,3.72-13.45.73-2.7,1.1-5.43.75-8.24-.37-2.91-1.81-5.02-4.49-6.26-2.91-1.34-5.99-1.52-9.11-1.35-4.7.27-9.01,1.21-11.67,5.8-4.51,7.79-7.32,16.05-7.17,25.12.14,8.55,3.52,12.47,11.81,14.01-.31.94-.58,1.87-.91,2.78-3.14,8.69-6.46,17.3-10.02,25.83-1.7,4.07-3.49,8.11-5.19,12.19-.57,1.38-1.08,2.9.15,4.15,1.31,1.32,2.87.81,4.34.2,1.23-.51,2.28-1.28,3.18-2.26,1.56-1.69,2.83-3.57,3.89-5.64,5.87-11.54,10.53-23.58,14.64-35.84.46-1.38.94-2.2,2.62-2.3,2.01-.12,3.98-.77,5.99-1.11,4.19-.71,8.38-1.37,12.78-2.08-.67,1.95-1.22,3.58-1.78,5.2-6.44,18.42-12.68,36.89-16.79,56.03-2.77,12.93,2.76,22.37,11.63,28.41,5.87,4,11.4,3.62,16.95-.8,1.47-1.17,2.89-2.42,4.23-3.73,6.3-6.15,11.48-13.21,16.48-20.41,2.08-3,4.11-6.05,6.4-9.42.47,2.4.7,4.41,1.27,6.32,2.94,9.79,8.3,17.4,18.82,20.07,3.72.94,7.18.39,9.82-2.72,1.32-1.55,2.62-3.14,3.78-4.82,4.29-6.2,7.58-12.97,11.07-20.09Z" fill="#fefefe" stroke-width="0"/><path d="M288.73,343.96c1.61-1.94,3.25-3.87,4.82-5.84.91-1.14,1.48-.36,2.15.23,4.54,3.98,9.56,7.21,15.45,8.64,12.97,3.14,21.82.7,30.38-9.95,1.69-2.11,2.64-2.24,4.96-.95,13.92,7.73,26.52,5.88,38.69-5.41,1.68-1.56,3.34-3.15,4.87-4.85,1.06-1.19,1.84-1.27,3.24-.38,6.32,3.98,13.2,6.26,20.73,6.42,3.96.09,7.21-1.7,10.44-3.65.03.33.09.65.09.98,0,32.34-.02,64.69.06,97.03,0,2.26-1.16,2.01-2.57,2.01-43.56,0-87.12-.03-130.68.06-2.34,0-2.59-.78-2.58-2.77.06-21.94.05-43.89.04-65.83,0-5.24-.06-10.48-.09-15.71Z" fill="#fefefe" stroke-width="0"/><path d="M424.56,192.65c0-25.89-.03-51.78.05-77.67,0-2.09-.58-2.52-2.58-2.52-43.59.06-87.17.06-130.76,0-2.12,0-2.5.62-2.5,2.6.06,36.54.05,73.08.04,109.62,0,1.06-.06,2.13-.09,3.19-5.23-3.58-10.94-6.01-17.16-7.26,0-40.86.04-81.72-.02-122.58,0-2.1.44-2.74,2.67-2.74,54.95.07,109.89.07,164.84,0,2.12,0,2.73.45,2.72,2.67-.08,33-.06,66-.06,99,0,.82-.05,1.63-.08,2.45-5.28-3.29-11.12-5.2-17.08-6.77Z" fill="#f0681e" stroke-width="0"/><path d="M288.73,343.96c.03,5.24.09,10.48.09,15.71.01,21.94.03,43.89-.04,65.83,0,1.99.25,2.78,2.58,2.77,43.56-.09,87.12-.06,130.68-.06,1.41,0,2.58.25,2.57-2.01-.08-32.34-.06-64.69-.06-97.03,0-.33-.06-.65-.09-.98,4.92-4.86,7.16-11.41,10.76-17.11.26-.41.49-.85.69-1.3.52-1.18,1.07-1.5,2.05-.35,1.21,1.42,2.56,2.73,3.85,4.08-.03,1.15-.08,2.29-.08,3.44,0,41.86-.03,83.72.06,125.57,0,2.59-.75,3.05-3.14,3.04-54.55-.07-109.11-.05-163.66-.06-3.84,0-3.38.42-3.38-3.43-.03-28.42-.03-56.85-.05-85.27,6.7-2.99,11.99-7.86,17.17-12.88Z" fill="#f0681e" stroke-width="0"/><path d="M63.82,279.28c.93-2.42,1.84-4.84,2.79-7.25,8.31-21.24,18.82-41.25,33.6-58.77,9.99-11.84,21.41-22.05,36.35-27.13,14.18-4.82,28.66-5.75,42.34,1.55,12.96,6.92,19.6,18.15,19.56,32.99-.03,9.28-2.47,18.08-5.93,26.62-.56,1.39-.62,2.55,0,3.95,3.16,7.15,4.08,14.81,4.4,22.49,1.18,28.43-7.17,54.2-22.29,77.97-7.39,11.61-16.3,21.89-27.23,30.41-12.79,9.97-27.21,13.72-43.23,12.27-27.06-2.43-45.06-21.18-50.35-46.87-2.54-12.32-1.03-24.43,1.2-36.55.72-3.94.7-3.85-2.82-5.67-19.71-10.25-33.76-25.13-38.36-47.54-2.21-10.73-2.69-21.47,1.55-31.89,5-12.29,14.16-19.26,27.43-20.1,7.1-.45,13.15,2.66,18.41,7.37,3.78,3.4,6.36,7.66,8.9,11.97.66,1.12.42,1.63-.8,1.82-.16.02-.33.03-.49.04-9.74.4-14.09,6.88-16.73,15.08-1.32,4.11-1.44,8.41-.51,12.64,1.82,8.34,5.17,16.01,10.34,22.85.39.52.82,1.02,1.25,1.51.09.1.28.12.64.27ZM65.82,288.66c-5.39-4.69-9.45-9.91-12.54-15.83-4.2-8.06-7.58-16.43-6.83-25.77.74-9.26,4.45-17,12.36-22.42,1.28-.88,3.8-.51,3.81-2.3,0-1.55-1.86-2.77-3-4.05-.33-.37-.66-.73-1.02-1.07-4.5-4.3-9.75-7.18-16.07-6.67-11.44.93-19.2,7.2-22.97,17.89-4.84,13.7-2.73,27.24,2.74,40.2,6.52,15.43,18.47,25.74,33.3,32.95,1.83.89,4.42,1.26,5.33,2.7,1.02,1.64-.58,4.01-.95,6.08-2.23,12.29-4.05,24.58-1.22,37.04,2.95,13.02,8.81,24.33,19.73,32.43,13.37,9.91,28.48,11.62,44.4,8.76,10.64-1.91,19.38-7.61,26.93-14.88,28.09-27.04,42.99-59.85,42.35-99.19-.13-7.97-1.33-15.83-4.78-23.14-.66-1.4-.7-2.47-.11-3.88,3.64-8.65,6.36-17.53,6.35-27.04-.01-13.54-6.24-23.42-18.27-29.28-11.58-5.63-23.73-4.8-35.63-1.11-15.45,4.79-26.84,15.37-36.89,27.49-12.22,14.74-21.32,31.37-28.8,48.93-3.04,7.14-5.7,14.42-8.2,22.13Z" fill="#fefefe" stroke-width="0"/><path d="M520.04,380.09c.09,17.12,1,34.29-.32,51.34-3.63,46.74-38.52,82.75-81.51,90.69-6.87,1.27-13.78,1.83-20.75,1.83-41.28,0-82.57.03-123.85-.01-45.85-.05-86.38-31.67-97.32-75.86-2.07-8.37-3.11-16.87-3.12-25.49-.01-24.98,0-49.97-.01-74.95,0-1.14-.1-2.29-.15-3.43,2.1-4.69,4.21-9.37,6.31-14.06.12,0,.24,0,.36,0,0,.64,0,1.28,0,1.93,0,30.31,0,60.62,0,90.93,0,46.01,31.9,84.5,77.11,93.03,5.24.99,10.55,1.4,15.89,1.4,43.01,0,86.02.31,129.02-.13,42.65-.43,79.18-30.07,89.37-71.55,1.84-7.51,2.62-15.13,2.62-22.85,0-12.37.05-24.74-.05-37.11-.02-1.99.46-3.18,2.4-3.83,1.38-.47,2.67-1.23,4-1.86Z" fill="#fefefe" stroke-width="0"/><path d="M193.05,182.4c.04-3.85.11-7.69.11-11.54.01-17.37,0-34.73,0-52.1.01-19.07,4.48-36.99,14.58-53.24,15.88-25.56,38.66-41.29,68.29-46.93,6.05-1.15,12.16-1.54,18.31-1.54,42.02.03,84.04-.03,126.06.03,45.47.06,85.88,31.83,96.67,75.92,1.99,8.14,3.01,16.39,2.99,24.78-.05,20.4-.02,40.79,0,61.19,0,.98.11,1.95.17,2.93-2.04,2.21-4.08,4.41-6.19,6.69-.61-.97-.33-1.88-.33-2.73-.03-23.51.57-47.05-.19-70.54-1.16-35.95-18.02-62.9-49.27-80.64-13.86-7.87-29.01-11.29-44.95-11.28-41.7.03-83.4,0-125.11,0-44.07,0-81.23,29.06-91.92,71.83-1.77,7.1-2.59,14.3-2.59,21.61,0,22.94,0,45.88,0,68.82v3.26c-2.44-2.4-4.54-4.47-6.63-6.53Z" fill="#fefefe" stroke-width="0"/><path d="M441.64,199.42c.03-.82.08-1.63.08-2.45,0-33-.02-66,.06-99,0-2.22-.6-2.67-2.72-2.67-54.95.06-109.89.06-164.84,0-2.23,0-2.67.63-2.67,2.74.05,40.86.03,81.72.02,122.58-1.69-.21-3.8.12-4.96-.77-1.28-.99-.13-3.26-.55-4.89-1.11-4.35-.82-8.77-.82-13.17-.01-36.77,0-73.54-.05-110.31,0-1.94.32-2.6,2.47-2.59,59.37.07,118.75.06,178.12.01,1.88,0,2.43.42,2.42,2.38-.07,36.03-.05,72.07-.05,108.1,0,.57.05,1.16-.03,1.72-.14.9-.56,1.86-1.32,2.22-.74.35-1.16-.7-1.72-1.13-1.17-.89-2.29-1.83-3.44-2.75Z" fill="#fefefe" stroke-width="0"/><path d="M271.56,356.85c.01,28.42.02,56.85.05,85.27,0,3.84-.46,3.43,3.38,3.43,54.55,0,109.11,0,163.66.06,2.39,0,3.15-.45,3.14-3.04-.1-41.86-.07-83.72-.06-125.57,0-1.15.05-2.29.08-3.44,1.79,1.29,3.54,2.63,5.37,3.85.7.47,1.04.96.97,1.79-.04.57,0,1.15,0,1.72,0,42.67-.02,85.34.05,128,0,2.25-.36,2.99-2.84,2.98-59.13-.08-118.26-.08-177.39-.01-2.22,0-2.8-.52-2.79-2.78.08-29.32.07-58.64.02-87.96,0-1.99.25-3.21,2.59-3.31,1.27-.05,2.51-.64,3.77-.99Z" fill="#fefefe" stroke-width="0"/><path d="M341.75,303.4c-3.49,7.12-6.78,13.89-11.07,20.09-1.16,1.68-2.46,3.27-3.78,4.82-2.64,3.1-6.09,3.66-9.82,2.72-10.52-2.67-15.88-10.28-18.82-20.07-.57-1.91-.8-3.92-1.27-6.32-2.29,3.37-4.31,6.42-6.4,9.42-4.99,7.2-10.18,14.26-16.48,20.41-1.35,1.31-2.76,2.56-4.23,3.73-5.55,4.42-11.08,4.8-16.95.8-8.87-6.05-14.4-15.48-11.63-28.41,4.1-19.15,10.34-37.61,16.79-56.03.57-1.62,1.11-3.24,1.78-5.2-4.4.71-8.59,1.37-12.78,2.08-2,.34-3.98.98-5.99,1.11-1.67.1-2.15.91-2.62,2.3-4.11,12.26-8.77,24.3-14.64,35.84-1.05,2.07-2.32,3.95-3.89,5.64-.9.98-1.96,1.75-3.18,2.26-1.47.61-3.03,1.13-4.34-.2-1.24-1.25-.73-2.77-.15-4.15,1.7-4.07,3.49-8.11,5.19-12.19,3.55-8.53,6.88-17.14,10.02-25.83.33-.91.61-1.85.91-2.78-8.29-1.54-11.67-5.46-11.81-14.01-.15-9.07,2.66-17.33,7.17-25.12,2.66-4.59,6.97-5.54,11.67-5.8,3.12-.18,6.21,0,9.11,1.35,2.68,1.24,4.12,3.35,4.49,6.26.36,2.81-.02,5.54-.75,8.24-1.21,4.49-2.38,9-3.72,13.45-.58,1.94-.13,2.46,1.82,2.08,4.88-.94,9.76-1.94,14.68-2.68,6.61-.98,12.68.53,17.93,4.73,2.88,2.31,3.29,4.36,2.17,7.79-6.22,19-12.26,38.05-16.18,57.69-.77,3.85-1.42,7.7-1.19,11.65.14,2.45.79,2.91,3.06,1.9,3.05-1.37,5.44-3.65,7.69-6.02,10.41-11,18.8-23.5,26.55-36.43,1.65-2.75,2.34-6.08,3.53-9.12,4.73-12,10.65-23.34,18.74-33.46,2.82-3.52,6.04-6.63,9.63-9.42,7.19-5.59,21.61-6.04,29.03,3.26,1.11-3.19,2.26-6.24,3.24-9.35.5-1.59,1.22-1.92,2.87-1.57,4.12.88,8.07,2.05,11.53,4.56,3.48,2.54,4.13,4.73,2.81,8.77-6.25,19.15-12.3,38.37-16.23,58.16-.72,3.6-1.3,7.24-1.09,10.95.13,2.26.89,2.78,2.93,1.85,3.43-1.56,6.09-4.15,8.59-6.86,10.09-10.95,18.5-23.15,25.97-35.96,2.03-3.49,2.53-7.88,3.67-11.87,3.4-11.86,6.72-23.74,11.42-35.17,1.84-4.48,1.94-4.41,6.69-3.08,3.58,1,7.02,2.26,9.76,4.9,2.14,2.06,3.1,4.31,2.24,7.47-4.85,17.7-9.53,35.45-14.27,53.19-.02.06.07.14.2.38,1.04-.49,1.51-1.47,2.05-2.36,12.84-21.4,25.68-42.8,38.52-64.21,1.47-2.46,2.94-4.92,4.42-7.37.41-.68.68-1.52,1.8-1.31,5.18.99,10.23,2.27,14.1,6.22,1.86,1.9,2.41,3.88,1.49,6.65-6.21,18.77-12.17,37.62-16.17,57.02-.74,3.61-1.27,7.24-1.55,10.9-.1,1.29-.22,2.86.94,3.63,1.25.84,2.54-.22,3.6-.89,4.77-3.03,8.42-7.25,11.97-11.55,7.68-9.29,14.52-19.2,20.68-29.54,1.81-3.04,2.59-6.68,3.91-10.03,5.13-13.03,11.52-25.35,20.8-35.95,4.23-4.83,8.83-9.31,15.49-10.64,7.57-1.51,14.27.13,19.84,5.68.23.23.49.42.91.79,1.18-2.82,1.79-5.67,2.39-8.49.37-1.74,1.1-2.31,2.82-1.9,4,.95,7.92,2,11.27,4.56,3.19,2.43,4.01,4.61,3.06,8.48-6.76,27.58-14.56,54.85-23.74,81.73-.52,1.51-1.25,3-1.23,5.01,2.78-1.77,4.9-3.94,7.09-5.98,7.04-6.52,13.63-13.47,19.67-20.94.62-.77,1.21-1.49,1.13-2.61-.76-9.75,1.5-19.05,4.51-28.18,5.08-15.43,12.1-29.89,22.52-42.5,3.35-4.05,7.01-7.88,11.85-10.17,11.9-5.65,28.76-.91,34.24,14.62,1.07,3.02.85,6.21-.07,9.21-5.31,17.43-16.04,30.17-33.03,37.18-4.85,2-10,2.51-14.89-.38-.8-.48-1.34-.51-1.59.56-1.33,5.9-3.03,11.75-2.28,17.9.81,6.68,5.71,11.47,13.55,8.96,8.77-2.81,15.92-7.97,22.36-14.23,12.33-11.98,22.33-25.67,29.62-41.3,1.07-2.29,2.87-2.88,5.51-1.75,2.63,1.12,3.83,3.22,2.78,5.38-10.24,21.13-22.07,41.16-39.92,56.95-4.74,4.2-10.05,7.53-15.91,10.07-9.76,4.23-18.65,2.23-27.19-3.21-2.86-1.82-5.32-4.12-7.35-6.82-.87-1.15-1.34-1.01-2.19-.04-10.78,12.2-22.83,23.02-35.85,32.76-.95.71-1.2,1.71-1.58,2.69-4.78,12.64-9.87,25.14-16.13,37.13-6.21,11.91-14.39,22.17-26.71,28.27-8.43,4.17-17.24,6.95-26.63,3.02-8.52-3.57-13.99-9.74-15.62-19.01-.86-4.9,1.04-8.81,4.47-12.11,3.7-3.55,8.11-6.1,12.55-8.55,15.18-8.4,30.55-16.46,45.33-25.57,1.48-.91,2.41-1.99,2.96-3.66,2.02-6.14,4.18-12.22,6.26-18.34.33-.97.9-1.91.68-3.3-1.91,2.92-3.69,5.65-5.48,8.36-.36.55-.79,1.05-1.16,1.59-4.95,7.18-10.21,7.79-17.9,3.91-8.44-4.25-12.53-11.89-14.23-20.94-.09-.48-.15-.97-.24-1.45-.06-.32-.16-.63-.25-.98-1.08.21-1.3,1.2-1.76,1.9-5.56,8.51-11.44,16.77-18.21,24.37-2.62,2.94-5.48,5.61-8.67,7.95-4.11,3.02-8.54,3.4-12.99,1.27-8.6-4.1-13.71-11.1-15.06-20.43-.7-4.84.95-9.7,1.92-14.5,1.47-7.29,3.8-14.35,5.76-21.7-.77.23-.9.77-1.14,1.2-11.92,21.36-23.85,42.72-35.73,64.1-.8,1.44-1.49,1.86-3.23,1.49-4.16-.88-8.04-2.25-11.28-5.05-5.07-4.39-6.06-10.02-4.76-16.3.12-.58.6-1.21-.11-1.95-2.96,4.13-5.81,8.27-8.82,12.29-4.18,5.57-8.6,10.93-13.89,15.53-6.32,5.48-12.03,6.88-20.68.25-5.23-4.01-8.47-9.44-10.23-16.14ZM523.44,268.1c0,.9-.15,1.83.03,2.69.31,1.47.26,3.32,2.12,3.82,1.75.47,2.63-1.04,3.54-2.13,3.01-3.59,5.28-7.68,7.51-11.77,8.38-15.38,15.62-31.3,22.23-47.5,1.54-3.78,2.77-7.68,4.16-11.52.67-1.86-.05-2.88-1.86-3.46-3.81-1.22-6.89.34-9.72,2.56-2.98,2.34-5.36,5.27-7.45,8.43-8.07,12.2-13.18,25.69-17.2,39.64-1.82,6.29-3.06,12.69-3.38,19.25ZM319.88,304.21c0,1.15-.18,2.33.05,3.43.27,1.32.47,2.93,2.06,3.37,1.61.44,2.49-.87,3.43-1.87.17-.18.28-.4.43-.6,5.41-7.06,9.25-15.03,13.19-22.92,7.83-15.65,15-31.57,20.26-48.3.49-1.56.01-2.1-1.26-2.52-3.09-1.02-6-.54-8.65,1.25-3.29,2.23-5.92,5.14-8.19,8.38-7.64,10.89-12.51,23.07-16.52,35.65-2.51,7.86-4.45,15.84-4.79,24.12ZM612.61,227.75c1.94-.49,3.29-.74,4.59-1.17,5.45-1.8,10.16-4.87,14.32-8.74,7.23-6.71,13.24-14.27,15.9-24,1.05-3.84.28-7.29-2.52-10.21-1.26-1.32-2.68-1.62-4.43-.86-2.77,1.2-5.03,3.05-6.99,5.27-10.03,11.4-15.7,25.09-20.88,39.7ZM526.48,317.22c-2.09,1.39-3.59,2.37-5.08,3.37-10.19,6.83-20.65,13.29-30.35,20.83-2.78,2.16-5.54,4.41-7.16,7.65-1.26,2.51-1.42,5.16.46,7.38,1.81,2.14,4.23,2.8,7.08,2.06,5.32-1.38,9.66-4.34,13.52-8.1,7.12-6.93,12.32-15.25,17.23-23.77,1.62-2.81,3-5.75,4.3-9.42ZM559.48,282.92l.09-.13-.11-.02.03.16Z" fill="#f0681e" stroke-width="0"/><path d="M435.88,244.81c-.08.24.06.74-.33.62-.25-.08-.12-.55.15-.79.06.06.12.11.18.17Z" fill="#01458b" stroke-width="0"/><path d="M65.82,288.66c2.5-7.72,5.16-15,8.2-22.13,7.48-17.56,16.58-34.19,28.8-48.93,10.05-12.12,21.45-22.7,36.89-27.49,11.9-3.69,24.06-4.52,35.63,1.11,12.03,5.85,18.26,15.74,18.27,29.28.01,9.51-2.71,18.39-6.35,27.04-.59,1.41-.56,2.48.11,3.88,3.45,7.31,4.65,15.16,4.78,23.14.65,39.34-14.26,72.16-42.35,99.19-7.56,7.27-16.3,12.98-26.93,14.88-15.92,2.85-31.03,1.15-44.4-8.76-10.92-8.1-16.78-19.42-19.73-32.43-2.83-12.46-1-24.75,1.22-37.04.38-2.07,1.98-4.45.95-6.08-.9-1.45-3.5-1.82-5.33-2.7-14.84-7.2-26.79-17.51-33.3-32.95-5.47-12.96-7.59-26.51-2.74-40.2,3.78-10.68,11.53-16.96,22.97-17.89,6.32-.51,11.57,2.37,16.07,6.67.35.34.69.7,1.02,1.07,1.14,1.28,3,2.5,3,4.05,0,1.79-2.52,1.42-3.81,2.3-7.91,5.42-11.61,13.16-12.36,22.42-.75,9.34,2.63,17.71,6.83,25.77,3.09,5.93,7.15,11.14,12.54,15.83ZM171.26,275.07c-1,.19-1.32.93-1.77,1.46-3.7,4.4-7.76,8.43-12.15,12.14-13.95,11.81-30.04,18.51-48.2,20.44-6.62.7-13.23.79-19.87.69-1.24-.02-1.93.25-2.22,1.59-2.79,12.9-5.4,25.84-4.08,39.14.77,7.73,2.86,15.12,7.39,21.59,4.7,6.7,11.09,9.13,19.05,7.41,4.77-1.03,9.18-2.95,13.31-5.5,9.38-5.81,16.51-13.87,22.57-22.94,9.97-14.92,16.57-31.31,21.16-48.59,2.39-8.99,3.84-18.11,4.8-27.43ZM172.37,215.07c.01-3.38-.16-6.72-1.63-9.84-1.39-2.95-3.19-4.1-6.43-3.78-5.28.52-10.13,2.41-14.75,4.94-9.59,5.23-17.24,12.68-23.92,21.17-16.33,20.75-26.71,44.49-34.6,69.46-.51,1.62-.09,1.97,1.49,1.92,9.82-.26,19.02-3.05,27.8-7.13,19.49-9.07,33.32-23.91,42.81-42.97,5.29-10.63,8.81-21.79,9.23-33.76Z" fill="#f0681e" stroke-width="0"/><path d="M523.44,268.1c.32-6.55,1.56-12.95,3.38-19.25,4.03-13.95,9.13-27.44,17.2-39.64,2.09-3.15,4.47-6.08,7.45-8.43,2.83-2.23,5.91-3.79,9.72-2.56,1.81.58,2.53,1.6,1.86,3.46-1.39,3.84-2.62,7.75-4.16,11.52-6.61,16.21-13.86,32.12-22.23,47.5-2.23,4.09-4.5,8.17-7.51,11.77-.92,1.1-1.79,2.6-3.54,2.13-1.86-.5-1.81-2.36-2.12-3.82-.18-.86-.03-1.79-.03-2.69ZM528.83,263.83c6.55-8.41,28.73-56.26,28.27-60.91-1.79.79-3.26,1.93-4.56,3.3-1.92,2.02-3.63,4.21-5.13,6.56-7.88,12.39-12.94,25.96-16.69,40.07-.96,3.6-1.84,7.22-1.9,10.98Z" fill="#fefefe" stroke-width="0"/><path d="M319.88,304.21c.35-8.29,2.28-16.26,4.79-24.12,4.01-12.58,8.88-24.76,16.52-35.65,2.27-3.24,4.9-6.15,8.19-8.38,2.65-1.8,5.56-2.27,8.65-1.25,1.28.42,1.75.96,1.26,2.52-5.26,16.73-12.43,32.65-20.26,48.3-3.95,7.89-7.79,15.86-13.19,22.92-.15.19-.26.42-.43.6-.94,1-1.82,2.31-3.43,1.87-1.6-.44-1.8-2.05-2.06-3.37-.22-1.1-.05-2.28-.05-3.43ZM353.56,239.2c-4.3,2.29-6.79,5.53-9.09,8.91-6.67,9.81-11.11,20.67-14.74,31.88-2.24,6.93-4.31,13.9-4.68,21.29,11.14-19.68,21.12-39.87,28.51-62.08Z" fill="#fefefe" stroke-width="0"/><path d="M612.61,227.75c5.18-14.61,10.85-28.3,20.88-39.7,1.96-2.22,4.21-4.07,6.99-5.27,1.76-.76,3.17-.46,4.43.86,2.79,2.91,3.57,6.37,2.52,10.21-2.67,9.74-8.68,17.3-15.9,24-4.17,3.87-8.88,6.94-14.32,8.74-1.3.43-2.66.68-4.59,1.17ZM621.17,219.2c.66.19,1.08-.29,1.53-.59,8.31-5.64,14.61-12.99,18.85-22.1.83-1.79,1.45-3.66,1.51-5.65.04-1.15-.05-2.49-1.15-3.05-1.01-.51-1.75.61-2.51,1.16-.6.42-1.11.97-1.62,1.5-6.46,6.7-10.66,14.82-14.53,23.14-.84,1.81-1.98,3.55-2.04,5.66-.1.02-.2.05-.3.07.03.06.06.11.09.17.05-.1.11-.19.16-.29Z" fill="#fefefe" stroke-width="0"/><path d="M526.48,317.22c-1.29,3.67-2.68,6.61-4.3,9.42-4.91,8.52-10.12,16.85-17.23,23.77-3.86,3.76-8.19,6.72-13.52,8.1-2.85.74-5.27.09-7.08-2.06-1.88-2.23-1.72-4.88-.46-7.38,1.62-3.23,4.39-5.48,7.16-7.65,9.7-7.55,20.15-14,30.35-20.83,1.49-1,2.99-1.98,5.08-3.37ZM512.31,332.58c-7.82,4.77-15.43,9.84-22.21,16.05-.71.65-1.25,1.51-1.78,2.33-.51.8-.67,1.76-.07,2.53.57.74,1.5.57,2.28.29,1.46-.53,2.99-.95,4.31-1.73,7.81-4.64,13.18-11.56,17.73-19.23.24-.05.42-.16.24-.41-.03-.04-.33.11-.51.18Z" fill="#fefefe" stroke-width="0"/><polygon points="559.48 282.92 559.45 282.76 559.56 282.78 559.48 282.92" fill="#fefefe" stroke-width="0"/><path d="M171.26,275.07c-.96,9.31-2.41,18.44-4.8,27.43-4.59,17.28-11.19,33.67-21.16,48.59-6.06,9.07-13.18,17.12-22.57,22.94-4.13,2.56-8.54,4.47-13.31,5.5-7.96,1.73-14.35-.7-19.05-7.41-4.54-6.47-6.62-13.86-7.39-21.59-1.33-13.3,1.29-26.24,4.08-39.14.29-1.34.97-1.61,2.22-1.59,6.63.1,13.25.01,19.87-.69,18.16-1.93,34.25-8.63,48.2-20.44,4.38-3.71,8.45-7.74,12.15-12.14.45-.53.77-1.27,1.77-1.46ZM164.49,289.29c-.43.15-.69.18-.87.32-.52.4-1.02.82-1.51,1.26-11.53,10.23-24.7,17.33-39.76,20.82-9.52,2.21-19.18,3.1-28.94,2.93-1.19-.02-2.22-.09-2.52,1.53-2.12,11.43-4.55,22.85-3.06,34.57.88,6.94,2.61,13.7,7.05,19.36,3.21,4.08,7.31,6.15,12.68,4.98,4.52-.99,8.74-2.69,12.65-5.12,8.28-5.16,14.68-12.23,20.2-20.16,8.97-12.89,15.03-27.14,19.6-42.08,1.83-5.99,3.39-12.07,4.48-18.4Z" fill="#fefefe" stroke-width="0"/><path d="M172.37,215.07c-.42,11.98-3.94,23.14-9.23,33.76-9.48,19.06-23.32,33.9-42.81,42.97-8.78,4.09-17.99,6.87-27.8,7.13-1.58.04-2-.31-1.49-1.92,7.89-24.97,18.27-48.71,34.6-69.46,6.68-8.49,14.33-15.94,23.92-21.17,4.62-2.52,9.47-4.42,14.75-4.94,3.24-.32,5.04.83,6.43,3.78,1.47,3.12,1.64,6.46,1.63,9.84ZM167.6,215.27c-.07-1.33-.11-2.64-.2-3.95-.32-4.99-1.25-5.68-5.98-4.48-.39.1-.79.2-1.18.31-10.95,3.17-19.22,10.26-26.66,18.46-9.53,10.51-16.77,22.55-23.07,35.18-4.9,9.81-9.05,19.95-12.49,30.36-.89,2.68-.85,2.71,2.01,2.21,4.83-.86,9.52-2.28,14.06-4.08,18.9-7.49,32.68-20.75,42.52-38.29,6.23-11.1,10.29-22.91,10.99-35.72Z" fill="#fefefe" stroke-width="0"/><path d="M528.83,263.83c.06-3.76.94-7.38,1.9-10.98,3.75-14.11,8.81-27.68,16.69-40.07,1.5-2.35,3.21-4.54,5.13-6.56,1.3-1.37,2.77-2.5,4.56-3.3.46,4.65-21.72,52.5-28.27,60.91Z" fill="#01458b" stroke-width="0"/><path d="M353.56,239.2c-7.39,22.21-17.36,42.4-28.51,62.08.37-7.39,2.44-14.36,4.68-21.29,3.62-11.22,8.07-22.07,14.74-31.88,2.3-3.38,4.79-6.62,9.09-8.91Z" fill="#01458b" stroke-width="0"/><path d="M621.21,219.26c.06-2.11,1.2-3.85,2.04-5.66,3.87-8.32,8.07-16.44,14.53-23.14.51-.53,1.02-1.08,1.62-1.5.77-.54,1.51-1.67,2.51-1.16,1.1.56,1.19,1.9,1.15,3.05-.06,1.99-.68,3.87-1.51,5.65-4.24,9.11-10.54,16.46-18.85,22.1-.45.3-.87.78-1.53.59l.05.05Z" fill="#01458b" stroke-width="0"/><path d="M621.17,219.2c-.05.1-.11.19-.16.29-.03-.06-.06-.11-.09-.17.1-.02.2-.05.3-.07,0,0-.05-.05-.05-.05Z" fill="#01458b" stroke-width="0"/><path d="M512.57,332.82c-4.55,7.67-9.92,14.59-17.73,19.23-1.31.78-2.85,1.2-4.31,1.73-.78.28-1.71.45-2.28-.29-.6-.77-.44-1.73.07-2.53.53-.82,1.07-1.68,1.78-2.33,6.77-6.22,14.39-11.28,22.21-16.05.09.08.17.16.26.24Z" fill="#01458b" stroke-width="0"/><path d="M512.31,332.58c.18-.06.48-.22.51-.18.17.25,0,.36-.24.41-.09-.08-.17-.16-.26-.24Z" fill="#01458b" stroke-width="0"/><path d="M164.49,289.29c-1.09,6.33-2.65,12.41-4.48,18.4-4.57,14.93-10.63,29.19-19.6,42.08-5.52,7.93-11.92,15-20.2,20.16-3.91,2.44-8.13,4.14-12.65,5.12-5.37,1.17-9.48-.9-12.68-4.98-4.45-5.66-6.17-12.42-7.05-19.36-1.49-11.72.94-23.14,3.06-34.57.3-1.61,1.32-1.55,2.52-1.53,9.76.16,19.42-.73,28.94-2.93,15.06-3.49,28.23-10.6,39.76-20.82.49-.43.99-.86,1.51-1.26.18-.14.44-.17.87-.32Z" fill="#01458b" stroke-width="0"/><path d="M167.6,215.27c-.71,12.81-4.77,24.62-10.99,35.72-9.84,17.54-23.62,30.8-42.52,38.29-4.54,1.8-9.23,3.22-14.06,4.08-2.86.51-2.9.48-2.01-2.21,3.44-10.42,7.6-20.55,12.49-30.36,6.3-12.63,13.55-24.67,23.07-35.18,7.44-8.2,15.71-15.29,26.66-18.46.39-.11.79-.21,1.18-.31,4.73-1.2,5.66-.5,5.98,4.48.08,1.31.13,2.61.2,3.95Z" fill="#01458b" stroke-width="0"/></g></svg>