<?xml version="1.0" encoding="UTF-8"?><svg id="b" xmlns="http://www.w3.org/2000/svg" viewBox="0 0 687.56 678.5"><g id="c"><path d="M0,344.84c1.94.44,1.2-1.17,1.24-1.85,1.17-17.43,3.69-34.66,7.47-51.7,8.91-40.14,24.09-77.64,47.27-111.74.93-1.37,1.15-2.34.26-3.86-14.41-24.87-17.16-51.6-12.32-79.43,3.56-20.47,10.88-39.57,21.56-57.44,4.44-7.42,11.23-11.74,18.44-15.59C104.47,12.26,125.91,3.8,149.18.67c10.28-1.38,20.29-.84,29.82,3.65,6.21,2.93,10.73,7.58,13.62,13.79,3.97,8.54,8.85,16.55,14.07,24.38,1.1,1.64,2,2.15,4.05,1.5,24.35-7.8,49.4-9.94,74.82-9.31,19.14.47,38.13,2.33,56.96,5.77,1.03.19,1.99.05,2.98-.13,25.28-4.5,50.76-6.56,76.43-5.55,18.49.73,36.73,3.33,54.4,9.08,2.2.71,3.3.44,4.59-1.55,5.1-7.89,9.97-15.89,14.03-24.4,5.48-11.49,15.56-16.12,27.56-17.45,14.45-1.6,28.24,1.85,41.81,6.1,16.15,5.06,31.58,11.83,46.09,20.67,7.14,4.35,11.45,10.85,15.2,17.91,12.91,24.29,20.45,50,20.04,77.73-.27,18.57-4.8,36.04-14.02,52.22-.86,1.52-1.42,2.61-.18,4.45,27.39,40.41,43.64,85.13,51.33,133.14,1.68,10.48,2.9,21.02,3.48,31.63.04.76-.09,1.59.58,2.18.08.07.24.21.25.2.16-.15.3-.32.44-.49v42.3c-2.08-.47-1.19,1.28-1.23,1.92-.53,9.37-1.75,18.67-3.18,28.98-2.82-6.28-5.28-11.77-8.16-18.19-1.13,8.69-1.97,16.38-3.4,23.98-6.62,35.3-23.98,64.42-50.57,88.27-6.66,5.97-13.3,11.96-19.97,17.92-.64.57-1.13,1.41-2.47,1.44-.52-4.13.76-8.27.13-12.37-.65-.21-.84.33-1.05.64-23.05,33.71-52.61,60.72-86.09,83.7-41.56,28.52-86.99,48.95-134.79,64.39-10.21,3.3-20.49,6.37-30.9,9.02-1.45.37-2.81.44-4.27.04-58.26-15.68-113.53-38.18-163.75-72.11-34.12-23.05-64.16-50.37-87.68-84.44-.31-.44-.66-.85-1.37-1.75v13.12c-2.47-1.17-4.21-3.35-6.2-5.15-11.6-10.5-23.64-20.53-33.75-32.6-19.75-23.58-30.84-50.82-34.77-81.15-.51-3.94-.98-7.88-2.08-11.99-2.41,5.42-4.82,10.83-7.6,17.1-1.58-9.52-2.49-18.2-3.14-26.9-.07-.97.24-2.03-.6-2.85-.08-.08-.25-.2-.26-.19-.16.16-.29.33-.43.5,0-15,0-29.99,0-44.99ZM73.77,463.97c1.4.67,1.35,1.67,1.65,2.45,5.89,15.67,13.54,30.44,22.81,44.36,20.38,30.58,46.53,55.47,76.29,76.67,50.59,36.03,106.63,60.5,166.05,77.73,2.26.66,4.31.58,6.54-.05,27.26-7.76,53.85-17.39,79.72-28.95,42.42-18.96,82.19-42.19,116.91-73.39,30.4-27.33,54.62-59.06,68.83-97.82.14-.39.3-.87,1.15-.7-.42,12.98-.85,26-1.3,39.85,20.65-18.85,34.23-41.17,42.4-66.91,8.1-25.52,10.44-51.67,8.36-78.33,1.7,4.64,3.19,9.31,4.66,13.99,1.47,4.66,2.94,9.32,4.42,13.98.84-.68,1.01-1.2,1.08-1.73,3.66-31.41,2.17-62.54-4.96-93.37-9.41-40.71-27.45-77.42-51.68-111.25-1.33-1.85-1.64-3.1-.19-5.19,11.18-16.11,16.52-34.11,16.61-53.65.12-26.66-8.04-51.03-20.77-74.13-2.58-4.68-6.07-8.17-10.65-10.82-15.19-8.78-31.23-15.55-48.15-20.15-10.08-2.74-20.29-4.76-30.82-3.37-7.09.93-13.25,3.54-16.49,10.49-5.6,12.02-12.9,23-20.43,33.86-1.32,1.9-2.39,2.33-4.64,1.44-16.27-6.42-33.29-9.57-50.66-10.9-28.62-2.18-57.01-.34-85.17,5.17-1.37.27-2.65.07-3.97-.19-16.4-3.19-32.95-5.08-49.64-5.63-29.5-.97-58.62.98-86.48,11.93-1.49.59-2.24,0-3.04-1.12-7.37-10.42-14.69-20.92-19.93-32.59-3.47-7.73-9.36-11.36-17.31-12.46-3.67-.51-7.36-.65-11.05-.25-25.42,2.74-48.39,12.33-70.22,25.1-3.49,2.04-5.93,4.97-7.93,8.44-8.55,14.85-14.92,30.56-18.48,47.32-6.24,29.35-3.34,57.21,14.3,82.44,1.18,1.68.35,2.59-.5,3.78-5.95,8.27-11.56,16.76-16.76,25.52-31.81,53.49-46.75,110.96-40.83,173.34.25,2.67.63,5.33.94,8,.26,0,.51,0,.77,0,2.75-8.65,5.49-17.31,8.24-25.96-2.08,54.54,9.97,103.74,51.58,142.37-.42-13.01-.84-26.01-1.27-39.28Z" fill="#fb5800" stroke-width="0"/><path d="M73.77,463.97c.43,13.26.85,26.27,1.27,39.28-41.61-38.63-53.66-87.83-51.58-142.37-2.75,8.65-5.49,17.31-8.24,25.96-.26,0-.51,0-.77,0-.32-2.67-.69-5.33-.94-8-5.92-62.38,9.03-119.85,40.83-173.34,5.21-8.76,10.81-17.25,16.76-25.52.85-1.18,1.68-2.09.5-3.78-17.64-25.23-20.54-53.09-14.3-82.44,3.56-16.76,9.93-32.47,18.48-47.32,2-3.47,4.44-6.4,7.93-8.44,21.83-12.77,44.8-22.36,70.22-25.1,3.69-.4,7.38-.26,11.05.25,7.96,1.1,13.84,4.73,17.31,12.46,5.24,11.67,12.56,22.17,19.93,32.59.8,1.13,1.55,1.71,3.04,1.12,27.86-10.95,56.98-12.9,86.48-11.93,16.69.55,33.24,2.44,49.64,5.63,1.33.26,2.6.46,3.97.19,28.16-5.51,56.55-7.36,85.17-5.17,17.37,1.32,34.39,4.47,50.66,10.9,2.25.89,3.32.46,4.64-1.44,7.53-10.86,14.83-21.84,20.43-33.86,3.24-6.95,9.4-9.56,16.49-10.49,10.53-1.39,20.75.63,30.82,3.37,16.92,4.6,32.96,11.37,48.15,20.15,4.58,2.65,8.07,6.14,10.65,10.82,12.73,23.1,20.89,47.46,20.77,74.13-.09,19.54-5.43,37.54-16.61,53.65-1.45,2.09-1.14,3.34.19,5.19,24.23,33.82,42.27,70.54,51.68,111.25,7.13,30.83,8.62,61.97,4.96,93.37-.06.53-.23,1.05-1.08,1.73-1.47-4.66-2.94-9.32-4.42-13.98-1.48-4.67-2.96-9.34-4.66-13.99,2.08,26.66-.27,52.81-8.36,78.33-8.17,25.75-21.75,48.07-42.4,66.91.45-13.85.88-26.87,1.3-39.85-.85-.17-1.01.32-1.15.7-14.2,38.76-38.42,70.49-68.83,97.82-34.72,31.21-74.5,54.43-116.91,73.39-25.87,11.57-52.46,21.2-79.72,28.95-2.23.63-4.27.71-6.54.05-59.42-17.22-115.46-41.7-166.05-77.73-29.77-21.2-55.92-46.08-76.29-76.67-9.28-13.93-16.92-28.69-22.81-44.36-.29-.78-.25-1.78-1.65-2.45ZM418.31,439.51c.04.08.07.17.13.22.04.03.12,0,.19,0-.1-.08-.19-.17-.29-.25-2.29-7.31-5.28-14.06-13.37-16.73-4.14-1.37-8.23-2.92-12.42-4.08-23.18-6.42-46.81-7.03-70.58-4.95-14.11,1.24-27.83,4.32-41.01,9.64-6.92,2.79-8.95,9.11-11.42,15.17,3.1-2.15,6.53-3.23,9.88-4.43,14.34-5.16,29.21-7.67,44.36-8.33,23.84-1.05,47.69-1.36,71.08,4.44,8.18,2.03,16.65,3.66,23.46,9.29ZM298.8,502.62c-1.3.11-2.4-.53-3.51-1.01-12.12-5.23-24.24-10.46-36.33-15.75-8.25-3.61-8.33-3.67-6.45-12.46,3.11-14.56,6.45-29.05,12.28-42.84,2.52-5.96,6.39-10.37,12.46-12.89,3.72-1.54,7.41-3.16,11.25-4.38,19.63-6.19,39.8-8.38,60.29-7.89,19.24.46,38.03,3.44,56.26,9.94,9.95,3.55,16.21,9.88,19.64,19.87,5,14.55,8.51,29.43,11.59,44.45.39,1.87-.18,2.83-1.93,3.61-14.2,6.34-28.34,12.82-42.79,18.58-.73.29-1.49,1.02-2.54.27,3.01-2.23,6.06-4.29,8.87-6.64,2.18-1.83,5.1-3.77,4.19-7.08-.92-3.35-4.48-3.36-7.26-3.83-7.2-1.21-14.51-.84-21.76-1.32-1.7-.11-2.67.86-3.69,1.92-5.81,6.09-11.09,12.59-15.6,19.71-3.49,5.5-6.48,11.24-8.17,17.58-.36,1.34-.66,2.6.33,3.81,2.96,3.64,6.19,6.71,11.32,6.91,4.58.18,9.16.55,13.72,1.01,24.89,2.53,49.09,7.56,71.25,19.87,1.38.77,2.35.77,3.59-.25,5.8-4.76,11.44-9.68,16.44-15.31,1.22-1.38,1.61-2.76,1.47-4.56-1.59-20.64-3.76-41.22-7.13-61.65-5.48-33.22-13.48-65.75-26.8-96.79-9.36-21.83-21.08-42.22-37.11-59.95-2-2.22-3.81-3.01-6.92-2.3-12.97,2.98-26.03,5.6-39.04,8.41-2.02.44-3.95.43-5.96,0-10.28-2.22-20.56-4.42-30.87-6.51-4.12-.84-8.58-3.43-12.31-1.85-3.8,1.61-6.14,6.03-8.87,9.42-19.04,23.6-31.53,50.61-40.96,79.16-14.2,43-20.61,87.44-24.01,132.41-.13,1.72.41,2.98,1.52,4.22,4.92,5.55,10.47,10.4,16.16,15.12,1.46,1.21,2.55,1.18,4.15.26,11.07-6.29,22.97-10.5,35.26-13.66,16.54-4.26,33.41-6.17,50.42-7.2,4.66-.28,7.72-3.34,10.26-6.82,1.9-2.61,0-5.21-.9-7.59-4.97-13.25-13.63-24.05-23.21-34.2-1.05-1.12-2.29-1.21-3.67-1.15-5.37.23-10.74.35-16.1.67-3.12.19-6.26.49-9.21,1.66-3.6,1.43-4.21,3.67-1.88,6.8,1.42,1.9,3.34,3.28,5.11,4.82,2.26,1.96,5.23,2.98,7.13,5.4l.02-.02ZM579.33,155.64c.56.3.65.06.5-.44-1.65-2.26-3.19-4.6-4.96-6.75-15.91-19.37-35.16-34.66-57.16-46.54-2.25-1.21-2.86-1.99-1.15-4.35,7.51-10.42,13.35-21.8,17.28-33.99,4.96-15.37,15.77-23.3,31.01-26.26,7.39-1.43,14.84-1.66,22.44-.74-.41-1.15-1.29-1.15-2-1.37-6.51-2.03-13.01-4.14-19.56-6.04-8.61-2.5-17.35-4.35-26.33-4.96-10.97-.74-19.29,2.35-24.7,13.11-8.46,16.82-19.59,32.05-31.02,47.01-1.2,1.57-2.27,2.39-4.46,1.74-28.82-8.55-58.23-10.56-88.05-7.7-8.08.78-16.14,1.8-24.1,3.69,13.74,1.85,27.34,4.15,40.8,8.52-1.57,1.36-3.22,1.33-4.69,1.71-13.16,3.46-25.86,8.04-37.44,15.31-9.14,5.74-17.09,12.66-21.46,22.9-.09.2-.51.27-.51.26-13.88-25.31-38.93-32.45-64.5-40.02,7.18-2.51,13.88-4.08,20.64-5.31,6.79-1.24,13.62-2.23,20.43-3.32-37.09-7.04-73.92-7.01-110.35,3.5-3.14.91-4.95.51-6.99-2.22-11.66-15.62-22.76-31.6-31.89-48.86-2.81-5.31-7-8.63-12.9-9.73-3.53-.66-7.09-.82-10.69-.55-16.13,1.23-31.29,6.36-46.5,11.34-.27.09-.47.41-1.1.98,6.45-.7,12.44-.73,18.42.05,17.24,2.25,29.99,9.95,35.55,27.58,3.72,11.77,9.4,22.76,16.67,32.79,2.06,2.84,1.42,3.74-1.37,5.25-22.89,12.43-42.77,28.51-58.87,49.09-.94,1.2-2.16,2.27-2.49,4.37,5.73-1.26,11.23-2.54,16.77-3.65,5.48-1.1,10.98-2.12,16.51-2.99,5.49-.86,11.03-1.47,16.54-2.18-49.37,30.79-84.3,72.7-103.27,127.65,1.39.75,2.17.11,2.96-.17,7.16-2.6,14.46-4.73,21.81-6.71,1.23-.33,2.73-1.44,3.76-.33.86.93-.21,2.31-.53,3.45-5.03,17.44-6.32,35.18-4.16,53.17,3.4,28.29,14.68,53.32,31.81,75.84,20.64,27.14,46.9,47.8,75.89,65.27.35.21.74.5,1.51-.11-3.12-10.19-6.29-20.53-9.73-31.75,1.7,1.18,2.54,1.71,3.33,2.3,8.78,6.58,17.87,12.71,27.18,18.51,6.58,4.1,6.53,4.08,8.05-3.51,7.4-36.92,18.1-72.72,36-106.08.32-.6,1.07-1.24.21-2.27-22.66,10.21-45.71,12.4-69.22,2.68,10.65-2.71,21.33-5.08,31.72-8.8-1.28-.67-2.54-.95-3.79-1.27-30.41-7.83-52.21-25.66-63.91-55.14-.78-1.98-1.84-2.43-3.75-2.37-6.37.21-12.75.3-19.13.38-.63,0-1.55.55-1.97-.66.52-.27,1-.54,1.5-.76,13.53-5.99,27.31-11.27,41.76-14.58,2.49-.57,3.32-1.12,1.39-3.5-3.34-4.13-5.66-8.86-7.04-14-.88-3.3-1.54-6.66-.84-10.15.42.09.7.07.82.19,9.44,10.07,21.26,16.67,33.42,22.7,27.15,13.47,55.69,23.32,84.58,32.25,1.53.47,3.07.44,4.65.37,8.69-.35,13.21-5.7,15.87-13.22,3.22-9.09,3.95-18.59,4.16-28.11.45-20.88-1.88-41.55-4.93-62.15-.72-4.87-1.53-9.73-2.29-14.6.86.69,1.22,1.49,1.53,2.3,5.45,14.57,10.3,29.35,14.16,44.43,4.59,17.92,8.49,35.99,7.83,54.62-.23,6.46-.24,12.68,2.69,18.57.74,1.49.4,2.44-1.12,3.22-1.84.95-3.56,2.14-6.17,3.74,5.73,1.25,10.57,1.99,15.22,3.39,9.49,2.87,18.82,2.88,28.3-.01,4.64-1.42,9.5-2.13,14.47-3.2-1.11-1.8-2.59-2.51-3.97-3.06-2.95-1.18-3.31-2.79-2.13-5.67,1.2-2.94,2.88-5.83,2.56-9.26-1.05-11.32-.3-22.58,1.46-33.78,4.03-25.54,11.71-50.07,20.61-74.26.17-.47.28-1.07,1.01-1.18-1.4,9.74-2.98,19.44-4.16,29.19-2.34,19.23-4.1,38.51-2.36,57.91.67,7.49,1.77,14.92,5.23,21.73,4.1,8.08,11.61,11.22,20.26,8.57,23.34-7.15,46.4-15.09,68.7-25.04,17.28-7.71,34.51-15.62,48-29.53.11-.11.4-.04.66-.05.64,1.13.35,2.38.27,3.56-.51,7.73-3.51,14.53-8.17,20.6-1.63,2.12-1.3,2.82,1.24,3.39,14.35,3.26,28.04,8.47,41.46,14.42.73.32,1.82.3,1.97,1.28-7.05,0-14.07.06-21.1-.04-1.92-.03-2.95.43-3.73,2.39-11.68,29.49-33.51,47.3-63.91,55.13-1.24.32-2.49.6-3.74.9,10.41,4.12,21.1,6.44,31.74,9.18-23.58,9.76-46.74,7.45-70.38-3.12,2.32,4.58,4.17,8.13,5.94,11.73,15.72,31.98,25.36,65.9,32.11,100.74q.74,3.81,3.99,1.86c11.32-6.81,22.11-14.42,32.83-22.12.17.16.35.32.52.48-3.08,10.24-6.16,20.47-9.24,30.72,1.14.31,1.68-.15,2.23-.49,27.93-16.98,53.57-36.76,73.59-62.89,30.72-40.08,42.8-84.3,28.31-134.04-.08-.27.08-.6.16-1.15,9.69,2.48,19.12,5.34,29.02,8.9-9.26-27.52-22.64-51.86-40.54-73.72-17.94-21.9-39.28-39.87-63.47-54.62,4.47.25,8.79.76,13.1,1.33,12.44,1.64,24.65,4.45,36.88,7.16ZM256.11,563.56c.36.55.43.79.6.9.91.64,1.83,1.28,2.78,1.88,25.79,16.23,53.44,28.54,81.92,39.13,1.86.69,3.44.44,5.17-.2,9.66-3.57,19.22-7.37,28.66-11.48,18.08-7.87,35.68-16.65,52.36-27.21,1.2-.76,3.28-1.3,3.2-2.63-.09-1.64-2.3-1.85-3.68-2.42-4.44-1.83-8.86-3.8-13.46-5.18-42.01-12.62-84.41-12.96-127.04-3.62-10.5,2.3-20.64,5.8-30.51,10.84ZM519.9,278.18c-1.92.6-3.08.92-4.21,1.31-12.91,4.38-25.8,8.82-38.74,13.11-2.31.77-3.65,1.62-3.96,4.4-.45,4.03-2.76,7.18-6.96,8.11-4.06.9-6.92-1.09-8.71-4.66-.64-1.28-1.44-1.03-2.48-.73-13.35,3.9-26.62,8.14-40.95,9.63.65.43.89.67,1.17.76,18.36,5.85,37.04,8.58,56.2,5.06,22.05-4.05,38.03-16.32,48.65-37ZM273.17,309.34c-2.65-.37-5.31-.66-7.93-1.14-10.69-1.95-21.1-4.99-31.46-8.19-1.93-.6-3.11-.69-4.24,1.45-1.52,2.89-4.24,4.22-7.61,3.77-3.83-.52-7.06-4.01-7.56-8.74-.23-2.2-1.15-2.96-3.07-3.6-13.36-4.46-26.67-9.06-40.01-13.58-1-.34-2-1.07-3.33-.52.52,1.03.99,2.04,1.53,3,12.46,22.03,31.83,32.89,56.62,34.66,16.14,1.16,31.8-1.53,47.05-7.12Z" fill="#3d1d15" stroke-width="0"/><path d="M508.78,433.96c-10.72,7.7-21.51,15.3-32.83,22.12q-3.25,1.96-3.99-1.86c-6.74-34.84-16.38-68.76-32.11-100.74-1.77-3.6-3.62-7.15-5.94-11.73,23.64,10.57,46.8,12.88,70.38,3.12-10.64-2.74-21.33-5.06-31.74-9.18,1.25-.3,2.5-.58,3.74-.9,30.4-7.83,52.23-25.63,63.91-55.13.78-1.96,1.81-2.42,3.73-2.39,7.03.09,14.05.04,21.1.04-.14-.98-1.24-.96-1.97-1.28-13.42-5.95-27.11-11.16-41.46-14.42-2.54-.58-2.87-1.27-1.24-3.39,4.65-6.07,7.65-12.86,8.17-20.6.08-1.18.37-2.42-.27-3.56-.26.02-.55-.06-.66.05-13.5,13.91-30.72,21.82-48,29.53-22.3,9.95-45.37,17.89-68.7,25.04-8.66,2.65-16.16-.48-20.26-8.57-3.46-6.81-4.56-14.24-5.23-21.73-1.73-19.4.03-38.68,2.36-57.91,1.18-9.75,2.76-19.44,4.16-29.19-.73.1-.84.7-1.01,1.18-8.9,24.19-16.58,48.72-20.61,74.26-1.77,11.2-2.51,22.46-1.46,33.78.32,3.43-1.36,6.32-2.56,9.26-1.18,2.88-.82,4.49,2.13,5.67,1.37.55,2.86,1.26,3.97,3.06-4.97,1.08-9.83,1.79-14.47,3.2-9.49,2.9-18.82,2.88-28.3.01-4.64-1.4-9.49-2.14-15.22-3.39,2.61-1.6,4.33-2.79,6.17-3.74,1.52-.78,1.87-1.73,1.12-3.22-2.93-5.9-2.92-12.11-2.69-18.57.66-18.63-3.24-36.7-7.83-54.62-3.86-15.08-8.7-29.85-14.16-44.43-.31-.82-.67-1.61-1.53-2.3.77,4.87,1.57,9.73,2.29,14.6,3.05,20.61,5.39,41.28,4.93,62.15-.21,9.52-.94,19.02-4.16,28.11-2.66,7.52-7.18,12.87-15.87,13.22-1.58.06-3.12.1-4.65-.37-28.89-8.93-57.43-18.78-84.58-32.25-12.16-6.03-23.98-12.62-33.42-22.7-.12-.12-.4-.1-.82-.19-.7,3.49-.04,6.85.84,10.15,1.38,5.14,3.7,9.87,7.04,14,1.93,2.38,1.09,2.93-1.39,3.5-14.46,3.31-28.24,8.58-41.76,14.58-.5.22-.98.5-1.5.76.42,1.22,1.34.67,1.97.66,6.38-.08,12.75-.17,19.13-.38,1.91-.06,2.96.4,3.75,2.37,11.7,29.47,33.5,47.31,63.91,55.14,1.25.32,2.52.61,3.79,1.27-10.39,3.72-21.07,6.1-31.72,8.8,23.51,9.71,46.57,7.53,69.22-2.68.87,1.02.12,1.67-.21,2.27-17.9,33.36-28.6,69.16-36,106.08-1.52,7.6-1.48,7.61-8.05,3.51-9.31-5.81-18.4-11.93-27.18-18.51-.79-.59-1.63-1.13-3.33-2.3,3.44,11.23,6.61,21.57,9.73,31.75-.76.61-1.16.32-1.51.11-28.99-17.47-55.24-38.13-75.89-65.27-17.13-22.52-28.41-47.55-31.81-75.84-2.16-17.99-.87-35.73,4.16-53.17.33-1.14,1.4-2.52.53-3.45-1.03-1.11-2.53,0-3.76.33-7.35,1.98-14.65,4.11-21.81,6.71-.79.29-1.57.93-2.96.17,18.98-54.95,53.9-96.86,103.27-127.65-5.52.72-11.05,1.33-16.54,2.18-5.52.86-11.03,1.89-16.51,2.99-5.54,1.11-11.05,2.4-16.77,3.65.33-2.1,1.55-3.17,2.49-4.37,16.1-20.58,35.99-36.67,58.87-49.09,2.79-1.52,3.43-2.41,1.37-5.25-7.27-10.03-12.96-21.02-16.67-32.79-5.57-17.63-18.31-25.33-35.55-27.58-5.98-.78-11.97-.75-18.42-.05.63-.57.83-.89,1.1-.98,15.21-4.98,30.37-10.11,46.5-11.34,3.6-.28,7.16-.11,10.69.55,5.89,1.1,10.09,4.42,12.9,9.73,9.13,17.26,20.23,33.24,31.89,48.86,2.04,2.73,3.84,3.13,6.99,2.22,36.44-10.5,73.26-10.54,110.35-3.5-6.81,1.1-13.64,2.09-20.43,3.32-6.77,1.24-13.46,2.81-20.64,5.31,25.58,7.57,50.62,14.71,64.5,40.02,0,0,.42-.06.51-.26,4.37-10.25,12.32-17.16,21.46-22.9,11.58-7.28,24.28-11.86,37.44-15.31,1.47-.39,3.11-.36,4.69-1.71-13.47-4.37-27.06-6.67-40.8-8.52,7.96-1.89,16.02-2.92,24.1-3.69,29.82-2.86,59.23-.85,88.05,7.7,2.19.65,3.26-.17,4.46-1.74,11.42-14.96,22.56-30.19,31.02-47.01,5.41-10.76,13.73-13.86,24.7-13.11,8.98.61,17.72,2.46,26.33,4.96,6.55,1.9,13.04,4.01,19.56,6.04.71.22,1.59.22,2,1.37-7.59-.92-15.05-.69-22.44.74-15.24,2.95-26.05,10.89-31.01,26.26-3.93,12.19-9.77,23.57-17.28,33.99-1.7,2.36-1.1,3.13,1.15,4.35,22,11.88,41.26,27.17,57.16,46.54,1.77,2.16,3.31,4.5,4.96,6.75-.17.14-.34.29-.5.44-12.23-2.71-24.44-5.52-36.88-7.16-4.31-.57-8.62-1.08-13.1-1.33,24.19,14.76,45.54,32.72,63.47,54.62,17.9,21.86,31.29,46.21,40.54,73.72-9.9-3.56-19.34-6.43-29.02-8.9-.08.55-.24.89-.16,1.15,14.49,49.73,2.41,93.95-28.31,134.04-20.02,26.13-45.66,45.91-73.59,62.89-.55.33-1.08.8-2.23.49,3.08-10.25,6.16-20.48,9.24-30.72-.02-.24-.03-.49-.05-.73-.16.08-.31.17-.47.25Z" fill="#99705b" stroke-width="0"/><path d="M298.78,502.64c-1.9-2.43-4.86-3.44-7.13-5.4-1.78-1.54-3.7-2.92-5.11-4.82-2.33-3.13-1.72-5.37,1.88-6.8,2.95-1.17,6.09-1.48,9.21-1.66,5.36-.32,10.73-.44,16.1-.67,1.38-.06,2.62.03,3.67,1.15,9.58,10.15,18.24,20.95,23.21,34.2.89,2.38,2.8,4.98.9,7.59-2.54,3.49-5.59,6.54-10.26,6.82-17.01,1.02-33.88,2.94-50.42,7.2-12.29,3.16-24.19,7.37-35.26,13.66-1.61.91-2.7.94-4.15-.26-5.69-4.72-11.25-9.57-16.16-15.12-1.11-1.25-1.65-2.51-1.52-4.22,3.4-44.97,9.81-89.41,24.01-132.41,9.43-28.55,21.92-55.56,40.96-79.16,2.74-3.39,5.07-7.81,8.87-9.42,3.72-1.58,8.19,1.02,12.31,1.85,10.3,2.1,20.59,4.29,30.87,6.51,2.02.44,3.94.44,5.96,0,13.01-2.81,26.07-5.43,39.04-8.41,3.1-.71,4.91.08,6.92,2.3,16.03,17.73,27.75,38.11,37.11,59.95,13.31,31.04,21.31,63.57,26.8,96.79,3.37,20.44,5.54,41.01,7.13,61.65.14,1.8-.25,3.18-1.47,4.56-5,5.63-10.63,10.56-16.44,15.31-1.23,1.01-2.2,1.01-3.59.25-22.16-12.31-46.36-17.34-71.25-19.87-4.56-.46-9.14-.83-13.72-1.01-5.13-.2-8.36-3.27-11.32-6.91-.99-1.21-.69-2.47-.33-3.81,1.7-6.34,4.69-12.08,8.17-17.58,4.51-7.11,9.79-13.62,15.6-19.71,1.02-1.07,1.99-2.03,3.69-1.92,7.25.47,14.56.11,21.76,1.32,2.78.47,6.34.48,7.26,3.83.91,3.31-2,5.25-4.19,7.08-2.81,2.35-5.85,4.41-8.87,6.64,1.06.75,1.82.02,2.54-.27,14.45-5.77,28.59-12.24,42.79-18.58,1.75-.78,2.31-1.74,1.93-3.61-3.09-15.02-6.6-29.9-11.59-44.45-3.43-9.99-9.69-16.32-19.64-19.87-18.24-6.5-37.02-9.48-56.26-9.94-20.49-.49-40.66,1.7-60.29,7.89-3.85,1.21-7.53,2.83-11.25,4.38-6.07,2.51-9.94,6.93-12.46,12.89-5.83,13.79-9.17,28.28-12.28,42.84-1.88,8.79-1.8,8.85,6.45,12.46,12.09,5.29,24.21,10.52,36.33,15.75,1.11.48,2.21,1.12,3.51,1.01.14.09.17.6.47.14-.16-.04-.33-.08-.49-.12Z" fill="#99705b" stroke-width="0"/><path d="M256.11,563.56c9.87-5.04,20-8.54,30.51-10.84,42.63-9.33,85.04-9,127.04,3.62,4.59,1.38,9.01,3.35,13.46,5.18,1.38.57,3.59.78,3.68,2.42.07,1.33-2,1.87-3.2,2.63-16.68,10.56-34.29,19.34-52.36,27.21-9.44,4.11-19,7.91-28.66,11.48-1.73.64-3.31.89-5.17.2-28.48-10.59-56.14-22.9-81.92-39.13-.95-.6-1.86-1.23-2.78-1.88-.16-.11-.24-.35-.6-.9Z" fill="#99705b" stroke-width="0"/><path d="M418.31,439.51c-6.81-5.64-15.27-7.26-23.46-9.29-23.39-5.81-47.25-5.49-71.08-4.44-15.15.67-30.02,3.17-44.36,8.33-3.35,1.21-6.78,2.28-9.88,4.43,2.47-6.07,4.5-12.38,11.42-15.17,13.18-5.32,26.9-8.4,41.01-9.64,23.77-2.08,47.39-1.47,70.58,4.95,4.2,1.16,8.29,2.71,12.42,4.08,8.09,2.68,11.08,9.43,13.37,16.73l-.03.03Z" fill="#99705b" stroke-width="0"/><path d="M519.9,278.18c-10.62,20.68-26.61,32.95-48.65,37-19.16,3.52-37.84.79-56.2-5.06-.28-.09-.52-.33-1.17-.76,14.33-1.5,27.6-5.73,40.95-9.63,1.04-.3,1.84-.55,2.48.73,1.79,3.56,4.65,5.55,8.71,4.66,4.2-.93,6.51-4.08,6.96-8.11.31-2.78,1.65-3.63,3.96-4.4,12.94-4.3,25.83-8.73,38.74-13.11,1.14-.39,2.29-.71,4.21-1.31Z" fill="#fb5800" stroke-width="0"/><path d="M273.17,309.34c-15.24,5.59-30.9,8.27-47.05,7.12-24.8-1.78-44.17-12.63-56.62-34.66-.54-.96-1.01-1.97-1.53-3,1.33-.55,2.32.18,3.33.52,13.34,4.51,26.65,9.11,40.01,13.58,1.92.64,2.84,1.4,3.07,3.6.5,4.73,3.73,8.22,7.56,8.74,3.36.46,6.08-.88,7.61-3.77,1.13-2.14,2.3-2.05,4.24-1.45,10.36,3.2,20.77,6.24,31.46,8.19,2.63.48,5.29.76,7.93,1.14Z" fill="#fb5800" stroke-width="0"/><path d="M579.83,155.2c.14.5.05.74-.5.44.16-.16.33-.3.5-.44Z" fill="#99705b" stroke-width="0"/><path d="M418.33,439.49c.1.08.19.17.29.25-.06,0-.15.03-.19,0-.06-.05-.09-.15-.13-.22,0,0,.03-.03.03-.03Z" fill="#99705b" stroke-width="0"/><path d="M508.78,433.96c.16-.08.31-.17.47-.25.02.24.03.48.05.73-.17-.16-.34-.32-.52-.48Z" fill="#3d1d15" stroke-width="0"/><path d="M298.78,502.64c.16.04.33.08.49.12-.31.46-.33-.04-.47-.14,0,0-.02.02-.02.02Z" fill="#3d1d15" stroke-width="0"/></g></svg>