<?xml version="1.0" encoding="UTF-8"?><svg id="b" xmlns="http://www.w3.org/2000/svg" viewBox="0 0 699.27 587.08"><g id="c"><path d="M68.5,414.58S0,431.51,0,424.72c14.76-4.75,97.95-40.26,112.83-44.63,4.93-1.45,8.01-3.19,7.11-8.8-.07-.41.12-.86.18-1.29,2.53-16.46,9.68-31.01,18.73-44.72,12.89-19.52,29.45-35.74,46.55-51.45,9.23-8.48,18.91-16.43,30.07-22.5-1.65-.25-3.23-.39-4.78-.22-15.62,1.71-30.77,5.36-45.5,10.87-15.25,5.71-30.23,12.11-45.54,17.69-15.95,5.82-30.88,4.25-45.45-3.86-1.9-1.05-3.8-2.09-5.7-3.14-84.36-62.98-39.59-124.32,0-153.09.94-.26,1.9-.44,2.81-.79,13.18-5.08,26.66-9.2,40.48-12.09,31.23-6.52,62.43-8.09,93.48,1.11.22.07.51-.11,1.05-.24-2.92-4.08-5.76-7.95-8.48-11.9-5.95-8.64-12.86-16.64-17.98-25.81-5.31-9.49-7.12-19.64,4.43-29.26,4.8-3.99,9.58-7.99,14.85-11.32,25.14-15.89,52.68-24.74,82.13-28.04,1.79-.2,3.92.62,5.36-1.24h4.6c5.48.83,10.95.57,16.43,0h3.29c.6,1.21,1.74.63,2.62.7,16.65,1.44,32.15,6.27,46.22,15.43,19.9,12.97,33.31,31.28,43.23,52.49,6.92,14.77,10.45,30.58,14.45,46.26,3.41,13.36,7.61,26.49,13.76,38.89.64,1.29.89,3.28,3.27,1.19,21.65-19.03,47.12-24.93,75.19-21.3,26.52,3.43,48.5,15.45,66.06,35.57,1.15,1.32,2.03,2.07,4.09,1.31,31-11.37,62.04-22.62,93.09-33.87,1.81-.66,3.19-1.63,4.34-3.23,3.35-4.69,8.1-7.16,13.71-8.21,3.61-.68,6.46.17,8.29,3.54v3.94c-.88.05-.82.9-1.12,1.4-1.89,3.12-3.83,6.24-7.65,7.22-2.75.7-5.57,1.14-8.38,1.58-1.06.16-2.52.43-3.18-.11-1.83-1.5-3.21-.46-4.72.29-26.55,13.17-53.09,26.36-79.64,39.51-6.3,3.12-6.33,3.06-5.01,10.06.02.11.06.22.05.32-.19,2.87,1.46,3.27,3.89,3.29,14.01.08,28.03.24,42.04.49,4.17.08,8.24.22,12.12-1.83,2.22-1.17,4.81-1.49,7.34-1.53,3.46-.06,6.8.54,9.59,2.73,1.75,1.38,2.95,3.27,1.16,5.36-5.48,6.39-13.7,10.15-22.33,4.06-1.48-1.04-2.87-1.26-4.57-1.12-14.41,1.11-28.82,2.21-43.23,3.2-2.2.15-2.62.74-2.34,2.97,2.45,19.43.6,38.41-6.15,56.89-4.03,11.03-8.48,21.83-15.09,31.6-1.8,2.66.61,3.66,1.78,4.74,1.76,1.62,2.01-.87,2.58-1.65,2.94-3.96,5.44-8.21,7.37-12.76.87-2.05,2.33-3.03,4.33-3.58,4.69-1.27,9.24-.48,13.41,1.56,3,1.47,5.41,1.98,8.25-.25,1.4-1.09,3.37-1.53,5.15-2.04,9.08-2.6,17.79-.99,26.25,2.61,11.87,5.05,21.74,12.26,26.39,24.95,4.56,12.47,4.1,25.15,1.22,37.86-3.35,14.78-9.84,27.3-23.39,35.69-32.24,19.96-70.5,6.77-83-28.92-2.55-7.29-5.98-14.09-11.97-19.31-1.34-1.17-2.64-1.62-4.41-1.55-8.12.33-16.21.05-24.1-2.18-1.81-.51-3.64-.76-5.51-.73-7.34.11-13.14,3.76-18.51,8.23-15.61,13.03-32.5,14.93-50.65,5.65-6.22-3.18-11.77-7.23-16.73-13.2,1.68,11.33.2,21.26-5.79,30.41,5.97,2.15,11.46,4.55,16.19,8.42,5.69,4.66,8.77,10.43,8.3,17.99-.3,4.81-.56,9.61-1.42,14.36-3.83,21.23-14.51,38.93-28.16,55.18-6.3,7.5-11.51,15.68-14.38,25.19-.68,2.27-.23,3.1,2.28,3.08,7.12-.05,14.29.07,21.28,1.35,10.61,1.93,20.74,1.02,31.06-2.09,11.51-3.47,23.96,1.11,29.74,10.1,5.17,8.05,6.87,16.98,5.6,26.41-.69,5.09-2.72,9.75-6.18,13.56-9.11,10-20.64,15.06-34.07,15.07-10.18,0-19.09-4.37-27.3-10.09-2.67-1.86-5.5-2.99-8.65-3.7-5.52-1.25-9.9-.48-12.09,5.47-.69,1.89-2.1,2.44-4.12,2.38-7.24-.2-14.45-.69-21.55-2.1-9.41-1.88-18.47-4.65-25.82-11.3-1.76-1.59-2.99-3.43-3.63-5.72-3.99-14.17-.5-26.16,10.49-35.91,4.84-4.29,8.01-9.5,9.34-15.81.34-1.59.62-3.28.47-4.88-.96-9.99-2.01-19.97-1.06-30.38-3.09,1.37-5.7,2.7-8.44,3.7-16.31,5.98-33.16,6.51-50.22,4.86-1.75-.17-3.33-.26-5.03.71-10.09,5.75-20.58,10.67-31.43,14.82-1.64.63-2.42,1.26-2.1,3.27.39,2.46.35,5.03.19,7.53-.56,9.15-4.22,16.36-12.86,20.58-5.6,2.73-11.05,5.78-16.51,8.78-10.65,5.84-21.37,11.57-31.08,18.94-2.03,1.54-4.2,3.04-5.3,5.85,9.41-.65,18.13-2.97,26.71-6,6.84-2.41,13.86-4.14,21.21-3.72,8.53.49,14.99,4.26,18.87,12.11,7.22,14.6,4.66,33.79-6.21,45.81-2.07,2.29-4.35,4.2-7.38,5.27-16.7,5.89-32.49,4.18-47.4-5.41-4.64-2.98-9.44-5.55-15.07-6.05-5.34-.47-5.65-.21-6.32,5.15-.14,1.09-.48,2.17-.43,3.25.08,2.12-1.17,2.55-2.87,2.6-3.72.1-7.44.36-11.16.29-12.07-.22-23.71-2.33-34.47-8.17-2.01-1.09-3.4-2.49-4.12-4.78-2.13-6.79-2.94-13.72-2.08-20.76,1.71-13.88,4.81-19.5,21.27-23.35.43-.1.86-.2,1.29-.22,1.44-.06,2.42-.83,3.31-1.87,5.81-6.8,10.58-14.24,13.42-22.77,2.9-8.7,5.41-17.59,14.15-22.97-13.08-8.09-24.96-16.83-35.73-27.01-12.93-12.22-24.24-25.61-29.99-42.85-.72-2.17-2.12-1.39-3.4-1.23-17.8,2.34-35.59,4.7-53.39,7.06ZM338.13,169.15c1.76.57,3.54.59,5.36.17-1.71-.6-3.41-1.14-5.26-.99-17.16-2.9-34.21-6.36-51.08-10.63-21.84-5.54-43.67-11.22-64.49-20-10.28-4.34-20.56-8.83-27.92-17.82-.25-.31-.74-.44-1.35,0,1.31,3.95,3.82,7.09,6.96,9.82,3.17,2.75,7.02,4.48,10.65,6.69-.92.99-1.7.68-2.41.63-7.43-.47-14.85-1.13-22.28-1.39-18.8-.66-37.45.34-55.44,6.52-8.66,2.98-16.88,6.79-22.98,13.99-2.42,2.86-3.03,4.5-2.95,7.23,3.92-4,7.99-7.63,12.54-10.69,4.65-3.13,9.59-5.65,14.8-7.72,8.85-3.52,18.24-3.17,27.45-4.23,27.73-3.17,54.78-.75,81.2,8.61,31.45,11.14,64.03,16.91,97.18,19.8ZM188.72,281.86c-11.52,10.58-22.95,21.26-32.36,33.85-.84,1.12-1.42,2.46-2.02,3.74-.97,2.06-.31,3.5,1.7,4.58,4.84,2.6,5.35,4.51,2.4,9.26-1.56,2.52-3.18,4.96-4.12,7.81-2.13,6.52-1.51,8.5,4.03,12.37,3.44,2.4,4.13,4.39,2.85,8.45-.36,1.14-.9,2.23-1.3,3.36-2.03,5.71-.27,8.88,5.62,9.97,1.6.3,3.26.41,4.89.47,5.05.21,6.88,1.84,7.4,6.83.13,1.3.17,2.62.17,3.93.02,5.57.09,5.67,5.47,7.18.63.18,1.26.38,1.9.51,20.63,4.26,38.92,13.61,55.8,25.9,4.99,3.63,9.98,7.2,13.6,12.57,3.93,5.81,11.68,5.74,16.51.6.75-.8,1.51-1.59,2.34-2.3,1.07-.91,2.21-2.22,3.68-1.75,1.7.54,1.18,2.36,1.33,3.72.38,3.4,1.26,6.62,4.78,7.98,3.38,1.31,5.9-.77,8.15-2.92,2.14-2.04,4.27-4.12,6.75-5.71,1.08-.69,2.66-2.25,3.78-.08,1.28,2.5,3.27,2.47,5.28,1.6,4.51-1.93,9.03-3.89,13.36-6.2,11.08-5.92,19.73-14.79,28.27-23.77.53-.56.79-1.54,1.86-1.47.04.27.17.55.09.68-9.69,14.58-20.88,27.97-33.02,41.3,13.18,2.1,25.66,2.07,37.75-3.07,8.14-3.46,14.64-9.08,20.45-15.6,5.13-5.76,11.69-9.09,19.03-11.19-9.05,8.45-14.45,18.65-15.68,30.96-.75,7.44-.23,14.87.35,22.29.78,9.93-.93,19.23-7.58,27.06-1.23,1.44-.51,2,.43,2.87,4.59,4.27,11.23,5.06,17.09,1.93,1.8-.96,3.73-1.75,4.51-4.02,3.34-9.69,8.48-18.46,13.88-27.11,5.16-8.26,11.39-15.8,16.27-24.25,9.74-16.85,15.75-34.82,16.82-54.37.34-6.15-1.98-10.58-7.21-13.64-4.61-2.7-9.7-3.94-14.88-4.89-1.17-.21-2.23.21-3.04.91-2.11,1.8-4.56,3.01-6.98,4.26-9.7,5.02-19.9,8.37-30.93,6.82-24.51-3.45-42.4-29.32-37.39-53.69.66-3.19,1.51-6.35,2.46-10.29-5.2,3.3-7.17,7.63-8.03,12.61-1.27,7.32.23,14.38,2.16,21.38.37,1.36,1.14,2.58-.84,3.52-10.58,5.04-21.64,8.26-33.35,9.2-1.3.1-2.28-.2-3.19-1.2-7.07-7.84-11.43-16.78-11.33-27.55.1-10.95,4.15-20.52,10.68-29.05,1.89-2.48,1.41-3.82-.57-5.65-4.01-3.71-8.69-6.24-13.69-8.26-2.97-1.2-6.01-2.25-9.01-3.37,11.5-.48,22.78-1.6,33.83-4.46,9.17-2.37,18.01-5.49,24.99-12.38,6.61-6.53,10.37-14.52,12.19-23.22,12.23,5.97,24.57,6.45,36.03-.7,14.42-8.99,19.11-29.22,11.25-44.28-5.09-9.75-13.35-16.06-23-20.73-11.56-5.6-22.76-5.05-33.68,1.98-9.4,6.05-16.69,14.06-22.7,23.34-.84,1.29-1.42,2.35-3.5,2.09-24.2-2.98-49.36,15.88-53.41,39.97-1.79,10.66-5.96,20.32-11.93,29.25-1.71,2.57-3.72,4.7-6.69,6.06-4.37,2.01-6.13,8.06-4.07,12.39,1.79,3.76,3.34,7.61,4.47,11.63,5.6,19.94,19.48,31.68,40.03,33.79,1.53.16,2.33.56,2.6,2.21,1.36,8.3,5.41,15.38,10.02,22.26,1.84,2.74,3.87,3.56,7.08,3.15,12.88-1.61,25.32-4.96,37.58-9.09,1.52-.51,2.65-.91,3.89.85,4.36,6.2,9.63,11.62,15.08,16.86,1.45,1.39,1.5,2.19.16,3.68-6,6.72-12.48,12.91-19.92,18.02-3.24,2.23-6.65,4.2-10.48,5.33-2.86.84-5.03.45-6.49-2.59-1.15-2.39-2.21-5.6-5.43-5.49-3.24.1-3.87,3.49-5.06,5.85-1.83,3.65-4.22,6.8-8.18,8.1-5.25,1.73-7.41.73-6.93-4.61.04-.43.04-.88,0-1.31-.13-1.49.3-3.35-1.26-4.17-1.67-.87-2.8.73-3.94,1.66-2.56,2.1-5.23,4-8.53,4.71-3.33.73-4.17-.16-3.45-3.4.3-1.35.47-2.74.66-4.12.38-2.71-.76-3.72-3.4-2.89-2.96.93-5.42,2.82-7.83,4.67-4.93,3.78-10.25,4.52-16.1,2.78-2.56-.76-3.2-2.42-2.53-4.74.52-1.8,1.67-3.3,2.8-4.8,1.58-2.09,3.18-4.18,4.67-6.34.54-.77,1.14-1.72.29-2.69-.77-.88-1.83-.81-2.74-.47-1.63.62-3.2,1.41-4.77,2.18-3.17,1.56-6.37,2.98-10.03,2.59-1.18-.13-2.51-.23-3.01-1.6-.45-1.23.5-2.05,1.14-2.9,1.45-1.91,3.18-3.66,4.4-5.7,1.3-2.17.36-3.57-2.18-3.5-1.63.05-3.26.34-4.86.67-7.3,1.52-14.61,2.92-22.13,2.15-9.1-.93-13.31-5.89-12.62-14.94.12-1.53.39-3.04.6-4.56q.74-5.2-4.4-5.87c-4.24-.55-5.1-1.68-4.17-5.88.5-2.24,1.17-4.44,1.84-6.64,1.87-6.17,2.94-12.43,2.67-19.03-1.61.42-1.94,1.73-2.69,2.59-1.55,1.76-3.28,3.27-5.53,3.97-1.95.61-4.21,1.62-5.86-.19-1.51-1.66-.06-3.56.63-5.21,1.34-3.23,2.97-6.34,4.27-9.58.83-2.07.39-3.77-2.02-4.73-4.07-1.62-5.35-3.85-5.01-8.44.3-4,1.84-7.65,3.65-11.16,2-3.87,4.17-7.66,6.26-11.48l.11-.05-.08.06ZM269.02,475.37c-.03-5.62-1.8-10.74-4.41-15.63-5.67-10.67-13.08-19.94-22.36-27.66-11.27-9.37-23.82-16.3-37.79-21.11-8.51-2.93-17.12-4.99-25.8-7.05-9.51-2.26-17.61,4.29-19.59,12.91-1.57,6.83-1.14,13.69-1.07,20.53.04,3.66,1.61,7.14,3.88,10.25,6.39,8.74,14.89,15.06,23.88,20.73,9.28,5.85,18.83,11.23,30.11,12.29,1.51.14,2.99.65,4.32,1.49.93.58,1.44,1.31.97,2.44-.43,1.04-1.26,1.05-2.18.91-2.16-.33-4.32-.72-6.49-.94-12.52-1.25-24.38,5.93-28.1,17.61-3.52,11.06-10.21,20.02-17.77,28.42-2.21,2.45-2.01,3.99-.09,6.09,7.62,8.33,18.21,7.83,25.01-1.22,2.11-2.81,4.48-5.4,7.14-7.69,17.44-14.97,37.44-25.75,58.31-34.98,7.59-3.36,12.08-9.11,12.04-17.4ZM301.88,296.92c1.78,1.06,3.02,1.66,4.1,2.48,1.95,1.48,3.61,1.86,5.64-.08,1.27-1.22,2.87-2.47,4.88-2.26,4.28.46,8.19-.92,12.07-2.36,2.77-1.02,5.08-2.47,6.89-5.12,5.56-8.14,13.46-13.23,22.78-16.23,11.47-3.7,22.77-1.62,33.97,1.2,12.76,3.21,23.45,9.46,30.12,21.42,4.29,7.7,7.19,15.94,10.13,24.18,2.39,6.73,4.86,13.33,10.91,17.92,11.52,8.74,30.94,12.87,45.9,1.84,11.12-8.2,23.75-12.37,37.86-11.45,6.22.41,12.49.1,18.6-1.38,2.49-.6,5.03-1.23,6.9-3.67-8.52-.83-16.77-1.88-25.06-2.37-10.31-.62-20.22.78-29.31,6.42-6.05,3.75-12.81,6.08-19.83,7.41-20.96,3.97-35.97-4.36-42.23-23.91-.7-2.2-.41-3.9.98-5.77,5.76-7.73,12.82-13.86,22.07-16.77,17.59-5.53,34.14-3.89,48.73,8.4,4.1,3.45,8.07,7.07,12.2,10.48,5.72,4.72,11.85,8.82,19.55,9.22,6.01.31,12.04.16,18.05.18,1.89,0,3.75-.36,5.3-1.48,2.42-1.74,3.59-4.1,2.89-7.12-.68-2.92-2.8-3.26-5.49-3.41-12.63-.69-24.37-4.01-34.11-12.6-.81-.72-1.53-1.05-2.63-.72-8.48,2.52-16.25.26-23.63-3.83-6.81-3.78-13.8-7.1-21.09-9.84-13.6-5.1-25.95-2.61-37.44,5.79-4.46,3.26-7.86,7.53-11.32,11.97-.33-.41-.57-.64-.73-.91-7.85-13.5-19.55-21.53-34.8-24.5-1.16-.23-1.68-.74-1.87-1.87-.69-3.95-1.55-7.87-2.15-11.82-.31-2.03-.68-2.61-2.76-1.41-9.97,5.72-20.71,7.93-32.14,6.41-1.48-.2-2.37-.04-3.17,1.4-7.61,13.73-19.54,22.4-33.61,28.54-5.29,2.31-10.81,3.95-17.15,5.62ZM500.43,182.77c-7.7.37-15.58,4.61-21.92,11.83-2.33,2.66-3.45,5.85-2.31,9.45.52,1.66,1.3,2.51,3.36,1.77,2.98-1.06,6.08-1.85,9.18-2.49,14.95-3.1,22.06-.06,29.96,12.92,8.14,13.4,13.43,27.94,16.98,43.18,1.73,7.45,3.43,14.95,7.19,21.74,2.06,3.72,4.72,6.79,9.01,8.13,2.47.77,3.52-.02,3.53-2.54.02-4.24-1.3-8.19-2.59-12.13-5.14-15.64-12.77-30.19-19.72-45.04-5.14-10.98-10.93-21.72-13.84-33.61-2.06-8.42-7.98-13.18-18.83-13.2ZM186.53,215.03c-9.09,3.17-17.52,5.92-24.96,10.91-2.79,1.87-5.09,4.11-6.06,7.48-2.72,9.47-9.08,15.41-18.13,18.86-6.08,2.32-12.46,3.29-18.77,4.6-3.66.76-7.23,1.83-10.35,3.98-2.82,1.94-3.28,4.67-1.39,7.02.62.78.96,1.31,1.93.21,4.86-5.51,11.52-7.27,18.37-8.5,4.19-.76,8.45-1.04,12.4-2.92,10.43-4.99,17.35-13.46,22.97-23.16,1.67-2.88,3.91-4.92,6.83-6.36,8.51-4.2,17.6-6.01,26.99-5.91,9.64.09,18.96-.74,27.75-5.2,3.59-1.82,7.47-3.1,11.31-4.36,14.77-4.85,29.62-9.56,45.3-10.23,7.73-.33,15.22-1.57,22.54-3.92,5.01-1.61,9.95-3.44,14.99-5.95-1.45-.6-2.41-.37-3.36-.19-13.22,2.48-26.44,5.01-39.67,7.42-25.29,4.6-50.6,9.12-75.89,13.69-1.31.24-2.43.3-3.69-.55-6.62-4.47-14.05-5.84-21.9-5.19-11.38.94-21.06,6.06-30.2,12.44.45.54.86,1.01,1.66.8,7.59-2.01,15.23-3.76,22.4-7.18,6.35-3.03,12.46-1.74,18.94,2.2ZM335.36,178.89c-2.35-.42-4.69-.87-7.04-1.27-37.49-6.45-75.19-10.61-113.31-9.43-23.03.72-45.75,3.95-68.03,9.91-6.77,1.81-13.32,4.34-18.92,8.76-2.01,1.59-3.92,3.34-4.38,6.27,5.87-.37,11.03-2.11,16.1-4.65,23.26-11.64,48.24-15.4,73.9-14.87,26.14.54,52.16,3.67,78.3,4.57,14.43.5,28.85,1.2,43.38.72ZM331.4,72.35c-.71.18-1.01.33-1.3.31-.76-.06-1.52-.17-2.27-.31-8.08-1.45-15.47-4.67-22.4-8.98-5.96-3.7-11.86-7.87-18.69-9.38-7.76-1.72-13.2-6.39-18.57-11.52-3.55-3.4-7.14-6.78-10.21-10.66-.42-.53-.82-1.61-1.75-.97-.97.67.14,1.36.39,1.88,3.95,8.23,10.02,14.8,16.5,21.06,1.69,1.63,3.6,2.69,5.81,3.52,9.62,3.61,19.68,6.52,28.03,12.62,5.34,3.9,11.04,6.03,17.22,7.54,18.36,4.49,30.44,15.91,36.81,33.54,3.84,10.62,10.17,19.53,18.29,27.75-.27-2.46-.28-2.45-1.92-5.14-6.72-11.03-12.92-22.34-18.19-34.13-4.99-11.18-10.06-21.73-21.08-29.17-8.23-5.56-14.41-14.27-20.34-22.57-3.68-5.16-13.9-9.3-21.35-7.61,18.73,3.96,26.12,18.66,35.03,32.2ZM410.64,149.72c.67-1.79-.39-3.07-.94-4.41-7.59-18.53-15.1-37.13-20.36-56.46-5.83-21.4-16.83-39.76-31-56.47-1.03-1.21-2.14-1.99-3.78-2.3-8.18-1.52-16.25-3.54-24.18-6.05-1.39-.44-2.69-.45-4.83-.4,5.75,2.79,10.33,6.28,15.61,7.34,10.83,2.17,17.3,9.35,22.96,17.86.97,1.46,2.09,2.81,3.08,4.26,2.12,3.1,4.06,6.29,5.63,10.6-1.89-1-3.11-1.63-4.32-2.28-7.23-3.88-14.5-7.68-21.66-11.7-2.19-1.23-2.71-.18-3.04,1.55-.38,2.01.19,3.74,2.04,4.78,1.71.96,3.49,1.82,5.28,2.64,6.66,3.04,13.45,5.8,19.7,9.7,3.67,2.29,6.2,5.33,7.68,9.46,5.7,15.97,11.6,31.86,17.3,47.83,3.24,9.07,7.86,17.22,14.86,24.07ZM513.75,228.11c-3.03-4.57-4.77-4.95-9.1-2.19-3.37,2.15-6.12,4.93-8.49,8.11-5.63,7.55-8.34,16.28-10.28,25.32q-1.3,6.08,3.91,9.74c1.7,1.19,3.43,2.36,5.2,3.44,6.38,3.89,12.91,7.45,20.49,8.38,5.6.69,10.42-1.57,12.29-5.6,2.05-4.43.67-11.62-2.93-15.09-.81,2.17-1.73,4.26-3,6.19-4.83,7.32-13.62,7.56-18.87.48-1.39-1.87-2.34-3.95-2.8-6.24-1.75-8.53-.07-16.53,3.85-24.13,2.09-4.05,4.81-7.53,9.74-8.42ZM265.94,103.84c8.65,6.49,17.76,11.41,28.85,11.1,4.59-.13,9.19-.08,13.78-.32,1.97-.1,3.55.33,5.21,1.39,15.22,9.72,30.93,18.6,47.25,26.36,1.3.62,2.6,1.66,4.65,1.4-20.45-17.1-88.29-54.76-97.77-54.03,9.27,4.87,18.28,9.28,27.11,15.14-10.24,2.01-19.65.08-29.08-1.05ZM373.86,175.44c13.99,2.52,22.39,11.93,29.43,23.62,6.23-10.95,12.3-21.56,20.37-31.44-17.68-1.18-34,1.55-49.8,7.82ZM455.08,265.41c5.2-.88,9.89-1.79,14.62-2.42,1.77-.24,2.4-.99,2.66-2.6.69-4.21,1.79-8.33,3.1-12.39,4.38-13.47,11.21-25.21,23.37-33.25,1.76-1.17,4.24-.87,5.86-2.94-8.15-2.01-14.22,1.46-19.68,6.32-9.72,8.64-16.19,19.68-22.26,30.96-2.78,5.15-5.4,10.39-7.67,16.32ZM611.89,305.03c0,2.62.17,5.25-.03,7.85-1.09,14-10.02,20.9-23.88,18.52-1.61-.28-3.2-.75-4.81-.93-1.34-.15-2.65.22-3.43,1.46-.84,1.34-.17,2.53.63,3.61.52.69,1.11,1.36,1.77,1.92,10.95,9.43,29.61,3.47,32.93-10.56,1.8-7.62.25-14.87-3.16-21.87ZM383.07,296.9c3.48,2.6,7.12,5,10.19,8.08,3.41,3.43,6.63,6.97,7.13,12.14.2,2.11.64,4.48,3.16,4.72,2.44.23,3.45-1.95,4.19-3.94.9-2.39,1.05-4.89.76-7.42-.66-5.66-3.14-10.46-7.4-14.17-7.58-6.61-11.52-6.82-18.03.59ZM615.18,200.97c-.53.1-.84.22-1.14.2-24.1-1.63-48.24-2.26-72.35-3.47-3.11-.16-3.95.78-3.29,3.8.59,2.67,1.8,4.66,5.13,4.16,1.39-.21,2.85.11,4.25-.03,14.11-1.44,28.33-1.29,42.44-2.7,7.79-.78,15.89,1.08,23.36-2.58.44-.21,1.07-.28,1.6.62ZM642.33,307.99c-1.05-.12-2.59.37-4.03,1.22-3.02,1.79-3.16,2.67-.73,5.14,1.45,1.48,2.97,2.89,4.45,4.35,3.81,3.75,7.72,7.35,8.74,13.07.4,2.25,2.46,2.86,4.69,2.22,4.37-1.26,6.97-6.07,5.47-10.38-1.47-4.22-4.22-7.62-7.54-10.52-2.98-2.61-6.23-4.81-11.05-5.1ZM636.69,156.72c-1.75-.69-2.95-.03-4.15.39-5.45,1.94-10.88,3.92-16.32,5.89-10.88,3.92-21.73,7.9-32.64,11.72-2.21.78-2.62,1.55-.92,3.22.39.38.77.8,1,1.28,1,2.06,1.96,2.43,4.26,1.16,5.21-2.87,10.75-5.13,16.11-7.73,10.8-5.23,21.57-10.52,32.65-15.94ZM482.93,295.01c.37-1.72-.34-2.57-2.2-2.66-2.4-.12-4.8-.33-7.18-.62-1.81-.22-2.5.44-2.65,2.28-.38,4.71-1.45,9.32-3.09,13.73-.97,2.62-.2,3.24,2.28,3.23,1.85,0,3.75.15,5.54.57,2.52.6,3.47-.62,4.32-2.72,1.77-4.43,2.63-9.01,2.98-13.81ZM461.75,318.58c.04-4.06.03-4.01-3.89-4.55-4-.55-7.99-1.18-11.98-1.81-3.94-.62-4.35-.29-2.97,3.58,2.54,7.11,8.4,10.56,15.02,13.07,1.36.52,1.74-.39,2.09-1.35,1.05-2.89,1.78-5.84,1.74-8.95ZM466.06,292.64c-9.44,2.41-16.54,7.42-22.17,15.33,5.73.69,10.93,1.31,16.13,1.96,1.19.15,2.09.09,2.52-1.31,1.56-5.11,2.88-10.25,3.53-15.98ZM467.02,329.93c1.4-.2,2.81-.37,4.21-.61,5.33-.92,8.62-4.91,8.68-10.34.02-1.96-.54-2.99-2.78-3-2.72-.02-5.45-.34-8.15-.72-1.83-.26-2.55.13-2.36,2.15.32,3.43-.39,6.79-1.74,9.9-1.2,2.75-.02,2.91,2.15,2.62ZM489.66,312.76c.6-.03,1.86.54,2.72-.22,3.65-3.23,5.41-7.44,5.31-12.23-.07-3.36-3.53-3.29-5.59-4.61-.72-.46-1.63-.63-2.42-1.01-1.51-.75-1.88-.14-1.88,1.34-.02,3.98-.91,7.81-2.2,11.55-1.66,4.81-1.69,4.8,4.06,5.19ZM502.27,302.13c-.69,4.26-2.55,7.73-5.22,11.4,4.42-.43,8.17,1.34,11.9-.44,1.29-.61,1.59-1.17.78-2.43-2.01-3.1-4.29-5.95-7.46-8.54ZM482.53,326.5c3.12-1.3,5.32-2.26,7.56-3.13,2.53-.98,1.5-3.08,1.51-4.78,0-1.94-1.59-1.71-2.88-1.79-.98-.06-1.97-.05-2.95-.14-1.07-.09-1.64.12-1.43,1.41.43,2.65-.29,5.16-1.81,8.43ZM499.99,317.53c-1.94-.06-3.39-.96-4.59.31-.27.28.09,1.74.26,1.76,1.61.18,2.64-.99,4.34-2.07Z" fill="#1a1818" stroke-width="0"/><path d="M188.69,281.85c-2.09,3.82-4.26,7.61-6.26,11.48-1.81,3.51-3.35,7.16-3.65,11.16-.35,4.59.94,6.82,5.01,8.44,2.41.96,2.85,2.66,2.02,4.73-1.3,3.24-2.93,6.35-4.27,9.58-.69,1.65-2.14,3.55-.63,5.21,1.65,1.82,3.91.8,5.86.19,2.25-.7,3.98-2.21,5.53-3.97.75-.85,1.07-2.17,2.69-2.59.27,6.6-.8,12.86-2.67,19.03-.67,2.2-1.35,4.4-1.84,6.64-.93,4.2-.08,5.34,4.17,5.88q5.15.66,4.4,5.87c-.22,1.52-.49,3.03-.6,4.56-.69,9.06,3.52,14.02,12.62,14.94,7.53.77,14.83-.63,22.13-2.15,1.6-.33,3.24-.62,4.86-.67,2.54-.07,3.48,1.33,2.18,3.5-1.22,2.04-2.95,3.79-4.4,5.7-.64.85-1.59,1.67-1.14,2.9.5,1.36,1.83,1.47,3.01,1.6,3.65.39,6.86-1.03,10.03-2.59,1.57-.77,3.13-1.57,4.77-2.18.9-.34,1.97-.42,2.74.47.84.97.24,1.92-.29,2.69-1.5,2.15-3.09,4.24-4.67,6.34-1.13,1.49-2.27,2.99-2.8,4.8-.67,2.31-.03,3.97,2.53,4.74,5.85,1.74,11.18,1,16.1-2.78,2.41-1.85,4.87-3.74,7.83-4.67,2.64-.83,3.78.18,3.4,2.89-.19,1.38-.36,2.76-.66,4.12-.72,3.24.12,4.13,3.45,3.4,3.3-.72,5.97-2.62,8.53-4.71,1.14-.93,2.27-2.53,3.94-1.66,1.57.81,1.13,2.68,1.26,4.17.04.43.04.88,0,1.31-.48,5.34,1.68,6.34,6.93,4.61,3.95-1.3,6.34-4.45,8.18-8.1,1.19-2.37,1.82-5.75,5.06-5.85,3.21-.1,4.28,3.11,5.43,5.49,1.46,3.04,3.63,3.43,6.49,2.59,3.83-1.13,7.24-3.1,10.48-5.33,7.43-5.11,13.91-11.3,19.92-18.02,1.34-1.5,1.29-2.29-.16-3.68-5.44-5.24-10.72-10.66-15.08-16.86-1.24-1.76-2.37-1.36-3.89-.85-12.26,4.13-24.7,7.48-37.58,9.09-3.21.4-5.24-.42-7.08-3.15-4.62-6.88-8.66-13.96-10.02-22.26-.27-1.66-1.07-2.05-2.6-2.21-20.55-2.11-34.43-13.84-40.03-33.79-1.13-4.02-2.68-7.87-4.47-11.63-2.06-4.33-.3-10.38,4.07-12.39,2.97-1.36,4.97-3.5,6.69-6.06,5.96-8.94,10.14-18.59,11.93-29.25,4.05-24.09,29.21-42.95,53.41-39.97,2.08.26,2.66-.8,3.5-2.09,6.01-9.29,13.31-17.29,22.7-23.34,10.92-7.03,22.12-7.59,33.68-1.98,9.65,4.68,17.91,10.98,23,20.73,7.86,15.06,3.16,35.29-11.25,44.28-11.46,7.15-23.8,6.67-36.03.7-1.82,8.7-5.57,16.7-12.19,23.22-6.98,6.89-15.81,10-24.99,12.38-11.04,2.86-22.32,3.98-33.83,4.46,3.01,1.12,6.04,2.17,9.01,3.37,4.99,2.02,9.68,4.55,13.69,8.26,1.98,1.83,2.46,3.18.57,5.65-6.53,8.53-10.58,18.1-10.68,29.05-.1,10.77,4.26,19.71,11.33,27.55.9,1,1.88,1.31,3.19,1.2,11.71-.94,22.77-4.16,33.35-9.2,1.98-.94,1.22-2.16.84-3.52-1.93-7-3.43-14.06-2.16-21.38.87-4.98,2.83-9.31,8.03-12.61-.95,3.94-1.8,7.1-2.46,10.29-5.01,24.37,12.88,50.24,37.39,53.69,11.03,1.55,21.23-1.8,30.93-6.82,2.42-1.25,4.87-2.46,6.98-4.26.81-.69,1.87-1.12,3.04-.91,5.18.95,10.27,2.18,14.88,4.89,5.23,3.07,7.55,7.49,7.21,13.64-1.07,19.55-7.09,37.51-16.82,54.37-4.88,8.45-11.11,15.99-16.27,24.25-5.4,8.65-10.54,17.42-13.88,27.11-.78,2.27-2.72,3.05-4.51,4.02-5.86,3.14-12.49,2.34-17.09-1.93-.94-.87-1.65-1.43-.43-2.87,6.65-7.83,8.36-17.13,7.58-27.06-.58-7.43-1.1-14.85-.35-22.29,1.23-12.3,6.63-22.5,15.68-30.96-7.34,2.1-13.9,5.43-19.03,11.19-5.81,6.52-12.31,12.14-20.45,15.6-12.09,5.14-24.57,5.17-37.75,3.07,12.14-13.33,23.33-26.72,33.02-41.3.09-.13-.05-.4-.09-.68-1.07-.07-1.34.91-1.86,1.47-8.54,8.98-17.19,17.85-28.27,23.77-4.32,2.31-8.85,4.27-13.36,6.2-2.02.86-4,.9-5.28-1.6-1.11-2.17-2.7-.62-3.78.08-2.48,1.6-4.61,3.67-6.75,5.71-2.25,2.14-4.77,4.22-8.15,2.92-3.52-1.36-4.4-4.58-4.78-7.98-.15-1.35.37-3.18-1.33-3.72-1.47-.47-2.61.84-3.68,1.75-.83.71-1.59,1.5-2.34,2.3-4.83,5.14-12.59,5.21-16.51-.6-3.63-5.37-8.62-8.93-13.6-12.57-16.88-12.29-35.17-21.64-55.8-25.9-.64-.13-1.27-.33-1.9-.51-5.39-1.51-5.45-1.61-5.47-7.18,0-1.31-.04-2.63-.17-3.93-.52-4.99-2.34-6.62-7.4-6.83-1.63-.07-3.29-.18-4.89-.47-5.9-1.1-7.66-4.27-5.62-9.97.4-1.13.94-2.22,1.3-3.36,1.28-4.06.59-6.05-2.85-8.45-5.54-3.87-6.16-5.85-4.03-12.37.93-2.85,2.56-5.3,4.12-7.81,2.94-4.76,2.43-6.66-2.4-9.26-2-1.08-2.67-2.51-1.7-4.58.6-1.28,1.18-2.62,2.02-3.74,9.42-12.59,20.84-23.27,32.36-33.85h-.03Z" fill="#ddc663" stroke-width="0"/><path d="M269.02,475.37c.04,8.29-4.45,14.04-12.04,17.4-20.87,9.23-40.86,20-58.31,34.98-2.66,2.29-5.03,4.88-7.14,7.69-6.8,9.04-17.4,9.55-25.01,1.22-1.91-2.09-2.11-3.64.09-6.09,7.56-8.4,14.25-17.36,17.77-28.42,3.72-11.68,15.58-18.86,28.1-17.61,2.17.22,4.33.61,6.49.94.93.14,1.76.13,2.18-.91.47-1.14-.04-1.86-.97-2.44-1.33-.83-2.81-1.34-4.32-1.49-11.28-1.07-20.83-6.45-30.11-12.29-8.99-5.67-17.49-11.99-23.88-20.73-2.27-3.11-3.84-6.59-3.88-10.25-.08-6.84-.51-13.71,1.07-20.53,1.99-8.62,10.08-15.17,19.59-12.91,8.69,2.07,17.3,4.12,25.8,7.05,13.97,4.81,26.52,11.74,37.79,21.11,9.28,7.71,16.69,16.99,22.36,27.66,2.6,4.9,4.38,10.02,4.41,15.64Z" fill="#ddc663" stroke-width="0"/><path d="M301.88,296.92c6.35-1.66,11.86-3.3,17.15-5.62,14.07-6.15,26.01-14.81,33.61-28.54.8-1.44,1.7-1.6,3.17-1.4,11.43,1.51,22.17-.69,32.14-6.41,2.08-1.2,2.46-.62,2.76,1.41.6,3.96,1.45,7.88,2.15,11.82.2,1.13.71,1.64,1.87,1.87,15.25,2.97,26.95,11,34.8,24.5.16.27.39.5.73.91,3.47-4.44,6.86-8.71,11.32-11.97,11.49-8.39,23.84-10.89,37.44-5.79,7.29,2.74,14.28,6.06,21.09,9.84,7.38,4.09,15.15,6.34,23.63,3.83,1.1-.33,1.82,0,2.63.72,9.74,8.59,21.48,11.9,34.11,12.6,2.69.15,4.81.49,5.49,3.41.7,3.01-.47,5.38-2.89,7.12-1.55,1.12-3.41,1.48-5.3,1.48-6.02-.02-12.05.13-18.05-.18-7.7-.39-13.83-4.49-19.55-9.22-4.13-3.41-8.1-7.03-12.2-10.48-14.6-12.29-31.14-13.94-48.73-8.4-9.25,2.91-16.31,9.04-22.07,16.77-1.39,1.87-1.68,3.57-.98,5.77,6.26,19.55,21.27,27.87,42.23,23.91,7.02-1.33,13.79-3.66,19.83-7.41,9.1-5.64,19-7.04,29.31-6.42,8.28.49,16.53,1.54,25.06,2.37-1.87,2.43-4.41,3.06-6.9,3.67-6.12,1.48-12.38,1.78-18.6,1.38-14.11-.92-26.74,3.26-37.86,11.45-14.97,11.03-34.38,6.9-45.9-1.84-6.05-4.59-8.52-11.19-10.91-17.92-2.93-8.25-5.84-16.49-10.13-24.18-6.66-11.96-17.35-18.21-30.12-21.42-11.2-2.82-22.5-4.9-33.97-1.2-9.32,3-17.22,8.09-22.78,16.23-1.81,2.65-4.13,4.1-6.89,5.12-3.88,1.44-7.79,2.82-12.07,2.36-2.02-.22-3.62,1.04-4.88,2.26-2.02,1.94-3.69,1.57-5.64.08-1.07-.82-2.32-1.42-4.1-2.48Z" fill="#ddc663" stroke-width="0"/><path d="M500.43,182.77c10.85.03,16.77,4.78,18.83,13.2,2.91,11.89,8.7,22.63,13.84,33.61,6.95,14.85,14.58,29.4,19.72,45.04,1.29,3.94,2.62,7.89,2.59,12.13-.01,2.53-1.06,3.31-3.53,2.54-4.29-1.34-6.95-4.41-9.01-8.13-3.76-6.79-5.46-14.29-7.19-21.74-3.55-15.23-8.83-29.77-16.98-43.18-7.89-12.99-15-16.03-29.96-12.92-3.1.64-6.2,1.43-9.18,2.49-2.06.73-2.84-.11-3.36-1.77-1.13-3.6-.02-6.79,2.31-9.45,6.34-7.21,14.22-11.45,21.92-11.83Z" fill="#ddc663" stroke-width="0"/><path d="M186.53,215.03c-6.48-3.94-12.58-5.24-18.94-2.2-7.17,3.42-14.81,5.16-22.4,7.18-.8.21-1.21-.26-1.66-.8,9.15-6.38,18.82-11.5,30.2-12.44,7.85-.65,15.28.72,21.9,5.19,1.26.85,2.38.79,3.69.55,25.3-4.57,50.6-9.09,75.89-13.69,13.24-2.41,26.45-4.94,39.67-7.42.95-.18,1.91-.41,3.36.19-5.05,2.51-9.98,4.34-14.99,5.95-7.32,2.35-14.81,3.59-22.54,3.92-15.68.67-30.53,5.38-45.3,10.23-3.84,1.26-7.72,2.54-11.31,4.36-8.79,4.46-18.11,5.29-27.75,5.2-9.39-.09-18.48,1.71-26.99,5.91-2.92,1.44-5.15,3.48-6.83,6.36-5.63,9.7-12.54,18.17-22.97,23.16-3.94,1.89-8.21,2.16-12.4,2.92-6.85,1.24-13.51,2.99-18.37,8.5-.97,1.1-1.31.57-1.93-.21-1.89-2.35-1.43-5.08,1.39-7.02,3.12-2.15,6.69-3.22,10.35-3.98,6.31-1.31,12.68-2.28,18.77-4.6,9.05-3.45,15.41-9.39,18.13-18.86.97-3.36,3.27-5.61,6.06-7.48,7.44-4.99,15.87-7.74,24.96-10.91Z" fill="#fcfcfc" stroke-width="0"/><path d="M335.36,178.89c-14.53.48-28.95-.22-43.38-.72-26.14-.9-52.16-4.03-78.3-4.57-25.65-.53-50.64,3.24-73.9,14.87-5.08,2.54-10.23,4.28-16.1,4.65.46-2.93,2.37-4.68,4.38-6.27,5.6-4.42,12.14-6.95,18.92-8.76,22.28-5.97,45-9.2,68.03-9.91,38.12-1.19,75.81,2.98,113.31,9.43,2.35.4,4.69.85,7.04,1.27Z" fill="#fcfcfc" stroke-width="0"/><path d="M338.13,169.15c-33.15-2.89-65.73-8.66-97.18-19.8-26.42-9.36-53.47-11.78-81.2-8.61-9.21,1.05-18.6.71-27.45,4.23-5.22,2.07-10.15,4.59-14.8,7.72-4.55,3.06-8.62,6.7-12.54,10.69-.07-2.74.53-4.37,2.95-7.23,6.1-7.2,14.32-11.02,22.98-13.99,17.99-6.19,36.64-7.18,55.44-6.52,7.43.26,14.85.92,22.28,1.39.71.04,1.49.35,2.41-.63-3.63-2.21-7.48-3.94-10.65-6.69-3.15-2.73-5.65-5.87-6.96-9.82.61-.45,1.09-.31,1.35,0,7.36,8.99,17.64,13.49,27.92,17.82,20.83,8.79,42.65,14.46,64.49,20,16.87,4.28,33.92,7.73,51.07,10.63-.21.25-.47.5-.09.82ZM211.94,137.16c.41-.22.4-.36.08-.46-.26-.08-.52-.17-.78-.25,0,.24-.06.62.04.68.21.11.51.03.65.03Z" fill="#fcfcfc" stroke-width="0"/><path d="M331.4,72.35c-8.91-13.54-16.3-28.25-35.03-32.2,7.45-1.69,17.67,2.45,21.35,7.61,5.93,8.31,12.11,17.02,20.34,22.57,11.02,7.44,16.08,17.98,21.08,29.17,5.27,11.8,11.47,23.11,18.19,34.13,1.64,2.69,1.65,2.68,1.92,5.14-8.12-8.22-14.45-17.14-18.29-27.75-6.37-17.62-18.45-29.05-36.81-33.54-6.18-1.51-11.88-3.64-17.22-7.54-8.35-6.09-18.41-9.01-28.03-12.62-2.21-.83-4.12-1.89-5.81-3.52-6.48-6.26-12.55-12.84-16.5-21.06-.25-.53-1.36-1.21-.39-1.88.93-.64,1.33.44,1.75.97,3.07,3.87,6.65,7.25,10.21,10.66,5.37,5.14,10.81,9.81,18.57,11.52,6.83,1.51,12.74,5.67,18.69,9.38,6.93,4.31,14.32,7.53,22.4,8.98.75.13,1.51.25,2.27.31.29.02.6-.13,1.3-.31Z" fill="#fcfcfc" stroke-width="0"/><path d="M410.64,149.72c-7-6.85-11.62-15-14.86-24.07-5.7-15.97-11.6-31.86-17.3-47.83-1.47-4.13-4.01-7.16-7.68-9.46-6.24-3.9-13.03-6.66-19.7-9.7-1.79-.82-3.56-1.68-5.28-2.64-1.85-1.04-2.43-2.76-2.04-4.78.33-1.73.85-2.77,3.04-1.55,7.16,4.01,14.43,7.82,21.66,11.7,1.21.65,2.43,1.28,4.32,2.28-1.57-4.31-3.51-7.5-5.63-10.6-.99-1.44-2.11-2.8-3.08-4.26-5.66-8.51-12.13-15.68-22.96-17.86-5.28-1.06-9.86-4.55-15.61-7.34,2.15-.05,3.45-.04,4.83.4,7.94,2.51,16,4.53,24.18,6.05,1.64.3,2.75,1.08,3.78,2.3,14.18,16.72,25.17,35.07,31,56.47,5.26,19.33,12.77,37.93,20.36,56.46.55,1.35,1.61,2.63.94,4.41Z" fill="#fcfcfc" stroke-width="0"/><path d="M513.75,228.11c-4.93.89-7.65,4.37-9.74,8.42-3.92,7.6-5.6,15.61-3.85,24.13.47,2.28,1.42,4.37,2.8,6.24,5.25,7.08,14.04,6.84,18.87-.48,1.27-1.93,2.19-4.02,3-6.19,3.6,3.47,4.98,10.66,2.93,15.09-1.87,4.04-6.69,6.3-12.29,5.6-7.57-.93-14.11-4.5-20.49-8.38-1.77-1.08-3.5-2.25-5.2-3.44q-5.22-3.65-3.91-9.74c1.94-9.05,4.65-17.78,10.28-25.32,2.38-3.18,5.12-5.97,8.49-8.11,4.33-2.76,6.07-2.39,9.1,2.19Z" fill="#fcfcfc" stroke-width="0"/><path d="M265.94,103.84c9.43,1.13,18.84,3.06,29.08,1.05-8.83-5.86-17.83-10.27-27.11-15.14,9.47-.73,77.32,36.93,97.77,54.03-2.05.27-3.35-.78-4.65-1.4-16.32-7.76-32.02-16.64-47.25-26.36-1.66-1.06-3.24-1.49-5.21-1.39-4.59.24-9.19.19-13.78.32-11.08.31-20.2-4.61-28.85-11.1Z" fill="#fcfcfc" stroke-width="0"/><path d="M373.86,175.44c15.8-6.27,32.11-9.01,49.8-7.82-8.07,9.88-14.14,20.49-20.37,31.44-7.04-11.69-15.43-21.1-29.43-23.62Z" fill="#ddc663" stroke-width="0"/><path d="M455.08,265.41c2.27-5.93,4.89-11.17,7.67-16.32,6.08-11.28,12.55-22.32,22.26-30.96,5.46-4.86,11.53-8.33,19.68-6.32-1.62,2.07-4.1,1.78-5.86,2.94-12.16,8.04-18.99,19.78-23.37,33.25-1.32,4.05-2.41,8.18-3.1,12.39-.26,1.62-.9,2.37-2.66,2.6-4.72.63-9.41,1.54-14.62,2.42Z" fill="#ddc663" stroke-width="0"/><path d="M611.89,305.03c3.41,7,4.96,14.26,3.16,21.87-3.31,14.02-21.98,19.98-32.93,10.56-.66-.56-1.25-1.23-1.77-1.92-.8-1.08-1.47-2.26-.63-3.61.78-1.24,2.09-1.61,3.43-1.46,1.62.18,3.2.65,4.81.93,13.87,2.38,22.8-4.51,23.88-18.52.2-2.6.03-5.23.03-7.85Z" fill="#fcfcfc" stroke-width="0"/><path d="M383.07,296.9c6.51-7.41,10.45-7.2,18.03-.59,4.26,3.71,6.74,8.51,7.4,14.17.29,2.52.14,5.02-.76,7.42-.75,1.99-1.75,4.17-4.19,3.94-2.52-.24-2.96-2.61-3.16-4.72-.49-5.17-3.71-8.71-7.13-12.14-3.07-3.09-6.71-5.49-10.19-8.08Z" fill="#fcfcfc" stroke-width="0"/><path d="M615.18,200.97c-.53-.9-1.16-.84-1.6-.62-7.47,3.67-15.58,1.81-23.36,2.58-14.1,1.41-28.32,1.26-42.44,2.7-1.4.14-2.86-.18-4.25.03-3.33.51-4.53-1.49-5.13-4.16-.67-3.02.17-3.96,3.29-3.8,24.12,1.21,48.26,1.84,72.35,3.47.3.02.61-.1,1.14-.2Z" fill="#ddc663" stroke-width="0"/><path d="M642.33,307.99c4.83.28,8.07,2.49,11.05,5.1,3.32,2.9,6.07,6.3,7.54,10.52,1.5,4.31-1.1,9.12-5.47,10.38-2.23.64-4.29.04-4.69-2.22-1.02-5.72-4.93-9.32-8.74-13.07-1.48-1.45-3-2.87-4.45-4.35-2.43-2.48-2.29-3.35.73-5.14,1.44-.86,2.98-1.34,4.03-1.22Z" fill="#fcfcfc" stroke-width="0"/><path d="M636.69,156.72c-11.09,5.42-21.86,10.71-32.65,15.94-5.36,2.6-10.9,4.86-16.11,7.73-2.31,1.27-3.27.9-4.26-1.16-.23-.48-.62-.91-1-1.28-1.71-1.67-1.3-2.44.92-3.22,10.91-3.82,21.77-7.8,32.64-11.72,5.44-1.96,10.88-3.95,16.32-5.89,1.2-.43,2.39-1.09,4.15-.39Z" fill="#ddc663" stroke-width="0"/><path d="M482.93,295.01c-.35,4.8-1.21,9.38-2.98,13.81-.84,2.1-1.79,3.32-4.32,2.72-1.79-.42-3.69-.58-5.54-.57-2.48,0-3.25-.61-2.28-3.23,1.63-4.41,2.71-9.02,3.09-13.73.15-1.84.84-2.5,2.65-2.28,2.38.29,4.78.49,7.18.62,1.86.1,2.57.95,2.2,2.66Z" fill="#fcfcfc" stroke-width="0"/><path d="M461.75,318.58c.05,3.1-.69,6.06-1.74,8.95-.35.96-.73,1.87-2.09,1.35-6.62-2.51-12.48-5.97-15.02-13.07-1.38-3.87-.97-4.2,2.97-3.58,3.99.63,7.98,1.26,11.98,1.81,3.93.54,3.94.49,3.9,4.55Z" fill="#fcfcfc" stroke-width="0"/><path d="M466.06,292.64c-.64,5.73-1.97,10.87-3.53,15.98-.43,1.41-1.33,1.46-2.52,1.31-5.2-.65-10.4-1.27-16.13-1.96,5.64-7.92,12.73-12.93,22.17-15.33Z" fill="#fcfcfc" stroke-width="0"/><path d="M467.02,329.93c-2.17.29-3.34.12-2.15-2.62,1.36-3.11,2.06-6.47,1.74-9.9-.19-2.02.53-2.41,2.36-2.15,2.7.38,5.43.7,8.15.72,2.24.02,2.8,1.04,2.78,3-.06,5.43-3.35,9.41-8.68,10.34-1.4.24-2.8.41-4.21.61Z" fill="#fcfcfc" stroke-width="0"/><path d="M489.66,312.76c-5.75-.38-5.72-.37-4.06-5.19,1.29-3.74,2.18-7.57,2.2-11.55,0-1.48.37-2.08,1.88-1.34.78.39,1.69.55,2.42,1.01,2.05,1.32,5.51,1.25,5.59,4.61.1,4.8-1.66,9.01-5.31,12.23-.86.76-2.12.19-2.72.22Z" fill="#fcfcfc" stroke-width="0"/><path d="M502.27,302.13c3.16,2.59,5.44,5.44,7.46,8.54.82,1.26.51,1.81-.78,2.43-3.74,1.78-7.48,0-11.9.44,2.67-3.67,4.54-7.14,5.22-11.4Z" fill="#fcfcfc" stroke-width="0"/><path d="M482.53,326.5c1.52-3.27,2.24-5.78,1.81-8.43-.21-1.29.36-1.51,1.43-1.41.98.09,1.97.08,2.95.14,1.28.08,2.88-.16,2.88,1.79,0,1.7,1.02,3.8-1.51,4.78-2.23.87-4.43,1.83-7.56,3.13Z" fill="#fcfcfc" stroke-width="0"/><path d="M499.99,317.53c-1.7,1.08-2.72,2.26-4.34,2.07-.17-.02-.53-1.48-.26-1.76,1.21-1.28,2.66-.37,4.59-.31Z" fill="#fcfcfc" stroke-width="0"/><path d="M338.13,169.15c-.38-.32-.12-.57.09-.82,1.85-.15,3.56.39,5.27.99-1.82.42-3.61.4-5.36-.17Z" fill="#ddc663" stroke-width="0"/><polygon points="188.72 281.86 188.8 281.8 188.69 281.85 188.72 281.86" fill="#ddc663" stroke-width="0"/><path d="M211.94,137.16c-.14,0-.44.08-.65-.03-.1-.05-.03-.44-.04-.68.26.08.52.16.78.25.31.1.32.24-.08.46Z" fill="#1a1818" stroke-width="0"/></g></svg>