<?xml version="1.0" encoding="UTF-8"?><svg id="b" xmlns="http://www.w3.org/2000/svg" viewBox="0 0 707.82 462.57"><g id="c"><path d="M217.39,104.15c.93,4,1.89,7.99,2.8,11.99,2.23,9.81,4.42,19.56,9.83,28.34,6.46,10.49,14.7,19.24,24.31,26.8,6.77,5.33,14.16,9.67,21.94,13.35.74.35,1.59.48,2.39.71l.19-.55c-2.77-1.52-5.59-2.96-8.3-4.58-13.56-8.06-24.51-18.66-31.52-32.96-2.58-5.26-4.48-10.78-4.99-16.67-.38-4.32.44-8.06,4.36-10.91,10.06-7.3,20.15-14.59,29.82-22.39,14.69-11.85,29.07-24.1,43.53-36.24,10.4-8.73,20.46-17.89,31.13-26.27,13.8-10.84,28.74-19.95,45.08-26.57,17.04-6.9,34.65-9.81,52.99-7.35,10.17,1.36,19.91,4.4,29.56,7.75,11.13,3.87,22.56,4.98,34.27,3.93,5.2-.47,10.45-.35,15.63-.87,10.76-1.07,21.52-2.28,32.25-3.64,7.15-.91,14.26-2.17,21.38-3.29,1.61-.25,2.24.25,1.59,1.88-1.55,3.92-3.25,7.78-4.6,11.77-1.44,4.27-1.99,8.69-.88,13.16.9,3.6,6.15,6.76,9.61,5.5,1.08-.39,2.21-1.97,2.42-3.17,1.02-5.82-.24-11.45-1.98-16.99-1.19-3.78-2.37-7.57-3.66-11.72.84.14,1.38.09,1.76.32,11.67,7.09,22.63,15.04,31.08,25.97,8.75,11.3,14.25,23.82,13.89,38.39-.29,11.62-4.16,22.17-10.81,31.57-9.36,13.23-20.14,25.18-33.54,34.51-4.55,3.17-9.44,5.73-14.84,7.21-.65.18-1.46.74-1.69,1.33-3.19,7.99-9.5,13.26-15.95,18.39-1.7,1.35-2,2.74-1.21,4.6,4.99,11.8,6.1,24.5,8.73,36.86,1.01,4.77-.59,7.21-4.2,9.34-.72.43-1.35,1.03-2.07,1.46-3.25,1.96-4.84,4.44-4.69,8.6.22,6.43-4.79,11.53-11.5,12.62-1.43.23-2.06.75-2.05,2.16.06,5.72-2.47,9.74-7.83,11.93-2.31.95-3.05,2.62-3.2,5.2-.71,12.08-2.82,23.94-7.05,35.33-3.29,8.89-7.56,17.25-15.72,22.71-3.2,2.14-6.9,3.6-10.49,5.11-1.73.72-2.39,1.43-1.97,3.38,1.06,4.95,1.97,9.94,2.81,14.94.25,1.49,1.06,1.66,2.25,1.59,5.29-.3,10.57-.55,15.86-.87,8.96-.54,17.92-1.04,26.87-1.68,9.33-.67,18.66-1.45,27.98-2.24,11.09-.93,22.17-1.9,33.25-2.9,4.59-.41,9.21-1.64,13.73-1.3,7.87.59,15.18-2.49,22.91-2.57,7.74-.09,15.49-1.17,23.21-.93,9.8.31,19.58,1.43,29.36,2.37,8.1.77,16.17,1.76,24.26,2.69,1.49.17,2.95.45,1.64,2.54-6.38,10.12-12.45,20.46-19.25,30.29-3.05,4.4-7.48,7.87-11.42,11.62-1.33,1.27-1.85,1.98-.44,3.68,6.13,7.43,7.75,16.29,6.99,25.55-.52,6.33-1.42,12.7-2.96,18.85-3.8,15.27-13.25,25.38-28.54,29.93-11.03,3.28-22.18,2.68-33.36,1.47-7.39-.8-14.77-1.82-22.12-2.91-3.41-.51-6.73-1.59-10.13-2.12-3.63-.56-7.31-.87-10.98-1.13-12.63-.89-25.26-1.78-37.9-2.52-7.73-.46-15.48-.66-23.23-.98-12.88-.53-25.76-1.1-38.64-1.58-8.06-.3-16.11-.53-24.17-.67-9.14-.16-18.29-.17-27.43-.28-9.22-.11-18.43-.31-27.65-.37-24.81-.18-49.63-.5-74.44-.38-17.42.08-34.85.73-52.26,1.23-10.89.31-21.78.8-32.67,1.27-8.51.37-17.01.78-25.51,1.27-11.72.68-23.43,1.46-35.14,2.2-8.5.53-17.01,1.02-25.51,1.61-9.79.69-19.58,1.47-29.37,2.21-7.19.54-14.39,1.02-21.58,1.64-11.93,1.03-23.85,2.13-35.77,3.22-11.31,1.04-22.63,2.05-33.93,3.17-6.57.65-13.11,1.5-19.67,2.22-1.64.18-3.31.17-5.65.29,1.53-2.88,2.73-5.22,3.99-7.52,5.14-9.34,10.21-18.72,15.47-27.99,4.06-7.16,9.5-13.18,16.06-18.15,1.76-1.33,2.72-2.8,3.05-5.08,1.16-7.98,2.56-15.92,3.96-23.86.28-1.61-.14-2.47-1.5-3.4-4.93-3.36-10.11-6.5-14.49-10.48-3.69-3.36-6.71-7.57-9.49-11.77-6.94-10.49-13.58-21.19-20.32-31.81-.43-.68-.69-1.47-1.29-2.78,2.15.15,3.78.23,5.4.39,12.3,1.22,24.6,2.47,36.9,3.69,4.05.4,8.11.68,12.14,1.18,1.95.24,3.39-.25,4.7-1.71,10.76-12.03,23.08-22.26,36.57-31.08,10.94-7.16,22.41-13.37,34.89-17.41,7.42-2.41,15.03-4.25,22.54-6.36.55-.15,1.07-.43,1.6-.65-.03-.3-.05-.6-.08-.9-2.19.11-4.42.02-6.58.35-9.86,1.53-19.7,3.15-29.26,6.15-11.06,3.48-21.47,8.03-30.58,15.48-8.79,7.19-18.01,13.84-27.06,20.71-.83.63-1.74,1.15-2.61,1.71l-.46-.42c1.56-2,3.08-4.03,4.69-5.98,8.61-10.41,17.07-20.95,25.93-31.14,7.17-8.26,15.53-15.35,24.54-21.53,7.07-4.85,14.3-9.58,21.91-13.49,8.36-4.3,17.05-8.07,25.91-11.22,10.18-3.61,20.57-6.79,31.08-9.22,9.54-2.2,19.36-3.19,29.07-4.61,2.23-.33,2.55-.71,1.39-2.7-4.27-7.29-6.88-15.18-8.7-23.4-2.49-11.24-3.49-22.63-3.3-34.08.18-10.66,1.07-21.3,3.08-31.82.96-5.05,1.58-10.16,2.4-15.24.13-.78.47-1.53.72-2.3.19,0,.38.01.57.02ZM362.13,306.91c-.2.08-.4.16-.6.24-.38-.7-.77-1.39-1.15-2.09-.4-.74-.77-1.49-1.19-2.22-8.05-13.97-18.3-26.11-30.48-36.66-11.02-9.55-23.07-17.6-35.94-24.37-11.63-6.12-23.76-11.12-36.42-14.69-8.93-2.52-17.91-4.85-26.92-7.09-3.03-.75-6.26-1.59-9.3-1.31-7.02.63-14.01,1.74-20.95,2.99-12.11,2.18-23.99,5.35-35.47,9.76-9.37,3.6-18.77,7.29-27.67,11.88-15.85,8.18-29.95,18.92-42.46,31.67-.7.71-1.24,1.57-1.86,2.36.84.2,1.38.12,1.81-.14,9.25-5.5,19.32-8.84,29.67-11.55,15.85-4.15,32.03-5.72,48.32-5.95,8.96-.13,17.96.46,26.9,1.23,12.93,1.11,25.53,3.87,36.95,10.38,7.69,4.38,14.42,9.93,18.79,17.85,1.61,2.93,2.76,6.04,2.59,9.56-.82-.52-1.43-1.15-1.97-1.84-3.81-4.93-8.59-8.75-13.84-12.01-13.69-8.51-28.9-12.38-44.69-13.82-16.29-1.49-32.51-.63-48.51,3.35-14.18,3.53-27.62,8.78-40.3,15.99-17.9,10.17-33.72,22.92-47.33,38.39-1.2,1.36-2.46,1.75-4.26,1.54-6.71-.76-13.44-1.31-20.16-1.99-7.64-.77-15.27-1.61-22.91-2.37-.91-.09-1.86.11-3.14.2.61,1.06.95,1.73,1.35,2.36,4.19,6.6,8.58,13.09,12.55,19.83,6.56,11.15,15.6,19.43,27.4,24.69,1.7.76,1.71,1.89,1.46,3.37-1.66,9.84-3.33,19.69-4.91,29.54-.38,2.39-1.26,4.17-3.38,5.64-6.24,4.34-11.54,9.7-15.35,16.3-4.83,8.37-9.42,16.88-14.09,25.34-.3.55-.38,1.21-.64,2.06,1.19,0,2.03.07,2.84-.01,11.23-1.11,22.45-2.32,33.69-3.35,19.18-1.76,38.37-3.46,57.57-5.07,12.77-1.08,25.55-2.02,38.34-2.92,11.48-.81,22.96-1.5,34.44-2.22,9.34-.58,18.68-1.18,28.02-1.67,11.11-.58,22.23-1.09,33.35-1.56,11.5-.48,23.01-.94,34.52-1.26,15.2-.42,30.4-.93,45.6-.97,26.82-.06,53.64.18,80.46.35,6.45.04,12.89.27,19.34.4,20.34.43,40.69.83,61.03,1.3,8.98.21,17.96.48,26.94.88,10.58.47,21.15,1.07,31.72,1.66,8.81.5,17.62.99,26.42,1.63,8.57.62,17.05,1.64,25.52,3.36,8.92,1.81,18.06,2.65,27.15,3.58,9.88,1.01,19.77,1.32,29.43-1.87,11.19-3.7,18.81-11.01,22.54-22.19,2.8-8.37,3.87-17.02,3.79-25.84-.08-8.65-3.16-15.86-10-21.31-1.24-.99-1.57-1.85-.06-2.85.51-.34.98-.74,1.46-1.12,6.42-5.05,12.6-10.35,17.09-17.28,3.96-6.12,7.75-12.34,11.6-18.52,1.41-2.26,1.13-2.85-1.59-3.17-6.33-.74-12.66-1.46-19-2.13-14.89-1.58-29.76-2.98-44.78-1.4-9.5,1-18.87,2.37-28.02,5.17-.95.29-1.97.7-2.26-.94-.07-.39-.94-.95-1.41-.92-4.06.3-8.1.71-12.15,1.1-11.31,1.09-22.6,2.3-33.92,3.25-10.7.9-21.42,1.58-32.14,2.25-12.25.76-24.51,1.45-36.77,2.09-3.95.2-3.97.08-4.73-3.87-1.36-7.16-2.75-14.32-4.03-21.49-.28-1.57-.96-2.18-2.55-2.3-6.5-.51-12.99-1.18-19.49-1.69-1.59-.12-2.28-.62-2.4-2.32-.39-5.65-.9-11.3-1.48-16.94-.14-1.36.29-1.91,1.53-2.33,6.9-2.35,12.03-6.89,15.7-13.11.95-1.61,1.67-3.36,2.49-5.03.5.16.75.18.92.31,7.42,5.55,9.08,18.73,3.21,25.98-3.62,4.46-8.76,5.97-14.12,6.97-2.02.37-4.03.8-6.04,1.2.02.24.04.48.05.72.43.25.84.61,1.31.74,3.91,1.07,7.79,2.38,11.77,3.08,12.8,2.26,23.59-1.24,31.55-11.86,4.77-6.37,7.38-13.79,9.32-21.39,2.47-9.69,3.87-19.57,4.13-29.59.03-1,.89-2.25,1.74-2.89,2.14-1.61,4.53-2.88,6.74-4.4.7-.48,1.43-1.26,1.63-2.03.55-2.07.9-4.21,1.19-6.34.59-4.41.59-4.1,5.08-4.71,6.31-.87,8.59-3.31,7.99-9.38-.07-.69-.14-1.37-.22-2.06-.26-2.28.57-3.93,2.55-5.22,2.5-1.64,4.8-3.57,7.24-5.31,1.24-.88,1.51-1.89,1.21-3.38-.8-3.91-1.31-7.88-2.13-11.78-1.13-5.4-2.26-10.8-3.7-16.12-1.1-4.07-2.64-8.02-4.04-12-.49-1.4-.32-2.44.9-3.44,3-2.45,5.92-5.01,8.87-7.53,4.71-4.03,7.91-9.1,10.33-14.75.32-.75,1.32-1.59,2.1-1.7,5.8-.87,10.73-3.66,15.47-6.83,8.36-5.59,15.34-12.74,21.94-20.24,6.6-7.5,12.82-15.29,16.5-24.77,5.44-14.02,4.55-27.73-2.36-40.95-5.52-10.58-13.53-19.13-23.03-26.3-.51-.38-1.09-.67-2.24-1.35.17,1.58.3,2.5.36,3.43.3,4.35.9,8.7.77,13.03-.1,3.1-1.57,5.91-4.67,7.45-6.16,3.06-15.55-.91-17.98-7.56-1.63-4.44-1.45-8.9-.39-13.39.66-2.81,1.43-5.6,2.24-8.74-1.35,0-2.4-.11-3.42.02-6.54.85-13.08,1.74-19.62,2.63-16.91,2.3-33.88,3.65-50.95,3.62-8.33-.02-16.24-1.98-24.12-4.45-7.76-2.43-15.5-5.06-23.44-6.69-14.51-2.98-28.98-2.19-43.3,1.91-13.49,3.87-25.9,9.98-37.72,17.35-16.21,10.11-30.67,22.47-45.02,35.02-15.19,13.28-30.64,26.28-46.3,39.01-9.94,8.08-20.42,15.48-30.74,23.09-2.01,1.48-3.04,3.15-2.75,5.63.13,1.14.15,2.3.35,3.43,1.73,9.54,6.24,17.78,12.36,25.11,11.97,14.34,27.68,22.78,45.25,28.18.72.22,1.41.56,2.11.84-.02.22-.04.44-.07.65-.68.19-1.36.41-2.05.56-5.75,1.28-11.5,2.58-17.27,3.8-.76.16-1.7.05-2.41-.27-17.14-7.64-32.23-18.06-44.26-32.63-5.01-6.06-9.29-12.57-12.46-19.79-1-2.27-1.96-4.57-3.09-7.23-.3.81-.56,1.21-.59,1.62-.45,5.12-1.08,10.24-1.25,15.37-.35,10.84.26,21.62,2.08,32.34,1.79,10.55,4.85,20.62,10.66,29.67,1.68,2.62,2.99,5.81,6.64,6.61,4.05.89,8.11,1.77,12.08,2.93,9.12,2.66,18.3,5.18,27.25,8.32,11.45,4.02,22.29,9.45,32.66,15.81,10.24,6.28,19.99,13.22,28.65,21.56,10.41,10.02,18.15,21.97,24.39,34.94.99,2.05,1.66,4.25,2.47,6.38ZM471.54,285.69c-1,1.19-1.66,2.27-2.58,3.02-3.44,2.78-6.86,5.61-10.51,8.09-1.73,1.18-1.54,2.45-1.21,3.95.39,1.75,1.82,1.5,2.97,1.18,2.64-.75,5.34-1.42,7.79-2.6,3.95-1.9,6.17-8.29,4.56-12.31-.16-.39-.52-.69-1.02-1.32Z" fill="#fff" stroke-width="0"/><path d="M362.13,306.91c-.82-2.13-1.49-4.33-2.47-6.38-6.24-12.96-13.98-24.92-24.39-34.94-8.66-8.33-18.41-15.27-28.65-21.56-10.37-6.36-21.21-11.79-32.66-15.81-8.95-3.15-18.13-5.66-27.25-8.32-3.97-1.16-8.03-2.04-12.08-2.93-3.65-.8-4.96-3.99-6.64-6.61-5.81-9.05-8.87-19.12-10.66-29.67-1.82-10.72-2.43-21.51-2.08-32.34.17-5.13.8-10.25,1.25-15.37.04-.42.29-.81.59-1.62,1.14,2.66,2.1,4.96,3.09,7.23,3.17,7.22,7.45,13.73,12.46,19.79,12.03,14.57,27.12,24.99,44.26,32.63.71.32,1.65.43,2.41.27,5.77-1.21,11.52-2.51,17.27-3.8.69-.15,1.37-.37,2.05-.56.02-.22.04-.44.07-.65-.7-.28-1.39-.62-2.11-.84-17.58-5.4-33.29-13.84-45.25-28.18-6.12-7.34-10.63-15.57-12.36-25.11-.2-1.13-.22-2.29-.35-3.43-.29-2.48.74-4.15,2.75-5.63,10.31-7.61,20.8-15.01,30.74-23.09,15.66-12.73,31.11-25.73,46.3-39.01,14.35-12.55,28.81-24.91,45.02-35.02,11.82-7.37,24.24-13.48,37.72-17.35,14.32-4.11,28.79-4.89,43.3-1.91,7.94,1.63,15.69,4.27,23.44,6.69,7.88,2.46,15.8,4.43,24.12,4.45,17.07.03,34.04-1.32,50.95-3.62,6.54-.89,13.08-1.78,19.62-2.63,1.02-.13,2.07-.02,3.42-.02-.81,3.14-1.58,5.93-2.24,8.74-1.06,4.49-1.24,8.95.39,13.39,2.43,6.65,11.82,10.62,17.98,7.56,3.1-1.54,4.57-4.35,4.67-7.45.14-4.33-.46-8.69-.77-13.03-.06-.93-.19-1.85-.36-3.43,1.15.69,1.73.97,2.24,1.35,9.5,7.17,17.51,15.72,23.03,26.3,6.9,13.23,7.79,26.94,2.36,40.95-3.68,9.48-9.89,17.27-16.5,24.77-6.6,7.5-13.58,14.65-21.94,20.24-4.73,3.17-9.67,5.96-15.47,6.83-.79.12-1.78.95-2.1,1.7-2.41,5.66-5.62,10.72-10.33,14.75-2.95,2.52-5.86,5.08-8.87,7.53-1.22,1-1.39,2.03-.9,3.44,1.4,3.98,2.94,7.93,4.04,12,1.43,5.32,2.57,10.72,3.7,16.12.81,3.91,1.33,7.87,2.13,11.78.3,1.49.03,2.5-1.21,3.38-2.44,1.74-4.74,3.67-7.24,5.31-1.98,1.29-2.81,2.94-2.55,5.22.08.69.15,1.37.22,2.06.61,6.07-1.68,8.51-7.99,9.38-4.49.62-4.49.31-5.08,4.71-.28,2.13-.64,4.26-1.19,6.34-.21.78-.94,1.55-1.63,2.03-2.21,1.52-4.6,2.79-6.74,4.4-.85.64-1.72,1.89-1.74,2.89-.27,10.03-1.66,19.9-4.13,29.59-1.94,7.6-4.54,15.02-9.32,21.39-7.96,10.62-18.75,14.12-31.55,11.86-3.98-.7-7.86-2.01-11.77-3.08-.47-.13-.87-.49-1.31-.74-.02-.24-.04-.48-.05-.72,2.01-.4,4.02-.82,6.04-1.2,5.37-.99,10.51-2.5,14.12-6.97,5.87-7.25,4.21-20.43-3.21-25.98-.17-.13-.42-.14-.92-.31-.82,1.68-1.54,3.42-2.49,5.03-3.67,6.22-8.8,10.76-15.7,13.11-1.24.42-1.67.96-1.53,2.33.58,5.64,1.08,11.28,1.48,16.94.12,1.69.81,2.19,2.4,2.32,6.5.51,12.99,1.19,19.49,1.69,1.59.12,2.27.73,2.55,2.3,1.29,7.17,2.67,14.33,4.03,21.49.75,3.95.77,4.07,4.73,3.87,12.26-.63,24.52-1.32,36.77-2.09,10.72-.67,21.44-1.35,32.14-2.25,11.32-.95,22.61-2.16,33.92-3.25,4.05-.39,8.1-.8,12.15-1.1.47-.03,1.34.53,1.41.92.29,1.64,1.31,1.23,2.26.94,9.14-2.79,18.52-4.16,28.02-5.17,15.02-1.58,29.89-.18,44.78,1.4,6.34.67,12.67,1.39,19,2.13,2.72.32,3,.91,1.59,3.17-3.85,6.19-7.64,12.41-11.6,18.52-4.49,6.93-10.67,12.23-17.09,17.28-.48.38-.95.78-1.46,1.12-1.51,1-1.18,1.86.06,2.85,6.84,5.45,9.92,12.66,10,21.31.08,8.82-1,17.47-3.79,25.84-3.74,11.18-11.36,18.49-22.54,22.19-9.66,3.19-19.55,2.88-29.43,1.87-9.08-.93-18.22-1.76-27.15-3.58-8.46-1.72-16.95-2.73-25.52-3.36-8.8-.64-17.61-1.13-26.42-1.63-10.57-.6-21.14-1.2-31.72-1.66-8.98-.4-17.96-.67-26.94-.88-20.34-.47-40.69-.87-61.03-1.3-6.45-.14-12.89-.37-19.34-.4-26.82-.16-53.64-.41-80.46-.35-15.2.04-30.4.55-45.6.97-11.51.32-23.01.78-34.52,1.26-11.12.46-22.24.98-33.35,1.56-9.34.49-18.68,1.08-28.02,1.67-11.48.72-22.97,1.41-34.44,2.22-12.78.9-25.57,1.84-38.34,2.92-19.2,1.62-38.39,3.32-57.57,5.07-11.24,1.03-22.46,2.24-33.69,3.35-.82.08-1.65.01-2.84.01.26-.85.34-1.51.64-2.06,4.67-8.46,9.25-16.97,14.09-25.34,3.81-6.61,9.12-11.97,15.35-16.3,2.12-1.47,3-3.25,3.38-5.64,1.59-9.86,3.25-19.7,4.91-29.54.25-1.48.24-2.62-1.46-3.37-11.8-5.25-20.84-13.54-27.4-24.69-3.96-6.74-8.36-13.22-12.55-19.83-.4-.63-.75-1.3-1.35-2.36,1.28-.09,2.22-.29,3.14-.2,7.64.76,15.27,1.6,22.91,2.37,6.72.68,13.45,1.24,20.16,1.99,1.8.2,3.06-.18,4.26-1.54,13.61-15.47,29.43-28.22,47.33-38.39,12.69-7.2,26.13-12.46,40.3-15.99,16-3.98,32.22-4.84,48.51-3.35,15.79,1.44,31.01,5.32,44.69,13.82,5.25,3.26,10.03,7.08,13.84,12.01.53.69,1.15,1.32,1.97,1.84.17-3.52-.97-6.64-2.59-9.56-4.37-7.92-11.1-13.47-18.79-17.85-11.42-6.51-24.02-9.27-36.95-10.38-8.94-.77-17.94-1.35-26.9-1.23-16.29.23-32.47,1.8-48.32,5.95-10.35,2.71-20.42,6.05-29.67,11.55-.43.26-.98.34-1.81.14.62-.79,1.16-1.65,1.86-2.36,12.52-12.75,26.61-23.49,42.46-31.67,8.9-4.59,18.3-8.29,27.67-11.88,11.48-4.41,23.36-7.58,35.47-9.76,6.94-1.25,13.94-2.36,20.95-2.99,3.04-.27,6.26.56,9.3,1.31,9,2.24,17.99,4.57,26.92,7.09,12.66,3.57,24.79,8.58,36.42,14.69,12.87,6.77,24.92,14.82,35.94,24.37,12.18,10.55,22.42,22.69,30.48,36.66.42.73.79,1.48,1.19,2.22.38.7.77,1.39,1.15,2.09.2-.08.4-.16.6-.24ZM290.37,423.75c-.22-.08-.45-.16-.67-.24-.14-.34-.34-.67-.42-1.02-1.05-4.7-3.35-8.67-6.76-12.08-.88-.88-1.42-2.15-1.99-3.29-.79-1.57-1.33-3.28-2.23-4.79-.84-1.41-.52-2,.81-2.87,2.68-1.75,5.58-3.45,7.62-5.83,5.71-6.66,7.09-14.86,6.7-23.31-.19-4.25-2.53-7.6-6.31-9.9-5.43-3.29-11.49-4.42-17.61-4.84-10.79-.73-21.62-.94-32.44-1.41-6.13-.26-12.26-.65-18.39-.9-5.45-.23-10.9-.34-16.34-.54-1.65-.06-2.25.5-2.18,2.3.26,6.27,2.44,11.48,7.6,15.31.48.36.76,1.46.63,2.1-2.39,11.42-4.83,22.83-7.35,34.22-.27,1.21-.85,2.6-1.74,3.4-5.09,4.54-8.19,10.25-10.39,16.59-1.09,3.13-.59,3.79,2.82,3.49,3.74-.33,7.49-.57,11.24-.76,10.27-.51,20.54-.98,30.82-1.42,1.52-.06,2.12-.66,2.31-2.18.57-4.44-.54-8.49-2.26-12.51-.53-1.24-.57-2.78-.47-4.16.09-1.35.72-2.66.96-4.02.27-1.48,1.09-2.1,2.54-2.09,2.08.02,4.16.12,6.22-.04,1.99-.15,3.35.76,3.51,2.51.32,3.62.49,7.3.24,10.92-.2,2.88-1.14,5.7-1.7,8.56-.42,2.12.09,2.68,2.24,2.55,3.83-.23,7.65-.55,11.48-.64,18.27-.47,36.54-.91,54.81-1.29,7.99-.16,15.98-.14,23.98-.22,1.13-.01,2.56.16,2.29-1.68-.62-4.34-1.33-8.65-4.39-12.15-.62-.71-1.39-2.09-1.1-2.62.83-1.51,1.53-3.43,3.9-3.41,6.23.06,12.45-.01,18.68.07.72,0,1.97.59,2.01,1.01.08.73-.37,1.87-.98,2.27-4.96,3.32-7.85,8.09-9.91,13.51-1.05,2.75-.93,2.96,2.03,3.01,22.5.34,45.01.64,67.51,1.03,16.28.28,32.56.66,48.83,1.04,1.58.04,2.13-.61,1.34-1.91-3.72-6.12-7.49-12.22-14.37-15.4-1.39-.64-1.84-1.54-1.49-3.13,2.06-9.3,3.86-18.65,6.04-27.92,1.71-7.25-.12-5.73,7.13-5.92.08,0,.18-.03.23,0,.69.55,1.74.99,1.98,1.7.6,1.81.81,3.74,1.22,5.61.35,1.63,1.24,1.97,2.69,1.14,8.54-4.89,15.49-11.5,21.13-19.52.51-.72,1.15-1.35,2.01-2.36,1.34,4.03,3.67,6.88,6.93,8.73,2.93,1.66,3.1,3.76,2.43,6.72-2.2,9.73-4.11,19.52-6.25,29.27-.35,1.57-.85,3.78-1.99,4.4-6.95,3.83-10.76,10.09-14,16.9-.76,1.6-.25,2.27,1.46,2.33,2.45.09,4.9.27,7.35.4,10.57.57,21.15,1.12,31.72,1.69,10.04.54,20.08,1.08,30.12,1.67,5.82.34,11.64.75,17.45,1.22,1.71.14,2.27-.56,2.02-2.12-.39-2.49-.64-5.03-1.25-7.47-2.05-8.33-6.09-15.51-12.68-21.16-1.16-1-1.97-.96-2.77.37-1.19,1.97-2.32,3.99-3.7,5.82-.62.83-1.77,1.78-2.67,1.78-5.6-.03-11.2-.28-16.8-.56-.57-.03-1.59-.81-1.56-1.17.17-1.98.47-3.97,1.02-5.87.13-.45,1.38-.82,2.12-.82,5.14,0,10.29.09,15.43.2,1.59.03,2.34-.65,2.62-2.23,1.03-5.82,2.16-11.62,3.24-17.43.32-1.69-.37-2.43-2.11-2.37-3.99.15-7.98.28-11.97.33-5.86.07-5.24.49-4.52-5.75.23-1.98,1.25-2.81,3.39-2.8,4.6.03,9.21-.15,13.81-.42,4.02-.23,4.03-.33,5.23,3.59.27.88.44,1.79.57,2.69.46,3.2,1.09,3.46,3.68,1.51,9.6-7.22,16.72-16.39,21.63-27.31.52-1.15.83-2.39,1.24-3.59-1.4-.14-2.81-.48-4.19-.38-9.34.68-18.66,1.55-28,2.18-13.85.94-27.71,1.8-41.58,2.58-9.5.53-19,.92-28.5,1.3-11.58.47-23.16.99-34.74,1.26-16.43.39-32.87.56-49.31.87-2.61.05-5.22.21-7.8.51-.53.06-1.43,1.04-1.36,1.47,1.6,10.24,6.34,18.47,15.55,23.76,1.33.76,2.28.51,3.04-.84.94-1.67,1.83-3.4,3-4.9.67-.85,1.84-1.73,2.85-1.83,3.2-.3,6.44-.24,9.66-.32,1.61-.04,2,.84,1.68,2.24-.34,1.5-.72,2.99-1.05,4.48-1.91,8.7-3.77,17.4-5.78,26.08-.23.98-1.18,1.87-1.97,2.62-2.66,2.51-5.48,4.87-8.07,7.44-1.14,1.13-1.89,2.66-3.06,4.37-.56-1.1-1-1.79-1.28-2.55-1.55-4.24-4.09-7.66-7.89-10.2-.92-.61-1.7-1.82-2.01-2.91-1.61-5.61-3.06-11.26-4.52-16.9-2.51-9.66-5.09-19.3-7.41-29-.62-2.59-1.86-3.18-4.29-3.16-20.9.14-41.81.18-62.71.23-2.38,0-4.76-.15-7.14-.16-.77,0-1.54.24-2.7.43,1.3,1.98,2.42,3.52,3.36,5.16,3.42,5.92,8.92,8.91,15.15,10.86,2.72.85,2.88,1.14,1.25,3.48-5.31,7.62-10.53,15.29-15.92,22.86-1.94,2.72-3.86,5.67-6.45,7.65-4.31,3.3-7.87,7.03-10.36,11.83-.86,1.66-1.81,3.27-2.72,4.9ZM474.74,146.12c.42-.66.47-.87.58-.9.66-.2,1.32-.43,1.99-.51,8.03-.98,15.86-2.79,23.51-5.45,1.1-.38,2.73-.29,3.72.28,4.13,2.33,8.12,4.89,12.13,7.43,3.74,2.37,7.28,5.11,11.18,7.15,4.43,2.32,6.22,1.76,8.97-1.31,1.24-1.39,1.07-2.37-.38-3.37-2.65-1.83-5.22-3.79-7.9-5.56-7.05-4.65-14.56-8.41-23.04-9.33-4.29-.47-8.72,0-13.06.34-11.4.89-22.8,1.84-34.18,2.98-5.42.54-10.8,1.51-16.17,2.43-.73.13-1.78,1.08-1.88,1.77-.54,3.64-1.01,7.31-1.15,10.98-.52,13.69,1.36,27.11,4.78,40.34.46,1.78.72,3.6,1.08,5.4-5.7-7.01-9.18-15-12.11-23.41-.47.92-.77,1.83-.76,2.73.02,1.45.21,2.9.4,4.35.77,5.61,1.58,11.22,2.34,16.84.08.56-.07,1.14-.11,1.71-.18,0-.36.02-.54.02-1.63-4.25-3.26-8.5-5-13.03-2.72,4.72-3.6,23.74-1.41,26.09,1.56-2.26,3.12-4.53,4.68-6.8.21.14.42.27.63.41-1.14,7.19-3.81,14.28-1.57,21.72.87-2.92,1.75-5.83,2.62-8.75.52,3.4.82,6.68.98,9.96.26,5.25,2.07,9.9,6.13,13.18,3.85,3.12,8.15,5.69,12.32,8.4,1.88,1.22,2.48.85,2.75-1.44,1.38-11.96,7.04-21.6,16.07-29.33,6.25-5.34,13.28-9.12,21.66-9.79,3.82-.3,7.65-.52,11.47-.75,1.16-.07,2.19-.16,2.04-1.77-.37-3.88-2.09-7.71-.04-11.69-.18-.09-.35-.18-.53-.27-2.03.9-4.05,1.8-6.08,2.69-.15-.2-.31-.39-.46-.59,1.29-1.34,2.46-2.81,3.89-3.97,2.11-1.71,4.19-3.92,6.66-4.62,3.86-1.09,8.03-1.12,12.08-1.55.65-.07,1.33.17,2.63.35-.99.65-1.36.89-1.72,1.13-3.35,2.28-6.75,4.51-10.03,6.88-1.76,1.27-2.17,3.22-2.08,5.35.09,2.11.88,2.98,3.15,2.82,6.02-.42,11.74.78,17.11,3.63.81.43,2.19.44,3.01.04,1.85-.9,3.59-2.08,5.21-3.35.58-.46,1.09-1.57.97-2.27-2.17-12.73-5-25.29-10.29-37.17-.78-1.75-1.57-2.06-3.07-.86-3.11,2.5-6.27,4.95-9.42,7.39-.68.53-1.45.95-2.17,1.43-.15-.12-.29-.25-.44-.37,2.09-4.16,4.19-8.32,6.36-12.62-7.2-.88-13.94-1.7-20.89-2.55,1.9,4.54,6.56,3.9,10.64,5.61-1.39.66-2.08,1.2-2.83,1.29-2.58.33-5.19.52-7.78.72-.45.04-.91-.1-1.37-.15-4.74-.57-6.13-1.9-6.68-6.6-.52-4.41-1.75-8.32-6.48-9.95-1.6-.55-3.2-1.08-4.81-1.58-2.37-.73-4.75-1.43-7.34-2.21ZM573.62,430.52c7.48,1.82,14.19,3.73,21.03,5.03,7.07,1.34,14.25,2.2,21.41,3.04,9.24,1.08,18.53,1.79,27.72-.41,7.28-1.74,13.03-5.55,16.49-12.46,3.09-6.19,3.91-12.91,4.52-19.63.35-3.86.45-7.93-.4-11.67-1.56-6.83-6.85-10.43-13.24-12.12-7.71-2.04-15.55-3.57-23.33-5.32-2.77-.62-5.55-1.22-8.32-1.86-1.94-.45-2.57-1.69-2.23-3.61.58-3.22,2.21-5.04,5.92-5.44,4.41-.48,8.88-.49,13.32-.68,1.91-.08,2.75.92,2.89,2.78.18,2.37.48,4.74.78,7.1.17,1.36.87,1.85,2.26,1.26,12.85-5.45,23.5-13.82,32.28-24.56,1.84-2.25,3.11-4.96,4.66-7.48-.69-.38-.88-.57-1.08-.58-8.78-.84-17.55-2.12-26.34-2.35-8.49-.23-17.01.57-25.51,1.01-8.41.43-16.61,2.02-24.44,5.19-7.65,3.1-13.4,8.21-16.55,16.02-2.21,5.5-2.99,11.27-3.14,17.12-.18,7.07,2.89,12.42,9.59,15.04,4.27,1.67,8.78,2.71,13.21,3.94,7.76,2.16,15.56,4.21,23.3,6.42,2.69.77,3.45,2.42,2.81,5.15-.78,3.32-2.57,4.84-6.33,4.76-5.14-.11-10.27-.53-15.4-.77-1.39-.07-2.07-.7-2.23-2.09-.25-2.13-.7-4.25-.86-6.39-.15-1.94-.99-2.05-2.58-1.49-10.83,3.81-19.41,10.66-26.48,19.55-1.21,1.53-2.19,3.25-3.72,5.53ZM108.76,435.53c-1.83-6.11-4.33-11.34-9.33-14.84-2.87-2.01-5.94-3.81-9.11-5.29-2.57-1.2-2.06-2.96-1.78-4.98.27-2,1.7-1.61,2.95-1.65,3.15-.1,6.3-.17,9.44-.28,8.37-.31,16.74-.7,24.74-3.52,6.31-2.22,11.42-5.85,14.31-12.16,3.18-6.96,4.45-14.36,4.89-21.89.74-12.71-6.28-19.04-17.33-21.69-8.09-1.94-16.48-2.72-24.78-3.65-11.06-1.24-22.16-2.09-33.24-3.19-11.91-1.18-23.81-2.47-35.73-3.65-1.44-.14-2.91.12-4.37.19.66,1.34,1.22,2.74,1.99,4.02,3.66,6.11,7.85,11.87,14.09,15.53,4.66,2.74,9.72,4.79,14.58,7.22,1.21.6,3.24.33,2.82,2.81-2.54,15.07-4.98,30.15-7.55,45.21-.18,1.07-.94,2.41-1.84,2.94-9.52,5.71-16.51,13.64-21.17,23.66-.33.72-.44,1.54-.65,2.32.8.11,1.61.38,2.39.3,10.46-1.08,20.9-2.3,31.36-3.29,11.92-1.13,23.86-2.04,35.79-3.1,2.48-.22,4.93-.66,7.52-1.02ZM148.75,349.19c-1.29-.16-2.23.06-2.38,1.68-.53,5.97.86,11.3,5.25,15.57,1.24,1.21,1.6,2.43,1.27,4.11-2.3,11.82-4.49,23.66-6.82,35.48-.39,1.95-.45,4.14-2.6,5.39-8.02,4.66-12.51,11.97-15.23,20.58-.56,1.76-.18,2.32,1.78,2.16,9.62-.8,19.25-1.53,28.89-2.17,8.11-.54,16.23-.96,24.35-1.32,2.11-.09,2.98-.8,2.99-3.01.02-5.9-2.16-10.81-6.48-14.69-1.6-1.43-2.04-2.82-1.6-4.83,2.52-11.7,4.96-23.42,7.5-35.11.19-.87.83-1.91,1.57-2.34,6.18-3.61,9.4-9.02,10.36-16,.22-1.61-.24-2.34-1.77-2.5-1.07-.11-2.14-.22-3.21-.26-4.22-.18-8.44-.25-12.65-.53-10.41-.69-20.8-1.46-31.21-2.2ZM491.92,235.99c.04-.21.08-.41.11-.62.83-.09,1.67-.31,2.49-.24,6.64.56,13.27,1.16,19.91,1.79,2.85.27,2.15-1.88,2.44-3.39.32-1.75-.71-2.12-2.13-2.15-5.21-.14-10.42-.49-15.62-.38-4.52.1-8.99.78-13.18,2.75-1.68.79-2.08,1.9-1.68,3.5,1.11,4.46,1.89,9.04,3.49,13.31,1.23,3.29,3.13,6.52,5.44,9.17,2.85,3.27,6.04,2.75,8.73-.65.33-.42.74-.84.9-1.32,1.29-3.99,2.57-7.97,3.71-12,.12-.43-.58-1.33-1.11-1.67-2.72-1.71-5.52-3.3-8.29-4.94-1.74-1.04-3.47-2.1-5.2-3.16ZM217.14,326.39c-1.11-.76-2.01-1.86-3.05-2-3.11-.41-6.26-.54-9.4-.57-.72,0-2,.71-2.06,1.2-.12,1.01.11,2.68.76,3.02,1.51.8,1.6,1.86,1.53,3.22-.09,1.53-.03,3.08-.23,4.6-.08.6-.64,1.53-1.09,1.6-1.93.32-2.04,1.66-1.93,3.09.13,1.7,1.34,1.99,2.8,2.02,2.76.04,5.53.09,8.29.29,2.01.15,2.78-.9,2.57-2.58-.12-.93-1-1.76-1.57-2.71,2.55-2.64,4.34-2.09,5.44.66-1.92.23-2.55,1.48-2.32,3.23.25,1.92,1.88,1.82,3.19,1.93,3.29.28,6.59.52,9.88.55.73,0,1.86-.74,2.13-1.41.45-1.11.23-2.18-1.1-3.1-2.35-1.64-4.48-3.63-6.54-5.63-.31-.3,0-1.92.42-2.14,1.48-.74,3.1-1.47,4.72-1.58,1.89-.13,2.87-.68,2.97-2.63.11-2.11-1.54-2.12-2.82-2.24-3.2-.32-6.43-.39-9.64-.68-1.71-.15-2.97.07-2.92,1.86ZM303.88,327.98c0-.07,0-.14,0-.22-3.83,0-7.67-.07-11.5.06-.68.02-1.8.78-1.9,1.34-.21,1.13-.84,2.87,1.03,3.25,1.47.3,1.63,1.08,1.6,2.26-.05,1.53.15,3.1-.09,4.6-.14.87-.75,1.94-1.47,2.38-1.61.97-1.33,2.42-1.04,3.65.14.57,1.42,1.2,2.22,1.24,2.99.14,5.99.09,8.98.04,1.24-.02,2.75.27,2.93-1.72.16-1.79-.44-2.77-2.37-2.85-.42-.02-.81-.68-1.21-1.04.5-.25.99-.7,1.49-.72,2.3-.08,4.61.01,6.91-.05,1.86-.05,2.59.76,2.63,2.62.05,2.74,1.12,3.71,3.78,3.78,1.15.03,2.3.04,3.45,0,2.2-.07,3.21-1.84,2.12-3.77-.78-1.38-1.8-2.64-2.47-4.07-.31-.65-.36-1.8.03-2.33,1.21-1.69,1.4-3.52.58-5.21-.96-1.98-2.54-3.36-5.09-3.26-3.53.13-7.06.03-10.59.03ZM110.48,330.21c-.03-.24-.05-.49-.08-.73.65-.18,1.31-.55,1.94-.5,2.29.18,4.6.35,6.83.86.73.17,1.64,1.32,1.75,2.11.54,4.04.75,4.34,4.74,4.62.61.04,1.23,0,1.84.07,1.31.17,2.49.09,3.02-1.4.46-1.29.12-2.18-.9-3.24-.99-1.02-1.6-2.57-1.93-3.99-.14-.6.91-1.43,1.34-2.2,1.82-3.29-.16-7.51-3.5-7.92-7.53-.92-15.11-1.49-22.68-2.04-.8-.06-2.13.81-2.41,1.55-.27.73.43,1.86.8,2.78.41,1.04,1.16,2,1.34,3.07.21,1.18-.1,2.44-.09,3.67,0,1.39-.22,2.37-1.79,3.04-.83.36-1.4,1.87-1.57,2.95-.06.4,1.32,1.39,2.13,1.49,3.34.43,6.72.63,10.08.89,1.44.11,2.04-.65,2.17-2.06.12-1.32-.01-2.29-1.59-2.48-.49-.06-.94-.35-1.41-.53ZM433.18,339.9c.02-.26.03-.52.05-.78,2.76-.15,5.52-.3,8.28-.47,2.14-.13,3.04.98,3.25,2.99.28,2.74,1.03,3.36,3.85,3.4,1,.02,2,.01,3,0,2.5-.02,3-.55,2.51-3.04-.15-.74-.78-1.39-1.2-2.08-.79-1.28-1.79-2.48-2.27-3.87-.2-.59,1.02-1.57,1.01-2.35-.04-1.82-.01-3.85-.8-5.39-1.24-2.42-3.89-2.03-6.19-1.98-6.68.14-13.35.28-20.03.42-1.22.03-2.34.2-2.45,1.79-.09,1.35.14,2.28,1.72,2.76.73.22,1.45,1.46,1.62,2.34.28,1.49.09,3.06.12,4.6.03,1.25-.29,2.06-1.6,2.7-.73.36-1.27,1.8-1.24,2.74.02.55,1.29,1.48,2.03,1.52,3.3.16,6.61.06,9.91.07,1.67,0,2.3-.93,2.36-2.48.06-1.5-.62-2.29-2.12-2.45-.61-.07-1.2-.31-1.8-.47ZM411.51,338.89c.19-1.58.28-2.71.48-3.82.09-.47.38-1.25.66-1.29,3.12-.41,2.16-2.8,2.32-4.63.13-1.57-.64-2.22-2.19-2.2-7.75.11-15.5.15-23.25.33-.68.02-1.89.89-1.89,1.37,0,1.06.32,2.46,1.05,3.11,1.25,1.12,2.68,7.75,1.54,8.95-.2.21-.5.39-.78.46-1.64.4-1.96,1.58-1.75,3.01.24,1.63,1.51,1.78,2.79,1.75,3.98-.11,7.96-.31,11.95-.39,3.45-.07,6.91-.04,10.36,0,2.04.02,2.6-.87,2.42-2.88-.21-2.4-.84-4.06-3.72-3.74ZM360.42,193.91c-3.59,1.26-6.63,3.76-10.51,3.69,1.09-1,2.28-1.78,3.45-2.6,4.59-3.21,8.58-6.97,10.68-12.33.38-.97.41-2.07.6-3.12l-.58-.31c-14.43,13.11-31.45,20.54-50.97,23.2,14.28,7.35,42.28,2.23,47.33-8.53ZM146.31,319.43c-7.28-.5-9.18.98-10.16,7.32-.22,1.43-.28,2.9-.38,4.35-.21,3.07,2.55,6.47,5.57,6.73,4.89.42,9.78.82,14.67,1.1,4.85.29,7.32-1.96,7.73-6.83.14-1.68.29-3.36.44-5.04.26-2.9-2.49-6.27-5.43-6.55-4.42-.42-8.85-.77-12.46-1.09ZM187.87,341.35c4.64.31,4.79.43,7.24-2.22.9-.98,1.21-2.65,1.39-4.06.05-.39-1.34-1.41-2.03-1.36-1.76.11-3.74-1.23-5.31.82-.59.77-1.74,1.39-2.71,1.54-1.41.22-2.9-.08-4.36-.12-5.06-.12-5.69-.85-5.1-5.94.03-.23.08-.46.09-.68.08-1.79,1.12-2.36,2.77-2.27,2.45.15,4.91.2,7.35.42.69.06,1.79.43,1.93.88.96,3.29,3.77,2.27,5.91,2.61,1.63.26,2.33-.85,2.29-2.43-.06-2.22-3.07-5.47-5.3-5.64-5.12-.38-10.25-.76-15.37-1.04-4.17-.23-6.92,2.17-7.37,6.34-.19,1.83-.29,3.67-.34,5.51-.09,3.5,2.6,6.41,6.1,6.68,4.28.32,8.55.65,12.83.97ZM361.46,332.79c.57-.24.77-.39.98-.41,1.76-.15,2.36-1.18,2.21-2.83-.15-1.61-1.26-1.98-2.59-1.99-3.22-.03-6.45-.12-9.66.05-.74.04-1.95.96-2.01,1.58-.11.95.4,2.12.98,2.97.72,1.07,2,1.77,2.64,2.87,1.74,2.96,3.37,5.99,4.85,9.09.82,1.72,1.95,2.42,3.78,2.23.68-.07,1.4-.11,2.07,0,4.92.85,7.54-1.42,9.41-5.9,1.33-3.18,2.26-6.84,5.53-9.04.6-.4.55-2.14.34-3.18-.09-.45-1.29-.95-2.01-.98-2.99-.11-5.98-.02-8.98-.05-1.44-.01-1.99.7-2.19,2.07-.34,2.31,1.11,3.05,3.26,3.53-1.17,2.39-2.2,4.58-3.37,6.69-.11.21-1.46.13-1.65-.17-1.25-2.08-2.35-4.25-3.58-6.55ZM416.36,206.61c-1,.31-1.48.35-1.83.59-6.17,4.2-11.05.01-11.6-5.28-.33-3.17.03-6.42.07-9.63,0-.68,0-1.36,0-2.73-.77,1-1.08,1.41-1.39,1.81-3.02,3.87-5.77,7.99-9.15,11.51-2.52,2.63-2.48,5.22-1.65,8.2.31,1.1.9,2.12,1.29,3.2.49,1.37,1.34,2.17,2.86,2.23,5.98.24,11.96.54,17.94.73.52.02,1.43-.53,1.53-.96.7-3.03,1.24-6.11,1.93-9.67ZM248.15,339.54c-1.22.22-1.96.14-2.36.47-.78.64-1.9,1.51-1.9,2.28,0,.77,1.14,2.11,1.89,2.2,3.72.45,7.48.59,11.23.81,1.46.09,2.57-.41,2.84-2.04.29-1.72-.67-2.29-2.16-2.58-1.4-.27-2.32-1.24-.99-2.36,2.91-2.45,6.1-4.55,9.05-6.95.73-.6,1.29-1.83,1.29-2.76,0-.55-1.23-1.48-1.99-1.56-2.66-.3-5.37-.19-8.03-.48-1.76-.2-2.54.49-2.53,2.06.01,1.06.42,2.12.79,3.83-.88.28-2.28,1.23-3.33.94-1.85-.52-1.84-2.05-1.12-3.86.76-1.93-.38-3.45-2.34-3.57-2.83-.16-5.68-.17-8.52-.3-1.53-.07-2.19.63-2.43,2.11-.23,1.45.29,2.1,1.64,2.52.76.23,1.49.79,2.06,1.38,1.77,1.8,3.48,3.67,5.18,5.54.53.59.95,1.27,1.73,2.33ZM409.08,182.17c-.27.49-.53,1.04-.86,1.54-3,4.52-4.26,9.49-3.62,14.87.1.86.92,1.63,1.41,2.44.24-.79.59-1.57.71-2.39.48-3.23.55-6.57,1.44-9.68.93-3.27,2.88-6.14,6.13-7.7.58-.28,1.45.03,2.19.07-.27.93-.35,2-.88,2.74-.44.62-1.5.76-2.13,1.29-.4.34-.71,1.02-.69,1.54.01.28.78.7,1.24.76,1.45.17,2.91.14,4.36.3,3.85.42,6.13-2.34,8.29-4.64.79-.84-.21-3.38-.43-5.14-.08-.61-.26-1.2-.42-1.79-.83-3.06-1.67-6.12-2.5-9.17-.96,3.14-.99,3.01-3.72,2.17-1.19-.37-3.3-.29-3.88.46-1.2,1.53.83,2,1.77,2.73,1.22.94,1.24,2.19-.14,2.89-.67.34-1.77.53-2.36.21-1.81-.99-3.46-2.26-5.23-3.47-5.33,4.2-6.07,4.23-.67,9.99ZM555.54,66.93c3.28-.96,3.75-.74,5.11,2.35,1,2.26,4.38,3.26,6.42,1.9,1.82-1.22,3.3-.95,4.51.82.27.39.54.77.89,1.26q.89-1.93-1.01-6.6c.94.49,1.61.84,2.27,1.19,1.67-2.94.85-9.43-1.52-12.43-2.52-3.2-5.92-3.75-9.61-1.85-5.28,2.72-5.58,8.18-7.35,12.85-.03.09.14.25.3.52ZM334.24,346.58s0,.05,0,.07c2.07-.1,4.14-.23,6.21-.3,1.25-.04,2.56.11,2.73-1.67.15-1.59.03-2.97-2.06-3.11-.4-.03-1.12-.39-1.13-.62-.12-2.58-.16-5.17-.12-7.76,0-.22.7-.58,1.11-.63,1.93-.2,2.09-1.49,1.97-3-.13-1.61-1.25-2.05-2.58-2-3.22.11-6.45.22-9.64.57-.66.07-1.67,1.21-1.69,1.87-.02.8.73,2.17,1.37,2.32,1.58.37,1.98,1.15,1.91,2.58-.06,1.46.18,2.95-.08,4.37-.16.87-.84,2.03-1.58,2.32-1.7.69-1.83,1.88-1.73,3.34.12,1.67,1.4,1.58,2.55,1.64.92.05,1.84,0,2.77,0ZM334.78,190.91c-2.37.78-4.69,1.75-7.11,2.27-2.5.55-5.09.66-7.98,1,.46-.91.68-1.34.9-1.77-5.8-2.51-28.02-1.28-30.54,1.02,4.16.78,8.42,1.36,12.55,2.42,5.16,1.32,10.29,2.51,15.65,2.1,6.26-.48,11.85-2.65,16.53-7.04ZM441.32,265.84c.27-.1.53-.19.8-.29.69-3.9-.06-7.6-1.98-11.09-.27-.49-.92-.79-1.44-1.11-4.52-2.71-9.21-5.19-13.55-8.16-4.7-3.21-8.37-7.46-10.14-13.01-.63-1.99-.82-4.13-1.22-6.2-.26-.1-.53-.2-.79-.3-1.23,2.29-2.45,4.59-3.69,6.88-.72,1.33-.32,2.29.84,3.16,3.56,2.66,6.98,5.53,10.66,8.02,7.87,5.35,14.33,11.96,19.05,20.25.38.67.96,1.24,1.45,1.85ZM488.07,145.47c.33.26.72.74,1.22.95,5.94,2.41,12.08,4,18.53,4.08,1.2.01,2.41-.52,3.61-.79,0-.28,0-.56,0-.83-3.55-1.94-8.16-2.61-9.02-7.13-4.92,1.28-9.6,2.49-14.35,3.73ZM557.35,77.31c-.14.45-.18.83-.36,1.13-1.66,2.7-1.41,3.19,1.51,4.04,1.01.29,1.84,1.2,2.99,1.99-.02.01.44-.46.73-.37,2.17.65,2.88-.09,2.84-2.33-.03-1.45.91-1.09,1.91-.54.9.5,2.15,1.01,3.04.76,1.95-.53,1.88-2.18-.11-4.64-1.93,1.27-3.72.79-5.46-.9-.5,1.38-.62,3.11-1.4,3.49-.86.42-2.57-.06-3.47-.74-2.16-1.62.83-2.94.64-4.7-2.69.26-4.61-.81-6.01-3.4-.9,1.32-2.06,2.73-1.95,4.03.28,3.16,3.3,1.05,5.07,2.18ZM454.46,266.64c-.9.47-1.31.55-1.51.81-2.12,2.71-4.28,5.41-6.27,8.22-.46.65-.6,1.77-.43,2.58.5,2.39,1.19,4.75,1.9,7.1.15.51.7.89,1.06,1.34.37-.43.94-.79,1.08-1.28,1.25-4.42,2.49-8.84,3.58-13.3.39-1.59.37-3.28.59-5.45ZM545.11,96.37c2.64-.65,5.08-1.27,7.53-1.84.89-.21,1.81-.31,2.72-.41,4.5-.5,8.94-2.39,13.55-.6.28.11.74-.28,1.94-.77-1.16-.47-1.81-.74-2.34-.95.61-1.42,1.02-2.36,1.42-3.3-.1-.18-.21-.37-.31-.55-2.39,2.87-5.66,2.79-8.81,3.19-3.26.42-6.49,1.09-9.75,1.41-1.57.16-3.2-.26-4.8-.33-.46-.02-1.32.3-1.33.48-.02,1.38.12,2.76.18,3.67ZM408.12,197.23c.13,1.29.13,2.62.43,3.87.47,1.98,1.92,2.47,3.04.87,1.47-2.09,2.5-4.51,3.56-6.85.15-.33-.43-1.32-.9-1.54-4.25-2.03-5.85-1.04-6.13,3.65ZM547.46,84.92c2.13,1.77,4.31,3.67,6.6,5.44.44.34,1.26.19,2.02.29-2.45-3.32-4.68-6.34-6.76-9.16-.54.99-1.25,2.31-1.86,3.44ZM559.25,94.59c-.17.24-.35.48-.52.72,2.05,2.97,5.68,4.94,5.73,9.27,1.18-1.28,2.17-2.24,2.98-3.34.18-.25-.29-1.42-.48-1.43-2.61-.08-3.65-2.28-5.26-3.71-.7-.63-1.63-1.01-2.45-1.5ZM420.48,194.16c-.47-.83-.75-1.33-1.03-1.83-.45.3-1.13.5-1.32.92-1.18,2.55-2.28,5.13-3.3,7.75-.18.45.18,1.11.3,1.67.53-.19,1.36-.22,1.55-.58,1.35-2.62,2.57-5.3,3.82-7.93Z" stroke-width="0"/><path d="M471.54,285.69c.5.63.86.93,1.02,1.32,1.61,4.03-.6,10.41-4.56,12.31-2.45,1.18-5.16,1.86-7.79,2.6-1.15.32-2.58.57-2.97-1.18-.33-1.5-.53-2.77,1.21-3.95,3.65-2.48,7.07-5.31,10.51-8.09.92-.75,1.58-1.83,2.58-3.02Z" stroke-width="0"/><path d="M290.37,423.75c.91-1.63,1.87-3.24,2.72-4.9,2.49-4.8,6.05-8.53,10.36-11.83,2.59-1.98,4.51-4.93,6.45-7.65,5.38-7.56,10.61-15.24,15.92-22.86,1.63-2.34,1.47-2.63-1.25-3.48-6.23-1.94-11.73-4.94-15.15-10.86-.95-1.64-2.07-3.18-3.36-5.16,1.17-.2,1.94-.44,2.7-.43,2.38,0,4.76.17,7.14.16,20.9-.05,41.81-.09,62.71-.23,2.44-.02,3.67.57,4.29,3.16,2.33,9.7,4.9,19.34,7.41,29,1.47,5.65,2.92,11.3,4.52,16.9.31,1.09,1.09,2.29,2.01,2.91,3.81,2.53,6.34,5.95,7.89,10.2.28.76.72,1.45,1.28,2.55,1.17-1.71,1.92-3.24,3.06-4.37,2.59-2.58,5.41-4.93,8.07-7.44.79-.75,1.74-1.64,1.97-2.62,2.01-8.67,3.87-17.38,5.78-26.08.33-1.5.71-2.99,1.05-4.48.32-1.4-.08-2.28-1.68-2.24-3.22.08-6.46.01-9.66.32-1.02.1-2.18.98-2.85,1.83-1.18,1.49-2.07,3.23-3,4.9-.76,1.35-1.71,1.61-3.04.84-9.22-5.28-13.95-13.51-15.55-23.76-.07-.43.83-1.41,1.36-1.47,2.59-.3,5.2-.47,7.8-.51,16.44-.3,32.87-.48,49.31-.87,11.58-.28,23.16-.79,34.74-1.26,9.5-.38,19.01-.77,28.5-1.3,13.86-.78,27.72-1.64,41.58-2.58,9.34-.63,18.66-1.5,28-2.18,1.38-.1,2.79.24,4.19.38-.41,1.2-.72,2.44-1.24,3.59-4.91,10.92-12.03,20.1-21.63,27.31-2.6,1.95-3.23,1.69-3.68-1.51-.13-.91-.3-1.82-.57-2.69-1.19-3.92-1.2-3.82-5.23-3.59-4.6.26-9.21.45-13.81.42-2.14-.01-3.16.82-3.39,2.8-.72,6.23-1.34,5.82,4.52,5.75,3.99-.05,7.98-.18,11.97-.33,1.74-.07,2.43.68,2.11,2.37-1.09,5.81-2.21,11.61-3.24,17.43-.28,1.57-1.03,2.26-2.62,2.23-5.14-.11-10.29-.2-15.43-.2-.74,0-1.99.37-2.12.82-.55,1.9-.85,3.89-1.02,5.87-.03.36.99,1.14,1.56,1.17,5.6.28,11.2.53,16.8.56.9,0,2.05-.95,2.67-1.78,1.38-1.83,2.51-3.85,3.7-5.82.8-1.32,1.61-1.36,2.77-.37,6.59,5.65,10.62,12.83,12.68,21.16.6,2.44.86,4.97,1.25,7.47.24,1.56-.31,2.26-2.02,2.12-5.81-.46-11.63-.87-17.45-1.22-10.04-.59-20.08-1.12-30.12-1.67-10.57-.57-21.15-1.13-31.72-1.69-2.45-.13-4.9-.31-7.35-.4-1.71-.06-2.23-.73-1.46-2.33,3.24-6.81,7.05-13.07,14-16.9,1.14-.63,1.65-2.83,1.99-4.4,2.14-9.74,4.05-19.54,6.25-29.27.67-2.97.5-5.06-2.43-6.72-3.26-1.85-5.6-4.7-6.93-8.73-.87,1.01-1.51,1.64-2.01,2.36-5.64,8.03-12.59,14.63-21.13,19.52-1.45.83-2.34.49-2.69-1.14-.4-1.87-.62-3.81-1.22-5.61-.24-.71-1.29-1.15-1.98-1.7-.05-.04-.15,0-.23,0-7.25.18-5.42-1.33-7.13,5.92-2.18,9.27-3.99,18.62-6.04,27.92-.35,1.59.1,2.49,1.49,3.13,6.88,3.18,10.65,9.28,14.37,15.4.79,1.29.24,1.94-1.34,1.91-16.28-.37-32.55-.76-48.83-1.04-22.5-.39-45-.69-67.51-1.03-2.97-.04-3.08-.25-2.03-3.01,2.06-5.42,4.95-10.19,9.91-13.51.61-.41,1.06-1.54.98-2.27-.04-.42-1.3-1-2.01-1.01-6.23-.08-12.45-.01-18.68-.07-2.37-.02-3.07,1.9-3.9,3.41-.29.53.48,1.91,1.1,2.62,3.05,3.5,3.77,7.8,4.39,12.15.26,1.84-1.16,1.67-2.29,1.68-7.99.08-15.99.05-23.98.22-18.27.38-36.54.82-54.81,1.29-3.83.1-7.65.42-11.48.64-2.14.13-2.66-.42-2.24-2.55.57-2.86,1.51-5.68,1.7-8.56.25-3.62.09-7.3-.24-10.92-.16-1.75-1.52-2.66-3.51-2.51-2.06.16-4.15.05-6.22.04-1.45-.01-2.27.61-2.54,2.09-.24,1.36-.87,2.67-.96,4.02-.09,1.38-.06,2.92.47,4.16,1.71,4.02,2.83,8.07,2.26,12.51-.2,1.52-.79,2.12-2.31,2.18-10.27.44-20.55.91-30.82,1.42-3.75.19-7.5.43-11.24.76-3.41.3-3.91-.36-2.82-3.49,2.2-6.34,5.3-12.05,10.39-16.59.89-.8,1.47-2.18,1.74-3.4,2.52-11.39,4.96-22.8,7.35-34.22.14-.65-.15-1.75-.63-2.1-5.16-3.83-7.34-9.04-7.6-15.31-.07-1.8.52-2.36,2.18-2.3,5.45.19,10.9.31,16.34.54,6.13.26,12.26.64,18.39.9,10.81.47,21.64.67,32.44,1.41,6.11.41,12.18,1.54,17.61,4.84,3.78,2.29,6.12,5.65,6.31,9.9.38,8.45-.99,16.65-6.7,23.31-2.04,2.38-4.95,4.08-7.62,5.83-1.34.88-1.65,1.46-.81,2.87.89,1.5,1.44,3.21,2.23,4.79.58,1.15,1.11,2.41,1.99,3.29,3.4,3.41,5.71,7.38,6.76,12.08.08.35.28.68.42,1.02.22.08.45.16.67.24ZM271.27,421.8c0-.16,0-.33,0-.49,1.53,0,3.07,0,4.6,0,1.61,0,3.23.03,4.84,0,2.14-.05,2.67-.89,1.52-2.71-1.05-1.68-2.38-3.18-3.52-4.81-1.19-1.72-2.38-3.46-3.41-5.28-1.17-2.05-1.96-4.34-3.3-6.26-2.99-4.31-3.07-4.19,1.65-6.31,4.46-2,8.79-4.34,11.01-8.97,2.24-4.67,3.32-9.67,3.39-14.9.06-4.58-2.27-7.27-6.2-8.99-5.74-2.51-11.88-3-17.99-3.4-6.51-.43-13.05-.3-19.57-.57-12.19-.5-24.37-1.13-36.55-1.66-2.73-.12-3.53.97-2.02,3.2,1.51,2.23,3.43,4.27,5.52,5.98,1.5,1.22,2.26,2.18,1.75,4.19-.99,3.94-1.73,7.94-2.58,11.92-1.86,8.78-3.65,17.58-5.66,26.32-.33,1.45-1.5,2.76-2.47,3.99-1.97,2.51-4.32,4.77-6.05,7.43-2.33,3.58-2.04,3.96,2.33,3.79,9.28-.36,18.55-.89,27.82-1.25,4.39-.17,5.12-1.13,3.55-5.28-.16-.43-.45-.81-.6-1.24-.68-1.98-2.02-4.05-1.83-5.95.35-3.55,1.64-7,2.45-10.51.39-1.67,1.37-2.14,2.99-2.16,3.83-.04,7.67-.37,11.5-.3,1.23.02,2.94.55,3.56,1.44,1.36,1.97,2.47,4.23,3.12,6.53,1.31,4.63.54,9.3-.61,13.87-.45,1.78-.24,2.49,1.85,2.45,6.29-.12,12.59-.04,18.89-.04ZM297.13,420.13h36.69c-.3-1.07-.32-1.81-.68-2.32-1.48-2.12-3.15-4.1-4.57-6.26-.53-.81-1.09-2.24-.73-2.9,1.34-2.49,2.96-4.84,4.67-7.09.57-.74,1.72-1.46,2.62-1.47,8.45-.12,16.9-.11,25.36-.04.69,0,1.87.61,1.99,1.12.59,2.68,1.34,5.45,1.14,8.12-.08,1.17-2.27,2.19-3.5,3.27-1.21,1.06-2.53,2.02-3.59,3.22-1.01,1.14-1.75,2.53-2.85,4.16h45.69c-.45-1.13-.56-2.05-1.08-2.6-1.92-2.04-3.97-3.95-5.97-5.92-.74-.73-1.89-1.35-2.13-2.23-2.24-8.13-4.34-16.3-6.45-24.47-1.84-7.13-3.64-14.27-5.47-21.4-.46-1.78-1.48-2.61-3.49-2.55-4.91.14-9.83.01-14.75.05-14.13.12-28.26.26-42.38.42-.77,0-1.53.23-2.3.35-.08.24-.16.49-.25.73,1.3.97,2.51,2.11,3.91,2.89,3.99,2.22,8.28,3.57,12.83,4.15,2.67.33,3.04,1.25,1.55,3.41-8.03,11.6-16.04,23.22-24.15,34.77-.88,1.26-2.24,2.25-3.55,3.12-3.57,2.39-6.4,5.38-8.56,9.47ZM577.79,353.76c-.22-.27-.45-.55-.67-.82-.75,0-1.49-.04-2.24,0-8.27.53-16.54,1.1-24.81,1.62-11.95.76-23.89,1.5-35.84,2.25-4.44.28-8.89.47-13.32.86-2.16.19-2.67,1.33-1.13,2.82,2.23,2.16,4.65,4.26,7.34,5.77,1.99,1.12,2.43,2.27,1.96,4.23-.71,2.98-1.42,5.97-2.06,8.97-2.12,9.82-4.29,19.64-6.24,29.49-.44,2.23-1.57,3.17-3.47,4.03-4.25,1.92-7.15,5.25-9.39,9.79,4.47.37,8.48.77,12.51,1.01,8.04.48,16.08.85,24.12,1.31,12.87.74,25.74,1.47,38.6,2.32,2.21.15,2.79-.73,2.09-2.48-1.77-4.38-3.43-8.86-5.71-12.98-2.45-4.43-2.99-4.32-5.5.03-1.21,2.09-2.67,3.11-5.16,2.99-6.74-.33-13.49-.48-20.24-.72-1.15-.04-2.37.04-3.42-.31-.64-.22-1.55-1.25-1.46-1.77.76-4.54,1.62-9.07,2.69-13.54.2-.82,1.49-1.94,2.3-1.96,4.99-.14,9.99-.16,14.97.13,1.92.11,2.75-.46,3.08-2.14.47-2.41.73-4.87,1.35-7.24.53-2.06-.14-2.58-2.1-2.54-4.84.09-9.68-.02-14.52.06-1.81.03-2.59-.61-2.27-2.45.78-4.46,1.56-8.91,2.29-13.38.29-1.74,1.18-2.37,2.98-2.41,7.68-.17,15.35-.48,23.02-.74,3.12-.1,3.58.3,4.27,3.72.43,2.12,1.06,2.39,2.65.92,1.35-1.24,2.66-2.57,3.77-4.03,3.24-4.23,6.37-8.55,9.54-12.83ZM488.14,358.27c-1.27-.07-2.08-.2-2.89-.16-6.13.32-12.25.79-18.38,1-14.57.5-29.15.96-43.73,1.31-8.45.2-16.9.15-25.35.22-2.49.02-3.06.63-1.87,2.87,1.71,3.23,3.64,6.39,5.83,9.31,2.59,3.44,3.27,3.29,5.47-.23.45-.71.73-1.62,1.34-2.12.82-.68,1.87-1.45,2.85-1.5,5.59-.28,11.19-.38,16.79-.48,3.14-.06,3.62.61,2.94,3.7-2.54,11.54-5.02,23.09-7.63,34.61-.52,2.29-.74,4.66-3.46,6.07-2.59,1.35-4.73,3.56-6.98,5.51-.47.41-.53,1.3-.78,1.98.63.19,1.26.52,1.9.53,6.83.18,13.66.29,20.49.44,5.68.13,11.36.31,17.04.43,2.3.05,4.6,0,6.9,0-.33-1.31-.68-2.05-1.26-2.47-3.02-2.19-6.06-4.35-9.16-6.41-1.2-.79-2.79-1.09-2.36-3.11.75-3.53,1.39-7.08,2.14-10.6,2-9.38,4.08-18.74,6.01-28.13.44-2.13,1.45-3.02,3.59-3,2.69.03,5.37-.09,8.06-.17q4.61-.13,5.69,4.24c.51,2.08,1.2,2.49,2.74,1.05,4.08-3.82,7.99-7.8,11.91-11.78.77-.78,1.28-1.82,2.16-3.1Z" fill="#fff" stroke-width="0"/><path d="M474.74,146.12c2.58.78,4.97,1.47,7.34,2.21,1.61.5,3.22,1.03,4.81,1.58,4.74,1.64,5.96,5.54,6.48,9.95.55,4.7,1.93,6.03,6.68,6.6.46.06.92.19,1.37.15,2.6-.21,5.2-.39,7.78-.72.75-.1,1.44-.64,2.83-1.29-4.08-1.72-8.74-1.08-10.64-5.61,6.94.85,13.68,1.67,20.89,2.55-2.17,4.3-4.26,8.46-6.36,12.62.15.12.29.25.44.37.73-.47,1.49-.9,2.17-1.43,3.16-2.44,6.31-4.89,9.42-7.39,1.5-1.21,2.29-.89,3.07.86,5.29,11.88,8.12,24.44,10.29,37.17.12.7-.39,1.82-.97,2.27-1.62,1.27-3.36,2.45-5.21,3.35-.82.4-2.2.39-3.01-.04-5.38-2.85-11.09-4.05-17.11-3.63-2.27.16-3.06-.71-3.15-2.82-.09-2.13.32-4.08,2.08-5.35,3.28-2.38,6.68-4.6,10.03-6.88.36-.24.73-.48,1.72-1.13-1.31-.19-1.99-.42-2.63-.35-4.05.42-8.21.45-12.08,1.55-2.46.7-4.55,2.91-6.66,4.62-1.43,1.16-2.6,2.64-3.89,3.97.15.2.31.39.46.59,2.03-.9,4.05-1.8,6.08-2.69.18.09.35.18.53.27-2.05,3.98-.32,7.81.04,11.69.15,1.6-.88,1.69-2.04,1.77-3.83.23-7.65.45-11.47.75-8.38.67-15.42,4.45-21.66,9.79-9.04,7.73-14.69,17.38-16.07,29.33-.27,2.29-.86,2.66-2.75,1.44-4.17-2.71-8.47-5.29-12.32-8.4-4.06-3.28-5.87-7.94-6.13-13.18-.16-3.29-.46-6.57-.98-9.96-.87,2.92-1.75,5.83-2.62,8.75-2.24-7.44.42-14.52,1.57-21.72-.21-.14-.42-.27-.63-.41-1.56,2.27-3.12,4.53-4.68,6.8-2.19-2.35-1.31-21.37,1.41-26.09,1.74,4.52,3.37,8.77,5,13.03.18,0,.36-.02.54-.02.04-.57.18-1.16.11-1.71-.76-5.61-1.57-11.22-2.34-16.84-.2-1.44-.38-2.9-.4-4.35-.01-.9.29-1.81.76-2.73,2.94,8.4,6.41,16.4,12.11,23.41-.36-1.8-.62-3.63-1.08-5.4-3.42-13.23-5.3-26.65-4.78-40.34.14-3.67.61-7.34,1.15-10.98.1-.69,1.15-1.65,1.88-1.77,5.37-.93,10.75-1.89,16.17-2.43,11.38-1.14,22.78-2.09,34.18-2.98,4.34-.34,8.77-.8,13.06-.34,8.48.93,15.99,4.69,23.04,9.33,2.69,1.77,5.26,3.73,7.9,5.56,1.45,1.01,1.63,1.98.38,3.37-2.75,3.07-4.54,3.63-8.97,1.31-3.9-2.04-7.44-4.78-11.18-7.15-4.01-2.54-8-5.1-12.13-7.43-1-.56-2.63-.66-3.72-.28-7.65,2.65-15.48,4.47-23.51,5.45-.68.08-1.34.31-1.99.51-.11.03-.16.24-.58.9Z" fill="#fff" stroke-width="0"/><path d="M573.62,430.52c1.52-2.28,2.5-4,3.72-5.53,7.06-8.89,15.65-15.74,26.48-19.55,1.59-.56,2.43-.45,2.58,1.49.17,2.14.62,4.25.86,6.39.16,1.39.83,2.02,2.23,2.09,5.14.25,10.27.66,15.4.77,3.77.08,5.56-1.44,6.33-4.76.64-2.74-.11-4.39-2.81-5.15-7.75-2.21-15.54-4.25-23.3-6.42-4.43-1.24-8.94-2.28-13.21-3.94-6.7-2.62-9.77-7.97-9.59-15.04.15-5.84.93-11.62,3.14-17.12,3.14-7.81,8.89-12.91,16.55-16.02,7.83-3.18,16.02-4.76,24.44-5.19,8.5-.44,17.02-1.23,25.51-1.01,8.8.24,17.56,1.52,26.34,2.35.21.02.4.21,1.08.58-1.55,2.52-2.82,5.24-4.66,7.48-8.79,10.75-19.44,19.11-32.28,24.56-1.38.59-2.08.1-2.26-1.26-.3-2.36-.6-4.73-.78-7.1-.14-1.86-.98-2.86-2.89-2.78-4.44.19-8.91.21-13.32.68-3.72.4-5.35,2.22-5.92,5.44-.35,1.92.29,3.16,2.23,3.61,2.77.64,5.54,1.24,8.32,1.86,7.78,1.75,15.62,3.28,23.33,5.32,6.39,1.69,11.68,5.29,13.24,12.12.85,3.73.76,7.81.4,11.67-.61,6.71-1.43,13.43-4.52,19.63-3.45,6.91-9.21,10.72-16.49,12.46-9.19,2.2-18.48,1.49-27.72.41-7.16-.84-14.33-1.7-21.41-3.04-6.83-1.29-13.55-3.21-21.03-5.03ZM629.84,434.91c.03-.17.06-.34.08-.52,2.22-.13,4.46-.13,6.66-.41,6.03-.75,11.77-2.13,16.04-7.02,2.78-3.18,4.38-6.89,4.97-10.94.87-5.98,1.68-11.99,1.96-18.02.18-3.98-1.96-7.38-5.54-9.22-3.03-1.56-6.32-2.8-9.63-3.57-8.66-2.03-17.41-3.67-26.1-5.58-2.66-.58-5.1-1.63-6.18-4.56-1.91-5.18,1.51-12.54,7.04-13.52,5.54-.99,11.25-1.17,16.9-1.32,5.95-.16,6.93.92,7.48,6.7.01.15.03.31.03.46.03,2.05,1.11,2.14,2.56,1.31,8.66-4.95,16.49-10.93,22.91-18.63.49-.58.66-1.43.98-2.16-.7-.24-1.38-.62-2.09-.7-12.24-1.27-24.49-1.86-36.78-.81-9.34.79-18.67,1.7-27.46,5.27-6.49,2.63-11.69,6.67-14.31,13.47-2.04,5.32-2.65,10.85-2.65,16.5,0,4.55,2.06,7.81,6.26,9.2,5.88,1.95,11.91,3.46,17.88,5.14,6.27,1.77,12.6,3.35,18.79,5.38,1.89.62,3.96,2.11,4.95,3.79,3.7,6.26-1.25,15.2-8.65,15.39-5.95.15-11.96-.3-17.89-.95-5.22-.57-5.22-.84-6.2-6.07-.34-1.8-1.14-2.5-2.84-1.53-6.11,3.48-11.73,7.59-16.35,12.93-1.45,1.67-1.12,2.44,1.08,2.91,4.88,1.04,9.71,2.35,14.64,3.06,10.47,1.51,20.98,2.71,31.48,4.04Z" fill="#fff" stroke-width="0"/><path d="M108.76,435.53c-2.59.36-5.05.8-7.52,1.02-11.93,1.06-23.87,1.97-35.79,3.1-10.46.99-20.9,2.21-31.36,3.29-.78.08-1.59-.19-2.39-.3.21-.78.31-1.6.65-2.32,4.66-10.02,11.64-17.96,21.17-23.66.89-.54,1.65-1.87,1.84-2.94,2.57-15.06,5.01-30.15,7.55-45.21.42-2.49-1.62-2.21-2.82-2.81-4.85-2.42-9.91-4.48-14.58-7.22-6.24-3.66-10.43-9.42-14.09-15.53-.77-1.28-1.33-2.68-1.99-4.02,1.46-.07,2.93-.34,4.37-.19,11.91,1.18,23.81,2.48,35.73,3.65,11.08,1.1,22.18,1.94,33.24,3.19,8.3.93,16.69,1.71,24.78,3.65,11.06,2.65,18.07,8.99,17.33,21.69-.44,7.52-1.71,14.93-4.89,21.89-2.88,6.31-8,9.95-14.31,12.16-8.01,2.82-16.37,3.21-24.74,3.52-3.15.11-6.3.18-9.44.28-1.25.04-2.68-.35-2.95,1.65-.27,2.02-.79,3.78,1.78,4.98,3.17,1.48,6.24,3.28,9.11,5.29,5.01,3.5,7.5,8.73,9.33,14.84ZM38.92,436.72c1.36,0,2.09.06,2.81,0,4.36-.4,8.71-.85,13.07-1.25,14.14-1.31,28.29-2.6,42.42-3.95,1.21-.12,2.39-.68,3.58-1.03-.56-1.06-.96-2.25-1.71-3.15-3.86-4.63-9.02-7.33-14.63-9.17-2.03-.67-2.76-1.68-2.37-3.71.55-2.87,1.06-5.74,1.54-8.61.26-1.56,1.14-2.19,2.69-2.24,5.83-.17,11.66-.37,17.49-.62,6.84-.29,13.64-.85,20.16-3.2,5.39-1.95,9.9-5.22,11.55-10.75,1.85-6.2,3.09-12.66,3.89-19.09.83-6.62-2.58-11.68-8.64-14.57-5.78-2.76-12.01-3.68-18.26-4.32-11.69-1.19-23.4-2.15-35.09-3.3-10.54-1.05-21.07-2.25-31.6-3.35-2.54-.26-5.1-.38-8.18-.61.61,1.06.85,1.6,1.19,2.05,3.34,4.42,7.43,8.08,12.37,10.49,4.38,2.13,9.07,3.64,13.62,5.4,1.56.6,3.27.83,2.84,3.34-2.68,15.59-5.57,31.15-7.71,46.81-.69,5.04-2.79,7.79-6.91,10.25-5.7,3.41-10.24,8.23-14.14,14.59Z" fill="#fff" stroke-width="0"/><path d="M148.75,349.19c10.4.74,20.8,1.52,31.21,2.2,4.21.28,8.43.35,12.65.53,1.07.05,2.14.16,3.21.26,1.53.15,2,.88,1.77,2.5-.96,6.98-4.18,12.4-10.36,16-.74.43-1.38,1.48-1.57,2.34-2.54,11.69-4.98,23.41-7.5,35.11-.43,2.01,0,3.4,1.6,4.83,4.32,3.88,6.5,8.79,6.48,14.69,0,2.21-.88,2.92-2.99,3.01-8.12.36-16.24.78-24.35,1.32-9.64.64-19.27,1.37-28.89,2.17-1.96.16-2.34-.4-1.78-2.16,2.72-8.62,7.21-15.92,15.23-20.58,2.15-1.25,2.21-3.44,2.6-5.39,2.33-11.82,4.52-23.66,6.82-35.48.33-1.69-.03-2.9-1.27-4.11-4.38-4.27-5.78-9.6-5.25-15.57.14-1.61,1.09-1.84,2.38-1.68ZM191.59,356.86c-1.56-.26-2.94-.62-4.34-.71-4.9-.32-9.81-.53-14.71-.82-6.43-.38-12.87-.79-19.3-1.22-1.91-.13-2.51.65-2.03,2.49.82,3.1,2.59,5.57,5,7.54,1.57,1.29,2.03,2.73,1.61,4.64-.8,3.67-1.57,7.35-2.28,11.04-1.91,10.02-3.77,20.06-5.68,30.08-.4,2.08-1.27,3.65-3.45,4.75-4.85,2.44-8.4,6.37-10.98,11.15-.97,1.81-.66,2.39,1.31,2.3,4.3-.18,8.59-.35,12.88-.63,9.26-.6,18.52-1.31,27.79-1.88,3.34-.21,4.23-1.36,2.41-4.25-1.56-2.49-3.59-4.75-5.72-6.79-1.42-1.36-2.15-2.44-1.68-4.52,1.53-6.73,2.83-13.51,4.22-20.27,1.37-6.69,2.65-13.4,4.2-20.04.28-1.2,1.52-2.44,2.65-3.12,3.73-2.24,6.77-4.94,8.09-9.75Z" fill="#fff" stroke-width="0"/><path d="M491.92,235.99c1.73,1.05,3.46,2.12,5.2,3.16,2.76,1.65,5.56,3.23,8.29,4.94.54.34,1.23,1.24,1.11,1.67-1.14,4.03-2.42,8.02-3.71,12-.16.49-.57.9-.9,1.32-2.69,3.4-5.88,3.92-8.73.65-2.31-2.64-4.21-5.88-5.44-9.17-1.6-4.27-2.38-8.86-3.49-13.31-.4-1.61,0-2.71,1.68-3.5,4.19-1.98,8.67-2.66,13.18-2.75,5.2-.11,10.41.24,15.62.38,1.42.04,2.45.41,2.13,2.15-.28,1.51.41,3.66-2.44,3.39-6.63-.63-13.27-1.23-19.91-1.79-.82-.07-1.66.15-2.49.24-.04.21-.08.41-.11.62Z" fill="#fff" stroke-width="0"/><path d="M217.14,326.39c-.05-1.78,1.21-2.01,2.92-1.86,3.21.29,6.44.35,9.64.68,1.28.13,2.93.13,2.82,2.24-.1,1.94-1.08,2.49-2.97,2.63-1.61.12-3.24.84-4.72,1.58-.42.21-.72,1.84-.42,2.14,2.06,2,4.19,4,6.54,5.63,1.33.92,1.55,1.99,1.1,3.1-.27.67-1.4,1.41-2.13,1.41-3.3-.03-6.6-.27-9.88-.55-1.31-.11-2.94-.01-3.19-1.93-.23-1.74.39-3,2.32-3.23-1.1-2.75-2.89-3.3-5.44-.66.58.95,1.45,1.78,1.57,2.71.22,1.68-.56,2.73-2.57,2.58-2.75-.21-5.52-.26-8.29-.29-1.46-.02-2.67-.32-2.8-2.02-.11-1.43,0-2.77,1.93-3.09.46-.08,1.01-1.01,1.09-1.6.2-1.52.15-3.06.23-4.6.08-1.36-.02-2.42-1.53-3.22-.65-.34-.87-2.01-.76-3.02.06-.49,1.34-1.21,2.06-1.2,3.14.04,6.29.16,9.4.57,1.03.14,1.94,1.24,3.05,2ZM217.82,329.39c-1.51-2.4-2.86-.2-4.16-.27-.27-.01-.62,1.55-.94,2.38.22.14.45.27.67.41,1.45-.82,2.89-1.65,4.42-2.52Z" fill="#fff" stroke-width="0"/><path d="M303.88,327.98c3.53,0,7.07.1,10.59-.03,2.55-.1,4.12,1.28,5.09,3.26.82,1.69.64,3.52-.58,5.21-.38.53-.33,1.68-.03,2.33.67,1.43,1.69,2.69,2.47,4.07,1.09,1.93.08,3.7-2.12,3.77-1.15.04-2.3.03-3.45,0-2.66-.06-3.73-1.04-3.78-3.78-.04-1.85-.76-2.67-2.63-2.62-2.3.06-4.61-.03-6.91.05-.51.02-1,.47-1.49.72.4.36.79,1.03,1.21,1.04,1.93.07,2.54,1.06,2.37,2.85-.18,1.98-1.69,1.69-2.93,1.72-2.99.05-5.99.11-8.98-.04-.79-.04-2.08-.66-2.22-1.24-.29-1.23-.57-2.68,1.04-3.65.73-.44,1.33-1.51,1.47-2.38.24-1.5.04-3.06.09-4.6.03-1.19-.12-1.96-1.6-2.26-1.87-.38-1.24-2.11-1.03-3.25.1-.57,1.22-1.32,1.9-1.34,3.83-.13,7.67-.06,11.5-.06,0,.07,0,.14,0,.22ZM306.19,335.21s0,0,0,0c1.38,0,2.77.13,4.12-.06.58-.08,1.07-.8,1.6-1.23-.53-.45-1.04-1.25-1.59-1.28-2.67-.14-5.35-.13-8.02-.03-.48.02-.94.72-1.41,1.11.46.5.87,1.35,1.41,1.44,1.26.21,2.59.07,3.89.07Z" fill="#fff" stroke-width="0"/><path d="M110.48,330.21c.47.18.93.47,1.41.53,1.58.19,1.71,1.16,1.59,2.48-.13,1.4-.73,2.17-2.17,2.06-3.36-.26-6.74-.46-10.08-.89-.8-.1-2.19-1.09-2.13-1.49.17-1.07.74-2.59,1.57-2.95,1.57-.67,1.79-1.65,1.79-3.04,0-1.23.3-2.49.09-3.67-.19-1.07-.93-2.03-1.34-3.07-.37-.92-1.07-2.05-.8-2.78.28-.74,1.61-1.61,2.41-1.55,7.57.55,15.15,1.13,22.68,2.04,3.34.41,5.32,4.63,3.5,7.92-.43.77-1.48,1.61-1.34,2.2.33,1.42.94,2.97,1.93,3.99,1.02,1.06,1.36,1.95.9,3.24-.53,1.49-1.7,1.56-3.02,1.4-.61-.08-1.23-.03-1.84-.07-4-.28-4.2-.58-4.74-4.62-.11-.8-1.02-1.94-1.75-2.11-2.23-.51-4.54-.68-6.83-.86-.63-.05-1.29.32-1.94.5.03.24.05.49.08.73ZM116.67,324.6s0-.02,0-.03c1.15.07,2.31.28,3.44.16.53-.05.99-.73,1.48-1.12-.41-.47-.76-1.29-1.23-1.36-2.65-.41-5.32-.72-8-.86-.53-.03-1.1.88-1.66,1.36.46.5.85,1.32,1.39,1.43,1.49.3,3.05.3,4.58.41Z" fill="#fff" stroke-width="0"/><path d="M433.18,339.9c.6.16,1.19.41,1.8.47,1.5.16,2.17.95,2.12,2.45-.06,1.55-.69,2.48-2.36,2.48-3.31,0-6.61.1-9.91-.07-.74-.04-2.02-.97-2.03-1.52-.03-.94.51-2.38,1.24-2.74,1.31-.64,1.63-1.45,1.6-2.7-.04-1.54.15-3.11-.12-4.6-.16-.88-.88-2.12-1.62-2.34-1.59-.48-1.82-1.41-1.72-2.76.11-1.59,1.22-1.77,2.45-1.79,6.68-.15,13.35-.29,20.03-.42,2.31-.05,4.96-.44,6.19,1.98.79,1.54.76,3.57.8,5.39.02.79-1.21,1.76-1.01,2.35.48,1.38,1.48,2.59,2.27,3.87.42.69,1.05,1.33,1.2,2.08.49,2.48,0,3.02-2.51,3.04-1,0-2,.01-3,0-2.82-.05-3.57-.66-3.85-3.4-.21-2.01-1.1-3.13-3.25-2.99-2.76.17-5.52.31-8.28.47-.02.26-.03.52-.05.78ZM438.48,333.87s0,.03,0,.04c1.22,0,2.49.18,3.66-.07.72-.15,1.29-.96,1.93-1.47-.61-.44-1.22-1.23-1.84-1.25-2.59-.08-5.2.02-7.79.19-.52.04-1,.69-1.5,1.06.47.5.89,1.35,1.42,1.44,1.34.21,2.74.07,4.12.07Z" fill="#fff" stroke-width="0"/><path d="M411.51,338.89c2.88-.32,3.51,1.35,3.72,3.74.17,2.01-.38,2.9-2.42,2.88-3.45-.04-6.91-.06-10.36,0-3.98.08-7.96.28-11.95.39-1.27.03-2.55-.12-2.79-1.75-.21-1.43.11-2.61,1.75-3.01.28-.07.58-.24.78-.46,1.14-1.2-.29-7.83-1.54-8.95-.73-.65-1.04-2.05-1.05-3.11,0-.47,1.21-1.35,1.89-1.37,7.75-.18,15.5-.22,23.25-.33,1.55-.02,2.32.63,2.19,2.2-.16,1.83.8,4.22-2.32,4.63-.28.04-.57.82-.66,1.29-.21,1.11-.29,2.24-.48,3.82ZM403.16,341.02s0-.02,0-.03c1.38,0,2.77.11,4.13-.06.5-.06.91-.8,1.36-1.23-.45-.33-.89-.94-1.35-.96-2.6-.1-5.21-.12-7.82,0-.44.02-.85.81-1.27,1.24.42.35.81.94,1.27.99,1.21.14,2.45.05,3.68.05ZM403.17,333.93c1.15,0,2.31.1,3.45-.04.56-.07,1.05-.61,1.58-.94-.49-.47-.96-1.32-1.48-1.35-2.37-.15-4.75-.14-7.13-.02-.45.02-.87.78-1.3,1.2.48.38.91,1.02,1.44,1.1,1.12.17,2.29.05,3.44.05Z" fill="#fff" stroke-width="0"/><path d="M360.42,193.91c-5.04,10.76-33.05,15.88-47.33,8.53,19.52-2.66,36.54-10.09,50.97-23.2l.58.31c-.19,1.04-.22,2.15-.6,3.12-2.1,5.36-6.09,9.11-10.68,12.33-1.17.82-2.36,1.6-3.45,2.6,3.89.07,6.92-2.43,10.51-3.69Z" fill="#fff" stroke-width="0"/><path d="M146.31,319.43c3.6.31,8.03.67,12.46,1.09,2.94.28,5.7,3.65,5.43,6.55-.15,1.68-.3,3.36-.44,5.04-.41,4.87-2.88,7.11-7.73,6.83-4.9-.29-9.79-.68-14.67-1.1-3.02-.26-5.78-3.66-5.57-6.73.1-1.45.16-2.91.38-4.35.97-6.34,2.88-7.82,10.16-7.32ZM149.53,324.76s0-.01,0-.02c-.77-.04-1.53-.09-2.3-.1-1.32-.03-2.68-.13-3.22,1.52-.82,2.52-.44,5.93.84,6.69.5.3,1.14.43,1.74.48,2.22.18,4.44.29,6.66.42,1.77.11,2.72-.67,2.88-2.49.53-5.99.4-6.16-5.68-6.44-.31-.01-.61-.04-.92-.05Z" fill="#fff" stroke-width="0"/><path d="M187.87,341.35c-4.28-.32-8.55-.65-12.83-.97-3.5-.26-6.2-3.18-6.1-6.68.05-1.84.14-3.68.34-5.51.44-4.17,3.2-6.57,7.37-6.34,5.13.28,10.25.66,15.37,1.04,2.23.16,5.24,3.42,5.3,5.64.04,1.58-.66,2.69-2.29,2.43-2.14-.34-4.95.67-5.91-2.61-.13-.45-1.24-.82-1.93-.88-2.44-.22-4.9-.27-7.35-.42-1.64-.1-2.69.48-2.77,2.27-.01.23-.06.46-.09.68-.59,5.1.04,5.82,5.1,5.94,1.46.03,2.94.33,4.36.12.98-.15,2.12-.77,2.71-1.54,1.57-2.05,3.56-.71,5.31-.82.68-.04,2.08.97,2.03,1.36-.18,1.41-.48,3.09-1.39,4.06-2.46,2.65-2.6,2.53-7.24,2.22Z" fill="#fff" stroke-width="0"/><path d="M361.46,332.79c1.23,2.31,2.33,4.48,3.58,6.55.18.3,1.53.37,1.65.17,1.17-2.11,2.19-4.31,3.37-6.69-2.15-.48-3.6-1.22-3.26-3.53.2-1.37.75-2.09,2.19-2.07,2.99.03,5.99-.06,8.98.05.71.03,1.92.53,2.01.98.2,1.04.25,2.78-.34,3.18-3.27,2.2-4.2,5.86-5.53,9.04-1.87,4.47-4.48,6.74-9.41,5.9-.67-.12-1.38-.08-2.07,0-1.83.19-2.96-.51-3.78-2.23-1.48-3.1-3.11-6.13-4.85-9.09-.64-1.09-1.92-1.8-2.64-2.87-.58-.85-1.08-2.02-.98-2.97.07-.62,1.28-1.54,2.01-1.58,3.21-.17,6.44-.08,9.66-.05,1.33.01,2.44.38,2.59,1.99.15,1.65-.44,2.68-2.21,2.83-.21.02-.41.17-.98.41Z" fill="#fff" stroke-width="0"/><path d="M416.36,206.61c-.69,3.56-1.23,6.64-1.93,9.67-.1.43-1.01.98-1.53.96-5.98-.19-11.96-.49-17.94-.73-1.52-.06-2.37-.86-2.86-2.23-.39-1.08-.98-2.1-1.29-3.2-.83-2.99-.87-5.58,1.65-8.2,3.38-3.52,6.13-7.65,9.15-11.51.31-.4.62-.8,1.39-1.81,0,1.37,0,2.05,0,2.73-.04,3.21-.4,6.46-.07,9.63.55,5.29,5.44,9.47,11.6,5.28.35-.24.83-.28,1.83-.59ZM398.92,206.01c-2.42,2.12-2.72,3.23-1.36,4.67.49.52,1.4.64,2.11.94.26-.72.84-1.5.72-2.13-.23-1.13-.88-2.16-1.46-3.48Z" fill="#fff" stroke-width="0"/><path d="M248.15,339.54c-.78-1.05-1.2-1.74-1.73-2.33-1.7-1.87-3.41-3.74-5.18-5.54-.57-.58-1.3-1.14-2.06-1.38-1.35-.41-1.87-1.07-1.64-2.52.24-1.48.9-2.18,2.43-2.11,2.84.12,5.68.13,8.52.3,1.96.11,3.1,1.64,2.34,3.57-.72,1.81-.73,3.34,1.12,3.86,1.05.29,2.45-.66,3.33-.94-.37-1.71-.78-2.77-.79-3.83-.02-1.57.77-2.26,2.53-2.06,2.66.3,5.37.18,8.03.48.76.09,1.99,1.02,1.99,1.56,0,.94-.55,2.16-1.29,2.76-2.94,2.41-6.14,4.51-9.05,6.95-1.33,1.12-.41,2.09.99,2.36,1.49.29,2.46.86,2.16,2.58-.28,1.63-1.38,2.12-2.84,2.04-3.75-.22-7.51-.35-11.23-.81-.76-.09-1.9-1.44-1.89-2.2,0-.77,1.12-1.64,1.9-2.28.41-.33,1.15-.25,2.36-.47Z" fill="#fff" stroke-width="0"/><path d="M409.08,182.17c-5.41-5.76-4.66-5.8.67-9.99,1.78,1.21,3.43,2.48,5.23,3.47.59.32,1.69.13,2.36-.21,1.38-.7,1.36-1.95.14-2.89-.94-.73-2.97-1.19-1.77-2.73.58-.74,2.69-.82,3.88-.46,2.73.84,2.76.98,3.72-2.17.83,3.06,1.67,6.11,2.5,9.17.16.59.35,1.19.42,1.79.22,1.76,1.22,4.3.43,5.14-2.16,2.3-4.44,5.06-8.29,4.64-1.45-.16-2.92-.13-4.36-.3-.46-.06-1.22-.48-1.24-.76-.02-.51.28-1.2.69-1.54.63-.53,1.69-.67,2.13-1.29.53-.74.61-1.81.88-2.74-.74-.04-1.61-.35-2.19-.07-3.25,1.56-5.2,4.43-6.13,7.7-.89,3.11-.95,6.45-1.44,9.68-.12.81-.47,1.59-.71,2.39-.49-.81-1.31-1.58-1.41-2.44-.64-5.38.62-10.35,3.62-14.87.33-.5.59-1.05.86-1.54Z" fill="#fff" stroke-width="0"/><path d="M555.54,66.93c-.16-.27-.34-.43-.3-.52,1.78-4.66,2.07-10.13,7.35-12.85,3.69-1.9,7.09-1.35,9.61,1.85,2.37,3,3.19,9.49,1.52,12.43-.66-.35-1.33-.69-2.27-1.19q1.9,4.68,1.01,6.6c-.34-.49-.62-.87-.89-1.26-1.21-1.76-2.69-2.03-4.51-.82-2.04,1.36-5.42.36-6.42-1.9-1.36-3.09-1.83-3.31-5.11-2.35Z" fill="#fff" stroke-width="0"/><path d="M334.24,346.58c-.92,0-1.85.04-2.77,0-1.14-.06-2.43.03-2.55-1.64-.1-1.45.03-2.65,1.73-3.34.74-.3,1.42-1.46,1.58-2.32.26-1.41.02-2.91.08-4.37.06-1.43-.34-2.21-1.91-2.58-.64-.15-1.39-1.52-1.37-2.32.01-.66,1.02-1.8,1.69-1.87,3.2-.36,6.42-.46,9.64-.57,1.34-.05,2.45.39,2.58,2,.12,1.51-.04,2.8-1.97,3-.4.04-1.11.4-1.11.63-.04,2.59,0,5.18.12,7.76.01.23.72.59,1.13.62,2.1.14,2.21,1.52,2.06,3.11-.16,1.78-1.47,1.63-2.73,1.67-2.07.07-4.14.2-6.21.3,0-.02,0-.05,0-.07Z" fill="#fff" stroke-width="0"/><path d="M334.78,190.91c-4.68,4.39-10.27,6.56-16.53,7.04-5.36.41-10.5-.78-15.65-2.1-4.13-1.05-8.38-1.63-12.55-2.42,2.51-2.31,24.74-3.53,30.54-1.02-.22.44-.44.86-.9,1.77,2.89-.34,5.48-.46,7.98-1,2.42-.53,4.74-1.5,7.11-2.27Z" fill="#fff" stroke-width="0"/><path d="M441.32,265.84c-.49-.62-1.07-1.18-1.45-1.85-4.72-8.28-11.18-14.9-19.05-20.25-3.67-2.5-7.09-5.36-10.66-8.02-1.16-.87-1.56-1.83-.84-3.16,1.24-2.29,2.46-4.58,3.69-6.88.26.1.53.2.79.3.39,2.07.58,4.21,1.22,6.2,1.77,5.55,5.44,9.8,10.14,13.01,4.35,2.97,9.03,5.45,13.55,8.16.52.31,1.17.62,1.44,1.11,1.92,3.5,2.67,7.2,1.98,11.09-.27.1-.53.19-.8.29Z" fill="#fff" stroke-width="0"/><path d="M488.07,145.47c4.75-1.24,9.43-2.45,14.35-3.73.86,4.51,5.47,5.19,9.02,7.13,0,.28,0,.56,0,.83-1.2.28-2.41.81-3.61.79-6.45-.07-12.59-1.67-18.53-4.08-.51-.2-.9-.69-1.22-.95Z" fill="#fff" stroke-width="0"/><path d="M557.35,77.31c-1.78-1.13-4.79.98-5.07-2.18-.11-1.3,1.05-2.71,1.95-4.03,1.41,2.6,3.33,3.67,6.01,3.4.19,1.76-2.8,3.07-.64,4.7.9.68,2.61,1.16,3.47.74.78-.38.9-2.11,1.4-3.49,1.74,1.69,3.53,2.17,5.46.9,1.98,2.46,2.06,4.11.11,4.64-.89.24-2.14-.26-3.04-.76-1-.55-1.94-.91-1.91.54.04,2.24-.67,2.98-2.84,2.33-.29-.09-.75.38-.73.37-1.15-.79-1.98-1.7-2.99-1.99-2.92-.85-3.17-1.34-1.51-4.04.18-.3.22-.68.36-1.13Z" fill="#fff" stroke-width="0"/><path d="M454.46,266.64c-.22,2.18-.21,3.86-.59,5.45-1.09,4.46-2.33,8.88-3.58,13.3-.14.49-.71.86-1.08,1.28-.36-.44-.91-.83-1.06-1.34-.71-2.34-1.4-4.7-1.9-7.1-.17-.81-.03-1.93.43-2.58,1.99-2.81,4.14-5.51,6.27-8.22.2-.26.62-.34,1.51-.81Z" fill="#fff" stroke-width="0"/><path d="M545.11,96.37c-.06-.91-.2-2.29-.18-3.67,0-.18.87-.49,1.33-.48,1.61.06,3.23.48,4.8.33,3.27-.33,6.5-.99,9.75-1.41,3.15-.4,6.41-.32,8.81-3.19.1.18.21.37.31.55-.41.94-.81,1.88-1.42,3.3.53.22,1.18.48,2.34.95-1.2.49-1.67.88-1.94.77-4.62-1.79-9.05.1-13.55.6-.91.1-1.83.21-2.72.41-2.45.57-4.89,1.19-7.53,1.84Z" fill="#fff" stroke-width="0"/><path d="M408.12,197.23c.28-4.69,1.87-5.68,6.13-3.65.46.22,1.05,1.21.9,1.54-1.07,2.35-2.09,4.76-3.56,6.85-1.12,1.6-2.57,1.11-3.04-.87-.3-1.25-.29-2.58-.43-3.87Z" fill="#fff" stroke-width="0"/><path d="M547.46,84.92c.61-1.13,1.32-2.44,1.86-3.44,2.08,2.82,4.31,5.84,6.76,9.16-.77-.09-1.58.05-2.02-.29-2.28-1.77-4.47-3.67-6.6-5.44Z" fill="#fff" stroke-width="0"/><path d="M559.25,94.59c.82.49,1.75.87,2.45,1.5,1.61,1.44,2.64,3.63,5.26,3.71.19,0,.66,1.18.48,1.43-.8,1.1-1.8,2.06-2.98,3.34-.05-4.32-3.68-6.3-5.73-9.27.17-.24.35-.48.52-.72Z" fill="#fff" stroke-width="0"/><path d="M420.48,194.16c-1.24,2.63-2.47,5.31-3.82,7.93-.19.36-1.02.4-1.55.58-.11-.56-.47-1.22-.3-1.67,1.02-2.62,2.13-5.2,3.3-7.75.19-.42.87-.62,1.32-.92.28.5.56,1,1.03,1.83Z" fill="#fff" stroke-width="0"/><path d="M271.27,421.8c-6.3,0-12.6-.08-18.89.04-2.09.04-2.3-.67-1.85-2.45,1.15-4.57,1.92-9.24.61-13.87-.65-2.3-1.76-4.56-3.12-6.53-.62-.9-2.33-1.42-3.56-1.44-3.83-.06-7.66.26-11.5.3-1.62.02-2.6.49-2.99,2.16-.82,3.51-2.1,6.96-2.45,10.51-.19,1.91,1.15,3.97,1.83,5.95.15.43.44.82.6,1.24,1.57,4.16.84,5.12-3.55,5.28-9.28.36-18.55.89-27.82,1.25-4.36.17-4.66-.21-2.33-3.79,1.73-2.66,4.08-4.92,6.05-7.43.97-1.23,2.14-2.54,2.47-3.99,2.01-8.75,3.8-17.54,5.66-26.32.84-3.98,1.59-7.98,2.58-11.92.5-2-.26-2.96-1.75-4.19-2.09-1.71-4.01-3.75-5.52-5.98-1.51-2.23-.72-3.32,2.02-3.2,12.18.53,24.37,1.16,36.55,1.66,6.52.27,13.06.14,19.57.57,6.11.4,12.25.89,17.99,3.4,3.94,1.72,6.27,4.42,6.2,8.99-.07,5.24-1.15,10.23-3.39,14.9-2.22,4.64-6.55,6.97-11.01,8.97-4.72,2.12-4.65,2-1.65,6.31,1.34,1.92,2.13,4.21,3.3,6.26,1.04,1.82,2.22,3.55,3.41,5.28,1.13,1.63,2.47,3.13,3.52,4.81,1.14,1.83.62,2.66-1.52,2.71-1.61.04-3.23,0-4.84,0-1.53,0-3.07,0-4.6,0,0,.16,0,.33,0,.49ZM242.74,390.21c0-.05,0-.11,0-.16,3.38,0,6.76.2,10.12-.04,6.88-.49,9.58-3.39,11.54-9.97,1.74-5.84-2.34-10.43-7.97-10.77-6.04-.37-12.12-.27-18.18-.38-1.75-.03-2.55.76-2.86,2.56-.95,5.43-1.99,10.85-3.2,16.23-.46,2.02.3,2.52,2.02,2.52,2.84,0,5.68,0,8.52,0Z" fill="#7d3543" stroke-width="0"/><path d="M297.13,420.13c2.16-4.08,4.99-7.07,8.56-9.47,1.3-.87,2.66-1.87,3.55-3.12,8.11-11.55,16.12-23.17,24.15-34.77,1.49-2.16,1.12-3.08-1.55-3.41-4.55-.57-8.84-1.93-12.83-4.15-1.41-.78-2.61-1.92-3.91-2.89.08-.24.16-.49.25-.73.77-.12,1.53-.34,2.3-.35,14.13-.16,28.26-.3,42.38-.42,4.92-.04,9.84.09,14.75-.05,2.01-.06,3.03.77,3.49,2.55,1.83,7.13,3.63,14.27,5.47,21.4,2.11,8.17,4.21,16.34,6.45,24.47.24.87,1.39,1.5,2.13,2.23,2,1.97,4.05,3.88,5.97,5.92.51.55.63,1.47,1.08,2.6h-45.69c1.09-1.63,1.83-3.01,2.85-4.16,1.06-1.19,2.38-2.15,3.59-3.22,1.23-1.08,3.41-2.1,3.5-3.27.19-2.67-.55-5.44-1.14-8.12-.11-.51-1.29-1.11-1.99-1.12-8.45-.07-16.9-.08-25.36.04-.9.01-2.05.72-2.62,1.47-1.71,2.25-3.33,4.61-4.67,7.09-.36.66.2,2.09.73,2.9,1.42,2.16,3.09,4.15,4.57,6.26.36.51.38,1.25.68,2.32h-36.69ZM349.07,392.82c3.07,0,6.14.01,9.21,0,3.05-.01,3.39-.33,2.74-3.4-1.14-5.4-2.45-10.76-3.65-16.14-.26-1.19-.14-2.68-1.82-2.76-1.82-.09-3.81-.8-5.21,1.3-4.07,6.13-8.23,12.19-12.32,18.3-1.27,1.9-.89,2.64,1.37,2.68,3.22.06,6.45.02,9.67.02Z" fill="#7d3543" stroke-width="0"/><path d="M577.79,353.76c-3.17,4.28-6.3,8.6-9.54,12.83-1.11,1.45-2.42,2.78-3.77,4.03-1.6,1.47-2.23,1.21-2.65-.92-.69-3.43-1.15-3.83-4.27-3.72-7.67.26-15.35.57-23.02.74-1.8.04-2.69.67-2.98,2.41-.74,4.46-1.51,8.92-2.29,13.38-.32,1.84.46,2.47,2.27,2.45,4.84-.07,9.68.03,14.52-.06,1.96-.04,2.63.49,2.1,2.54-.61,2.37-.88,4.83-1.35,7.24-.33,1.68-1.16,2.25-3.08,2.14-4.98-.29-9.98-.27-14.97-.13-.81.02-2.1,1.14-2.3,1.96-1.07,4.47-1.93,9-2.69,13.54-.09.52.82,1.55,1.46,1.77,1.06.36,2.27.27,3.42.31,6.75.24,13.5.39,20.24.72,2.5.12,3.95-.89,5.16-2.99,2.52-4.35,3.05-4.46,5.5-.03,2.28,4.12,3.93,8.6,5.71,12.98.71,1.75.12,2.63-2.09,2.48-12.86-.85-25.73-1.58-38.6-2.32-8.04-.46-16.09-.83-24.12-1.31-4.03-.24-8.04-.64-12.51-1.01,2.25-4.54,5.15-7.87,9.39-9.79,1.9-.86,3.03-1.8,3.47-4.03,1.95-9.86,4.12-19.67,6.24-29.49.65-3,1.35-5.99,2.06-8.97.47-1.95.03-3.11-1.96-4.23-2.69-1.51-5.11-3.61-7.34-5.77-1.54-1.49-1.03-2.62,1.13-2.82,4.43-.4,8.88-.58,13.32-.86,11.95-.75,23.9-1.49,35.84-2.25,8.27-.53,16.54-1.09,24.81-1.62.74-.05,1.49,0,2.24,0,.22.27.45.55.67.82Z" fill="#7d3543" stroke-width="0"/><path d="M488.14,358.27c-.88,1.29-1.39,2.32-2.16,3.1-3.92,3.98-7.84,7.97-11.91,11.78-1.54,1.44-2.23,1.03-2.74-1.05q-1.08-4.39-5.69-4.24c-2.69.08-5.37.2-8.06.17-2.14-.03-3.15.87-3.59,3-1.93,9.39-4.01,18.75-6.01,28.13-.75,3.53-1.4,7.08-2.14,10.6-.43,2.02,1.17,2.32,2.36,3.11,3.11,2.06,6.15,4.22,9.16,6.41.58.42.93,1.16,1.26,2.47-2.3,0-4.6.04-6.9,0-5.68-.12-11.36-.3-17.04-.43-6.83-.16-13.66-.27-20.49-.44-.64-.02-1.27-.35-1.9-.53.25-.67.3-1.57.78-1.98,2.24-1.95,4.39-4.17,6.98-5.51,2.72-1.41,2.94-3.79,3.46-6.07,2.61-11.52,5.1-23.07,7.63-34.61.68-3.09.21-3.75-2.94-3.7-5.6.1-11.2.2-16.79.48-.98.05-2.03.82-2.85,1.5-.61.51-.89,1.41-1.34,2.12-2.19,3.52-2.88,3.67-5.47.23-2.2-2.92-4.13-6.07-5.83-9.31-1.18-2.24-.62-2.85,1.87-2.87,8.45-.07,16.9-.02,25.35-.22,14.58-.35,29.15-.8,43.73-1.31,6.13-.21,12.25-.68,18.38-1,.81-.04,1.63.08,2.89.16Z" fill="#7d3543" stroke-width="0"/><path d="M629.84,434.91c-10.49-1.33-21.01-2.53-31.48-4.04-4.92-.71-9.76-2.01-14.64-3.06-2.2-.47-2.53-1.23-1.08-2.91,4.63-5.34,10.25-9.45,16.35-12.93,1.7-.97,2.5-.27,2.84,1.53.98,5.23.98,5.5,6.2,6.07,5.93.65,11.93,1.1,17.89.95,7.4-.19,12.35-9.13,8.65-15.39-.99-1.68-3.06-3.17-4.95-3.79-6.18-2.03-12.52-3.61-18.79-5.38-5.97-1.68-12-3.18-17.88-5.14-4.2-1.4-6.26-4.65-6.26-9.2,0-5.65.6-11.18,2.65-16.5,2.61-6.8,7.82-10.85,14.31-13.47,8.8-3.56,18.13-4.47,27.46-5.27,12.29-1.04,24.54-.46,36.78.81.71.07,1.4.46,2.09.7-.32.73-.49,1.57-.98,2.16-6.42,7.7-14.25,13.68-22.91,18.63-1.45.83-2.54.74-2.56-1.31,0-.15-.02-.31-.03-.46-.54-5.79-1.52-6.87-7.48-6.7-5.65.15-11.36.33-16.9,1.32-5.52.98-8.95,8.34-7.04,13.52,1.08,2.94,3.52,3.98,6.18,4.56,8.69,1.91,17.44,3.55,26.1,5.58,3.31.78,6.6,2.02,9.63,3.57,3.58,1.84,5.72,5.24,5.54,9.22-.27,6.02-1.09,12.04-1.96,18.02-.59,4.06-2.2,7.76-4.97,10.94-4.27,4.9-10.02,6.27-16.04,7.02-2.2.27-4.44.28-6.66.41-.03.17-.06.34-.08.52Z" fill="#7d3543" stroke-width="0"/><path d="M38.92,436.72c3.9-6.36,8.44-11.18,14.14-14.59,4.12-2.46,6.23-5.21,6.91-10.25,2.14-15.66,5.02-31.23,7.71-46.81.43-2.51-1.28-2.74-2.84-3.34-4.56-1.76-9.25-3.27-13.62-5.4-4.94-2.41-9.03-6.07-12.37-10.49-.34-.45-.58-.99-1.19-2.05,3.08.22,5.63.34,8.18.61,10.54,1.1,21.06,2.3,31.6,3.35,11.69,1.16,23.4,2.11,35.09,3.3,6.26.64,12.48,1.56,18.26,4.32,6.07,2.89,9.47,7.95,8.64,14.57-.8,6.43-2.04,12.89-3.89,19.09-1.65,5.53-6.16,8.8-11.55,10.75-6.52,2.36-13.32,2.92-20.16,3.2-5.83.24-11.66.45-17.49.62-1.55.05-2.43.68-2.69,2.24-.48,2.88-1,5.75-1.54,8.61-.39,2.02.34,3.04,2.37,3.71,5.6,1.84,10.76,4.53,14.63,9.17.75.9,1.15,2.09,1.71,3.15-1.19.35-2.36.92-3.58,1.03-14.14,1.36-28.28,2.64-42.42,3.95-4.36.4-8.71.85-13.07,1.25-.72.07-1.45,0-2.81,0ZM97.2,390.21s0-.07,0-.11c2.99,0,6,.22,8.97-.05,4.52-.41,8.08-2.59,9.66-7.01.92-2.56,1.34-5.32,1.85-8.01.99-5.15-1.89-9.28-7.12-9.8-5.79-.58-11.61-.81-17.42-1.22-1.99-.14-2.88.74-3.18,2.72-1.06,7.05-2.2,14.08-3.4,21.1-.32,1.86.55,2.37,2.12,2.38,2.84.01,5.68,0,8.52,0Z" fill="#7d3543" stroke-width="0"/><path d="M191.59,356.86c-1.32,4.81-4.36,7.51-8.09,9.75-1.13.68-2.37,1.92-2.65,3.12-1.55,6.65-2.83,13.36-4.2,20.04-1.39,6.76-2.69,13.54-4.22,20.27-.47,2.08.26,3.16,1.68,4.52,2.13,2.04,4.16,4.3,5.72,6.79,1.82,2.9.92,4.05-2.41,4.25-9.27.57-18.52,1.28-27.79,1.88-4.29.28-8.59.45-12.88.63-1.97.08-2.29-.5-1.31-2.3,2.58-4.78,6.13-8.71,10.98-11.15,2.18-1.1,3.05-2.67,3.45-4.75,1.92-10.02,3.77-20.06,5.68-30.08.7-3.69,1.48-7.37,2.28-11.04.42-1.92-.04-3.36-1.61-4.64-2.41-1.98-4.19-4.45-5-7.54-.48-1.84.11-2.62,2.03-2.49,6.43.43,12.87.83,19.3,1.22,4.9.29,9.81.5,14.71.82,1.4.09,2.78.45,4.34.71Z" fill="#7d3543" stroke-width="0"/><path d="M217.82,329.39c-1.53.87-2.98,1.7-4.42,2.52-.22-.14-.45-.27-.67-.41.31-.84.66-2.4.94-2.38,1.3.06,2.65-2.14,4.16.27Z" stroke-width="0"/><path d="M306.19,335.21c-1.3,0-2.62.15-3.89-.07-.53-.09-.94-.94-1.41-1.44.47-.39.92-1.09,1.41-1.11,2.67-.1,5.35-.11,8.02.03.55.03,1.06.84,1.59,1.28-.53.43-1.02,1.15-1.6,1.23-1.35.18-2.74.06-4.12.06,0,0,0,0,0,0Z" stroke-width="0"/><path d="M116.67,324.6c-1.53-.12-3.08-.12-4.58-.41-.54-.11-.93-.93-1.39-1.43.55-.48,1.13-1.39,1.66-1.36,2.68.13,5.35.45,8,.86.47.07.82.89,1.23,1.36-.49.39-.96,1.07-1.48,1.12-1.13.12-2.29-.09-3.44-.16,0,.01,0,.02,0,.03Z" stroke-width="0"/><path d="M438.48,333.87c-1.38,0-2.77.14-4.12-.07-.53-.08-.95-.93-1.42-1.44.5-.37.98-1.02,1.5-1.06,2.59-.17,5.2-.27,7.79-.19.63.02,1.23.81,1.84,1.25-.64.51-1.22,1.32-1.93,1.47-1.17.25-2.43.07-3.66.07,0-.01,0-.03,0-.04Z" stroke-width="0"/><path d="M403.16,341.02c-1.23,0-2.46.09-3.68-.05-.45-.05-.85-.65-1.27-.99.42-.43.83-1.22,1.27-1.24,2.6-.11,5.21-.09,7.82,0,.46.02.9.62,1.35.96-.45.43-.86,1.17-1.36,1.23-1.36.17-2.75.06-4.13.06,0,.01,0,.02,0,.03Z" stroke-width="0"/><path d="M403.17,333.93c-1.15,0-2.32.12-3.44-.05-.52-.08-.96-.72-1.44-1.1.43-.42.85-1.18,1.3-1.2,2.37-.12,4.76-.13,7.13.02.52.03.99.88,1.48,1.35-.52.33-1.02.86-1.58.94-1.13.15-2.3.04-3.45.04Z" stroke-width="0"/><path d="M149.53,324.76c.31.02.61.04.92.05,6.08.28,6.21.45,5.68,6.44-.16,1.82-1.11,2.6-2.88,2.49-2.22-.14-4.45-.25-6.66-.42-.59-.05-1.24-.18-1.74-.48-1.28-.77-1.66-4.17-.84-6.69.54-1.65,1.9-1.55,3.22-1.52.77.01,1.53.07,2.3.1,0,0,0,.01,0,.02Z" stroke-width="0"/><path d="M398.92,206.01c.58,1.31,1.24,2.35,1.46,3.48.13.64-.45,1.42-.72,2.13-.72-.3-1.63-.42-2.11-.94-1.36-1.44-1.05-2.55,1.36-4.67Z" stroke-width="0"/><path d="M242.74,390.21c-2.84,0-5.68,0-8.52,0-1.72,0-2.47-.5-2.02-2.52,1.21-5.38,2.25-10.8,3.2-16.23.31-1.79,1.11-2.59,2.86-2.56,6.06.11,12.13.01,18.18.38,5.63.34,9.71,4.93,7.97,10.77-1.96,6.58-4.67,9.48-11.54,9.97-3.36.24-6.75.04-10.12.04,0,.05,0,.11,0,.16ZM249.39,374.38s0-.06,0-.09c-2.3,0-4.62-.13-6.9.07-.74.07-1.82.88-2.02,1.57-.75,2.57-1.1,5.25-1.79,7.84-.47,1.77.22,2.21,1.79,2.19,3.07-.03,6.15.15,9.21-.05,2.35-.15,4.73-.54,6.98-1.22,2.67-.81,4.09-3.93,3.65-7.19-.27-2.03-1.64-2.94-4.93-3.1-1.99-.1-3.99-.02-5.99-.02Z" fill="#fff" stroke-width="0"/><path d="M349.07,392.82c-3.22,0-6.45.04-9.67-.02-2.26-.04-2.64-.78-1.37-2.68,4.09-6.11,8.25-12.18,12.32-18.3,1.39-2.1,3.38-1.39,5.21-1.3,1.68.08,1.55,1.57,1.82,2.76,1.2,5.39,2.51,10.75,3.65,16.14.65,3.07.31,3.38-2.74,3.4-3.07.01-6.14,0-9.21,0ZM346.41,387.73c.11.24.22.49.32.73,2.78,0,5.56.05,8.33-.06.34-.01.98-.9.91-1.27-.58-3.04-1.3-6.05-1.98-9.07-.27-.09-.54-.19-.82-.28-2.26,3.32-4.51,6.63-6.77,9.95Z" fill="#fff" stroke-width="0"/><path d="M97.2,390.21c-2.84,0-5.68,0-8.52,0-1.57,0-2.43-.52-2.12-2.38,1.2-7.02,2.35-14.06,3.4-21.1.3-1.99,1.19-2.86,3.18-2.72,5.81.41,11.63.64,17.42,1.22,5.22.53,8.11,4.65,7.12,9.8-.52,2.69-.94,5.45-1.85,8.01-1.58,4.42-5.14,6.6-9.66,7.01-2.97.27-5.98.05-8.97.05,0,.04,0,.07,0,.11ZM99.54,385.95s0,0,0-.01c1.77,0,3.54.07,5.3-.01,4.89-.25,7.6-2.8,8.21-7.66.14-1.14.26-2.29.36-3.43.25-2.92-.7-4.24-3.59-4.52-4.27-.41-8.57-.63-12.85-.95-1.18-.09-1.82.3-2.01,1.6-.67,4.48-1.49,8.93-2.12,13.41-.07.46.71,1.46,1.17,1.51,1.83.18,3.68.07,5.53.07Z" fill="#fff" stroke-width="0"/><path d="M249.39,374.38c2,0,4-.08,5.99.02,3.29.16,4.66,1.07,4.93,3.1.43,3.26-.98,6.38-3.65,7.19-2.25.68-4.63,1.07-6.98,1.22-3.06.2-6.14.02-9.21.05-1.57.02-2.26-.42-1.79-2.19.69-2.59,1.04-5.27,1.79-7.84.2-.68,1.28-1.5,2.02-1.57,2.29-.2,4.6-.07,6.9-.07,0,.03,0,.06,0,.09Z" stroke-width="0"/><path d="M346.41,387.73c2.26-3.32,4.51-6.63,6.77-9.95.27.09.54.19.82.28.68,3.02,1.4,6.03,1.98,9.07.07.37-.57,1.25-.91,1.27-2.77.1-5.55.06-8.33.06-.11-.24-.22-.49-.32-.73Z" stroke-width="0"/><path d="M99.54,385.95c-1.84,0-3.7.1-5.53-.07-.45-.04-1.23-1.04-1.17-1.51.63-4.48,1.45-8.94,2.12-13.41.19-1.3.83-1.68,2.01-1.6,4.28.31,8.57.54,12.85.95,2.88.28,3.83,1.6,3.59,4.52-.1,1.15-.21,2.29-.36,3.43-.61,4.86-3.32,7.41-8.21,7.66-1.76.09-3.53.01-5.3.01,0,0,0,0,0,.01Z" stroke-width="0"/><path d="M447.67,140.09c-.43.06-.86.11-1.28.17-1.87-.48-3.69-.33-5.45.48-.94-.81-2-1.19-2.65.15-.63,1.31-1.58,1.48-2.81,1.42-2.66-.13-4.98,1.23-7.44,1.9-4.08,1.11-8.01,2.86-12.21,3.45-1.73.25-3.14,1.1-4.76,1.52-5.62,1.48-10.81,4.16-16.32,5.98-.18.06-.29.34-.5.61.99,1.04,2.17.72,3.11.21,1.18-.63,2.54-.63,3.64-1.1,2.25-.95,4.65-1.2,6.94-1.89,2.65-.8,5.31-1.73,8.17-1.76,1.51-.02,1.93.6,2.03,2.05.26,3.69-1.06,6.62-3.66,9.15-2.92,2.85-6.12,5.27-9.95,6.73-.76.29-1.64.3-2.73.48,1.82,1.56.87,2.69-.19,4.14-2.07,2.81-3.74,5.92-5.75,8.76-2.82,4-4.74,8.46-6.8,12.8-.81,1.7-1.76,3.74-1.86,5.94-.09,1.91-.95,3.74-1,5.77-.07,3.13.67,5.99,1.98,9.1-2.58.79-5.3.92-7.47.14-2.28-.82-4.52-.56-6.74-.94-1.93-.33-3.85-.5-5.77-1.08-1.66-.5-1.66-1.41-1.3-2.57,1.59-5.11,3.67-10.06,6.07-14.81,3.11-6.17,6.47-12.21,10.79-17.69,3.03-3.84,6.16-7.58,9.45-11.18.71-.78.78-1.48.21-2.24-2.11-2.82-1.4-5.86-.74-9.27-6.46,3.13-12.74,6.17-19.02,9.21-.21-.4-.42-.81-.63-1.21,9.63-7.14,20.05-12.98,30.79-18.38,10.68-5.36,21.8-9.57,33.3-12.55,11.61-3.01,23.39-5.42,35.31-7.3-2.41-.46-4.91-1.02-7.18-.02-1.17.51-2.22.84-3.45.87-3.26.09-6.55-.32-9.68,1.27-1.3.66-2.93.94-4.47.29-.64-.27-1.21-.09-1.67.4-.51.53-1.11.78-1.85.76-3.73-.07-7.12,1.8-10.7,2.11-2.56.22-4.73,1.39-7.18,1.8-2.9.49-5.69,1.75-8.45,2.87-5.98,2.44-11.84,5.17-17.57,8.16-.66.35-1.15.28-1.55-.42,1.6-2.85,4.51-4.16,7.05-5.69,2.62-1.58,5.26-3.2,8.12-4.45,3.48-1.52,6.92-3.17,10.46-4.57,3.58-1.42,7.27-2.61,10.91-3.77,2.13-.68,4.45-1.38,6.69-1.92,2.31-.56,5.09-.03,7.05-1.96.05-.05.15-.1.21-.09,3.06.63,5.81-1.02,8.54-1.7,3.75-.93,7.61-.72,11.33-1.85,2.56-.78,5.5-.24,8.21-.66,8.96-1.37,17.97-.91,26.97-.95.38,0,.77-.02,1.03-.46-.32-1.05-1.24-.63-1.89-.64-9.82-.03-19.68-.54-29.45.47-3.78.39-7.87-.13-11.23,1.12-3.67,1.37-7.46.53-11.11,2.05-2.37.99-5.42,1.14-8.15,1.73-2.41.52-4.77,1.25-7.14,1.88-2.09.55-4.05,1.48-6.18,1.95-2.91.64-5.72,1.78-8.49,2.91-3.39,1.38-6.74,2.87-10.01,4.51-3.51,1.76-6.96,3.64-10.32,5.67-4.47,2.7-9.18,5.02-13.37,8.17-.66.49-1.29.37-1.77-.5.48-1.34,1.67-2.06,2.78-2.81,5.04-3.42,9.98-6.99,15.17-10.15,5.01-3.05,10.06-6.02,15.52-8.31,2.61-1.09,5.26-2.2,7.84-3.43,2.69-1.28,5.67-2.05,8.59-2.76,3.62-.87,7.27-1.61,10.88-2.46,2.5-.59,5.1-1.27,7.64-1.84,2.52-.57,5.34-.26,7.61-1.9.12-.09.29-.2.42-.18,3.59.6,6.86-1.09,10.26-1.65,5.91-.97,11.91-.5,17.68-1.43,4.68-.76,9.35-1.16,13.83-.56,5.78.78,11.57.27,17.26,1.01,2.89.37,5.94.6,8.66,1.39,3.6,1.05,7.27,2.05,10.87,3.2,4.66,1.5,9.03,3.55,13.45,5.56,1.86.84,3.67,1.9,5.2,3.31,2.58,2.37,2.69,4.42,1.72,7.81-.7,2.44-1.15,4.98-2.06,7.38-1.49.87-2.02,2.4-2.64,3.87-1.75,4.17-4.01,7.99-7.54,10.94-.3-1.16-1.29-1.67-2.16-2.28-2.86-2.02-5.47-4.35-8.36-6.35-3.54-2.46-7.18-4.71-11.04-6.61-2.28-1.13-4.62-2.08-7.1-2.79-3-.87-5.86-2.47-9.06-2.27-9.24.56-18.53-1.23-27.77,1.14-4.54,1.16-9.43-.46-14.18,1.31-2.6.97-5.79.6-8.72,1.02-3.66.53-7.22,1.8-11,1.68-.74-.02-2.48.27-1.6,2.04-.19.2-.38.41-.57.61ZM391.72,177.57c-5.77,2.69-15.74,20.1-14.12,24.65,1.95-1.71,14.37-23.39,14.12-24.65Z" fill="#7d3543" stroke-width="0"/><path d="M424.12,307.2c.58-7.48-3.1-13.04-6.76-18.81-.9,1.01-.27,1.49-.02,2.11,1.6,3.99,3.62,7.86,3.17,12.4-.21,2.16-.89,2.77-2.72,1.57-5.08-3.34-9.41-7.51-12.81-12.6-2.59-3.88-3.48-8.4-4.95-12.71-.21-.63-.12-1.37-.12-2.06-.01-4.53-.21-9.07.05-13.59.2-3.58.76-7.14,2.07-10.56.63-1.65.75-3.48,1.31-5.23.87-2.75,2.18-5.22,3.31-7.96,6.33,2.49,11.98,5.92,16.8,10.61,4.22,4.1,8.56,8.13,11.58,13.26,2.4,4.07,4.36,8.3,5.96,12.8,1.38,3.88,2.22,7.9,3.47,11.8.82,2.55,1.47,5.41,1.52,8.19.08,4.95,1.65,9.74,1.33,14.75-.14,2.2-.84,3.03-2.85,2.6-3.58-.76-7.23-1.29-10.61-2.8-.78-.35-.77-1.07-.77-1.77,0-1.54-.23-3.11.03-4.6.58-3.33-.95-6.37-1.71-9.31-1.1-4.24-3.43-8.23-6.07-11.98-2.75-3.9-5.55-7.73-9.2-10.75-2.22-1.84-4.04-4.24-6.97-5.72-.08,1.71.92,2.49,1.61,3.42,3.24,4.34,7.45,7.89,10.38,12.48,2.36,3.7,3.71,7.66,4.73,12.04.89,3.82-.68,7-.37,10.47.05.56.22,1.27-1.4,1.94Z" fill="#7d3543" stroke-width="0"/></g></svg>