<?xml version="1.0" encoding="UTF-8"?><svg id="b" xmlns="http://www.w3.org/2000/svg" viewBox="0 0 700 726.59"><g id="c"><path d="M700,631.58c-2.98-7.54-7.33-13.96-14.62-18.01-5.98-3.32-12.44-4.95-19.19-5.67-11.07-1.17-21.92.7-32.8,2.23-17.37,2.44-34.7,5.15-51.81,9.11-.54.12-1.11.09-1.85.14.59-1.76,1.83-2.87,2.78-4.15,6.89-9.32,13.37-18.86,17.3-29.89,1.24-3.49,2.04-7.08,2.61-10.74.43-2.79-.35-5.36-1.3-7.91-7.86-21.16-21.85-37.49-39.96-50.5-12.88-9.26-24.74-19.7-36.29-30.52-7.96-7.45-15.18-15.6-22.36-23.81-7.99-9.13-9.94-19.53-9.1-31.07.47-6.49,2.34-12.73,3.05-19.16,1.24-11.37.41-22.45-5.28-32.72-1.6-2.88-3.67-5.41-6.01-7.73-10.03-9.97-17.16-21.71-20.68-35.42-3.48-13.61.54-24.5,12.2-32.3,8.14-5.45,15.52-11.8,23.01-18.03,12.36-10.26,24.49-20.78,35.97-32.03,3.69-3.62,7.21-7.39,10.56-11.33,1.2-1.41,1.87-3.05,2.5-4.75,2.92-7.94,5.3-16.04,6.37-24.45.24-1.89.75-2.38,2.64-2.31,12.22.47,24.44.32,36.59-1.31,16.12-2.17,31.72-6.05,45.93-14.29,11.94-6.92,20.88-16.51,27.21-28.91,4.23-8.29,8.34-16.51,10.42-25.62,4.47-19.55,2.6-38.66-4.47-57.24-8.2-21.54-20.53-40.5-37.66-55.99-13.98-12.64-30.73-20.14-49.06-24.24-5.93-1.32-11.95-2.07-18-2.59-.55-.05-1.17.14-1.61-.37-7.88,0-15.75,0-23.63,0,.09,1.42-1.06.85-1.66.92-6.59.82-13.11,2.01-19.63,3.28-5.28,1.03-9.71,3.87-14.4,6.16-1.71.84-3.06.86-4.81.12-22.64-9.69-45.02-8.48-67.1,1.89-6.33,2.97-12.09,6.86-17.82,10.85-7.07,4.93-10.98,12.1-14.43,19.53-12.27,26.44-11.34,53.04-.45,79.66.62,1.52,1.15,3.09,1.99,4.49,1.04,1.74.38,2.66-1.09,3.57-3.43,2.13-7.22,3.23-11.17,3.41-13.45.63-26.82,1.93-40.07,4.41-18.84,3.52-37.19,8.62-54.39,17.28-3.8,1.91-7.51,4.03-11.1,6.31-1.59,1-2.85,1.08-4.51.39-4.8-1.99-9.8-3.24-15.02-3.36-12.19-.29-19.96,6.62-21.22,18.8-.37,3.61-.31,7.21.03,10.8.22,2.37,1.26,4.37,3.1,5.92,5.64,4.75,11.31,9.48,16.91,14.28,1.78,1.53,3.93,2.35,5.9,3.51,3.8,2.23,3.96,3.46,3.3,7.74-1.43,9.31-2.92,18.68-.24,28.05.47,1.64.18,3-.9,4.34-2.18,2.69-4.78,4.94-7.32,7.27-.51.47-1.13.6-1.78.74-5.93,1.26-9.17,4.91-9.62,10.79-.47,6.2.98,12.09,3.22,17.76.87,2.2,2.96,3.7,5.32,4.41,5.74,1.72,9.78,5.03,12.28,10.71,9.3,21.16,15.3,43.2,18.48,66.06.22,1.57-.09,2.12-1.82,2.11-10.17-.08-20.35-.03-30.52-.03-6.12,0-11.05-4.02-12.39-10.04-.81-3.63-.38-7.19.63-10.69,1.22-4.28,3.01-8.32,5.48-12.03,12.3-18.43,9.74-38.38-6.98-53.18-2.09-1.85-3.57-3.93-4.81-6.37-4.9-9.67-10.3-19.04-17.87-26.96-3.3-3.46-6.93-6.48-11.58-8.07-3.15-1.08-6-.86-8.94.83-14.92,8.57-29.9,17.03-44.86,25.53-.56.32-1.14.6-1.95,1.03-.2-2.58.55-4.85.98-7.08,1.52-7.89-1.39-13.84-7.31-18.86-8.74-7.41-18.47-13.31-28.44-18.83-8.32-4.61-16.66-9.31-25.8-12.02-5.88-1.74-12-3.66-18.33-1.74-4.8,1.45-8.84,4.27-12.6,7.47-11.72,9.98-21.7,21.62-31.63,33.3-5.31,6.24-10.28,12.76-15.1,19.4-1.44,1.99-2.26,4.1-2.5,6.54-2.38,24.81-4.78,49.62-7.21,74.43-2.2,22.44-4.46,44.87-6.66,67.31-1.4,14.28-2.74,28.57-4.15,42.85C.77,466.37.95,467.88,0,469.13c0,4.27,0,8.53,0,12.8,1.05-.14.88.62.98,1.26,1.27,8.41,8.24,12.81,16.4,10.39,4.98-1.47,9.37-4.12,13.07-7.6,4.87-4.57,10.83-6.59,16.94-8.47,7.56-2.32,15.25-2.16,23.09-2.05,26.49.37,52.98.21,79.47.06,3.82-.02,6.91.19,8.05,4.48.04.15.2.26.29.39,6.44,9.56,15.89,13.19,26.69,11.38,12.26-2.05,24.48-1.52,36.74-1.72,2.79-.04,5.58-.03,8.37,0,.68,0,1.42-.19,2.08.36-.62.99-1.64,1.18-2.48,1.6-31.59,15.57-63.04,31.44-93.57,49.03-11.49,6.62-22.95,13.32-33.12,21.98-8.39,7.15-12.71,15.92-11.07,27.09,1.02,6.9,4.26,12.86,8.47,18.32,7.3,9.48,16.63,16.67,26.43,23.32.67.45,1.53.74,1.95,1.8-8.96-.64-17.72-1.14-26.49-.97-12.98.25-25.89,1.19-38.31,5.42-7.89,2.69-15.09,6.53-19.9,13.66-4.18,6.19-5.94,12.72-2.14,19.85,1.5,2.82,2.68,5.81,4.26,8.58,14.81,25.99,36.48,41.98,66.63,45.56.84.1,1.76.15,2.36.94,6.56,0,13.13,0,19.69,0,3.9-1.27,8.01-1.59,12.01-1.8,16.71-.85,33.38-2.15,50-4.05,22.01-2.51,43.89-5.72,65.22-11.92,10.17-2.95,20.15-6.45,28.87-12.73,5.69-4.1,10.22-9.07,10.96-16.44.64-6.33-1.76-11.93-4.87-17.2-5.36-9.08-12.78-16.36-20.71-23.17-3.74-3.22-6.44-7.28-9.12-11.41,1.17-.64,1.9-.05,2.62.2,5.95,2.08,11.94,4.08,17.82,6.36,6.11,2.38,12.29,3.72,18.92,3.38,6.46-.33,12.96-.19,19.44-.03,4.71.12,7.9-1.81,9.99-5.99,1.09-2.19,2.41-4.3,3.8-6.32,3.74-5.42,7.78-10.57,13.51-14.1,5.9-3.63,11.26-2.75,15.6,2.54,3.39,4.13,7.13,7.91,11.38,11.17,6.37,4.9,13.41,7.67,21.6,7.5,9.68-.19,19.36-.07,29.04-.04,1.86,0,3.55-.39,5.18-1.27,8.31-4.46,13.99-11.2,17.32-19.97,1.24-3.25,4-3.83,6.28-1.13,1.62,1.92,3.5,3.34,5.76,4.43,4.92,2.38,6.44,6.2,4.74,11.41-.85,2.59-2.33,4.87-3.45,7.33-4.83,10.5-8.7,21.25-8.57,33.03.16,13.35,7.84,22.25,21.06,24.32,23.32,3.64,46.64,7.22,69.97,10.83,21.14,3.27,42.29,6.46,63.41,9.87,11.26,1.82,22.48,2.59,33.75.44,15.66-2.99,27.56-10.63,32.41-26.76.18-.6.62-1.15,1.04-1.64,8.51-9.98,13.85-21.56,17.35-34.11,1.09-3.92,1.38-8.03,2.81-11.86v-5.91ZM503.79,22.08c-.97,1.22-1.87,2.39-2.81,3.52-10.39,12.57-21.41,24.61-32.41,36.63-16.22,17.74-22.48,39.4-26.11,62.27-.53,3.34,1.31,5.79,4.18,6.12,3.18.37,5.24-1.33,5.89-4.85.63-3.38,1.28-6.76,1.9-10.15,3.43-18.82,11.11-35.43,24.31-49.59,10.44-11.2,20.76-22.56,30.48-34.41,3.07-3.74,6.48-7.42,7.71-12.15.8-3.08,2.69-4.1,5.16-4.7,17.69-4.28,35.58-5.92,53.68-3.38,22.76,3.19,43.04,11.98,58.91,28.86,13.7,14.57,24.32,31.32,30.61,50.5,5.11,15.57,6.29,31.41,2.63,47.52-2.04,8.99-6.26,17-10.59,25.03-3.87,7.19-8.88,13.25-15.33,18.2-9.27,7.12-19.87,11.41-31.07,14.23-18.2,4.6-36.72,5.68-55.41,4.57-1.44-.09-2.23-.92-3.07-1.78-12.77-13.1-27.06-24.29-42.69-33.76-.69-.42-1.39-.75-1.65-1.69-.87-3.24-1.91-6.43-2.76-9.67-3.14-11.96-4.47-23.95-1.35-36.2,2.13-8.37,7.22-14.15,14.92-17.36,6.53-2.72,13.6-3.6,20.71-3.75,9.21-.19,18.09,1.51,26.81,4.37,2.99.98,5.69-.4,6.57-3.07.94-2.86-.42-5.57-3.46-6.6-8.83-2.99-17.89-4.58-27.24-4.91-12.75-.45-24.56,3.59-36.5,7.09-3.4,1-6.55,2.6-9.57,4.43-17,10.3-30.32,24.39-41.51,40.62-1.22,1.77-2.23,2.09-4.19,1.45-2.95-.96-6.01-1.64-9.05-2.28-5.69-1.21-11.36-2.56-17.19-2.85-2.86-.14-4.84,1.74-5.16,4.51-.3,2.62,1.43,4.93,4.2,5.46,1.61.3,3.25.41,4.87.68,26.64,4.42,51.4,13.96,74.65,27.54,14.91,8.71,28.43,19.26,40.7,31.44,1.53,1.52,1.94,3.02,1.75,5.02-.61,6.4-2.35,12.54-4,18.72-1.48,5.58-4.46,10.01-8.47,14.08-11.39,11.59-23.59,22.29-36.02,32.72-8.71,7.31-17.39,14.65-26.77,21.18-14.35,10-19.49,24.1-15.74,41.1,3.57,16.2,12,29.81,23.56,41.56,1.56,1.58,3.07,3.19,4.17,5.14,5.43,9.69,5.73,20.1,3.68,30.6-1.53,7.85-2.79,15.67-2.47,23.66.25,6.29.16,12.67,3.4,18.42,1.85,3.29,3.81,6.52,6.12,9.5,17.5,22.51,38.71,41.16,61.5,58.03,16.45,12.18,29.7,26.67,37.13,46.01.83,2.16.96,4.25.45,6.48-2.18,9.53-6.98,17.81-12.38,25.78-5.71,8.43-12.17,16.27-19.25,23.59-.97,1.01-1.17,1.74-.22,2.9,1.4,1.71,2.66,3.54,3.88,5.39.68,1.03,1.32,1.12,2.43.63,5.73-2.51,11.79-3.97,17.86-5.37,17.27-3.98,34.77-6.67,52.3-9.14,10.23-1.44,20.46-3.14,30.84-1.65,6.43.92,12.5,2.74,17.3,7.44,2.81,2.76,5.48,5.94,4.89,10.03-2.11,14.67-7.05,28.29-16.57,39.9-2.02,2.46-3.56,5.01-4.49,8.05-1.6,5.18-4.73,9.31-9.23,12.37-7.41,5.03-15.83,6.42-24.53,6.84-12.42.61-24.46-2.33-36.59-4.14-30.39-4.55-60.74-9.4-91.11-14.13-9.15-1.43-18.32-2.74-27.44-4.35-6.79-1.2-10.23-5.24-11-12-.57-4.99.29-9.8,1.52-14.59,1.91-7.42,5.13-14.3,8.47-21.17,5.34-10.96,2.36-22-8.96-27.28-.84-.39-1.46-1.02-2.07-1.7-4.6-5.11-10.02-6.38-16.47-4.1-3.53,1.25-5.7,3.5-6.78,7.13-1.77,5.93-5.41,10.58-10.42,14.21-1.46,1.06-2.96,1.55-4.78,1.54-9.6-.06-19.2-.06-28.8,0-2.86.02-5.52-.64-8.06-1.86-6.59-3.18-11.6-8.23-15.99-13.91-1.65-2.13-3.57-3.82-5.94-5.03-9.25-4.71-17.65-2.6-25.47,3.33-7.33,5.55-12.49,12.93-17.03,20.78-.79,1.36-1.58,1.95-3.22,1.93-7.87-.1-15.75-.05-23.63-.04-1.07,0-2.12-.07-3.15-.43-7.95-2.82-15.9-5.64-23.86-8.43-3.48-1.22-6.95-2.49-10.73-2.38-5.18.16-8.3,3.72-7.8,8.89.23,2.34,1.11,4.46,2.28,6.44,3.68,6.24,7.82,12.11,13.52,16.72,3.06,2.48,5.87,5.26,8.53,8.15,4.85,5.27,9.32,10.78,11.53,17.8,1.17,3.73.49,6.9-2.08,9.8-2.66,3-5.93,5.14-9.42,6.99-8.68,4.59-18,7.45-27.47,9.85-19.59,4.98-39.54,7.78-59.6,10.02-21.6,2.41-43.29,3.71-64.95,5.23-14.9,1.04-29.21-2.24-42.31-9.75-16.52-9.46-27.67-23.55-34.93-40.94-.54-1.3-.49-2.53-.07-3.82,2.22-6.79,7.57-10.29,13.71-12.84,10.23-4.25,21.08-5.4,32-5.88,16.76-.73,33.43.49,50.04,2.74,2.41.33,5.26,1.82,7.14.66,1.86-1.16,1.67-4.44,2.74-6.63.99-2.01.12-2.84-1.6-3.71-10.16-5.2-19.98-10.98-29.1-17.84-7.96-5.99-15.44-12.5-20.39-21.37-4.93-8.84-4.13-17.48,2.25-23.75,2.22-2.18,4.57-4.22,7.09-6.07,9.93-7.29,20.53-13.52,31.23-19.57,34.75-19.67,70.49-37.41,106.36-54.91,2.04-1,4.93-1.35,5.85-3.28.92-1.94-.9-4.37-1.07-6.63-.18-2.4-1.39-2.79-3.55-2.78-17.64.08-35.28.08-52.92.03-3.95-.01-7.83.18-11.67,1.28-2.6.74-5.32.88-8.05.8-7.75-.24-12.7-3.75-15.49-11.02-1.02-2.67-4.93-5.37-7.79-5.37-28.3,0-56.61,0-84.91,0-.74,0-1.49.07-2.21-.05-8.79-1.46-17.34-.13-25.75,2.33-7.24,2.12-14.34,4.5-19.97,10.03-2.67,2.63-5.96,4.61-9.57,5.89-2.03.72-3.31.13-3.85-2.03-.65-2.57-.89-5.19-.65-7.81.98-10.45,2.01-20.89,3.03-31.34,1.91-19.5,3.82-39.01,5.72-58.51,1.71-17.46,3.41-34.93,5.12-52.39,1.58-16.16,3.19-32.31,4.72-48.48.19-1.98.92-3.56,2.07-5.12,9.07-12.38,18.99-24.05,29.5-35.23,5.67-6.04,11.33-12.09,18.2-16.82,2.23-1.54,4.63-3.26,7.42-2.83,3.54.54,7.19.8,10.58,2.07,10.78,4.04,20.86,9.53,30.73,15.39,7.4,4.4,14.71,8.94,20.94,14.99,1.77,1.72,2.63,3.59,2.39,6.12-.26,2.79-.79,5.51-1.39,8.23-1.82,8.35-4.83,16.3-7.76,24.3-1.82,4.98-3.38,10.08-5.2,15.08-1.04,2.85-2.89,4.64-5.49,5.94-4.39,2.2-9.09,3.65-13.9,3.8-4.81.15-7.56,2.25-9.41,6.39-.53,1.17-.66,2.01-.13,3.17,8.78,19.41,17.51,38.85,26.3,58.25,1.32,2.92,3.9,4.5,6.98,4.58,7.46.18,14.93.07,22.4.05,2.42,0,6.7-4.33,6.71-6.75.02-7.3,0-14.6.02-21.91,0-2.88-.26-5.74-.79-8.56-2.48-13.14-7.92-25.16-14.48-36.64-4.44-7.76-5.66-15.23-1.85-23.57,2.2-4.81,5.14-8.92,9.57-11.51,15.93-9.29,32.02-18.28,48.03-27.43,1.24-.71,2.27-.69,3.43,0,2.79,1.64,5.11,3.82,7.22,6.24,5.92,6.78,10.51,14.45,14.45,22.48,1.98,4.04,4.47,7.42,7.88,10.44,12.45,11.06,14.21,25.4,5.09,39.02-3.55,5.3-6.13,11.05-7.54,17.24-2.18,9.6-.89,18.49,6.48,25.67,3.25,3.16,6.88,6.04,11.73,6.07,13.45.09,26.91.03,40.36.03.92,0,1.7-.15,2.47-.82,3.21-2.81,5.18-6,3.69-10.46-.2-.61-.21-1.29-.3-1.94-3.07-23.98-9.49-47-19.17-69.17-3.37-7.71-8.69-12.93-16.54-15.73-.65-.23-1.48-.31-1.73-1.2-.94-3.4-1.95-6.78-1.85-10.37.04-1.39.53-2.21,2.08-2.51,1.33-.26,2.82-.29,3.95-1.22,4.05-3.35,8.05-6.75,11.19-11.01,2.39-3.24,3.59-6.86,2.53-10.88-2.36-8.9-1.45-17.69.55-26.49.31-1.36.5-2.73.41-4.14-.43-6.57-4.59-10.42-9.82-13.46-1.62-.94-3.33-1.71-4.78-2.98-3.27-2.86-6.35-6.07-10.02-8.3-5.83-3.55-6.38-8.5-5.15-14.33.03-.16.04-.33.07-.49,1.07-5.18,3.91-7.62,9.21-7.81,5.13-.19,9.87,1.4,14.51,3.32,3.65,1.51,7.07,1.68,10.36-.85,1.1-.85,2.32-1.54,3.52-2.25,23.7-14.03,49.88-19.93,76.78-23.55,8.22-1.11,16.55-.9,24.75-2.01,7.14-.97,13.66-3.4,18.43-9.27,2.47-3.05,2.58-6.16.92-9.58-1.33-2.72-2.59-5.49-3.69-8.31-9.19-23.56-9.67-46.99,1.33-70.15,2.24-4.72,4.52-9.58,8.6-13.04,4.75-4.04,10-7.42,15.54-10.32,16.97-8.89,34.69-11.48,53.33-6.31,4.51,1.25,8.72,3.26,13.18,5.33ZM159.62,367.83c0,4.82-.04,8.27.02,11.71.02,1.31-.33,1.92-1.79,1.89-4.59-.08-9.18-.07-13.78-.01-1.24.01-1.89-.42-2.4-1.57-7.26-16.22-14.54-32.43-21.88-48.61-.76-1.67-.47-2.12,1.36-2.44,7.9-1.39,15.55-3.43,21.3-9.62.8-.86,1.17-.45,1.59.35,1.19,2.24,2.51,4.42,3.63,6.69,6.69,13.57,13.37,27.15,11.95,41.6ZM490.69,154.37c-7.48-3.53-14.56-6.48-21.75-9.14-1.72-.63-.78-1.44-.24-2.18,5.44-7.49,11.54-14.41,18.29-20.74.32-.3.68-.76,1.38-.33-.4,5.23-.73,10.51-.27,15.84.46,5.38,1.41,10.66,2.59,16.56Z" fill="#c4092f" stroke-width="0"/><path d="M503.79,22.08c-4.45-2.07-8.67-4.08-13.18-5.33-18.64-5.17-36.36-2.58-53.33,6.31-5.54,2.9-10.78,6.28-15.54,10.32-4.08,3.47-6.36,8.32-8.6,13.04-11,23.16-10.51,46.59-1.33,70.15,1.1,2.82,2.37,5.58,3.69,8.31,1.66,3.42,1.55,6.54-.92,9.58-4.77,5.87-11.28,8.3-18.43,9.27-8.21,1.11-16.53.91-24.75,2.01-26.9,3.62-53.08,9.52-76.78,23.55-1.2.71-2.42,1.4-3.52,2.25-3.29,2.53-6.71,2.36-10.36.85-4.64-1.92-9.38-3.51-14.51-3.32-5.3.2-8.15,2.63-9.21,7.81-.03.16-.04.33-.07.49-1.23,5.83-.68,10.78,5.15,14.33,3.67,2.23,6.75,5.45,10.02,8.3,1.45,1.26,3.15,2.03,4.78,2.98,5.23,3.04,9.4,6.88,9.82,13.46.09,1.41-.1,2.78-.41,4.14-2,8.79-2.91,17.59-.55,26.49,1.07,4.02-.14,7.63-2.53,10.88-3.14,4.26-7.15,7.66-11.19,11.01-1.13.93-2.62.96-3.95,1.22-1.54.3-2.04,1.12-2.08,2.51-.11,3.59.91,6.97,1.85,10.37.25.9,1.08.97,1.73,1.2,7.84,2.81,13.17,8.03,16.54,15.73,9.68,22.17,16.1,45.19,19.17,69.17.08.65.09,1.33.3,1.94,1.48,4.46-.48,7.65-3.69,10.46-.76.67-1.55.82-2.47.82-13.45,0-26.91.06-40.36-.03-4.84-.03-8.48-2.91-11.73-6.07-7.37-7.18-8.66-16.07-6.48-25.67,1.41-6.19,3.99-11.94,7.54-17.24,9.12-13.62,7.36-27.96-5.09-39.02-3.4-3.02-5.89-6.39-7.88-10.44-3.94-8.03-8.53-15.7-14.45-22.48-2.12-2.42-4.43-4.6-7.22-6.24-1.16-.68-2.2-.7-3.43,0-16.01,9.15-32.11,18.14-48.03,27.43-4.44,2.59-7.38,6.69-9.57,11.51-3.81,8.34-2.59,15.81,1.85,23.57,6.56,11.48,12,23.5,14.48,36.64.53,2.82.8,5.68.79,8.56-.03,7.3,0,14.6-.02,21.91,0,2.43-4.29,6.74-6.71,6.75-7.47.02-14.93.13-22.4-.05-3.08-.07-5.66-1.66-6.98-4.58-8.79-19.41-17.52-38.84-26.3-58.25-.52-1.16-.39-2,.13-3.17,1.85-4.14,4.6-6.25,9.41-6.39,4.81-.15,9.51-1.6,13.9-3.8,2.6-1.3,4.45-3.09,5.49-5.94,1.82-5,3.38-10.1,5.2-15.08,2.93-8.01,5.94-15.96,7.76-24.3.59-2.72,1.12-5.44,1.39-8.23.24-2.53-.62-4.4-2.39-6.12-6.24-6.05-13.54-10.59-20.94-14.99-9.87-5.86-19.95-11.35-30.73-15.39-3.39-1.27-7.04-1.53-10.58-2.07-2.79-.43-5.19,1.29-7.42,2.83-6.87,4.73-12.53,10.78-18.2,16.82-10.5,11.18-20.43,22.85-29.5,35.23-1.14,1.56-1.88,3.14-2.07,5.12-1.52,16.16-3.14,32.32-4.72,48.48-1.71,17.46-3.41,34.93-5.12,52.39-1.91,19.5-3.82,39.01-5.72,58.51-1.02,10.44-2.06,20.89-3.03,31.34-.24,2.62,0,5.24.65,7.81.55,2.15,1.82,2.75,3.85,2.03,3.61-1.28,6.9-3.26,9.57-5.89,5.62-5.53,12.73-7.91,19.97-10.03,8.41-2.46,16.96-3.8,25.75-2.33.72.12,1.47.05,2.21.05,28.3,0,56.61,0,84.91,0,2.86,0,6.76,2.7,7.79,5.37,2.79,7.28,7.74,10.78,15.49,11.02,2.73.09,5.45-.06,8.05-.8,3.84-1.1,7.72-1.29,11.67-1.28,17.64.05,35.28.06,52.92-.03,2.16-.01,3.37.38,3.55,2.78.17,2.27,1.98,4.7,1.07,6.63-.92,1.93-3.8,2.29-5.85,3.28-35.87,17.49-71.61,35.24-106.36,54.91-10.7,6.06-21.3,12.28-31.23,19.57-2.52,1.85-4.87,3.89-7.09,6.07-6.37,6.26-7.18,14.9-2.25,23.75,4.95,8.87,12.42,15.39,20.39,21.37,9.13,6.86,18.95,12.64,29.1,17.84,1.72.88,2.59,1.71,1.6,3.71-1.08,2.19-.88,5.47-2.74,6.63-1.87,1.17-4.72-.33-7.14-.66-16.61-2.24-33.28-3.47-50.04-2.74-10.92.48-21.77,1.62-32,5.88-6.14,2.55-11.49,6.05-13.71,12.84-.42,1.29-.47,2.52.07,3.82,7.26,17.39,18.41,31.48,34.93,40.94,13.1,7.5,27.41,10.79,42.31,9.75,21.66-1.52,43.35-2.81,64.95-5.23,20.06-2.24,40.01-5.04,59.6-10.02,9.46-2.41,18.78-5.26,27.47-9.85,3.49-1.85,6.76-3.99,9.42-6.99,2.57-2.9,3.25-6.07,2.08-9.8-2.21-7.02-6.68-12.53-11.53-17.8-2.66-2.89-5.47-5.67-8.53-8.15-5.7-4.62-9.84-10.49-13.52-16.72-1.17-1.98-2.05-4.1-2.28-6.44-.5-5.17,2.62-8.73,7.8-8.89,3.78-.12,7.25,1.15,10.73,2.38,7.96,2.8,15.91,5.61,23.86,8.43,1.03.36,2.07.43,3.15.43,7.88-.01,15.75-.06,23.63.04,1.64.02,2.44-.57,3.22-1.93,4.54-7.85,9.71-15.23,17.03-20.78,7.82-5.92,16.22-8.04,25.47-3.33,2.37,1.21,4.29,2.89,5.94,5.03,4.4,5.68,9.4,10.73,15.99,13.91,2.54,1.23,5.2,1.88,8.06,1.86,9.6-.05,19.2-.05,28.8,0,1.82.01,3.33-.48,4.78-1.54,5.01-3.62,8.65-8.28,10.42-14.21,1.08-3.63,3.25-5.87,6.78-7.13,6.45-2.28,11.87-1.02,16.47,4.1.61.68,1.23,1.31,2.07,1.7,11.32,5.28,14.29,16.33,8.96,27.28-3.34,6.87-6.56,13.75-8.47,21.17-1.23,4.78-2.09,9.6-1.52,14.59.77,6.77,4.21,10.81,11,12,9.12,1.61,18.29,2.92,27.44,4.35,30.37,4.73,60.72,9.57,91.11,14.13,12.14,1.82,24.17,4.75,36.59,4.14,8.7-.42,17.12-1.81,24.53-6.84,4.51-3.06,7.63-7.19,9.23-12.37.94-3.04,2.47-5.59,4.49-8.05,9.53-11.61,14.46-25.23,16.57-39.9.59-4.08-2.08-7.27-4.89-10.03-4.8-4.7-10.87-6.52-17.3-7.44-10.38-1.49-20.61.21-30.84,1.65-17.53,2.47-35.03,5.16-52.3,9.14-6.07,1.4-12.13,2.86-17.86,5.37-1.11.49-1.75.4-2.43-.63-1.22-1.85-2.48-3.68-3.88-5.39-.96-1.16-.76-1.89.22-2.9,7.07-7.32,13.53-15.16,19.25-23.59,5.4-7.97,10.2-16.24,12.38-25.78.51-2.24.38-4.32-.45-6.48-7.44-19.34-20.69-33.83-37.13-46.01-22.79-16.87-43.99-35.52-61.5-58.03-2.32-2.98-4.27-6.21-6.12-9.5-3.24-5.75-3.15-12.14-3.4-18.42-.32-7.99.94-15.81,2.47-23.66,2.05-10.5,1.75-20.91-3.68-30.6-1.09-1.95-2.61-3.56-4.17-5.14-11.56-11.75-19.99-25.36-23.56-41.56-3.75-17,1.4-31.11,15.74-41.1,9.38-6.53,18.06-13.87,26.77-21.18,12.43-10.43,24.63-21.13,36.02-32.72,4-4.07,6.98-8.5,8.47-14.08,1.64-6.18,3.38-12.32,4-18.72.19-2-.23-3.5-1.75-5.02-12.27-12.17-25.78-22.73-40.7-31.44-23.25-13.58-48.01-23.12-74.65-27.54-1.62-.27-3.26-.38-4.87-.68-2.77-.52-4.5-2.83-4.2-5.46.32-2.77,2.31-4.65,5.16-4.51,5.83.29,11.51,1.64,17.19,2.85,3.04.65,6.1,1.32,9.05,2.28,1.96.64,2.97.32,4.19-1.45,11.19-16.23,24.51-30.32,41.51-40.62,3.02-1.83,6.17-3.43,9.57-4.43,11.94-3.5,23.75-7.54,36.5-7.09,9.35.33,18.41,1.92,27.24,4.91,3.04,1.03,4.4,3.74,3.46,6.6-.87,2.67-3.58,4.05-6.57,3.07-8.72-2.86-17.6-4.56-26.81-4.37-7.11.15-14.17,1.03-20.71,3.75-7.69,3.21-12.78,8.99-14.92,17.36-3.12,12.25-1.79,24.24,1.35,36.2.85,3.24,1.89,6.44,2.76,9.67.25.94.96,1.27,1.65,1.69,15.64,9.47,29.92,20.66,42.69,33.76.84.86,1.63,1.7,3.07,1.78,18.69,1.11,37.21.03,55.41-4.57,11.2-2.83,21.8-7.12,31.07-14.23,6.45-4.95,11.46-11.01,15.33-18.2,4.33-8.03,8.54-16.03,10.59-25.03,3.66-16.11,2.48-31.94-2.63-47.52-6.29-19.18-16.91-35.93-30.61-50.5-15.87-16.88-36.15-25.67-58.91-28.86-18.1-2.54-35.99-.9-53.68,3.38-2.47.6-4.36,1.62-5.16,4.7-1.23,4.74-4.65,8.42-7.71,12.15-9.73,11.85-20.04,23.21-30.48,34.41-13.2,14.16-20.88,30.77-24.31,49.59-.62,3.38-1.27,6.76-1.9,10.15-.65,3.52-2.71,5.22-5.89,4.85-2.86-.33-4.71-2.78-4.18-6.12,3.63-22.87,9.89-44.53,26.11-62.27,11-12.03,22.02-24.06,32.41-36.63.93-1.13,1.83-2.29,2.81-3.52ZM379.53,523.48c-23.14,0-46.27-.02-69.41.03-2.01,0-3.6-.51-5.12-1.85-9.54-8.39-19.11-16.73-28.74-25.03-1.6-1.38-1.97-2.93-1.53-4.82,1.4-6.11,5.17-9.91,11.24-11.37,3.1-.75,6.29-1.02,9.43-1.61,14.38-2.69,27.92-.57,40.17,7.78,3.8,2.59,7.25,5.46,9.36,9.81,1.82,3.74,5.04,6.42,8.52,8.68,8.54,5.55,18.12,7.44,28.08,7.75,16.77.52,32.81-2.69,47.77-10.39,6.83-3.52,12.86-8.26,15.43-15.83,5.27-15.48,6.66-31.33,3.92-47.53-1.91-11.25-7.24-20.99-12.93-30.59-7.23-12.18-17.75-20.7-30.48-26.56-5.95-2.74-12.03-5.36-18.71-5.66-7.05-.32-14.11-.3-21.14.42-7.6.78-15.2,1.61-22.12,5.19-6.63,3.43-9.21,7.88-8.44,14.36.32,2.69,1.08,5.27,2.44,7.68,2.29,4.07,4.43,8.23,5.67,12.78,1.2,4.41-.1,6.17-4.58,6.33-5.16.18-10.33.33-15.5.46-3.88.1-4.79-.91-4.36-4.78,1.69-15.24,3.11-30.51,4.17-45.81.24-3.42.9-6.95-.04-10.28-4.25-15.06-9-29.97-14.66-44.57-3.99-10.31-7.97-20.65-14.6-29.68-1.14-1.56-.33-3.81,1.56-4.57,3.19-1.28,6.4-2.52,9.62-3.73,20.95-7.88,42.02-15.36,64.01-19.9,6.68-1.38,13.41-2.37,20.27-1.84,4.83.37,8.86,1.91,11.08,6.79,1.3,2.86,3.63,5.06,6.51,6.5,4.81,2.39,12.77,1.13,16.67-2.55.54-.51.61-1.11.74-1.75,1.15-5.47,3.4-10.27,8.38-13.33.86-.53.91-1.25.91-2.1-.02-3.53-.08-7.06.02-10.58.04-1.45-.46-1.92-1.87-2.22-1.91-.4-3.8-1.06-5.57-1.88-2.71-1.26-4.78-3.13-4.97-6.45-.07-1.29-.87-2.26-1.86-3.07-4-3.31-13.43-3.43-17.47-.19-.25.2-.48.45-.63.73-2.8,5.18-8.29,4.99-12.56,2.38-2.61-1.59-4.86-3.6-6.95-5.82-1.34-1.42-2.41-3.13-4.24-4.05-15.85-8.04-31.65-16.2-47.88-23.47-11.73-5.26-23.34-10.88-36.05-13.53-1.53-.32-1.42-1.56-1.78-2.59-.42-1.19.38-1.59,1.17-2.08,4.77-2.93,9.92-5.05,15.18-6.89,19.52-6.79,39.78-9.65,60.26-11.3,19.57-1.58,39.17-1.61,58.77-.86,4.49.17,9.05-.14,13.46,1.02,9.35,2.46,18.62,5.2,27.78,8.33,15.52,5.3,30.83,11.13,44.98,19.56,6.72,4,13.09,8.47,17.73,14.94,5.47,7.64,4.78,16.38-1.68,22.77-21.78,21.56-43.8,42.87-65.87,64.14-6.55,6.31-12.99,12.76-19.87,18.7-3.65,3.16-4.93,6.76-4.7,11.24.25,5.08,1.76,9.87,4.06,14.33,5.29,10.26,10.67,20.48,16.27,30.57,5.55,10,10.35,20.38,17.08,29.78,6.39,8.92,4.89,18.7-2.75,26.6-2.19,2.27-2.8,5.11-2.66,8.16.04.97.48,1.76,1.25,2.29,1.53,1.06,2.17,2.68,2.63,4.33,1.28,4.67,2.53,9.34.79,14.21-.34.96-.2,2.1-.18,3.16.02.92.57,1.76,1.47,1.66,4.29-.45,5.88,2.96,8.05,5.5,6.32,7.39,6.86,15.44,2.69,24.02-1.37,2.81-2.92,5.38-6.53,5.57-.63.03-.98.51-1.37.94-8.51,9.43-17.26,18.65-24.86,28.85-1.49,2-3.06,2.81-5.53,2.81-23.14-.07-46.27-.04-69.41-.05ZM497.4,491.5c2.43.01,4.43,1.01,6.18,2.62,14.09,12.99,28.19,25.98,42.27,38.98,2.01,1.86,2.05,3.44.2,5.41-12.41,13.3-24.81,26.59-37.23,39.89-2.4,2.56-3.14,2.67-6.42,1.36-13-5.2-26.27-6.88-39.91-2.78-6.27,1.88-12.31,4.58-16.71,9.46-5.28,5.85-9.4,12.63-12.22,20.06-.87,2.29-2.2,3.16-4.57,3.13-7.22-.08-14.44-.12-21.65.02-2.38.05-3.96-.77-5.43-2.59-5.01-6.22-10.63-11.83-17.5-16.03-3.67-2.25-7.57-4.07-12-3.78-3.42.23-6.86.62-10.21,1.35-14.28,3.13-24.68,11.65-32.3,23.82-1.19,1.89-2.56,2.69-4.77,2.67-9.1-.08-18.23-.41-27.31.11-5.79.33-9.39-1.46-12.72-6.28-5.79-8.37-12.79-15.8-21.36-21.51-4.3-2.87-8.87-4.9-14.25-4.38-8.08.78-16.16,1.56-24.04,3.6-2.06.53-3.63.06-5.03-1.56-11.95-13.72-23.93-27.41-35.9-41.11-1.67-1.92-1.29-3.96.94-5.2.5-.28,1.01-.55,1.52-.81,21.36-11.11,42.72-22.23,64.09-33.34,3.3-1.71,6.74-3.03,10.49-3.24,2.42-.14,4.72.21,6.61,2.01,12.34,11.75,24.72,23.45,37.04,35.23,1.11,1.06,2.19,1.45,3.68,1.45,46.42-.03,92.85-.04,139.27.02,1.84,0,2.98-.63,4.15-1.97,12.53-14.3,25.12-28.53,37.67-42.81,1.99-2.27,4.34-3.72,7.41-3.78ZM134.26,702.59c-6.9.07-13.38-.02-19.85.16-19.88.55-38.83-13.76-46.38-35.2-2.38-6.75,1.19-12.68,8.29-13.61,8.62-1.13,17.18-.71,24.69,4.71,8.62,6.23,17.74,11.83,24.85,19.94.92,1.05,2.26,1.63,3.6,2.04.79.24,1.59.11,1.71-.84.29-2.51.71-5.07-1.13-7.27-3.69-4.4-7.46-8.71-12.3-11.94-1.64-1.09-3.03-2.5-4.3-4.01-1.37-1.64-2.52-3.42-1.45-5.58,1.01-2.04,3.04-2.27,5.08-2.25,7.51.04,14.53,1.86,21.18,5.43,8.91,4.78,17.77,9.56,24.45,17.45.62.73,1.51,1.24,2.33,1.77,1.22.79,2.45,1.12,3.29-.52.71-1.39,1.47-2.61-.49-3.92-3.26-2.19-6.33-4.71-8.59-8-2.67-3.89-1.32-6.83,3.38-7.33,5.18-.55,10.31.03,15.41.93,1.56.28,2.27.03,2.15-1.75-.14-2.04-.18-4.11.02-6.15.19-1.89-.61-2.97-2-4.09-16.85-13.57-33.61-27.24-50.5-40.75-3.39-2.71-5.38-6.14-6.53-10.12-1.94-6.74.62-12.36,6.89-15.62,1.38-.72,2.78-1.4,4.09-2.24,12.36-7.9,24.7-15.83,37.04-23.74,2.81-1.8,3.92-1.65,6.04.9,8.48,10.21,16.97,20.41,25.41,30.65,4.01,4.86,8.42,9.43,11.9,14.69,3.82,5.79,8.04,7.01,13.86,3.28,2.49-1.6,5.06-3.03,7.74-4.25,4.85-2.21,9.71-4.49,15.22-4.27,3.42.14,5.52,2.01,6.04,5.06.63,3.7-.99,8.22-3.52,9.24-4.68,1.88-7.32,5.57-9.33,9.94-3.14,6.82-.69,16.45,6.04,20.01,2.37,1.25,4.47,3.04,6.6,4.7,8.04,6.23,15.94,12.62,21.92,20.99.81,1.13,1.57,2.31,2.22,3.54,4.68,8.86,1.96,16.1-7.4,19.68-5.37,2.05-10.96,3.36-16.57,4.53-13.4,2.81-26.96,4.61-40.51,6.54-26.89,3.84-53.87,6.49-80.6,7.27ZM311.37,430.89c14.27,0,28.54-.03,42.81.04,1.74,0,2.5-.28,2.4-2.25-.17-3.35-.1-6.72-.02-10.08.03-1.28-.39-2.1-1.37-2.92-2.15-1.78-4.11-3.77-5.84-5.96-2.84-3.6-5.08-7.45-4.84-12.28.09-1.85.79-3.28,2.35-4.33,12.5-8.34,26.36-10.59,40.45-6.43,21.1,6.24,37.04,19.69,47.74,38.92,5.31,9.54,9.69,19.53,9.15,30.92-.82,17.58-8.22,31.13-24.11,39.43-7.9,4.12-16.48,5.99-25.28,6.63-8.34.61-16.73,1.04-24.94-1.16-15.93-4.28-28.36-13.59-37.95-26.84-1.08-1.5-2.15-2.04-3.98-2.04-29.69.06-59.38.04-89.07.05-5.44,0-10.76-.05-16.15,1.88-6.97,2.5-14.4,1.57-21.68.81-4.39-.46-8.52-1.61-12.25-4.03-2.6-1.68-4.78-3.75-5.77-6.79-1.17-3.61-.05-5.15,3.71-5.16,12.06-.01,24.11-.05,36.17.02,2.68.02,5.15-.44,7.62-1.5,13.3-5.68,25.19-13.26,33.99-25.03,1.17-1.57,2.7-1.91,4.52-1.9,14.11.03,28.21.02,42.32.01ZM28.99,456.38c1.53-22.06,3.06-43.91,4.57-65.75,1-14.48,1.97-28.96,2.98-43.44,1.41-20.2,2.89-40.41,4.24-60.61.16-2.34.8-4.18,2.42-5.92,13.77-14.83,27.5-29.71,41.18-44.63,1.48-1.62,2.98-2.1,5.02-1.5,9.93,2.92,19.58,6.58,28.57,11.76,7.16,4.12,13.77,8.93,18.13,16.2,2.71,4.52,4.06,9.26,2.51,14.55-.69,2.36-1.06,4.81-1.76,7.16-2.1,7.11-4.59,14.05-9.76,19.63-5.18,5.6-11.62,6.87-18.54,3.6-2.21-1.05-4.25-2.46-6.4-3.65-3.16-1.74-6.38-3.41-9.99-4.01-3.7-.61-5.15,1.12-4,4.65.13.39.27.78.4,1.16,6.4,18.59,12.81,37.17,19.18,55.77,2.17,6.34,5.13,12.46,5.39,19.33.34,8.71-1.92,16.24-9.08,21.98-11.38,9.13-22.57,18.49-33.84,27.76-12.21,10.05-24.44,20.09-36.62,30.18-1.19.99-2.08,1.03-3.46.33-2.47-1.24-.65-3.23-1.14-4.56ZM634.26,690.2c-5.84.2-11.64-.4-17.4-1.23-11.11-1.61-22.17-3.51-33.35-4.66-16.96-1.75-33.86-4-50.77-6.17-9.58-1.23-18.99-3.52-28.71-3.88-5.5-.21-10.89-1.57-15.58-4.73-4.48-3.02-6.45-7.29-5.76-12.68.55-4.33,2.43-8.14,4.78-11.73,3.92-6,6.64-12.55,9.38-19.16,3.2-7.75,1.35-13.73-4.22-19.49-6.63-6.85-14.4-11.56-23.52-14.08-1.67-.46-2.56-1.33-2.94-2.85-.42-1.7,1.05-2.26,2.06-2.97,3.08-2.18,6.62-2.75,10.3-2.55,7.8.41,14.84,3.33,21.58,6.97,3.03,1.63,5.79,1.35,8.72.34,2.21-.76,4.11-2.09,5.7-3.77,10.93-11.53,23.12-21.85,32.8-34.58,2.76-3.63,6.09-6.82,10.28-8.9,3.83-1.9,6.9-.89,8.85,2.85.45.87.93,1.73,1.43,2.57,4.95,8.41,7.32,17.45,6.82,27.24-.41,7.85-2.67,15.15-6.64,21.89-6.29,10.65-12.19,21.59-20.52,30.83-2.54,2.82-3.51,5.72-3.56,9.23-.06,4.69,1.55,5.95,6.08,4.59,2.89-.87,5.64-2.18,8.75-2.25,3.6-.08,7.23-.58,10.77.37,3.92,1.05,4.87,4.12,2.33,7.31-1.07,1.35-2.3,2.51-3.95,3.24-1.34.59-2.59,1.42-3.5,2.64-1.36,1.81-.89,3.64,1.21,5.85,1.66,1.75,3.08.99,4.48-.21,1.65-1.41,2.72-3.27,3.72-5.15,1.81-3.41,4.06-6.53,6.21-9.73,4.19-6.21,10.28-8.83,17.41-9.63,3.14-.35,5.22.69,6.13,2.94,1.04,2.55.57,4-2.16,6.29-6.81,5.7-7.51,12.96-5.22,21.01.56,1.98,1.57,1.86,2.73.56,2.75-3.08,5.1-6.44,6.36-10.41,1.07-3.37,2.33-6.64,3.77-9.86,4.02-8.97,9.61-15.55,20.46-16.66,9.78-1,19.47-2.87,29.36-2,5.1.45,10.09,1.32,14.38,4.42,1.08.78,2.06,1.59,2.11,3.11.36,11.46-.17,22.82-4.44,33.64-3.48,8.81-9.57,15.46-18.27,19.17-5.78,2.46-12.16,2.49-18.42,2.27ZM180.16,400.44c.32,0,.65,0,.97,0,0-15.01-.04-30.01.04-45.02.01-2.69-.35-5.16-1.61-7.56-3.63-6.88-7.17-13.81-10.76-20.71-2.45-4.71-5.54-9.11-6.96-14.33-1.75-6.41-1.62-12.68,3.72-17.24,5.23-4.46,10.03-9.4,15.59-13.49,9.99-7.34,20.61-13.36,32.72-16.44,2.63-.67,4.05.23,4.48,2.9.54,3.37,1.84,6.43,3.41,9.43,1.69,3.23,4.35,5.73,6.46,8.65,4.59,6.34,8.08,13.52,14.04,18.85.71.64,1.21,1.55,1.72,2.39,4.28,7.09,3.54,13.95-2.06,20.07-1.15,1.26-2.17,2.67-3.1,4.11-3.75,5.83-6.37,12.19-8.44,18.78-2.2,7-1.76,13.91,1.03,20.68,1.71,4.14,4.46,7.56,7.23,11.04,10.56,13.28,15.11,28.85,16.89,45.43.16,1.54-.54,2.66-1.54,3.72-3.33,3.53-6.97,6.71-11.02,9.38-18.32,12.07-38.47,14.44-59.67,11.23-2.39-.36-3.16-1.87-3.16-4.16.04-15.91.02-31.82.02-47.73ZM118.85,451v-.02c-15.75,0-31.5-.07-47.25.07-2.58.02-2.5-1.75-3.18-3.19-.66-1.39-.67-2.43.75-3.58,16.1-13.07,32.14-26.21,48.17-39.35,1.21-.99,2.5-1.46,4.05-1.46,14.85.02,29.69.01,44.54.02,2.91,0,4.89,1.97,4.89,4.84,0,12.47,0,24.94,0,37.4,0,3.46-1.79,5.26-5.2,5.26-15.58,0-31.17,0-46.75,0ZM310.68,252.67c-1.98-.05-3.93-.12-5.88-.52-4.57-.95-6.42-3.5-5.27-7.92.93-3.56.43-5.91-3-8.23-6.59-4.45-6.78-10.47-1.19-16.09.55-.55.85-1.13,1.06-1.87,1.15-4.03,3.74-5.76,7.9-5.25,3.97.49,7.58,2,10.96,4.09,6.78,4.19,13.72,8.11,21.48,10.11,5.23,1.35,10.52,2.47,15.6,4.35,3.26,1.21,6.35,2.96,10.07,2.59,1.15-.11,2.39.51,3.33,1.39,1.49,1.4,1.79,3.07,1.08,4.93-.62,1.63-1.99,1.98-3.57,2.01-6.27.14-12.4,1.22-18.29,3.35-11.1,4-22.56,6.17-34.29,7.05ZM284.57,394.31s0-.07,0-.1c6.97,0,13.93,0,20.9,0,2.44,0,6.64,3.1,6.94,5.26,1.25,9.03-2.26,19.56-14.41,21.95-8.33,1.64-16.8.94-25.22.23-4.96-.42-8.26-3.1-10.66-7.28-2.33-4.06-3.33-8.52-4.05-13.05-.73-4.6,1.42-7.02,6.08-7.02,6.8,0,13.61,0,20.41,0ZM539.84,61.94c3.47-.09,6.88.24,10.29.81,3.4.57,6.74,1.39,10.03,2.43,4.85,1.54,9.51,3.54,13.97,6,2.69,1.48,3.53,4.39,2.2,6.95-1.32,2.53-4.23,3.37-6.96,2.02-.8-.4-1.6-.81-2.4-1.2-11.54-5.69-23.59-8.45-36.44-6.03-8.42,1.59-16.09,4.93-22.7,10.53-2.37,2.01-5.68,1.86-7.53-.24-1.87-2.14-1.55-5.3.78-7.45.54-.5,1.11-.97,1.7-1.41,10.97-8.29,23.35-12.35,37.06-12.4ZM360.45,227.5c-2.17-.76-4.91-1.61-7.56-2.68-13.09-5.25-25.68-11.58-38.32-17.8-6.03-2.97-12-6.04-18.01-9.05-1.82-.91-2.22-2.43-1.46-4.11.74-1.64,2.23-2.09,3.93-1.45.84.31,1.65.72,2.45,1.13,13.31,6.71,26.6,13.47,40.14,19.72,6.55,3.02,13.12,5.98,20.02,8.15,1.75.55,2.68,1.62,2.45,3.41-.21,1.67-1.31,2.57-3.63,2.67ZM422.44,252.62h0c-1.15,0-2.3,0-3.44,0-3.63,0-4.9,1.29-4.91,4.98,0,1.56-.02,3.12,0,4.67.02,2.06-.96,3.37-3.03,3.35-2.07-.02-3.03-1.37-3.04-3.41,0-1.56,0-3.11,0-4.67,0-3.58-1.36-4.91-5.01-4.92-2.3,0-4.59-.05-6.89,0-2.16.06-3.48-.93-3.73-3.04-.21-1.73,1.41-3.01,3.65-3.04,2.46-.03,4.92-.01,7.38-.04.63,0,1.26.12,1.8-.49,1.66-1.89,3.44-3.63,2.83-6.56-.26-1.26-.1-2.62-.01-3.92.13-1.9,1.2-3.17,3.1-3.12,1.86.05,2.97,1.2,2.94,3.22-.03,2.05-.04,4.1.01,6.15.05,2.12,2.76,4.73,4.88,4.74,2.62.02,5.25,0,7.87,0,2.02,0,3.4.89,3.4,3.01,0,2.09-1.37,3.03-3.37,3.08-1.47.04-2.95,0-4.43,0ZM343.81,254.15c1.36,0,2.79.72,3.08,2.64.28,1.91-.72,3.19-2.67,3.43-4.97.61-9.85,1.65-14.66,3-11.29,3.17-22.24,7.28-33.05,11.77-2.53,1.05-4.35.66-5.09-1.08-.81-1.9.1-3.44,2.75-4.62.22-.1.44-.22.67-.31,9.27-3.73,18.59-7.31,28.14-10.24,6.66-2.04,13.39-3.82,20.83-4.59Z" fill="#fcfbfb" stroke-width="0"/><path d="M159.62,367.83c1.42-14.45-5.26-28.03-11.95-41.6-1.12-2.27-2.44-4.45-3.63-6.69-.43-.8-.8-1.21-1.59-.35-5.75,6.18-13.4,8.23-21.3,9.62-1.83.32-2.12.77-1.36,2.44,7.34,16.18,14.62,32.39,21.88,48.61.51,1.15,1.16,1.58,2.4,1.57,4.59-.05,9.18-.07,13.78.01,1.46.02,1.81-.58,1.79-1.89-.05-3.44-.02-6.89-.02-11.71Z" fill="#fcfbfb" stroke-width="0"/><path d="M490.69,154.37c-1.18-5.9-2.13-11.18-2.59-16.56-.45-5.33-.13-10.61.27-15.84-.69-.42-1.05.03-1.38.33-6.75,6.34-12.85,13.25-18.29,20.74-.54.75-1.48,1.55.24,2.18,7.19,2.65,14.27,5.6,21.75,9.14Z" fill="#fcfbfb" stroke-width="0"/><path d="M379.53,523.49c23.14,0,46.27-.03,69.41.04,2.47,0,4.04-.8,5.53-2.81,7.6-10.2,16.35-19.42,24.86-28.85.39-.43.74-.91,1.37-.94,3.6-.19,5.16-2.76,6.53-5.57,4.17-8.58,3.63-16.63-2.69-24.02-2.17-2.54-3.75-5.96-8.05-5.5-.9.1-1.46-.74-1.47-1.66-.02-1.06-.16-2.21.18-3.16,1.74-4.87.49-9.55-.79-14.21-.45-1.65-1.09-3.27-2.63-4.33-.77-.53-1.21-1.32-1.25-2.29-.14-3.06.46-5.89,2.66-8.16,7.64-7.89,9.14-17.67,2.75-26.6-6.73-9.4-11.53-19.78-17.08-29.78-5.6-10.09-10.97-20.31-16.27-30.57-2.3-4.46-3.81-9.25-4.06-14.33-.22-4.47,1.05-8.08,4.7-11.24,6.87-5.94,13.32-12.39,19.87-18.7,22.07-21.27,44.09-42.58,65.87-64.14,6.46-6.39,7.16-15.13,1.68-22.77-4.64-6.48-11.02-10.94-17.73-14.94-14.15-8.43-29.46-14.26-44.98-19.56-9.15-3.12-18.42-5.87-27.78-8.33-4.41-1.16-8.97-.84-13.46-1.02-19.6-.76-39.2-.72-58.77.86-20.47,1.65-40.74,4.51-60.26,11.3-5.27,1.83-10.41,3.95-15.18,6.89-.79.49-1.59.89-1.17,2.08.37,1.03.25,2.27,1.78,2.59,12.71,2.65,24.32,8.27,36.05,13.53,16.23,7.28,32.03,15.43,47.88,23.47,1.83.93,2.9,2.64,4.24,4.05,2.09,2.22,4.34,4.22,6.95,5.82,4.27,2.61,9.76,2.8,12.56-2.38.15-.28.38-.53.63-.73,4.04-3.24,13.47-3.13,17.47.19.98.81,1.78,1.79,1.86,3.07.18,3.32,2.26,5.19,4.97,6.45,1.77.82,3.66,1.49,5.57,1.88,1.4.29,1.91.76,1.87,2.22-.1,3.52-.04,7.05-.02,10.58,0,.85-.05,1.57-.91,2.1-4.98,3.06-7.23,7.85-8.38,13.33-.13.64-.2,1.24-.74,1.75-3.9,3.68-11.86,4.94-16.67,2.55-2.88-1.43-5.21-3.63-6.51-6.5-2.22-4.88-6.24-6.42-11.08-6.79-6.86-.53-13.59.46-20.27,1.84-21.98,4.55-43.06,12.02-64.01,19.9-3.22,1.21-6.43,2.46-9.62,3.73-1.89.76-2.7,3.01-1.56,4.57,6.63,9.03,10.61,19.37,14.6,29.68,5.65,14.6,10.41,29.51,14.66,44.57.94,3.33.28,6.86.04,10.28-1.06,15.3-2.48,30.57-4.17,45.81-.43,3.87.48,4.88,4.36,4.78,5.17-.13,10.33-.28,15.5-.46,4.48-.16,5.78-1.92,4.58-6.33-1.23-4.54-3.37-8.7-5.67-12.78-1.36-2.41-2.12-4.99-2.44-7.68-.77-6.48,1.81-10.93,8.44-14.36,6.92-3.58,14.53-4.41,22.12-5.19,7.03-.72,14.09-.74,21.14-.42,6.68.31,12.75,2.92,18.71,5.66,12.74,5.86,23.25,14.38,30.48,26.56,5.7,9.6,11.02,19.34,12.93,30.59,2.75,16.21,1.35,32.06-3.92,47.53-2.58,7.57-8.6,12.32-15.43,15.83-14.97,7.7-31,10.91-47.77,10.39-9.96-.31-19.55-2.2-28.08-7.75-3.48-2.26-6.7-4.94-8.52-8.68-2.11-4.35-5.57-7.23-9.36-9.81-12.26-8.35-25.8-10.47-40.17-7.78-3.14.59-6.33.86-9.43,1.61-6.07,1.46-9.84,5.27-11.24,11.37-.43,1.89-.06,3.45,1.53,4.82,9.62,8.29,19.2,16.64,28.74,25.03,1.52,1.34,3.11,1.85,5.12,1.85,23.14-.05,46.27-.03,69.41-.03Z" fill="#c4092f" stroke-width="0"/><path d="M497.4,491.49c-3.08.07-5.42,1.52-7.42,3.78-12.55,14.28-25.15,28.51-37.67,42.81-1.17,1.34-2.31,1.98-4.15,1.97-46.42-.05-92.85-.05-139.27-.02-1.49,0-2.57-.39-3.68-1.45-12.31-11.78-24.7-23.48-37.04-35.23-1.89-1.8-4.19-2.15-6.61-2.01-3.75.21-7.19,1.52-10.49,3.24-21.36,11.11-42.72,22.22-64.09,33.34-.51.26-1.02.53-1.52.81-2.23,1.24-2.61,3.28-.94,5.2,11.97,13.7,23.95,27.39,35.9,41.11,1.41,1.61,2.97,2.09,5.03,1.56,7.89-2.04,15.96-2.82,24.04-3.6,5.38-.52,9.95,1.52,14.25,4.38,8.57,5.72,15.58,13.14,21.36,21.51,3.33,4.82,6.93,6.61,12.72,6.28,9.08-.51,18.2-.18,27.31-.11,2.21.02,3.58-.77,4.77-2.67,7.62-12.17,18.02-20.69,32.3-23.82,3.34-.73,6.79-1.12,10.21-1.35,4.43-.29,8.33,1.53,12,3.78,6.87,4.2,12.48,9.81,17.5,16.03,1.47,1.82,3.05,2.63,5.43,2.59,7.22-.14,14.44-.1,21.65-.02,2.37.03,3.7-.84,4.57-3.13,2.82-7.43,6.94-14.2,12.22-20.06,4.4-4.88,10.44-7.58,16.71-9.46,13.64-4.09,26.91-2.42,39.91,2.78,3.29,1.32,4.03,1.21,6.42-1.36,12.41-13.29,24.82-26.59,37.23-39.89,1.85-1.98,1.81-3.56-.2-5.41-14.08-13-28.18-25.99-42.27-38.98-1.75-1.61-3.75-2.61-6.18-2.62Z" fill="#c4092f" stroke-width="0"/><path d="M134.26,702.59c26.73-.78,53.71-3.43,80.6-7.27,13.55-1.94,27.11-3.74,40.51-6.54,5.62-1.18,11.2-2.48,16.57-4.53,9.36-3.58,12.08-10.82,7.4-19.68-.65-1.23-1.41-2.41-2.22-3.54-5.98-8.37-13.88-14.76-21.92-20.99-2.14-1.65-4.23-3.44-6.6-4.7-6.73-3.56-9.18-13.19-6.04-20.01,2.01-4.37,4.65-8.05,9.33-9.94,2.53-1.02,4.14-5.54,3.52-9.24-.51-3.05-2.61-4.92-6.04-5.06-5.51-.23-10.38,2.06-15.22,4.27-2.68,1.22-5.25,2.65-7.74,4.25-5.82,3.73-10.04,2.52-13.86-3.28-3.48-5.27-7.89-9.83-11.9-14.69-8.44-10.24-16.93-20.44-25.41-30.65-2.12-2.55-3.23-2.7-6.04-.9-12.34,7.92-24.68,15.85-37.04,23.74-1.31.83-2.71,1.52-4.09,2.24-6.27,3.26-8.83,8.88-6.89,15.62,1.15,3.98,3.14,7.41,6.53,10.12,16.89,13.52,33.65,27.18,50.5,40.75,1.39,1.12,2.18,2.2,2,4.09-.2,2.03-.15,4.1-.02,6.15.12,1.79-.6,2.03-2.15,1.75-5.09-.91-10.23-1.49-15.41-.93-4.7.5-6.05,3.43-3.38,7.33,2.26,3.29,5.32,5.81,8.59,8,1.96,1.31,1.2,2.53.49,3.92-.84,1.64-2.07,1.31-3.29.52-.82-.53-1.71-1.05-2.33-1.77-6.68-7.89-15.54-12.66-24.45-17.45-6.65-3.57-13.66-5.39-21.18-5.43-2.04-.01-4.07.22-5.08,2.25-1.07,2.16.08,3.94,1.45,5.58,1.27,1.51,2.66,2.92,4.3,4.01,4.84,3.23,8.61,7.54,12.3,11.94,1.84,2.2,1.42,4.76,1.13,7.27-.11.96-.92,1.09-1.71.84-1.34-.42-2.67-.99-3.6-2.04-7.12-8.11-16.23-13.71-24.85-19.94-7.51-5.43-16.07-5.84-24.69-4.71-7.1.93-10.67,6.86-8.29,13.61,7.54,21.44,26.5,35.75,46.38,35.2,6.46-.18,12.95-.09,19.85-.16Z" fill="#c4092f" stroke-width="0"/><path d="M311.37,430.89c-14.11,0-28.21.01-42.32-.02-1.82,0-3.35.33-4.52,1.9-8.8,11.77-20.69,19.35-33.99,25.03-2.47,1.06-4.94,1.51-7.62,1.5-12.06-.07-24.11-.04-36.17-.02-3.77,0-4.88,1.55-3.71,5.16.99,3.04,3.17,5.1,5.77,6.79,3.73,2.42,7.86,3.57,12.25,4.03,7.28.77,14.72,1.69,21.68-.81,5.39-1.93,10.7-1.88,16.15-1.88,29.69-.01,59.38.01,89.07-.05,1.83,0,2.9.54,3.98,2.04,9.58,13.25,22.02,22.56,37.95,26.84,8.21,2.21,16.6,1.77,24.94,1.16,8.8-.64,17.38-2.51,25.28-6.63,15.89-8.3,23.29-21.85,24.11-39.43.53-11.39-3.85-21.38-9.15-30.92-10.7-19.23-26.64-32.69-47.74-38.92-14.09-4.16-27.95-1.92-40.45,6.43-1.57,1.05-2.26,2.48-2.35,4.33-.24,4.84,1.99,8.68,4.84,12.28,1.73,2.19,3.7,4.18,5.84,5.96.98.81,1.4,1.64,1.37,2.92-.08,3.36-.15,6.73.02,10.08.1,1.96-.67,2.25-2.4,2.25-14.27-.07-28.54-.04-42.81-.04Z" fill="#c4092f" stroke-width="0"/><path d="M28.99,456.38c.49,1.33-1.33,3.32,1.14,4.56,1.39.7,2.27.66,3.46-.33,12.18-10.09,24.4-20.13,36.62-30.18,11.27-9.27,22.46-18.63,33.84-27.76,7.15-5.74,9.41-13.27,9.08-21.98-.26-6.87-3.22-13-5.39-19.33-6.37-18.6-12.78-37.18-19.18-55.77-.13-.39-.27-.77-.4-1.16-1.16-3.53.29-5.26,4-4.65,3.61.6,6.83,2.26,9.99,4.01,2.15,1.19,4.19,2.6,6.4,3.65,6.91,3.27,13.35,2,18.54-3.6,5.17-5.58,7.66-12.52,9.76-19.63.69-2.36,1.07-4.8,1.76-7.16,1.54-5.28.2-10.03-2.51-14.55-4.37-7.27-10.98-12.08-18.13-16.2-8.99-5.18-18.63-8.83-28.57-11.76-2.03-.6-3.53-.12-5.02,1.5-13.68,14.92-27.4,29.8-41.18,44.63-1.61,1.74-2.26,3.57-2.42,5.92-1.35,20.21-2.82,40.41-4.24,60.61-1.01,14.48-1.98,28.96-2.98,43.44-1.51,21.84-3.04,43.69-4.57,65.75Z" fill="#c4092f" stroke-width="0"/><path d="M634.26,690.2c6.27.22,12.64.2,18.43-2.27,8.7-3.71,14.79-10.36,18.27-19.17,4.27-10.82,4.8-22.18,4.44-33.64-.05-1.52-1.03-2.33-2.11-3.11-4.29-3.1-9.29-3.97-14.38-4.42-9.89-.87-19.58,1-29.36,2-10.85,1.11-16.44,7.69-20.46,16.66-1.44,3.21-2.7,6.49-3.77,9.86-1.26,3.97-3.61,7.33-6.36,10.41-1.16,1.29-2.16,1.42-2.73-.56-2.29-8.05-1.58-15.31,5.22-21.01,2.73-2.29,3.2-3.74,2.16-6.29-.91-2.24-3-3.29-6.13-2.94-7.12.8-13.21,3.42-17.41,9.63-2.15,3.19-4.4,6.31-6.21,9.73-1,1.88-2.07,3.74-3.72,5.15-1.41,1.2-2.82,1.95-4.48.21-2.1-2.2-2.57-4.03-1.21-5.85.91-1.21,2.16-2.05,3.5-2.64,1.65-.72,2.88-1.89,3.95-3.24,2.54-3.2,1.58-6.26-2.33-7.31-3.54-.95-7.16-.45-10.77-.37-3.11.07-5.86,1.38-8.75,2.25-4.52,1.36-6.14.1-6.08-4.59.05-3.5,1.02-6.41,3.56-9.23,8.33-9.24,14.23-20.19,20.52-30.83,3.98-6.74,6.24-14.03,6.64-21.89.5-9.78-1.87-18.83-6.82-27.24-.5-.84-.98-1.7-1.43-2.57-1.95-3.74-5.01-4.75-8.85-2.85-4.19,2.08-7.52,5.27-10.28,8.9-9.68,12.73-21.87,23.05-32.8,34.58-1.59,1.68-3.49,3.01-5.7,3.77-2.93,1.01-5.7,1.29-8.72-.34-6.73-3.63-13.78-6.56-21.58-6.97-3.67-.19-7.21.37-10.3,2.55-1.01.71-2.49,1.26-2.06,2.97.38,1.52,1.27,2.39,2.94,2.85,9.12,2.52,16.89,7.23,23.52,14.08,5.57,5.76,7.42,11.74,4.22,19.49-2.73,6.61-5.45,13.15-9.38,19.16-2.35,3.59-4.23,7.41-4.78,11.73-.68,5.39,1.28,9.66,5.76,12.68,4.69,3.16,10.08,4.52,15.58,4.73,9.72.36,19.13,2.65,28.71,3.88,16.91,2.17,33.81,4.41,50.77,6.17,11.18,1.16,22.24,3.05,33.35,4.66,5.76.83,11.56,1.43,17.4,1.23Z" fill="#c4092f" stroke-width="0"/><path d="M180.16,400.44c0,15.91.02,31.82-.02,47.73,0,2.3.77,3.8,3.16,4.16,21.2,3.21,41.36.85,59.67-11.23,4.05-2.67,7.69-5.85,11.02-9.38,1-1.06,1.7-2.18,1.54-3.72-1.78-16.58-6.33-32.15-16.89-45.43-2.77-3.48-5.53-6.9-7.23-11.04-2.79-6.77-3.23-13.69-1.03-20.68,2.07-6.58,4.69-12.94,8.44-18.78.93-1.44,1.95-2.85,3.1-4.11,5.6-6.12,6.34-12.98,2.06-20.07-.51-.84-1-1.75-1.72-2.39-5.96-5.34-9.44-12.51-14.04-18.85-2.11-2.92-4.77-5.41-6.46-8.65-1.57-3-2.86-6.06-3.41-9.43-.43-2.67-1.84-3.57-4.48-2.9-12.11,3.08-22.73,9.09-32.72,16.44-5.56,4.09-10.37,9.03-15.59,13.49-5.34,4.55-5.47,10.82-3.72,17.24,1.43,5.22,4.51,9.62,6.96,14.33,3.59,6.9,7.13,13.83,10.76,20.71,1.27,2.4,1.63,4.87,1.61,7.56-.08,15.01-.04,30.01-.04,45.02-.32,0-.65,0-.97,0Z" fill="#c4092f" stroke-width="0"/><path d="M118.85,451c15.58,0,31.17,0,46.75,0,3.41,0,5.2-1.8,5.2-5.26,0-12.47.01-24.94,0-37.4,0-2.87-1.98-4.83-4.89-4.84-14.85-.01-29.69,0-44.54-.02-1.54,0-2.84.47-4.05,1.46-16.04,13.14-32.08,26.28-48.17,39.35-1.42,1.15-1.41,2.19-.75,3.58.68,1.43.6,3.21,3.18,3.19,15.75-.14,31.5-.07,47.25-.07v.02Z" fill="#c4092f" stroke-width="0"/><path d="M310.68,252.67c11.73-.88,23.19-3.05,34.29-7.05,5.9-2.12,12.02-3.21,18.29-3.35,1.59-.03,2.95-.38,3.57-2.01.71-1.86.41-3.53-1.08-4.93-.94-.88-2.18-1.51-3.33-1.39-3.72.36-6.81-1.39-10.07-2.59-5.08-1.89-10.37-3.01-15.6-4.35-7.76-2-14.71-5.92-21.48-10.11-3.38-2.09-6.99-3.61-10.96-4.09-4.16-.51-6.75,1.23-7.9,5.25-.21.74-.52,1.32-1.06,1.87-5.6,5.62-5.4,11.64,1.19,16.09,3.43,2.32,3.94,4.67,3,8.23-1.16,4.42.7,6.97,5.27,7.92,1.95.4,3.9.47,5.88.52Z" fill="#c4092f" stroke-width="0"/><path d="M284.57,394.31c-6.8,0-13.61,0-20.41,0-4.66,0-6.81,2.42-6.08,7.02.72,4.54,1.72,8.99,4.05,13.05,2.4,4.18,5.7,6.86,10.66,7.28,8.42.71,16.88,1.41,25.22-.23,12.15-2.39,15.66-12.92,14.41-21.95-.3-2.16-4.5-5.26-6.94-5.26-6.97-.01-13.93,0-20.9,0,0,.03,0,.07,0,.1Z" fill="#c4092f" stroke-width="0"/><path d="M539.84,61.94c-13.71.06-26.09,4.12-37.06,12.4-.59.44-1.16.91-1.7,1.41-2.33,2.15-2.66,5.31-.78,7.45,1.84,2.1,5.16,2.25,7.53.24,6.6-5.59,14.28-8.94,22.7-10.53,12.85-2.43,24.9.33,36.44,6.03.8.4,1.6.81,2.4,1.2,2.73,1.35,5.64.51,6.96-2.02,1.33-2.56.49-5.47-2.2-6.95-4.45-2.46-9.11-4.46-13.97-6-3.28-1.04-6.62-1.86-10.03-2.43-3.41-.57-6.82-.9-10.29-.81Z" fill="#c4092f" stroke-width="0"/><path d="M360.45,227.5c2.32-.1,3.42-1.01,3.63-2.67.23-1.79-.7-2.86-2.45-3.41-6.89-2.17-13.47-5.13-20.02-8.15-13.54-6.24-26.83-13.01-40.14-19.72-.8-.4-1.61-.81-2.45-1.13-1.7-.64-3.19-.19-3.93,1.45-.76,1.68-.36,3.2,1.46,4.11,6.01,3.01,11.98,6.08,18.01,9.05,12.64,6.22,25.23,12.55,38.32,17.8,2.65,1.06,5.39,1.91,7.56,2.68Z" fill="#c4092f" stroke-width="0"/><path d="M422.44,252.62c1.48,0,2.95.03,4.43,0,2-.05,3.37-.99,3.37-3.08,0-2.12-1.38-3.01-3.4-3.01-2.62,0-5.25.01-7.87,0-2.11-.01-4.82-2.62-4.88-4.74-.05-2.05-.04-4.1-.01-6.15.03-2.02-1.09-3.17-2.94-3.22-1.9-.05-2.97,1.22-3.1,3.12-.09,1.31-.25,2.67.01,3.92.61,2.93-1.17,4.68-2.83,6.56-.54.61-1.17.49-1.8.49-2.46.03-4.92,0-7.38.04-2.24.03-3.86,1.31-3.65,3.04.25,2.11,1.57,3.09,3.73,3.04,2.29-.06,4.59-.01,6.89,0,3.64,0,5,1.34,5.01,4.92,0,1.56,0,3.11,0,4.67,0,2.03.96,3.39,3.04,3.41,2.07.02,3.05-1.29,3.03-3.35-.01-1.56,0-3.11,0-4.67,0-3.69,1.28-4.98,4.91-4.98,1.15,0,2.3,0,3.44,0h0Z" fill="#c4092f" stroke-width="0"/><path d="M343.81,254.15c-7.45.77-14.17,2.55-20.83,4.59-9.56,2.93-18.88,6.51-28.14,10.24-.23.09-.44.21-.67.31-2.65,1.18-3.57,2.72-2.75,4.62.74,1.74,2.56,2.13,5.09,1.08,10.82-4.49,21.77-8.6,33.05-11.77,4.82-1.35,9.69-2.39,14.66-3,1.95-.24,2.95-1.51,2.67-3.43-.28-1.92-1.72-2.64-3.08-2.64Z" fill="#c4092f" stroke-width="0"/></g></svg>