<?xml version="1.0" encoding="UTF-8"?>
<svg id="Layer_2" data-name="Layer 2" xmlns="http://www.w3.org/2000/svg" viewBox="0 0 621.13 600.33">
  <defs>
    <style>
      .cls-1 {
        fill: #978963;
      }

      .cls-2 {
        fill: #0d223f;
      }
    </style>
  </defs>
  <g id="Layer_1-2" data-name="Layer 1">
    <polygon class="cls-2" points="335.22 600.33 291.63 556.74 291.63 514.95 190.72 514.95 147.13 471.35 147.13 430.44 43.59 430.44 0 386.84 0 289.44 77.07 289.44 77.07 353.37 147.13 353.37 147.13 344.39 224.19 344.39 224.19 353.37 245.43 353.37 245.43 246.53 43.59 246.53 0 202.93 0 43.59 43.59 0 278.91 0 322.5 43.59 322.5 131.8 245.43 131.8 245.43 77.07 77.07 77.07 77.07 169.46 278.91 169.46 322.5 213.05 322.5 386.84 278.91 430.44 224.19 430.44 224.19 437.88 291.63 437.88 291.63 429.78 368.7 429.78 368.7 437.88 371.1 437.88 371.1 170.77 341.33 170.77 341.33 93.71 476.63 93.71 476.63 170.77 448.17 170.77 448.17 471.35 404.58 514.95 368.7 514.95 368.7 523.27 515.6 523.27 515.6 256.16 485.83 256.16 485.83 179.09 621.13 179.09 621.13 256.16 592.67 256.16 592.67 556.74 549.08 600.33 335.22 600.33"/>
    <polygon class="cls-1" points="274.55 419.93 47.94 419.93 10.51 382.49 10.51 299.95 66.56 299.95 66.56 359.28 71.16 363.88 251.34 363.88 255.94 359.28 255.94 240.62 251.34 236.02 47.94 236.02 10.51 198.58 10.51 47.94 47.94 10.51 274.55 10.51 311.99 47.94 311.99 121.29 255.94 121.29 255.94 71.16 251.34 66.56 71.16 66.56 66.56 71.16 66.56 175.37 71.16 179.97 274.55 179.97 311.99 217.4 311.99 382.49 274.55 419.93"/>
    <polygon class="cls-1" points="466.12 104.22 351.84 104.22 351.84 160.26 381.61 160.26 381.61 443.79 377.01 448.39 218.29 448.39 213.69 443.79 213.69 354.9 157.64 354.9 157.64 467 195.07 504.44 400.23 504.44 437.66 467 437.66 160.26 466.12 160.26 466.12 104.22"/>
    <polygon class="cls-1" points="610.62 189.6 496.34 189.6 496.34 245.65 526.11 245.65 526.11 529.17 521.51 533.78 362.79 533.78 358.19 529.17 358.19 440.29 302.14 440.29 302.14 552.39 339.57 589.82 544.73 589.82 582.16 552.39 582.16 245.65 610.62 245.65 610.62 189.6"/>
  </g>
</svg>