<?xml version="1.0" encoding="UTF-8"?>
<svg id="Layer_2" data-name="Layer 2" xmlns="http://www.w3.org/2000/svg" viewBox="0 0 700 391.69">
  <defs>
    <style>
      .cls-1 {
        fill: #fff;
      }

      .cls-2 {
        fill: #0a4a7c;
      }

      .cls-3 {
        fill: #fcfcfc;
      }
    </style>
  </defs>
  <g id="Layer_1-2" data-name="Layer 1">
    <g>
      <path class="cls-1" d="M691.42,134.77c-4.06-5.57-9.19-10.53-15.67-15.17-16.38-11.72-36.03-25.34-57.6-37.42-4.81-2.7-8.77-5.66-12.09-9.06-2.34-2.4-4.51-5.27-7.1-8.77-5.02-6.79-11.11-12.25-18.11-16.23-10.18-5.79-19-9.93-27.77-13.05-13.1-4.66-26.65-9.47-40.76-13.21-11.59-3.07-23.88-5.65-38.68-8.12-11.12-1.86-22.65-3.24-35.23-4.23-9.81-.77-20.49-1.15-32.63-1.15-1.65,0-3.3,0-4.95,.02h-.69c-1.2,.01-2.39,.02-3.59,.02-2.27,0-4-.04-5.61-.12-1.28-.06-2.55-.12-3.94-.12-2.03,0-3.88,.13-5.66,.39l-11.55,1.72c-20.12-6.82-41.07-10.27-62.55-10.27-2.71,0-5.48,.06-8.21,.16-1.78,.07-3.46,.22-5.09,.37-.7,.06-1.42,.13-2.19,.19l-30.56,2.44,21.97,22.99c-24.56,8.74-47.9,18.93-69.59,30.38-43.69,23.06-82.49,52.16-115.31,86.47-17.45,18.25-33.57,38.34-47.91,59.71-12.53,18.68-23.99,38.73-34.05,59.61-6.13,12.72-10.76,23.28-14.54,33.19l-.03,.06c-.57,1.31-1.9,4.38-1.72,8.59l.72,17.17,16.83-3.51,3.75-.79c2.53-.53,5-1.05,7.47-1.55,12.56-2.52,25.13-4.73,37.37-6.59,9.99-1.52,19.9-2.83,29.45-3.9,7.76-.87,16.16-1.67,26.44-2.5,12.67-1.02,25.63-1.7,38.49-2.03,6.22-.16,12.4-.24,18.37-.24,7.07,0,14.09,.11,20.87,.33,7.8,.25,17.01,.6,26.19,1.25,19.57,1.39,37.54,3.42,54.96,6.19,16.02,2.55,30.64,5.47,44.68,8.93,32.99,8.12,61.71,18.45,87.82,31.59,1.29,.65,3.96,1.99,7.69,1.99,4.14,0,9.91-1.54,13.88-8.89,1.49-2.76,2.88-4.81,4.38-6.45,2.88-3.14,5.02-3.56,6.74-3.56,.94,0,2,.15,3.14,.44,3.32,.85,6.8,2.48,10.95,5.12,8.6,5.48,16.38,12.71,22.86,19.07,9.09,8.92,17.57,18.4,25.48,27.35,.95,1.21,3.66,4.6,8.7,6.08l6.76,1.99,5.76-4.05c5.66-3.98,11.38-8.35,17-12.99,1.27-1.05,2.1-1.3,2.68-1.39,3.46-.58,6.55-1.2,9.44-1.89,5.17-1.24,10.67-2.65,16.22-4.96,7.38-3.08,13.08-8.5,16.49-15.67,3.34-7.05,3.32-14.89,.32-21.59,0,0,9.92-22.82,11.35-40.31,.33-4.1-18.02-2.18-18.02-2.18-1.5,.66-3.01,1.31-4.5,2-1.38,.63-2.7,1.28-3.99,1.93l-.25-.65-4.13-2.59c-2.49-1.56-5.34-2.38-8.27-2.38-1.05,0-2.01,.1-2.88,.27,.4-2.74,.06-5.6-1.11-8.3l-3.08-7.13-5.98-1.11c3.9-8.32,9.51-15.95,16.66-22.68,7.97-7.5,17.91-12.78,30.37-16.14,4.98-1.34,8.92-1.97,12.39-1.97,.85,0,1.68,.04,2.48,.11,.97,.09,1.58,.23,1.93,.33,.08,.22,.19,.54,.3,1,1.32,5.57,1.27,10.69-.16,15.6-2.18,5.35-1.43,11.14,2.05,15.64l7.52,9.71,10.85-5.75,.54-.28c.64-.33,1.28-.67,1.92-1.03,8.17-4.68,15.05-11.29,20.45-19.66,5.47-8.47,9.31-18.18,11.75-29.68,.11-.51,.21-.66,.38-.89,4.94-6.51,10.41-13.48,16.73-21.32,2.8-3.48,5.04-6.77,6.82-10.03,3.63-6.64,5.56-13.1,5.89-19.72,.48-9.59-2.39-18.73-8.53-27.15Z"/>
      <path class="cls-2" d="M404.61,42.1c-3.3-3.4-7.04-6.31-10.55-9.48-2.94-2.66-5.97-5.21-8.93-7.85-.56-.5-1.28-.88-1.63-1.8,2.27-.34,4.51-.24,6.72-.13,3.58,.18,7.15,.14,10.72,.11,12.12-.09,24.23,.13,36.32,1.09,11.38,.9,22.71,2.2,33.98,4.08,12.56,2.1,25.03,4.57,37.34,7.83,13.44,3.56,26.53,8.2,39.61,12.85,8.87,3.15,17.27,7.33,25.44,11.98,5.43,3.09,9.89,7.22,13.59,12.22,2.63,3.56,5.29,7.11,8.39,10.29,4.54,4.65,9.74,8.43,15.4,11.6,19.55,10.95,38.04,23.53,56.23,36.55,4.7,3.36,8.96,7.22,12.38,11.91,3.87,5.3,6.08,11.13,5.75,17.82-.24,4.85-1.83,9.26-4.12,13.46-1.53,2.8-3.38,5.4-5.38,7.88-5.75,7.14-11.43,14.34-16.98,21.65-1.54,2.02-2.5,4.18-3.03,6.68-1.87,8.79-4.83,17.19-9.74,24.79-3.98,6.17-9.04,11.25-15.45,14.91-.67,.38-1.36,.73-2.05,1.09-.53-.69-.02-1.21,.15-1.75,2.49-7.92,2.52-15.9,.62-23.93-1.9-8.01-6.67-11.7-15.05-12.48-6.81-.64-13.46,.53-20.03,2.3-13.71,3.7-26.14,9.79-36.57,19.6-8.41,7.91-15.21,17.02-20.06,27.51-1.38,2.97-2.32,6.09-2.34,9.43-.02,4.2,1.94,7.08,5.7,8.8,1.83,.84,3.79,1.23,5.7,1.58,.26,.61-.16,.8-.42,1.05-6.42,6.11-13.95,7.67-22.41,5.49-2.44-.63-4.72-1.45-6.48-3.4-2.81-3.11-3.7-6.73-3.05-10.8,.7-4.38,2.59-8.28,4.84-12.02,4.02-6.69,8.87-12.74,14.26-18.38,10.6-11.08,22.58-20.39,35.82-28.11,.25-.15,.49-.32,1.09-.73-1.21-.17-1.98-.01-2.75,.13-.76,.15-1.53,.28-2.28,.46-17.43,4.25-33.04,12.06-46.45,24.05-6.08,5.43-11.1,11.77-14.83,19.02-3.01,5.85-4.7,12.15-5.31,18.72-.38,4.11-.41,8.23,.13,12.33,.7,5.3,3.04,9.91,6.06,14.22,6.76,9.62,15.62,16.19,27.4,18.15,10.39,1.73,20.42,.4,29.89-4.42,1.81-.92,3.51-2.04,4.93-3.48,5.66-5.72,12.44-9.75,19.68-13.08,2.03-.93,4.09-1.81,6.14-2.71,.12,.11,.24,.22,.36,.34-6.37,10.1-12.73,20.21-19.08,30.27,.4,.83,1.14,1.18,1.7,1.69,3.89,3.54,4.49,8.7,2.45,13.01-1.88,3.96-4.87,6.77-8.92,8.46-4.53,1.89-9.26,3.1-14.01,4.24-2.79,.67-5.61,1.22-8.45,1.69-3.63,.61-6.76,2.22-9.56,4.54-5.21,4.31-10.57,8.42-16.09,12.3-.84-.25-1.22-.98-1.72-1.55-8.54-9.67-17.16-19.27-26.38-28.31-7.83-7.68-15.94-15.04-25.24-20.96-4.73-3.01-9.69-5.54-15.17-6.95-9.59-2.45-17.62,.17-24.24,7.4-2.59,2.82-4.65,6.02-6.47,9.38-.79,1.46-.81,1.48-2.18,.79-28.98-14.58-59.46-24.99-90.89-32.73-15.15-3.73-30.46-6.72-45.87-9.17-18.65-2.97-37.4-5-56.22-6.34-8.9-.63-17.83-.99-26.75-1.28-13.36-.43-26.73-.43-40.09-.1-13.11,.33-26.22,1.02-39.3,2.07-8.98,.72-17.95,1.53-26.9,2.54-10.03,1.13-20.03,2.46-30.01,3.98-12.74,1.93-25.42,4.18-38.05,6.71-3.71,.74-7.42,1.54-11.33,2.36-.05-1.1,.45-1.9,.76-2.71,4.18-10.96,9.02-21.63,14.11-32.19,9.66-20.04,20.62-39.34,33.02-57.81,13.8-20.57,29.21-39.85,46.34-57.75,32.58-34.06,69.96-61.68,111.58-83.66,27.94-14.75,57.08-26.58,87.19-36.09,.59-.18,1.16-.39,1.99-.67-5.53-5.79-10.93-11.44-16.64-17.42,2.48-.2,4.58-.44,6.69-.52,29.88-1.19,58.34,4.58,85.37,17.42,6.6,3.13,12.96,6.69,19.3,10.3,.21,.19,.42,.39,.72,.17,.13,.83,1,.65,1.44,1.05,0,0,0-.09,0-.09l-.07,.05c-.45-.35-.62-1.12-1.41-.97,.19-.4-.07-.49-.37-.56ZM52.8,258.18c1.35-1.36,2.72-2.72,4.06-4.1,1.32-1.35,1.31-1.37,.72-3.85-1.75,2.76-3.45,5.29-4.81,8.01l.12,.04-.08-.11ZM511.24,99.21l.07-.11-.11,.02c.81,.45,1.61,.92,2.44,1.34,23.35,11.59,46.83,22.89,69.88,35.07,20.04,10.59,39.83,21.62,58.97,33.79,4.32,2.75,8.62,5.54,12.97,8.25,1.61,1,1.71,.95,2.55-.77,2.54-5.24,4.92-10.54,6.92-16.02,.63-1.72,.48-3.07-.75-4.48-3.22-3.7-6.54-7.28-10.17-10.58-.33-.3-.65-.7-1.23-.43-1.39,5.61-2.78,11.23-4.25,17.17-30.53-17.2-60.53-34.8-91.73-50.48,3.42-.61,6.85-1.23,10.45-1.87-.33-.38-.46-.57-.63-.7-8.71-6.99-14.7-15.89-18.41-26.37-.37-1.04-1.05-1-1.77-1.1-2.61-.35-5.23-.66-7.86-.95-.57-.06-1.18-.3-1.93,.16,3.62,6.68,7.21,13.32,10.96,20.24-3.27-.22-6.13-.42-8.99-.61-8.36-.57-16.72-1.14-25.08-1.7-.77-.05-1.55-.17-2.3,.14Zm-313.27,36.69c22.41-14.47,45.39-27.68,69.12-39.61,23.67-11.9,47.93-22.42,72.76-31.78-.25-.44-.3-.59-.4-.7-5.54-5.78-11.12-11.51-16.58-17.36-1.29-1.39-2.33-1.44-4.01-.82-23.81,8.83-47.08,18.89-69.64,30.56-18.22,9.43-35.87,19.82-52.91,31.24-1.03,.69-1.43,1.34-1.29,2.62,.77,6.87,1.4,13.76,2.18,20.62,.19,1.66,0,3.41,.77,5.22Zm125.21-1.72c-1.6,1.61-2.91,3.32-4.06,5.17-4.47,7.15-7.99,14.73-10.39,22.82-5.65,19.05-4.7,37.63,4.51,55.42,8.99,17.38,21.31,32.01,37.26,43.48,15.45,11.11,32.56,18.89,50.42,25.16,5.27,1.85,10.65,3.37,16.34,4.6-.31-.28-.41-.41-.54-.48-.47-.26-.94-.52-1.42-.76-16.68-8.1-32.51-17.55-46.74-29.51-12.65-10.63-23.52-22.79-31.74-37.21-13.52-23.72-17.58-49.3-15.06-76.19,.39-4.17,.95-8.32,1.44-12.49Zm27.35-101.91c.29,.86,.8,1.11,1.21,1.44,7.09,5.82,13.93,11.9,20.25,18.56,7.47,7.86,14.05,16.37,19.09,26.02,1.42,2.72,2.56,5.58,3.97,8.63,4.71-12.02,13.73-18.92,25.77-22.81-21.31-15.77-44.46-26.42-70.28-31.83Zm217.09,148.7c-.08-.14-.17-.28-.25-.43,2.96-3.43,5.93-6.86,9.21-10.66-12.94-.88-24.49,2.62-36,6.9,4.01-5.09,8.02-10.18,12.35-15.68-15.53,3.31-28.52,9.79-38.55,22.2,7.27-.25,14.07,.06,20.87,.68,12.99,1.17,25.58,4.03,37.7,8.87,1.11,.45,1.93,.42,2.99-.24,7.02-4.45,14.1-8.8,21.14-13.2,.41-.26,1.08-.33,1.1-1.2-5.12-.79-10.25-1.15-15.44-.7-5.2,.45-10.17,1.87-15.12,3.47Zm-36.12-87.78c-2.59-6.78-5.84-13.09-9.56-19.15-.4-.65-.93-.95-1.69-1.04-2.15-.25-4.29-.64-6.45-.87-9.03-.96-18.1-1.09-27.17-.99-1.24,.01-2.48,.11-3.72,.17,0,.13-.02,.25-.02,.38,16.2,7.17,32.41,14.34,48.61,21.51Zm-347.98,52.4c2.12-1.43,3.85-2.75,5.73-3.8,1.48-.82,1.76-1.84,1.58-3.41-.67-5.63-1.16-11.28-1.83-16.91-.31-2.63-.28-5.32-1.08-8.13-1.9,1.36-3.52,2.69-5.31,3.74-1.66,.98-2.18,2.2-1.65,4.01,.17,.58,.12,1.23,.19,1.85,.78,7.41,1.56,14.83,2.38,22.66Zm-9.64-22.02c-2.25,1.72-4.12,3.23-6.07,4.61-1.02,.72-1.31,1.54-1.17,2.76,.6,5.25,1.11,10.51,1.65,15.76,.29,2.83,.6,5.66,.92,8.72,2.25-1.2,3.97-2.76,5.93-3.95,1.13-.69,1.52-1.5,1.36-2.85-.63-5.32-1.13-10.66-1.69-15.99-.3-2.84-.6-5.69-.96-9.05Zm-14.17,11.34c-2.34,1.51-4.14,3.33-6.16,4.88-.9,.69-1.18,1.4-1.03,2.56,.48,3.85,.79,7.73,1.19,11.59,.41,3.93,.86,7.86,1.33,12.08,2.2-1.63,4.16-3.14,6.19-4.54,.97-.67,1.2-1.37,1.05-2.53-.49-3.85-.81-7.73-1.22-11.59-.43-4.09-.88-8.17-1.35-12.46Zm-14.09,11.73c-2.48,2.25-4.69,4.26-6.91,6.26-.49,.44-.34,.96-.28,1.5,.61,5.78,1.18,11.55,1.79,17.33,.17,1.65,.4,3.29,.65,5.25,2.42-1.87,4.54-3.53,6.68-5.17,.59-.45,.59-1.04,.53-1.67-.17-1.7-.33-3.39-.51-5.09-.63-5.99-1.26-11.99-1.94-18.43Zm-16.16,39.57c2.49-2.01,4.64-3.76,6.81-5.49,.68-.54,.49-1.22,.42-1.91-.45-4.24-.88-8.48-1.33-12.72-.31-2.89-.65-5.77-1.03-9.11-2.49,2.37-4.65,4.44-6.81,6.49-.46,.44-.37,.96-.31,1.51,.74,6.93,1.47,13.87,2.25,21.23Zm-6.26-18.48c-2.52,2.62-4.64,4.84-6.78,7.04-.44,.45-.42,.93-.36,1.49,.61,5.78,1.19,11.56,1.8,17.33,.06,.59,.05,1.23,.56,1.88,1.84-1.54,3.62-3.13,5.51-4.59,1.08-.83,1.53-1.67,1.36-3.12-.75-6.46-1.37-12.94-2.1-20.04Zm-16.22,37.71c1.86-1.62,3.48-3.17,5.25-4.51,1.45-1.1,1.99-2.3,1.72-4.14-.48-3.22-.64-6.49-1.07-9.71-.32-2.39-.24-4.85-1.04-7.5-2.11,2.34-3.99,4.49-5.96,6.55-.73,.76-.94,1.51-.83,2.5,.45,4.01,.81,8.03,1.29,12.03,.18,1.5,.03,3.07,.64,4.78Zm-11.45,9.88c.73,.04,1-.36,1.33-.66,1.49-1.36,2.89-2.83,4.48-4.05,1.29-1,1.53-2.12,1.35-3.63-.51-4.23-.92-8.48-1.37-12.71-.08-.72,0-1.5-.62-2.25-2.1,2.47-4.08,4.85-6.11,7.17-.64,.73-.69,1.5-.59,2.37,.51,4.54,1.01,9.08,1.52,13.76Zm-11.22,11.09c1.73-1.64,3-3.1,4.52-4.24,2.2-1.65,3.34-3.53,2.38-6.32-.12-.35-.05-.77-.09-1.16-.34-3.12-.68-6.23-1.06-9.72-2.38,2.55-4.12,5.11-6.09,7.46-.71,.85-.93,1.7-.81,2.77,.4,3.54,.73,7.09,1.15,11.19Zm-5.05-6.93c-.15-.07-.3-.13-.46-.2-1.58,2.17-3.09,4.4-4.78,6.5-1.33,1.66-2.02,3.34-1.57,5.52,.38,1.82,.47,3.71,.73,5.97,2.43-2.38,4.51-4.45,6.62-6.48,.51-.49,.58-1.04,.51-1.68-.36-3.21-.71-6.42-1.06-9.63Zm-17.38,28.48c2.27-2.05,4.51-4.06,6.73-6.08,.28-.25,.61-.54,.57-.97-.22-2.18-.46-4.36-.7-6.55-2.46,2.97-4.47,5.99-6.49,9-.27,.41-.39,.83-.35,1.31,.1,1.15,.18,2.3,.25,3.28Z"/>
      <path class="cls-2" d="M564.64,299.7c.23,.59-.25,.87-.51,1.2-4.79,5.99-10.36,11.09-17.02,14.96-3.32,1.93-5.28,1.77-8.22-.71-3.2-2.7-6.39-5.41-9.56-8.14-1.81-1.56-1.81-2.9,.02-4.37,2.66-2.14,5.34-4.24,8.04-6.33,1.51-1.17,1.91-1.13,3.34,.29,1.65,1.64,3.33,3.26,4.86,5,2.19,2.48,4.64,3.01,7.71,1.76,3.15-1.29,6.4-2.32,9.62-3.42,.53-.18,1.1-.62,1.72-.23Z"/>
      <path class="cls-1" d="M197.97,135.89c-.76-1.81-.58-3.55-.77-5.22-.79-6.87-1.41-13.75-2.18-20.62-.14-1.28,.25-1.93,1.29-2.62,17.05-11.42,34.69-21.82,52.91-31.24,22.56-11.67,45.83-21.73,69.64-30.56,1.67-.62,2.72-.57,4.01,.82,5.45,5.86,11.04,11.58,16.58,17.36,.1,.11,.15,.26,.4,.7-24.83,9.36-49.09,19.88-72.76,31.78-23.72,11.93-46.71,25.14-69.12,39.61Z"/>
      <path class="cls-3" d="M323.18,134.17c-.49,4.17-1.05,8.32-1.44,12.49-2.51,26.89,1.54,52.48,15.06,76.19,8.22,14.42,19.09,26.58,31.74,37.21,14.24,11.96,30.07,21.41,46.74,29.51,.48,.23,.95,.5,1.42,.76,.13,.07,.23,.2,.54,.48-5.69-1.23-11.07-2.75-16.34-4.6-17.86-6.27-34.97-14.05-50.42-25.16-15.95-11.47-28.26-26.09-37.26-43.48-9.2-17.78-10.16-36.37-4.51-55.42,2.4-8.09,5.92-15.67,10.39-22.82,1.15-1.84,2.46-3.56,4.06-5.17Z"/>
      <path class="cls-3" d="M511.23,99.2c.75-.3,1.54-.18,2.3-.13,8.36,.56,16.72,1.13,25.08,1.7,2.86,.19,5.71,.39,8.99,.61-3.74-6.92-7.34-13.56-10.96-20.24,.75-.46,1.36-.22,1.93-.16,2.62,.29,5.24,.6,7.86,.95,.72,.1,1.4,.05,1.77,1.1,3.71,10.47,9.7,19.38,18.41,26.37,.17,.14,.29,.33,.63,.7-3.6,.65-7.03,1.26-10.45,1.87,31.2,15.69,61.2,33.28,91.73,50.48,1.47-5.93,2.86-11.56,4.25-17.17,.58-.27,.9,.13,1.23,.43,3.63,3.3,6.95,6.88,10.17,10.58,1.23,1.42,1.38,2.77,.75,4.48-2,5.48-4.38,10.78-6.92,16.02-.84,1.72-.94,1.77-2.55,.77-4.35-2.71-8.64-5.5-12.97-8.25-19.14-12.17-38.93-23.2-58.97-33.79-23.05-12.18-46.54-23.48-69.88-35.07-.83-.41-1.63-.89-2.44-1.34l.04,.09Z"/>
      <path class="cls-3" d="M350.52,32.26c25.82,5.41,48.98,16.06,70.28,31.83-12.03,3.89-21.06,10.79-25.77,22.81-1.41-3.05-2.55-5.91-3.97-8.63-5.04-9.65-11.62-18.16-19.09-26.02-6.32-6.65-13.17-12.74-20.25-18.56-.4-.33-.91-.58-1.21-1.44Z"/>
      <path class="cls-3" d="M567.62,180.96c4.94-1.6,9.92-3.02,15.12-3.47,5.19-.45,10.32-.09,15.44,.7-.02,.87-.69,.94-1.1,1.2-7.05,4.4-14.12,8.76-21.14,13.2-1.06,.67-1.88,.69-2.99,.24-12.12-4.85-24.71-7.7-37.7-8.87-6.8-.61-13.6-.93-20.87-.68,10.03-12.41,23.02-18.89,38.55-22.2-4.33,5.5-8.34,10.59-12.35,15.68,11.51-4.28,23.06-7.78,36-6.9-3.28,3.8-6.25,7.23-9.21,10.66,.08,.14,.17,.28,.25,.43Z"/>
      <path class="cls-3" d="M531.5,93.17c-16.2-7.17-32.41-14.34-48.61-21.51,0-.13,.02-.25,.02-.38,1.24-.06,2.48-.15,3.72-.17,9.07-.1,18.14,.03,27.17,.99,2.16,.23,4.29,.62,6.45,.87,.76,.09,1.29,.39,1.69,1.04,3.72,6.06,6.97,12.37,9.56,19.15Z"/>
      <path class="cls-3" d="M183.52,145.57c-.82-7.83-1.6-15.25-2.38-22.66-.06-.62-.01-1.27-.19-1.85-.53-1.81-.02-3.02,1.65-4.01,1.79-1.05,3.41-2.39,5.31-3.74,.81,2.81,.77,5.5,1.08,8.13,.67,5.63,1.16,11.28,1.83,16.91,.19,1.57-.1,2.59-1.58,3.41-1.88,1.05-3.61,2.37-5.73,3.8Z"/>
      <path class="cls-3" d="M173.88,123.56c.36,3.36,.66,6.2,.96,9.05,.55,5.33,1.06,10.67,1.69,15.99,.16,1.35-.23,2.16-1.36,2.85-1.96,1.19-3.69,2.76-5.93,3.95-.32-3.06-.63-5.89-.92-8.72-.55-5.25-1.06-10.51-1.65-15.76-.14-1.22,.15-2.03,1.17-2.76,1.95-1.38,3.81-2.89,6.07-4.61Z"/>
      <path class="cls-3" d="M159.71,134.9c.46,4.28,.92,8.37,1.35,12.46,.41,3.86,.74,7.74,1.22,11.59,.15,1.16-.08,1.87-1.05,2.53-2.03,1.4-3.98,2.91-6.19,4.54-.47-4.23-.92-8.15-1.33-12.08-.41-3.86-.71-7.74-1.19-11.59-.15-1.17,.14-1.88,1.03-2.56,2.02-1.55,3.82-3.37,6.16-4.88Z"/>
      <path class="cls-3" d="M145.61,146.64c.68,6.44,1.31,12.43,1.94,18.43,.18,1.69,.34,3.39,.51,5.09,.06,.63,.06,1.22-.53,1.67-2.14,1.63-4.26,3.29-6.68,5.17-.24-1.96-.47-3.6-.65-5.25-.6-5.78-1.18-11.55-1.79-17.33-.06-.55-.21-1.06,.28-1.5,2.22-2,4.43-4.02,6.91-6.26Z"/>
      <path class="cls-3" d="M129.46,186.2c-.78-7.36-1.51-14.3-2.25-21.23-.06-.55-.15-1.07,.31-1.51,2.16-2.06,4.32-4.12,6.81-6.49,.38,3.35,.72,6.23,1.03,9.11,.46,4.24,.89,8.48,1.33,12.72,.07,.69,.26,1.37-.42,1.91-2.17,1.73-4.32,3.48-6.81,5.49Z"/>
      <path class="cls-3" d="M123.19,167.72c.73,7.1,1.34,13.58,2.1,20.04,.17,1.44-.28,2.28-1.36,3.12-1.89,1.45-3.67,3.04-5.51,4.59-.51-.65-.5-1.29-.56-1.88-.61-5.78-1.19-11.56-1.8-17.33-.06-.56-.07-1.04,.36-1.49,2.14-2.2,4.26-4.42,6.78-7.04Z"/>
      <path class="cls-3" d="M106.98,205.43c-.61-1.71-.46-3.28-.64-4.78-.48-4-.84-8.02-1.29-12.03-.11-.99,.11-1.74,.83-2.5,1.97-2.06,3.85-4.21,5.96-6.55,.8,2.64,.72,5.1,1.04,7.5,.43,3.23,.59,6.49,1.07,9.71,.27,1.84-.27,3.04-1.72,4.14-1.78,1.34-3.39,2.89-5.25,4.51Z"/>
      <path class="cls-3" d="M95.53,215.3c-.52-4.68-1.01-9.22-1.52-13.76-.1-.87-.05-1.64,.59-2.37,2.04-2.32,4.02-4.7,6.11-7.17,.63,.75,.54,1.53,.62,2.25,.45,4.24,.86,8.48,1.37,12.71,.18,1.51-.06,2.63-1.35,3.63-1.59,1.22-2.99,2.69-4.48,4.05-.33,.3-.61,.7-1.33,.66Z"/>
      <path class="cls-3" d="M84.31,226.4c-.41-4.11-.75-7.65-1.15-11.19-.12-1.07,.1-1.92,.81-2.77,1.97-2.36,3.71-4.91,6.09-7.46,.38,3.49,.72,6.6,1.06,9.72,.04,.39-.03,.8,.09,1.16,.96,2.78-.18,4.66-2.38,6.32-1.52,1.14-2.79,2.6-4.52,4.24Z"/>
      <path class="cls-3" d="M79.26,219.47c.35,3.21,.7,6.42,1.06,9.63,.07,.64,0,1.19-.51,1.68-2.11,2.03-4.19,4.09-6.62,6.48-.26-2.26-.35-4.15-.73-5.97-.46-2.18,.24-3.86,1.57-5.52,1.68-2.1,3.19-4.33,4.78-6.5,.15,.07,.3,.13,.46,.2Z"/>
      <path class="cls-3" d="M61.88,247.96c-.07-.99-.15-2.13-.25-3.28-.04-.49,.08-.91,.35-1.31,2.02-3.01,4.03-6.03,6.49-9,.24,2.18,.48,4.36,.7,6.55,.04,.43-.29,.71-.57,.97-2.22,2.02-4.45,4.03-6.73,6.08Z"/>
      <path class="cls-3" d="M52.76,258.27c1.36-2.74,3.07-5.27,4.82-8.03,.59,2.48,.6,2.49-.72,3.85-1.34,1.38-2.71,2.73-4.06,4.1l-.04,.08Z"/>
      <path class="cls-3" d="M406.46,43.68c-.44-.41-1.31-.23-1.44-1.05,0,0-.04,.04-.04,.04,.79-.15,.96,.62,1.41,.97l.07,.04Z"/>
      <path class="cls-1" d="M404.61,42.1c.3,.07,.56,.17,.37,.56,0,0,.04-.04,.04-.04-.31,.22-.51,.02-.72-.17,.1-.12,.21-.23,.31-.35Z"/>
      <path class="cls-3" d="M406.39,43.64l.07-.05s-.01,.09,0,.09c0,0-.07-.04-.07-.04Z"/>
      <polygon class="cls-3" points="511.2 99.11 511.31 99.09 511.24 99.21 511.2 99.11"/>
      <path class="cls-3" d="M52.8,258.18l.08,.11s-.12-.04-.12-.03,.04-.08,.04-.08Z"/>
    </g>
  </g>
</svg>