<?xml version="1.0" encoding="UTF-8"?><svg id="b" xmlns="http://www.w3.org/2000/svg" viewBox="0 0 1339.25 186.8"><g id="c"><polygon points="225.37 131.7 247.29 109.78 258.42 120.91 258.42 87.85 257.5 86.93 199.19 86.93 198.27 87.85 198.27 137.65 199.19 138.57 229.64 138.57 258.85 169.57 186.35 169.57 167.27 150.49 167.27 75.01 186.35 55.93 270.34 55.93 289.42 75.01 289.42 151.91 302.4 164.88 280.48 186.8 225.37 131.7" fill="#e4e6ed" stroke-width="0"/><polygon points="247.29 114.02 229.61 131.7 280.48 182.56 298.15 164.88 286.42 153.15 286.42 76.25 269.1 58.93 187.59 58.93 170.27 76.25 170.27 149.25 187.59 166.57 251.9 166.57 228.34 141.57 197.94 141.57 195.27 138.9 195.27 86.61 197.94 83.93 258.74 83.93 261.42 86.61 261.42 128.15 247.29 114.02" fill="#fff" stroke-width="0"/><polygon points="243.75 131.7 247.29 128.16 271.42 152.29 271.42 82.46 262.89 73.93 193.8 73.93 185.27 82.46 185.27 143.04 193.8 151.57 224.03 151.57 228.74 156.57 191.73 156.57 180.27 145.11 180.27 80.39 191.73 68.93 264.96 68.93 276.42 80.39 276.42 157.29 284.01 164.88 280.48 168.42 243.75 131.7" fill="#e4e6ed" stroke-width="0"/><polygon points="333.59 172.44 314.52 153.36 314.52 58.79 345.52 58.79 345.52 140.52 346.44 141.44 404.75 141.44 405.67 140.52 405.67 58.79 436.67 58.79 436.67 153.36 417.59 172.44 333.59 172.44" fill="#e4e6ed" stroke-width="0"/><polygon points="317.52 61.79 317.52 152.12 334.84 169.44 416.35 169.44 433.67 152.12 433.67 61.79 408.67 61.79 408.67 141.76 405.99 144.44 345.19 144.44 342.52 141.76 342.52 61.79 317.52 61.79" fill="#fff" stroke-width="0"/><polygon points="338.98 159.44 327.52 147.97 327.52 71.79 332.52 71.79 332.52 145.9 341.05 154.44 410.14 154.44 418.67 145.9 418.67 71.79 423.67 71.79 423.67 147.97 412.21 159.44 338.98 159.44" fill="#e4e6ed" stroke-width="0"/><polygon points="559.36 71.79 570.83 83.26 570.83 159.44 565.83 159.44 565.83 85.33 557.29 76.79 488.21 76.79 479.67 85.33 479.67 159.44 474.67 159.44 474.67 83.26 486.14 71.79 559.36 71.79" fill="#e4e6ed" stroke-width="0"/><path d="M552.83,172.44v-20.62h-60.16v20.62h-31v-94.57l19.08-19.08h84l19.08,19.08v94.57h-31ZM552.83,120.82v-30.11l-.92-.92h-58.31l-.92.92v30.11h60.16Z" fill="#e4e6ed" stroke-width="0"/><path d="M563.5,61.79h-81.51l-17.32,17.32v90.32h25v-20.62h66.16v20.62h25v-90.32l-17.32-17.32ZM489.67,123.82v-34.35l2.68-2.68h60.8l2.68,2.68v34.35h-66.16Z" fill="#fff" stroke-width="0"/><path d="M565.83,159.44v-20.62h-86.16v20.62h-5v-76.18l11.46-11.46h73.23l11.46,11.46v76.18h-5ZM479.67,85.33v48.49h86.16v-48.49l-8.54-8.54h-69.08l-8.54,8.54Z" fill="#e4e6ed" stroke-width="0"/><polygon points="717.75 148 706.28 159.47 621.83 159.47 621.83 154.47 704.21 154.47 712.75 145.93 712.75 85.3 704.21 76.76 621.83 76.76 621.83 71.76 706.28 71.76 717.75 83.23 717.75 148" fill="#e4e6ed" stroke-width="0"/><path d="M608.83,172.47V58.76h102.84l19.08,19.08v75.55l-19.08,19.08h-102.84ZM698.83,141.47l.92-.92v-49.87l-.92-.92h-59v51.71h59Z" fill="#e4e6ed" stroke-width="0"/><path d="M710.43,61.76h-98.6v107.71h98.6l17.32-17.32v-73.06l-17.32-17.32ZM702.75,141.79l-2.68,2.68h-63.24v-57.71h63.24l2.68,2.68v52.35Z" fill="#fff" stroke-width="0"/><path d="M621.83,159.47v-87.71h84.46l11.46,11.46v64.78l-11.46,11.46h-84.46ZM626.83,154.47h77.39l8.54-8.54v-60.64l-8.54-8.54h-77.39v77.71Z" fill="#e4e6ed" stroke-width="0"/><polygon points="774.94 172.47 755.86 153.39 755.86 128.97 786.86 128.97 786.86 140.55 787.78 141.47 866.09 141.47 867.02 140.55 867.02 102.83 866.09 101.91 774.83 101.91 755.75 82.83 755.75 19.08 774.83 0 878.6 0 897.68 19.08 897.68 43.5 866.68 43.5 866.68 31.92 865.76 31 787.67 31 786.75 31.92 786.75 69.99 787.67 70.91 878.94 70.91 898.02 89.99 898.02 153.39 878.94 172.47 774.94 172.47" fill="#e4e6ed" stroke-width="0"/><polygon points="877.69 169.47 776.18 169.47 758.86 152.15 758.86 131.97 783.86 131.97 783.86 141.79 786.54 144.47 867.34 144.47 870.02 141.79 870.02 101.59 867.34 98.91 776.07 98.91 758.75 81.59 758.75 20.32 776.07 3 877.36 3 894.68 20.32 894.68 40.5 869.68 40.5 869.68 30.68 867.01 28 786.43 28 783.75 30.68 783.75 71.23 786.43 73.91 877.69 73.91 895.02 91.23 895.02 152.15 877.69 169.47" fill="#fff" stroke-width="0"/><polygon points="780.32 159.47 768.86 148 768.86 141.97 773.86 141.97 773.86 145.93 782.39 154.47 871.48 154.47 880.02 145.93 880.02 97.44 871.48 88.91 780.21 88.91 768.75 77.44 768.75 24.46 780.21 13 873.22 13 884.68 24.46 884.68 30.5 879.68 30.5 879.68 26.54 871.15 18 782.28 18 773.75 26.54 773.75 75.37 782.28 83.91 873.55 83.91 885.02 95.37 885.02 148 873.55 159.47 780.32 159.47" fill="#e4e6ed" stroke-width="0"/><polygon points="1173.25 58.79 1192.33 77.87 1192.33 172.44 1161.33 172.44 1161.33 90.71 1160.41 89.79 1102.09 89.79 1101.17 90.71 1101.17 172.44 1070.17 172.44 1070.17 77.87 1089.25 58.79 1173.25 58.79" fill="#e4e6ed" stroke-width="0"/><polygon points="1189.33 169.44 1189.33 79.11 1172 61.79 1090.49 61.79 1073.17 79.11 1073.17 169.44 1098.17 169.44 1098.17 89.47 1100.85 86.79 1161.65 86.79 1164.33 89.47 1164.33 169.44 1189.33 169.44" fill="#fff" stroke-width="0"/><polygon points="1167.86 71.79 1179.33 83.26 1179.33 159.44 1174.33 159.44 1174.33 85.33 1165.79 76.79 1096.71 76.79 1088.17 85.33 1088.17 159.44 1083.17 159.44 1083.17 83.26 1094.64 71.79 1167.86 71.79" fill="#e4e6ed" stroke-width="0"/><polygon points="947.48 139.44 936.01 127.97 936.01 71.79 941.01 71.79 941.01 125.9 949.55 134.44 1018.64 134.44 1027.17 125.9 1027.17 71.79 1032.17 71.79 1032.17 127.97 1020.71 139.44 947.48 139.44" fill="#e4e6ed" stroke-width="0"/><polygon points="968.59 172.47 968.59 152.44 942.09 152.44 923.02 133.36 923.02 58.79 954.02 58.79 954.02 120.52 954.94 121.44 1013.25 121.44 1014.17 120.52 1014.17 58.79 1045.17 58.79 1045.17 133.36 1026.09 152.44 999.59 152.44 999.59 172.47 968.59 172.47" fill="#e4e6ed" stroke-width="0"/><polygon points="1017.17 61.79 1017.17 121.76 1014.49 124.44 953.69 124.44 951.02 121.76 951.02 61.79 926.02 61.79 926.02 132.12 943.34 149.44 971.59 149.44 971.59 169.47 996.59 169.47 996.59 149.44 1024.85 149.44 1042.17 132.12 1042.17 61.79 1017.17 61.79" fill="#fff" stroke-width="0"/><polygon points="981.59 159.47 981.59 139.44 947.48 139.44 936.02 127.97 936.02 71.79 941.02 71.79 941.02 125.9 949.55 134.44 1018.64 134.44 1027.17 125.9 1027.17 71.79 1032.17 71.79 1032.17 127.97 1020.71 139.44 986.59 139.44 986.59 159.47 981.59 159.47" fill="#e4e6ed" stroke-width="0"/><polygon points="1230.33 83.23 1241.79 71.76 1326.25 71.76 1326.25 76.76 1243.86 76.76 1235.33 85.3 1235.33 145.93 1243.86 154.47 1326.25 154.47 1326.25 159.47 1241.79 159.47 1230.33 148 1230.33 83.23" fill="#e4e6ed" stroke-width="0"/><polygon points="1236.41 172.47 1217.33 153.39 1217.33 77.84 1236.41 58.76 1339.25 58.76 1339.25 89.76 1249.25 89.76 1248.33 90.68 1248.33 140.55 1249.25 141.47 1339.25 141.47 1339.25 172.47 1236.41 172.47" fill="#e4e6ed" stroke-width="0"/><path d="M1248,144.47l-2.68-2.68v-52.35l2.68-2.68h88.24v-25h-98.6l-17.32,17.32v73.06l17.32,17.32h98.6v-25h-88.24Z" fill="#fff" stroke-width="0"/><path d="M1326.25,159.47h-84.46l-11.46-11.46v-64.78l11.46-11.46h84.46v5h-82.39l-8.54,8.54v60.64l8.54,8.54h82.39v5Z" fill="#e4e6ed" stroke-width="0"/><polygon points="19.19 172.47 .11 153.39 .11 128.97 31.11 128.97 31.11 140.55 32.03 141.47 110.35 141.47 111.27 140.55 111.27 102.83 110.35 101.91 19.08 101.91 0 82.83 0 19.08 19.08 0 122.86 0 141.94 19.08 141.94 43.5 110.94 43.5 110.94 31.92 110.02 31 31.92 31 31 31.92 31 69.99 31.92 70.91 123.19 70.91 142.27 89.99 142.27 153.39 123.19 172.47 19.19 172.47" fill="#e4e6ed" stroke-width="0"/><polygon points="121.94 169.47 20.43 169.47 3.11 152.15 3.11 131.97 28.11 131.97 28.11 141.79 30.79 144.47 111.59 144.47 114.27 141.79 114.27 101.59 111.59 98.91 20.32 98.91 3 81.59 3 20.32 20.32 3 121.61 3 138.94 20.32 138.94 40.5 113.94 40.5 113.94 30.68 111.26 28 30.68 28 28 30.68 28 71.23 30.68 73.91 121.94 73.91 139.27 91.23 139.27 152.15 121.94 169.47" fill="#fff" stroke-width="0"/><polygon points="24.57 159.47 13.11 148 13.11 141.97 18.11 141.97 18.11 145.93 26.65 154.47 115.73 154.47 124.27 145.93 124.27 97.44 115.73 88.91 24.46 88.91 13 77.44 13 24.46 24.46 13 117.47 13 128.94 24.46 128.94 30.5 123.94 30.5 123.94 26.54 115.4 18 26.54 18 18 26.54 18 75.37 26.54 83.91 117.8 83.91 129.27 95.37 129.27 148 117.8 159.47 24.57 159.47" fill="#e4e6ed" stroke-width="0"/></g></svg>