<?xml version="1.0" encoding="UTF-8"?><svg id="b" xmlns="http://www.w3.org/2000/svg" viewBox="0 0 700 482.6"><g id="c"><path d="M520.02,28.46c4.36-3.79,7.84-6.81,12.39-10.76,38.42,11.55,77.34,23.24,117.11,35.2,8.85,41.55,17.68,82.98,26.52,124.45-18.33,19.62-36.11,38.66-54.84,58.7,26.26,40.24,52.57,80.57,78.79,120.76-3.32,5.04-8.06,7.14-12.19,9.79-85.93,55.13-178.01,95.75-279.56,110.13-103.71,14.69-204.27,3.33-296.47-50.7-53.25-31.21-91.41-75.75-105.83-137C-12.91,208.91,13.98,143.13,73.78,89.68,127.21,41.93,191.67,17.82,261.41,6.1c83.55-14.04,165.12-2.19,245.98,18.83,4.03,1.05,8.03,2.24,12.64,3.53ZM525.9,57.27c-43.7-15.79-89.35-24.87-135.93-29.8-70.92-7.5-140.38-2.31-207.25,24.19-53.13,21.06-99.41,51.58-130.82,100.7-30.94,48.4-35.34,99.9-14.26,153.24,17.03,43.12,47.65,74.91,86.29,99.29,57.92,36.54,122.36,50.58,189.78,52.75,75.84,2.45,148.98-11.6,219.76-38.56,46.91-17.87,91.05-41.14,134.15-68.22-22.53-34.06-44.69-67.55-67.52-102.07-54.52,38.18-113.62,61.8-178.62,76.75,13.89-52.93,27.17-103.55,40.7-155.09,23.15,7.39,44.63,15.48,65.13,26.12,21.03,10.92,39.05,25.97,56.84,42.5,22.35-23.49,44.02-46.27,66.09-69.46-7.11-32.6-14.17-64.95-21.26-97.48-30.48-9.04-60.22-17.85-89.2-26.44-6.03,3.21-7.99,9.19-13.87,11.57Z" fill="#013360" stroke-width="0"/><path d="M525.9,57.27c5.88-2.38,7.84-8.36,13.87-11.57,28.99,8.59,58.72,17.41,89.2,26.44,7.1,32.53,14.15,64.88,21.26,97.48-22.07,23.19-43.74,45.97-66.09,69.46-17.79-16.53-35.81-31.58-56.84-42.5-20.5-10.64-41.98-18.73-65.13-26.12-13.53,51.54-26.81,102.17-40.7,155.09,65-14.95,124.11-38.57,178.62-76.75,22.83,34.52,44.99,68.01,67.52,102.07-43.1,27.08-87.24,50.35-134.15,68.22-70.78,26.97-143.92,41.02-219.76,38.56-67.42-2.18-131.86-16.21-189.78-52.75-38.65-24.38-69.26-56.17-86.29-99.29-21.07-53.34-16.68-104.84,14.26-153.24,31.41-49.13,77.69-79.64,130.82-100.7,66.86-26.51,136.32-31.69,207.25-24.19,46.58,4.92,92.23,14.01,135.93,29.8ZM531.27,78.65c-1.34.21-1.81.43-2.16.31-1.99-.69-3.94-1.45-5.91-2.19-81.46-30.69-165.49-41.47-251.78-30.13-61.66,8.1-118.04,30.25-165.96,70.95-29.17,24.78-51.93,54.45-59.53,92.83-11.2,56.53,7.03,104.69,45.92,145.51,35.94,37.72,81.29,59.11,131.11,71.7,62.66,15.84,125.89,14.3,189.29,5.24,83.01-11.87,158.12-44.45,230.29-87.84-15.7-24.06-31.2-47.84-46.83-71.79-9.25,5.2-17.34,9.66-25.34,14.27-95.1,54.76-197.08,73.13-305.3,56.88-36.61-5.5-71.32-16.93-100.2-41.38-45.64-38.64-43.87-93.91,3.88-129.78,20.89-15.7,44.68-25.22,69.93-30.81,82.62-18.27,163.94-11.15,243.98,14.31,37.16,11.82,71.14,29.81,97.6,54.86,17.28-15.71,33.75-30.68,50.4-45.81-5.69-27.31-11.15-53.52-16.62-79.75-24.26-7.16-47.5-14.02-70.15-20.71-5.15,5.44-9.14,9.66-12.62,13.33ZM222.31,168.25c-15.25,4.83-28.33,11.4-40.21,20.23-36.58,27.19-39.2,65.98-6.52,97.97,19.17,18.76,42.8,29.25,68.46,35.68,5.53,1.38,11.01,3.72,17.9,1.62-13.26-52.04-26.4-103.59-39.64-155.5ZM355.9,204.49c12.63-3.35,25.37.63,38.2-2.56-.42-6.94.99-13.46-.85-19.73h-102.8c-.55,7.44-1.42,13.93.92,21.29h38.02v107.81c9.65.13,17.88,1.51,26.51-1.05v-105.75ZM284.03,176.14c11.51-2.1,22.48.74,33.01-1.83,2.06-7.35,4.83-13.92,4.55-22.43-20.42.2-40.53.72-60.53,6.18,9.45,40.54,18.57,79.69,27.69,118.85.59.04,1.18.08,1.77.11,5.71-21.98,11.42-43.95,17.11-65.87-8.38-3.84-16.38.1-23.61-3.53v-31.48ZM423.51,159.78c-20.06-3.83-38.57-6.5-57.98-7.19,1.11,8.48,2.28,15.74,5.5,22.12,9.77,1.84,19.11-.91,28.3,1.76v31.23c-6.63,3.4-13.88-.64-20.51,3.63,5.35,22.08,10.65,43.95,15.96,65.82.7-.07,1.41-.14,2.11-.22,8.74-38.47,17.48-76.93,26.62-117.16ZM374.61,331.37c-3.98-13.84-7.53-26.19-11.09-38.54-.77.14-1.54.28-2.32.43v23.66h-38.03v-24.27c-.7-.04-1.41-.08-2.11-.12-3.83,12.62-7.66,25.25-11.77,38.79,22.07,1.46,42.85,2.28,65.31.06Z" fill="#f9f6f6" stroke-width="0"/><path d="M531.27,78.65c3.48-3.67,7.47-7.89,12.62-13.33,22.66,6.69,45.89,13.55,70.15,20.71,5.47,26.23,10.93,52.44,16.62,79.75-16.64,15.13-33.12,30.1-50.4,45.81-26.46-25.05-60.44-43.04-97.6-54.86-80.04-25.46-161.36-32.59-243.98-14.31-25.25,5.58-49.04,15.11-69.93,30.81-47.75,35.88-49.53,91.14-3.88,129.78,28.88,24.45,63.59,35.88,100.2,41.38,108.22,16.25,210.2-2.12,305.3-56.88,8-4.61,16.09-9.07,25.34-14.27,15.63,23.96,31.13,47.73,46.83,71.79-72.16,43.39-147.27,75.97-230.29,87.84-63.39,9.06-126.62,10.59-189.29-5.24-49.82-12.59-95.16-33.97-131.11-71.7-38.89-40.82-57.12-88.97-45.92-145.51,7.6-38.38,30.36-68.05,59.53-92.83,47.92-40.71,104.3-62.85,165.96-70.95,86.29-11.34,170.32-.55,251.78,30.13,1.97.74,3.92,1.51,5.91,2.19.35.12.81-.1,2.16-.31ZM488.76,103.75c4.04-.39,7.61,3.48,11.86,1.56-.33-11.59-5.9-17.46-19.32-19.94-8.17-1.5-16.75-1.62-20.62,7.32-4.14,9.58,3.13,14.35,10.09,18.87,4.51,2.93,11.06,4.05,11.96,10.93-14.43,10.35-15.85-15.43-28.33-9.12-.23,12.73,6.81,19.66,21.74,21.4,12.51,1.46,18-2.59,20.85-15.29-1.3-6.57-6.87-9.32-11.24-13.1,1.01-.88,2.01-1.76,3.02-2.64ZM361.99,111.97c4.2,1.66,7.35,2.65,11.08.32,3.9-8.89,7.98-18.17,13.09-29.8,1.28,12.58-3.03,21.95-1.46,31.62,3.57,1.69,6.95,3.2,11.46,1.12,1.85-14.89,4.67-29.94,4.93-45.59-7.15-.49-13.14-2.8-19.8-1.6-3.76,8.38-7.42,16.54-11.09,24.71-.74-.08-1.49-.16-2.23-.24-2.2-8.67-4.4-17.34-6.69-26.36-7.55-1.19-14.49-1.69-22.6-.95-.76,15.75-2,30.92-1.14,45.96,5.02,1.06,8.67,1.81,12.94-.54.57-9.11,1.17-18.59,1.77-28.07l2.01-.03c2.54,9.67,5.08,19.34,7.73,29.44ZM225.6,403.42c2.93-4.62-.47-9.87,2.95-13.71,13.56-1.03,9.72,10.91,12.84,17.45,2.9.6,5.5,2.96,8.33.25.46-6.86-.57-13.33-4.31-19.63,3.22-3.83,4.3-8.72,5.69-13.6,4.32,1.2,8.17,2.27,12.65,3.51v31.46c3.54,2.41,6.45,3.61,11.07,1.26v-30.94c4.47-2.92,8.76.46,11.95-2.71.81-2.84,1.44-5.67-2.13-8.26-9.78-.85-20.15-1.76-30.74-2.68-1.02,2.17-1.99,4.24-3.04,6.46-9.63-9.82-10.67-10.28-33.02-14.56v43.61c2.31,1.39,4.44,2.68,7.77,2.08ZM301.34,64.57c-15.02.25-27.17,11.07-27.07,24.09.11,14.09,12.59,25.7,27.32,25.41,15.52-.31,27.86-12.25,27.55-26.67-.29-13.27-12.25-23.09-27.79-22.83ZM231.3,123.66c4.94.02,8.94,0,11.5-3.69-.26-5.93-3.99-10.75-2.61-17.32,4.52-.63,8.87-3.39,14.88-2.35,1.52,5.46,3.05,11.01,4.53,16.34,4.34,1.39,7.86,1.32,11.71-2.24-2.55-14.21-5.17-28.84-7.74-43.16-5.64-.19-9.35-.08-12.69,1.94-1.84,5.14,2.16,9.78,1.16,15.06-4.99,2.08-9.99,3.86-16.15,3.24-1.54-4.69-3.08-9.39-4.57-13.9-4.94-1.17-8.69.26-13,3.2,4.3,14.19,8.63,28.5,12.99,42.88ZM160.98,360.24c-5.67-10.82,2.16-26.47-12.54-35.58-2.54,9.69-1.8,18.29-5.23,26.09-5.21-11.28,1.43-25.99-11.25-34.55,1.21,16.43,3.56,32.57,6.05,48.69.77,4.98,3.02,8.52,9.2,7.36,3.44-7.3,1.21-15.68,5.13-22.72,1.55,6.15,1.91,12.27,2.84,18.3.94,6.11.14,13.93,10.58,13.69,2.99-14.34,5.88-28.24,8.92-42.84-3.15-.85-4.72-3.99-8.51-2.53-2.97,7.63-1.19,16.53-5.2,24.09ZM449.22,125.23c-2.85-16.22-4.2-32.75-9.13-48.26-5.07-2.1-9.36-3.59-14.86-1.88-7.85,13.21-15.95,26.84-24,40.38,3.64,3.46,7.42,3.46,11.53,3.64,2.05-2.27,4.22-4.67,6.6-7.29,5.17,1.17,10.03,2.26,14.84,3.35,1.14,3.09,2.14,5.78,3.36,9.07,3.55-.07,6.69,2.64,11.67.98ZM384.76,390.31c-.83.23-1.65.46-2.48.69-4.25-7.03-8.51-14.05-12.57-20.77-4.25-1.21-7.87-1.5-11.51.64v41.85c4.16,1.23,7.35,1.53,10.01-1.39.3-6.73.6-13.45.9-20.16.63-.06,1.27-.11,1.9-.17,4.23,7.05,8.45,14.1,12.44,20.76,4.06.72,7.31,1.12,10.71-1.36v-41.85c-3.49-1.36-6.2-1.43-9.41,1.18v20.59ZM319.39,371.12c-1.98,5.19.93,10.21-2.95,14.44-3.89-.28-8.06,1.06-12.63-1.51-.23-4.3-.47-8.78-.7-12.92-3.73-2.28-6.83-2.31-10.53-.38v40.96c3.7,2,7.08,2.95,10.28.42,1.61-5.5-.94-11.2,2.06-16.12,4.53-.44,8.66-1.19,13.08,1.43.33,5.04.68,10.34,1.02,15.54,4.13,1.97,7.55,2.43,10.73-.72v-40.98c-3.78-1.87-6.91-1.93-10.37-.16ZM532.33,373.67v-22.91c5.28,8.69,8.91,14.67,12.41,20.43,4.64-.67,8.29-1.33,9.95-4.23v-41.66c-3.95-.73-6.26.74-9.18,4v21.78c-7.25-5.33-7.8-14.14-14.29-18.28-3.23,1.2-6.89,1.17-7.97,3.47v43.11c3.65-.54,5.9-1.38,9.08-5.73ZM423.63,385.14c-3.65,6.99,3.45,6.5,5.18,9.03-3.15,4.67-6.65,6.33-11.22,5.37-9.92-10.98-8.09-20.53,5.17-25.92,4.77,1.11,9.44,7.67,15.17,1.48-4.15-10.75-10.86-14.04-21.16-10.49-12.15,4.19-18.93,18.96-14.79,32.22,3.16,10.1,12.34,15.78,21.34,12.06,4.87-2.01,9.63-3.43,15.67-3.17.32-8.15,1.03-15.48-.59-22.89-5.52-.71-10.36-.09-14.77,2.32ZM517.07,360.01c-.74-5.86-.87-12.93-8.22-16.29-7.15-3.26-13.24.11-18.5,4.42-9.23,7.57-12.14,17.84-10.57,29.38,1.62,11.93,10.13,16.56,20.89,11.22,11.38-5.65,15.4-15.93,16.41-28.72ZM186.33,345.18c-9.28,6.72-11.87,15.05-8.54,28.94,2.45,10.23,7.13,19.07,18.4,21.87,7.57,1.88,11.79-2.29,14.21-9.02,5.51-15.29-4.63-41.29-24.07-41.79ZM211.59,128.73c-2.72-11.25-8.43-21.23-9.8-32.75,4.53-1.89,8.67-3.62,13.32-5.57-1.58-3.33-.47-7.33-5.59-8.63-13.15,4.33-27.17,7.92-39.74,14.46.17,4.27,1.42,6.74,3.85,8.51,4.8.56,8.38-4.05,14.37-2.64,3.8,9.82,7.82,20.2,11.98,30.97,4.46-.56,8.1-.71,11.61-4.35ZM464.96,397.56v-31.73c4.05-1.79,7.41-3.28,10.48-4.64.69-3.39,2.16-6.27-1.36-8.63-9.92,2.66-19.98,5.36-29.71,7.98-1.58,3.31-2.21,5.99-.3,8.11,3.51,2.23,7.14-1.42,10.21,1.75,1.61,10.01-.87,20.55,1.46,30.78,3.48-.17,6.36-.41,9.22-3.61ZM348.62,413.21v-42.66c-4.06-.64-7.36-1.85-9.76,1.23v40.97c3.33,2.29,6.08,1.78,9.76.45Z" fill="#bb2032" stroke-width="0"/><path d="M222.31,168.25c13.23,51.92,26.37,103.47,39.64,155.5-6.88,2.1-12.37-.23-17.9-1.62-25.66-6.43-49.3-16.92-68.46-35.68-32.69-32-30.06-70.78,6.52-97.97,11.88-8.83,24.96-15.41,40.21-20.23Z" fill="#013360" stroke-width="0"/><path d="M355.9,204.49v105.75c-8.63,2.57-16.86,1.18-26.51,1.05v-107.81h-38.02c-2.33-7.36-1.47-13.86-.92-21.29h102.8c1.83,6.27.43,12.8.85,19.73-12.82,3.2-25.57-.79-38.2,2.56Z" fill="#bb2032" stroke-width="0"/><path d="M284.03,176.14v31.48c7.23,3.63,15.23-.31,23.61,3.53-5.7,21.92-11.41,43.9-17.11,65.87-.59-.04-1.18-.08-1.77-.11-9.12-39.15-18.24-78.3-27.69-118.85,20-5.46,40.11-5.97,60.53-6.18.28,8.51-2.49,15.08-4.55,22.43-10.53,2.57-21.5-.27-33.01,1.83Z" fill="#013360" stroke-width="0"/><path d="M423.51,159.78c-9.14,40.22-17.88,78.69-26.62,117.16-.7.07-1.41.14-2.11.22-5.3-21.87-10.6-43.75-15.96-65.82,6.63-4.27,13.87-.23,20.51-3.63v-31.23c-9.19-2.67-18.53.08-28.3-1.76-3.21-6.38-4.39-13.64-5.5-22.12,19.41.69,37.92,3.36,57.98,7.19Z" fill="#013360" stroke-width="0"/><path d="M374.61,331.37c-22.46,2.22-43.24,1.4-65.31-.06,4.11-13.55,7.94-26.17,11.77-38.79.7.04,1.41.08,2.11.12v24.27h38.03v-23.66c.77-.14,1.54-.28,2.32-.43,3.55,12.35,7.1,24.7,11.09,38.54Z" fill="#013360" stroke-width="0"/><path d="M361.99,111.97c-2.65-10.1-5.19-19.77-7.73-29.44l-2.01.03c-.6,9.48-1.19,18.96-1.77,28.07-4.27,2.35-7.92,1.6-12.94.54-.86-15.05.38-30.22,1.14-45.96,8.11-.74,15.05-.24,22.6.95,2.29,9.01,4.49,17.69,6.69,26.36.74.08,1.49.16,2.23.24,3.66-8.16,7.32-16.32,11.09-24.71,6.66-1.2,12.65,1.11,19.8,1.6-.26,15.65-3.08,30.7-4.93,45.59-4.51,2.09-7.88.58-11.46-1.12-1.57-9.67,2.74-19.04,1.46-31.62-5.11,11.64-9.19,20.91-13.09,29.8-3.72,2.33-6.88,1.34-11.08-.32Z" fill="#f9f6f6" stroke-width="0"/><path d="M225.6,403.42c-3.33.6-5.46-.69-7.77-2.08v-43.61c22.35,4.28,23.39,4.74,33.02,14.56,1.04-2.22,2.02-4.29,3.04-6.46,10.59.92,20.97,1.83,30.74,2.68,3.56,2.59,2.93,5.42,2.13,8.26-3.19,3.17-7.48-.21-11.95,2.71v30.94c-4.61,2.35-7.53,1.15-11.07-1.26v-31.46c-4.48-1.24-8.33-2.31-12.65-3.51-1.39,4.89-2.47,9.78-5.69,13.6,3.74,6.3,4.77,12.77,4.31,19.63-2.83,2.7-5.43.34-8.33-.25-3.13-6.55.72-18.48-12.84-17.45-3.41,3.84-.02,9.09-2.95,13.71ZM238.76,379.55c-1.42-7.56-1.42-7.59-9.11-9.51-.53-.13-1.3.65-2.31,1.21-.38,2.59-.88,5.34,1.31,8.11,2.13.49,4.49,1.25,6.89,1.49,1.03.11,2.17-.84,3.22-1.3Z" fill="#f9f6f6" stroke-width="0"/><path d="M301.34,64.57c15.55-.26,27.51,9.56,27.79,22.83.31,14.41-12.03,26.36-27.55,26.67-14.73.29-27.21-11.32-27.32-25.41-.1-13.02,12.05-23.84,27.07-24.09ZM300.88,102.63c8.07.2,13.04-4.84,13.19-13.4.15-8.47-4.8-14.16-12.45-14.31-7.9-.16-13.33,5.33-13.31,13.44.02,8.46,4.97,14.08,12.57,14.27Z" fill="#f9f6f6" stroke-width="0"/><path d="M485.74,106.39c4.37,3.79,9.94,6.53,11.24,13.1-2.86,12.69-8.34,16.74-20.85,15.29-14.93-1.74-21.97-8.67-21.74-21.4,12.48-6.31,13.9,19.47,28.33,9.12-.9-6.87-7.45-8-11.96-10.93-6.96-4.52-14.23-9.3-10.09-18.87,3.87-8.94,12.45-8.83,20.62-7.32,13.42,2.47,18.99,8.35,19.32,19.94-4.25,1.92-7.82-1.94-11.86-1.56-2.86-7.7-7.13-11.66-15.65-6.37,3.2,5.47,8.02,7.09,12.64,9.01Z" fill="#f9f6f6" stroke-width="0"/><path d="M231.3,123.66c-4.35-14.38-8.69-28.69-12.99-42.88,4.31-2.95,8.06-4.38,13-3.2,1.48,4.51,3.03,9.21,4.57,13.9,6.16.62,11.16-1.16,16.15-3.24,1-5.28-3-9.91-1.16-15.06,3.34-2.02,7.05-2.13,12.69-1.94,2.57,14.32,5.19,28.95,7.74,43.16-3.85,3.56-7.36,3.63-11.71,2.24-1.48-5.32-3.02-10.87-4.53-16.34-6-1.03-10.35,1.73-14.88,2.35-1.38,6.57,2.36,11.4,2.61,17.32-2.57,3.7-6.56,3.7-11.5,3.69Z" fill="#f9f6f6" stroke-width="0"/><path d="M160.98,360.24c4.01-7.55,2.22-16.46,5.2-24.09,3.79-1.46,5.36,1.67,8.51,2.53-3.04,14.6-5.94,28.49-8.92,42.84-10.45.24-9.64-7.58-10.58-13.69-.93-6.03-1.29-12.15-2.84-18.3-3.92,7.04-1.7,15.43-5.13,22.72-6.17,1.16-8.43-2.38-9.2-7.36-2.49-16.12-4.83-32.25-6.05-48.69,12.67,8.56,6.04,23.27,11.25,34.55,3.43-7.8,2.69-16.41,5.23-26.09,14.69,9.11,6.87,24.76,12.54,35.58Z" fill="#f9f6f6" stroke-width="0"/><path d="M449.22,125.23c-4.98,1.66-8.12-1.05-11.67-.98-1.22-3.29-2.21-5.99-3.36-9.07-4.81-1.09-9.67-2.18-14.84-3.35-2.37,2.62-4.54,5.02-6.6,7.29-4.11-.18-7.89-.18-11.53-3.64,8.05-13.54,16.15-27.17,24-40.38,5.5-1.71,9.79-.21,14.86,1.88,4.93,15.51,6.28,32.04,9.13,48.26ZM424.09,101.88c3.07,2.91,5.91,3.59,9.37,1.16-.63-4.04-1.27-8.09-2-12.71-4.57,3.19-6.11,7.27-7.38,11.55Z" fill="#f9f6f6" stroke-width="0"/><path d="M384.76,390.31v-20.59c3.22-2.61,5.92-2.54,9.41-1.18v41.85c-3.4,2.48-6.65,2.08-10.71,1.36-3.99-6.66-8.22-13.71-12.44-20.76-.63.06-1.27.11-1.9.17-.3,6.71-.6,13.43-.9,20.16-2.67,2.92-5.86,2.63-10.01,1.39v-41.85c3.64-2.14,7.26-1.84,11.51-.64,4.06,6.72,8.32,13.74,12.57,20.77.83-.23,1.65-.46,2.48-.69Z" fill="#f9f6f6" stroke-width="0"/><path d="M319.39,371.12c3.47-1.78,6.59-1.71,10.37.16v40.98c-3.18,3.15-6.6,2.69-10.73.72-.34-5.2-.69-10.5-1.02-15.54-4.42-2.62-8.56-1.87-13.08-1.43-3.01,4.92-.45,10.63-2.06,16.12-3.19,2.53-6.58,1.58-10.28-.42v-40.96c3.69-1.92,6.79-1.9,10.53.38.22,4.13.47,8.62.7,12.92,4.57,2.57,8.75,1.23,12.63,1.51,3.88-4.23.97-9.25,2.95-14.44Z" fill="#f9f6f6" stroke-width="0"/><path d="M532.33,373.67c-3.18,4.35-5.43,5.19-9.08,5.73v-43.11c1.09-2.3,4.75-2.27,7.97-3.47,6.49,4.14,7.04,12.95,14.29,18.28v-21.78c2.91-3.27,5.23-4.74,9.18-4v41.66c-1.66,2.9-5.31,3.56-9.95,4.23-3.5-5.76-7.13-11.74-12.41-20.43v22.91Z" fill="#f9f6f6" stroke-width="0"/><path d="M423.63,385.14c4.41-2.41,9.25-3.03,14.77-2.32,1.62,7.42.91,14.74.59,22.89-6.04-.26-10.8,1.16-15.67,3.17-9,3.72-18.19-1.97-21.34-12.06-4.14-13.26,2.63-28.03,14.79-32.22,10.31-3.55,17.01-.27,21.16,10.49-5.73,6.19-10.4-.36-15.17-1.48-13.27,5.39-15.09,14.94-5.17,25.92,4.57.96,8.07-.69,11.22-5.37-1.73-2.53-8.83-2.04-5.18-9.03Z" fill="#f9f6f6" stroke-width="0"/><path d="M517.07,360.01c-1.01,12.79-5.03,23.07-16.41,28.72-10.76,5.35-19.27.72-20.89-11.22-1.56-11.54,1.35-21.81,10.57-29.38,5.26-4.31,11.35-7.68,18.5-4.42,7.35,3.36,7.48,10.43,8.22,16.29ZM501.81,353.59c-13.21,4.19-16.14,13.81-7.98,26.19,13.96-3.16,17.41-14.52,7.98-26.19Z" fill="#f9f6f6" stroke-width="0"/><path d="M186.33,345.18c19.44.5,29.58,26.5,24.07,41.79-2.42,6.73-6.64,10.9-14.21,9.02-11.26-2.8-15.94-11.64-18.4-21.87-3.33-13.89-.74-22.22,8.54-28.94ZM190.12,357.11c-8.27,12.89-5.2,24.09,7.64,27.87,8.29-12.52,5.17-23.91-7.64-27.87Z" fill="#f9f6f6" stroke-width="0"/><path d="M211.59,128.73c-3.51,3.64-7.15,3.79-11.61,4.35-4.16-10.76-8.18-21.14-11.98-30.97-5.99-1.41-9.57,3.2-14.37,2.64-2.43-1.77-3.69-4.24-3.85-8.51,12.57-6.54,26.59-10.13,39.74-14.46,5.12,1.3,4.02,5.3,5.59,8.63-4.66,1.95-8.8,3.68-13.32,5.57,1.36,11.52,7.08,21.5,9.8,32.75Z" fill="#f9f6f6" stroke-width="0"/><path d="M464.96,397.56c-2.86,3.2-5.74,3.45-9.22,3.61-2.33-10.23.15-20.77-1.46-30.78-3.07-3.17-6.7.48-10.21-1.75-1.91-2.12-1.28-4.79.3-8.11,9.74-2.61,19.79-5.31,29.71-7.98,3.52,2.37,2.05,5.24,1.36,8.63-3.07,1.36-6.43,2.85-10.48,4.64v31.73Z" fill="#f9f6f6" stroke-width="0"/><path d="M348.62,413.21c-3.68,1.33-6.43,1.84-9.76-.45v-40.97c2.4-3.08,5.7-1.87,9.76-1.23v42.66Z" fill="#f9f6f6" stroke-width="0"/><path d="M238.76,379.55c-1.05.45-2.19,1.4-3.22,1.3-2.41-.25-4.76-1-6.89-1.49-2.19-2.76-1.69-5.52-1.31-8.11,1.01-.55,1.77-1.34,2.31-1.21,7.7,1.93,7.69,1.96,9.11,9.51Z" fill="#d82c3d" stroke-width="0"/><path d="M300.88,102.63c-7.6-.19-12.55-5.81-12.57-14.27-.02-8.11,5.41-13.6,13.31-13.44,7.65.15,12.6,5.84,12.45,14.31-.15,8.55-5.12,13.6-13.19,13.4Z" fill="#d82c3d" stroke-width="0"/><path d="M485.74,106.39c-4.62-1.92-9.44-3.54-12.64-9.01,8.53-5.29,12.79-1.33,15.65,6.37-1.01.88-2.01,1.76-3.02,2.64Z" fill="#d82c3d" stroke-width="0"/><path d="M424.09,101.88c1.27-4.27,2.81-8.36,7.38-11.55.73,4.62,1.36,8.67,2,12.71-3.46,2.42-6.3,1.75-9.37-1.16Z" fill="#d82c3d" stroke-width="0"/><path d="M501.81,353.59c9.44,11.68,5.98,23.03-7.98,26.19-8.16-12.38-5.23-22,7.98-26.19Z" fill="#d82c3d" stroke-width="0"/><path d="M190.12,357.11c12.8,3.96,15.92,15.34,7.64,27.87-12.84-3.77-15.91-14.97-7.64-27.87Z" fill="#d82c3d" stroke-width="0"/></g></svg>