<?xml version="1.0" encoding="UTF-8"?><svg id="b" xmlns="http://www.w3.org/2000/svg" viewBox="0 0 700 803.4"><g id="c"><path d="M387.25,483.34c-10.27.05-20.55.03-30.81.21-2.77.05-2.59-1.5-2.59-3.35.03-11.4.01-22.79.01-34.19,0-28.3-.06-56.6.08-84.9.02-3.38-.79-4.34-4.27-4.33-62.91.11-125.83.08-188.74.07-1.49,0-2.99-.16-4.48-.24-3.19-17.88-3.71-35.77-.33-53.7,3.7-19.6,11.29-37.59,22.25-54.19,1.53-2.32,1.21-3.42-.79-5.19-8.24-7.32-16.34-14.8-24.38-22.35-5.25-4.94-10.29-10.1-16.2-15.92,9.18,1.13,17.15.68,25.08-.24,23.59-2.74,44.3-12.05,62.21-27.65,1.7-1.48,2.3-3,2.25-5.18-.45-17.09-5.02-33.07-12.74-48.23-3.11-6.1-6.8-11.86-10.76-17.5,1.39-.7,2.33-.26,3.29-.03,21.84,5.09,43.47,10.96,64.88,17.59,8.5,2.63,8.56,2.66,6.73-6.04-5.11-24.32-14.13-47.2-25.87-69.03-2.03-3.78-4.38-7.38-6.65-11.19,1.98-.46,3.33.4,4.72.84,54.47,17.53,107.57,38.46,158.64,64.38,22.04,11.18,43.51,23.33,64.1,37.01,26.42,17.55,51.13,37.1,71.14,61.97,14.86,18.46,25.56,38.84,28.33,62.82,1.03,8.96.72,9.99-7.59,13.45-1.38.58-2.82,1.04-4.26,1.47-20.72,6.25-41.59,4.84-62.47,1.09-31.83-5.72-61.64-17.39-90.7-31.18-2.87-1.36-4.57-1.25-6.54,1.32-17.79,23.22-24.98,49.29-21.18,78.29,2.72,20.78,11.08,39.42,22.28,56.9,10.88,16.98,24.28,31.86,38.84,45.72,1.93,1.84,2.52,2.84-.61,4-5.65,2.1-10.94,5.01-16.02,8.24-15.63,9.94-28.23,22.74-36.86,39.25Z" fill="#ba2031" stroke-width="0"/><path d="M387.25,483.34c8.64-16.51,21.24-29.31,36.86-39.25,5.08-3.23,10.37-6.14,16.02-8.24,3.13-1.16,2.54-2.17.61-4-14.57-13.86-27.96-28.74-38.84-45.72-11.2-17.48-19.56-36.12-22.28-56.9-3.8-29,3.39-55.07,21.18-78.29,1.97-2.57,3.67-2.68,6.54-1.32,29.06,13.78,58.87,25.46,90.7,31.18,20.87,3.75,41.75,5.16,62.47-1.09,1.44-.43,2.87-.89,4.26-1.47,8.31-3.46,8.62-4.5,7.59-13.45-2.76-23.99-13.47-44.36-28.33-62.82-20.02-24.87-44.72-44.42-71.14-61.97-20.59-13.68-42.06-25.82-64.1-37.01-51.07-25.92-104.16-46.85-158.64-64.38-1.39-.45-2.74-1.3-4.72-.84,2.28,3.81,4.62,7.42,6.65,11.19,11.75,21.84,20.76,44.71,25.87,69.03,1.83,8.69,1.77,8.67-6.73,6.04-21.42-6.64-43.05-12.5-64.88-17.59-.97-.23-1.91-.67-3.29.03,3.96,5.65,7.65,11.41,10.76,17.5,7.72,15.15,12.3,31.14,12.74,48.23.06,2.18-.54,3.69-2.25,5.18-17.91,15.6-38.62,24.91-62.21,27.65-7.92.92-15.9,1.36-25.08.24,5.91,5.83,10.95,10.99,16.2,15.92,8.03,7.55,16.14,15.03,24.38,22.35,1.99,1.77,2.32,2.87.79,5.19-10.96,16.59-18.55,34.59-22.25,54.19-3.38,17.93-2.87,35.82.33,53.7-6.26.08-12.52.06-18.78.3-2.55.1-2.45-1.64-2.68-3.15-1.87-12.56-2.4-25.17-1.4-37.83,1.77-22.39,8.04-43.49,18.49-63.35,1.16-2.21.87-3.33-.93-4.96-22.9-20.69-43.81-43.35-65.3-65.45-.32-.33-.57-.74-1.28-1.7,7.86.6,15.12,1.24,22.39,1.7,15,.95,29.94,3.2,45.01,2.77,18.63-.53,35.67-6.14,50.94-16.98,2.12-1.51,2.45-3.03,2.07-5.38-2.55-15.76-8.73-30-18.09-42.85-10.4-14.28-20.97-28.44-31.45-42.65-.57-.77-1.46-1.4-1.39-2.95,31.99,6.99,64.1,12.86,95.5,22,.85-1.64-.27-2.79-.67-3.99-7.86-23.76-21.06-44.45-36.5-63.93-7.14-9.02-13.75-18.46-20.61-27.73,1.15-1.04,2.01-.11,2.84.13,48.39,13.89,96.61,28.3,143.3,47.36,47.41,19.35,93.63,41.03,136.94,68.5,29.33,18.6,56.86,39.43,79.76,65.79,17.14,19.74,30.48,41.57,36.25,67.45,2.11,9.47,2.89,19.06,2.61,28.73-.08,2.73.87,3.85,3.37,4.81,29.38,11.25,54.64,28.27,74.14,53.28,12.53,16.07,20.6,34.26,25.78,53.83.95,3.59,2.03,7.15,3.24,11.39-6.95-2.05-13.33-3.94-20.54-6.07,1.68,3.68,3.04,6.64,4.64,10.16-6.96-1.87-13.33-3.96-19.91-5.2-68.41-12.94-127.99,4.61-179,51.73-9.5,8.78-18.11,18.39-26.08,28.57-1.19,1.52-2.28,2.66-4.55,2.65-21.94-.1-43.89-.06-65.83-.07-.49,0-.99-.12-1.48-.19ZM684.46,386.23c-2.44-10.72-10.19-27.19-17.19-37.07-21.67-30.6-51.4-49.62-86.84-60.51-1.56-.48-2.9-.34-4.35.21-15.02,5.83-29.36,12.95-42.24,22.71-5.54,4.19-10.97,8.59-15.58,14.65,39.27,4.35,76.46,14.2,111.61,31.17-13.99-3.39-28.04-6.28-42.32-8.09-27.74-3.51-55.2-2.87-82.32,4.63-3.18.88-4.83,2.29-5.61,5.5-4.22,17.44-3.06,34.49,3.11,51.3,1.11,3.03,2.27,3.17,4.75,1.27,9.59-7.34,20-13.34,31.08-18.18,17.47-7.63,35.69-12.29,54.64-14.4,18.02-2.01,35.98-1.88,53.99,0,12.46,1.3,24.74,3.46,37.28,6.78ZM499.75,305.8c-5.86-2.12-11.78-4.12-17.58-6.41-3.61-1.42-7.07-1.91-10.92-.87-5.07,1.37-10.32,1.97-15.56,2.48-10.72,1.04-17.82-.08-17.03-14.87.08-1.41-.14-2.31-1.67-2.84-6.27-2.16-12.51-4.41-18.73-6.72-1.35-.5-1.95-.25-2.55,1.08-2.72,6.1-4.97,12.32-5.23,19.07-.31,8.06,3.34,14.02,10.69,17.37,5.22,2.37,10.79,3.18,16.47,3.33,21.48.55,41.91-4.84,62.11-11.62Z" fill="#192c54" stroke-width="0"/><path d="M461.96,719.78c-2.64,11.57-5.29,23.13-7.92,34.7-3.43,15.13-6.91,30.25-10.21,45.41-.59,2.7-1.66,3.49-4.43,3.48-32.85-.11-65.7-.11-98.55,0-3.16.01-4.47-.78-5.21-3.99-9.73-42.31-19.61-84.58-29.46-126.86-7.07-30.34-14.21-60.66-21.19-91.03-.63-2.75-1.7-3.57-4.46-3.49-7.02.2-14.04-.02-21.06.12-2.24.04-2.99-.46-2.99-2.87.09-26.94.13-53.87-.03-80.81-.02-3.45,1.75-3.07,3.93-3.07,49.15.02,98.3.01,147.45.01,85.51,0,171.03.02,256.54-.07,3.19,0,4.23.57,4.21,4.03-.17,26.31-.15,52.62-.01,78.93.02,3.18-.85,3.98-3.94,3.87-6.76-.24-13.54.04-20.31-.13-2.69-.07-3.82.6-4.48,3.45-10.53,45.59-21.23,91.14-31.86,136.71-6.34,27.17-12.68,54.34-18.93,81.53-.63,2.73-1.65,3.71-4.67,3.7-32.85-.14-65.7-.14-98.55,0-3.12.01-4.25-.85-4.92-3.86-5.7-25.39-11.58-50.75-17.4-76.11-.28-1.21-.6-2.42-.9-3.62-.21,0-.42-.01-.63-.02ZM393.85,643.29c-1.25-.59-1.04-1.44-1.19-2.11-4.83-21.36-9.62-42.73-14.46-64.09-1.58-6.99-1.64-7.05,5.32-7.07,2.1,0,3.11-.26,3.1-2.8-.11-21.55-.09-43.1-.01-64.65,0-2.29-.65-2.99-2.96-2.98-38.75.06-77.5.06-116.25,0-2.06,0-2.8.49-2.79,2.68.07,21.68.07,43.35,0,65.03,0,2.15.61,2.77,2.74,2.72,6.02-.13,12.06.24,18.05-.14,4.13-.26,5.64,1.05,6.6,5.16,16.67,72.18,33.56,144.3,50.29,216.46.7,3,1.76,3.92,4.91,3.9,28.59-.15,57.18-.13,85.78-.02,2.64.01,3.65-.72,4.22-3.3,6.72-30.04,13.55-60.05,20.37-90.07,1.45-6.37,2.95-12.72,4.43-19.08.84,1.17,1.15,2.25,1.4,3.34,8.05,35,16.13,69.99,24.08,105.02.7,3.07,1.81,4.13,5.11,4.11,28.47-.16,56.93-.13,85.4-.02,2.76.01,3.83-.76,4.46-3.49,7.15-31.09,14.44-62.16,21.7-93.23,9.76-41.8,19.55-83.59,29.21-125.41.6-2.6,1.51-3.43,4.17-3.34,6.39.21,12.79-.09,19.18.14,2.95.1,3.76-.72,3.74-3.71-.14-20.92-.14-41.85,0-62.77.02-3.05-.66-4.02-3.88-4.01-38.37.12-76.75.11-115.12,0-2.95,0-3.73.75-3.71,3.7.13,19.8.07,39.59.07,59.39,0,7.18,0,7.24,7.06,7.28,2.15.01,3.07.04,2.41,2.83-3.39,14.37-6.46,28.82-9.67,43.23-1.98,8.89-4.01,17.78-6.19,27.42-.48-1.22-.73-1.65-.82-2.11-4.36-22.1-8.69-44.2-13.04-66.3-.99-5.02-1-5.24,3.91-4.96,3.2.18,3.89-.84,3.87-3.93-.15-20.92-.13-41.85-.01-62.77.02-2.86-.6-3.8-3.67-3.79-39.63.11-79.25.11-118.88,0-3.11,0-3.66,1.01-3.64,3.82.11,20.3.06,40.6.06,60.89,0,5.66,0,5.87,5.69,5.62,3.13-.14,3.43.86,2.87,3.58-3.15,15.45-6.14,30.93-9.2,46.4-1.53,7.76-3.09,15.52-4.67,23.41ZM392.56,603.43c.26.05.52.09.78.14,1.09-5.62,2.19-11.24,3.27-16.86q1.81-9.38-7.63-8.64c-.12,0-.25,0-.37,0-1.28-.06-1.75.34-1.42,1.76,1.84,7.85,3.59,15.73,5.37,23.6ZM537.6,578.08h-5.55c-5.57,0-5.6,0-4.53,5.44,1.25,6.35,2.56,12.68,3.84,19.03.26-.02.53-.03.79-.05,1.79-8.01,3.58-16.03,5.45-24.42Z" fill="#192c54" stroke-width="0"/><path d="M173.31,364.76c56.17,0,112.34.04,168.51-.08,3.51,0,4.28.95,4.27,4.34-.13,36.83-.12,73.66,0,110.49,0,3.11-.78,3.96-3.92,3.94-27.33-.13-54.67-.13-82,0-3.17.02-4.03-.87-3.9-3.95.24-5.88-.06-11.78.13-17.66.09-2.61-.89-3.16-3.26-3.08-4.63.16-9.29.29-13.91-.04-3.42-.24-3.5,1.44-3.5,4.01.05,38.21.04,76.42.04,114.63,0,3.63.11,7.27-.04,10.9-.09,2.16.66,2.8,2.79,2.76,6.27-.12,12.54.06,18.8-.1,2.46-.06,3.17.65,3.16,3.14-.09,26.93-.1,53.87,0,80.8.01,2.73-.86,3.27-3.41,3.27-56.42-.07-112.84-.07-169.26,0-2.7,0-3.65-.52-3.64-3.46.12-26.81.11-53.62.01-80.43,0-2.65.73-3.43,3.37-3.34,6.01.19,12.04-.02,18.05.1,2.28.05,3.32-.35,3.31-3.02-.08-42.09-.08-84.19-.01-126.28,0-2.34-.71-3.04-3-2.96-4.38.15-8.78.16-13.16,0-2.39-.09-3.31.53-3.23,3.12.19,6.13-.06,12.28.12,18.41.07,2.52-.74,3.15-3.18,3.14-27.83-.08-55.67-.08-83.5,0-2.34,0-2.94-.69-2.93-2.97C.09,442.87.11,405.29,0,367.71c0-3.13,1.5-2.97,3.67-2.97,56.55.03,113.09.03,169.64.03ZM172.89,372.86c-53.67,0-107.34,0-161.02,0-1.91,0-3.79-.62-3.78,2.78.14,32.2.11,64.4.03,96.6,0,2.3.56,2.94,2.91,2.93,22.45-.09,44.89-.1,67.34,0,2.63.01,3.08-.92,3.02-3.24-.14-6.14.07-12.28-.11-18.42-.07-2.52.76-3.16,3.2-3.13,9.65.13,19.31.2,28.97-.03,3.28-.08,3.85,1.05,3.82,4.03-.14,15.91-.07,31.82-.07,47.74,0,31.07-.05,62.15.07,93.22.01,3.14-.84,4.04-3.95,3.91-5.88-.25-11.79.03-17.68-.12-2.36-.06-3.22.47-3.21,3.06.11,21.55.1,43.1,0,64.65,0,2.32.62,2.94,2.94,2.94,51.29-.06,102.58-.06,153.87,0,2.19,0,3.07-.45,3.06-2.87-.09-21.68-.08-43.35,0-65.03,0-2.18-.71-2.78-2.81-2.73-5.89.12-11.8-.17-17.68.12-3.29.16-4.14-.7-4.13-4.07.13-46.86.09-93.72.09-140.58,0-.63.06-1.26-.01-1.88-.22-1.83.59-2.34,2.37-2.33,10.66.07,21.32.08,31.98,0,2.01-.02,2.58.65,2.55,2.59-.1,6.14.1,12.28-.1,18.42-.09,2.81.51,3.81,3.62,3.79,21.94-.15,43.89-.14,65.83-.01,2.96.02,3.73-.74,3.72-3.72-.12-31.45-.12-62.9,0-94.35.01-3.31-.66-4.37-4.22-4.36-53.55.13-107.09.09-160.64.09Z" fill="#192c54" stroke-width="0"/><path d="M684.46,386.23c-12.54-3.32-24.82-5.48-37.28-6.78-18.01-1.88-35.97-2.01-53.99,0-18.95,2.11-37.17,6.76-54.64,14.4-11.08,4.84-21.48,10.84-31.08,18.18-2.48,1.9-3.64,1.75-4.75-1.27-6.17-16.81-7.33-33.86-3.11-51.3.78-3.21,2.43-4.62,5.61-5.5,27.12-7.5,54.58-8.14,82.32-4.63,14.29,1.81,28.34,4.69,42.32,8.09-35.16-16.98-72.34-26.82-111.61-31.17,4.61-6.06,10.05-10.46,15.58-14.65,12.88-9.76,27.22-16.88,42.24-22.71,1.44-.56,2.79-.69,4.35-.21,35.43,10.88,65.17,29.9,86.84,60.51,7,9.88,14.75,26.35,17.19,37.07Z" fill="#ba2031" stroke-width="0"/><path d="M499.75,305.8c-20.2,6.78-40.63,12.17-62.11,11.62-5.69-.15-11.26-.96-16.47-3.33-7.35-3.35-11-9.31-10.69-17.37.26-6.75,2.51-12.97,5.23-19.07.6-1.34,1.2-1.58,2.55-1.08,6.22,2.3,12.46,4.55,18.73,6.72,1.54.53,1.75,1.44,1.67,2.84-.79,14.79,6.3,15.91,17.03,14.87,5.24-.51,10.49-1.11,15.56-2.48,3.85-1.04,7.31-.56,10.92.87,5.8,2.29,11.71,4.29,17.58,6.41Z" fill="#fefefe" stroke-width="0"/><path d="M393.85,643.29c1.57-7.88,3.13-15.64,4.67-23.41,3.06-15.47,6.05-30.95,9.2-46.4.55-2.72.26-3.72-2.87-3.58-5.68.25-5.69.04-5.69-5.62,0-20.3.05-40.6-.06-60.89-.02-2.81.54-3.83,3.64-3.82,39.63.11,79.25.11,118.88,0,3.07,0,3.68.94,3.67,3.79-.12,20.92-.13,41.85.01,62.77.02,3.09-.67,4.11-3.87,3.93-4.92-.28-4.9-.06-3.91,4.96,4.35,22.1,8.69,44.2,13.04,66.3.09.46.34.89.82,2.11,2.18-9.64,4.21-18.53,6.19-27.42,3.21-14.41,6.29-28.86,9.67-43.23.66-2.79-.26-2.82-2.41-2.83-7.06-.04-7.06-.1-7.06-7.28,0-19.8.06-39.59-.07-59.39-.02-2.95.76-3.71,3.71-3.7,38.37.1,76.75.11,115.12,0,3.22,0,3.9.96,3.88,4.01-.13,20.92-.13,41.85,0,62.77.02,2.99-.79,3.81-3.74,3.71-6.39-.23-12.79.07-19.18-.14-2.67-.09-3.57.74-4.17,3.34-9.66,41.82-19.45,83.61-29.21,125.41-7.26,31.07-14.55,62.13-21.7,93.23-.63,2.73-1.7,3.51-4.46,3.49-28.47-.11-56.93-.13-85.4.02-3.31.02-4.42-1.04-5.11-4.11-7.95-35.02-16.03-70.02-24.08-105.02-.25-1.09-.56-2.17-1.4-3.34-1.48,6.36-2.99,12.71-4.43,19.08-6.82,30.02-13.65,60.03-20.37,90.07-.58,2.58-1.59,3.31-4.22,3.3-28.59-.11-57.18-.13-85.78.02-3.14.02-4.21-.9-4.91-3.9-16.73-72.16-33.62-144.29-50.29-216.46-.95-4.11-2.46-5.42-6.6-5.16-6,.38-12.03,0-18.05.14-2.13.05-2.74-.57-2.74-2.72.08-21.68.08-43.35,0-65.03,0-2.19.73-2.69,2.79-2.68,38.75.05,77.5.06,116.25,0,2.31,0,2.97.69,2.96,2.98-.08,21.55-.09,43.1.01,64.65.01,2.54-1,2.79-3.1,2.8-6.96.02-6.9.08-5.32,7.07,4.84,21.36,9.63,42.73,14.46,64.09.15.67-.06,1.52,1.19,2.11ZM531.08,681.62c-.19-.06-.39-.12-.58-.18-.29-1.34-.61-2.67-.88-4.01-7.16-36.1-14.32-72.21-21.48-108.31-1.39-7.02-1.42-7.13,5.68-7.05,2.61.03,3.38-.68,3.36-3.33-.12-15.91-.11-31.82,0-47.74.02-2.54-.58-3.43-3.29-3.43-34.48.09-68.97.09-103.45,0-2.64,0-3.38.72-3.35,3.36.12,14.78.06,29.57.06,44.35,0,6.7.01,6.94,6.62,6.62,3.84-.18,4.19,1.14,3.53,4.44-6.05,30.2-11.96,60.42-17.92,90.64-1.66,8.43-3.35,16.87-5.02,25.3-.74-.71-.93-1.37-1.08-2.05-8.21-36.4-16.41-72.79-24.6-109.19-.63-2.79-2.48-6.5-1.36-8.2,1.51-2.28,5.54-.75,8.46-.76,2.43,0,2.86-.9,2.85-3.09-.08-16.16-.09-32.33,0-48.49.01-2.38-.8-2.92-3.03-2.92-33.36.06-66.71.06-100.07,0-2.26,0-3.03.58-3.01,2.94.09,16.16.12,32.33-.02,48.49-.02,2.69,1.02,3.08,3.3,3.03,6.14-.12,12.29.06,18.43-.1,2.2-.06,3.07.69,3.5,2.8.94,4.66,2.12,9.27,3.2,13.9,15.97,68.39,31.96,136.78,47.83,205.2.66,2.85,1.78,3.46,4.46,3.45,23.95-.1,47.9-.18,71.85.06,3.93.04,5.27-1.07,6.1-4.8,9.93-44.35,20.04-88.65,30.12-132.97.2-.88.06-1.95,1.25-2.49.34,1.4.68,2.73.99,4.07,10.17,44.16,20.38,88.32,30.43,132.51.68,3,1.87,3.64,4.72,3.62,24.33-.12,48.65-.11,72.98,0,2.77.01,3.81-.74,4.44-3.51,7.03-30.63,14.22-61.22,21.36-91.82,9.79-41.94,19.61-83.87,29.27-125.84.77-3.33,2.02-4.43,5.44-4.23,5.62.33,11.28-.04,16.92.15,2.62.09,3.39-.69,3.37-3.34-.12-15.91-.15-31.82.02-47.73.03-3.05-1.14-3.41-3.72-3.4-33.1.07-66.21.08-99.31-.01-2.8,0-3.62.72-3.59,3.56.14,14.16.07,28.32.07,42.47,0,8.32,0,8.45,8.35,8.33,2.95-.04,3.55.57,2.87,3.55-5.89,25.75-11.62,51.53-17.38,77.31-2.89,12.94-5.77,25.88-8.65,38.82Z" fill="#fefefe" stroke-width="0"/><path d="M392.56,603.43c-1.78-7.87-3.53-15.74-5.37-23.6-.33-1.42.14-1.82,1.42-1.76.12,0,.25,0,.37,0q9.43-.74,7.63,8.64c-1.08,5.62-2.18,11.24-3.27,16.86-.26-.05-.52-.09-.78-.14Z" fill="#fefefe" stroke-width="0"/><path d="M537.6,578.08c-1.87,8.39-3.66,16.41-5.45,24.42-.26.02-.53.03-.79.05-1.28-6.34-2.59-12.68-3.84-19.03-1.07-5.44-1.04-5.44,4.53-5.44h5.55Z" fill="#fefefe" stroke-width="0"/><path d="M172.89,372.86c53.55,0,107.09.04,160.64-.09,3.56,0,4.23,1.05,4.22,4.36-.12,31.45-.12,62.9,0,94.35.01,2.98-.76,3.73-3.72,3.72-21.94-.13-43.89-.14-65.83.01-3.1.02-3.71-.98-3.62-3.79.2-6.13,0-12.28.1-18.42.03-1.94-.54-2.6-2.55-2.59-10.66.09-21.32.08-31.98,0-1.78-.01-2.58.5-2.37,2.33.07.62.01,1.25.01,1.88,0,46.86.04,93.72-.09,140.58,0,3.37.84,4.23,4.13,4.07,5.88-.29,11.79,0,17.68-.12,2.1-.04,2.82.56,2.81,2.73-.07,21.68-.08,43.35,0,65.03,0,2.42-.87,2.88-3.06,2.87-51.29-.05-102.58-.05-153.87,0-2.32,0-2.95-.62-2.94-2.94.09-21.55.1-43.1,0-64.65-.01-2.59.85-3.12,3.21-3.06,5.89.15,11.79-.13,17.68.12,3.11.13,3.96-.77,3.95-3.91-.12-31.07-.07-62.15-.07-93.22,0-15.91-.08-31.83.07-47.74.03-2.98-.55-4.11-3.82-4.03-9.65.23-19.31.16-28.97.03-2.44-.03-3.27.61-3.2,3.13.17,6.13-.04,12.28.11,18.42.05,2.32-.39,3.25-3.02,3.24-22.45-.11-44.89-.1-67.34,0-2.34,0-2.91-.63-2.91-2.93.08-32.2.11-64.4-.03-96.6-.01-3.4,1.87-2.78,3.78-2.78,53.67,0,107.34,0,161.02,0ZM173.27,381.03c-51.03,0-102.06,0-153.09.02-1.77,0-4.01-.95-3.99,2.58.11,26.93.09,53.87.01,80.8,0,2.23.77,2.66,2.8,2.65,17.18-.07,34.35-.1,51.53.02,2.66.02,3.08-.98,3.04-3.27-.13-6.01.09-12.03-.11-18.04-.09-2.7.82-3.34,3.39-3.32,14.67.11,29.34.16,44.01-.02,3.33-.04,4.39.69,4.37,4.24-.15,31.07-.09,62.14-.09,93.2,0,21.3-.05,42.59.06,63.89.01,2.76-.64,3.69-3.53,3.58-6.01-.24-12.03,0-18.05-.11-2.12-.04-3.1.29-3.08,2.8.12,16.28.11,32.57,0,48.86-.02,2.38.74,2.89,2.99,2.89,45.89-.06,91.78-.06,137.67,0,2.36,0,3.26-.49,3.25-3.08-.12-16.16-.1-32.32-.01-48.48.01-2.28-.61-3.05-2.95-2.99-6.27.14-12.54-.03-18.8.1-2.22.05-3.03-.48-3.03-2.89.07-52.99.07-105.98,0-158.97,0-2.28.56-3.01,2.91-2.99,15.67.1,31.34.12,47.02-.02,2.68-.02,3.07.99,3.02,3.25-.11,6.01.09,12.03-.1,18.04-.08,2.62.67,3.36,3.32,3.35,16.67-.12,33.35-.15,50.02.02,3.15.03,3.91-.81,3.89-3.92-.13-26.06-.15-52.11.01-78.17.02-3.39-.9-4.09-4.16-4.08-50.78.11-101.56.08-152.33.08Z" fill="#fefefe" stroke-width="0"/><path d="M531.08,681.62c2.88-12.94,5.76-25.88,8.65-38.82,5.77-25.78,11.49-51.56,17.38-77.31.68-2.97.08-3.59-2.87-3.55-8.35.12-8.35,0-8.35-8.33,0-14.16.08-28.32-.07-42.47-.03-2.84.78-3.57,3.59-3.56,33.1.1,66.21.09,99.31.01,2.59,0,3.75.36,3.72,3.4-.16,15.91-.14,31.82-.02,47.73.02,2.65-.75,3.42-3.37,3.34-5.64-.19-11.3.18-16.92-.15-3.42-.2-4.67.89-5.44,4.23-9.66,41.97-19.48,83.9-29.27,125.84-7.14,30.6-14.34,61.19-21.36,91.82-.63,2.77-1.68,3.52-4.44,3.51-24.33-.11-48.65-.12-72.98,0-2.86.01-4.04-.63-4.72-3.62-10.05-44.19-20.25-88.35-30.43-132.51-.31-1.34-.65-2.67-.99-4.07-1.19.54-1.05,1.61-1.25,2.49-10.07,44.31-20.18,88.62-30.12,132.97-.84,3.73-2.17,4.84-6.1,4.8-23.95-.24-47.9-.16-71.85-.06-2.68.01-3.8-.6-4.46-3.45-15.86-68.42-31.86-136.8-47.83-205.2-1.08-4.63-2.26-9.24-3.2-13.9-.42-2.1-1.29-2.85-3.5-2.8-6.14.16-12.29-.03-18.43.1-2.29.05-3.33-.34-3.3-3.03.13-16.16.11-32.32.02-48.49-.01-2.35.75-2.94,3.01-2.94,33.36.06,66.71.06,100.07,0,2.23,0,3.04.54,3.03,2.92-.1,16.16-.09,32.32,0,48.49.01,2.19-.42,3.08-2.85,3.09-2.92.01-6.95-1.52-8.46.76-1.12,1.7.73,5.41,1.36,8.2,8.19,36.4,16.4,72.8,24.6,109.19.15.68.34,1.34,1.08,2.05,1.68-8.43,3.36-16.86,5.02-25.3,5.96-30.22,11.87-60.44,17.92-90.64.66-3.29.32-4.62-3.53-4.44-6.61.31-6.62.07-6.62-6.62,0-14.78.06-29.57-.06-44.35-.02-2.64.72-3.36,3.35-3.36,34.48.08,68.97.09,103.45,0,2.72,0,3.31.89,3.29,3.43-.1,15.91-.11,31.82,0,47.74.02,2.65-.75,3.36-3.36,3.33-7.1-.08-7.07.03-5.68,7.05,7.17,36.1,14.32,72.2,21.48,108.31.27,1.34.59,2.67.88,4.01.19.06.39.12.58.18Z" fill="#ba2031" stroke-width="0"/><path d="M173.27,381.03c50.78,0,101.56.03,152.33-.08,3.26,0,4.18.7,4.16,4.08-.16,26.06-.15,52.11-.01,78.17.02,3.11-.74,3.95-3.89,3.92-16.67-.17-33.35-.14-50.02-.02-2.65.02-3.4-.73-3.32-3.35.19-6.01-.02-12.03.1-18.04.04-2.26-.34-3.28-3.02-3.25-15.67.14-31.34.11-47.02.02-2.35-.01-2.92.71-2.91,2.99.06,52.99.06,105.98,0,158.97,0,2.41.81,2.94,3.03,2.89,6.27-.13,12.54.05,18.8-.1,2.33-.05,2.96.72,2.95,2.99-.09,16.16-.1,32.32.01,48.48.02,2.59-.88,3.08-3.25,3.08-45.89-.06-91.78-.06-137.67,0-2.25,0-3.01-.51-2.99-2.89.1-16.28.11-32.57,0-48.86-.02-2.51.97-2.84,3.08-2.8,6.02.11,12.04-.13,18.05.11,2.89.11,3.55-.81,3.53-3.58-.11-21.3-.06-42.59-.06-63.89,0-31.07-.06-62.14.09-93.2.02-3.55-1.04-4.28-4.37-4.24-14.67.18-29.34.13-44.01.02-2.58-.02-3.48.62-3.39,3.32.2,6.01-.02,12.03.11,18.04.05,2.29-.38,3.29-3.04,3.27-17.18-.12-34.35-.09-51.53-.02-2.04,0-2.81-.42-2.8-2.65.08-26.93.1-53.87-.01-80.8-.01-3.53,2.22-2.58,3.99-2.58,51.03-.03,102.06-.02,153.09-.02Z" fill="#ba2031" stroke-width="0"/></g></svg>