<?xml version="1.0" encoding="UTF-8"?><svg id="b" xmlns="http://www.w3.org/2000/svg" viewBox="0 0 700 690.27"><g id="c"><path d="M354.08,690.27c-4.9-4.1-10.97-3.71-16.71-3.98-7.59-.36-15.22-.04-22.83-.11-4.62-.04-9.68.32-13.5-2.29-14.65-10.04-32.34-12.03-48.15-18.89-5.71-2.48-11.43-4.98-16.94-7.86-20.51-10.73-25.22-20.28-21.07-39.72,3.57-16.71-4.91-26.28-14.17-36.89-8.47-9.71-18.18-18.88-24.29-29.98-8.2-14.9-19.26-24.27-35.34-28.62-4.91-1.33-9.9-2.99-10.78-9.53-.43-3.16-2.86-2.69-4.72-.86-3.47,3.4-6.87,1.96-10.4.17-9.9-5.03-19.73-10.24-30.3-13.74-4.42-1.46-5.27-5.13-6.58-8.59-2.95-7.81-7.4-13.52-16.39-15.09-5.39-.94-10.53-4.03-13.23-8.84-3.79-6.74-9.52-10.47-15.83-14.38-16.29-10.08-23.04-26-24.89-44.41-.16-1.59-.37-3.7.47-4.79,6.2-8.14,2.2-14.99-2.51-21.71-2.8-3.99-2.42-9.35-5.9-12.98v-27.74c3.46-10.37,8.87-20.38,9.46-31.31.45-8.31-.33-16.81,1.23-25.03,1.53-8.05-1.97-18.08,5.3-23.85,10.02-7.96-4.13-15.12.6-22.43,1.14-1.76,1.23-4.17,2.21-6.07,3.17-6.16,3.23-12.32,1.21-18.9-1.59-5.15-2.68-10.53-3.35-15.88-1.31-10.47.06-20.4,9.93-26.5,4.2-2.6,4.02-4.62,1.75-8.18-4.94-7.76-9.81-15.58-14.37-23.57C-10.61,94.58,6.28,42.23,51.28,21.35,70.06,12.63,89.29,5.26,109.32,0h3.26c7.32,2.85,14.98,4.37,21.48,9.69,19.16,15.69,22.31,15.48,43.03.87.39-.28,1.02-.21,1.67-.33,2.37,6.84,4.75,13.69,7.02,20.21,11.58-5.27,23.37-10.25,34.83-5.6,9.77,3.96,16.73,1.36,24.54-2.98,4.48-2.49,9.1-4.84,13.86-6.74,7.09-2.82,14.44-5.08,22.21-3.44,10.53,2.23,21.04,1.77,31.58.39,15.87-2.08,31.59-3.76,47.77-1.3,8.71,1.33,17.58,4.29,26.38,3.2,16.09-1.99,31.84-.68,47.81,1.25,18.58,2.24,35.02,16.14,55.2,9.84,2.36-.74,5.65,1.43,8.49,2.34,3.61,1.15,7.24,2.24,10.76,3.62,4.1,1.6,6.19.46,6.09-4-.08-3.73.23-7.81,4.28-8.75,9.66-2.22,18.99-9.52,29.52-2.5,1.87,1.25,4.16.69,6.24-.27,10.14-4.68,20.98-7.2,31.71-9.95,26.89-6.89,48.65,4.23,56.03,28.92,3.53,11.83,9.9,20.52,16.94,29.58,2.82,3.64,5.5,7.41,7.97,11.3,2.49,3.93,5.22,8.52,3.92,12.94-2.93,9.88-2.23,20.26-5.21,30.12-3.4,11.26-12.63,18.21-19.73,26.31-8.19,9.35-8.37,14.93-2.32,26.41,7.58,14.37,17.09,26.18,28.3,37.13,11.96,11.69,20.01,25.4,24.31,41.54.7,2.64-.17,6.07,2.75,8.01v11.42c-5.48,8.27-4.8,18.01-6.45,27.18-4.54,25.19-5.9,50.61-6.02,76.19-.07,14.77-4.78,19.95-18.66,23.52-3.29.85-4.38,2.38-4.96,5.35-2,10.23-7.74,17.54-17.03,22.48-9.99,5.31-16.41,12.65-18.09,25.06-2.43,18.05-14.85,26.77-34.2,26.52-2.69-.04-3.39.99-3.58,3.05-1.84,19.73-15.29,28.88-32.01,34.84-3.77,1.34-5.47,3.04-6.07,7.29-2.95,20.73-16.98,34.28-38.28,37.22-3.83.53-6.92.89-7.5,5.5-.12.98-.88,2.1-1.67,2.74-13.99,11.25-18.22,27.74-23.64,43.64-2.71,7.95-5.9,15.73-8.9,23.58-5.38,14.07-13.33,24.62-28.09,31.64-12.63,6.01-24.28,11.99-38.6,11.84-7.64-.08-15.03,2.53-21.41,6.93-5.41,3.74-12.16,3.35-17.7,6.46h-13.05ZM33.3,252.78c-14.02,7.97-15.26,20.72-15.72,34.06-.59,17.15-2.44,33.93-8.48,50.47-5.15,14.09-3.53,29.28,4.93,42.24,5.07,7.77,7.91,14.55,2.11,22.91-.97,1.4-1.2,3.74-.91,5.51,2.81,17,8.98,31.86,26.06,39.49,4.02,1.8,7.41,4.14,9.53,8.37,3.95,7.85,11.26,12.26,19.3,13.61,6.62,1.11,9.17,4.48,11.09,9.9,2.09,5.9,4.24,11.96,11.08,14.12,8.3,2.63,15.86,6.88,23.7,10.53,2.07.97,4.32,3.15,6.56.48,6.7-7.98,10.84-1.16,13.31,3.33,2.68,4.89,6.42,6.87,10.96,8.7,8.25,3.31,17.31,5.24,23.5,12.32,9.36,10.71,16.18,23.23,25.9,34,7.08,7.84,14.98,16.49,20.8,26.33,4.62,7.81,6.73,14.17,5.62,23.24-2.57,21-3.7,28.96,20.21,40.14,13.97,6.53,28.1,12.69,43.53,15.14,2.66.42,5.01,1.83,7.13,3.69,6.44,5.63,14.02,7.55,22.54,7.6,11.9.07,23.92-1.52,35.67,1.8,10.72,3.03,21.04,1.73,30.54-3.9,4.77-2.83,9.75-5.47,15.02-5.79,17.48-1.04,33.6-4.99,48.62-14.83,6.35-4.16,12-8.04,15.49-14.68,1.76-3.35,3.31-6.83,4.69-10.35,10.3-26.24,17.18-54.07,36.14-76.27,1.78-2.09,3.22-3.34,5.82-3.44,24.32-.92,37.23-16.57,38.64-36.1.3-4.17,2.09-6.68,7.13-8.09,16.63-4.64,29.67-13.12,30.74-32.98.32-5.93,4.23-9.46,10.88-6.01,5.6,2.91,10.48,1.22,15.04-2.4,6.66-5.29,11.1-12.02,11.74-20.58.88-11.76,7.26-20.26,16.94-25.22,11.23-5.75,17.58-13.94,19.37-26.12.61-4.16,2.63-5.63,7.18-5.53,9.88.23,14.33-4.36,14.67-14.25.24-7.06.09-14.14.06-21.21-.12-25.07,3.3-49.99,8.91-74.09,4.92-21.12-.83-37.79-11.76-54.19-6.66-10-16.14-17.59-24.45-26.17-4-4.14-8.17-8.29-9.79-13.83-2.59-8.86-7.23-16.42-13.42-22.94-3.77-3.97-4.08-6.44.58-9.74,11.28-7.99,17.02-20.89,26.49-30.6,5.87-6.02,2.35-15.48,5.35-22.44,5.39-12.51-.25-21.25-7.55-30.02-3.64-4.38-7.27-8.77-11.01-13.08-2.53-2.91-5.62-6.07-5.25-9.83.98-9.85-5.06-16.19-10.16-23.13-5.91-8.03-23.7-14.77-33.33-12.11-11.72,3.24-23.41,6.62-34.91,10.54-5.86,2-10.89,2.95-16.95,0-8.17-3.97-19.42,2.34-21.26,11.09-1.35,6.41-4.03,9.24-11.22,6.69-8.59-3.05-17.35-8.89-26.43-6.43-11.83,3.2-21.53.13-31.33-5.37-.93-.52-1.98-.91-3.02-1.15-20.13-4.59-40.28-8.98-61.13-5.08-3.74.7-7.45-.15-11.24-.69-16.57-2.36-33.03-5.77-50.05-2.91-13.9,2.33-28.24,4.51-42.14,1.83-17.01-3.28-29.75,4.88-42.84,12.83-5.19,3.15-9.7,4.86-15.83,2.02-12.07-5.6-24.06-4.55-35.49,2.41-7.31,4.45-9.74,3.5-12.67-4.81-3.3-9.34-5.05-10.71-13.13-5.55-9.28,5.93-16.68,3.64-24.33-2.18-4.54-3.45-9-7.03-13.71-10.23-7.25-4.92-14.94-6.76-23.89-4.5-20.1,5.08-39.4,12.48-57,23.04-23.09,13.86-35.13,35.41-36.91,62.46-.94,14.36,3.59,27.17,10.69,39.37,5.99,10.3,13.21,19.87,18,30.87,1.86,4.27,2.53,6.88-3.62,8.55-8.6,2.34-12.52,9.93-11.15,19.22.78,5.34,2.3,10.56,3.44,15.85,1.79,8.35,2.3,16.63-1.08,24.78-4.32,10.41-3.73,12.1,7.51,19.26Z" fill="#060402" stroke-width="0"/><path d="M33.3,252.78c-11.23-7.16-11.82-8.85-7.51-19.26,3.38-8.14,2.87-16.43,1.08-24.78-1.13-5.29-2.65-10.51-3.44-15.85-1.36-9.29,2.55-16.88,11.15-19.22,6.16-1.68,5.48-4.29,3.62-8.55-4.79-11-12.02-20.57-18-30.87-7.1-12.21-11.63-25.01-10.69-39.37,1.78-27.06,13.82-48.6,36.91-62.46,17.6-10.57,36.9-17.96,57-23.04,8.95-2.26,16.64-.42,23.89,4.5,4.72,3.2,9.17,6.78,13.71,10.23,7.66,5.81,15.06,8.1,24.33,2.18,8.08-5.16,9.84-3.79,13.13,5.55,2.93,8.31,5.36,9.26,12.67,4.81,11.43-6.96,23.42-8.01,35.49-2.41,6.12,2.84,10.64,1.13,15.83-2.02,13.09-7.95,25.83-16.1,42.84-12.83,13.9,2.68,28.25.5,42.14-1.83,17.03-2.86,33.48.55,50.05,2.91,3.79.54,7.5,1.38,11.24.69,20.86-3.89,41,.5,61.13,5.08,1.04.24,2.09.63,3.02,1.15,9.8,5.51,19.5,8.58,31.33,5.37,9.08-2.46,17.85,3.38,26.43,6.43,7.19,2.55,9.87-.28,11.22-6.69,1.84-8.75,13.08-15.06,21.26-11.09,6.07,2.95,11.09,2,16.95,0,11.5-3.92,23.19-7.31,34.91-10.54,9.63-2.66,27.43,4.08,33.33,12.11,5.11,6.94,11.14,13.28,10.16,23.13-.37,3.75,2.72,6.91,5.25,9.83,3.73,4.3,7.37,8.69,11.01,13.08,7.29,8.78,12.94,17.52,7.55,30.02-3,6.96.52,16.42-5.35,22.44-9.47,9.7-15.21,22.6-26.49,30.6-4.66,3.3-4.34,5.77-.58,9.74,6.19,6.52,10.84,14.09,13.42,22.94,1.61,5.53,5.78,9.69,9.79,13.83,8.31,8.58,17.79,16.18,24.45,26.17,10.93,16.4,16.68,33.07,11.76,54.19-5.61,24.09-9.03,49.02-8.91,74.09.03,7.07.18,14.15-.06,21.21-.33,9.89-4.78,14.48-14.67,14.25-4.55-.11-6.57,1.37-7.18,5.53-1.79,12.18-8.14,20.37-19.37,26.12-9.68,4.95-16.06,13.46-16.94,25.22-.64,8.56-5.08,15.29-11.74,20.58-4.56,3.62-9.44,5.31-15.04,2.4-6.65-3.45-10.56.08-10.88,6.01-1.07,19.86-14.11,28.34-30.74,32.98-5.05,1.41-6.83,3.92-7.13,8.09-1.41,19.53-14.32,35.18-38.64,36.1-2.6.1-4.04,1.35-5.82,3.44-18.96,22.2-25.84,50.03-36.14,76.27-1.38,3.52-2.93,7-4.69,10.35-3.49,6.64-9.13,10.52-15.49,14.68-15.02,9.84-31.14,13.79-48.62,14.83-5.27.31-10.26,2.96-15.02,5.79-9.5,5.63-19.82,6.94-30.54,3.9-11.75-3.32-23.77-1.73-35.67-1.8-8.52-.05-16.1-1.97-22.54-7.6-2.12-1.85-4.47-3.26-7.13-3.69-15.43-2.45-29.56-8.61-43.53-15.14-23.92-11.18-22.79-19.14-20.21-40.14,1.11-9.07-1-15.43-5.62-23.24-5.82-9.85-13.72-18.49-20.8-26.33-9.72-10.77-16.54-23.29-25.9-34-6.18-7.08-15.25-9.01-23.5-12.32-4.54-1.82-8.28-3.8-10.96-8.7-2.46-4.49-6.61-11.32-13.31-3.33-2.24,2.67-4.49.49-6.56-.48-7.84-3.65-15.4-7.9-23.7-10.53-6.84-2.17-8.99-8.22-11.08-14.12-1.92-5.42-4.47-8.78-11.09-9.9-8.04-1.35-15.35-5.76-19.3-13.61-2.13-4.23-5.52-6.58-9.53-8.37-17.08-7.63-23.24-22.49-26.06-39.49-.29-1.76-.06-4.11.91-5.51,5.8-8.36,2.96-15.14-2.11-22.91-8.46-12.96-10.07-28.15-4.93-42.24,6.04-16.54,7.89-33.32,8.48-50.47.46-13.34,1.7-26.09,15.72-34.06ZM496.79,385.91c3.2-9.3,7.85-18.17-4.88-21.74-.2-.06-.49-.5-.43-.65,2.71-7-4.09-7.54-7.25-10.31-3.86-3.39-8.18-6.28-12.43-9.2-2.28-1.56-4.21-5.58-7.28-3.53-2.6,1.74-1.09,5.53-.75,8.44.12,1.05.95,2.01,1.06,3.05.29,2.64,3.28,5.46,1.37,7.62-2.33,2.64-5.52-.47-8.39-.58-2.51-.1-5.38-3.69-7.26-.6-1.37,2.24.78,5.61,2.69,7.22,8.52,7.16,5.58,19.05,11.62,27.18.63.84.32,2.77-.14,3.96-6.45,16.66-15.51,31.11-33,38.24-9.99,4.07-21.3,2.25-28.15-6.26-6.2-7.7-13.5-10.25-22.78-9.5-11.62.95-22.56-1.79-33.23-6.22-3.55-1.48-4.85-3.49-4.89-7.32-.09-8.7,2.96-11.96,12.98-12.4,10.67-.47,20.92,2.58,31.33,4.24,3.89.62,7.55.36,9.25-3.18,3.82-7.95,10.92-12.63,17-18.35,7.36-6.92,12.01-14.51,8.03-25.24-1.48-3.98-1.37-8.54-2.16-12.8-1.52-8.16-5.57-14.41-13.06-18.59-6.38-3.56-12.66-7.45-18.44-11.91-15.38-11.87-33.48-13.7-51.61-13.06-15.63.55-31.18,3.62-46.73,5.84-21.93,3.14-42.83,27.86-38.32,52.16,4.29,23.08,27.75,44.05,51.85,45.71,3.79.26,7.58.75,11.37.75,8.46,0,15.46.95,18.47,11.2,1.33,4.53,2.42,6.25-2.82,6.59-9.43.61-18.93,1.98-28.11-1.75-4.09-1.66-8.39-2.28-12.78-1.69-14.76,2.01-29.5,4.12-44.27,6.09-2.81.38-6.45.91-6.96,3.39-1.87,9.08-10.05,9.48-16.08,13.04-6.07,3.59-9.91,1.53-13.48-3.57-12.84-18.32-13.96-39.22-12.93-60.41.29-5.84,3.31-11.64,2.54-17.59-1.19-9.27,2.99-15.35,9.78-20.84,8.39-6.79,8.31-11.75.48-19.3-1.76-1.69-3.97-2.94-5.55-4.77-5.5-6.34-9.46-3.01-12.41,2.23-4.91,8.73-8.85,17.88-10.87,27.85-.87,4.28-2.41,10.9-7.88,9.12-3.9-1.27-1.98-7.45-.32-11.51,2.76-6.72,2.69-13.6,1.62-20.52-3.13,9.46-10.89,14.58-18.5,18.77-6.45,3.55-7.52,7.16-4.1,12.7,3.62,5.87.07,7.15-4.53,7.86-8.35,1.3-14.71-2.53-18.03-10.47-1.27-3.03-1.11-7.83-5.99-7.37-6.37.6-8.39-3.48-10.56-8.06-4.54-9.55-5.09-19.75-2.21-29.4,7.07-23.66,6.51-49.27,19.59-71.47-6.33-1.49-9.91,1.4-13.42,4.48-6.88,6.05-9.35,14.47-11.87,22.74-2.42,7.93-6.7,14.47-11.72,21.07-8.93,11.74-11.26,25.95-11.35,40.48-.02,2.59,1.43,4.82,3.19,6.43,5.61,5.09,7.36,11.72,8.47,18.8,3.13,20.07,13.97,34.77,31.12,45.4,10.15,6.29,20.33,12.46,30.92,17.96,2.61,1.36,5.35,2.87,7.31,4.98,4.49,4.81,7.44,9.56,1.24,15.98-4.81,4.99-6.38,11.82-4.48,18.98,2.61,9.86,5.14,19.74,7.83,30.06-13.35-7.29-17.22-11.89-21.03-24.52-1.41-4.66-3.82-8.81-9.02-9.42-5.52-.64-8.42,3.39-9.98,7.94-2.11,6.2-3.63,12.59-5.47,19.13-7.04-7.89-7.77-9.23-7.33-24.97.54-19.12-1.36-18.95-16.39-10.23-11.02,6.39-19.24,1.45-19.54-11.39-.26-10.87.04-21.74-.01-32.62,0-1.75.67-3.99-1.66-4.98-2.11-.89-3.66.5-5.12,1.67-3.87,3.09-6.66,7.11-9.51,11.1-1.32,1.85-2.18,5.23-5.11,4.18-2.75-.99-1.6-4.25-1.73-6.57-.49-9.04,0-17.9,4.8-26,3.61-6.08,2.84-10.59-4.59-13.06-4.58-1.53-7.94-4.89-9.32-9.58-3.05-10.35-2.5-20.36,3.79-29.57,4.74-6.94,9.66-13.78,14.18-20.87,6.62-10.39,6.31-12.29-2.78-20.41-2.86-2.56-5.61-5.1-2-8.66,11.3-11.16,14.68-26.26,20.59-40.14,2.07-4.86,1.98-7.03-3.96-8.71-11.28-3.19-13.51-9.05-8.86-19.44,3.22-7.21,7.3-13.92,11.7-20.45,1.74-2.58,3.34-5.23.69-8.01-5.34-5.61-2.56-10.16,1.44-14.93,8.05-9.6,17.18-18.08,26.45-26.47,4.81-4.36,5.35-8.19-2.6-9.23-12.95-1.69-21.92-10.77-32.3-17.24-1.98-1.23-2.29-2.89-2.2-4.83.11-2.39-.81-4.77-2.6-5.69-8.46-4.34-8.16-10.88-5.79-18.63,1-3.27.82-7.05.51-10.54-.72-8.05,2.95-13.45,9.47-17.51,6.57-4.09,13.57-6.22,21.41-6.67,20.66-1.19,34.62,12.88,50.9,21.68,1.31.71,1.89,2.66,3.08,3.74,1.15,1.05,2.68,2.46,4,2.42,15.74-.44,32.13,4.28,46.68-5.92,5.44-3.82,11.23-5.68,18.3-4.19,10.34,2.18,19.4-.19,25.21-11.67-7.53,2.43-13.4-.5-19.64-3.14-6.7-2.84-14.42-2.68-20.29,1.69-6.12,4.56-13.16,4.56-19.79,6.33-6.53,1.75-6.62-11.76-15.09-7.3-.07-.26-.18-.52-.21-.78-.44-3.79-2.54-3.44-5.16-2.15-4.43,2.18-8.76.72-12.46-1.46-8.15-4.8-16.29-9.75-23.83-15.43-5.72-4.31-11.29-5.8-18.18-3.95-18.71,5.04-36.67,12.11-53.44,21.64-30.97,17.61-41.15,58.11-22.91,88.54,4.19,6.99,8.53,13.88,12.83,20.8,4.19,6.74,7.2,13.95,9.19,21.64,1.44,5.55.2,9.07-6.02,9.79-10.59,1.23-12.12,1.76-10.54,15.16.41,3.48,1.16,6.99,2.27,10.31,3.32,9.95,3.79,19.7-1.32,29.21-2.05,3.81-1.34,5.87,3.22,6.81,10.63,2.19,11.07,3.57,4.54,12.43-1.28,1.74-2.69,3.47-4.34,4.83-7.43,6.1-10.73,13.87-10.99,23.48-.22,8.36-1.44,16.56-.28,25.08,1.04,7.65-4.08,14.45-6.25,21.69-5.23,17.52-6.96,34.39,5.23,50.39,4.68,6.14,5.47,13.54,1.02,21.38-5.59,9.85,6.72,36.16,17.72,35.82,8.4-.26,9.53,4.55,11.76,8.73,4.69,8.8,11.7,13.44,21.26,14.27,6.07.52,8.93,3.29,10.18,9.25,3.33,15.83,18.46,17.3,29.67,23.45.56.31,2.06-.45,2.73-1.11,5.72-5.62,10.11-2.52,15.69,1.03,6.61,4.2,8.75,12.92,17.56,14.87,16.21,3.58,27,14.23,34.18,28.9,3.04,6.2,7.32,11.39,13.29,15.1,1.58.98,3.85,2.17,4.17,3.63,2.71,12.18,13.95,18.17,20.28,27.8,6.99,10.63,8.69,20.46,6.25,32.14-2.81,13.43.9,20.6,13.2,26.82,13.15,6.65,27.09,11.07,41.19,15.1,4.39,1.25,9.26,1.72,12.72,5.1,5.31,5.18,11.72,6.08,18.77,6.12,13.25.07,26.55-1.15,39.67,2.75,6.64,1.97,13.68.2,19.6-3.51,8.06-5.05,17.03-8.07,26.11-8.44,12.33-.49,22.52-4.66,33.35-10.28,10.3-5.35,16.2-12.21,20.66-22.36,10.81-24.61,14.97-52.14,34.12-73.25,5.67-6.25,9.15-12.32,18.69-12.83,14.84-.79,25.32-10.32,26.27-23,1.03-13.74,8.84-22.73,19.71-31.14.78,9.8,5.03,7.92,9.96,4.09,4.49-3.48,7.38-7.86,8.19-13.55.38-2.68.7-5.4,1.38-8.01,2.94-11.29,13.84-16.15,24.05-10.66,2.23,1.2,3.7.23,5.1-.96,3.84-3.24,7.08-7.26,7.37-12.29,1.05-17.86,12.15-28.4,26.15-36.86,5.22-3.15,8.17-7.37,9.73-13.31,1.95-7.4,3.83-15,8.63-21.24,3.94,2.04,6.89,6.28,11.33,4.26,4.88-2.22,2.25-7.21,2.78-10.99.26-1.87.07-3.8.04-5.7-.42-31.39,3.93-62.22,10.83-92.75,1.03-4.57.64-9.12-.36-13.73-3.62-16.71-13.58-29.39-25.59-40.77-10.52-9.96-20.27-20.25-24.8-34.66-2.23-7.08-7.73-12.34-13.76-16.78-2.18-1.6-4.24-3.38-6.23-5.2-2.91-2.66-3.08-4.77,1.2-6.31,7.31-2.62,13.92-6.74,18.33-13.07,9.26-13.28,24.42-23.7,21.9-43.05-.16-1.22.35-2.79,1.07-3.83,2.5-3.62,1.28-6.73-1.07-9.67-6.45-8.06-12.9-16.11-19.49-24.04-1.94-2.34-4.26-4.45-3.86-7.75,2.28-18.6-17.75-35.28-38.82-27.99-10.25,3.55-20.7,6.48-31.04,9.78-4.99,1.59-9.8,2.65-15.05.49-8.99-3.7-10.48-2.88-13.68,6.04-3.69,10.31-9.64,13.39-20.18,10.37-2.61-.75-5.2-1.58-7.73-2.54-9.87-3.76-19.76-5.84-30.11-1.65-4.18,1.69-7.97-.17-11.53-2.35-21.51-13.17-45.4-12.9-69.27-11.71-4.84.24-9.4.84-14.31-.1-16.78-3.22-33.53-5.96-50.85-3.27-13.9,2.15-28.09,5.02-42.11,2.01-8.37-1.8-15.38.11-22.67,3.35-5.98,2.66-10.41,7.36-17.02,11.24,5.54-.03,9.31,1.87,13.25,2.43,20.38,2.94,40.92,6.43,59.63-6.51.98-.68,2.62-.48,3.96-.58,5.76-.43,11.67-.2,16.86,2.05,8.78,3.8,17.8,4.44,27.06,4.09,31.62-1.19,62.83,3.04,94.06,6.98,20.79,2.62,36.95,16.31,55.82,23.58,5.01,1.93,8.99,2.67,13.55.48,14.93-7.15,29.66-14.61,42.37-25.5,5.14-4.4,10.41-8.73,17.07-10.83,4.3-1.36,8.86-2.3,12.13,1.45,6.92,7.92,13.81,15.78,16.73,26.5,1.99,7.3-.11,11.93-6.52,14.38-18.02,6.87-32.34,19.75-48.63,29.4-7.2,4.26-6.99,6.95-.19,11.79,6.19,4.41,12.51,8.81,15.8,15.98,3.14,6.86,7.69,12.4,13.87,16.66,5.42,3.74,9.98,8.4,14.05,13.52,17.91,22.56,33.46,46.82,50.16,70.25,4.97,6.97,6.95,15.04,6.87,23.79-.09,10.6-4.62,19.96-7.26,29.83-3.47,13-7.8,25.62-5.93,39.63,1.18,8.86-.3,18.7-7.72,24.6-10.36,8.24-17.2,18.65-23.16,29.99-4.29,8.15-8.27,16.47-12.8,24.49-3.96,7.01-9.95,8.64-14.73,4.87-3.55-2.8-.6-7.14-3.09-10.92-2.2,3.61-4.07,6.8-6.07,9.91-3.02,4.7-3.77,10.71-9.11,14.08-8.77,5.55-16.11,12.85-23.5,20.09-6.88,6.75-14.1,13.17-22.46,20.93,1.33-7.27,3.31-12.61,3.04-17.82-.54-10.28,3.14-17.38,9.7-25.66,11.81-14.91,23.84-29.58,36.62-43.63,15.47-17.01,16.28-37,13.35-60.03-14.92,16.93-15.33,41.78-37.26,54.3,2.43-6.69,4.72-11.26,5.7-16.1,1.43-6.99-2.2-13.19-4.54-19.52-.92-2.48.98-6.95-3.7-6.8-4.3.13-5.44,3.98-6.06,7.55-1.25,7.19-2.2,14.38-2.03,21.75.31,13.54-9.37,23.12-23.65,24.05,3.92-11.27,3.4-13.22-5.63-20.27-2.72,7-7.01,12.56-15.49,16.76ZM531.04,244.95c-3.79-17.51-15.63-28.1-28.48-38.55-12.03-9.78-23.68-13.1-38.72-7.26-17.99,6.98-38.54,8.02-52.23,24.35-2.66,3.17-5.32,1.53-6.86-1.85-1.37-3.02-1.72-6.2-1.77-9.52-.14-9.87,2.77-19.16,5.67-29.3-16.91,4.94-21.4,19.64-28.59,31.98-1.09,1.88-2.58,3.51-2.39,5.82.31,3.83,1.3,7.49,3.37,10.78,2.2,3.5,5.16,6.29,8.4,8.8,4.33,3.36,8.18,7.17,10.79,12.05,9.09,17.06,21.03,32.28,31.36,48.54,1.56,2.45,3.16,5.96,6.52,5.34,3.61-.67,4.49-4.55,5.11-7.72,1.93-9.9-1.06-18.77-6.22-27.1-1.57-2.53-2.09-4.92.6-7.23,3.31-2.84,4.72,0,6.54,1.91,7.32,7.65,15.81,12.15,26.85,10.39,2.33-.37,4.84.25,7.26.5,12.88,1.34,24.71,5.47,34.56,14.37,3.12-5.99,3.7-11.49.01-15.6-7.18-7.99-5.58-17.73-6.9-26.95-.67-4.69,1.81-5.84,5.63-5.55,6.43.49,12.85,1.17,19.48,1.8ZM229.07,261.9c-7.29,12.19-10.32,25.62-12.48,39.25-.99,6.23-.85,15.55,4.85,16.11,5.21.51,6.31-8.76,6.19-14.88-.18-8.74,3.18-16.01,9.61-21.6,12.17-10.6,23.34-23.17,41.71-22.54,3.76.13,5.62-2.91,6.39-6.37.77-3.47-1.1-5.55-3.82-7.35-3.58-2.36-7.44-3.06-11.62-2.95-2.54.07-4.17-1.2-4.12-3.91.04-1.88-.01-4.01,2.69-4.21,8.26-.62,12.16-5.89,14.81-13.07,1.36-3.67,3.62-4.45,7.38-1.25,4.26,3.63,9.66,5.9,14.51,8.86,2.12,1.29,3.6.8,4.61-1.31,4.81-10.01,13.68-16.79,20.21-25.43,1.77-2.34,4.28-4.68,1.92-7.9-2.21-3.02-5.39-2.38-8.16-1.12-6.16,2.8-12.29,5.73-18.21,9-3.04,1.68-4.96,1.87-7.66-.84-8.69-8.72-10.55-7.82-21.19-.73-13,8.67-27.1,13.22-42.81,5.37-9.19-4.59-18.99-8.03-28.63-11.67-12.53-4.73-28.91.89-36.2,12.23-1.15,1.79-2.1,3.84-2.62,5.9-.9,3.6.11,5.89,4.51,5.15,3.84-.64,7.79-1.69,11.45,1.18-4.91,8.84-15.5,7.27-22.27,12.52,2.08,3.47,5.12,3.24,8.02,3.27,3.8.04,7.67.47,11.39-.08,8.36-1.24,8.98,2.34,6.46,8.94-1.38,3.62-2.7,7.47-1.69,12.2,5.28-3.25,9.96-6.55,15.5-7.9,3.7-.9,8.03-1.86,10.95.95,3.66,3.51-2.05,5.1-2.75,7.95-.9,3.65-1.69,7.13,1.07,9.92,2.73,2.75,4.87-.7,7.17-1.6,3.99-1.57,7.79-3.86,12.84-2.08ZM392.45,100.26c-13.7-1.53-25.58,2.14-38.37,1.17,3.69-5.91,10.09-7.62,13.74-12.94-5.98.13-10.73,2.84-15.6,4.91-3.98,1.69-6.25,1.56-6.26-3.47,0-2.58,1.43-5.9-1.85-7.25-3.22-1.32-6.28,1.16-7.65,3.31-4.37,6.85-9.93,7.7-16.89,5.05-.61-.23-1.53.33-2.33.52.45,4.99,5.13,7.24,7.87,11.77-6.31,1.39-11.81,1.26-17.44.08-4.76-1-9.4-2.79-14.39-2.52-2.91.16-6.62-.59-7.23,3.42-.56,3.71,2.08,5.98,5.45,7.06,4.13,1.32,8.4,2.2,12.46,3.68,4.05,1.47,4.21,3.73.57,6.18-4.97,3.34-10.25,2.49-15.71,1.68-2.86-.42-7.11-2.54-8.52,1.57-1.31,3.84,2.21,6.45,5.1,8.46,1.73,1.2,3.94,1.76,6.01,2.38,14.34,4.33,25.01,12.36,29.58,27.44,2.08,6.87,23.22,10.56,27.69,5.18.62-.75.6-2.01.93-3.01,4.12-12.7,12.92-21.44,24.82-26.38,5.02-2.08,9.75-4.2,14.03-7.42,2-1.5,5.48-1.84,4.5-5.72-1.08-4.29-4.56-2.89-7.33-3.11-6.21-.49-12.63,1.02-20.54-1.57,2.18-1.4,2.81-2.04,3.55-2.24,8.47-2.29,18.55-2.32,19.62-14.65.08-.9,1.86-1.66,4.17-3.58ZM528.62,213.4c4.45-2.67,8.12-4.89,11.8-7.08,7.82-4.66,12.57-10.61,11.01-20.63-.72-4.61-1.15-9.74,1.09-14.37,1.15-2.37-.72-3.56-1.92-4.84-5.8-6.18-11.83-11.65-20.84-13.28-5.08-.92-11.08-2.7-13.04-8.48-2.5-7.37-8.07-8.73-14.6-9.29-18.19-1.56-31.26,10.3-46.01,17.63-3.48,1.73-6.83,4.32-9.07,8.29,16.79,3.65,33.39,5,50.3,3.57,13.87-1.17,23.35,6.8,25.98,20.8,1.65,8.76,3.35,17.51,5.29,27.67ZM638.82,291.24c1.64-12.35-2.11-22.69-7.9-32.46-11.13-18.81-24.79-35.68-39.96-51.36-1.74-1.8-3.62-5.97-6.87-3.05-3.01,2.7-5.16,6.82-2.42,10.98,2.84,4.29,6.21,8.25,9.54,12.18,2.12,2.51,4.02,5.05,5.26,8.15,4.36,10.81,8.87,21.57,13.33,32.35,5.58,13.47,7.35,27.14,2.65,41.32-2.7,8.15-2.52,16.52-1.52,25.01.78,6.68,3.73,5.06,7.28,2.62,2.15-1.48,3.63-3.62,2.89-6.24-.82-2.92,0-4.43,2.71-5.58,6.63-2.83,7.59-8.55,7.39-14.89-.13-3.91-4.43-10.89,5.64-7.93,1.96.58,1.92-2.09,1.95-3.65.06-2.72.02-5.44.02-7.46ZM141.29,137.58c-.3.76-.58,1.51-.89,2.25-2.57,6.28-12.16,13.61,2.58,17.34.36.09.54.86.83,1.3q5.21,8.03,12.22,1.44c2.97-2.78,6.14-5.36,9.03-8.22,10.18-10.11,21.83-16.77,36.73-16.04,1.96.1,4.13.24,4.29-2.4.18-3.03-2.31-3.39-4.5-3.43-7.06-.13-14.12-.06-21.18-.14-3.07-.03-7.16-.43-6.99-3.96.44-9.08-4.45-7-9.66-5.6-2.04.55-4.29.33-7.14.5,3.15-4.4,7.03-5.9,10.32-8.18,2.28-1.59,4.56-3.63,2.85-6.72-1.85-3.34-4.81-1.87-7.1-.59-5.21,2.9-9.98,6.7-15.38,9.1-10.57,4.71-14.5,13.51-16.94,23.84,4.1,1.29,7.34-1.96,10.93-.49ZM139.04,209.34c-.17,7.29,4.79,13.35,10.03,13.2,7.42-.21,5.69-6.04,5.57-10.27-.38-14.46,5.35-24.44,18.56-31.42,10.29-5.43,20.26-9.95,32.07-10.01,5.14-.03,10.31-1.02,13.65-5.89,2.16-3.15,2.14-4.71-2.33-4.78-17.76-.28-35.21,1.32-51.98,7.67-2.62.99-5.44,2.09-6.34,4.7-3.5,10.18-10.81,18.11-15.72,27.43-1.74,3.31-2.66,7.04-3.51,9.37ZM481.39,87.92c-4.51-.28-8.75.83-12.94,1.87-3.31.82-8.73.64-8.94,4.15-.29,4.74,5.56,4.16,8.86,5.21,11.76,3.78,23.96,5.79,34.22,13.92,6.03,4.78,14.15,4.9,21.86,2.92,1.86-.48,3.95-.9,4.41-2.99.51-2.35-1.71-3.06-3.28-4.05-2.73-1.72-5.83-3.06-8.07-5.27-10.09-9.94-22.47-14.27-36.11-15.77ZM353.12,246.43c3.6.4,6.56-.24,7.5-4.36.92-4.02-2.56-4.16-4.82-5.21-1.97-.91-4.23-1.45-5.18-3.6-3.65-8.29-10.12-7.71-16.94-5.3-6.11,2.16-12.03,4.87-18.12,7.1-4,1.46-6.93,3.53-5.55,8.25,1.32,4.53,5.83,4.75,8.73,3.65,11.5-4.35,22.89-2.62,34.38-.53ZM365.27,207.79c-13.08-2.11-9.75-15.98-16.72-22.82-4.37,6.23-6.04,12.81-4.46,20,.96,4.41,1.5,9.71,7.14,10.55,6.03.91,11.03-1.31,14.04-7.74Z" fill="#f9c410" stroke-width="0"/><path d="M496.79,385.91c8.48-4.2,12.78-9.76,15.49-16.76,9.03,7.05,9.56,9,5.63,20.27,14.28-.93,23.96-10.52,23.65-24.05-.17-7.38.78-14.56,2.03-21.75.62-3.57,1.75-7.42,6.06-7.55,4.69-.15,2.79,4.32,3.7,6.8,2.34,6.33,5.97,12.53,4.54,19.52-.99,4.83-3.27,9.4-5.7,16.1,21.93-12.52,22.34-37.37,37.26-54.3,2.92,23.03,2.12,43.03-13.35,60.03-12.78,14.05-24.81,28.72-36.62,43.63-6.57,8.29-10.24,15.38-9.7,25.66.28,5.22-1.71,10.56-3.04,17.82,8.36-7.77,15.58-14.18,22.46-20.93,7.39-7.24,14.73-14.54,23.5-20.09,5.33-3.38,6.09-9.39,9.11-14.08,2-3.11,3.87-6.31,6.07-9.91,2.49,3.79-.46,8.13,3.09,10.92,4.79,3.77,10.77,2.14,14.73-4.87,4.53-8.01,8.51-16.33,12.8-24.49,5.96-11.34,12.8-21.75,23.16-29.99,7.42-5.89,8.9-15.74,7.72-24.6-1.87-14.01,2.47-26.63,5.93-39.63,2.63-9.88,7.17-19.24,7.26-29.83.07-8.75-1.9-16.82-6.87-23.79-16.71-23.43-32.25-47.69-50.16-70.25-4.07-5.13-8.63-9.78-14.05-13.52-6.18-4.26-10.72-9.8-13.87-16.66-3.29-7.18-9.6-11.58-15.8-15.98-6.8-4.84-7.01-7.52.19-11.79,16.3-9.65,30.62-22.52,48.63-29.4,6.41-2.45,8.51-7.07,6.52-14.38-2.92-10.72-9.81-18.58-16.73-26.5-3.27-3.75-7.83-2.81-12.13-1.45-6.65,2.1-11.93,6.43-17.07,10.83-12.71,10.89-27.44,18.35-42.37,25.5-4.56,2.18-8.53,1.45-13.55-.48-18.87-7.26-35.03-20.95-55.82-23.58-31.23-3.94-62.44-8.17-94.06-6.98-9.26.35-18.28-.29-27.06-4.09-5.19-2.25-11.1-2.48-16.86-2.05-1.34.1-2.97-.1-3.96.58-18.72,12.94-39.25,9.45-59.63,6.51-3.94-.57-7.7-2.46-13.25-2.43,6.61-3.88,11.04-8.58,17.02-11.24,7.28-3.24,14.29-5.14,22.67-3.35,14.02,3.01,28.22.14,42.11-2.01,17.33-2.68,34.08.05,50.85,3.27,4.9.94,9.47.34,14.31.1,23.87-1.2,47.76-1.46,69.27,11.71,3.56,2.18,7.35,4.04,11.53,2.35,10.35-4.19,20.24-2.11,30.11,1.65,2.53.97,5.13,1.79,7.73,2.54,10.54,3.02,16.49-.06,20.18-10.37,3.19-8.92,4.69-9.74,13.68-6.04,5.25,2.16,10.05,1.1,15.05-.49,10.33-3.3,20.79-6.23,31.04-9.78,21.08-7.3,41.1,9.39,38.82,27.99-.4,3.29,1.92,5.41,3.86,7.75,6.59,7.93,13.05,15.99,19.49,24.04,2.35,2.94,3.57,6.04,1.07,9.67-.72,1.04-1.23,2.6-1.07,3.83,2.52,19.35-12.64,29.76-21.9,43.05-4.42,6.33-11.02,10.45-18.33,13.07-4.28,1.54-4.11,3.64-1.2,6.31,2,1.83,4.06,3.6,6.23,5.2,6.04,4.44,11.54,9.7,13.76,16.78,4.53,14.41,14.28,24.71,24.8,34.66,12.02,11.38,21.97,24.06,25.59,40.77,1,4.61,1.39,9.16.36,13.73-6.9,30.54-11.24,61.37-10.83,92.75.03,1.9.22,3.84-.04,5.7-.53,3.79,2.09,8.77-2.78,10.99-4.44,2.02-7.4-2.22-11.33-4.26-4.8,6.24-6.69,13.84-8.63,21.24-1.56,5.93-4.51,10.15-9.73,13.31-14,8.46-25.1,19-26.15,36.86-.3,5.04-3.53,9.06-7.37,12.29-1.41,1.18-2.87,2.15-5.1.96-10.22-5.49-21.11-.63-24.05,10.66-.68,2.61-1,5.33-1.38,8.01-.81,5.7-3.7,10.07-8.19,13.55-4.93,3.83-9.18,5.7-9.96-4.09-10.87,8.4-18.68,17.4-19.71,31.14-.95,12.68-11.43,22.21-26.27,23-9.54.51-13.03,6.58-18.69,12.83-19.15,21.11-23.3,48.64-34.12,73.25-4.46,10.15-10.36,17.01-20.66,22.36-10.83,5.62-21.02,9.79-33.35,10.28-9.08.36-18.05,3.38-26.11,8.44-5.92,3.71-12.96,5.48-19.6,3.51-13.12-3.9-26.42-2.68-39.67-2.75-7.05-.04-13.46-.95-18.77-6.12-3.47-3.38-8.33-3.84-12.72-5.1-14.11-4.03-28.05-8.46-41.19-15.1-12.31-6.22-16.01-13.39-13.2-26.82,2.44-11.68.74-21.51-6.25-32.14-6.33-9.63-17.57-15.62-20.28-27.8-.32-1.46-2.59-2.65-4.17-3.63-5.97-3.71-10.25-8.9-13.29-15.1-7.19-14.66-17.97-25.31-34.18-28.9-8.81-1.95-10.95-10.67-17.56-14.87-5.58-3.55-9.97-6.65-15.69-1.03-.67.66-2.17,1.42-2.73,1.11-11.22-6.15-26.34-7.62-29.67-23.45-1.25-5.96-4.11-8.73-10.18-9.25-9.56-.82-16.57-5.46-21.26-14.27-2.23-4.18-3.36-9-11.76-8.73-11,.35-23.3-25.97-17.72-35.82,4.45-7.85,3.66-15.24-1.02-21.38-12.19-16-10.46-32.87-5.23-50.39,2.16-7.25,7.29-14.04,6.25-21.69-1.16-8.52.06-16.72.28-25.08.25-9.61,3.55-17.38,10.99-23.48,1.66-1.36,3.06-3.09,4.34-4.83,6.53-8.86,6.1-10.24-4.54-12.43-4.57-.94-5.27-3-3.22-6.81,5.11-9.51,4.64-19.26,1.32-29.21-1.11-3.32-1.86-6.83-2.27-10.31-1.58-13.4-.05-13.94,10.54-15.16,6.22-.72,7.46-4.24,6.02-9.79-1.99-7.69-5.01-14.9-9.19-21.64-4.3-6.92-8.64-13.81-12.83-20.8-18.24-30.42-8.06-70.93,22.91-88.54,16.76-9.53,34.73-16.61,53.44-21.64,6.89-1.85,12.46-.36,18.18,3.95,7.55,5.68,15.68,10.63,23.83,15.43,3.7,2.18,8.03,3.63,12.46,1.46,2.62-1.29,4.71-1.64,5.16,2.15.03.27.14.52.21.78,8.48-4.46,8.56,9.04,15.09,7.3,6.63-1.77,13.67-1.77,19.79-6.33,5.87-4.37,13.6-4.52,20.29-1.69,6.24,2.64,12.11,5.57,19.64,3.14-5.81,11.48-14.87,13.85-25.21,11.67-7.07-1.49-12.85.37-18.3,4.19-14.55,10.2-30.94,5.49-46.68,5.92-1.32.04-2.85-1.38-4-2.42-1.19-1.08-1.77-3.03-3.08-3.74-16.27-8.81-30.24-22.87-50.9-21.68-7.84.45-14.83,2.58-21.41,6.67-6.52,4.06-10.19,9.46-9.47,17.51.31,3.49.49,7.27-.51,10.54-2.36,7.75-2.67,14.29,5.79,18.63,1.79.92,2.72,3.3,2.6,5.69-.09,1.95.22,3.6,2.2,4.83,10.39,6.47,19.35,15.55,32.3,17.24,7.95,1.04,7.41,4.88,2.6,9.23-9.27,8.39-18.4,16.87-26.45,26.47-3.99,4.76-6.78,9.31-1.44,14.93,2.65,2.79,1.05,5.43-.69,8.01-4.4,6.53-8.47,13.24-11.7,20.45-4.65,10.39-2.41,16.25,8.86,19.44,5.95,1.68,6.04,3.85,3.96,8.71-5.92,13.88-9.29,28.98-20.59,40.14-3.61,3.56-.86,6.11,2,8.66,9.09,8.12,9.4,10.03,2.78,20.41-4.52,7.09-9.44,13.92-14.18,20.87-6.29,9.21-6.85,19.21-3.79,29.57,1.38,4.69,4.74,8.05,9.32,9.58,7.43,2.47,8.2,6.98,4.59,13.06-4.81,8.1-5.29,16.96-4.8,26,.12,2.32-1.03,5.58,1.73,6.57,2.93,1.05,3.79-2.33,5.11-4.18,2.85-3.99,5.64-8.01,9.51-11.1,1.46-1.16,3.02-2.56,5.12-1.67,2.33.99,1.65,3.22,1.66,4.98.05,10.87-.24,21.75.01,32.62.3,12.84,8.51,17.79,19.54,11.39,15.03-8.72,16.92-8.88,16.39,10.23-.44,15.74.3,17.09,7.33,24.97,1.84-6.54,3.35-12.94,5.47-19.13,1.55-4.55,4.46-8.58,9.98-7.94,5.2.61,7.61,4.76,9.02,9.42,3.81,12.63,7.68,17.23,21.03,24.52-2.68-10.32-5.22-20.2-7.83-30.06-1.89-7.16-.33-13.99,4.48-18.98,6.2-6.42,3.25-11.17-1.24-15.98-1.97-2.11-4.7-3.62-7.31-4.98-10.59-5.5-20.77-11.68-30.92-17.96-17.15-10.63-27.99-25.33-31.12-45.4-1.11-7.08-2.86-13.72-8.47-18.8-1.77-1.6-3.21-3.83-3.19-6.43.1-14.53,2.42-28.73,11.35-40.48,5.02-6.6,9.3-13.14,11.72-21.07,2.52-8.27,4.99-16.69,11.87-22.74,3.51-3.09,7.09-5.97,13.42-4.48-13.08,22.2-12.52,47.81-19.59,71.47-2.89,9.66-2.33,19.85,2.21,29.4,2.17,4.58,4.19,8.66,10.56,8.06,4.88-.46,4.73,4.34,5.99,7.37,3.31,7.94,9.67,11.76,18.03,10.47,4.6-.71,8.15-1.99,4.53-7.86-3.42-5.54-2.35-9.15,4.1-12.7,7.61-4.19,15.37-9.31,18.5-18.77,1.07,6.92,1.14,13.81-1.62,20.52-1.67,4.05-3.58,10.23.32,11.51,5.47,1.78,7.01-4.84,7.88-9.12,2.02-9.97,5.96-19.12,10.87-27.85,2.95-5.24,6.91-8.57,12.41-2.23,1.58,1.82,3.8,3.08,5.55,4.77,7.84,7.55,7.91,12.51-.48,19.3-6.79,5.49-10.97,11.57-9.78,20.84.77,5.95-2.25,11.75-2.54,17.59-1.04,21.19.09,42.08,12.93,60.41,3.57,5.1,7.42,7.16,13.48,3.57,6.03-3.57,14.2-3.97,16.08-13.04.51-2.48,4.15-3.02,6.96-3.39,14.76-1.97,29.51-4.08,44.27-6.09,4.39-.6,8.69.02,12.78,1.69,9.19,3.73,18.68,2.36,28.11,1.75,5.24-.34,4.15-2.05,2.82-6.59-3.01-10.25-10.01-11.2-18.47-11.2-3.79,0-7.58-.49-11.37-.75-24.11-1.66-47.56-22.63-51.85-45.71-4.51-24.3,16.38-49.02,38.32-52.16,15.55-2.22,31.1-5.29,46.73-5.84,18.13-.64,36.23,1.2,51.61,13.06,5.78,4.46,12.06,8.35,18.44,11.91,7.49,4.18,11.54,10.43,13.06,18.59.79,4.26.69,8.81,2.16,12.8,3.98,10.73-.67,18.32-8.03,25.24-6.08,5.72-13.17,10.4-17,18.35-1.7,3.55-5.36,3.81-9.25,3.18-10.41-1.66-20.66-4.71-31.33-4.24-10.02.44-13.06,3.7-12.98,12.4.04,3.83,1.34,5.84,4.89,7.32,10.67,4.43,21.61,7.17,33.23,6.22,9.28-.76,16.58,1.8,22.78,9.5,6.86,8.51,18.17,10.34,28.15,6.26,17.49-7.13,26.55-21.58,33-38.24.46-1.2.77-3.12.14-3.96-6.04-8.13-3.1-20.02-11.62-27.18-1.91-1.6-4.06-4.97-2.69-7.22,1.88-3.09,4.75.5,7.26.6,2.86.11,6.05,3.22,8.39.58,1.9-2.15-1.08-4.97-1.37-7.62-.11-1.04-.94-2.01-1.06-3.05-.34-2.9-1.85-6.7.75-8.44,3.07-2.06,5,1.96,7.28,3.53,4.25,2.91,8.57,5.81,12.43,9.2,3.16,2.77,9.96,3.31,7.25,10.31-.06.15.23.59.43.65,12.73,3.57,8.08,12.44,4.88,21.74ZM466.76,476.07c0-2.97-.43-5.23.08-7.25,1.66-6.54,3.57-13.03,5.59-19.48,1.62-5.16,3.57-10.22,3.93-15.68.17-2.57.01-4.96-3.27-5.55-4.65-.83-16.99,5.66-19.32,9.93-13.07,23.93-15.16,49.92-14.39,76.43.28,9.5,1.31,19,1.11,28.49-1.25,58.47-49.38,88.25-98.19,81.2-21.71-3.13-43.24-7.83-65.37-7.35-11,.24-13.17-2.8-10.17-13.59.81-2.92,2.06-5.61,4.05-7.88,4.05-4.62,4.05-8.63-.32-13.48-8.03-8.91-11.87-19.58-13-31.71-2.27-24.48-20.19-40.52-44.5-40.98-3.25-.06-6.5-.41-9.76-.55-1.29-.06-3.13-.44-3.77.23-1.33,1.39,0,2.88.82,4.31,4.71,8.11,11.23,14.59,18.13,20.79,14.04,12.61,23.65,27.6,28.74,46.21,3.9,14.22,1.61,27.24-1.56,40.72-1.87,7.95.24,12.41,7.41,13.45,19.44,2.81,37.9,12.22,58.28,8.68,3.07-.53,5.62.46,5.22,4.26-.69,6.5,2.86,8.28,8.56,9.14,9.22,1.41,18.45.14,27.65.8,1.21.09,2.7-.55,3.7-1.32,12.07-9.26,26.51-12.08,40.89-14.51,20.71-3.49,35.79-13.57,45.27-32.88,6.52-13.28,11.57-26.47,12.94-41.38,1.25-13.61,2.23-27.84,13.85-37.89,10.83-9.37,15.61-21.46,17.57-35.5,2.19-15.68-3.8-21.65-20.17-17.65ZM297.98,566.05c-4.59-12.1-10.03-21.94-18.72-29.76-3.53-3.17-5.51-5.08-7.07,1.77-3.05,13.47-2.48,25.77,7.56,36.35,2.46,2.59,3.27,6.66,8.31,6.6,36.37-.46,72.7,2.48,109.07,1.39,8.63-.26,14.8-5.13,17.22-13.49,2.77-9.57,1.82-19.32.69-29.02-.58-4.91-3-5.08-6.4-2.31-6.82,5.57-12.04,12.4-15.95,20.29-4.42,8.91-11.9,10.84-21.16,7.14-9.55-3.82-19.97-.45-30.04-1.58-4.19-.47-8.73,3.05-12.76-1.92-1.84-2.27-4.22-.68-5.52,1-3.32,4.31-6.62,3.05-10.39.75-5.04-3.08-10.23-5.57-14.85,2.78ZM274.76,480.44c7.07-10.63,13.62-20.49,18.77-31.19,1.38-2.86,2.05-4.27,5.79-2.42,9.03,4.48,19.69-3.03,28.73,3.34.38.27,1.61-.3,2.2-.78,4.73-3.83,8.82-5.06,13.56.63,2.74,3.28,7.22,1.33,10.66-.19,3.11-1.37,6.13-1.92,7.88,1.22,3.58,6.43,8.46,4.75,13.07,2.28,4.56-2.45,6.56-.81,8.88,3.12,4.89,8.3,8.01,17.31,11.13,26.63,2.79-2.7,5.41-4.45,8.75-5.12,2.76-.55,5.03-2.26,6.32-4.75,7.04-13.63,2.4-24.79-12.2-29.59-1.28-.42-2.53-.96-3.83-1.3-27.26-7.15-54.52-13.28-83.19-10.04-12.86,1.45-26.03.3-39.06.16-3.88-.04-6.21.72-5.82,5.35,1.18,14.22,3.6,28.16,8.33,42.65ZM233.26,488.25c-.19-19.16-1.84-22.25-18.18-27.95-14.4-5.03-26.99-11.25-31.07-27.7-.63-2.55-2.41-6.6-5.62-5.84-3.22.75-3.91,4.58-4.08,8.08-.69,14.71,9.9,24.6,15.55,36.56,2.06,4.36,5.76,8.6,10.51,9.73,9.94,2.36,16.77,8.21,22.28,16.31,1.36,2,3.13,3.82,6.07,2.04,2.3-1.39,5.06-2.22,4.8-5.73-.18-2.43-.24-4.87-.26-5.49ZM293.37,597.71c1.31,1.69,1.93,2.92,2.92,3.68,5.01,3.89,11.2,3.67,17.02,4.52,24.81,3.63,49.79,12.82,74.09-2.16,2.36-1.45,6.72-1.43,6.1-5.05-.51-2.98-4.29-2.55-7-2.56-1.36,0-2.72,0-4.07,0-29.31.09-58.62-.62-89.05,1.57Z" fill="#060402" stroke-width="0"/><path d="M531.04,244.95c-6.62-.62-13.04-1.31-19.48-1.8-3.82-.29-6.3.86-5.63,5.55,1.32,9.23-.28,18.96,6.9,26.95,3.69,4.11,3.1,9.61-.01,15.6-9.85-8.9-21.68-13.03-34.56-14.37-2.42-.25-4.92-.87-7.26-.5-11.04,1.76-19.53-2.74-26.85-10.39-1.82-1.9-3.23-4.75-6.54-1.91-2.69,2.31-2.17,4.69-.6,7.23,5.16,8.33,8.15,17.2,6.22,27.1-.62,3.17-1.5,7.04-5.11,7.72-3.36.63-4.96-2.88-6.52-5.34-10.33-16.26-22.27-31.48-31.36-48.54-2.6-4.89-6.46-8.69-10.79-12.05-3.24-2.51-6.2-5.3-8.4-8.8-2.07-3.29-3.06-6.95-3.37-10.78-.19-2.31,1.3-3.94,2.39-5.82,7.19-12.35,11.67-27.05,28.59-31.98-2.9,10.14-5.82,19.43-5.67,29.3.05,3.32.4,6.5,1.77,9.52,1.54,3.39,4.2,5.03,6.86,1.85,13.69-16.33,34.24-17.37,52.23-24.35,15.04-5.84,26.69-2.52,38.72,7.26,12.85,10.45,24.69,21.04,28.48,38.55ZM472.37,225.68c-7.04-2.13-17.02-2.51-27.25.07-3.29.83-8.91-.63-9.57,3.91-.61,4.26,3.09,7.84,6.49,10.65,2.32,1.92,5.05,2.84,8.14,3.04,11.25.73,15.19-2.24,22.19-17.67Z" fill="#060402" stroke-width="0"/><path d="M229.07,261.9c-5.05-1.78-8.85.51-12.84,2.08-2.3.9-4.45,4.36-7.17,1.6-2.76-2.79-1.97-6.28-1.07-9.92.7-2.85,6.41-4.44,2.75-7.95-2.93-2.81-7.25-1.85-10.95-.95-5.53,1.35-10.22,4.66-15.5,7.9-1-4.73.31-8.58,1.69-12.2,2.52-6.6,1.9-10.17-6.46-8.94-3.72.55-7.59.12-11.39.08-2.9-.03-5.94.2-8.02-3.27,6.77-5.25,17.36-3.68,22.27-12.52-3.66-2.87-7.61-1.82-11.45-1.18-4.4.73-5.41-1.55-4.51-5.15.51-2.06,1.46-4.1,2.62-5.9,7.29-11.35,23.67-16.97,36.2-12.23,9.64,3.64,19.43,7.08,28.63,11.67,15.71,7.85,29.81,3.3,42.81-5.37,10.63-7.09,12.5-7.99,21.19.73,2.7,2.72,4.62,2.52,7.66.84,5.92-3.27,12.05-6.2,18.21-9,2.76-1.26,5.94-1.89,8.16,1.12,2.36,3.22-.15,5.56-1.92,7.9-6.53,8.64-15.4,15.42-20.21,25.43-1.01,2.11-2.49,2.6-4.61,1.31-4.85-2.95-10.25-5.23-14.51-8.86-3.76-3.2-6.02-2.42-7.38,1.25-2.65,7.18-6.56,12.45-14.81,13.07-2.7.2-2.65,2.33-2.69,4.21-.06,2.72,1.57,3.98,4.12,3.91,4.17-.11,8.04.6,11.62,2.95,2.73,1.8,4.59,3.88,3.82,7.35-.77,3.45-2.62,6.5-6.39,6.37-18.38-.63-29.54,11.94-41.71,22.54-6.43,5.6-9.79,12.87-9.61,21.6.13,6.12-.98,15.39-6.19,14.88-5.69-.56-5.83-9.89-4.85-16.11,2.16-13.63,5.2-27.06,12.48-39.25ZM254.94,231.88c-9.43-3.42-18.34-6.41-27.05-9.91-6.11-2.46-6.51.55-5.64,5.13,1.25,6.6,4.63,11.36,11.5,13.26,8.88,2.44,14.97-1.79,21.19-8.47Z" fill="#060402" stroke-width="0"/><path d="M392.45,100.26c-2.31,1.92-4.1,2.67-4.17,3.58-1.08,12.34-11.15,12.37-19.62,14.65-.74.2-1.36.84-3.55,2.24,7.91,2.6,14.33,1.08,20.54,1.57,2.77.22,6.25-1.18,7.33,3.11.98,3.88-2.5,4.22-4.5,5.72-4.29,3.22-9.01,5.34-14.03,7.42-11.9,4.94-20.7,13.68-24.82,26.38-.33,1.01-.31,2.27-.93,3.01-4.47,5.38-25.61,1.69-27.69-5.18-4.57-15.08-15.24-23.11-29.58-27.44-2.06-.62-4.28-1.19-6.01-2.38-2.89-2.01-6.42-4.62-5.1-8.46,1.41-4.11,5.66-2,8.52-1.57,5.47.81,10.75,1.66,15.71-1.68,3.65-2.45,3.48-4.71-.57-6.18-4.06-1.48-8.34-2.36-12.46-3.68-3.37-1.08-6.01-3.35-5.45-7.06.6-4,4.31-3.26,7.23-3.42,4.99-.27,9.63,1.52,14.39,2.52,5.63,1.18,11.13,1.31,17.44-.08-2.74-4.54-7.42-6.78-7.87-11.77.8-.2,1.71-.76,2.33-.52,6.95,2.64,12.52,1.79,16.89-5.05,1.37-2.15,4.43-4.63,7.65-3.31,3.28,1.34,1.85,4.67,1.85,7.25,0,5.03,2.27,5.16,6.26,3.47,4.87-2.07,9.62-4.78,15.6-4.91-3.65,5.32-10.05,7.03-13.74,12.94,12.78.97,24.67-2.7,38.37-1.17Z" fill="#060402" stroke-width="0"/><path d="M528.62,213.4c-1.94-10.15-3.64-18.91-5.29-27.67-2.64-14-12.11-21.97-25.98-20.8-16.91,1.43-33.51.08-50.3-3.57,2.23-3.97,5.58-6.56,9.07-8.29,14.75-7.33,27.82-19.19,46.01-17.63,6.53.56,12.1,1.92,14.6,9.29,1.96,5.77,7.96,7.56,13.04,8.48,9.02,1.62,15.04,7.1,20.84,13.28,1.2,1.28,3.07,2.47,1.92,4.84-2.24,4.62-1.81,9.76-1.09,14.37,1.56,10.03-3.19,15.98-11.01,20.63-3.69,2.19-7.36,4.41-11.8,7.08Z" fill="#060402" stroke-width="0"/><path d="M638.82,291.24c0,2.02.04,4.74-.02,7.46-.03,1.56,0,4.22-1.95,3.65-10.08-2.96-5.77,4.02-5.64,7.93.21,6.34-.76,12.06-7.39,14.89-2.7,1.15-3.53,2.66-2.71,5.58.74,2.62-.75,4.76-2.89,6.24-3.55,2.44-6.5,4.05-7.28-2.62-.99-8.5-1.17-16.87,1.52-25.01,4.7-14.19,2.93-27.85-2.65-41.32-4.46-10.77-8.97-21.53-13.33-32.35-1.25-3.09-3.14-5.64-5.26-8.15-3.33-3.94-6.7-7.89-9.54-12.18-2.75-4.15-.59-8.28,2.42-10.98,3.25-2.92,5.13,1.26,6.87,3.05,15.16,15.67,28.82,32.54,39.96,51.36,5.78,9.77,9.53,20.12,7.9,32.46Z" fill="#060402" stroke-width="0"/><path d="M141.29,137.58c-3.6-1.48-6.83,1.77-10.93.49,2.44-10.33,6.36-19.13,16.94-23.84,5.4-2.41,10.17-6.21,15.38-9.1,2.29-1.28,5.26-2.75,7.1.59,1.71,3.09-.57,5.13-2.85,6.72-3.29,2.29-7.17,3.78-10.32,8.18,2.84-.17,5.09.04,7.14-.5,5.21-1.4,10.1-3.48,9.66,5.6-.17,3.53,3.92,3.93,6.99,3.96,7.06.08,14.12,0,21.18.14,2.18.04,4.68.4,4.5,3.43-.16,2.64-2.33,2.5-4.29,2.4-14.89-.73-26.54,5.93-36.73,16.04-2.89,2.87-6.06,5.44-9.03,8.22q-7.03,6.57-12.22-1.44c-.29-.44-.46-1.21-.83-1.3-14.74-3.74-5.15-11.06-2.58-17.34.3-.74.59-1.49.89-2.25Z" fill="#060402" stroke-width="0"/><path d="M139.04,209.34c.85-2.33,1.77-6.07,3.51-9.37,4.91-9.32,12.22-17.24,15.72-27.43.9-2.61,3.72-3.71,6.34-4.7,16.78-6.36,34.22-7.96,51.98-7.67,4.46.07,4.49,1.64,2.33,4.78-3.34,4.87-8.5,5.86-13.65,5.89-11.81.06-21.78,4.58-32.07,10.01-13.22,6.98-18.94,16.97-18.56,31.42.11,4.23,1.85,10.06-5.57,10.27-5.24.15-10.2-5.91-10.03-13.2Z" fill="#060402" stroke-width="0"/><path d="M481.39,87.92c13.64,1.49,26.01,5.83,36.11,15.77,2.25,2.21,5.35,3.55,8.07,5.27,1.58.99,3.79,1.7,3.28,4.05-.45,2.09-2.55,2.51-4.41,2.99-7.71,1.98-15.83,1.86-21.86-2.92-10.26-8.13-22.46-10.15-34.22-13.92-3.29-1.06-9.14-.47-8.86-5.21.21-3.51,5.63-3.33,8.94-4.15,4.19-1.04,8.42-2.15,12.94-1.87Z" fill="#060402" stroke-width="0"/><path d="M353.12,246.43c-11.49-2.09-22.88-3.82-34.38.53-2.9,1.1-7.41.88-8.73-3.65-1.38-4.72,1.55-6.79,5.55-8.25,6.09-2.23,12.01-4.94,18.12-7.1,6.83-2.41,13.3-2.99,16.94,5.3.95,2.15,3.21,2.69,5.18,3.6,2.26,1.04,5.74,1.19,4.82,5.21-.95,4.12-3.9,4.76-7.5,4.36Z" fill="#060402" stroke-width="0"/><path d="M365.27,207.79c-3.01,6.42-8.01,8.64-14.04,7.74-5.64-.85-6.18-6.14-7.14-10.55-1.57-7.2.1-13.77,4.46-20,6.97,6.84,3.63,20.71,16.72,22.82Z" fill="#060402" stroke-width="0"/><path d="M466.76,476.07c16.38-4,22.37,1.97,20.17,17.65-1.96,14.04-6.74,26.13-17.57,35.5-11.62,10.05-12.61,24.29-13.85,37.89-1.37,14.91-6.42,28.1-12.94,41.38-9.48,19.32-24.56,29.39-45.27,32.88-14.39,2.43-28.82,5.24-40.89,14.51-1,.77-2.49,1.41-3.7,1.32-9.2-.66-18.42.61-27.65-.8-5.7-.87-9.25-2.64-8.56-9.14.4-3.8-2.15-4.79-5.22-4.26-20.39,3.54-38.85-5.86-58.28-8.68-7.17-1.04-9.28-5.5-7.41-13.45,3.17-13.48,5.46-26.5,1.56-40.72-5.1-18.61-14.7-33.6-28.74-46.21-6.9-6.2-13.42-12.68-18.13-20.79-.83-1.43-2.15-2.92-.82-4.31.64-.67,2.48-.28,3.77-.23,3.25.15,6.5.49,9.76.55,24.31.45,42.23,16.49,44.5,40.98,1.12,12.14,4.97,22.81,13,31.71,4.37,4.85,4.37,8.86.32,13.48-1.99,2.28-3.24,4.96-4.05,7.88-3,10.79-.83,13.83,10.17,13.59,22.13-.48,43.66,4.21,65.37,7.35,48.81,7.05,96.94-22.73,98.19-81.2.2-9.48-.84-18.99-1.11-28.49-.77-26.51,1.32-52.5,14.39-76.43,2.33-4.27,14.67-10.76,19.32-9.93,3.28.59,3.44,2.97,3.27,5.55-.36,5.46-2.31,10.52-3.93,15.68-2.02,6.44-3.92,12.93-5.59,19.48-.51,2.02-.08,4.28-.08,7.25Z" fill="#f9c410" stroke-width="0"/><path d="M297.98,566.05c4.62-8.35,9.81-5.87,14.85-2.78,3.76,2.3,7.07,3.56,10.39-.75,1.3-1.68,3.67-3.28,5.52-1,4.04,4.97,8.57,1.46,12.76,1.92,10.07,1.12,20.49-2.25,30.04,1.58,9.26,3.71,16.75,1.78,21.16-7.14,3.91-7.89,9.12-14.71,15.95-20.29,3.4-2.77,5.82-2.61,6.4,2.31,1.14,9.7,2.08,19.45-.69,29.02-2.42,8.36-8.59,13.23-17.22,13.49-36.38,1.1-72.7-1.85-109.07-1.39-5.04.06-5.85-4-8.31-6.6-10.04-10.58-10.61-22.89-7.56-36.35,1.55-6.86,3.54-4.94,7.07-1.77,8.69,7.81,14.13,17.66,18.72,29.76Z" fill="#fdfdfd" stroke-width="0"/><path d="M274.76,480.44c-4.73-14.49-7.15-28.44-8.33-42.65-.39-4.63,1.94-5.39,5.82-5.35,13.03.14,26.19,1.29,39.06-.16,28.67-3.24,55.93,2.9,83.19,10.04,1.3.34,2.55.88,3.83,1.3,14.59,4.8,19.24,15.96,12.2,29.59-1.29,2.49-3.56,4.19-6.32,4.75-3.35.67-5.97,2.42-8.75,5.12-3.12-9.33-6.24-18.34-11.13-26.63-2.32-3.93-4.32-5.57-8.88-3.12-4.61,2.47-9.49,4.15-13.07-2.28-1.75-3.14-4.77-2.59-7.88-1.22-3.44,1.52-7.93,3.47-10.66.19-4.74-5.69-8.84-4.46-13.56-.63-.59.48-1.83,1.05-2.2.78-9.04-6.37-19.7,1.14-28.73-3.34-3.74-1.85-4.42-.44-5.79,2.42-5.15,10.7-11.7,20.56-18.77,31.19Z" fill="#fdfdfd" stroke-width="0"/><path d="M233.26,488.25c.03.61.08,3.05.26,5.49.26,3.52-2.5,4.35-4.8,5.73-2.94,1.78-4.71-.04-6.07-2.04-5.51-8.1-12.34-13.96-22.28-16.31-4.75-1.12-8.45-5.37-10.51-9.73-5.65-11.96-16.24-21.85-15.55-36.56.17-3.5.86-7.33,4.08-8.08,3.21-.75,4.99,3.29,5.62,5.84,4.08,16.45,16.67,22.67,31.07,27.7,16.33,5.71,17.98,8.8,18.18,27.95Z" fill="#f9c410" stroke-width="0"/><path d="M293.37,597.71c30.43-2.19,59.75-1.47,89.05-1.57,1.36,0,2.72,0,4.07,0,2.7.01,6.49-.42,7,2.56.61,3.62-3.75,3.6-6.1,5.05-24.29,14.99-49.28,5.79-74.09,2.16-5.82-.85-12.01-.64-17.02-4.52-.98-.76-1.6-1.99-2.92-3.68Z" fill="#f9c410" stroke-width="0"/><path d="M472.37,225.68c-7,15.43-10.93,18.4-22.19,17.67-3.1-.2-5.82-1.12-8.14-3.04-3.4-2.81-7.1-6.4-6.49-10.65.65-4.54,6.28-3.08,9.57-3.91,10.24-2.58,20.21-2.2,27.25-.07Z" fill="#fdfdfd" stroke-width="0"/><path d="M254.94,231.88c-6.22,6.68-12.31,10.92-21.19,8.47-6.87-1.89-10.25-6.65-11.5-13.26-.87-4.58-.46-7.58,5.64-5.13,8.7,3.5,17.62,6.49,27.05,9.91Z" fill="#fdfdfd" stroke-width="0"/></g></svg>