<?xml version="1.0" encoding="UTF-8"?><svg id="b" xmlns="http://www.w3.org/2000/svg" viewBox="0 0 696.1 700.48"><g id="c"><path d="M263.55,0h85.81c1.16,2.92,3.65,3.34,6.38,3.58,12.49,1.08,24.95,2.63,37.46,3.26,10.44.53,20.29,1.99,28.57,9.02,4.73,4.02,9.63,5,14.97.75,2.88-2.29,6.56-2.53,10.07-1.91,37.57,6.69,71.77,18.19,85.25,59.51,1.53,4.67,4.46,8.87,6.19,13.5,4.31,11.57,12.96,18.43,23.15,24.9,29.03,18.43,58.5,36.23,86.23,56.69,11.39,8.4,17.68,19,18.66,32.99.66,9.31,1.42,18.61,2.28,27.9,1.5,16.26,1.76,33.01,9.24,47.83,8.59,17.01,12.87,34.9,14.82,53.57.28,2.69.39,5.29,3.46,6.39v24.52c-3.32,5.12-6.59,10.22-11.57,14.03-8.92,6.83-8.86,6.91-1.61,15.59,10.94,13.1,12.88,25.46,5,37.67-4.24,6.58-8.85,13.41-14.8,18.29-10.48,8.61-15.06,19.44-17.15,32.3-5.84,35.98-11.12,72.07-18.96,107.68-3.51,15.96-10.16,20.73-26.43,21.13-15.17.37-30.35.54-45.51,1.13-8.94.34-16.87,3.55-24.25,8.88-11.46,8.28-20.98,18.51-30.59,28.69-16.98,17.98-32.32,37.59-52.31,52.58h-24.52c-7.58-10.13-9-21.32-6.89-33.62,2.56-14.94,4.23-30.04,6.28-45.06,1.51-11.01-1.69-20.17-10.65-27.05-7.85-6.03-15.96-11.76-23.52-18.13-6.04-5.09-10.92-5.75-17.52-.37-20.95,17.07-43.07,32.03-71.17,34.73-6.09.59-10.51,4.23-14.13,9.3-9.15,12.81-18.73,25.32-28.01,38.04-8.8,12.06-25.45,16.18-38.28,9.29-11.71-6.29-14.77-16.87-9.58-32.62.69-2.09,2.64-3.98,1.26-7.06-9.27,2.38-15.8,9.35-23.62,14.04-2.7,1.62-5.5,4.85-8.49,2.91-2.42-1.58-1.12-5.47-.82-8.29,2.37-22.64,4.16-45.3,4.66-68.09.19-8.57-2.72-9.93-10.22-7.96-20.34,5.34-40.23,12-60.04,18.98-5.57,1.96-10.95,5.37-17.38,4.53-.28-3.89,1.9-6.45,3.42-9.18,10.9-19.63,21.82-39.24,32.9-58.77,7.49-13.2,6.99-14.26-8.45-15.32-.29-.02-.58-.02-.87-.05-31.7-3.02-63.49-3.58-95.3-4.03-2.61-.04-5.8,1.32-8.07-2.28,3.48-2.76,6.83-5.51,10.28-8.13,24.08-18.38,48.99-35.69,72.16-55.24,9.11-7.69,8.84-8.09-1.82-12.63-29.51-12.58-58.86-25.52-89.01-36.54-2.07-.75-5.26-.92-5.14-3.83.12-2.78,3.26-2.84,5.34-3.63,24.24-9.28,48.51-18.45,72.69-27.86,3.67-1.43,9.48-1.74,10.02-5.93.64-4.91-5.38-6.53-8.84-8.55-29.46-17.2-59.15-33.99-88.73-50.96-2.14-1.23-5.08-1.7-5.85-5.34,2.57-1.88,5.68-2.1,8.79-2.49,35.31-4.43,70.62-8.87,105.91-13.45,2.72-.35,6.63.42,7.72-2.78,1.03-3.02-2.25-5.07-4.02-7.26-20.57-25.41-43.02-49.16-64.92-73.4-1.87-2.07-5.49-4.08-4.03-7.05,1.48-3.02,5.28-1.32,7.97-.92,31.73,4.72,63.45,9.57,95.17,14.37,2.8.42,6.54,2.62,8.19.03,1.92-3.03-1.69-5.75-3.37-8.34-15.39-23.78-33.7-45.4-50.52-68.12-2.52-3.41-8.52-6.82-6.32-10.49,2.63-4.38,9.05-1.49,13.72-1,34.23,3.59,68.43,7.46,102.65,11.14,2.44.26,5.59,1.7,7.28-1.02,1.64-2.64-.86-4.9-2.07-7.12-11.73-21.52-23.58-42.96-35.15-64.56-1.51-2.82-5.36-6.09-2.71-9.24,2.1-2.49,6.08-.2,9.07.62,27.85,7.6,55.67,15.33,83.51,22.99,3.26.9,7.33,3.59,9.71.57,1.93-2.44-1.45-5.81-2.66-8.71-5.76-13.71-15.41-25.42-20.36-39.54ZM204.8,617.68c4.98-.44,7.52-3.04,10.49-4.72,12.44-7,24.1-15.41,37.31-21,2.25-.95,5.1-2.81,7.33-.43,2.48,2.65.55,5.75-.88,8.04-4.93,7.92-10.3,15.57-15.4,23.39-4.13,6.33-9.01,12.29-10.93,19.83-2.25,8.82,3.53,15.08,12.52,13.64,4.93-.79,8.37-3.76,11.28-7.63,10.16-13.53,20.47-26.95,30.56-40.54,3.99-5.37,8.7-9.65,15.5-10.46,25.78-3.06,47.95-13.74,67.2-30.94,2.81-2.51,6.32-4.22,9.24-6.63,6.32-5.21,12.62-4.82,19.4-.9,12.45,7.2,23.48,16.17,34.31,25.57,11.94,10.37,16.27,22.37,13.69,38.14-2.87,17.53-3.99,35.35-5.74,53.06-.36,3.67-1.4,7.9,2.56,10.37,3.79,2.36,7.3-.08,10.71-1.6,4.67-2.08,7.91-5.94,11.25-9.58,18.74-20.44,38.05-40.31,57.69-59.88,10.93-10.89,23.57-17.73,39.26-18.98,16.3-1.3,32.61-2.16,48.95-1.99,7.43.07,10.95-2.86,12.02-10.52,2.4-17.17,1.57-34.37,1.7-51.57.08-10.84-.94-11.9-11.54-10.41-18.19,2.55-36.33,5.48-54.48,8.34-7.01,1.1-13.83,1.9-15.75-7.43-1.42-6.91,2.15-10,12.62-11.68,21.91-3.51,43.9-6.32,66.07-7.19,8.49-.33,13.41-3.6,15.13-12.32,4.54-22.97,13.39-43.17,31.1-60.11,15.41-14.74,13.8-19.37-1.85-36.44-10.85-11.84-9.64-18.45,3.56-27.08,5.53-3.62,13.76-6.19,11.28-16.29-2.5-10.17-7.65-15.51-18.35-17.06-2.3-.33-4.66-.48-6.98-.38-22.45.91-44.9,1.74-67.33,2.92-11.94.63-24.36.03-35.66,3.2-40.41,11.36-80.96,22.61-118.55,42.06-7.06,3.65-11.5,8.85-12.35,16.78-2.44,22.64-16.28,33.53-37.56,37.51-18.02,3.36-30.08-2.57-38.19-19.78-7.8-16.56-4.91-29.9,9.34-41.2,6.16-4.89,12.87-9.09,19.17-13.82,3.79-2.84,9.72-5.35,5.91-11.56-3.61-5.88-8.79-2.45-13.26-.65-17.69,7.15-27.72,20.7-31.94,38.91-3.51,15.12-1.72,30.17.82,45.19,1.57,9.28,2.51,18.63-.46,27.75-8.55,26.2-22.17,49.43-41.69,69-2.73,2.74-5.83,6.91-10.38,3.85-4.16-2.8-2.67-7.14-1.33-11.16,3.84-11.54,11.16-21.07,17.65-31.11,5.06-7.83,9.89-15.82,14.59-23.87,1.41-2.41,3.32-5.5.75-8.06-2.86-2.85-6.17-.83-8.83.77-3.47,2.1-6.77,4.58-9.83,7.26-16.03,14.02-31.98,28.14-47.9,42.28-2.8,2.49-5.73,4.28-9.46,2.7-3.9-1.65-5.48-4.99-5.66-9.11-.4-9.46,3.22-17.24,10.57-22.92,10.85-8.37,21.46-17.31,33.25-24.15,14.63-8.5,20.27-19.78,18.32-36.44-.9-7.66-3.82-9.74-10.51-8.57-4.55.79-9.04,2.76-13.55,2.73-17.53-.11-34.96,1.26-52.41,2.48-12.83.9-24.07-2.98-34.38-10.5-4.9-3.57-4.56-5.63.61-8.45,10.65-5.82,21.51-9.7,34.03-9.44,20.12.41,40.26-.1,60.38-.6,4.64-.12,10.58.13,10.65-7.34.06-7.38-5.5-7.21-10.4-7.57-7.85-.58-15.76-1.51-23.59-1.17-24.7,1.08-47.23-5.72-68.34-17.93-2.81-1.63-7.6-2.79-7.05-6.73.48-3.43,4.81-4.77,7.98-6.2,17.48-7.84,35.63-7.45,54.1-4.65,18.15,2.76,36.21,6.47,54.67,6.54,3.55.01,8.68,2.02,10.33-2.16,1.82-4.63-2.98-7.7-5.72-10.94-2-2.37-5.01-2.76-7.9-3.32-14.61-2.8-29.1-6.74-43.83-8.26-25.61-2.65-44.81-16.97-63.72-32.25-2.15-1.74-5.45-3.67-4.47-6.93,1.01-3.33,4.8-3.08,7.58-3.05,23.26.29,46.67-1.27,68.62,9.61,13.57,6.73,27.8,12.13,41.84,17.88,9.42,3.85,18.58,8.71,29.04,9.23,3.6.18,8.19,2.06,10.23-2.4,2.08-4.54-.8-8.41-3.68-11.81-2.14-2.53-5.24-3.56-8.21-4.82-22.83-9.67-45.62-19.46-68.47-29.09-4.09-1.73-7.92-3.74-11.03-6.92-9.58-9.81-19.18-19.6-28.62-29.54-2.31-2.43-5.81-5.18-3.84-8.93,1.61-3.08,5.62-2.77,8.78-2.61,15.73.77,31.46,1.61,47.18,2.63,5.03.33,9.54,2.35,13.68,5.35,27.84,20.17,55.75,40.25,83.59,60.42,5.93,4.3,16.77,5.62,19.35,1.3,4.36-7.29-2.09-11.15-6.58-14.9-15.87-13.24-31.13-27.47-48.19-38.99-29.98-20.24-47.8-49.69-64.92-79.97-1.65-2.92-4.7-6.72-2.42-9.65,2.58-3.3,7.02-1.28,10.63-.21,23.5,6.95,46.98,13.96,70.49,20.85,4.92,1.44,8.81,4.29,12.62,7.55,28.16,24.07,56.39,48.08,84.64,72.05,5.04,4.28,11.79,9.03,16.82,2.94,4.61-5.59.02-12.04-5.31-16.49-.22-.19-.45-.37-.67-.56-21.79-18.06-43.62-36.07-65.34-54.21-3.56-2.97-7.31-6.03-9.91-9.79-11.66-16.79-22.36-34.19-30.82-52.85-3.85-8.48-2.33-10.8,6.83-9.6,15.32,2.01,30.51,5.21,45.86,6.84,21.32,2.27,38.45,11.58,53.77,26.4,26.42,25.55,53.67,50.24,80.74,75.12,7.92,7.29,15.53,15.18,25.44,19.84,5.59,2.63,12.35,7.74,17.69,2.13,5.41-5.68-.06-12.47-3.24-17.48-8.63-13.58-19.3-25.63-31.49-36.19-31.69-27.5-63.48-54.88-95.23-82.3-4.02-3.47-7.29-7.5-9.81-12.2-8.13-15.17-16.81-30.06-24.39-45.5-5.18-10.54-10.54-17.27-24.31-18.01-32.73-1.75-65.33-5.98-97.96-9.36-6.21-.64-7.16,1.11-4.43,6.57,6.39,12.79,12.49,25.72,18.53,38.68,1.41,3.02,4.53,6.52,1.95,9.65-2.5,3.03-6.57,1.1-9.91.26-27.17-6.8-54.32-13.66-81.49-20.44-2.11-.53-4.27-2.21-7.01.09,1.23,2.45,2.48,5.03,3.8,7.58,9.5,18.39,20.34,36.11,27.76,55.54,4.07,10.65,4,10.71-7.02,10.82-20.48.21-40.76-2.26-61.05-4.48-14.29-1.57-28.58-3.16-45.11-4.98,3.25,4.62,4.96,7.23,6.85,9.7,15.68,20.36,30.56,41.27,43.92,63.22,2.18,3.58,6.94,7.3,4.72,11.5-2.55,4.82-8.51,2.46-12.93,2.4-16.66-.23-33.09-3.07-49.59-5.09-12.2-1.49-24.36-3.39-38.75-5.42,3.47,4.07,5.33,6.2,7.14,8.36,16.85,20.13,33.84,40.16,50.49,60.46,7.18,8.75,6.02,11.49-5.04,13.23-23.34,3.66-46.74,6.95-70.06,10.72-7.35,1.19-15.19.72-22.91,4.86,3.63,2.28,6.31,4.01,9.03,5.66,23.44,14.24,46.91,28.43,70.3,42.75,3.65,2.24,9.17,4.25,8.92,8.78-.28,5.19-6.46,6.1-10.57,7.85-14.49,6.17-29.21,11.81-43.69,18.01-7.32,3.14-15.26,5.02-22.22,9.64,2.68,3.6,6.32,4.11,9.42,5.43,22.82,9.66,46.2,18.08,67.8,30.48,10.53,6.04,10.76,6.67,2.24,15.58-3.01,3.15-6.3,6.08-9.71,8.8-15.05,12.01-30.22,23.87-45.27,35.9-2.36,1.89-5.77,3.03-6.15,7.03,6.21,2.34,12.66,1.86,18.99,2.28,21.24,1.4,42.56,2.03,63.58,5.77,10.08,1.79,11.61,4.53,7.35,13.62-5.2,11.09-10.86,21.96-16.36,32.91-3.67,7.32-7.41,14.61-11.93,23.5,5.03-1.37,8.08-2.15,11.11-3.03,15.39-4.5,30.61-9.61,46.46-12.42,11.32-2.01,14.37.32,14.5,11.89.23,20.4-.2,40.78-2.33,61.93ZM592.04,255.36c-2.92,0-5.84-.11-8.74.02-9.33.42-9.37.52-4.67,8.64,5.25,9.07,10.61,18.07,15.74,27.21,1.01,1.8,3.04,4.25.12,6.13-2.33,1.5-5.2,1.82-7.39-.05-1.71-1.46-2.93-3.59-4.08-5.59-5.09-8.84-10.15-17.71-15.08-26.65-2.11-3.83-4.33-6.71-9.47-5.73-14.89,2.85-29.81,5.56-44.75,8.11-4.41.75-5.2,2.6-3.49,6.55,2.44,5.61,4.56,11.36,6.71,17.09.64,1.7.66,3.61-.97,4.78-2.12,1.53-4.2.38-5.3-1.32-2.84-4.39-5.79-8.82-7.78-13.61-2.85-6.87-6.11-7.6-12.36-3.51-29.19,19.07-55.52,41.61-80.57,65.69-15.11,14.53-14.78,14.99-2.32,32.29,4.15,5.77,8.18,6.82,14.78,4.02,26.84-11.38,53.77-22.6,80.91-33.23,20.52-8.04,39.99-19.47,62.87-20.42,11.94-.5,23.87-1.36,35.8-2.06,20.09-1.17,40.16-2.48,60.26-3.42,7.42-.35,10.3-3.69,9.99-10.98-.35-8.32-1.52-16.35-6.36-23.29-6.17-8.85-12.68-17.46-18.99-26.21-2-2.78-4.38-4.47-8.02-4.35-5.24.17-10.51.21-15.75,0-4.91-.19-5.44,1.75-3.53,5.73,4.91,10.24,9.86,20.47,14.38,30.89,1.27,2.93,5.61,6.83.06,9.66-5.83,2.99-7.69-2.09-9.43-5.92-4.1-9.02-7.82-18.22-11.73-27.33-6.8-15.85-4.04-13.71-20.83-13.17ZM651.06,214.81c5.8-20.48-6.96-30.91-21.64-40.43-25.45-16.5-50.51-33.64-76.37-49.47-14.33-8.77-23.77-20.25-30.95-35.41-21.86-46.18-9.71-39.62-67.68-57.41-.56-.17-1.12-.34-1.68-.5-2.26-.63-4.76-1.52-6.47.66-1.44,1.82-.02,3.74.67,5.69,5.29,14.83,10.94,29.57,15.37,44.66,3.02,10.27,8.94,17.11,17.86,22.56,25.88,15.81,51.64,31.85,77.17,48.22,21.21,13.59,40.83,29.14,56.29,49.38,4.92,6.43,8.41,13.36,8.27,21.61-.06,3.25.9,5.63,3.62,7.39,5.87,3.81,11.71,7.67,17.56,11.52,3.97,2.62,5.79,1.26,6.1-3.19.59-8.43,1.25-16.86,1.88-25.28Z" fill="#f7b937" stroke-width="0"/><path d="M204.8,617.68c2.13-21.15,2.56-41.53,2.33-61.93-.13-11.56-3.18-13.9-14.5-11.89-15.85,2.82-31.07,7.92-46.46,12.42-3.02.88-6.07,1.66-11.11,3.03,4.51-8.89,8.25-16.18,11.93-23.5,5.5-10.95,11.15-21.83,16.36-32.91,4.27-9.09,2.73-11.83-7.35-13.62-21.02-3.74-42.34-4.37-63.58-5.77-6.33-.42-12.78.06-18.99-2.28.38-4,3.79-5.15,6.15-7.03,15.04-12.02,30.22-23.88,45.27-35.9,3.41-2.72,6.7-5.65,9.71-8.8,8.52-8.91,8.29-9.54-2.24-15.58-21.61-12.39-44.98-20.81-67.8-30.48-3.1-1.31-6.74-1.83-9.42-5.43,6.96-4.62,14.9-6.5,22.22-9.64,14.48-6.2,29.19-11.85,43.69-18.01,4.11-1.75,10.29-2.66,10.57-7.85.25-4.53-5.27-6.54-8.92-8.78-23.39-14.32-46.86-28.51-70.3-42.75-2.72-1.65-5.4-3.38-9.03-5.66,7.72-4.14,15.56-3.67,22.91-4.86,23.32-3.77,46.72-7.06,70.06-10.72,11.06-1.74,12.22-4.47,5.04-13.23-16.65-20.3-33.63-40.33-50.49-60.46-1.81-2.16-3.67-4.3-7.14-8.36,14.39,2.03,26.55,3.93,38.75,5.42,16.5,2.01,32.93,4.86,49.59,5.09,4.42.06,10.38,2.42,12.93-2.4,2.22-4.2-2.54-7.92-4.72-11.5-13.36-21.95-28.25-42.87-43.92-63.22-1.9-2.46-3.6-5.08-6.85-9.7,16.53,1.83,30.82,3.42,45.11,4.98,20.3,2.23,40.57,4.69,61.05,4.48,11.02-.11,11.09-.17,7.02-10.82-7.42-19.43-18.26-37.15-27.76-55.54-1.32-2.55-2.57-5.13-3.8-7.58,2.74-2.3,4.9-.62,7.01-.09,27.17,6.79,54.32,13.65,81.49,20.44,3.34.83,7.4,2.76,9.91-.26,2.58-3.12-.54-6.62-1.95-9.65-6.04-12.96-12.14-25.89-18.53-38.68-2.73-5.46-1.78-7.21,4.43-6.57,32.64,3.38,65.24,7.61,97.96,9.36,13.76.74,19.13,7.46,24.31,18.01,7.58,15.44,16.26,30.33,24.39,45.5,2.52,4.7,5.8,8.73,9.81,12.2,31.75,27.42,63.54,54.8,95.23,82.3,12.18,10.57,22.86,22.62,31.49,36.19,3.18,5,8.65,11.8,3.24,17.48-5.34,5.61-12.1.51-17.69-2.13-9.91-4.67-17.52-12.56-25.44-19.84-27.06-24.88-54.32-49.57-80.74-75.12-15.32-14.82-32.45-24.13-53.77-26.4-15.36-1.63-30.54-4.83-45.86-6.84-9.16-1.2-10.68,1.13-6.83,9.6,8.46,18.66,19.16,36.06,30.82,52.85,2.61,3.75,6.35,6.81,9.91,9.79,21.73,18.13,43.55,36.15,65.34,54.21.22.19.45.37.67.56,5.33,4.44,9.93,10.89,5.31,16.49-5.03,6.1-11.78,1.34-16.82-2.94-28.26-23.96-56.48-47.97-84.64-72.05-3.82-3.26-7.71-6.11-12.62-7.55-23.51-6.89-46.99-13.9-70.49-20.85-3.61-1.07-8.05-3.09-10.63.21-2.28,2.93.77,6.73,2.42,9.65,17.13,30.29,34.94,59.73,64.92,79.97,17.06,11.52,32.31,25.75,48.19,38.99,4.49,3.74,10.93,7.61,6.58,14.9-2.58,4.32-13.42,3-19.35-1.3-27.84-20.17-55.75-40.25-83.59-60.42-4.14-3-8.65-5.02-13.68-5.35-15.72-1.02-31.45-1.86-47.18-2.63-3.16-.15-7.17-.46-8.78,2.61-1.96,3.75,1.53,6.5,3.84,8.93,9.44,9.94,19.04,19.73,28.62,29.54,3.11,3.18,6.93,5.19,11.03,6.92,22.85,9.63,45.63,19.42,68.47,29.09,2.97,1.26,6.07,2.29,8.21,4.82,2.88,3.4,5.76,7.27,3.68,11.81-2.04,4.45-6.63,2.58-10.23,2.4-10.46-.53-19.62-5.38-29.04-9.23-14.04-5.74-28.27-11.15-41.84-17.88-21.95-10.88-45.36-9.32-68.62-9.61-2.78-.03-6.57-.29-7.58,3.05-.98,3.26,2.32,5.19,4.47,6.93,18.92,15.28,38.11,29.6,63.72,32.25,14.74,1.53,29.22,5.46,43.83,8.26,2.89.55,5.9.94,7.9,3.32,2.74,3.25,7.54,6.32,5.72,10.94-1.64,4.18-6.78,2.17-10.33,2.16-18.46-.07-36.52-3.79-54.67-6.54-18.46-2.8-36.62-3.19-54.1,4.65-3.17,1.42-7.51,2.77-7.98,6.2-.55,3.94,4.24,5.1,7.05,6.73,21.11,12.21,43.64,19.01,68.34,17.93,7.83-.34,15.74.59,23.59,1.17,4.9.36,10.47.19,10.4,7.57-.07,7.47-6,7.23-10.65,7.34-20.12.51-40.27,1.02-60.38.6-12.52-.26-23.38,3.62-34.03,9.44-5.17,2.83-5.51,4.88-.61,8.45,10.31,7.51,21.54,11.4,34.38,10.5,17.45-1.23,34.89-2.6,52.41-2.48,4.51.03,9-1.94,13.55-2.73,6.69-1.17,9.62.91,10.51,8.57,1.95,16.66-3.68,27.94-18.32,36.44-11.79,6.85-22.4,15.78-33.25,24.15-7.35,5.67-10.98,13.46-10.57,22.92.18,4.11,1.76,7.46,5.66,9.11,3.73,1.58,6.66-.21,9.46-2.7,15.92-14.15,31.87-28.26,47.9-42.28,3.06-2.68,6.36-5.16,9.83-7.26,2.65-1.6,5.96-3.62,8.83-.77,2.57,2.56.66,5.64-.75,8.06-4.7,8.05-9.53,16.04-14.59,23.87-6.49,10.03-13.81,19.56-17.65,31.11-1.34,4.01-2.82,8.36,1.33,11.16,4.56,3.07,7.65-1.11,10.38-3.85,19.53-19.57,33.15-42.8,41.69-69,2.97-9.12,2.03-18.47.46-27.75-2.55-15.02-4.33-30.08-.82-45.19,4.22-18.21,14.25-31.76,31.94-38.91,4.47-1.81,9.65-5.24,13.26.65,3.81,6.21-2.12,8.72-5.91,11.56-6.3,4.73-13,8.93-19.17,13.82-14.25,11.3-17.14,24.64-9.34,41.2,8.11,17.22,20.17,23.15,38.19,19.78,21.28-3.97,35.13-14.86,37.56-37.51.85-7.94,5.3-13.13,12.35-16.78,37.6-19.45,78.14-30.7,118.55-42.06,11.3-3.18,23.72-2.58,35.66-3.2,22.43-1.18,44.88-2,67.33-2.92,2.32-.09,4.68.05,6.98.38,10.7,1.55,15.85,6.89,18.35,17.06,2.48,10.09-5.75,12.67-11.28,16.29-13.2,8.63-14.41,15.25-3.56,27.08,15.64,17.07,17.26,21.7,1.85,36.44-17.71,16.94-26.57,37.14-31.1,60.11-1.72,8.73-6.65,11.99-15.13,12.32-22.18.87-44.17,3.69-66.07,7.19-10.47,1.68-14.05,4.77-12.62,11.68,1.92,9.33,8.74,8.53,15.75,7.43,18.15-2.85,36.29-5.79,54.48-8.34,10.6-1.48,11.62-.43,11.54,10.41-.13,17.2.71,34.4-1.7,51.57-1.07,7.66-4.59,10.6-12.02,10.52-16.34-.16-32.65.7-48.95,1.99-15.69,1.25-28.33,8.09-39.26,18.98-19.64,19.56-38.95,39.44-57.69,59.88-3.34,3.64-6.59,7.5-11.25,9.58-3.41,1.52-6.92,3.96-10.71,1.6-3.96-2.47-2.92-6.7-2.56-10.37,1.75-17.71,2.87-35.53,5.74-53.06,2.58-15.77-1.75-27.77-13.69-38.14-10.83-9.41-21.86-18.38-34.31-25.57-6.78-3.92-13.08-4.32-19.4.9-2.92,2.41-6.43,4.12-9.24,6.63-19.25,17.2-41.43,27.89-67.2,30.94-6.8.81-11.5,5.08-15.5,10.46-10.09,13.58-20.4,27.01-30.56,40.54-2.91,3.87-6.34,6.84-11.28,7.63-8.99,1.44-14.77-4.82-12.52-13.64,1.92-7.54,6.8-13.49,10.93-19.83,5.1-7.82,10.47-15.47,15.4-23.39,1.43-2.3,3.36-5.39.88-8.04-2.23-2.38-5.08-.52-7.33.43-13.22,5.59-24.87,14-37.31,21-2.98,1.67-5.52,4.28-10.49,4.72ZM507.94,564.16c12.87-.25,22.86.18,32.58-1.97,5.97-1.32,14.97-.82,15.56-8.45.55-7.12-8.32-7.67-13.65-10.04-9.31-4.15-19.33-6.72-28.09-12.05-4.85-2.94-9.88-7.01-5.6-13.4,15.18-22.7,32.75-41.92,63.16-42.33,8.69-.12,17.37-1.82,26.02-3.07,7.57-1.09,11.62-5.56,10.4-13.33-2.41-15.33-6.04-30.33-14.15-43.83q-7.41-12.35-15.74-.97c-16.46,22.48-34.41,43.47-58.88,57.76-13.87,8.1-26.59,6.7-38.58-3.93-6.23-5.52-10.8-12.17-13.91-19.89-6.29-15.6-6.16-15.59,10.54-17.98,12.97-1.85,25.88-4.21,38.78-6.54,5.81-1.05,8.53-5.02,7.85-10.75-.73-6.13-5.52-5.87-10.03-5.4-15.06,1.57-30.15,2.96-45.16,4.95-10.19,1.35-17.24,7.61-20.03,17.32-9.58,33.29-22.11,65.81-26.27,100.53-1.51,12.64-.6,15.28,11.06,20.24,24.62,10.48,50.78,12.28,74.14,13.13ZM289,426.3c-21.99-1.59-43.51-2.33-64.81,1.82-4.81.94-9.62,2.55-14.05,4.65-6.21,2.94-11.9,6.66-10.05,15.24,1.86,8.61,8.09,10.49,15.68,10.85,10.48.5,20.21-2.3,29.68-6.29,15.69-6.62,30.34-15.02,43.56-26.27Z" fill="#82393c" stroke-width="0"/><path d="M592.04,255.36c16.79-.55,14.02-2.68,20.83,13.17,3.91,9.11,7.63,18.31,11.73,27.33,1.74,3.82,3.6,8.9,9.43,5.92,5.54-2.84,1.21-6.73-.06-9.66-4.52-10.42-9.47-20.64-14.38-30.89-1.91-3.98-1.38-5.93,3.53-5.73,5.24.21,10.5.17,15.75,0,3.64-.12,6.01,1.57,8.02,4.35,6.31,8.75,12.82,17.36,18.99,26.21,4.84,6.94,6.01,14.97,6.36,23.29.31,7.29-2.57,10.63-9.99,10.98-20.1.94-40.17,2.25-60.26,3.42-11.93.69-23.86,1.56-35.8,2.06-22.88.95-42.35,12.38-62.87,20.42-27.14,10.64-54.07,21.85-80.91,33.23-6.6,2.8-10.62,1.74-14.78-4.02-12.46-17.31-12.79-17.77,2.32-32.29,25.06-24.08,51.38-46.62,80.57-65.69,6.25-4.09,9.52-3.36,12.36,3.51,1.99,4.79,4.94,9.22,7.78,13.61,1.1,1.7,3.18,2.86,5.3,1.32,1.63-1.18,1.61-3.08.97-4.78-2.16-5.73-4.28-11.48-6.71-17.09-1.71-3.95-.92-5.79,3.49-6.55,14.94-2.56,29.86-5.26,44.75-8.11,5.15-.99,7.37,1.9,9.47,5.73,4.93,8.94,9.99,17.8,15.08,26.65,1.15,2,2.37,4.13,4.08,5.59,2.19,1.87,5.07,1.55,7.39.05,2.92-1.88.89-4.32-.12-6.13-5.12-9.14-10.48-18.14-15.74-27.21-4.7-8.12-4.66-8.23,4.67-8.64,2.91-.13,5.83-.02,8.74-.02Z" fill="#82393c" stroke-width="0"/><path d="M651.06,214.81c-.63,8.43-1.29,16.85-1.88,25.28-.31,4.45-2.12,5.81-6.1,3.19-5.84-3.85-11.69-7.71-17.56-11.52-2.72-1.76-3.68-4.14-3.62-7.39.15-8.26-3.35-15.18-8.27-21.61-15.47-20.24-35.08-35.78-56.29-49.38-25.54-16.37-51.29-32.41-77.17-48.22-8.92-5.45-14.84-12.3-17.86-22.56-4.44-15.09-10.09-29.83-15.37-44.66-.69-1.95-2.11-3.86-.67-5.69,1.72-2.18,4.22-1.29,6.47-.66.56.16,1.12.32,1.68.5,57.97,17.8,45.82,11.23,67.68,57.41,7.17,15.15,16.62,26.63,30.95,35.41,25.86,15.83,50.92,32.97,76.37,49.47,14.69,9.52,27.45,19.95,21.64,40.43Z" fill="#82393c" stroke-width="0"/><path d="M507.94,564.16c-23.35-.85-49.52-2.65-74.14-13.13-11.66-4.97-12.58-7.61-11.06-20.24,4.16-34.72,16.68-67.25,26.27-100.53,2.8-9.71,9.85-15.97,20.03-17.32,15.01-1.99,30.1-3.38,45.16-4.95,4.5-.47,9.29-.72,10.03,5.4.68,5.73-2.04,9.7-7.85,10.75-12.9,2.33-25.8,4.69-38.78,6.54-16.7,2.38-16.84,2.38-10.54,17.98,3.11,7.71,7.68,14.37,13.91,19.89,11.99,10.63,24.7,12.03,38.58,3.93,24.47-14.29,42.42-35.28,58.88-57.76q8.3-11.34,15.74.97c8.11,13.51,11.74,28.51,14.15,43.83,1.22,7.77-2.83,12.24-10.4,13.33-8.65,1.24-17.33,2.95-26.02,3.07-30.41.4-47.98,19.63-63.16,42.33-4.28,6.39.76,10.46,5.6,13.4,8.76,5.33,18.78,7.9,28.09,12.05,5.33,2.37,14.2,2.92,13.65,10.04-.59,7.64-9.59,7.13-15.56,8.45-9.72,2.15-19.72,1.72-32.58,1.97Z" fill="#f7b937" stroke-width="0"/><path d="M289,426.3c-13.22,11.25-27.86,19.65-43.56,26.27-9.47,3.99-19.21,6.79-29.68,6.29-7.58-.36-13.82-2.24-15.68-10.85-1.85-8.58,3.85-12.3,10.05-15.24,4.43-2.1,9.24-3.71,14.05-4.65,21.3-4.16,42.83-3.41,64.81-1.82Z" fill="#f7b937" stroke-width="0"/></g></svg>