<?xml version="1.0" encoding="UTF-8"?><svg id="b" xmlns="http://www.w3.org/2000/svg" viewBox="0 0 700 543.61"><g id="c"><path d="M0,220.01c2.26-4.14,5.04-7.7,10.16-8.22,2.89-.29,1.95-2.27,1.78-3.73-1.2-10.2-1.3-20.38-.03-30.58,1.04-8.34,2.61-16.57,5.5-24.47,2.68-7.32,9.56-10.38,16.62-7.09,2.99,1.39,3.6.19,4.49-2.07,3.68-9.33,9.13-17.57,15.83-24.99,1.52-1.69,3.23-3.27,5.07-4.6,7.08-5.1,17.03-1.31,18.48,7.31,1.41,8.39,1.36,16.97,3.12,25.37,7.39,35.17,27.31,61.35,57.26,80.42,8.91,5.68,18.37,10.23,28.22,14.06,2.6,1.01,3.68.79,4.21-2.33,2.82-16.67,5.97-33.27,8.77-49.94.5-2.96,1.64-3.77,4.43-3.75,3.79.03,8.41,1.53,11.16-.64,2.65-2.09,1.18-6.89,1.64-10.46,1.57-12.16,4.61-23.88,8.82-35.38,4.58-12.51,4.37-12.63-8.62-12.64q-6.33,0-5.27-6.12c6.76-38.39,13.51-76.79,20.29-115.18C212.38,2.35,212.45-.02,216.65,0c54.52.22,109.03-.12,163.55.4,19.14.18,37.98,3.54,54.98,13.36,21.88,12.65,33.1,32.26,34.66,56.9,1.77,27.95-3.89,54.61-18.1,79.09-1.06,1.83-.99,3.26-.25,5.11,3.23,8.13,5.31,16.56,5.62,25.32.12,3.33,2,3.09,4.22,3.08,15.73-.03,31.46.15,47.18-.12,4.48-.08,4.96,1.28,4.16,5.25-1.81,8.95-3.02,18.02-4.69,27.01-.51,2.76.63,3.12,2.86,3.07,3.97-.08,7.95-.18,11.91.03,2.83.15,3.68-1.26,4.09-3.7,1.54-9.01,3.3-17.98,4.73-27,.55-3.44,1.8-4.66,5.54-4.65,52.84.15,105.67.14,158.51.01,4.13,0,4.82,1.26,4.15,5.02-7.01,39.12-13.93,78.27-20.75,117.43-.53,3.06-1.72,4.1-4.76,3.97-4.88-.21-9.78.13-14.65-.13-3.11-.17-4.47.93-5.59,3.86-16.91,44.12-33.97,88.18-50.98,132.26-5.65,14.65-11.38,29.26-16.79,44-1.45,3.95-3.48,5.14-7.67,5.13-62.3-.15-124.61-.08-186.91-.18-3.59,0-5.69.42-6.83,4.49-1.39,4.94-3.97,9.55-6.06,14.3-2.24,5.1-6.16,7.86-11.74,7.98-2.17.05-3.09.05-2.52,2.96,1.65,8.41-1.98,13.66-10.38,15.99-22.5,6.23-18.51,4.18-34.44-9.46-4.59-3.93-4.45-9.96-5.06-15.28-.53-4.6-2.04-3.76-4.98-2.32-13.83,6.77-28.2,9.73-43.43,5.45-4.29-1.21-8.47-2.83-11.3-6.53-1.39-1.82-2.9-1.78-4.83-1.3-3.4.84-6.82,1.65-10.27,2.18-3.94.61-8.12,1.16-11.31-1.91-2.51-2.41-3.75-1.69-5.58.77-8.19,11.01-18.8,18.57-32.28,21.87-4.86,1.19-9.43,1.04-13.27-2.57-1.13-1.07-2.14-1.27-3.66-1.04-7.47,1.14-14.93.51-22.33-.69-4.25-.69-7.89-2.71-9.44-7.03-.85-2.37-2.31-2.69-4.51-2.7-10.68-.05-20.33-3.5-29.26-9.2-3.78-2.41-5.95-5.79-5.58-10.29.22-2.65-.94-3.72-3.07-4.79-8.42-4.21-14.99-10.39-19.42-18.78-2.05-3.87-2.66-7.82-.41-11.76.97-1.71.72-3-.22-4.61-1.55-2.62-2.94-5.34-4.17-8.12-1.99-4.48-1.21-8.78,1.89-12.41,3.08-3.62,7.15-4.95,11.95-3.9,18.62,4.06,35.12-1.45,51.56-11.58-9.11-3.02-17.24-6.29-24.65-11.01-20.65-13.16-36.51-30.76-48.21-52.2-2.36-4.32-6.45-7.88-5.75-13.57.09-.71-1.17-1.69-1.95-2.38-11.2-9.99-19.64-22.05-26.51-35.29-2.06-3.96-3.09-8.11-.73-12.2,1.46-2.53.19-3.76-1.34-5.39-13.27-14.12-23.05-30.28-28.58-48.94-1.11-3.75-1.08-7.79-2.97-11.33v-11.91ZM189.53,247.38c1.7.94,3.4,1.88,5.63,3.12-.65-4.71,3.78-7.3,3.48-11.04-.72-8.92-2.1-17.79-3.21-26.67-.06-3.95-.04-7.9-.21-11.84-.07-1.55,1.02-3.68-2.16-3.97-3-.27-3.47,1.24-3.87,3.57-2.07,12.1-4.16,24.2-6.41,36.27-1.56,8.4-1.68,8.38,6.74,10.56ZM360.33,451.79c6.86-2.9,13.75-5.58,21.35-2.74,1.38,3.66,4.98,4.65,7.86,6.52,3.82,2.72,7.61,5.49,11.47,8.16,3.9,2.7,6.14,6.22,5.93,11.08.36,2.87-1.09,5.26-2.31,8.02,1.14.07,2,.18,2.86.18,55.12,0,110.24-.03,165.36.1,3.28,0,4-1.63,4.93-4.03,22.54-58.61,45.19-117.17,67.61-175.83,1.64-4.29,3.65-6.04,8.19-5.42,3,.41,6.17-.33,9.13.17,5.01.85,6.84-1.41,7.02-5.94.02-.46.07-.92.14-1.36,5.37-30.39,10.7-60.8,16.19-91.17.67-3.69.2-5.08-4.01-5.04-21.07.2-42.14.09-63.21.09-24.28,0-48.55.07-72.83-.08-3.18-.02-4.46.75-4.96,4.02-1.46,9.47-3.43,18.85-4.9,28.32-.4,2.57-1.29,3.28-3.74,3.26-11.76-.09-23.51-.07-35.27-.02-2.24.01-3.18-.18-2.6-3.02,1.85-9.08,3.04-18.31,4.98-27.37.92-4.3-.02-5.3-4.37-5.22-15.26.26-30.53.12-45.8.08-1.8,0-3.83.78-3.61-2.83.81-13.27-1.01-26.14-7.62-37.95-1.05-1.87-.92-3.14.27-4.91,15.93-23.66,21.72-50.11,19.79-78.14-1.8-26.24-16.16-43.52-40.8-52.49-15.59-5.68-31.89-6.67-48.16-6.79-47.63-.33-95.27-.09-142.91-.19-2.92,0-4.05.99-4.52,3.68-5.74,33.1-11.54,66.19-17.41,99.78,7.74-.65,16.02,2.6,21.95-5.28,1.2-1.59,3.37-1.99,5.22-2.7,10.37-.64,16.61,6.31,13.74,16.12-3.36,11.47-5.53,23.12-6.65,34.96-.91,9.65-1.95,19.33-1.48,29.07-.07,6.1.55,12.12,2.03,18.05,7.48,29.91,25.41,51.62,52.1,66.47,6.62,6.23,13.33,12.38,19.28,19.29q3.36,8.16,11.56,8.16c6.09,0,12.2.35,18.25-.15,4.44-.37,5.72,1.24,5.8,5.34.22,10.63.66,21.26,1.08,31.89.32,8.08-1.89,7.67,8.36,9.14,7.31,2.28,14.61,4.56,21.92,6.84,8.26,3.22,16.88,6.3,22.51,13.38,4.81,6.04,10.64,9.6,17.44,12.87,15.3,7.36,17.98,23.67,6.84,36.54-5.73,6.61-14.57,7.7-21.37,12.42-2.05,1.42-4.74.24-7.09-.37-3.68-.96-7.34-1.97-11.02-2.94-1.46-.38-2.96-.94-4.28.39-.45-1.35-1.52-1.55-2.78-1.84-6.19-1.42-12.52-1.69-18.78-2.53-.91.04-1.85.24-2.73.09-4.37-.74-5.86.84-5.46,5.37.65,7.41.7,14.87,1.01,22.31.11,2.52-.85,6.47.89,7.19,2.32.97,5.25-1.33,7.58-3.01ZM88.38,447.76c-.34-.36-.7-.47-1.08-.06.2.17.4.34.6.51,2.31,7.56,7.84,12.65,14.12,17.61-3.05,1.2-5.52,2.38-8.12,3.14-2.65.78-2.57,1.99-1.26,3.94,3.93,5.88,9.19,10.09,15.67,12.85,8.19,3.49,16.82,4.25,26.84,4.05-7.24,3.66-13.4,6.77-20.16,10.19,16.34,9.91,32.27,10.35,49.64.71-3.75,5.55-6.71,9.88-9.62,14.25-.73,1.1-1.92,2.5.73,2.78,11.82,1.26,23.52,1.78,33.5-6.4,2.32-1.91,2.82-1.17,3.32,1.36.78,3.92-2.72,5.8-3.78,8.81-.38.04-.76.08-1.15.12.07.16.15.32.22.48.29-.22.59-.43.88-.65,6.23-.38,11.2-3.66,15.96-7.2,10.07-7.47,15.62-17.99,19.34-29.85,2.11,6.96,7.91,10.9,11.84,16.21.29.39,1.12.69,1.61.59,8.14-1.65,16.27-3.36,25.86-5.37-4.45-3.84-7.97-6.87-11.48-9.9l.75-.89c5.27,2.27,10.55,4.54,15.82,6.81,5.54,2.39,6.24,6.58,1.78,11.07-.97.98-2.19,1.7-3.56,2.74,14.86,5.67,28.28,2.07,41.19-4.72,4.14-2.18,8.3-3.81,12.94-3.95,3.32-.1,6.11-1.75,6.65-4.54.68-3.5,3.3-7.16-.48-11.04-7.03-7.21-11.55-16.01-14.07-25.8-5.45-21.14,9.74-43.76,31.39-46.93,16.34-2.39,32.15.41,47.92,4.27,2.98.73,5.84,2.37,9.1,1.99.19-2.34-1.66-2.6-2.88-3.29-4.37-2.48-8.76-4.94-13.25-7.2-2.33-1.18-2.91-3.43-2.81-5.31.14-2.4,2.67-1.1,4.12-1.36,2.69-.49,5.44-.91,8.17-.91,5.59,0,10.64,2.45,15.74,4.29,2.63.95,1.74,4.62,2.9,6.87.11.21.39.32.6.47,9.21-7.48,8.33-15.86-2.3-20.8-4.42-2.05-9.01-3.68-14-3.74q.82-2.32-.23-4.3c-3.6-6.82-9.35-11.27-16.34-13.98-28.22-10.98-57.44-16.65-87.89-16.11,3.09-2.89,7.21-3.5,11.14-4.39,2.37-.54,3.68-1.61,4.18-4.04,3.51-17.16,1.19-33.09-10.07-47.01-8.27-10.23-19.59-16.84-29.87-24.7-27.87-21.29-41.86-50.18-42.55-84.7-.43-21.54,2.14-43.18,8.26-64.12.02-.39.05-.77.07-1.16-.31.15-.63.29-.94.44-1.23,1.12-2.58,2.13-3.68,3.36-8.14,9.04-13,19.83-16.21,31.39-8.06,29.02-6.16,58.24-1.37,87.48,1.01,6.16,2.21,12.3,3.33,18.44-.25.08-.49.16-.74.23-2.01-3.39-4.03-6.79-6.04-10.18-.44,27.55,3.91,53.29,25.1,74.05-9.03-2.21-15.4-6.92-20.82-14.44-.67,23.59,12.88,40.05,34.7,43.79,2.53.43,5.45.02,7.58,2.22-21.53,4.13-36.57-3.53-44.47-22.64-3.59-8.69-4.91-17.84-5.53-27.16-.39-5.92.57-11.88-.84-17.76-3.83-16-8.71-30.14-28.93-32.54-11.81-1.41-22.78-7.49-33.35-13.31-41.31-22.74-67.18-56.4-73.63-103.92-.63-4.67.05-9.58-1.98-14.62-8.07,7.87-13.39,16.76-17.18,26.7-3.81,10-4.82,20.44-4.93,31.77-7.82-7.47-11.39-16.39-14.84-26.43-9.19,30.79-7.71,59.63,7.78,87.4-9.2-4.66-17.89-9.65-24.67-18.74,1.14,11.04,4.03,20.45,8.27,29.46,10.99,23.39,29.1,40.16,51.71,54.31-10.4.26-19.02-1.35-27.39-5.1,12.81,24.47,29.81,44.04,58.17,50.72-9.09.26-17.74-1.55-26.49-3.86,21.11,37.24,48.12,65.64,95.15,65.14-3.41,1.81-5.97,4.15-8.6,6.45-21.51,18.8-45.47,30.57-75.1,25.66ZM362.71,525.41c-6.91-3.48-12.69-6.47-18.54-9.31-2.48-1.21-3.55-3.47-1.39-4.85,4.45-2.85,6.29-6.46,6.65-11.6.16-2.28,2.47-4.58,4.93-4.66,2.35-.07,1.91,2.7,2.27,4.38,1.53,7.13,2.99,14.27,4.67,22.34,4.2-9.62,7.73-18.52,11.97-27.07,2.08-4.2,2.5-7.03-2.07-9.51-1.15-.62-3.56-1.32-2.34-3.67,1.02-1.96,1.77-4.02,4.83-4.04,6.85-.04,13.7-.52,20.55-.85,1.2-.06,2.54.25,3.92-.94-9.56-5.57-18.87-10.75-27.9-16.38-3.68-2.29-5.97-2.75-8.65,1.36-6.23,9.55-14.5,16.66-25.9,19.44-2.04.5-3.13,1.6-3.17,3.81-.13,7.82-3.95,13.41-10.56,17.32-1.17.69-2.17,1.68-3.24,2.53-1,.79-1.46,1.6-1.32,3.09.83,8.7,2.67,16.79,11.05,21.64,1.16.67,2.2,1.68,3.07,2.72,1.4,1.66,3.03,1.77,4.94,1.26,8.36-2.24,16.72-4.45,26.25-6.98ZM339.01,422.92c-.55.04-.9-.04-1.13.09-8.61,4.85-14.8,11.97-15.11,21.92-.37,11.98,5.46,21.96,13.77,30.32,1.77,1.78,5.09-.3,4.99-2.87-.54-14.13-1.09-28.27-1.71-42.4-.1-2.37-.54-4.72-.82-7.08ZM335.69,329.1c-.13,0-.26,0-.39,0,0-2.28.16-4.57-.03-6.84-1.26-14.9,1.85-11.07-12.49-11.7-2.7-.12-3.41.88-3.02,3.47.67,4.5,1.4,9.03,1.45,13.56.04,3.6-1.97,8.11-.07,10.61,2.1,2.76,7.1,1.42,10.73,2.39.29.08.6.12.89.19,2.6.58,3.52-.08,3.03-3.03-.47-2.81-.1-5.76-.1-8.65Z" fill="#b6a579" stroke-width="0"/><path d="M389.54,455.57c-2.87-1.87-6.47-2.85-7.86-6.52-.36-8.28-.73-16.57-1.09-24.85,1.32-1.33,2.81-.77,4.28-.39,3.67.97,7.34,1.98,11.02,2.94,2.35.61,5.04,1.79,7.09.37,6.8-4.72,15.65-5.81,21.37-12.42,11.14-12.87,8.46-29.18-6.84-36.54-6.8-3.27-12.64-6.83-17.44-12.87-5.63-7.08-14.25-10.17-22.51-13.38-1-25.69-2.03-51.38-2.95-77.08-.1-2.76-1.02-3.58-3.78-3.56-26.51.12-53.01.11-79.52.14-26.69-14.85-44.62-36.56-52.1-66.47-1.48-5.94-2.1-11.95-2.03-18.05,5.73-32.23,11.44-64.47,17.25-96.68.44-2.41.17-3.32-2.5-3.18-3.81.2-7.64-.04-11.45.08-2.23.07-3.32-.21-2.81-2.98,2.52-13.63,4.86-27.28,7.22-40.94.48-2.78,1.17-4.41,4.79-4.37,41.68.37,83.36-.39,125.03.53,12.68.28,25.28,1.29,37.15,6.39,11.44,4.91,17.53,13.69,18.83,25.96,1.63,15.32-1.5,30.02-6.12,44.46-5.64,17.6-17.13,29.17-35.46,33.37-.74.17-1.49.37-1.39,1.4,1.32.35,2.64.69,3.97,1.04,17.87,4.77,24.92,13.11,26.38,31.43.93,11.7-1.31,23.08-4.15,34.29-.97,3.84-.33,4.59,3.48,4.55,16.03-.18,32.07-.05,48.1-.1,2.41,0,4.16-.04,3.52,3.33-2.41,12.72-4.8,25.44-6.83,38.22-.53,3.31-1.9,3.83-4.76,3.73-5.49-.18-10.99.02-16.49-.09-2.2-.04-3.33.35-3.28,2.95.08,4.87-.31,9.75-.32,14.63-.04,20.14.15,40.29-.09,60.43-.11,9.56.57,19.17-.99,28.7-.23,1.4-.71,3.23.99,4.59.35-.57.65-.91.79-1.31,13.87-39.17,30.74-77.14,46.05-115.73,1.16-2.92,2.52-4.14,5.88-4.08,14.66.23,29.32.21,43.98.01,3.3-.04,4.45.79,4.63,4.17,1.41,26.03,3.24,52.04,4.41,78.08.6,13.45.11,26.94.11,40.42,1.47-.83,1.94-1.73,2.25-2.69,3.43-10.4,6.67-20.86,10.27-31.21,8.64-24.85,17.39-49.65,26.25-74.42,1.27-3.54.98-4.81-3.15-4.57-5.48.31-10.99,0-16.49.11-2.43.05-3.07-.51-2.58-3.16,2.43-13.02,4.62-26.09,6.82-39.15.37-2.21,1.36-2.97,3.64-2.97,27.49.07,54.97.06,82.46.02,2.37,0,3.51.1,2.9,3.26-2.25,11.51-4.02,23.11-6.06,34.66-1.82,10.27-1.89,10.57-12.45,10.13-4.98-.21-6.84,1.57-8.57,6.1-22.37,58.54-45.01,116.99-67.53,175.47-.89,2.31-1.66,3.76-4.69,3.73-19.24-.17-38.48-.15-57.72-.02-2.87.02-3.54-.85-3.58-3.62-.19-11.58-.58-23.17-1.05-34.74-1.1-27.28-2.38-54.56-1.81-81.88.3-.97.66-2.45-.24-2.68-1.03-.26-.73,1.2-.84,1.98-13.46,39.63-29.84,78.13-44.94,117.13-1.1,2.85-2.44,3.86-5.59,3.83-16.94-.13-33.89.03-50.83.1ZM290.63,228.26c14.05,0,27.75-.07,41.46.03,9.2.07,15.68-4.08,19.8-12.15,4.38-8.6,6.24-17.91,6.03-27.37-.23-10.69-3.3-18.25-18.26-17.69-11.42.43-22.88.34-34.3-.05-4.1-.14-5.06,1.45-5.65,4.92-2.89,17.25-5.96,34.46-9.08,52.32ZM328.49,135.1c5.33,0,10.67-.09,16,.02,8.71.17,14.79-3.89,18.71-11.43,4.09-7.85,5.69-16.38,5.78-25.09.11-10.33-4.84-15.03-15.18-15.09-11.43-.06-22.86.11-34.28-.1-2.79-.05-3.67.94-4.08,3.41-2.55,15.14-5.08,30.28-7.91,45.36-.56,2.98.58,2.96,2.68,2.94,6.09-.06,12.19-.02,18.29-.02Z" fill="#84112e" stroke-width="0"/><path d="M188.8,521.49c1.05-3.01,4.55-4.89,3.77-8.81-.5-2.52-1-3.26-3.32-1.36-9.97,8.18-21.68,7.66-33.5,6.4-2.65-.28-1.46-1.68-.73-2.78,2.9-4.37,5.86-8.7,9.62-14.25-17.37,9.65-33.3,9.2-49.64-.71,6.75-3.41,12.92-6.53,20.16-10.19-10.02.2-18.65-.56-26.84-4.05-6.48-2.76-11.74-6.97-15.67-12.85-1.3-1.95-1.39-3.17,1.26-3.94,2.59-.76,5.06-1.94,8.12-3.14-6.28-4.95-11.8-10.05-14.12-17.61.17-.15.33-.3.48-.46,29.63,4.91,53.58-6.86,75.1-25.66,2.64-2.3,5.2-4.63,8.6-6.45-47.03.5-74.03-27.9-95.15-65.14,8.75,2.31,17.4,4.12,26.49,3.86-28.36-6.68-45.36-26.25-58.17-50.72,8.36,3.75,16.99,5.36,27.39,5.1-22.6-14.14-40.71-30.92-51.71-54.31-4.24-9.01-7.13-18.42-8.27-29.46,6.78,9.09,15.46,14.08,24.67,18.74-15.49-27.76-16.97-56.61-7.78-87.4,3.45,10.04,7.01,18.96,14.84,26.43.11-11.33,1.12-21.78,4.93-31.77,3.79-9.94,9.11-18.84,17.18-26.7,2.02,5.04,1.34,9.95,1.98,14.62,6.45,47.51,32.32,81.17,73.63,103.92,10.57,5.82,21.54,11.9,33.35,13.31,20.22,2.41,25.1,16.55,28.93,32.54,1.41,5.88.45,11.85.84,17.76.62,9.32,1.94,18.47,5.53,27.16,7.9,19.11,22.94,26.77,44.47,22.64-2.14-2.2-5.05-1.79-7.58-2.22-21.82-3.75-35.37-20.21-34.7-43.79,5.42,7.52,11.78,12.23,20.82,14.44-21.18-20.76-25.53-46.51-25.1-74.05,2.01,3.39,4.03,6.79,6.04,10.18.25-.08.49-.16.74-.23-1.12-6.15-2.32-12.28-3.33-18.44-4.78-29.24-6.69-58.45,1.37-87.48,3.21-11.56,8.08-22.35,16.21-31.39,1.11-1.23,2.45-2.25,3.68-3.36.29.24.58.48.87.72-6.13,20.94-8.7,42.57-8.27,64.12.69,34.52,14.69,63.41,42.55,84.7,10.29,7.86,21.6,14.47,29.87,24.7,11.25,13.92,13.58,29.86,10.07,47.01-.5,2.43-1.8,3.5-4.18,4.04-3.93.89-8.05,1.5-11.14,4.39,30.45-.54,59.67,5.12,87.89,16.11,6.98,2.72,12.74,7.17,16.34,13.98q1.05,1.99.23,4.3c4.99.06,9.59,1.68,14,3.74,10.63,4.94,11.51,13.32,2.3,20.8-.2-.16-.49-.27-.6-.48-1.16-2.25-.27-5.92-2.9-6.87-5.1-1.84-10.16-4.28-15.74-4.29-2.73,0-5.48.42-8.17.91-1.45.26-3.98-1.04-4.12,1.36-.11,1.89.47,4.14,2.81,5.31,4.49,2.26,8.88,4.72,13.25,7.2,1.21.69,3.07.95,2.88,3.29-3.26.38-6.12-1.26-9.1-1.99-15.77-3.86-31.58-6.67-47.92-4.27-21.65,3.17-36.84,25.78-31.39,46.93,2.52,9.78,7.04,18.58,14.07,25.8,3.78,3.88,1.16,7.53.48,11.04-.54,2.8-3.33,4.45-6.65,4.54-4.64.13-8.8,1.77-12.94,3.95-12.91,6.79-26.32,10.39-41.19,4.72,1.37-1.04,2.59-1.77,3.56-2.74,4.46-4.49,3.76-8.68-1.78-11.07-5.27-2.27-10.55-4.54-15.82-6.81l-.75.89c3.51,3.03,7.02,6.05,11.48,9.9-9.59,2-17.72,3.72-25.86,5.37-.49.1-1.32-.2-1.61-.59-3.93-5.31-9.74-9.26-11.84-16.21-3.73,11.86-9.28,22.38-19.34,29.85-4.76,3.53-9.73,6.82-15.96,7.2l.04.05ZM373.73,386.51c-3.34,1.6-5.73-.63-6.16-3.02-.8-4.43-3.68-6.04-7.8-7.25,2.27-.8,3.8-.32,5.42.11,6.91,1.81,13.86,3.5,20.8,5.2.92.23,2.08,1.32,2.75-.1.51-1.07-.37-2.03-1.15-2.77-2.23-2.13-4.88-3.65-7.69-4.84-27.16-11.55-55.64-16.35-85.01-16.58-2.28-.02-2.79.75-2.79,2.89.02,6.1,3.93,9.23,9.36,11.74-3.02.38-5.29.9-7.55.89-2.83-.01-2.88,1.29-2.24,3.43,1.73,5.8,5.3,9.68,12.08,10.88-2.12.93-3.45,1.77-4.9,2.11-3.69.85-3.24,2.64-1.55,5.14,2.23,3.29,5.28,5.09,9.76,5.56-2.57,1.39-4.55,2.46-6.66,3.59,1.87,2.92,4.33,4.86,7.11,6.44,4.37,2.49,8.29,3,13.02-.22,9.96-6.79,21.46-9.67,33.39-9.03,12.76.68,22.17-5.1,30.65-13.5.79-.78,2.02-1.45,1.62-2.75-3.27-1.36-6.87-.2-9.94-2.12-.93-.58-2.22-.27-2.86.73-.73,1.15-1.29,2.48.32,3.51h0ZM179.51,482.87c.18.19.37.37.58.53-4.62,9.16-9.24,18.32-14.01,27.76,11.27,1.12,20.04-2.82,27.24-10.33,2.52-2.64,3.75-2.05,5.3.62,1.74,3,1.94,6.17.64,10.61,2.04-1.86,3.22-2.77,4.2-3.85,11.85-13.07,16.69-29.07,19.35-46.03.4-2.57-1.34-3.01-2.84-3.94-16.52-10.21-33.6-19.81-42.39-38.47-18.84,23.39-43.19,35.53-73.57,36.86,4.42,4.08,9.32,6,14.26,8.66-5.36,2.38-10.35,4.59-16.23,7.2,16.34,15.3,35.94,11.63,55.4,11.66-8.55,4.92-16.48,9.5-24.82,14.3.92.53,1.25.8,1.63.92,9.78,3.27,18.54.33,27.08-4.33,6.44-3.51,11.93-8.4,18.18-12.17ZM253.93,493.69c-3.68-2.53-6.32-4.55-9.15-6.24-3.76-2.25-.68-5.19-.97-7.77-.21-1.9.25-3.67,2.69-4.03,3.69-.53,5.62-2.89,6.06-6.42.71-5.64,6.28-6.55,9.4-9.82.21-.22,1.13.05,1.61.31,3.34,1.79,6.69,3.42,6.23,8.29-.25,2.58.42,5.24.76,8.77,2.69-4.42,4.8-8.08,7.11-11.6,1.03-1.57.94-2.57-.42-3.89-3.51-3.39-6.83-6.98-10.3-10.4-2.99-2.95-19.01.65-19.9,4.74-1.54,7.11-5.4,11.83-12,14.76-1.86.83-4.99,1.37-4.87,4.1.18,4.24-.63,8.47,2.26,12.64,4.51,6.5,9.64,9.63,17.49,6.94.84-.29,1.81-.19,4-.37ZM293.19,446.14c-2.71-2.13-4.82-3.79-6.94-5.44q-6.98-5.44-13.44.52c-4.91,4.52-4.84,4.45.05,9.27,1.34,1.32,2.18,1.6,2.98-.11,2.42-5.23,6.58-5.36,11.39-4.29,1.59.36,3.33.06,5.97.06Z" fill="#262323" stroke-width="0"/><path d="M491.99,335.21c-.56,27.32.71,54.59,1.81,81.88.47,11.58.86,23.16,1.05,34.74.05,2.77.72,3.64,3.58,3.62,19.24-.12,38.48-.15,57.72.02,3.03.03,3.8-1.43,4.69-3.73,22.52-58.49,45.16-116.93,67.53-175.47,1.73-4.53,3.59-6.3,8.57-6.1,10.56.44,10.63.14,12.45-10.13,2.05-11.55,3.82-23.15,6.06-34.66.62-3.15-.52-3.26-2.9-3.26-27.49.04-54.97.05-82.46-.02-2.29,0-3.27.76-3.64,2.97-2.2,13.06-4.39,26.13-6.82,39.15-.49,2.65.15,3.21,2.58,3.16,5.5-.11,11.01.2,16.49-.11,4.13-.24,4.42,1.03,3.15,4.57-8.86,24.77-17.6,49.58-26.25,74.42-3.6,10.34-6.84,20.8-10.27,31.21-.32.96-.79,1.86-2.25,2.69,0-13.47.5-26.97-.11-40.42-1.16-26.04-3-52.05-4.41-78.08-.18-3.38-1.33-4.21-4.63-4.17-14.66.2-29.32.21-43.98-.01-3.36-.05-4.72,1.17-5.88,4.08-15.32,38.59-32.18,76.57-46.05,115.73-.14.4-.44.74-.79,1.31-1.7-1.35-1.22-3.19-.99-4.59,1.56-9.53.88-19.14.99-28.7.24-20.14.05-40.29.09-60.43.01-4.88.4-9.75.32-14.63-.05-2.6,1.09-2.99,3.28-2.95,5.5.11,11-.09,16.49.09,2.86.1,4.23-.42,4.76-3.73,2.03-12.78,4.42-25.51,6.83-38.22.64-3.37-1.11-3.34-3.52-3.33-16.03.06-32.07-.07-48.1.1-3.81.04-4.45-.7-3.48-4.55,2.84-11.22,5.08-22.6,4.15-34.29-1.46-18.32-8.5-26.66-26.38-31.43-1.32-.35-2.65-.69-3.97-1.04-.11-1.03.64-1.23,1.39-1.4,18.33-4.21,29.82-15.78,35.46-33.37,4.63-14.44,7.75-29.13,6.12-44.46-1.3-12.26-7.39-21.04-18.83-25.96-11.87-5.1-24.48-6.11-37.15-6.39-41.67-.92-83.36-.16-125.03-.53-3.63-.03-4.31,1.59-4.79,4.37-2.35,13.66-4.7,27.31-7.22,40.94-.51,2.77.59,3.05,2.81,2.98,3.81-.12,7.64.12,11.45-.08,2.67-.14,2.93.77,2.5,3.18-5.81,32.22-11.52,64.45-17.25,96.68-.47-9.74.56-19.42,1.48-29.07,1.12-11.83,3.29-23.49,6.65-34.96,2.88-9.81-3.36-16.77-13.74-16.12-4.88-.11-9.75-.29-14.62-.3-1.85,0-2.79-.23-2.39-2.48,4.76-26.45,9.55-52.9,14.04-79.4.67-3.95,2.19-4.61,5.8-4.6,46.26.12,92.52.07,138.78.09,11.75,0,23.43.99,34.82,3.97,19.1,4.99,33.64,15.42,39.78,35.04,3.85,12.32,3.26,24.93,1.22,37.51-3.1,19.1-8.11,37.45-21.29,52.44-1.29,1.46-1.17,2.18-.07,3.68,3.61,4.94,6.09,10.43,7.72,16.38,2.7,9.86,2.42,19.86,1.55,29.85-.29,3.27.27,3.99,3.54,3.95,15.42-.18,30.84,0,46.26-.15,3.2-.03,3.74.69,3.08,3.86-1.91,9.21-3.37,18.52-5.01,27.79-.43,2.42-.64,4.07,3.04,4.02,17.1-.23,34.2-.19,51.3-.01,2.83.03,3.74-1.07,4.14-3.45,1.56-9.29,3.3-18.55,4.65-27.87.49-3.41,1.76-4.38,5.22-4.37,39.39.13,78.78.08,118.17.09,5.85,0,5.79,0,4.79,5.56-2.44,13.6-4.83,27.21-7.23,40.82-2.16,12.27-4.37,24.52-6.44,36.81-.49,2.89-1.67,4.01-4.73,3.76-3.94-.32-7.96.2-11.9-.16-3.23-.29-4.33,1.06-5.41,3.86-22.53,58.73-45.21,117.41-67.7,176.15-1.52,3.98-3.4,5.27-7.73,5.26-52.67-.15-105.35-.05-158.02-.02.21-4.86-2.03-8.39-5.93-11.08-3.86-2.67-7.65-5.43-11.47-8.16,16.95-.06,33.89-.23,50.83-.1,3.16.02,4.49-.99,5.59-3.83,15.09-39,31.48-77.5,44.94-117.13.36.23.72.46,1.08.7Z" fill="#fdfcfb" stroke-width="0"/><path d="M406.94,474.81c52.67-.03,105.35-.13,158.02.02,4.33.01,6.21-1.28,7.73-5.26,22.49-58.75,45.17-117.42,67.7-176.15,1.07-2.8,2.18-4.16,5.41-3.86,3.94.36,7.95-.15,11.9.16,3.06.25,4.25-.88,4.73-3.76,2.07-12.28,4.27-24.54,6.44-36.81,2.4-13.61,4.79-27.22,7.23-40.82,1-5.57,1.06-5.56-4.79-5.56-39.39,0-78.78.05-118.17-.09-3.46-.01-4.72.96-5.22,4.37-1.35,9.32-3.09,18.58-4.65,27.87-.4,2.38-1.31,3.48-4.14,3.45-17.1-.18-34.2-.22-51.3.01-3.68.05-3.47-1.6-3.04-4.02,1.64-9.27,3.1-18.58,5.01-27.79.66-3.18.12-3.89-3.08-3.86-15.42.15-30.84-.03-46.26.15-3.26.04-3.82-.68-3.54-3.95.87-9.99,1.14-19.99-1.55-29.85-1.63-5.95-4.12-11.44-7.72-16.38-1.1-1.5-1.22-2.22.07-3.68,13.18-14.99,18.19-33.34,21.29-52.44,2.04-12.58,2.62-25.19-1.22-37.51-6.13-19.63-20.68-30.05-39.78-35.04-11.4-2.98-23.07-3.97-34.82-3.97-46.26-.01-92.52.04-138.78-.09-3.61,0-5.13.66-5.8,4.6-4.48,26.5-9.28,52.95-14.04,79.4-.41,2.26.53,2.48,2.39,2.48,4.87,0,9.75.19,14.62.3-1.85.71-4.02,1.11-5.22,2.7-5.93,7.89-14.21,4.64-21.95,5.28,5.87-33.59,11.67-66.68,17.41-99.78.47-2.7,1.6-3.69,4.52-3.68,47.64.1,95.28-.14,142.91.19,16.26.11,32.56,1.11,48.16,6.79,24.64,8.98,38.99,26.26,40.8,52.49,1.93,28.02-3.86,54.47-19.79,78.14-1.19,1.77-1.32,3.04-.27,4.91,6.61,11.81,8.43,24.68,7.62,37.95-.22,3.61,1.81,2.82,3.61,2.83,15.27.04,30.54.18,45.8-.08,4.35-.08,5.29.92,4.37,5.22-1.94,9.06-3.13,18.29-4.98,27.37-.58,2.84.37,3.03,2.6,3.02,11.76-.06,23.51-.08,35.27.02,2.45.02,3.34-.69,3.74-3.26,1.47-9.47,3.45-18.85,4.9-28.32.5-3.27,1.78-4.04,4.96-4.02,24.28.14,48.55.08,72.83.08,21.07,0,42.14.11,63.21-.09,4.21-.04,4.68,1.35,4.01,5.04-5.49,30.37-10.82,60.78-16.19,91.17-.08.45-.13.91-.14,1.36-.18,4.53-2.01,6.79-7.02,5.94-2.97-.5-6.14.24-9.13-.17-4.54-.61-6.55,1.13-8.19,5.42-22.42,58.65-45.07,117.22-67.61,175.83-.92,2.4-1.65,4.04-4.93,4.03-55.12-.13-110.24-.09-165.36-.1-.86,0-1.72-.1-2.86-.18,1.22-2.76,2.67-5.15,2.31-8.02Z" fill="#2b2828" stroke-width="0"/><path d="M291.32,271.4c26.51-.03,53.01-.02,79.52-.14,2.76-.01,3.68.81,3.78,3.56.92,25.7,1.95,51.39,2.95,77.08-7.31-2.28-14.61-4.56-21.92-6.84.01-17.3-1.14-34.55-1.85-51.83-.1-2.36-1.02-2.67-3.01-2.65-13.39.09-26.79.09-40.19.11-5.94-6.91-12.65-13.06-19.28-19.29Z" fill="#fdfcfb" stroke-width="0"/><path d="M362.71,525.41c-9.53,2.53-17.89,4.74-26.25,6.98-1.91.51-3.54.39-4.94-1.26-.88-1.04-1.91-2.05-3.07-2.72-8.37-4.85-10.21-12.94-11.05-21.64-.14-1.49.31-2.3,1.32-3.09,1.08-.85,2.07-1.84,3.24-2.53,6.61-3.91,10.44-9.5,10.56-17.32.04-2.21,1.12-3.31,3.17-3.81,11.4-2.79,19.67-9.89,25.9-19.44,2.68-4.11,4.98-3.65,8.65-1.36,9.03,5.63,18.34,10.81,27.9,16.38-1.37,1.19-2.72.89-3.92.94-6.85.34-13.7.81-20.55.85-3.06.02-3.81,2.08-4.83,4.04-1.22,2.36,1.19,3.05,2.34,3.67,4.57,2.48,4.15,5.31,2.07,9.51-4.23,8.55-7.77,17.45-11.97,27.07-1.68-8.07-3.14-15.21-4.67-22.34-.36-1.68.09-4.45-2.27-4.38-2.46.08-4.77,2.38-4.93,4.66-.36,5.14-2.2,8.75-6.65,11.6-2.16,1.39-1.09,3.65,1.39,4.85,5.85,2.84,11.63,5.83,18.54,9.31ZM364.03,505.1c1.7-3.83,2.74-6.87,4.33-9.58,2.22-3.77,1.21-5.73-1.88-8.92-7.8-8.06-15.67-9.29-25.11-3.45-1.96,1.22-3.48,2.06-3.5,4.59-.07,6.83-3.48,11.64-9.24,15.03-1.3.76-2.37,1.9-3.56,2.85-.72.58-1.29,1.16-1.36,2.22-.45,6.03,6.3,16.92,11.94,19.03.66.25,1.52.18,2.23,0,3.66-.94,7.29-1.96,11.7-3.16-2.28-1.17-3.75-1.92-5.22-2.68-1.49-.76-3.02-1.44-4.46-2.29-2.88-1.71-2.94-10.43.09-11.64,3.99-1.61,5.31-4.35,5.49-8.44.22-4.83,4.87-6.69,7.74-9.59,1.68-1.7,3.72,1.09,5.7,1.54,2.07.47,2.71,2.12,3.04,4.06.53,3.14,1.24,6.25,2.08,10.42ZM381.68,472.12c.08-.31.17-.62.25-.93-2.18-1.28-4.35-2.58-6.54-3.84q-8.19-4.73-14.03,2.36c-4.09,4.96-4.03,4.88,1.36,8.66,1.65,1.16,2.79,1.31,3.41-.69,1.52-4.88,5.27-5.66,9.61-5.56,1.98.04,3.95,0,5.93,0Z" fill="#2b2828" stroke-width="0"/><path d="M310.59,290.7c13.4-.03,26.79-.02,40.19-.11,2-.01,2.92.3,3.01,2.65.71,17.27,1.86,34.53,1.85,51.83-10.25-1.47-8.04-1.06-8.36-9.14-.42-10.63-.86-21.25-1.08-31.89-.08-4.09-1.36-5.7-5.8-5.34-6.05.5-12.16.15-18.25.15q-8.2,0-11.56-8.16Z" fill="#2b2828" stroke-width="0"/><path d="M339.01,422.92c.28,2.35.71,4.71.82,7.08.61,14.13,1.16,28.26,1.71,42.4.1,2.57-3.22,4.65-4.99,2.87-8.31-8.36-14.14-18.35-13.77-30.32.31-9.95,6.5-17.07,15.11-21.92.23-.13.58-.06,1.13-.09Z" fill="#fdfcfb" stroke-width="0"/><path d="M380.6,424.21c.36,8.28.73,16.57,1.09,24.85-7.6-2.84-14.49-.17-21.35,2.74-.43-10.65-.86-21.3-1.29-31.95,6.26.83,12.59,1.11,18.78,2.53,1.25.29,2.33.49,2.78,1.84Z" fill="#fdfcfb" stroke-width="0"/><path d="M335.69,329.1c0,2.89-.37,5.84.1,8.65.49,2.94-.42,3.6-3.03,3.03-.3-.07-.6-.11-.89-.19-3.63-.96-8.63.38-10.73-2.39-1.9-2.5.11-7.01.07-10.61-.05-4.53-.78-9.06-1.45-13.56-.39-2.59.32-3.59,3.02-3.47,14.34.63,11.23-3.2,12.49,11.7.19,2.26.03,4.56.03,6.84.13,0,.26,0,.39,0Z" fill="#fdfcfb" stroke-width="0"/><path d="M189.53,247.38c-8.41-2.18-8.3-2.16-6.74-10.56,2.24-12.07,4.34-24.17,6.41-36.27.4-2.33.87-3.84,3.87-3.57,3.18.29,2.09,2.42,2.16,3.97.17,3.94.15,7.89.21,11.84-1.97,11.53-3.94,23.06-5.9,34.6Z" fill="#2b2828" stroke-width="0"/><path d="M359.04,419.84c.43,10.65.86,21.3,1.29,31.95-2.33,1.69-5.26,3.98-7.58,3.01-1.73-.73-.78-4.67-.89-7.19-.32-7.44-.36-14.9-1.01-22.31-.4-4.53,1.1-6.11,5.46-5.37.88.15,1.82-.05,2.73-.09Z" fill="#2b2828" stroke-width="0"/><path d="M189.53,247.38c1.97-11.53,3.94-23.06,5.9-34.6,1.11,8.89,2.49,17.75,3.21,26.67.3,3.75-4.13,6.33-3.48,11.04-2.23-1.24-3.93-2.18-5.63-3.12Z" fill="#fdfcfb" stroke-width="0"/><path d="M188.76,521.43c-.29.22-.59.43-.88.65-.07-.16-.15-.32-.22-.48.38-.04.76-.08,1.15-.12,0,0-.04-.05-.04-.05Z" fill="#262323" stroke-width="0"/><path d="M233.39,119.86c.31-.15.63-.29.94-.44-.02.39-.05.77-.07,1.16-.29-.24-.58-.48-.87-.72Z" fill="#262323" stroke-width="0"/><path d="M87.9,448.21c-.2-.17-.4-.34-.6-.51.39-.41.74-.3,1.08.06-.15.15-.31.31-.48.46Z" fill="#262323" stroke-width="0"/><path d="M290.63,228.26c3.12-17.86,6.2-35.07,9.08-52.32.58-3.47,1.54-5.06,5.65-4.92,11.42.39,22.88.48,34.3.05,14.96-.56,18.02,7,18.26,17.69.21,9.46-1.65,18.78-6.03,27.37-4.11,8.07-10.59,12.22-19.8,12.15-13.71-.1-27.42-.03-41.46-.03Z" fill="#fffffe" stroke-width="0"/><path d="M328.49,135.1c-6.1,0-12.19-.04-18.29.02-2.11.02-3.24.04-2.68-2.94,2.83-15.09,5.36-30.23,7.91-45.36.42-2.47,1.29-3.46,4.08-3.41,11.42.21,22.86.04,34.28.1,10.34.06,15.29,4.76,15.18,15.09-.09,8.71-1.69,17.24-5.78,25.09-3.93,7.55-10,11.61-18.71,11.43-5.33-.1-10.67-.02-16-.02Z" fill="#fffffe" stroke-width="0"/><path d="M491.99,335.21c-.36-.23-.72-.46-1.08-.7.11-.79-.19-2.24.84-1.98.9.23.54,1.71.24,2.68Z" fill="#b6a579" stroke-width="0"/><path d="M179.51,482.87c-6.25,3.77-11.75,8.65-18.18,12.17-8.54,4.66-17.3,7.6-27.08,4.33-.38-.13-.71-.4-1.63-.92,8.34-4.8,16.27-9.38,24.82-14.3-19.46-.02-39.06,3.65-55.4-11.66,5.89-2.61,10.87-4.82,16.23-7.2-4.94-2.66-9.84-4.58-14.26-8.66,30.38-1.33,54.73-13.47,73.57-36.86,8.79,18.66,25.86,28.26,42.39,38.47,1.51.93,3.24,1.37,2.84,3.94-2.66,16.95-7.5,32.96-19.35,46.03-.98,1.09-2.16,2-4.2,3.85,1.3-4.45,1.1-7.61-.64-10.61-1.55-2.67-2.77-3.26-5.3-.62-7.2,7.52-15.97,11.46-27.24,10.33,4.76-9.44,9.39-18.6,14.01-27.76.09-.37.34-1,.24-1.06-.5-.32-.71.08-.81.53Z" fill="#fdfcfb" stroke-width="0"/><path d="M373.72,386.51c-1.61-1.03-1.05-2.37-.32-3.51.63-.99,1.92-1.31,2.86-.73,3.07,1.92,6.67.77,9.94,2.12.4,1.3-.83,1.97-1.62,2.75-8.48,8.4-17.88,14.19-30.65,13.5-11.93-.64-23.42,2.25-33.39,9.03-4.73,3.22-8.64,2.71-13.02.22-2.78-1.58-5.25-3.52-7.11-6.44,2.1-1.14,4.09-2.2,6.66-3.59-4.48-.46-7.53-2.27-9.76-5.56-1.69-2.49-2.14-4.28,1.55-5.14,1.45-.33,2.78-1.17,4.9-2.11-6.78-1.2-10.34-5.08-12.08-10.88-.64-2.14-.58-3.44,2.24-3.43,2.26,0,4.53-.51,7.55-.89-5.44-2.51-9.35-5.64-9.36-11.74,0-2.14.5-2.91,2.79-2.89,29.38.23,57.85,5.04,85.01,16.58,2.81,1.19,5.46,2.72,7.69,4.84.78.74,1.66,1.7,1.15,2.77-.68,1.42-1.83.32-2.75.1-6.94-1.7-13.89-3.39-20.8-5.2-1.62-.42-3.15-.9-5.42-.11,4.12,1.22,6.99,2.82,7.8,7.25.43,2.39,2.82,4.62,6.16,3.02-.26.11-.53.21-.78.34-.03.02,0,.17,0,.26.26-.2.52-.39.78-.59Z" fill="#fdfcfb" stroke-width="0"/><path d="M253.93,493.69c-2.19.19-3.16.09-4,.37-7.85,2.7-12.98-.44-17.49-6.94-2.89-4.17-2.08-8.4-2.26-12.64-.11-2.73,3.02-3.27,4.87-4.1,6.6-2.94,10.46-7.65,12-14.76.88-4.09,16.9-7.7,19.9-4.74,3.47,3.43,6.79,7.01,10.3,10.4,1.36,1.32,1.45,2.32.42,3.89-2.31,3.52-4.42,7.18-7.11,11.6-.34-3.53-1.01-6.19-.76-8.77.46-4.87-2.88-6.51-6.23-8.29-.48-.26-1.4-.53-1.61-.31-3.13,3.27-8.7,4.18-9.4,9.82-.44,3.53-2.37,5.88-6.06,6.42-2.44.35-2.91,2.13-2.69,4.03.29,2.58-2.79,5.52.97,7.77,2.83,1.69,5.47,3.71,9.15,6.24Z" fill="#fdfcfb" stroke-width="0"/><path d="M293.19,446.14c-2.64,0-4.37.3-5.97-.06-4.81-1.08-8.97-.94-11.39,4.29-.79,1.71-1.63,1.44-2.98.11-4.89-4.82-4.97-4.74-.05-9.27q6.47-5.95,13.44-.52c2.12,1.65,4.23,3.31,6.94,5.44Z" fill="#fdfcfb" stroke-width="0"/><path d="M364.03,505.1c-.85-4.18-1.55-7.28-2.08-10.42-.33-1.94-.96-3.59-3.04-4.06-1.98-.45-4.01-3.24-5.7-1.54-2.87,2.9-7.53,4.76-7.74,9.59-.18,4.09-1.5,6.83-5.49,8.44-3.03,1.22-2.97,9.94-.09,11.64,1.43.85,2.97,1.53,4.46,2.29,1.47.75,2.94,1.51,5.22,2.68-4.41,1.2-8.04,2.22-11.7,3.16-.7.18-1.57.24-2.23,0-5.65-2.12-12.39-13-11.94-19.03.08-1.06.64-1.64,1.36-2.22,1.19-.95,2.26-2.09,3.56-2.85,5.76-3.39,9.18-8.2,9.24-15.03.02-2.54,1.54-3.38,3.5-4.59,9.45-5.85,17.31-4.61,25.11,3.45,3.09,3.19,4.1,5.16,1.88,8.92-1.6,2.71-2.63,5.75-4.33,9.58Z" fill="#fdfcfb" stroke-width="0"/><path d="M381.68,472.12c-1.98,0-3.95.04-5.93,0-4.34-.09-8.1.69-9.61,5.56-.62,2-1.76,1.85-3.41.69-5.4-3.78-5.45-3.7-1.36-8.66q5.84-7.08,14.03-2.36c2.19,1.26,4.36,2.56,6.54,3.84-.08.31-.17.62-.25.93Z" fill="#fdfcfb" stroke-width="0"/><path d="M179.51,482.87c.1-.46.31-.85.81-.53.1.07-.15.69-.24,1.06-.2-.17-.39-.34-.58-.53Z" fill="#262323" stroke-width="0"/><path d="M373.72,386.51c-.26.2-.52.39-.78.59,0-.09-.04-.24,0-.26.25-.13.52-.23.78-.34,0,0,0,0,0,0Z" fill="#262323" stroke-width="0"/></g></svg>