<?xml version="1.0" encoding="UTF-8"?><svg id="b" xmlns="http://www.w3.org/2000/svg" viewBox="0 0 700 494.58"><g id="c"><rect x=".32" y="177.7" width="699.68" height="121.34" fill="#fff" stroke-width="0"/><path d="M348.58,493.66v-60.09c8.26,0,16.16,0,24.05,0,2.15,0,4.31.13,6.45-.02,5.96-.43,8.08-4.42,4.62-9.35-5.6-7.99-11.21-15.96-16.72-24.01-13.97-20.37-28.43-40.41-42.63-60.63-1.42-2.02-2.7-4.08-5.5-5.81-7.06,8.1-14.31,16.2-21.31,24.51-11.41,13.55-22.63,27.27-33.97,40.88-6.65,7.99-13.3,15.98-20.13,23.82-2.53,2.91-3.03,5.85-1.25,10.47,9.85.3,20.18.09,30.51.13,10.07.04,20.14,0,30.71,0v59.34c-6.12,1.69-207.78,2.41-225.42.68v-60.04c9.08,0,17.91,0,26.74,0,4.91,0,9.91-.56,14.73.11,13.69,1.91,22.59-5.4,30.53-14.93,12.11-14.52,24.23-29.02,36.3-43.57,11.3-13.61,22.48-27.32,33.84-40.87,8.04-9.59,16.28-19,24.46-28.47,1.38-1.6,3.18-2.89,3.66-5.13-1.19-.36.62.05-.15-.9-.17-.21-.54-.28-.83-.39-.28-.1-.58-.22-.87-.22-81.69,0-163.38,0-244.93,0-2.08-1.42-1.47-3.14-1.18-5.31h698.75c1.27,1.46.97,2.66.72,4.37-4.11,1.05-8.18,2.94-12.87,1.11-1.34-.52-3.04-.11-4.58-.11-63.88,0-127.76,0-191.64.02-1.19,0-2.37.14-4.16.24,1.27,5.9,5.37,9.75,8.31,14,16.56,23.98,33.58,47.64,50.32,71.49,8.9,12.68,17.33,25.69,26.45,38.2,4.85,6.65,11.87,10.31,20.36,10.35,9.2.05,18.4.01,27.53.01,1.88,6.74,2.42,40.31.97,60.12h-271.89ZM468.13,299.05c-62.49.04-124.98.1-187.46.09-4.59,0-9.13,0-13.48,1.72-4.51-3.65-7.81-1.24-10.79,2.23-7.55,8.81-15.08,17.65-22.55,26.52-8.66,10.28-17.25,20.61-25.88,30.91-10.4,12.41-20.78,24.83-31.22,37.21-8.47,10.04-17.24,19.83-25.43,30.08-6.97,8.72-15.51,13.33-26.76,13.13-10.74-.19-21.49-.09-32.23,0-2.34.02-4.92-.81-7.48,1.57,0,6.91-.16,14.24.04,21.56.21,7.52-.92,15.13.71,22.33h210.31v-45.51c-12.86,0-25.11,0-37.35,0-4.91,0-9.82.01-14.74.01-5.14,0-8.66-2.37-10.69-7.1-1.87-4.36-1.31-8.13,1.86-11.82,4.78-5.55,9.18-11.43,13.88-17.05,19-22.72,37.92-45.52,57.21-68,4.48-5.23,8.18-11.25,14.17-16.1,24.78,36.25,50.66,71.22,74.32,106.87-4.17,11.74-6.1,13.17-16.75,13.17-7.26,0-14.51,0-22.25,0,0,8.45-.16,15.78.04,23.1.21,7.52-.92,15.14.74,22.52,28.58,1.69,249.78.92,256.88-.84v-44.77c-6.44,0-12.53-.39-18.55.08-13.4,1.03-23.02-5.3-30.27-15.55-19.68-27.83-39.02-55.89-58.53-83.84-9.93-14.23-19.94-28.4-29.88-42.54h-7.87Z" fill="#8d8f90" stroke-width="0"/><path d="M389.15,61.15c-.19-2.45-.37-3.65-.37-4.86-.02-18.11-.01-36.21-.01-54.24,7.37-2.02,190.2-2.85,221.68-1.08,1.6,6.37,1.99,47.49.45,60.2-5.88,0-11.93,0-17.98,0-10.75,0-21.51.35-32.23-.12-10.59-.46-17.93,4.63-24.24,12.25-8.54,10.33-17.1,20.65-25.71,30.93-7.24,8.65-14.6,17.2-21.85,25.85-8.61,10.28-17.16,20.61-25.71,30.94-4.01,4.85-7.97,9.74-12.97,15.86h247.51c2.76,1.94,2.38,3.44,2.02,4.97-2.02,1.99-4.59,1.25-6.96,1.25-83.2.04-166.41.04-249.61.04-37.01,0-74.03-.02-111.04-.02-37.15,0-74.3-.17-111.45.06-23.82.15-47.63-.24-71.44-.09-23.95.15-47.9.03-71.84.03-23.95,0-47.9.02-71.84.03-1.49,0-2.98,0-3.84,0-2.13-1.63-1.72-3.17-1.39-5.45h209.23c-1.95-7.17-6.51-11.75-9.96-16.78-15.3-22.28-30.88-44.37-46.71-66.28-6.4-8.86-11.63-18.57-19.45-26.42-4.81-4.83-10.37-7.17-17.14-7.11-9.47.09-18.95.02-29,.02V1.98c5.82-1.72,263.27-2.41,277.22-.66,2.44,6.26,2.69,51.26.1,59.57h-38.13c-2.44,1.85-3.12,3.54-4.07,5.84,18.28,26.12,36.77,52.54,55.65,79.51,21.45-25.6,42.35-50.58,63.29-75.52,1.62-1.92,3.47-3.78,2.39-6.47-1.25-3.13-4.14-3.15-7-3.14-11.97.05-23.95.03-35.92.04-3.63,0-7.26,0-11.64,0ZM227.91,176.14c3.66-.13,7.33-.38,10.99-.38,59.67-.02,119.34-.02,179,0,4.58,0,9.17.21,13.75.32,7.57,4.03,11.1-1.79,14.93-6.32,12.04-14.22,23.94-28.54,35.88-42.85,8.21-9.84,16.22-19.85,24.6-29.54,9.8-11.33,18.92-23.24,29.36-34.04,6.35-6.58,13.78-9.66,22.85-9.54,12.59.16,25.18.09,37.77,0,2.34-.02,4.92.89,7.13-1.2V8.87c-10.76-1.73-201.38-1.35-207.55.3v43.9c3.08,1.32,5.86.73,8.55.74,11.67.07,23.34-.11,35.01.08,9.16.14,14.28,8.35,10.4,16.62-1.15,2.44-3.09,4.54-4.87,6.63-5.15,6.06-10.5,11.96-15.6,18.06-14.3,17.09-28.41,34.35-42.88,51.3-3.08,3.6-4.8,8.64-10.29,10.82-4.56-6.44-9.14-12.83-13.64-19.28-15.17-21.76-30.3-43.54-45.46-65.29-1.22-1.75-2.59-3.28-2.9-5.61-.97-7.41,3.69-13.15,11.43-13.28,10.65-.18,21.3-.05,32.08-.05V8.29H94.48v45.52c7.54,0,14.56.22,21.56-.05,11.81-.45,20.61,4.8,27.17,14.09,12.12,17.16,23.97,34.51,36,51.73,13.42,19.2,26.92,38.35,40.67,57.92,2.8-1.31,5.6,1.05,8.03-1.37Z" fill="#8d8f90" stroke-width="0"/><path d="M227.1,279.77c5.01-6.23,12.31-5.48,16.33-10.13,3.8-4.39,8.1-8.39,11.49-13.07,3.58-4.94,8.42-8.96,10.9-14.63.21-4.42-2.62-7.42-4.51-10.84-4-7.21-8.78-13.89-13.25-20.79-2.99-4.61-6.45-8.07-12.02-8.93-2.04-.31-3.2-1.42-3.92-3.84,4.25-3,8.92-1.16,13.26-1.31,4.59-.16,9.19.15,13.79.31,4.42.15,9.11-1.86,13.14,1.27-.45,3.24-3.76,3.15-5.53,6.08,2.57,7.8,7.47,14.88,12.87,22.59,6.24-7.24,11.71-14.02,15.42-21.51-1.22-4.31-6.76-2.68-7.4-6.83,4.59-2.15,25.86-2.64,32.79-.65-.92,2.67-2.97,3.45-5.46,3.95-8.22,1.65-14.23,6.56-19.08,13.17-3.97,5.41-9.2,9.85-12.01,15.41-.91,2.95.62,4.75,1.67,6.49,4.87,8.08,9.8,16.14,14.97,24.03,4.59,7,9.87,13.31,18.85,14.89.82.14,1.6.92,2.26,1.54.4.38.54,1.03,1.13,2.23-7.42,3.03-14.99,1.25-22.25.79-7.25-.46-14.56,1.8-21.8-.24-.41-4.67,4.49-3.81,6.22-7.25-3.13-8.98-8.97-17.05-15.19-26.21-6.28,8.65-13.89,15.36-15.59,24.79,1.67,4.43,6.34,3.06,7.72,7.06-4.7,4.97-10.65,1.35-15.87,1.65-5.71.33-11.52,1.65-18.91-.04Z" fill="#033186" stroke-width="0"/><path d="M646.45,239.68c2.5,5.64,6.92,10.38,10.08,15.84,3.38,5.83,10.18,7.07,14.52,11.76-12.64,6.28-24.98,3.34-32.38-7.52-3.09-4.53-5.82-9.3-8.6-14.03-1.45-2.48-2.77-4.9-6.69-3.61-1.25,4.93-.4,10.13-.56,15.25-.09,2.85,2.01,4.44,4,5.78,1.73,1.16,3.99,1.55,4.93,3.74-5.46,2.61-28.48,2.92-34.38.43.93-3.98,5.81-3,8.19-7.44,1.35-7.91.23-17.43.55-26.88.07-2.15-.17-4.31.03-6.44.64-6.61-.1-12.33-7.95-14.17-.42-.1-.66-.96-.99-1.47.25-2.04,1.81-2.25,3.34-2.26,11.97-.09,23.93-.19,35.9-.16,3.03,0,6,.39,9.01,1.36,5.39,1.74,9.55,4.58,10.43,10.31.9,5.87.58,11.72-5.28,15.47-1.54.99-3.24,1.82-4.15,4.02ZM623.07,214.99c-.24,7.41-1.09,14.23.51,20.95,11.28.25,16.03-3.07,15.71-10.63-.34-7.89-5.49-11.4-16.22-10.32Z" fill="#033186" stroke-width="0"/><path d="M33.84,256.91c2.73,2.74,3.74,5.65,5.36,8.18,2.48,3.88,5.43,7.41,9.55,9.73,6.73,3.78,14.17,2.42,18.85-3.47,3.77-4.74,3.17-10.56-2.54-16.36-3.39-3.44-7.64-6.06-11.58-8.95-5.9-4.32-11.97-8.32-15.79-14.97-7.21-12.52-2.51-27.73,10.69-33.58,6.88-3.05,14.13-3.93,21.54-3.05,3.91.47,7.75,1.47,11.98,2.31,1.51,6.19,3.79,12.16,2.38,18.65-2.95.92-4.26-.81-5.06-2.78-1.4-3.42-3.03-6.63-5.81-9.14-7.94-7.16-17.86-4.94-22.18,4.97-.49,1.12-.9,2.26-1.31,3.3.96,6.41,4.66,10.53,9.88,13.71,4.66,2.85,9.17,5.95,13.65,9.08,2.24,1.57,4.37,3.35,6.34,5.24,13.01,12.53,9.77,30.45-6.4,38.68-10.5,5.34-21.97,5.28-33.1,1.52-8.76-2.96-11.74-13.75-6.46-23.07Z" fill="#033186" stroke-width="0"/><path d="M582.97,250.37c2.39,6.83.04,11.92-3.01,16.75-1.23,1.94-3.55,2.21-5.78,2.17-15.92-.31-31.85-.78-47.77-.05-1.7.08-2.88-.77-3.8-2.38,1.28-4.53,7.36-2.18,9.29-6.14,2.83-15.02,3.24-30.14,1.01-44.59-2.65-2.85-6.56-2.38-7.68-5.77,5.81-2.16,34.12-2.8,51.42-1.19,2.42,6.91,2.49,8.01,1.05,15.77-2.46.78-3.66-1.14-4.04-2.7-1.67-6.86-6.55-8.23-12.57-7.93-2.72.14-5.52-.59-8.64.81-3.08,5.74-.78,12.14-1.57,18.3,4.14,2.84,7.99,1.54,11.42,1.01,2.74-2.08,2.75-5.82,6.97-7.91.66,8.14.55,15.35.21,22.59-5.82.13-4.56-4.93-7.02-7.11-3.45-.48-7.01-.7-11.02.36v17.55c5.29,4.61,11.44,3.39,17.35,2.24,6.33-1.23,8.48-8.25,14.19-11.78Z" fill="#033186" stroke-width="0"/><path d="M353.83,265.23c1.71-2.17,5.72-.52,6.72-3.98.86-3.04-1.92-4.83-2.17-7.73-7.08-1.27-13.73-.66-19.9-.55-3.54,2.49-3.48,5.37-3.22,6.41,1.94,5.33,6.75,3.41,8.23,8.09-8.67,3.13-17.61-.18-25.71,2.06-1.23-2.7-.53-4.3.93-4.75,5.89-1.8,8.7-6.5,10.94-11.51,4.82-10.79,9.44-21.69,13.92-32.63,3.1-7.57,5.64-10.24,14.79-13.88,4.15,11.65,8.57,23.2,13.75,34.42,4.34,9.39,6.3,20.43,17.23,24.89-.61,2.36-1.76,3.16-3.46,3.15-9.5-.04-19-.09-28.5-.16-2.45-.02-4.28-.7-3.56-3.83ZM347.22,226.42c-2.79,6.63-5.75,12.15-6.54,18.86,5.05.64,9.53.76,14.57-.16-2.47-6.1-3.7-12.32-8.03-18.69Z" fill="#033186" stroke-width="0"/><path d="M109.79,266.99c1.63-4.8,8.51-1.77,9.21-7.5.63-13.87,3.88-28.07,2.06-42.61-4.51-2.91-9.03-2.15-13.35-.48-4.14,1.6-4.19,7.31-8.29,9.3-2.75-6.4-2.5-11.45.73-18.47,20.4,2.47,40.69,2.16,61.49.12.46,5.93,1.48,12.09-.7,18.8-5.79-1.38-4.59-8.46-9.17-9.83-4.09-1.23-8.28-2.02-12.92-.03-1.31,7.49-.37,15.12-.6,22.69-.14,4.6.15,9.22-.07,13.81-.28,5.83.92,10.35,7.73,11.36,1,.15,1.82,1.49,3.02,2.53-1.12.86-2,2.12-2.91,2.15-11.01.28-22.03.37-33.05.52-1.42.02-2.19-.88-3.17-2.35Z" fill="#033186" stroke-width="0"/><path d="M438.81,215.08c-2.59-1.52-4.85-2.84-7.45-4.37,6.14-2.49,17.71-2.84,26.94-1.05-.12.56-.12,1.56-.38,1.63-8.39,2.34-12.7,8.5-15.82,16.12-4.83,11.78-9.94,23.44-15.08,35.1-1.57,3.57-2.77,7.67-8.08,8.55-4.31-6.58-5.69-14.81-9.52-21.95-3.43-6.39-5.89-13.3-8.96-19.9-3.5-7.52-5.42-16.38-17.34-17.91,7.09-3.2,27.86-3.48,36.61-1.4-.03,3.42-4.8,2.65-5.17,7.15,2.67,8.82,6.46,18.53,12.16,27.95,5.62-7.82,10.62-20.22,12.08-29.91Z" fill="#033186" stroke-width="0"/><path d="M497.73,261.11c2.79,3.14,7.21,2.16,9.18,6.72-12.4,2.3-24.6.62-37.1,1.74.56-6.54,6.71-5.27,8.72-8.87,1.07-14.83,1.05-29.72.47-44.72-1.55-.98-2.86-1.72-4.07-2.59-1.16-.83-3.08-.88-3.03-2.95,5.02-2.19,21.85-2.76,34.8-1.06-1.44,4.32-7.1,3.1-9.41,6.77,0,12.51-.03,25.02.02,37.54.01,2.71.3,5.42.43,7.43Z" fill="#033186" stroke-width="0"/><path d="M187.95,259.39c.05,6.86-2.68,9.78-8.8,10.27-5.83.47-10.37-3.84-9.87-10.27.54-6.95,3.53-10.57,9.91-10.43,5.74.12,8.71,3.65,8.75,10.43Z" fill="#033186" stroke-width="0"/><path d="M267.19,300.85c4.35-1.71,8.89-1.72,13.48-1.72,62.49,0,124.98-.05,187.46-.09-.05,1.65.85,2.89,1.73,4.15,29.86,42.53,59.77,85.02,89.56,127.6,8.39,11.99,19.7,17.75,34.28,17.68,4.15-.02,8.5-1.11,12.37.86v29.43c-15.01,1.72-236.58,1.14-242.59-.5v-29.95c6.86,0,13.27.31,19.63-.06,13.62-.8,21.91-15.16,15.87-27.25-1.08-2.17-2.65-4.1-4.05-6.1-19.77-28.33-39.46-56.73-59.4-84.94-4.88-6.9-9.13-14.34-15.26-20.77-2.03,2.19-3.76,3.89-5.32,5.75-28.38,33.82-56.73,67.67-85.11,101.49-5.14,6.12-6.94,12.65-3.51,20.29,3.52,7.86,9.57,11.63,18.02,11.68,11.06.06,22.11-.07,33.17.03,3.56.03,7.26-.62,11.01.85v29.37c-11.56,1.64-189.47,1.21-195.78-.38v-29.86c9.9,0,19.36-.32,28.8.07,14.53.6,26.1-4.65,35.34-15.84,16.2-19.61,32.64-39.03,48.97-58.54,20.45-24.42,40.88-48.84,61.33-73.26Z" fill="#033186" stroke-width="0"/><path d="M267.19,300.85c-20.44,24.42-40.88,48.84-61.33,73.26-16.33,19.51-32.77,38.92-48.97,58.54-9.25,11.19-20.82,16.44-35.34,15.84-9.44-.39-18.9-.07-28.8-.07v29.86c6.32,1.6,184.23,2.02,195.78.38v-29.37c-3.75-1.47-7.44-.82-11.01-.85-11.05-.1-22.11.03-33.17-.03-8.45-.05-14.5-3.82-18.02-11.68-3.43-7.64-1.62-14.17,3.51-20.29,28.38-33.82,56.73-67.67,85.11-101.49,1.56-1.85,3.29-3.56,5.32-5.75,6.13,6.42,10.38,13.87,15.26,20.77,19.94,28.22,39.63,56.61,59.4,84.94,1.4,2,2.97,3.93,4.05,6.1,6.04,12.09-2.26,26.45-15.87,27.25-6.36.38-12.77.06-19.63.06v29.95c6.01,1.64,227.58,2.22,242.59.5v-29.43c-3.87-1.98-8.23-.89-12.37-.86-14.58.07-25.89-5.7-34.28-17.68-29.79-42.58-59.7-85.07-89.56-127.6-.88-1.26-1.79-2.5-1.73-4.15h7.87c9.94,14.15,19.95,28.32,29.88,42.54,19.51,27.95,38.85,56.01,58.53,83.84,7.25,10.25,16.87,16.58,30.27,15.55,6.02-.46,12.11-.08,18.55-.08v44.77c-7.1,1.76-228.3,2.54-256.88.84-1.66-7.38-.54-15-.74-22.52-.2-7.32-.04-14.65-.04-23.1,7.74,0,14.99,0,22.25,0,10.65,0,12.57-1.43,16.75-13.17-23.67-35.65-49.55-70.62-74.32-106.87-5.99,4.85-9.69,10.88-14.17,16.1-19.29,22.48-38.2,45.28-57.21,68-4.7,5.62-9.1,11.5-13.88,17.05-3.17,3.68-3.74,7.45-1.86,11.82,2.03,4.73,5.56,7.1,10.69,7.1,4.91,0,9.82-.01,14.74-.01,12.25,0,24.5,0,37.35,0v45.51H85.58c-1.63-7.2-.5-14.81-.71-22.33-.2-7.32-.04-14.65-.04-21.56,2.57-2.38,5.14-1.55,7.48-1.57,10.74-.1,21.49-.2,32.23,0,11.25.2,19.79-4.41,26.76-13.13,8.2-10.25,16.97-20.04,25.43-30.08,10.44-12.38,20.82-24.8,31.22-37.21,8.63-10.3,17.22-20.63,25.88-30.91,7.48-8.88,15-17.71,22.55-26.52,2.98-3.47,6.29-5.89,10.79-2.23Z" fill="#f5f7f9" stroke-width="0"/><path d="M431.65,176.08c-4.58-.11-9.17-.32-13.75-.32-59.67-.02-119.34-.03-179,0-3.66,0-7.33.25-10.99.38-26.35-37.54-52.79-75.02-79-112.67-8.23-11.82-19.37-17.25-33.5-17.25-4.51,0-9.02,0-13.59,0V15.61h248.52c.29,10.37.46,20.27-.09,30.61-7.8,0-14.51-.09-21.23.04-3.34.07-6.69-.04-9.95,1.29-11.96,4.89-14.53,19.92-7.73,29.32,13.28,18.35,26.04,37.09,39.04,55.64,8.72,12.45,17.5,24.88,26.43,37.57,2.04-2.17,3.8-3.88,5.37-5.74,16.77-19.94,33.52-39.88,50.24-59.86,7.47-8.93,14.8-17.98,22.29-26.89,5.32-6.32,6-13.34,2.78-20.58-3.31-7.45-9.5-10.89-17.66-10.78-3.07.04-6.14.02-9.21.03-8.82,0-17.64,0-26.86,0-.42-10.81-.7-20.74.1-30.64h193.44c-.64,10.38.64,20.32-.78,30.65-12.07,0-23.4-.07-34.73.03-4.57.04-9.09.13-13.66,1.29-10.17,2.59-16.94,9.54-23.28,17.09-31.11,37.09-62.15,74.25-93.21,111.39Z" fill="#033186" stroke-width="0"/><path d="M431.65,176.08c31.06-37.14,62.1-74.3,93.21-111.39,6.33-7.55,13.11-14.51,23.28-17.09,4.57-1.16,9.09-1.25,13.66-1.29,11.33-.1,22.66-.03,34.73-.03,1.42-10.33.14-20.27.78-30.65h-193.44c-.8,9.9-.52,19.83-.1,30.64,9.23,0,18.04,0,26.86,0,3.07,0,6.14.02,9.21-.03,8.16-.12,14.35,3.33,17.66,10.78,3.21,7.23,2.54,14.25-2.78,20.58-7.5,8.91-14.82,17.96-22.29,26.89-16.72,19.98-33.47,39.93-50.24,59.86-1.57,1.87-3.33,3.57-5.37,5.74-8.93-12.69-17.7-25.12-26.43-37.57-13-18.56-25.76-37.29-39.04-55.64-6.8-9.4-4.24-24.43,7.73-29.32,3.27-1.33,6.61-1.22,9.95-1.29,6.71-.13,13.43-.04,21.23-.04.55-10.34.38-20.24.09-30.61H101.81v30.62c4.57,0,9.08,0,13.59,0,14.13,0,25.27,5.43,33.5,17.25,26.21,37.64,52.65,75.12,79,112.67-2.43,2.41-5.23.06-8.03,1.37-13.75-19.58-27.25-38.72-40.67-57.92-12.03-17.22-23.89-34.57-36-51.73-6.56-9.29-15.36-14.54-27.17-14.09-7,.27-14.02.05-21.56.05V8.29h263.96v45.51c-10.78,0-21.43-.14-32.08.05-7.74.13-12.4,5.87-11.43,13.28.3,2.33,1.68,3.86,2.9,5.61,15.16,21.76,30.29,43.54,45.46,65.29,4.49,6.45,9.08,12.83,13.64,19.28,5.49-2.18,7.21-7.21,10.29-10.82,14.47-16.95,28.57-34.21,42.88-51.3,5.1-6.1,10.45-12,15.6-18.06,1.78-2.09,3.72-4.19,4.87-6.63,3.88-8.26-1.24-16.47-10.4-16.62-11.67-.18-23.34,0-35.01-.08-2.69-.02-5.46.58-8.55-.74V9.17c6.17-1.64,196.79-2.03,207.55-.3v43.72c-2.21,2.09-4.79,1.18-7.13,1.2-12.59.09-25.18.16-37.77,0-9.07-.11-16.49,2.96-22.85,9.54-10.43,10.8-19.56,22.71-29.36,34.04-8.38,9.69-16.39,19.7-24.6,29.54-11.93,14.3-23.84,28.63-35.88,42.85-3.83,4.52-7.37,10.35-14.93,6.32Z" fill="#f5f7f9" stroke-width="0"/><path d="M623.07,214.99c10.72-1.08,15.88,2.43,16.22,10.32.32,7.56-4.43,10.88-15.71,10.63-1.6-6.72-.75-13.54-.51-20.95Z" fill="#f5f7f9" stroke-width="0"/><path d="M347.22,226.42c4.33,6.37,5.56,12.6,8.03,18.69-5.04.93-9.52.8-14.57.16.79-6.71,3.75-12.23,6.54-18.86Z" fill="#f5f7f9" stroke-width="0"/></g></svg>