<?xml version="1.0" encoding="UTF-8"?>
<svg id="Layer_2" data-name="Layer 2" xmlns="http://www.w3.org/2000/svg" viewBox="0 0 334.8 317.34">
  <defs>
    <style>
      .cls-1 {
        fill: #cbcbcb;
      }

      .cls-2 {
        fill: #999;
      }

      .cls-3 {
        fill: #ccc;
      }

      .cls-4 {
        fill: #fefefe;
      }
    </style>
  </defs>
  <g id="Layer_1-2" data-name="Layer 1">
    <g>
      <polygon class="cls-4" points="106.43 289.34 233.47 289.34 233.47 205.18 223.88 204.42 115.51 204.52 106.43 206.86 106.43 289.34"/>
      <path class="cls-2" d="M.05,317.34c0-22.16,.04-44.32-.05-66.47-.01-2.87,.7-5.02,2.78-7.07,3.53-3.51,7.08-7.1,9.98-11.12,2.96-4.09,6.66-5.99,11.46-6.95,23.53-4.74,47.02-9.7,70.52-14.59,1.02,10.06,4.62,19.34,8.6,28.48,7.34,16.84,19.08,30.23,33,41.86,7.77,6.49,15.68,12.65,25.02,16.96,7.48,3.45,13.82,3.54,20.92-1.2,8.97-5.98,17.5-12.32,25.58-19.5,20.43-18.16,32.76-40.59,37.25-67.49,19.83,5.29,39.99,9.13,60.23,12.25,10.91,1.68,16.44,9.62,23.17,16.39,1.91,1.93,3.59,3.81,6.28,4.46v74H.05Z"/>
      <path class="cls-2" d="M112.26,20.96c-2.52,.09-4.35,2.45-7.19,2.19-.03-.46-.25-1.05-.05-1.29,6.78-8.28,15.11-14.21,26.06-14.41,5.29-.1,9.89-.33,13.13-5.39,3.24,2.45,6.08,1.79,9.42,.56,8.42-3.1,17.3-3.04,26.07-1.88,8.55,1.13,16.87,3.53,25.12,6.05,2.28,.7,4.75,1.18,6.53,3.21-1.69,2.15-4.87,.94-6.28,3.94,12.74,5.38,28.22,3.4,39.25,13.93-1.91,2.13-4.35,.53-6.15,2.24,1.87,2.67,6.2,2.81,6.87,6.8-1.49,.67-2.96,1.33-4.75,2.12,3.39,7.27,8,13.88,9.74,21.63-1.62,1.59-3.85,.17-6.02,2.46,4.61,11.42-1.39,23.79,1.24,36.64,6.21,.92,5.55,6.03,5.98,10.87,1.3,14.7-5.24,27.61-9,41.14-1.26,4.53-4.86,3.55-8.47,2.29-1.2,4.8-2.27,9.28-3.47,13.73-.78,2.89-1.13,6.15-2.73,8.51-4.95,7.3-5.57,15.46-4.16,23.48,2.53,14.44-4.79,25.79-10.64,37.5-6.06,12.13-14.9,22.02-27.35,28.11-6.56,1.21-12.94,3.68-19.85,2.02-3.34-.8-6.57-2.29-10.13-2.03-17.14-8.57-26.37-23.74-33.51-40.61-2.72-6.44-4.75-13.11-6.41-20.25,3.46-1.65,3.22-4.78,3.3-7.99,.27-11.35,.47-22.58-5.09-33.1-1.45-2.74-2.7-5.2-5.47-6.7-4.19-2.26-6.36-5.83-7.67-10.47-2.99-10.58-5.73-21.17-6.91-32.14-.48-4.49-.09-8.39,5.33-10.07-1.61-10.35-3.18-20.51-4.77-30.66-1.32-8.38-.79-16.45,2.55-24.46,4.13-9.9,9.32-19.07,16.1-27.35,.17-.23,.53-.59,.47-.68-.35-.55-.74-.3-1.08,.07Z"/>
      <path class="cls-1" d="M155.44,265.38c3.56-.26,6.79,1.23,10.13,2.03,6.91,1.67,13.29-.8,19.85-2.02,.48,3.03,2.03,5.52,4.38,8.82,26.24-15.56,37.07-40.68,43.68-69.04,4.19,1.82,7.92,3.44,11.65,5.06-4.49,26.9-16.82,49.33-37.25,67.49-8.08,7.18-16.62,13.52-25.58,19.5-7.1,4.74-13.44,4.65-20.92,1.2-9.34-4.31-17.25-10.47-25.02-16.96-13.92-11.63-25.66-25.01-33-41.86-3.98-9.14-7.59-18.42-8.6-28.48,3.66-1.34,7.33-2.68,11.69-4.28,5.54,24.38,15.81,45.56,34.84,61.5,2.96,2.48,6.11,5.04,10.3,6.05,1.85-2.89,3.85-5.5,3.86-9.03Zm5.1,10.49c.58,2.12,1.16,4.27,.32,6.66-1.28,3.63-.55,7.07,2.7,9.28,4.4,3,9.16,3.06,13.93,.63,3.68-1.88,4.58-5.08,3.92-8.79-.49-2.77-1.12-5.47,.12-8.23-1.53-1.29-2.89-2.45-4.4-3.72-3.94,.43-8.32,.32-12.16-.19-1.52,1.49-2.8,2.73-4.45,4.35Z"/>
      <path class="cls-4" d="M112.26,20.96c.34-.37,.73-.63,1.08-.07,.06,.09-.31,.45-.47,.68-.21-.2-.41-.4-.61-.61Z"/>
      <path class="cls-2" d="M160.53,275.87c1.65-1.61,2.93-2.86,4.45-4.35,3.83,.51,8.21,.62,12.16,.19,1.5,1.27,2.87,2.42,4.4,3.72-1.24,2.76-.61,5.46-.12,8.23,.66,3.71-.24,6.91-3.92,8.79-4.77,2.43-9.53,2.37-13.93-.63-3.25-2.21-3.98-5.65-2.7-9.28,.84-2.39,.26-4.54-.32-6.66Z"/>
      <polygon class="cls-3" points="181.5 268.72 157.87 268.72 157.87 293.84 169.68 299.84 184.87 291.22 181.5 268.72"/>
    </g>
  </g>
</svg>