<?xml version="1.0" encoding="UTF-8"?><svg id="b" xmlns="http://www.w3.org/2000/svg" viewBox="0 0 531.05 500"><g id="c"><polygon points="110.66 435.41 101.05 395.33 40.44 395.33 0 248.9 65.93 248.9 19.92 57.04 59.22 0 471.83 0 511.13 57.04 465.11 248.9 531.05 248.9 490.61 395.33 430 395.33 420.38 435.41 265.52 500 110.66 435.41" fill="#a5b0b6" stroke-width="0"/><polygon points="455.34 256.6 502.84 58.59 467.78 7.7 265.52 7.7 63.26 7.7 28.21 58.59 75.7 256.6 10.12 256.6 46.3 387.63 107.12 387.63 117.24 429.81 265.52 491.66 413.8 429.81 423.92 387.63 484.74 387.63 520.93 256.6 455.34 256.6" fill="#0b2a5b" stroke-width="0"/><path d="M265.52,374.79c-70.38,0-127.63-59.79-127.63-133.31s57.25-133.31,127.63-133.31,127.63,59.79,127.63,133.31-57.25,133.31-127.63,133.31h0Z" fill="#fff" stroke-width="0"/><ellipse cx="265.56" cy="241.48" rx="82.93" ry="86.61" fill="#ea1836" stroke-width="0"/><polygon points="117.25 374.79 56.08 374.79 26.98 269.44 91.98 269.44 439.06 269.44 504.06 269.44 474.97 374.79 413.8 374.79 117.25 374.79" fill="#184ba9" stroke-width="0"/><path d="M153.41,286.15h34.96c3.41,0,6.34.94,8.79,2.82,2.49,1.94,3.74,4.27,3.74,6.98v14.86c0,4.33-1.84,7.86-5.53,10.61,5.06,2.84,7.58,6.83,7.58,12v6.67c0,5.49-2.47,9.92-7.42,13.29-4.63,3.13-10.43,4.7-17.38,4.7h-24.75v-71.93ZM170.21,299.44v15.98h7.74c1.65,0,3.07-.43,4.27-1.3,1.23-.95,1.84-2.06,1.84-3.31v-11.37h-13.85ZM170.21,344.79h7.95c5.3,0,7.95-1.57,7.95-4.7v-6.67c0-1.31-.6-2.42-1.79-3.31s-2.6-1.34-4.21-1.34h-9.9v16.03Z" fill="#fff" stroke-width="0"/><path d="M217.39,358.08v-71.93h16.8v58.64h23.33v13.29h-40.13Z" fill="#fff" stroke-width="0"/><path d="M283.64,344.79h15.9v-58.64h16.85v62.13c0,2.72-1.25,5.03-3.74,6.94-2.42,1.91-5.32,2.86-8.69,2.86h-24.7c-3.37,0-6.28-.96-8.74-2.86-2.46-1.91-3.69-4.22-3.69-6.94v-62.13h16.8v58.64Z" fill="#fff" stroke-width="0"/><path d="M349.62,344.79h28.01v13.29h-44.81v-71.93h44.81v13.29h-28.01v15.98h23.33v13.34h-23.33v16.03Z" fill="#fff" stroke-width="0"/><polygon points="265.52 398.55 273.63 423.51 299.87 423.51 278.64 438.93 286.75 463.88 265.52 448.46 244.3 463.88 252.4 438.93 231.18 423.51 257.42 423.51 265.52 398.55" fill="#184ba9" stroke-width="0"/><polygon points="427.5 97.5 435.61 122.45 461.85 122.45 440.62 137.87 448.73 162.83 427.5 147.4 406.27 162.83 414.38 137.87 393.15 122.45 419.39 122.45 427.5 97.5" fill="#184ba9" stroke-width="0"/><polygon points="103.55 97.5 95.44 122.45 69.2 122.45 90.43 137.87 82.32 162.83 103.55 147.4 124.77 162.83 116.66 137.87 137.89 122.45 111.65 122.45 103.55 97.5" fill="#184ba9" stroke-width="0"/><polygon points="158.25 93.7 149.98 85.63 149.98 37.19 158.25 29.13 211.34 29.13 218.62 36.41 218.62 51.14 202.2 51.14 202.2 45.18 166.39 45.18 166.39 77.65 202.2 77.65 202.2 71.68 218.62 71.68 218.62 86.42 211.34 93.7 158.25 93.7" fill="#e4e6ed" stroke-width="0"/><polygon points="158.72 30.27 151.12 37.67 151.12 85.15 158.72 92.56 210.86 92.56 217.48 85.95 217.48 72.82 203.34 72.82 203.34 78.79 165.25 78.79 165.25 44.04 203.34 44.04 203.34 50.01 217.48 50.01 217.48 36.88 210.86 30.27 158.72 30.27" fill="#fff" stroke-width="0"/><polygon points="160.88 87.24 156.43 82.91 156.43 39.91 160.88 35.58 208.66 35.58 212.16 39.08 212.16 44.69 208.65 44.69 208.65 40.62 206.76 38.72 161.84 38.72 159.94 40.62 159.94 82.2 161.84 84.1 206.76 84.1 208.65 82.2 208.65 78.13 212.16 78.13 212.16 83.74 208.66 87.24 160.88 87.24" fill="#e4e6ed" stroke-width="0"/><polygon points="320.71 93.7 312.43 85.63 312.43 37.19 320.71 29.13 373.78 29.13 381.07 36.41 381.07 51.14 364.65 51.14 364.65 45.18 328.84 45.18 328.84 77.65 364.65 77.65 364.65 71.68 381.07 71.68 381.07 86.42 373.78 93.7 320.71 93.7" fill="#e4e6ed" stroke-width="0"/><polygon points="321.17 30.27 313.57 37.67 313.57 85.15 321.17 92.56 373.31 92.56 379.93 85.95 379.93 72.82 365.79 72.82 365.79 78.79 327.7 78.79 327.7 44.04 365.79 44.04 365.79 50.01 379.93 50.01 379.93 36.88 373.31 30.27 321.17 30.27" fill="#fff" stroke-width="0"/><polygon points="323.33 87.24 318.88 82.91 318.88 39.91 323.33 35.58 371.11 35.58 374.62 39.08 374.62 44.69 371.11 44.69 371.11 40.62 369.21 38.72 324.29 38.72 322.39 40.62 322.39 82.2 324.29 84.1 369.21 84.1 371.11 82.2 371.11 78.13 374.62 78.13 374.62 83.74 371.11 87.24 323.33 87.24" fill="#e4e6ed" stroke-width="0"/><polygon points="286.45 93.7 286.45 69.44 246.37 69.44 246.37 93.7 229.96 93.7 229.96 29.13 246.37 29.13 246.37 53.38 286.45 53.38 286.45 29.13 302.87 29.13 302.87 93.7 286.45 93.7" fill="#e4e6ed" stroke-width="0"/><polygon points="287.59 30.27 287.59 54.52 245.23 54.52 245.23 30.27 231.09 30.27 231.09 92.56 245.23 92.56 245.23 68.3 287.59 68.3 287.59 92.56 301.73 92.56 301.73 30.27 287.59 30.27" fill="#fff" stroke-width="0"/><polygon points="292.91 87.24 292.91 62.99 239.92 62.99 239.92 87.24 236.41 87.24 236.41 35.58 239.92 35.58 239.92 59.84 292.91 59.84 292.91 35.58 296.41 35.58 296.41 87.24 292.91 87.24" fill="#e4e6ed" stroke-width="0"/></g></svg>