<?xml version="1.0" encoding="UTF-8"?><svg id="b" xmlns="http://www.w3.org/2000/svg" xmlns:xlink="http://www.w3.org/1999/xlink" viewBox="0 0 624.23 572.87"><defs><clipPath id="d"><path d="M311.42,521.17c-17.56-6.24-67.77-28.6-141.15-98.58-42.59-40.61-67.85-87.17-79.12-111.31-1.57-3.36-2.18-7.08-1.76-10.76l22.64-200.5,198.55-49.92c.28-.07.56-.1.84-.1s.56.03.84.1l198.55,49.92,22.64,200.5c.42,3.68-.19,7.4-1.76,10.76-11.27,24.14-36.53,70.7-79.12,111.31-73.37,69.97-123.59,92.34-141.15,98.58Z" fill="none" stroke-width="0"/></clipPath></defs><g id="c"><path d="M309.83,572.61c-2.69-.43-67.08-11.82-174.06-113.84-48.51-46.27-77.16-99.02-89.92-126.34-5.47-11.71-7.59-24.69-6.14-37.52l23.27-206.14c1.94-17.22,14.54-31.63,31.35-35.85L298.39,1.61c4.26-1.07,8.64-1.61,13.03-1.61s8.77.54,13.03,1.61l204.06,51.3c16.8,4.23,29.4,18.63,31.35,35.85l23.27,206.14c1.45,12.84-.68,25.81-6.14,37.52-12.76,27.33-41.4,80.07-89.92,126.34-106.97,102.01-171.37,113.4-174.06,113.84l-1.6.26-1.6-.26Z" fill="#a5b0b6" stroke-width="0"/><polygon points="0 390.79 43.45 280.39 0 169.99 624.22 169.99 580.78 280.39 624.23 390.79 0 390.79" fill="#a5b0b6" stroke-width="0"/><polygon points="11.75 382.79 52.04 280.39 11.75 177.99 612.48 177.99 572.18 280.39 612.48 382.79 11.75 382.79" fill="#0b2a5b" stroke-width="0"/><path d="M573.2,296.03l-23.27-206.14c-1.49-13.17-10.99-24.04-23.85-27.28L322.02,11.31c-6.95-1.75-14.23-1.75-21.19,0L96.77,62.62c-12.86,3.23-22.36,14.1-23.85,27.28l-23.27,206.14c-1.24,11.01.58,22.13,5.27,32.17,12.07,25.86,40.11,77.9,87.76,123.33,105.96,101.05,168.75,111.2,168.75,111.2,0,0,62.79-10.16,168.75-111.2,47.64-45.43,75.68-97.48,87.76-123.33,4.69-10.04,6.51-21.16,5.27-32.17Z" fill="#0b2a5b" stroke-width="0"/><path d="M311.42,541.13c-14.19-4.08-69.64-24.09-154.26-104.79-44.84-42.76-71.39-91.67-83.22-117.02-3.05-6.54-4.24-13.77-3.43-20.93l23.27-206.14c.5-4.45,3.76-8.17,8.1-9.27l204.06-51.3c1.79-.45,3.63-.68,5.47-.68s3.68.23,5.47.68l204.06,51.3c4.34,1.09,7.6,4.81,8.1,9.27l23.27,206.14c.81,7.16-.38,14.4-3.43,20.93-11.83,25.35-38.38,74.26-83.22,117.02-84.62,80.7-140.07,100.71-154.26,104.79Z" fill="#ea1836" stroke-width="0"/><path d="M311.42,521.17c-17.56-6.24-67.77-28.6-141.15-98.58-42.59-40.61-67.85-87.17-79.12-111.31-1.57-3.36-2.18-7.08-1.76-10.76l22.64-200.5,198.55-49.92c.28-.07.56-.1.84-.1s.56.03.84.1l198.55,49.92,22.64,200.5c.42,3.68-.19,7.4-1.76,10.76-11.27,24.14-36.53,70.7-79.12,111.31-73.37,69.97-123.59,92.34-141.15,98.58Z" fill="#fff" stroke-width="0"/><g clip-path="url(#d)"><rect x="495.93" y="195.65" width="37.65" height="367.1" fill="#e4e6ed" stroke-width="0"/><rect x="428.15" y="195.65" width="37.65" height="367.1" fill="#ea1836" stroke-width="0"/><rect x="360.38" y="195.65" width="37.65" height="367.1" fill="#ea1836" stroke-width="0"/><rect x="292.6" y="195.65" width="37.65" height="367.1" fill="#ea1836" stroke-width="0"/><rect x="224.82" y="195.65" width="37.65" height="367.1" fill="#ea1836" stroke-width="0"/><rect x="157.05" y="195.65" width="37.65" height="367.1" fill="#ea1836" stroke-width="0"/><rect x="89.27" y="195.65" width="37.65" height="367.1" fill="#e4e6ed" stroke-width="0"/></g><polygon points="101.31 194.99 112.03 100.02 312.26 50.1 510.82 100.02 521.54 194.99 101.31 194.99" fill="#0b2a5b" stroke-width="0"/><path d="M311.42,521.17c-17.56-6.24-67.77-28.6-141.15-98.58-42.59-40.61-67.85-87.17-79.12-111.31-1.57-3.36-2.18-7.08-1.76-10.76l22.64-200.5,198.55-49.92c.28-.07.56-.1.84-.1s.56.03.84.1l198.55,49.92,22.64,200.5c.42,3.68-.19,7.4-1.76,10.76-11.27,24.14-36.53,70.7-79.12,111.31-73.37,69.97-123.59,92.34-141.15,98.58Z" fill="none" stroke-width="0"/><polygon points="213.95 176.82 206.42 169.5 206.42 125.48 213.95 118.15 262.18 118.15 268.8 124.76 268.8 138.16 253.88 138.16 253.88 132.73 221.34 132.73 221.34 162.24 253.88 162.24 253.88 156.82 268.8 156.82 268.8 170.21 262.18 176.82 213.95 176.82" fill="#e4e6ed" stroke-width="0"/><polygon points="214.37 119.18 207.46 125.91 207.46 169.06 214.37 175.79 261.76 175.79 267.76 169.78 267.76 157.85 254.92 157.85 254.92 163.27 220.31 163.27 220.31 131.7 254.92 131.7 254.92 137.12 267.76 137.12 267.76 125.19 261.76 119.18 214.37 119.18" fill="#fff" stroke-width="0"/><polygon points="216.33 170.96 212.29 167.02 212.29 127.95 216.33 124.01 259.75 124.01 262.94 127.19 262.94 132.29 259.75 132.29 259.75 128.59 258.02 126.87 217.2 126.87 215.48 128.59 215.48 166.38 217.2 168.1 258.02 168.1 259.75 166.38 259.75 162.68 262.94 162.68 262.94 167.78 259.75 170.96 216.33 170.96" fill="#e4e6ed" stroke-width="0"/><polygon points="361.57 176.82 354.05 169.5 354.05 125.48 361.57 118.15 409.8 118.15 416.42 124.76 416.42 138.16 401.51 138.16 401.51 132.73 368.96 132.73 368.96 162.24 401.51 162.24 401.51 156.82 416.42 156.82 416.42 170.21 409.8 176.82 361.57 176.82" fill="#e4e6ed" stroke-width="0"/><polygon points="361.99 119.18 355.08 125.91 355.08 169.06 361.99 175.79 409.38 175.79 415.39 169.78 415.39 157.85 402.54 157.85 402.54 163.27 367.93 163.27 367.93 131.7 402.54 131.7 402.54 137.12 415.39 137.12 415.39 125.19 409.38 119.18 361.99 119.18" fill="#fff" stroke-width="0"/><polygon points="363.95 170.96 359.91 167.02 359.91 127.95 363.95 124.01 407.38 124.01 410.56 127.19 410.56 132.29 407.37 132.29 407.37 128.59 405.65 126.87 364.82 126.87 363.1 128.59 363.1 166.38 364.82 168.1 405.65 168.1 407.37 166.38 407.37 162.68 410.56 162.68 410.56 167.78 407.38 170.96 363.95 170.96" fill="#e4e6ed" stroke-width="0"/><polygon points="330.44 176.82 330.44 154.78 294.02 154.78 294.02 176.82 279.1 176.82 279.1 118.15 294.02 118.15 294.02 140.19 330.44 140.19 330.44 118.15 345.36 118.15 345.36 176.82 330.44 176.82" fill="#e4e6ed" stroke-width="0"/><polygon points="331.48 119.18 331.48 141.23 292.99 141.23 292.99 119.18 280.14 119.18 280.14 175.79 292.99 175.79 292.99 153.75 331.48 153.75 331.48 175.79 344.32 175.79 344.32 119.18 331.48 119.18" fill="#fff" stroke-width="0"/><polygon points="336.31 170.96 336.31 148.92 288.16 148.92 288.16 170.96 284.97 170.96 284.97 124.01 288.16 124.01 288.16 146.06 336.31 146.06 336.31 124.01 339.5 124.01 339.5 170.96 336.31 170.96" fill="#e4e6ed" stroke-width="0"/><polygon points="36.71 365.79 70.31 280.39 36.71 194.99 587.52 194.99 553.91 280.39 587.52 365.79 36.71 365.79" fill="#ea1836" stroke-width="0"/><polygon points="567.71 351.3 56.52 351.3 84.42 280.39 56.52 209.48 567.71 209.48 539.8 280.39 567.71 351.3" fill="#fff" stroke-width="0"/><path d="M233.23,294.96v35.33h-19.69v-99.14h43.48c3.94,0,7.34,1.31,10.2,3.93,2.89,2.66,4.34,5.86,4.34,9.61v25.55c0,6.48-2.52,11.66-7.56,15.53,5.04,3.87,7.56,9.08,7.56,15.64v28.89h-19.69v-28.89c0-1.8-.7-3.34-2.11-4.63-1.41-1.21-3.05-1.82-4.92-1.82h-11.6ZM244.83,276.62c1.88,0,3.52-.62,4.92-1.88,1.41-1.21,2.11-2.71,2.11-4.51v-20.74h-18.63v27.13h11.6Z" fill="#ea1836" stroke-width="0"/><path d="M305.36,311.96h32.81v18.34h-52.5v-99.14h52.5v18.34h-32.81v22.03h27.3v18.4h-27.3v22.03Z" fill="#ea1836" stroke-width="0"/><path d="M348.25,231.16h43.48c3.95,0,7.34,1.31,10.2,3.93,2.89,2.66,4.34,5.86,4.34,9.61v60.82c0,7.58-2.89,13.67-8.67,18.28-5.43,4.34-12.21,6.5-20.33,6.5h-29v-99.14ZM367.94,249.5v62.46h9.32c6.21,0,9.32-2.15,9.32-6.45v-56.02h-18.63Z" fill="#ea1836" stroke-width="0"/></g></svg>