<?xml version="1.0" encoding="UTF-8"?><svg id="b" xmlns="http://www.w3.org/2000/svg" viewBox="0 0 700 874.59"><g id="c"><polygon points="359.5 641.17 359.5 577.27 346.36 577.27 346.36 641.17 48.95 641.17 0 593.48 0 418.46 49.81 380.52 371.95 380.52 654.43 380.76 700 426.32 700 595.35 654.45 641.17 359.5 641.17" fill="#a5b0b6" stroke-width="0"/><g id="d"><polygon points="352.11 760.51 183.39 874.59 44.77 265.59 221.41 228.16 221.41 220.06 217.3 219.2 217.3 152.39 280.7 138.76 289.33 126.74 309.48 119.8 313.72 116.47 352.11 0 390.5 116.47 394.74 119.8 414.88 126.74 423.51 138.76 486.91 152.39 486.91 219.2 482.8 220.06 482.8 228.17 659.44 265.59 520.82 874.59 352.11 760.51" fill="#a5b0b6" stroke-width="0"/><polygon points="352.11 744.5 192.86 854.12 143.59 615.19 83.88 367.86 61.91 276.85 235.39 240.1 235.39 208.09 231.28 207.23 231.28 164.3 288.71 151.95 297.88 139.17 316.03 132.91 325.54 125.47 352.11 44.86 378.67 125.47 388.18 132.91 406.33 139.17 415.5 151.95 472.93 164.3 472.93 207.23 468.82 208.09 468.82 240.11 642.3 276.85 620.51 367.13 560.82 614.34 511.35 854.12 352.11 744.5" fill="#0b2a5b" stroke-width="0"/><path d="M271.88,247.64l-.03-42.08c2.34-.24,4.76-.45,7.21-.67v41.23l9.61-2.04v-39.95c4.27-.3,8.7-.56,13.24-.79v37.94l9.61-2.04v-36.33c4.5-.18,9.12-.32,13.85-.43v33.83l8.39-1.78v-32.22c4.72-.08,9.54-.12,14.46-.14v29.3l4.19-.89,4.19.89v-29.3c5.05.02,9.87.07,14.46.14v32.23l8.39,1.78v-33.83c4.91.12,9.5.28,13.85.46v36.31l9.61,2.04v-37.89c4.8.26,9.2.55,13.24.85v39.85l9.61,2.04v-41.07c2.59.25,5,.49,7.18.74v41.85s9.6,2.04,9.6,2.04l.02-52.82-4.23-.53c-22.3-2.8-51.2-4.22-85.92-4.22s-62.34,1.32-85.88,3.92l-4.31.48.04,53.18,9.61-2.04Z" fill="#ea1836" stroke-width="0"/><path d="M398.51,179.26l-7.74-10.78-23.23-5.37-11.3-8.85h-8.26l-11.3,8.85-23.23,5.37-7.74,10.78c-22.03.99-35.99,2.48-42.39,3.27l.67,5.81c3.52-.44,9.34-1.08,17.56-1.75,15.1-1.2,38.61-2.42,70.57-2.42s55.47,1.23,70.57,2.42c8.22.67,14.04,1.31,17.56,1.75l.67-5.81c-6.4-.79-20.36-2.28-42.39-3.27Z" fill="#ea1836" stroke-width="0"/><polygon points="352.11 118.5 346.53 181.25 352.11 181.25 357.68 181.25 352.11 118.5" fill="#ea1836" stroke-width="0"/><polygon points="352.11 260.07 590.89 310.66 567.42 407.86 596.31 407.86 585.34 393.36 608.03 299.39 352.11 245.17 96.18 299.39 118.77 392.95 104.86 407.86 136.75 407.71 113.32 310.66 352.11 260.07" fill="#ea1836" stroke-width="0"/><polygon points="567.42 407.86 567.42 407.86 567.42 407.86 567.42 407.86" fill="#ea1836" stroke-width="0"/><polyline points="151.07 353.84 145.72 384.61 131.7 396.01 217.51 803.57 352.11 705.11 486.7 803.57 573.56 391.48 556.52 387.51" fill="#fff" stroke-width="0"/><polygon points="400.64 605.91 303.57 605.91 319.62 728.88 352.11 705.11 384.6 728.88 400.64 605.91" fill="#ea1836" stroke-width="0"/><polyline points="435.23 765.92 500.73 349.44 558.33 349.44 556.52 387.51 573.56 391.48 486.7 803.57" fill="#ea1836" stroke-width="0"/><polyline points="276.41 760.49 216.36 424.7 145.72 384.61 129.85 387.98 138.27 424.55 217.51 803.57" fill="#ea1836" stroke-width="0"/><polyline points="352.11 688.94 556.97 464.82 590.89 310.66 113.32 310.66 140.36 422.64 352.11 688.94" fill="#0b2a5b" stroke-width="0"/><path d="M352.09,467.48c-44.02,0-79.83-37.4-79.83-83.38s35.81-83.38,79.83-83.38,79.83,37.4,79.83,83.38-35.81,83.38-79.83,83.38Z" fill="#fff" stroke-width="0"/><ellipse cx="352.11" cy="384.1" rx="51.87" ry="54.17" fill="#ea1836" stroke-width="0"/><polygon points="352.11 590.49 347.48 605.34 332.53 605.34 344.63 614.52 340.01 629.37 352.11 620.19 364.2 629.37 359.58 614.52 371.68 605.34 356.73 605.34 352.11 590.49" fill="#fff" stroke-width="0"/><polygon points="525.28 373.51 522.97 380.93 515.5 380.93 521.54 385.52 519.23 392.95 525.28 388.36 531.33 392.95 529.02 385.52 535.07 380.93 527.59 380.93 525.28 373.51" fill="#fff" stroke-width="0"/><polygon points="423.93 289.05 421.62 296.47 414.14 296.47 420.19 301.06 417.88 308.49 423.93 303.9 429.97 308.49 427.66 301.06 433.71 296.47 426.24 296.47 423.93 289.05" fill="#fff" stroke-width="0"/><polygon points="352.63 272.24 350.32 279.67 342.84 279.67 348.89 284.26 346.58 291.68 352.63 287.09 358.67 291.68 356.36 284.26 362.41 279.67 354.94 279.67 352.63 272.24" fill="#fff" stroke-width="0"/><polygon points="280.28 289.05 282.59 296.47 290.07 296.47 284.02 301.06 286.33 308.49 280.28 303.9 274.24 308.49 276.55 301.06 270.5 296.47 277.97 296.47 280.28 289.05" fill="#fff" stroke-width="0"/><polygon points="178.93 373.51 181.24 380.93 188.72 380.93 182.67 385.52 184.98 392.95 178.93 388.36 172.88 392.95 175.19 385.52 169.14 380.93 176.62 380.93 178.93 373.51" fill="#fff" stroke-width="0"/><polygon points="467.74 311.43 464.44 322.04 453.76 322.04 462.4 328.6 459.1 339.21 467.74 332.65 476.39 339.21 473.08 328.6 481.72 322.04 471.05 322.04 467.74 311.43" fill="#fff" stroke-width="0"/><polygon points="533.67 322.26 529.71 334.99 516.89 334.99 527.26 342.85 523.3 355.58 533.67 347.72 544.04 355.58 540.08 342.85 550.45 334.99 537.63 334.99 533.67 322.26" fill="#fff" stroke-width="0"/><polygon points="170.54 322.26 174.5 334.99 187.32 334.99 176.95 342.85 180.91 355.58 170.54 347.72 160.17 355.58 164.13 342.85 153.76 334.99 166.58 334.99 170.54 322.26" fill="#fff" stroke-width="0"/><polygon points="231.13 311.43 234.44 322.04 245.11 322.04 236.47 328.6 239.77 339.21 231.13 332.65 222.49 339.21 225.79 328.6 217.15 322.04 227.83 322.04 231.13 311.43" fill="#fff" stroke-width="0"/></g><path d="M649.27,393.2l-277.33-.23H54.01l-41.57,31.66v163.6l41.56,40.5h279.9v-63.91h38.04v63.91h277.33l38.28-38.52v-158.74l-38.28-38.28ZM579.12,520.77h-27.96v-19.86h27.96v19.86Z" fill="#0b2a5b" stroke-width="0"/><polygon points="560 363.87 147.55 363.87 139.9 371.89 139.9 402.56 147.56 410.55 155.58 410.55 162.9 410.55 177.25 410.55 191.72 410.55 194.78 410.55 198.07 410.55 207.4 410.55 213.98 410.55 215.61 410.55 228.23 410.55 235.65 410.55 250.12 410.55 259.58 410.55 263.59 410.55 285.33 410.55 290.67 410.55 301.09 410.55 302.29 409.32 303.47 410.55 313.63 410.55 318.82 410.55 331.99 410.55 349.02 410.55 353.34 410.55 360.56 410.55 374.22 410.55 383.79 410.55 399.13 410.55 400.39 409.28 401.6 410.55 412.09 410.55 417.37 410.55 430.33 410.55 435.33 410.55 445.8 410.55 451.16 410.55 461.38 410.55 474.37 410.55 479.9 410.55 495.47 410.55 495.98 410.55 508.47 410.55 518.72 410.55 521.37 410.54 521.38 410.55 531.53 410.55 536.72 410.55 560.1 410.55 560 363.87" fill="#0b2a5b" stroke-width="0"/><path d="M162.71,399.35l-3.15,3.2h-8.58l-3.07-3.2v-24.26l3.07-3.22h8.58l3.15,3.24v4.73h-4.81v-2.3h-5.18v19.36h5.18v-2.48h4.81v4.94Z" fill="#fff" stroke-width="0"/><path d="M177.33,402.55l-1.16-6.84h-5.05l-1.16,6.84h-4.91l5.21-30.68h6.77l5.21,30.68h-4.91ZM175.21,390.05l-1.56-9.18-1.56,9.18h3.12Z" fill="#fff" stroke-width="0"/><path d="M199.78,388.88l-3.12,3.26h-6.59v10.41h-4.81v-30.68h11.41l3.12,3.24v13.77ZM194.97,386.48v-8.95h-4.9v8.95h4.9Z" fill="#fff" stroke-width="0"/><path d="M207.61,402.55h-4.83v-30.68h4.83v30.68Z" fill="#fff" stroke-width="0"/><path d="M225.01,377.53h-4.78v25.02h-4.83v-25.02h-4.78v-5.66h14.39v5.66Z" fill="#fff" stroke-width="0"/><path d="M235.74,402.55l-1.16-6.84h-5.05l-1.16,6.84h-4.91l5.21-30.68h6.77l5.21,30.68h-4.91ZM233.61,390.05l-1.56-9.18-1.56,9.18h3.12Z" fill="#fff" stroke-width="0"/><path d="M255.59,402.55h-11.94v-30.68h4.83v25.02h7.11v5.66Z" fill="#fff" stroke-width="0"/><path d="M282.67,402.55h-4.81v-12.5h-5.46v12.5h-4.81v-30.68h4.81v12.5h5.46v-12.5h4.81v30.68Z" fill="#fff" stroke-width="0"/><path d="M300.81,399.35l-3.1,3.2h-8.96l-3.07-3.2v-24.26l3.07-3.22h8.96l3.1,3.22v24.26ZM295.98,396.89v-19.36h-5.5v19.36h5.5Z" fill="#fff" stroke-width="0"/><path d="M318.62,399.35l-3.15,3.2h-8.58l-3.07-3.2v-24.26l3.07-3.22h8.58l3.15,3.24v4.73h-4.81v-2.3h-5.18v19.36h5.18v-2.48h4.81v4.94Z" fill="#fff" stroke-width="0"/><path d="M336.99,371.87l-6.44,15.35,6.44,15.33h-5.36l-5.18-12.5v12.5h-4.81v-30.68h4.81v12.5l5.18-12.5h5.36Z" fill="#fff" stroke-width="0"/><path d="M352.56,402.55h-12.57v-30.68h12.47v5.66h-7.65v6.84h6.59v5.68h-6.59v6.84h7.75v5.66Z" fill="#fff" stroke-width="0"/><path d="M366.22,391.24v11.31h-4.88v-11.35l-5.78-19.34h4.95l3.29,11.43,3.24-11.43h5.11l-5.93,19.38Z" fill="#fff" stroke-width="0"/><path d="M398.94,399.35l-3.15,3.2h-8.58l-3.07-3.2v-24.26l3.07-3.22h8.58l3.15,3.24v4.73h-4.81v-2.3h-5.18v19.36h5.18v-2.48h4.81v4.94Z" fill="#fff" stroke-width="0"/><path d="M417.08,399.35l-3.1,3.2h-8.96l-3.07-3.2v-24.26l3.07-3.22h8.96l3.1,3.22v24.26ZM412.25,396.89v-19.36h-5.5v19.36h5.5Z" fill="#fff" stroke-width="0"/><path d="M430.15,402.55l-5.26-16.07v16.07h-4.8v-30.68h5.16l5.28,16.09v-16.09h4.78v30.64l.02.04h-5.18Z" fill="#fff" stroke-width="0"/><path d="M450.8,377.53h-7.64v6.84h6.57v5.68h-6.57v12.5h-4.83v-30.68h12.47v5.66Z" fill="#fff" stroke-width="0"/><path d="M466.37,402.55h-12.57v-30.68h12.47v5.66h-7.65v6.84h6.59v5.68h-6.59v6.84h7.75v5.66Z" fill="#fff" stroke-width="0"/><path d="M484.9,402.55h-5.16l-4.1-12.5h-1.43v12.5h-4.83v-30.68h11.57l3.07,3.22v11.27l-3.29,3.61,4.17,12.58ZM474.21,384.37h5v-6.86h-5v6.86Z" fill="#fff" stroke-width="0"/><path d="M500.47,402.55h-12.57v-30.68h12.47v5.66h-7.65v6.84h6.59v5.68h-6.59v6.84h7.75v5.66Z" fill="#fff" stroke-width="0"/><path d="M513.54,402.55l-5.26-16.07v16.07h-4.8v-30.68h5.16l5.28,16.09v-16.09h4.78v30.64l.02.04h-5.18Z" fill="#fff" stroke-width="0"/><path d="M536.53,399.35l-3.15,3.2h-8.58l-3.07-3.2v-24.26l3.07-3.22h8.58l3.15,3.24v4.73h-4.81v-2.3h-5.18v19.36h5.18v-2.48h4.81v4.94Z" fill="#fff" stroke-width="0"/><path d="M552.1,402.55h-12.57v-30.68h12.47v5.66h-7.65v6.84h6.59v5.68h-6.59v6.84h7.75v5.66Z" fill="#fff" stroke-width="0"/><polygon points="68.02 595.89 46.22 574.65 46.22 447.04 68.02 425.8 207.85 425.8 227.03 444.98 227.03 483.8 183.79 483.8 183.79 468.08 89.46 468.08 89.46 553.61 183.79 553.61 183.79 537.89 227.03 537.89 227.03 576.71 207.85 595.89 68.02 595.89" fill="#e4e6ed" stroke-width="0"/><polygon points="69.24 428.8 49.22 448.31 49.22 573.38 69.24 592.89 206.61 592.89 224.03 575.47 224.03 540.89 186.79 540.89 186.79 556.61 86.46 556.61 86.46 465.08 186.79 465.08 186.79 480.8 224.03 480.8 224.03 446.22 206.61 428.8 69.24 428.8" fill="#fff" stroke-width="0"/><polygon points="74.94 578.89 63.22 567.48 63.22 454.21 74.94 442.8 200.81 442.8 210.03 452.02 210.03 466.8 200.79 466.8 200.79 456.08 195.79 451.08 77.46 451.08 72.46 456.08 72.46 565.61 77.46 570.61 195.79 570.61 200.79 565.61 200.79 554.89 210.03 554.89 210.03 569.67 200.81 578.89 74.94 578.89" fill="#e4e6ed" stroke-width="0"/><polygon points="495.95 595.89 474.15 574.65 474.15 447.04 495.95 425.8 635.77 425.8 654.96 444.98 654.96 483.8 611.72 483.8 611.72 468.08 517.38 468.08 517.38 553.61 611.72 553.61 611.72 537.89 654.96 537.89 654.96 576.71 635.77 595.89 495.95 595.89" fill="#e4e6ed" stroke-width="0"/><polygon points="497.17 428.8 477.15 448.31 477.15 573.38 497.17 592.89 634.53 592.89 651.96 575.47 651.96 540.89 614.72 540.89 614.72 556.61 514.38 556.61 514.38 465.08 614.72 465.08 614.72 480.8 651.96 480.8 651.96 446.22 634.53 428.8 497.17 428.8" fill="#fff" stroke-width="0"/><polygon points="502.86 578.89 491.15 567.48 491.15 454.21 502.86 442.8 628.73 442.8 637.96 452.02 637.96 466.8 628.72 466.8 628.72 456.08 623.72 451.08 505.38 451.08 500.38 456.08 500.38 565.61 505.38 570.61 623.72 570.61 628.72 565.61 628.72 554.89 637.96 554.89 637.96 569.67 628.73 578.89 502.86 578.89" fill="#e4e6ed" stroke-width="0"/><polygon points="405.72 595.89 405.72 531.99 300.14 531.99 300.14 595.89 256.9 595.89 256.9 425.8 300.14 425.8 300.14 489.7 405.72 489.7 405.72 425.8 448.96 425.8 448.96 595.89 405.72 595.89" fill="#e4e6ed" stroke-width="0"/><polygon points="408.72 428.8 408.72 492.7 297.14 492.7 297.14 428.8 259.9 428.8 259.9 592.89 297.14 592.89 297.14 528.99 408.72 528.99 408.72 592.89 445.96 592.89 445.96 428.8 408.72 428.8" fill="#fff" stroke-width="0"/><polygon points="422.72 578.89 422.72 514.99 283.14 514.99 283.14 578.89 273.9 578.89 273.9 442.8 283.14 442.8 283.14 506.7 422.72 506.7 422.72 442.8 431.96 442.8 431.96 578.89 422.72 578.89" fill="#e4e6ed" stroke-width="0"/><polyline points="574.41 393.04 599.11 393.04 577.86 375.97" fill="#ea1836" stroke-width="0"/><polyline points="131.7 393.04 104.74 393.04 127.16 375.03" fill="#ea1836" stroke-width="0"/></g></svg>